%TF.GenerationSoftware,KiCad,Pcbnew,8.0.7*%
%TF.CreationDate,2026-03-28T05:21:06-04:00*%
%TF.ProjectId,main,6d61696e-2e6b-4696-9361-645f70636258,rev?*%
%TF.SameCoordinates,Original*%
%TF.FileFunction,Copper,L2,Inr*%
%TF.FilePolarity,Positive*%
%FSLAX46Y46*%
G04 Gerber Fmt 4.6, Leading zero omitted, Abs format (unit mm)*
G04 Created by KiCad (PCBNEW 8.0.7) date 2026-03-28 05:21:06*
%MOMM*%
%LPD*%
G01*
G04 APERTURE LIST*
%TA.AperFunction,ComponentPad*%
%ADD10C,1.400000*%
%TD*%
%TA.AperFunction,ComponentPad*%
%ADD11C,1.650000*%
%TD*%
%TA.AperFunction,ComponentPad*%
%ADD12R,1.650000X1.650000*%
%TD*%
%TA.AperFunction,ComponentPad*%
%ADD13C,1.600000*%
%TD*%
%TA.AperFunction,ComponentPad*%
%ADD14C,0.800000*%
%TD*%
%TA.AperFunction,ComponentPad*%
%ADD15C,5.000000*%
%TD*%
%TA.AperFunction,ViaPad*%
%ADD16C,0.600000*%
%TD*%
%TA.AperFunction,ViaPad*%
%ADD17C,0.450000*%
%TD*%
%TA.AperFunction,ViaPad*%
%ADD18C,0.800000*%
%TD*%
%TA.AperFunction,ViaPad*%
%ADD19C,1.000000*%
%TD*%
%TA.AperFunction,ViaPad*%
%ADD20C,0.500000*%
%TD*%
G04 APERTURE END LIST*
D10*
%TO.N,+3.3V*%
%TO.C,TP1*%
X96183000Y-36343000D03*
%TO.N,GNDREF*%
X96183000Y-33803000D03*
%TD*%
%TO.N,/Reserve_TX*%
%TO.C,TP2*%
X98783000Y-64493000D03*
%TO.N,/Reserve_RX*%
X101323000Y-64493000D03*
%TD*%
D11*
%TO.N,Net-(ScrewTerminal2-Pin_2)*%
%TO.C,ScrewTerminal2*%
X99223000Y-81043000D03*
D12*
%TO.N,GNDREF*%
X96683000Y-81043000D03*
%TD*%
D10*
%TO.N,+7.5V*%
%TO.C,TP3*%
X102383000Y-80193000D03*
%TO.N,GNDREF*%
X102383000Y-82733000D03*
%TD*%
D12*
%TO.N,+7.5V*%
%TO.C,ScrewTerminal1*%
X105603000Y-81043000D03*
D11*
%TO.N,/HighCurrentComponents/7.5V_AftSwitch*%
X108143000Y-81043000D03*
X110683000Y-81043000D03*
%TO.N,/HighCurrentComponents/Pyro1_HighSide*%
X113223000Y-81043000D03*
%TO.N,/HighCurrentComponents/7.5V_AftSwitch*%
X115763000Y-81043000D03*
%TO.N,/HighCurrentComponents/Pyro2_HighSide*%
X118303000Y-81043000D03*
%TO.N,/HighCurrentComponents/7.5V_AftSwitch*%
X120843000Y-81043000D03*
%TO.N,/HighCurrentComponents/Pyro3_HighSide*%
X123383000Y-81043000D03*
%TD*%
D13*
%TO.N,+7.5V*%
%TO.C,C41*%
X106905475Y-76267615D03*
%TO.N,GNDREF*%
X107760525Y-73918383D03*
%TD*%
D14*
%TO.N,N/C*%
%TO.C,REF\u002A\u002A*%
X126955000Y-77490000D03*
X127504175Y-76164175D03*
X127504175Y-78815825D03*
X128830000Y-75615000D03*
D15*
X128830000Y-77490000D03*
D14*
X128830000Y-79365000D03*
X130155825Y-76164175D03*
X130155825Y-78815825D03*
X130705000Y-77490000D03*
%TD*%
%TO.N,N/C*%
%TO.C,REF\u002A\u002A*%
X89061000Y-39596000D03*
X89610175Y-38270175D03*
X89610175Y-40921825D03*
X90936000Y-37721000D03*
D15*
X90936000Y-39596000D03*
D14*
X90936000Y-41471000D03*
X92261825Y-38270175D03*
X92261825Y-40921825D03*
X92811000Y-39596000D03*
%TD*%
%TO.N,N/C*%
%TO.C,REF\u002A\u002A*%
X126955000Y-39596000D03*
X127504175Y-38270175D03*
X127504175Y-40921825D03*
X128830000Y-37721000D03*
D15*
X128830000Y-39596000D03*
D14*
X128830000Y-41471000D03*
X130155825Y-38270175D03*
X130155825Y-40921825D03*
X130705000Y-39596000D03*
%TD*%
%TO.N,N/C*%
%TO.C,REF\u002A\u002A*%
X89082175Y-77493000D03*
X89631350Y-76167175D03*
X89631350Y-78818825D03*
X90957175Y-75618000D03*
D15*
X90957175Y-77493000D03*
D14*
X90957175Y-79368000D03*
X92283000Y-76167175D03*
X92283000Y-78818825D03*
X92832175Y-77493000D03*
%TD*%
D16*
%TO.N,GNDREF*%
X119533000Y-69793000D03*
D17*
X110183000Y-65843000D03*
D18*
X126483000Y-55043000D03*
D16*
X84083000Y-63643000D03*
D17*
X122583000Y-41543000D03*
D18*
X122183000Y-79643000D03*
D17*
X135383000Y-50143000D03*
X133583000Y-50143000D03*
D16*
X85033000Y-49443000D03*
X115833000Y-46893000D03*
X99433000Y-69943000D03*
D17*
X130285001Y-52980740D03*
X135483000Y-56043000D03*
D16*
X114743499Y-66103634D03*
X105483000Y-68824250D03*
D17*
X108780636Y-54947729D03*
D16*
X97183000Y-60243000D03*
D17*
X136183000Y-62243000D03*
X134483000Y-50143000D03*
D16*
X123983000Y-53943000D03*
D17*
X115183000Y-62143000D03*
D16*
X121183000Y-53543000D03*
D17*
X119283000Y-58143000D03*
X132783000Y-50143000D03*
D16*
X90683000Y-48643000D03*
D19*
X86733000Y-70593000D03*
D17*
X130283000Y-64743000D03*
D16*
X126383000Y-62143000D03*
X89083000Y-65943000D03*
D17*
X111983000Y-52543000D03*
D16*
X104083000Y-48043000D03*
X93783000Y-69243000D03*
X93783000Y-67943000D03*
D17*
X136183000Y-52843000D03*
X107583000Y-62243000D03*
X112783000Y-57343000D03*
D16*
X112483000Y-70593000D03*
X116783000Y-42143000D03*
X124483000Y-34643000D03*
D17*
X131083000Y-50143000D03*
X119295808Y-62945499D03*
X134783000Y-56043000D03*
X131183000Y-60535001D03*
X130283000Y-52043000D03*
X130283000Y-60543000D03*
X130283000Y-58443000D03*
X136183000Y-56043000D03*
D18*
X133416000Y-71960000D03*
X126083000Y-57843000D03*
D17*
X135183000Y-66543000D03*
D16*
X123733000Y-77143000D03*
D17*
X130283000Y-56243000D03*
X136183000Y-53643000D03*
D16*
X124783000Y-36843000D03*
X98783000Y-40243000D03*
X105483000Y-52868500D03*
D17*
X131283000Y-56043000D03*
D18*
X117083000Y-79643000D03*
D17*
X136183000Y-54443000D03*
X136183000Y-66543000D03*
D16*
X87083000Y-55143000D03*
D17*
X136183000Y-64043000D03*
D16*
X124695500Y-70093000D03*
D17*
X111183000Y-61343000D03*
D16*
X101483000Y-56393000D03*
X107783000Y-52043000D03*
X101783000Y-49749000D03*
D17*
X132083000Y-60535000D03*
X131783000Y-66543000D03*
D16*
X106083000Y-57338500D03*
D17*
X130283000Y-59143000D03*
X130283000Y-57143000D03*
X135183000Y-60543000D03*
D16*
X96783000Y-41343000D03*
D17*
X136183000Y-61343000D03*
D16*
X120183000Y-34543000D03*
X117283000Y-66843000D03*
X95283000Y-69843000D03*
X99760001Y-53365999D03*
X105883000Y-39343000D03*
X129583000Y-47943000D03*
D17*
X133583000Y-66543000D03*
X136183000Y-58343000D03*
D16*
X117383000Y-51043000D03*
X88408000Y-57943000D03*
D17*
X130383000Y-66543000D03*
D16*
X83983000Y-53443000D03*
X103183000Y-43943000D03*
D17*
X115983000Y-53343000D03*
X136183000Y-50143000D03*
X130283000Y-51143000D03*
X130283000Y-54743000D03*
X130283000Y-50143000D03*
X119382613Y-54992421D03*
D16*
X84383000Y-61343000D03*
D17*
X130283000Y-63343000D03*
X131883000Y-50143000D03*
X136183000Y-52043000D03*
D16*
X103107000Y-61467000D03*
D17*
X133183000Y-56043000D03*
D16*
X118533000Y-67718000D03*
D17*
X119383000Y-51593000D03*
X136183000Y-63143000D03*
X130283000Y-59843000D03*
D16*
X111583000Y-71493000D03*
D17*
X101783000Y-40743000D03*
D16*
X120083000Y-38843000D03*
X93733000Y-70468000D03*
X112718340Y-67316302D03*
D17*
X132183000Y-56043000D03*
D16*
X115383000Y-50943000D03*
D17*
X134283000Y-60543000D03*
X129158000Y-67143000D03*
X133983000Y-56043000D03*
X133483000Y-60543000D03*
X130283000Y-61785000D03*
D16*
X100934156Y-51891844D03*
D17*
X113583000Y-57343000D03*
X136183000Y-55243000D03*
X136196088Y-64710107D03*
D16*
X101983000Y-39043000D03*
D17*
X136183000Y-60543000D03*
D16*
X116583000Y-44043000D03*
D17*
X130283000Y-64043000D03*
D16*
X118733000Y-70301000D03*
D17*
X132683000Y-66543000D03*
D16*
X107883000Y-35743000D03*
D18*
X133683000Y-47468000D03*
X111983000Y-79843000D03*
D16*
X95183000Y-68043000D03*
D18*
%TO.N,+7.5V*%
X133683000Y-46043000D03*
X128033000Y-62493000D03*
D16*
X112583000Y-69343000D03*
X116567060Y-66101840D03*
D17*
X111883000Y-69343000D03*
D16*
X112583000Y-68543000D03*
X111783000Y-68543000D03*
D18*
X128083000Y-54210000D03*
X128033000Y-70693000D03*
D16*
%TO.N,+3.3V*%
X86983000Y-58443000D03*
X90633000Y-45493000D03*
X98483000Y-49343000D03*
X91983000Y-54343000D03*
X116283000Y-40543000D03*
X100283000Y-44593000D03*
D18*
X120633000Y-73243000D03*
D17*
X112757838Y-58943001D03*
D18*
X121683000Y-73943000D03*
D16*
X88383000Y-54943000D03*
X108833000Y-64293000D03*
X100871165Y-52895365D03*
X99383000Y-68393000D03*
X90733000Y-47493000D03*
D17*
X110383000Y-58143000D03*
D16*
X116583000Y-45843000D03*
D18*
X121733000Y-72943000D03*
D16*
X100983000Y-40343000D03*
D17*
X111183000Y-54943000D03*
D18*
X120583000Y-74243000D03*
D17*
X106783000Y-61943000D03*
X112774515Y-56468000D03*
D16*
X111083000Y-36243000D03*
X126455500Y-61220499D03*
X123483000Y-41243000D03*
X105798000Y-55513500D03*
X126733000Y-69093000D03*
X118783000Y-47643000D03*
D17*
X115980000Y-54946000D03*
%TO.N,/PTA3*%
X113580501Y-55740501D03*
X126483000Y-62943000D03*
X114383000Y-58943000D03*
X123310001Y-60115999D03*
X126383000Y-64243000D03*
X120083000Y-57437932D03*
%TO.N,/PTA5*%
X124483000Y-65143000D03*
%TO.N,/PTA7*%
X123483000Y-65143000D03*
%TO.N,/PTA6*%
X123933000Y-65943000D03*
%TO.N,/PTB5*%
X122683000Y-60243000D03*
%TO.N,/PTA4*%
X115213889Y-59712111D03*
%TO.N,/PTA1*%
X124079967Y-60246033D03*
%TO.N,/PTB4*%
X116783000Y-59743000D03*
%TO.N,/PTB1*%
X109583000Y-56543000D03*
X120100466Y-61625534D03*
X120833000Y-58393000D03*
%TO.N,/PTB0*%
X115183001Y-60542999D03*
%TO.N,/P11*%
X105783000Y-70643000D03*
X106183000Y-61045500D03*
%TO.N,/M1M2*%
X113635500Y-48743000D03*
X114383000Y-56543000D03*
%TO.N,/Reserve_TX*%
X114884302Y-63944953D03*
%TO.N,Net-(MIMXRT1062DVL6B1-VDD_USB_CAP)*%
X111183000Y-57343000D03*
X107733000Y-61418000D03*
%TO.N,/D0*%
X86183000Y-44343000D03*
%TO.N,/CS*%
X110383000Y-54143000D03*
%TO.N,/D2*%
X107583000Y-55043000D03*
%TO.N,/CLK*%
X98283000Y-50643000D03*
%TO.N,/D1*%
X107683000Y-54243000D03*
%TO.N,/D3*%
X98183000Y-52043000D03*
%TO.N,/BMP390_SCL1*%
X111183000Y-58943000D03*
D20*
X129183000Y-64748800D03*
D17*
%TO.N,/BMP390_SDA1*%
X122133000Y-66293000D03*
D16*
X103733000Y-66543000D03*
D17*
X112756585Y-63184517D03*
D16*
X95289250Y-65086750D03*
D17*
%TO.N,/Xbee_TX*%
X92483000Y-54993000D03*
X97283000Y-57743000D03*
X106783000Y-59828000D03*
X98483000Y-60343000D03*
D16*
%TO.N,/Xbee_RX*%
X99583000Y-60393000D03*
D17*
X112783000Y-59743000D03*
%TO.N,/Cam_TX*%
X118383000Y-56543000D03*
X97933000Y-61543003D03*
%TO.N,/Cam_RX*%
X97933000Y-60943000D03*
X115980000Y-56515540D03*
%TO.N,/PyroCH3_4*%
X120313034Y-67312966D03*
X117583000Y-57343000D03*
%TO.N,/ADXL375_SDA2*%
X110383000Y-62143000D03*
D16*
X113833000Y-47693000D03*
D17*
%TO.N,/SD_B0_02*%
X110258000Y-47543000D03*
%TO.N,/PyroCH1_2*%
X115183000Y-51643000D03*
X118283000Y-67043000D03*
%TO.N,/BMO085_SDA*%
X111983000Y-55743000D03*
D16*
X101783000Y-47943000D03*
D17*
%TO.N,/EMC_24*%
X119933000Y-46693000D03*
%TO.N,/EMC_26*%
X123733000Y-50143000D03*
%TO.N,/SD_B0_04*%
X113583000Y-50743000D03*
%TO.N,/SD_B0_03*%
X110258000Y-50668000D03*
%TO.N,/SD_B0_00*%
X112783000Y-54143000D03*
%TO.N,/BMO085_SCL*%
X111983000Y-60543000D03*
D16*
X96683000Y-45643000D03*
X100183000Y-49343000D03*
%TO.N,/ADXL375_SCL2*%
X114533000Y-47143000D03*
D17*
X111183000Y-62943000D03*
%TO.N,/Pyro3_Test_39*%
X114383000Y-61343000D03*
%TO.N,/D+*%
X110383000Y-57343000D03*
X92383000Y-59143000D03*
%TO.N,/EMC_29*%
X115583000Y-49243000D03*
%TO.N,/Pyro1_Test_40*%
X110383000Y-61343000D03*
%TO.N,/Pyro2_Test_41*%
X113756698Y-65619302D03*
%TO.N,/D-*%
X92383000Y-58543000D03*
X109583000Y-57343000D03*
%TO.N,/Reserve_RX*%
X115515547Y-64110453D03*
%TO.N,/Servo1_PWM*%
X120083000Y-63043000D03*
%TO.N,/EMC_28*%
X116633000Y-50693000D03*
%TO.N,/EMC_27*%
X120783000Y-46693000D03*
%TO.N,/Servo4_PWM*%
X120083000Y-58943000D03*
%TO.N,/SD_B0_01*%
X112000602Y-53343000D03*
%TO.N,/PyroCH2_3*%
X119797331Y-67728669D03*
X115983000Y-58143000D03*
%TO.N,/Servo2_PWM*%
X120083000Y-60195500D03*
%TO.N,/Servo3_PWM*%
X120083000Y-59595497D03*
%TO.N,/EMC_25*%
X118268189Y-51328189D03*
%TO.N,/SD_B0_05*%
X112783000Y-50743000D03*
D16*
%TO.N,Net-(BNO1-BOOTN)*%
X99883000Y-40243000D03*
%TO.N,Net-(BNO1-NRST)*%
X96683000Y-44443000D03*
%TO.N,Net-(BNO1-H_SA0{slash}MOSI)*%
X97083000Y-39043000D03*
%TO.N,Net-(MIMXRT1062DVL6B1-DCDC_IN_1)*%
X107783000Y-51043000D03*
D17*
%TO.N,Net-(MIMXRT1062DVL6B1-VDD_HIGH_CAP)*%
X106983000Y-55640500D03*
X107633000Y-56995500D03*
%TO.N,Net-(KMR241GLFS1-COM_1)*%
X121383000Y-62943000D03*
X132283000Y-48543000D03*
%TO.N,Net-(MIMXRT1062DVL6B1-GPIO_B0_03)*%
X122433000Y-50893000D03*
X120075500Y-54905500D03*
%TO.N,Net-(MKL02Z32VFG1-PTB3{slash}IRQ_10)*%
X121283000Y-61943000D03*
%TO.N,Net-(MIMXRT1062DVL6B1-GPIO_AD_B1_15)*%
X106783000Y-67143000D03*
X112083000Y-63443000D03*
%TD*%
%TA.AperFunction,Conductor*%
%TO.N,GNDREF*%
G36*
X125364167Y-31751221D02*
G01*
X125426607Y-31768186D01*
X125862040Y-32022875D01*
X125865277Y-32024835D01*
X126776797Y-32596022D01*
X126780371Y-32598349D01*
X127671217Y-33200835D01*
X127674718Y-33203293D01*
X128543993Y-33836456D01*
X128547399Y-33839028D01*
X129057278Y-34238350D01*
X129394055Y-34502104D01*
X129397413Y-34504829D01*
X130202935Y-35182304D01*
X130220444Y-35197029D01*
X130223694Y-35199861D01*
X130787138Y-35708316D01*
X131022064Y-35920314D01*
X131025222Y-35923265D01*
X131761780Y-36636077D01*
X131797989Y-36671118D01*
X131801035Y-36674170D01*
X132521943Y-37422245D01*
X132547293Y-37448550D01*
X132550234Y-37451712D01*
X132741038Y-37664050D01*
X133268982Y-38251579D01*
X133271816Y-38254845D01*
X133931854Y-39043003D01*
X133962268Y-39079320D01*
X133964978Y-39082673D01*
X134612588Y-39913184D01*
X134626269Y-39930728D01*
X134628858Y-39934170D01*
X135070357Y-40543003D01*
X135260169Y-40804757D01*
X135262646Y-40808301D01*
X135863220Y-41700372D01*
X135865572Y-41704001D01*
X136434802Y-42616669D01*
X136436756Y-42619910D01*
X136690579Y-43055970D01*
X136707412Y-43118300D01*
X136719985Y-74026374D01*
X136703022Y-74089026D01*
X136448412Y-74524361D01*
X136446450Y-74527602D01*
X135875273Y-75439103D01*
X135872913Y-75442727D01*
X135270457Y-76333529D01*
X135267972Y-76337068D01*
X134634838Y-77206300D01*
X134632232Y-77209750D01*
X133969172Y-78056384D01*
X133966447Y-78059742D01*
X133274246Y-78882773D01*
X133271405Y-78886033D01*
X132550961Y-79684392D01*
X132548009Y-79687551D01*
X131800155Y-80460317D01*
X131797094Y-80463372D01*
X131022737Y-81209605D01*
X131019571Y-81212551D01*
X130219675Y-81931322D01*
X130216409Y-81934155D01*
X129391948Y-82624594D01*
X129388585Y-82627312D01*
X128540539Y-83288593D01*
X128537083Y-83291192D01*
X127666510Y-83922492D01*
X127662966Y-83924969D01*
X126770893Y-84525543D01*
X126767264Y-84527895D01*
X125854595Y-85097124D01*
X125851354Y-85099078D01*
X125415319Y-85352885D01*
X125352935Y-85369718D01*
X94455921Y-85368735D01*
X94393319Y-85351770D01*
X93957943Y-85097115D01*
X93954740Y-85095175D01*
X93043217Y-84523985D01*
X93039604Y-84521632D01*
X92155584Y-83923764D01*
X92148795Y-83919172D01*
X92145263Y-83916692D01*
X92111547Y-83892134D01*
X91276016Y-83283550D01*
X91272579Y-83280954D01*
X90425946Y-82617895D01*
X90422588Y-82615170D01*
X89599556Y-81922969D01*
X89596296Y-81920128D01*
X88797936Y-81199685D01*
X88794777Y-81196733D01*
X88635924Y-81043001D01*
X88022002Y-80448872D01*
X88018956Y-80445820D01*
X88013824Y-80440495D01*
X87272701Y-79671443D01*
X87269762Y-79668283D01*
X87170947Y-79558316D01*
X86551017Y-78868419D01*
X86548184Y-78865154D01*
X86528706Y-78841895D01*
X85857718Y-78040662D01*
X85855014Y-78037316D01*
X85702664Y-77841938D01*
X85430569Y-77492996D01*
X87951590Y-77492996D01*
X87951590Y-77493003D01*
X87971913Y-77841927D01*
X87971914Y-77841938D01*
X88032603Y-78186127D01*
X88032605Y-78186134D01*
X88132849Y-78520972D01*
X88271282Y-78841895D01*
X88271288Y-78841908D01*
X88446045Y-79144597D01*
X88654759Y-79424949D01*
X88654764Y-79424955D01*
X88778638Y-79556253D01*
X88894617Y-79679183D01*
X89029878Y-79792680D01*
X89162361Y-79903847D01*
X89162369Y-79903853D01*
X89454378Y-80095911D01*
X89760750Y-80249777D01*
X89766724Y-80252777D01*
X90095164Y-80372319D01*
X90435261Y-80452923D01*
X90782416Y-80493500D01*
X90782423Y-80493500D01*
X91131927Y-80493500D01*
X91131934Y-80493500D01*
X91479089Y-80452923D01*
X91819186Y-80372319D01*
X92147626Y-80252777D01*
X92312140Y-80170155D01*
X95358000Y-80170155D01*
X95358000Y-80793000D01*
X96192252Y-80793000D01*
X96170482Y-80830708D01*
X96133000Y-80970591D01*
X96133000Y-81115409D01*
X96170482Y-81255292D01*
X96192252Y-81293000D01*
X95358000Y-81293000D01*
X95358000Y-81915844D01*
X95364401Y-81975372D01*
X95364403Y-81975379D01*
X95414645Y-82110086D01*
X95414649Y-82110093D01*
X95500809Y-82225187D01*
X95500812Y-82225190D01*
X95615906Y-82311350D01*
X95615913Y-82311354D01*
X95750620Y-82361596D01*
X95750627Y-82361598D01*
X95810155Y-82367999D01*
X95810172Y-82368000D01*
X96433000Y-82368000D01*
X96433000Y-81533747D01*
X96470708Y-81555518D01*
X96610591Y-81593000D01*
X96755409Y-81593000D01*
X96895292Y-81555518D01*
X96933000Y-81533747D01*
X96933000Y-82368000D01*
X97555828Y-82368000D01*
X97555844Y-82367999D01*
X97615372Y-82361598D01*
X97615379Y-82361596D01*
X97750086Y-82311354D01*
X97750093Y-82311350D01*
X97865187Y-82225190D01*
X97865190Y-82225187D01*
X97951350Y-82110093D01*
X97951354Y-82110086D01*
X98001596Y-81975379D01*
X98003380Y-81967832D01*
X98006160Y-81968488D01*
X98027721Y-81916405D01*
X98085104Y-81876544D01*
X98154929Y-81874035D01*
X98211970Y-81906509D01*
X98367731Y-82062270D01*
X98557718Y-82195301D01*
X98767921Y-82293320D01*
X98991950Y-82353349D01*
X99156985Y-82367787D01*
X99222998Y-82373563D01*
X99223000Y-82373563D01*
X99223002Y-82373563D01*
X99286586Y-82368000D01*
X99454050Y-82353349D01*
X99678079Y-82293320D01*
X99888282Y-82195301D01*
X100078269Y-82062270D01*
X100242270Y-81898269D01*
X100375301Y-81708282D01*
X100473320Y-81498079D01*
X100533349Y-81274050D01*
X100553563Y-81043000D01*
X100533349Y-80811950D01*
X100473320Y-80587921D01*
X100375301Y-80377719D01*
X100375299Y-80377716D01*
X100375298Y-80377714D01*
X100245959Y-80192999D01*
X101177357Y-80192999D01*
X101177357Y-80193000D01*
X101197884Y-80414535D01*
X101197885Y-80414537D01*
X101258769Y-80628523D01*
X101258775Y-80628538D01*
X101357938Y-80827683D01*
X101357943Y-80827691D01*
X101492020Y-81005238D01*
X101656437Y-81155123D01*
X101656439Y-81155125D01*
X101845595Y-81272245D01*
X101845596Y-81272245D01*
X101845599Y-81272247D01*
X102040215Y-81347642D01*
X102095614Y-81390213D01*
X102119205Y-81455980D01*
X102103494Y-81524060D01*
X102053470Y-81572839D01*
X102040213Y-81578893D01*
X101845833Y-81654196D01*
X101845818Y-81654204D01*
X101729672Y-81726117D01*
X101729671Y-81726118D01*
X102336554Y-82333000D01*
X102330339Y-82333000D01*
X102228606Y-82360259D01*
X102137394Y-82412920D01*
X102062920Y-82487394D01*
X102010259Y-82578606D01*
X101983000Y-82680339D01*
X101983000Y-82686553D01*
X101374138Y-82077691D01*
X101374137Y-82077691D01*
X101358369Y-82098571D01*
X101259240Y-82297649D01*
X101198378Y-82511560D01*
X101177859Y-82732999D01*
X101177859Y-82733000D01*
X101198378Y-82954439D01*
X101259240Y-83168350D01*
X101358364Y-83367419D01*
X101358366Y-83367421D01*
X101374138Y-83388306D01*
X101983000Y-82779445D01*
X101983000Y-82785661D01*
X102010259Y-82887394D01*
X102062920Y-82978606D01*
X102137394Y-83053080D01*
X102228606Y-83105741D01*
X102330339Y-83133000D01*
X102336554Y-83133000D01*
X101729671Y-83739880D01*
X101845823Y-83811798D01*
X101845824Y-83811799D01*
X102053195Y-83892134D01*
X102271807Y-83933000D01*
X102494193Y-83933000D01*
X102712804Y-83892134D01*
X102920177Y-83811798D01*
X102920178Y-83811797D01*
X103036327Y-83739880D01*
X102429447Y-83133000D01*
X102435661Y-83133000D01*
X102537394Y-83105741D01*
X102628606Y-83053080D01*
X102703080Y-82978606D01*
X102755741Y-82887394D01*
X102783000Y-82785661D01*
X102783000Y-82779446D01*
X103391860Y-83388306D01*
X103391861Y-83388306D01*
X103407631Y-83367425D01*
X103407632Y-83367422D01*
X103506759Y-83168350D01*
X103567621Y-82954439D01*
X103588141Y-82733000D01*
X103588141Y-82732999D01*
X103567621Y-82511560D01*
X103506759Y-82297649D01*
X103407633Y-82098577D01*
X103407631Y-82098574D01*
X103391860Y-82077691D01*
X102783000Y-82686552D01*
X102783000Y-82680339D01*
X102755741Y-82578606D01*
X102703080Y-82487394D01*
X102628606Y-82412920D01*
X102537394Y-82360259D01*
X102435661Y-82333000D01*
X102429447Y-82333000D01*
X103036327Y-81726118D01*
X103036326Y-81726117D01*
X102920181Y-81654203D01*
X102920175Y-81654200D01*
X102725786Y-81578894D01*
X102670384Y-81536321D01*
X102646794Y-81470554D01*
X102662505Y-81402474D01*
X102712529Y-81353695D01*
X102725772Y-81347646D01*
X102920401Y-81272247D01*
X103109562Y-81155124D01*
X103273981Y-81005236D01*
X103408058Y-80827689D01*
X103507229Y-80628528D01*
X103568115Y-80414536D01*
X103588643Y-80193000D01*
X103586524Y-80170135D01*
X104277500Y-80170135D01*
X104277500Y-81915870D01*
X104277501Y-81915876D01*
X104283908Y-81975483D01*
X104334202Y-82110328D01*
X104334206Y-82110335D01*
X104420452Y-82225544D01*
X104420455Y-82225547D01*
X104535664Y-82311793D01*
X104535671Y-82311797D01*
X104670517Y-82362091D01*
X104670516Y-82362091D01*
X104677444Y-82362835D01*
X104730127Y-82368500D01*
X106475872Y-82368499D01*
X106535483Y-82362091D01*
X106670331Y-82311796D01*
X106785546Y-82225546D01*
X106871796Y-82110331D01*
X106922091Y-81975483D01*
X106922091Y-81975481D01*
X106923874Y-81967938D01*
X106926747Y-81968616D01*
X106948191Y-81916843D01*
X107005582Y-81876993D01*
X107075407Y-81874497D01*
X107132426Y-81906965D01*
X107287731Y-82062270D01*
X107477718Y-82195301D01*
X107687921Y-82293320D01*
X107911950Y-82353349D01*
X108076985Y-82367787D01*
X108142998Y-82373563D01*
X108143000Y-82373563D01*
X108143002Y-82373563D01*
X108206586Y-82368000D01*
X108374050Y-82353349D01*
X108598079Y-82293320D01*
X108808282Y-82195301D01*
X108998269Y-82062270D01*
X109162270Y-81898269D01*
X109295301Y-81708282D01*
X109300618Y-81696878D01*
X109346790Y-81644440D01*
X109413984Y-81625288D01*
X109480865Y-81645504D01*
X109525381Y-81696878D01*
X109530699Y-81708282D01*
X109663730Y-81898269D01*
X109827731Y-82062270D01*
X110017718Y-82195301D01*
X110227921Y-82293320D01*
X110451950Y-82353349D01*
X110616985Y-82367787D01*
X110682998Y-82373563D01*
X110683000Y-82373563D01*
X110683002Y-82373563D01*
X110746586Y-82368000D01*
X110914050Y-82353349D01*
X111138079Y-82293320D01*
X111348282Y-82195301D01*
X111538269Y-82062270D01*
X111702270Y-81898269D01*
X111835301Y-81708282D01*
X111840618Y-81696878D01*
X111886790Y-81644440D01*
X111953984Y-81625288D01*
X112020865Y-81645504D01*
X112065381Y-81696878D01*
X112070699Y-81708282D01*
X112203730Y-81898269D01*
X112367731Y-82062270D01*
X112557718Y-82195301D01*
X112767921Y-82293320D01*
X112991950Y-82353349D01*
X113156985Y-82367787D01*
X113222998Y-82373563D01*
X113223000Y-82373563D01*
X113223002Y-82373563D01*
X113286586Y-82368000D01*
X113454050Y-82353349D01*
X113678079Y-82293320D01*
X113888282Y-82195301D01*
X114078269Y-82062270D01*
X114242270Y-81898269D01*
X114375301Y-81708282D01*
X114380618Y-81696878D01*
X114426790Y-81644440D01*
X114493984Y-81625288D01*
X114560865Y-81645504D01*
X114605381Y-81696878D01*
X114610699Y-81708282D01*
X114743730Y-81898269D01*
X114907731Y-82062270D01*
X115097718Y-82195301D01*
X115307921Y-82293320D01*
X115531950Y-82353349D01*
X115696985Y-82367787D01*
X115762998Y-82373563D01*
X115763000Y-82373563D01*
X115763002Y-82373563D01*
X115826586Y-82368000D01*
X115994050Y-82353349D01*
X116218079Y-82293320D01*
X116428282Y-82195301D01*
X116618269Y-82062270D01*
X116782270Y-81898269D01*
X116915301Y-81708282D01*
X116920618Y-81696878D01*
X116966790Y-81644440D01*
X117033984Y-81625288D01*
X117100865Y-81645504D01*
X117145381Y-81696878D01*
X117150699Y-81708282D01*
X117283730Y-81898269D01*
X117447731Y-82062270D01*
X117637718Y-82195301D01*
X117847921Y-82293320D01*
X118071950Y-82353349D01*
X118236985Y-82367787D01*
X118302998Y-82373563D01*
X118303000Y-82373563D01*
X118303002Y-82373563D01*
X118366586Y-82368000D01*
X118534050Y-82353349D01*
X118758079Y-82293320D01*
X118968282Y-82195301D01*
X119158269Y-82062270D01*
X119322270Y-81898269D01*
X119455301Y-81708282D01*
X119460618Y-81696878D01*
X119506790Y-81644440D01*
X119573984Y-81625288D01*
X119640865Y-81645504D01*
X119685381Y-81696878D01*
X119690699Y-81708282D01*
X119823730Y-81898269D01*
X119987731Y-82062270D01*
X120177718Y-82195301D01*
X120387921Y-82293320D01*
X120611950Y-82353349D01*
X120776985Y-82367787D01*
X120842998Y-82373563D01*
X120843000Y-82373563D01*
X120843002Y-82373563D01*
X120906586Y-82368000D01*
X121074050Y-82353349D01*
X121298079Y-82293320D01*
X121508282Y-82195301D01*
X121698269Y-82062270D01*
X121862270Y-81898269D01*
X121995301Y-81708282D01*
X122000618Y-81696878D01*
X122046790Y-81644440D01*
X122113984Y-81625288D01*
X122180865Y-81645504D01*
X122225381Y-81696878D01*
X122230699Y-81708282D01*
X122363730Y-81898269D01*
X122527731Y-82062270D01*
X122717718Y-82195301D01*
X122927921Y-82293320D01*
X123151950Y-82353349D01*
X123316985Y-82367787D01*
X123382998Y-82373563D01*
X123383000Y-82373563D01*
X123383002Y-82373563D01*
X123446586Y-82368000D01*
X123614050Y-82353349D01*
X123838079Y-82293320D01*
X124048282Y-82195301D01*
X124238269Y-82062270D01*
X124402270Y-81898269D01*
X124535301Y-81708282D01*
X124633320Y-81498079D01*
X124693349Y-81274050D01*
X124713563Y-81043000D01*
X124693349Y-80811950D01*
X124633320Y-80587921D01*
X124535301Y-80377719D01*
X124535299Y-80377716D01*
X124535298Y-80377714D01*
X124402273Y-80187735D01*
X124402268Y-80187729D01*
X124238269Y-80023730D01*
X124238263Y-80023726D01*
X124048282Y-79890699D01*
X123838079Y-79792680D01*
X123838076Y-79792679D01*
X123838074Y-79792678D01*
X123614051Y-79732651D01*
X123614044Y-79732650D01*
X123383002Y-79712437D01*
X123382998Y-79712437D01*
X123151955Y-79732650D01*
X123151948Y-79732651D01*
X122927917Y-79792681D01*
X122717718Y-79890699D01*
X122717714Y-79890701D01*
X122527735Y-80023726D01*
X122527729Y-80023731D01*
X122363731Y-80187729D01*
X122363726Y-80187735D01*
X122230701Y-80377714D01*
X122230698Y-80377720D01*
X122225381Y-80389123D01*
X122179207Y-80441562D01*
X122112013Y-80460712D01*
X122045133Y-80440495D01*
X122000619Y-80389123D01*
X121995301Y-80377720D01*
X121995298Y-80377714D01*
X121862273Y-80187735D01*
X121862268Y-80187729D01*
X121698269Y-80023730D01*
X121698263Y-80023726D01*
X121508282Y-79890699D01*
X121298079Y-79792680D01*
X121298076Y-79792679D01*
X121298074Y-79792678D01*
X121074051Y-79732651D01*
X121074044Y-79732650D01*
X120843002Y-79712437D01*
X120842998Y-79712437D01*
X120611955Y-79732650D01*
X120611948Y-79732651D01*
X120387917Y-79792681D01*
X120177718Y-79890699D01*
X120177714Y-79890701D01*
X119987735Y-80023726D01*
X119987729Y-80023731D01*
X119823731Y-80187729D01*
X119823726Y-80187735D01*
X119690701Y-80377714D01*
X119690698Y-80377720D01*
X119685381Y-80389123D01*
X119639207Y-80441562D01*
X119572013Y-80460712D01*
X119505133Y-80440495D01*
X119460619Y-80389123D01*
X119455301Y-80377720D01*
X119455298Y-80377714D01*
X119322273Y-80187735D01*
X119322268Y-80187729D01*
X119158269Y-80023730D01*
X119158263Y-80023726D01*
X118968282Y-79890699D01*
X118758079Y-79792680D01*
X118758076Y-79792679D01*
X118758074Y-79792678D01*
X118534051Y-79732651D01*
X118534044Y-79732650D01*
X118303002Y-79712437D01*
X118302998Y-79712437D01*
X118071955Y-79732650D01*
X118071948Y-79732651D01*
X117847917Y-79792681D01*
X117637718Y-79890699D01*
X117637714Y-79890701D01*
X117447735Y-80023726D01*
X117447729Y-80023731D01*
X117283731Y-80187729D01*
X117283726Y-80187735D01*
X117150701Y-80377714D01*
X117150698Y-80377720D01*
X117145381Y-80389123D01*
X117099207Y-80441562D01*
X117032013Y-80460712D01*
X116965133Y-80440495D01*
X116920619Y-80389123D01*
X116915301Y-80377720D01*
X116915298Y-80377714D01*
X116782273Y-80187735D01*
X116782268Y-80187729D01*
X116618269Y-80023730D01*
X116618263Y-80023726D01*
X116428282Y-79890699D01*
X116218079Y-79792680D01*
X116218076Y-79792679D01*
X116218074Y-79792678D01*
X115994051Y-79732651D01*
X115994044Y-79732650D01*
X115763002Y-79712437D01*
X115762998Y-79712437D01*
X115531955Y-79732650D01*
X115531948Y-79732651D01*
X115307917Y-79792681D01*
X115097718Y-79890699D01*
X115097714Y-79890701D01*
X114907735Y-80023726D01*
X114907729Y-80023731D01*
X114743731Y-80187729D01*
X114743726Y-80187735D01*
X114610701Y-80377714D01*
X114610698Y-80377720D01*
X114605381Y-80389123D01*
X114559207Y-80441562D01*
X114492013Y-80460712D01*
X114425133Y-80440495D01*
X114380619Y-80389123D01*
X114375301Y-80377720D01*
X114375298Y-80377714D01*
X114242273Y-80187735D01*
X114242268Y-80187729D01*
X114078269Y-80023730D01*
X114078263Y-80023726D01*
X113888282Y-79890699D01*
X113678079Y-79792680D01*
X113678076Y-79792679D01*
X113678074Y-79792678D01*
X113454051Y-79732651D01*
X113454044Y-79732650D01*
X113223002Y-79712437D01*
X113222998Y-79712437D01*
X112991955Y-79732650D01*
X112991948Y-79732651D01*
X112767917Y-79792681D01*
X112557718Y-79890699D01*
X112557714Y-79890701D01*
X112367735Y-80023726D01*
X112367729Y-80023731D01*
X112203731Y-80187729D01*
X112203726Y-80187735D01*
X112070701Y-80377714D01*
X112070698Y-80377720D01*
X112065381Y-80389123D01*
X112019207Y-80441562D01*
X111952013Y-80460712D01*
X111885133Y-80440495D01*
X111840619Y-80389123D01*
X111835301Y-80377720D01*
X111835298Y-80377714D01*
X111702273Y-80187735D01*
X111702268Y-80187729D01*
X111538269Y-80023730D01*
X111538263Y-80023726D01*
X111348282Y-79890699D01*
X111138079Y-79792680D01*
X111138076Y-79792679D01*
X111138074Y-79792678D01*
X110914051Y-79732651D01*
X110914044Y-79732650D01*
X110683002Y-79712437D01*
X110682998Y-79712437D01*
X110451955Y-79732650D01*
X110451948Y-79732651D01*
X110227917Y-79792681D01*
X110017718Y-79890699D01*
X110017714Y-79890701D01*
X109827735Y-80023726D01*
X109827729Y-80023731D01*
X109663731Y-80187729D01*
X109663726Y-80187735D01*
X109530701Y-80377714D01*
X109530698Y-80377720D01*
X109525381Y-80389123D01*
X109479207Y-80441562D01*
X109412013Y-80460712D01*
X109345133Y-80440495D01*
X109300619Y-80389123D01*
X109295301Y-80377720D01*
X109295298Y-80377714D01*
X109162273Y-80187735D01*
X109162268Y-80187729D01*
X108998269Y-80023730D01*
X108998263Y-80023726D01*
X108808282Y-79890699D01*
X108598079Y-79792680D01*
X108598076Y-79792679D01*
X108598074Y-79792678D01*
X108374051Y-79732651D01*
X108374044Y-79732650D01*
X108143002Y-79712437D01*
X108142998Y-79712437D01*
X107911955Y-79732650D01*
X107911948Y-79732651D01*
X107687917Y-79792681D01*
X107477718Y-79890699D01*
X107477714Y-79890701D01*
X107287735Y-80023726D01*
X107132426Y-80179035D01*
X107071103Y-80212519D01*
X107001411Y-80207535D01*
X106945478Y-80165663D01*
X106926517Y-80117443D01*
X106923876Y-80118068D01*
X106922092Y-80110520D01*
X106871797Y-79975671D01*
X106871793Y-79975664D01*
X106785547Y-79860455D01*
X106785544Y-79860452D01*
X106670335Y-79774206D01*
X106670328Y-79774202D01*
X106535482Y-79723908D01*
X106535483Y-79723908D01*
X106475883Y-79717501D01*
X106475881Y-79717500D01*
X106475873Y-79717500D01*
X106475864Y-79717500D01*
X104730129Y-79717500D01*
X104730123Y-79717501D01*
X104670516Y-79723908D01*
X104535671Y-79774202D01*
X104535664Y-79774206D01*
X104420455Y-79860452D01*
X104420452Y-79860455D01*
X104334206Y-79975664D01*
X104334202Y-79975671D01*
X104283908Y-80110517D01*
X104277501Y-80170116D01*
X104277500Y-80170135D01*
X103586524Y-80170135D01*
X103581009Y-80110620D01*
X103568115Y-79971464D01*
X103568114Y-79971462D01*
X103548022Y-79900847D01*
X103507229Y-79757472D01*
X103494870Y-79732651D01*
X103408061Y-79558316D01*
X103408056Y-79558308D01*
X103273979Y-79380761D01*
X103109562Y-79230876D01*
X103109560Y-79230874D01*
X102920404Y-79113754D01*
X102920398Y-79113752D01*
X102712940Y-79033382D01*
X102494243Y-78992500D01*
X102271757Y-78992500D01*
X102053060Y-79033382D01*
X101921864Y-79084207D01*
X101845601Y-79113752D01*
X101845595Y-79113754D01*
X101656439Y-79230874D01*
X101656437Y-79230876D01*
X101492020Y-79380761D01*
X101357943Y-79558308D01*
X101357938Y-79558316D01*
X101258775Y-79757461D01*
X101258769Y-79757476D01*
X101197885Y-79971462D01*
X101197884Y-79971464D01*
X101177357Y-80192999D01*
X100245959Y-80192999D01*
X100242273Y-80187735D01*
X100242268Y-80187729D01*
X100078269Y-80023730D01*
X100078263Y-80023726D01*
X99888282Y-79890699D01*
X99678079Y-79792680D01*
X99678076Y-79792679D01*
X99678074Y-79792678D01*
X99454051Y-79732651D01*
X99454044Y-79732650D01*
X99223002Y-79712437D01*
X99222998Y-79712437D01*
X98991955Y-79732650D01*
X98991948Y-79732651D01*
X98767917Y-79792681D01*
X98557718Y-79890699D01*
X98557714Y-79890701D01*
X98367735Y-80023726D01*
X98211970Y-80179491D01*
X98150647Y-80212975D01*
X98080955Y-80207991D01*
X98025022Y-80166119D01*
X98005923Y-80117567D01*
X98003380Y-80118168D01*
X98001596Y-80110620D01*
X97951354Y-79975913D01*
X97951350Y-79975906D01*
X97865190Y-79860812D01*
X97865187Y-79860809D01*
X97750093Y-79774649D01*
X97750086Y-79774645D01*
X97615379Y-79724403D01*
X97615372Y-79724401D01*
X97555844Y-79718000D01*
X96933000Y-79718000D01*
X96933000Y-80552252D01*
X96895292Y-80530482D01*
X96755409Y-80493000D01*
X96610591Y-80493000D01*
X96470708Y-80530482D01*
X96433000Y-80552252D01*
X96433000Y-79718000D01*
X95810155Y-79718000D01*
X95750627Y-79724401D01*
X95750620Y-79724403D01*
X95615913Y-79774645D01*
X95615906Y-79774649D01*
X95500812Y-79860809D01*
X95500809Y-79860812D01*
X95414649Y-79975906D01*
X95414645Y-79975913D01*
X95364403Y-80110620D01*
X95364401Y-80110627D01*
X95358000Y-80170155D01*
X92312140Y-80170155D01*
X92459968Y-80095913D01*
X92569715Y-80023731D01*
X92751980Y-79903853D01*
X92751980Y-79903852D01*
X92751986Y-79903849D01*
X93019733Y-79679183D01*
X93259587Y-79424953D01*
X93468305Y-79144596D01*
X93643064Y-78841904D01*
X93781501Y-78520971D01*
X93881744Y-78186136D01*
X93882274Y-78183134D01*
X93942435Y-77841938D01*
X93942434Y-77841938D01*
X93942437Y-77841927D01*
X93962760Y-77493000D01*
X93962585Y-77490003D01*
X93946061Y-77206300D01*
X93942437Y-77144073D01*
X93902989Y-76920349D01*
X93881746Y-76799872D01*
X93881744Y-76799865D01*
X93880846Y-76796864D01*
X93781501Y-76465029D01*
X93696344Y-76267613D01*
X105600007Y-76267613D01*
X105600007Y-76267616D01*
X105619839Y-76494301D01*
X105619841Y-76494312D01*
X105678733Y-76714103D01*
X105678736Y-76714112D01*
X105774906Y-76920347D01*
X105774907Y-76920349D01*
X105905429Y-77106756D01*
X106066333Y-77267660D01*
X106066336Y-77267662D01*
X106252741Y-77398183D01*
X106458979Y-77494354D01*
X106678783Y-77553250D01*
X106840705Y-77567416D01*
X106905473Y-77573083D01*
X106905475Y-77573083D01*
X106905477Y-77573083D01*
X106962148Y-77568124D01*
X107132167Y-77553250D01*
X107351971Y-77494354D01*
X107361317Y-77489996D01*
X125824415Y-77489996D01*
X125824415Y-77490003D01*
X125844738Y-77838927D01*
X125844739Y-77838938D01*
X125905428Y-78183127D01*
X125905430Y-78183134D01*
X126005674Y-78517972D01*
X126144107Y-78838895D01*
X126144113Y-78838908D01*
X126318870Y-79141597D01*
X126527584Y-79421949D01*
X126527589Y-79421955D01*
X126651463Y-79553253D01*
X126767442Y-79676183D01*
X126906276Y-79792678D01*
X127035186Y-79900847D01*
X127035194Y-79900853D01*
X127327203Y-80092911D01*
X127481008Y-80170155D01*
X127639549Y-80249777D01*
X127967989Y-80369319D01*
X128308086Y-80449923D01*
X128655241Y-80490500D01*
X128655248Y-80490500D01*
X129004752Y-80490500D01*
X129004759Y-80490500D01*
X129351914Y-80449923D01*
X129692011Y-80369319D01*
X130020451Y-80249777D01*
X130332793Y-80092913D01*
X130624811Y-79900849D01*
X130892558Y-79676183D01*
X131132412Y-79421953D01*
X131341130Y-79141596D01*
X131515889Y-78838904D01*
X131654326Y-78517971D01*
X131754569Y-78183136D01*
X131815262Y-77838927D01*
X131835331Y-77494356D01*
X131835585Y-77490003D01*
X131835585Y-77489996D01*
X131822635Y-77267662D01*
X131815262Y-77141073D01*
X131776343Y-76920349D01*
X131754571Y-76796872D01*
X131754569Y-76796865D01*
X131754569Y-76796864D01*
X131654326Y-76462029D01*
X131515889Y-76141096D01*
X131341130Y-75838404D01*
X131341129Y-75838402D01*
X131132415Y-75558050D01*
X131132410Y-75558044D01*
X130998395Y-75415998D01*
X130892558Y-75303817D01*
X130744488Y-75179572D01*
X130624813Y-75079152D01*
X130624805Y-75079146D01*
X130332796Y-74887088D01*
X130020458Y-74730226D01*
X130020452Y-74730223D01*
X129692012Y-74610681D01*
X129692009Y-74610680D01*
X129351915Y-74530077D01*
X129303011Y-74524361D01*
X129004759Y-74489500D01*
X128655241Y-74489500D01*
X128356989Y-74524361D01*
X128308085Y-74530077D01*
X128308083Y-74530077D01*
X127967990Y-74610680D01*
X127967987Y-74610681D01*
X127639547Y-74730223D01*
X127639541Y-74730226D01*
X127327203Y-74887088D01*
X127035194Y-75079146D01*
X127035186Y-75079152D01*
X126767442Y-75303817D01*
X126767440Y-75303819D01*
X126527589Y-75558044D01*
X126527584Y-75558050D01*
X126318870Y-75838402D01*
X126144113Y-76141091D01*
X126144107Y-76141104D01*
X126005674Y-76462027D01*
X125905430Y-76796865D01*
X125905428Y-76796872D01*
X125844739Y-77141061D01*
X125844738Y-77141072D01*
X125824415Y-77489996D01*
X107361317Y-77489996D01*
X107558209Y-77398183D01*
X107744614Y-77267662D01*
X107905522Y-77106754D01*
X108036043Y-76920349D01*
X108132214Y-76714111D01*
X108191110Y-76494307D01*
X108210943Y-76267615D01*
X108191110Y-76040923D01*
X108137649Y-75841402D01*
X108132216Y-75821126D01*
X108132213Y-75821117D01*
X108036043Y-75614882D01*
X108036042Y-75614880D01*
X107996245Y-75558044D01*
X107905522Y-75428476D01*
X107905520Y-75428473D01*
X107893266Y-75416219D01*
X107859781Y-75354896D01*
X107864765Y-75285204D01*
X107906637Y-75229271D01*
X107970142Y-75205010D01*
X107987123Y-75203524D01*
X107987131Y-75203523D01*
X108073196Y-75180461D01*
X107665967Y-74307156D01*
X107707864Y-74318383D01*
X107813186Y-74318383D01*
X107914919Y-74291124D01*
X108006131Y-74238463D01*
X108080605Y-74163989D01*
X108119490Y-74096637D01*
X108526350Y-74969151D01*
X108526351Y-74969151D01*
X108599340Y-74918045D01*
X108760185Y-74757199D01*
X108890659Y-74570865D01*
X108986790Y-74364709D01*
X108986794Y-74364700D01*
X109019403Y-74243000D01*
X119677540Y-74243000D01*
X119697326Y-74431256D01*
X119697327Y-74431259D01*
X119755818Y-74611277D01*
X119755821Y-74611284D01*
X119850467Y-74775216D01*
X119951197Y-74887088D01*
X119977129Y-74915888D01*
X120130265Y-75027148D01*
X120130270Y-75027151D01*
X120303192Y-75104142D01*
X120303197Y-75104144D01*
X120488354Y-75143500D01*
X120488355Y-75143500D01*
X120677644Y-75143500D01*
X120677646Y-75143500D01*
X120862803Y-75104144D01*
X121035730Y-75027151D01*
X121188871Y-74915888D01*
X121261744Y-74834954D01*
X121321229Y-74798306D01*
X121391086Y-74799636D01*
X121401793Y-74803687D01*
X121403188Y-74804140D01*
X121403197Y-74804144D01*
X121588354Y-74843500D01*
X121588355Y-74843500D01*
X121777644Y-74843500D01*
X121777646Y-74843500D01*
X121962803Y-74804144D01*
X122135730Y-74727151D01*
X122288871Y-74615888D01*
X122415533Y-74475216D01*
X122510179Y-74311284D01*
X122568674Y-74131256D01*
X122588460Y-73943000D01*
X122568674Y-73754744D01*
X122510179Y-73574716D01*
X122494927Y-73548300D01*
X122478455Y-73480401D01*
X122494927Y-73424303D01*
X122560179Y-73311284D01*
X122618674Y-73131256D01*
X122638460Y-72943000D01*
X122618674Y-72754744D01*
X122560179Y-72574716D01*
X122465533Y-72410784D01*
X122338871Y-72270112D01*
X122338870Y-72270111D01*
X122185734Y-72158851D01*
X122185729Y-72158848D01*
X122012807Y-72081857D01*
X122012802Y-72081855D01*
X121867001Y-72050865D01*
X121827646Y-72042500D01*
X121638354Y-72042500D01*
X121605897Y-72049398D01*
X121453197Y-72081855D01*
X121453192Y-72081857D01*
X121280270Y-72158848D01*
X121280265Y-72158851D01*
X121127129Y-72270111D01*
X121127128Y-72270112D01*
X121054255Y-72351045D01*
X120994768Y-72387693D01*
X120924911Y-72386362D01*
X120914212Y-72382313D01*
X120912802Y-72381855D01*
X120767001Y-72350865D01*
X120727646Y-72342500D01*
X120538354Y-72342500D01*
X120505897Y-72349398D01*
X120353197Y-72381855D01*
X120353192Y-72381857D01*
X120180270Y-72458848D01*
X120180265Y-72458851D01*
X120027129Y-72570111D01*
X119900466Y-72710785D01*
X119805821Y-72874715D01*
X119805818Y-72874722D01*
X119747327Y-73054740D01*
X119747326Y-73054744D01*
X119727540Y-73243000D01*
X119747326Y-73431256D01*
X119747327Y-73431259D01*
X119805821Y-73611285D01*
X119821071Y-73637699D01*
X119837544Y-73705599D01*
X119821071Y-73761699D01*
X119755821Y-73874715D01*
X119755818Y-73874722D01*
X119714526Y-74001808D01*
X119697326Y-74054744D01*
X119677540Y-74243000D01*
X109019403Y-74243000D01*
X109045664Y-74144993D01*
X109045666Y-74144982D01*
X109065491Y-73918385D01*
X109065491Y-73918380D01*
X109045666Y-73691783D01*
X109045665Y-73691776D01*
X109022603Y-73605710D01*
X108149299Y-74012938D01*
X108160525Y-73971044D01*
X108160525Y-73865722D01*
X108133266Y-73763989D01*
X108080605Y-73672777D01*
X108006131Y-73598303D01*
X107938777Y-73559416D01*
X108811293Y-73152556D01*
X108811293Y-73152555D01*
X108760188Y-73079568D01*
X108599341Y-72918722D01*
X108413007Y-72788248D01*
X108206851Y-72692117D01*
X108206842Y-72692113D01*
X107987135Y-72633243D01*
X107987124Y-72633241D01*
X107760527Y-72613417D01*
X107760523Y-72613417D01*
X107533926Y-72633241D01*
X107533912Y-72633244D01*
X107447852Y-72656302D01*
X107447851Y-72656303D01*
X107855081Y-73529608D01*
X107813186Y-73518383D01*
X107707864Y-73518383D01*
X107606131Y-73545642D01*
X107514919Y-73598303D01*
X107440445Y-73672777D01*
X107401559Y-73740129D01*
X106994698Y-72867613D01*
X106921708Y-72918721D01*
X106760867Y-73079562D01*
X106630390Y-73265900D01*
X106534259Y-73472056D01*
X106534255Y-73472065D01*
X106475385Y-73691772D01*
X106475383Y-73691783D01*
X106455559Y-73918380D01*
X106455559Y-73918384D01*
X106475383Y-74144981D01*
X106475386Y-74144995D01*
X106498444Y-74231054D01*
X106498445Y-74231055D01*
X107371751Y-73823824D01*
X107360525Y-73865722D01*
X107360525Y-73971044D01*
X107387784Y-74072777D01*
X107440445Y-74163989D01*
X107514919Y-74238463D01*
X107582270Y-74277347D01*
X106709755Y-74684209D01*
X106760864Y-74757201D01*
X106772923Y-74769260D01*
X106806408Y-74830583D01*
X106801424Y-74900275D01*
X106759552Y-74956208D01*
X106696052Y-74980469D01*
X106678786Y-74981979D01*
X106678777Y-74981981D01*
X106458986Y-75040873D01*
X106458977Y-75040876D01*
X106252742Y-75137046D01*
X106252740Y-75137047D01*
X106066333Y-75267569D01*
X105905429Y-75428473D01*
X105774907Y-75614880D01*
X105774906Y-75614882D01*
X105678736Y-75821117D01*
X105678733Y-75821126D01*
X105619841Y-76040917D01*
X105619839Y-76040928D01*
X105600007Y-76267613D01*
X93696344Y-76267613D01*
X93643064Y-76144096D01*
X93468305Y-75841404D01*
X93466072Y-75838404D01*
X93259590Y-75561050D01*
X93259585Y-75561044D01*
X93143608Y-75438117D01*
X93019733Y-75306817D01*
X92817409Y-75137047D01*
X92751988Y-75082152D01*
X92751980Y-75082146D01*
X92459971Y-74890088D01*
X92147633Y-74733226D01*
X92147627Y-74733223D01*
X91819187Y-74613681D01*
X91819184Y-74613680D01*
X91479090Y-74533077D01*
X91432248Y-74527602D01*
X91131934Y-74492500D01*
X90782416Y-74492500D01*
X90482102Y-74527602D01*
X90435260Y-74533077D01*
X90435258Y-74533077D01*
X90095165Y-74613680D01*
X90095162Y-74613681D01*
X89766722Y-74733223D01*
X89766716Y-74733226D01*
X89454378Y-74890088D01*
X89162369Y-75082146D01*
X89162361Y-75082152D01*
X88894617Y-75306817D01*
X88894615Y-75306819D01*
X88654764Y-75561044D01*
X88654759Y-75561050D01*
X88446045Y-75841402D01*
X88271288Y-76144091D01*
X88271282Y-76144104D01*
X88132849Y-76465027D01*
X88032605Y-76799865D01*
X88032603Y-76799872D01*
X87971914Y-77144061D01*
X87971913Y-77144072D01*
X87951590Y-77492996D01*
X85430569Y-77492996D01*
X85193715Y-77189248D01*
X85191150Y-77185838D01*
X84559825Y-76315234D01*
X84557354Y-76311698D01*
X84527676Y-76267616D01*
X84227077Y-75821117D01*
X83956780Y-75419627D01*
X83954428Y-75415998D01*
X83385198Y-74503330D01*
X83383244Y-74500089D01*
X83129367Y-74063935D01*
X83112534Y-74001808D01*
X83111903Y-73691772D01*
X83105694Y-70642996D01*
X105052909Y-70642996D01*
X105052909Y-70643003D01*
X105071212Y-70805455D01*
X105125210Y-70959774D01*
X105212192Y-71098204D01*
X105327796Y-71213808D01*
X105466225Y-71300789D01*
X105620539Y-71354786D01*
X105620542Y-71354786D01*
X105620544Y-71354787D01*
X105782996Y-71373091D01*
X105783000Y-71373091D01*
X105783004Y-71373091D01*
X105945455Y-71354787D01*
X105945456Y-71354786D01*
X105945461Y-71354786D01*
X106099775Y-71300789D01*
X106238204Y-71213808D01*
X106353808Y-71098204D01*
X106440789Y-70959775D01*
X106494786Y-70805461D01*
X106494787Y-70805455D01*
X106507458Y-70693000D01*
X127127540Y-70693000D01*
X127147326Y-70881256D01*
X127147327Y-70881259D01*
X127205818Y-71061277D01*
X127205821Y-71061284D01*
X127300467Y-71225216D01*
X127417133Y-71354786D01*
X127427129Y-71365888D01*
X127580265Y-71477148D01*
X127580270Y-71477151D01*
X127753192Y-71554142D01*
X127753197Y-71554144D01*
X127938354Y-71593500D01*
X127938355Y-71593500D01*
X128127644Y-71593500D01*
X128127646Y-71593500D01*
X128312803Y-71554144D01*
X128485730Y-71477151D01*
X128638871Y-71365888D01*
X128765533Y-71225216D01*
X128860179Y-71061284D01*
X128918674Y-70881256D01*
X128938460Y-70693000D01*
X128918674Y-70504744D01*
X128860179Y-70324716D01*
X128765533Y-70160784D01*
X128638871Y-70020112D01*
X128635327Y-70017537D01*
X128485734Y-69908851D01*
X128485729Y-69908848D01*
X128312807Y-69831857D01*
X128312802Y-69831855D01*
X128154481Y-69798204D01*
X128127646Y-69792500D01*
X127938354Y-69792500D01*
X127911519Y-69798204D01*
X127753197Y-69831855D01*
X127753192Y-69831857D01*
X127580270Y-69908848D01*
X127580265Y-69908851D01*
X127427129Y-70020111D01*
X127300466Y-70160785D01*
X127205821Y-70324715D01*
X127205818Y-70324722D01*
X127155189Y-70480544D01*
X127147326Y-70504744D01*
X127127540Y-70693000D01*
X106507458Y-70693000D01*
X106513091Y-70643003D01*
X106513091Y-70642996D01*
X106494787Y-70480544D01*
X106494786Y-70480542D01*
X106494786Y-70480539D01*
X106440789Y-70326225D01*
X106353808Y-70187796D01*
X106238204Y-70072192D01*
X106176940Y-70033697D01*
X106099774Y-69985210D01*
X105945455Y-69931212D01*
X105783004Y-69912909D01*
X105782996Y-69912909D01*
X105620544Y-69931212D01*
X105466225Y-69985210D01*
X105327795Y-70072192D01*
X105212192Y-70187795D01*
X105125210Y-70326225D01*
X105071212Y-70480544D01*
X105052909Y-70642996D01*
X83105694Y-70642996D01*
X83101111Y-68392996D01*
X98577435Y-68392996D01*
X98577435Y-68393003D01*
X98597630Y-68572249D01*
X98597631Y-68572254D01*
X98657211Y-68742523D01*
X98751462Y-68892522D01*
X98753184Y-68895262D01*
X98880738Y-69022816D01*
X98916461Y-69045262D01*
X99024802Y-69113338D01*
X99033478Y-69118789D01*
X99161932Y-69163737D01*
X99203745Y-69178368D01*
X99203750Y-69178369D01*
X99382996Y-69198565D01*
X99383000Y-69198565D01*
X99383004Y-69198565D01*
X99562249Y-69178369D01*
X99562252Y-69178368D01*
X99562255Y-69178368D01*
X99732522Y-69118789D01*
X99885262Y-69022816D01*
X100012816Y-68895262D01*
X100108789Y-68742522D01*
X100168368Y-68572255D01*
X100171664Y-68543003D01*
X100171665Y-68542996D01*
X110977435Y-68542996D01*
X110977435Y-68543003D01*
X110997630Y-68722249D01*
X110997631Y-68722254D01*
X111057211Y-68892523D01*
X111088928Y-68943000D01*
X111153184Y-69045262D01*
X111153186Y-69045264D01*
X111155887Y-69048651D01*
X111182294Y-69113338D01*
X111175981Y-69166912D01*
X111171213Y-69180537D01*
X111171213Y-69180540D01*
X111152909Y-69342996D01*
X111152909Y-69343003D01*
X111171212Y-69505455D01*
X111171213Y-69505460D01*
X111171214Y-69505461D01*
X111178379Y-69525939D01*
X111225210Y-69659774D01*
X111225211Y-69659775D01*
X111312192Y-69798204D01*
X111427796Y-69913808D01*
X111566225Y-70000789D01*
X111720539Y-70054786D01*
X111720542Y-70054786D01*
X111720544Y-70054787D01*
X111882996Y-70073091D01*
X111883000Y-70073091D01*
X111883004Y-70073091D01*
X112045455Y-70054787D01*
X112045456Y-70054786D01*
X112045461Y-70054786D01*
X112095547Y-70037259D01*
X112165323Y-70033697D01*
X112202472Y-70049307D01*
X112233476Y-70068788D01*
X112233478Y-70068789D01*
X112403745Y-70128368D01*
X112403750Y-70128369D01*
X112582996Y-70148565D01*
X112583000Y-70148565D01*
X112583004Y-70148565D01*
X112762249Y-70128369D01*
X112762252Y-70128368D01*
X112762255Y-70128368D01*
X112932522Y-70068789D01*
X113085262Y-69972816D01*
X113212816Y-69845262D01*
X113308789Y-69692522D01*
X113368368Y-69522255D01*
X113368369Y-69522249D01*
X113388565Y-69343003D01*
X113388565Y-69342996D01*
X113368369Y-69163750D01*
X113368366Y-69163737D01*
X113343612Y-69092996D01*
X125927435Y-69092996D01*
X125927435Y-69093003D01*
X125947630Y-69272249D01*
X125947631Y-69272254D01*
X126007211Y-69442523D01*
X126103184Y-69595262D01*
X126230738Y-69722816D01*
X126383478Y-69818789D01*
X126553745Y-69878368D01*
X126553750Y-69878369D01*
X126732996Y-69898565D01*
X126733000Y-69898565D01*
X126733004Y-69898565D01*
X126912249Y-69878369D01*
X126912252Y-69878368D01*
X126912255Y-69878368D01*
X127082522Y-69818789D01*
X127235262Y-69722816D01*
X127362816Y-69595262D01*
X127458789Y-69442522D01*
X127518368Y-69272255D01*
X127528702Y-69180537D01*
X127538565Y-69093003D01*
X127538565Y-69092996D01*
X127518369Y-68913750D01*
X127518368Y-68913745D01*
X127513242Y-68899095D01*
X127458789Y-68743478D01*
X127458188Y-68742522D01*
X127362815Y-68590737D01*
X127235262Y-68463184D01*
X127082523Y-68367211D01*
X126912254Y-68307631D01*
X126912249Y-68307630D01*
X126733004Y-68287435D01*
X126732996Y-68287435D01*
X126553750Y-68307630D01*
X126553745Y-68307631D01*
X126383476Y-68367211D01*
X126230737Y-68463184D01*
X126103184Y-68590737D01*
X126007211Y-68743476D01*
X125947631Y-68913745D01*
X125947630Y-68913750D01*
X125927435Y-69092996D01*
X113343612Y-69092996D01*
X113306489Y-68986905D01*
X113308637Y-68986153D01*
X113299035Y-68927872D01*
X113307392Y-68899411D01*
X113306489Y-68899095D01*
X113368366Y-68722262D01*
X113368369Y-68722249D01*
X113388565Y-68543003D01*
X113388565Y-68542996D01*
X113368369Y-68363750D01*
X113368368Y-68363745D01*
X113348733Y-68307631D01*
X113308789Y-68193478D01*
X113212816Y-68040738D01*
X113085262Y-67913184D01*
X112932523Y-67817211D01*
X112762254Y-67757631D01*
X112762249Y-67757630D01*
X112583004Y-67737435D01*
X112582996Y-67737435D01*
X112403750Y-67757630D01*
X112403737Y-67757633D01*
X112226906Y-67819510D01*
X112226155Y-67817364D01*
X112167856Y-67826962D01*
X112139409Y-67818609D01*
X112139094Y-67819510D01*
X111962262Y-67757633D01*
X111962249Y-67757630D01*
X111783004Y-67737435D01*
X111782996Y-67737435D01*
X111603750Y-67757630D01*
X111603745Y-67757631D01*
X111433476Y-67817211D01*
X111280737Y-67913184D01*
X111153184Y-68040737D01*
X111057211Y-68193476D01*
X110997631Y-68363745D01*
X110997630Y-68363750D01*
X110977435Y-68542996D01*
X100171665Y-68542996D01*
X100188565Y-68393003D01*
X100188565Y-68392996D01*
X100168369Y-68213750D01*
X100168368Y-68213745D01*
X100109477Y-68045444D01*
X100108789Y-68043478D01*
X100107067Y-68040738D01*
X100063094Y-67970755D01*
X100012816Y-67890738D01*
X99885262Y-67763184D01*
X99876426Y-67757632D01*
X99732523Y-67667211D01*
X99562254Y-67607631D01*
X99562249Y-67607630D01*
X99383004Y-67587435D01*
X99382996Y-67587435D01*
X99203750Y-67607630D01*
X99203745Y-67607631D01*
X99033476Y-67667211D01*
X98880737Y-67763184D01*
X98753184Y-67890737D01*
X98657211Y-68043476D01*
X98597631Y-68213745D01*
X98597630Y-68213750D01*
X98577435Y-68392996D01*
X83101111Y-68392996D01*
X83097343Y-66542996D01*
X102927435Y-66542996D01*
X102927435Y-66543003D01*
X102947630Y-66722249D01*
X102947631Y-66722254D01*
X103007211Y-66892523D01*
X103077751Y-67004786D01*
X103103184Y-67045262D01*
X103230738Y-67172816D01*
X103383478Y-67268789D01*
X103488281Y-67305461D01*
X103553745Y-67328368D01*
X103553750Y-67328369D01*
X103732996Y-67348565D01*
X103733000Y-67348565D01*
X103733004Y-67348565D01*
X103912249Y-67328369D01*
X103912252Y-67328368D01*
X103912255Y-67328368D01*
X104082522Y-67268789D01*
X104235262Y-67172816D01*
X104265082Y-67142996D01*
X106052909Y-67142996D01*
X106052909Y-67143003D01*
X106071212Y-67305455D01*
X106125210Y-67459774D01*
X106196869Y-67573817D01*
X106212192Y-67598204D01*
X106327796Y-67713808D01*
X106466225Y-67800789D01*
X106620539Y-67854786D01*
X106620542Y-67854786D01*
X106620544Y-67854787D01*
X106782996Y-67873091D01*
X106783000Y-67873091D01*
X106783004Y-67873091D01*
X106945455Y-67854787D01*
X106945456Y-67854786D01*
X106945461Y-67854786D01*
X107099775Y-67800789D01*
X107238204Y-67713808D01*
X107353808Y-67598204D01*
X107440789Y-67459775D01*
X107494786Y-67305461D01*
X107498391Y-67273465D01*
X107513091Y-67143003D01*
X107513091Y-67142996D01*
X107501824Y-67042996D01*
X117552909Y-67042996D01*
X117552909Y-67043003D01*
X117571212Y-67205455D01*
X117625210Y-67359774D01*
X117673748Y-67437021D01*
X117712192Y-67498204D01*
X117827796Y-67613808D01*
X117966225Y-67700789D01*
X118120539Y-67754786D01*
X118120542Y-67754786D01*
X118120544Y-67754787D01*
X118282996Y-67773091D01*
X118283000Y-67773091D01*
X118283004Y-67773091D01*
X118445455Y-67754787D01*
X118445456Y-67754786D01*
X118445461Y-67754786D01*
X118599775Y-67700789D01*
X118738204Y-67613808D01*
X118853808Y-67498204D01*
X118856470Y-67493967D01*
X118908798Y-67447675D01*
X118977850Y-67437021D01*
X119041701Y-67465391D01*
X119080078Y-67523778D01*
X119084686Y-67573817D01*
X119067240Y-67728664D01*
X119067240Y-67728672D01*
X119085543Y-67891124D01*
X119139541Y-68045443D01*
X119139542Y-68045444D01*
X119226523Y-68183873D01*
X119342127Y-68299477D01*
X119480556Y-68386458D01*
X119634870Y-68440455D01*
X119634873Y-68440455D01*
X119634875Y-68440456D01*
X119797327Y-68458760D01*
X119797331Y-68458760D01*
X119797335Y-68458760D01*
X119959786Y-68440456D01*
X119959787Y-68440455D01*
X119959792Y-68440455D01*
X120114106Y-68386458D01*
X120252535Y-68299477D01*
X120368139Y-68183873D01*
X120442960Y-68064795D01*
X120495292Y-68018507D01*
X120506987Y-68013732D01*
X120629809Y-67970755D01*
X120768238Y-67883774D01*
X120883842Y-67768170D01*
X120970823Y-67629741D01*
X121024820Y-67475427D01*
X121027947Y-67447675D01*
X121043125Y-67312969D01*
X121043125Y-67312962D01*
X121024821Y-67150510D01*
X121024820Y-67150508D01*
X121024820Y-67150505D01*
X120970823Y-66996191D01*
X120883842Y-66857762D01*
X120768238Y-66742158D01*
X120658319Y-66673091D01*
X120629808Y-66655176D01*
X120495973Y-66608345D01*
X120475495Y-66601180D01*
X120475494Y-66601179D01*
X120475489Y-66601178D01*
X120313038Y-66582875D01*
X120313030Y-66582875D01*
X120150578Y-66601178D01*
X119996259Y-66655176D01*
X119857829Y-66742158D01*
X119742224Y-66857763D01*
X119667405Y-66976837D01*
X119615071Y-67023127D01*
X119603367Y-67027905D01*
X119480558Y-67070878D01*
X119342126Y-67157861D01*
X119226523Y-67273464D01*
X119226520Y-67273468D01*
X119223855Y-67277710D01*
X119171519Y-67323999D01*
X119102465Y-67334645D01*
X119038618Y-67306267D01*
X119000248Y-67247876D01*
X118995644Y-67197850D01*
X119013091Y-67043002D01*
X119013091Y-67042996D01*
X118994787Y-66880544D01*
X118994786Y-66880542D01*
X118994786Y-66880539D01*
X118940789Y-66726225D01*
X118853808Y-66587796D01*
X118738204Y-66472192D01*
X118643856Y-66412909D01*
X118599774Y-66385210D01*
X118445455Y-66331212D01*
X118283004Y-66312909D01*
X118282996Y-66312909D01*
X118120544Y-66331212D01*
X117966225Y-66385210D01*
X117827795Y-66472192D01*
X117712192Y-66587795D01*
X117625210Y-66726225D01*
X117571212Y-66880544D01*
X117552909Y-67042996D01*
X107501824Y-67042996D01*
X107494787Y-66980544D01*
X107494786Y-66980542D01*
X107494786Y-66980539D01*
X107440789Y-66826225D01*
X107353808Y-66687796D01*
X107238204Y-66572192D01*
X107191750Y-66543003D01*
X107099774Y-66485210D01*
X106945455Y-66431212D01*
X106783004Y-66412909D01*
X106782996Y-66412909D01*
X106620544Y-66431212D01*
X106466225Y-66485210D01*
X106327795Y-66572192D01*
X106212192Y-66687795D01*
X106125210Y-66826225D01*
X106071212Y-66980544D01*
X106052909Y-67142996D01*
X104265082Y-67142996D01*
X104362816Y-67045262D01*
X104458789Y-66892522D01*
X104518368Y-66722255D01*
X104522251Y-66687795D01*
X104538565Y-66543003D01*
X104538565Y-66542996D01*
X104518369Y-66363750D01*
X104518368Y-66363745D01*
X104493612Y-66292996D01*
X104458789Y-66193478D01*
X104362816Y-66040738D01*
X104235262Y-65913184D01*
X104202049Y-65892315D01*
X104082523Y-65817211D01*
X103912254Y-65757631D01*
X103912249Y-65757630D01*
X103733004Y-65737435D01*
X103732996Y-65737435D01*
X103553750Y-65757630D01*
X103553745Y-65757631D01*
X103383476Y-65817211D01*
X103230737Y-65913184D01*
X103103184Y-66040737D01*
X103007211Y-66193476D01*
X102947631Y-66363745D01*
X102947630Y-66363750D01*
X102927435Y-66542996D01*
X83097343Y-66542996D01*
X83094377Y-65086746D01*
X94483685Y-65086746D01*
X94483685Y-65086753D01*
X94503880Y-65265999D01*
X94503881Y-65266004D01*
X94563461Y-65436273D01*
X94594150Y-65485114D01*
X94659434Y-65589012D01*
X94786988Y-65716566D01*
X94795942Y-65722192D01*
X94904277Y-65790264D01*
X94939728Y-65812539D01*
X95025635Y-65842599D01*
X95109995Y-65872118D01*
X95110000Y-65872119D01*
X95289246Y-65892315D01*
X95289250Y-65892315D01*
X95289254Y-65892315D01*
X95468499Y-65872119D01*
X95468502Y-65872118D01*
X95468505Y-65872118D01*
X95638772Y-65812539D01*
X95791512Y-65716566D01*
X95919066Y-65589012D01*
X96015039Y-65436272D01*
X96074618Y-65266005D01*
X96074619Y-65265999D01*
X96094815Y-65086753D01*
X96094815Y-65086746D01*
X96074619Y-64907500D01*
X96074618Y-64907495D01*
X96044786Y-64822240D01*
X96015039Y-64737228D01*
X95919066Y-64584488D01*
X95827577Y-64492999D01*
X97577357Y-64492999D01*
X97577357Y-64493000D01*
X97597884Y-64714535D01*
X97597885Y-64714537D01*
X97658769Y-64928523D01*
X97658775Y-64928538D01*
X97757938Y-65127683D01*
X97757943Y-65127691D01*
X97892020Y-65305238D01*
X98056437Y-65455123D01*
X98056439Y-65455125D01*
X98245595Y-65572245D01*
X98245596Y-65572245D01*
X98245599Y-65572247D01*
X98453060Y-65652618D01*
X98671757Y-65693500D01*
X98671759Y-65693500D01*
X98894241Y-65693500D01*
X98894243Y-65693500D01*
X99112940Y-65652618D01*
X99320401Y-65572247D01*
X99509562Y-65455124D01*
X99673981Y-65305236D01*
X99808058Y-65127689D01*
X99907229Y-64928528D01*
X99933734Y-64835371D01*
X99971013Y-64776278D01*
X100034323Y-64746721D01*
X100103562Y-64756083D01*
X100156749Y-64801393D01*
X100172265Y-64835370D01*
X100178531Y-64857395D01*
X100198769Y-64928523D01*
X100198775Y-64928538D01*
X100297938Y-65127683D01*
X100297943Y-65127691D01*
X100432020Y-65305238D01*
X100596437Y-65455123D01*
X100596439Y-65455125D01*
X100785595Y-65572245D01*
X100785596Y-65572245D01*
X100785599Y-65572247D01*
X100993060Y-65652618D01*
X101211757Y-65693500D01*
X101211759Y-65693500D01*
X101434241Y-65693500D01*
X101434243Y-65693500D01*
X101652940Y-65652618D01*
X101738949Y-65619298D01*
X113026607Y-65619298D01*
X113026607Y-65619305D01*
X113044910Y-65781757D01*
X113098908Y-65936076D01*
X113164671Y-66040737D01*
X113185890Y-66074506D01*
X113301494Y-66190110D01*
X113439923Y-66277091D01*
X113594237Y-66331088D01*
X113594240Y-66331088D01*
X113594242Y-66331089D01*
X113756694Y-66349393D01*
X113756698Y-66349393D01*
X113756702Y-66349393D01*
X113919153Y-66331089D01*
X113919154Y-66331088D01*
X113919159Y-66331088D01*
X114073473Y-66277091D01*
X114211902Y-66190110D01*
X114300176Y-66101836D01*
X115761495Y-66101836D01*
X115761495Y-66101843D01*
X115781690Y-66281089D01*
X115781691Y-66281094D01*
X115841271Y-66451363D01*
X115923906Y-66582875D01*
X115937244Y-66604102D01*
X116064798Y-66731656D01*
X116081512Y-66742158D01*
X116215303Y-66826225D01*
X116217538Y-66827629D01*
X116303656Y-66857763D01*
X116387805Y-66887208D01*
X116387810Y-66887209D01*
X116567056Y-66907405D01*
X116567060Y-66907405D01*
X116567064Y-66907405D01*
X116746309Y-66887209D01*
X116746312Y-66887208D01*
X116746315Y-66887208D01*
X116916582Y-66827629D01*
X117069322Y-66731656D01*
X117196876Y-66604102D01*
X117292849Y-66451362D01*
X117348264Y-66292996D01*
X121402909Y-66292996D01*
X121402909Y-66293003D01*
X121421212Y-66455455D01*
X121475210Y-66609774D01*
X121551794Y-66731656D01*
X121562192Y-66748204D01*
X121677796Y-66863808D01*
X121816225Y-66950789D01*
X121970539Y-67004786D01*
X121970542Y-67004786D01*
X121970544Y-67004787D01*
X122132996Y-67023091D01*
X122133000Y-67023091D01*
X122133004Y-67023091D01*
X122295455Y-67004787D01*
X122295456Y-67004786D01*
X122295461Y-67004786D01*
X122449775Y-66950789D01*
X122588204Y-66863808D01*
X122703808Y-66748204D01*
X122790789Y-66609775D01*
X122844786Y-66455461D01*
X122847518Y-66431214D01*
X122863091Y-66293003D01*
X122863091Y-66292996D01*
X122844787Y-66130544D01*
X122844786Y-66130542D01*
X122844786Y-66130539D01*
X122790789Y-65976225D01*
X122703808Y-65837796D01*
X122588204Y-65722192D01*
X122477478Y-65652618D01*
X122449774Y-65635210D01*
X122295455Y-65581212D01*
X122133004Y-65562909D01*
X122132996Y-65562909D01*
X121970544Y-65581212D01*
X121816225Y-65635210D01*
X121677795Y-65722192D01*
X121562192Y-65837795D01*
X121475210Y-65976225D01*
X121421212Y-66130544D01*
X121402909Y-66292996D01*
X117348264Y-66292996D01*
X117352428Y-66281095D01*
X117354830Y-66259775D01*
X117372625Y-66101843D01*
X117372625Y-66101836D01*
X117352429Y-65922590D01*
X117352428Y-65922585D01*
X117294708Y-65757631D01*
X117292849Y-65752318D01*
X117283497Y-65737435D01*
X117230203Y-65652618D01*
X117196876Y-65599578D01*
X117069322Y-65472024D01*
X117049826Y-65459774D01*
X116916583Y-65376051D01*
X116746314Y-65316471D01*
X116746309Y-65316470D01*
X116567064Y-65296275D01*
X116567056Y-65296275D01*
X116387810Y-65316470D01*
X116387805Y-65316471D01*
X116217536Y-65376051D01*
X116064797Y-65472024D01*
X115937244Y-65599577D01*
X115841271Y-65752316D01*
X115781691Y-65922585D01*
X115781690Y-65922590D01*
X115761495Y-66101836D01*
X114300176Y-66101836D01*
X114327506Y-66074506D01*
X114414487Y-65936077D01*
X114468484Y-65781763D01*
X114478429Y-65693500D01*
X114486789Y-65619305D01*
X114486789Y-65619298D01*
X114468485Y-65456846D01*
X114468484Y-65456844D01*
X114468484Y-65456841D01*
X114414487Y-65302527D01*
X114327506Y-65164098D01*
X114306404Y-65142996D01*
X122752909Y-65142996D01*
X122752909Y-65143003D01*
X122771212Y-65305455D01*
X122825210Y-65459774D01*
X122853030Y-65504049D01*
X122912192Y-65598204D01*
X123027796Y-65713808D01*
X123149475Y-65790264D01*
X123195766Y-65842599D01*
X123206724Y-65909140D01*
X123202909Y-65943003D01*
X123221212Y-66105455D01*
X123275210Y-66259774D01*
X123308597Y-66312909D01*
X123362192Y-66398204D01*
X123477796Y-66513808D01*
X123616225Y-66600789D01*
X123770539Y-66654786D01*
X123770542Y-66654786D01*
X123770544Y-66654787D01*
X123932996Y-66673091D01*
X123933000Y-66673091D01*
X123933004Y-66673091D01*
X124095455Y-66654787D01*
X124095456Y-66654786D01*
X124095461Y-66654786D01*
X124249775Y-66600789D01*
X124388204Y-66513808D01*
X124503808Y-66398204D01*
X124590789Y-66259775D01*
X124644786Y-66105461D01*
X124645195Y-66101836D01*
X124663091Y-65943002D01*
X124663091Y-65936599D01*
X124682776Y-65869560D01*
X124735580Y-65823805D01*
X124746138Y-65819557D01*
X124749067Y-65818532D01*
X124799775Y-65800789D01*
X124938204Y-65713808D01*
X125053808Y-65598204D01*
X125140789Y-65459775D01*
X125194786Y-65305461D01*
X125194811Y-65305238D01*
X125213091Y-65143003D01*
X125213091Y-65142996D01*
X125194787Y-64980544D01*
X125194786Y-64980542D01*
X125194786Y-64980539D01*
X125140789Y-64826225D01*
X125053808Y-64687796D01*
X124938204Y-64572192D01*
X124848395Y-64515761D01*
X124799774Y-64485210D01*
X124645455Y-64431212D01*
X124483004Y-64412909D01*
X124482996Y-64412909D01*
X124320544Y-64431212D01*
X124166225Y-64485210D01*
X124048972Y-64558886D01*
X123981735Y-64577886D01*
X123917028Y-64558886D01*
X123799774Y-64485210D01*
X123645455Y-64431212D01*
X123483004Y-64412909D01*
X123482996Y-64412909D01*
X123320544Y-64431212D01*
X123166225Y-64485210D01*
X123027795Y-64572192D01*
X122912192Y-64687795D01*
X122825210Y-64826225D01*
X122771212Y-64980544D01*
X122752909Y-65142996D01*
X114306404Y-65142996D01*
X114211902Y-65048494D01*
X114164627Y-65018789D01*
X114073472Y-64961512D01*
X113919153Y-64907514D01*
X113756702Y-64889211D01*
X113756694Y-64889211D01*
X113594242Y-64907514D01*
X113439923Y-64961512D01*
X113301493Y-65048494D01*
X113185890Y-65164097D01*
X113098908Y-65302527D01*
X113044910Y-65456846D01*
X113026607Y-65619298D01*
X101738949Y-65619298D01*
X101860401Y-65572247D01*
X102049562Y-65455124D01*
X102213981Y-65305236D01*
X102348058Y-65127689D01*
X102447229Y-64928528D01*
X102508115Y-64714536D01*
X102528643Y-64493000D01*
X102520531Y-64405461D01*
X102510110Y-64292996D01*
X108027435Y-64292996D01*
X108027435Y-64293003D01*
X108047630Y-64472249D01*
X108047631Y-64472254D01*
X108107211Y-64642523D01*
X108203184Y-64795262D01*
X108330738Y-64922816D01*
X108483478Y-65018789D01*
X108568370Y-65048494D01*
X108653745Y-65078368D01*
X108653750Y-65078369D01*
X108832996Y-65098565D01*
X108833000Y-65098565D01*
X108833004Y-65098565D01*
X109012249Y-65078369D01*
X109012252Y-65078368D01*
X109012255Y-65078368D01*
X109182522Y-65018789D01*
X109335262Y-64922816D01*
X109462816Y-64795262D01*
X109558789Y-64642522D01*
X109618368Y-64472255D01*
X109618369Y-64472249D01*
X109638565Y-64293003D01*
X109638565Y-64292996D01*
X109618369Y-64113750D01*
X109618368Y-64113745D01*
X109606749Y-64080539D01*
X109558789Y-63943478D01*
X109537266Y-63909225D01*
X109462815Y-63790737D01*
X109335262Y-63663184D01*
X109182523Y-63567211D01*
X109012254Y-63507631D01*
X109012249Y-63507630D01*
X108833004Y-63487435D01*
X108832996Y-63487435D01*
X108653750Y-63507630D01*
X108653745Y-63507631D01*
X108483476Y-63567211D01*
X108330737Y-63663184D01*
X108203184Y-63790737D01*
X108107211Y-63943476D01*
X108047631Y-64113745D01*
X108047630Y-64113750D01*
X108027435Y-64292996D01*
X102510110Y-64292996D01*
X102508115Y-64271464D01*
X102508114Y-64271462D01*
X102505344Y-64261728D01*
X102447229Y-64057472D01*
X102425487Y-64013808D01*
X102348061Y-63858316D01*
X102348056Y-63858308D01*
X102213979Y-63680761D01*
X102049562Y-63530876D01*
X102049560Y-63530874D01*
X101860404Y-63413754D01*
X101860398Y-63413752D01*
X101652940Y-63333382D01*
X101434243Y-63292500D01*
X101211757Y-63292500D01*
X100993060Y-63333382D01*
X100871791Y-63380362D01*
X100785601Y-63413752D01*
X100785595Y-63413754D01*
X100596439Y-63530874D01*
X100596437Y-63530876D01*
X100432020Y-63680761D01*
X100297943Y-63858308D01*
X100297938Y-63858316D01*
X100198775Y-64057461D01*
X100198769Y-64057476D01*
X100172266Y-64150627D01*
X100134987Y-64209721D01*
X100071677Y-64239278D01*
X100002438Y-64229916D01*
X99949251Y-64184606D01*
X99933734Y-64150627D01*
X99919554Y-64100789D01*
X99907229Y-64057472D01*
X99885487Y-64013808D01*
X99808061Y-63858316D01*
X99808056Y-63858308D01*
X99673979Y-63680761D01*
X99509562Y-63530876D01*
X99509560Y-63530874D01*
X99320404Y-63413754D01*
X99320398Y-63413752D01*
X99112940Y-63333382D01*
X98894243Y-63292500D01*
X98671757Y-63292500D01*
X98453060Y-63333382D01*
X98331791Y-63380362D01*
X98245601Y-63413752D01*
X98245595Y-63413754D01*
X98056439Y-63530874D01*
X98056437Y-63530876D01*
X97892020Y-63680761D01*
X97757943Y-63858308D01*
X97757938Y-63858316D01*
X97658775Y-64057461D01*
X97658769Y-64057476D01*
X97597885Y-64271462D01*
X97597884Y-64271464D01*
X97577357Y-64492999D01*
X95827577Y-64492999D01*
X95791512Y-64456934D01*
X95750576Y-64431212D01*
X95638773Y-64360961D01*
X95468504Y-64301381D01*
X95468499Y-64301380D01*
X95289254Y-64281185D01*
X95289246Y-64281185D01*
X95110000Y-64301380D01*
X95109995Y-64301381D01*
X94939726Y-64360961D01*
X94786987Y-64456934D01*
X94659434Y-64584487D01*
X94563461Y-64737226D01*
X94503881Y-64907495D01*
X94503880Y-64907500D01*
X94483685Y-65086746D01*
X83094377Y-65086746D01*
X83085938Y-60942996D01*
X97202909Y-60942996D01*
X97202909Y-60943003D01*
X97221212Y-61105455D01*
X97221214Y-61105463D01*
X97255010Y-61202047D01*
X97258571Y-61271826D01*
X97255010Y-61283954D01*
X97221213Y-61380542D01*
X97221213Y-61380543D01*
X97202909Y-61542999D01*
X97202909Y-61543006D01*
X97221212Y-61705458D01*
X97221213Y-61705463D01*
X97221214Y-61705464D01*
X97222399Y-61708851D01*
X97275210Y-61859777D01*
X97327503Y-61943000D01*
X97362192Y-61998207D01*
X97477796Y-62113811D01*
X97616225Y-62200792D01*
X97770539Y-62254789D01*
X97770542Y-62254789D01*
X97770544Y-62254790D01*
X97932996Y-62273094D01*
X97933000Y-62273094D01*
X97933004Y-62273094D01*
X98095455Y-62254790D01*
X98095456Y-62254789D01*
X98095461Y-62254789D01*
X98249775Y-62200792D01*
X98388204Y-62113811D01*
X98503808Y-61998207D01*
X98590789Y-61859778D01*
X98644786Y-61705464D01*
X98647990Y-61677032D01*
X98663091Y-61543006D01*
X98663091Y-61542999D01*
X98644787Y-61380547D01*
X98644786Y-61380543D01*
X98644786Y-61380542D01*
X98610987Y-61283952D01*
X98607425Y-61214178D01*
X98610981Y-61202068D01*
X98644786Y-61105461D01*
X98644787Y-61105455D01*
X98645175Y-61104347D01*
X98685897Y-61047572D01*
X98721259Y-61028262D01*
X98799775Y-61000789D01*
X98875065Y-60953480D01*
X98942298Y-60934481D01*
X99009133Y-60954848D01*
X99028716Y-60970794D01*
X99080738Y-61022816D01*
X99153310Y-61068416D01*
X99225550Y-61113808D01*
X99233478Y-61118789D01*
X99380771Y-61170329D01*
X99403745Y-61178368D01*
X99403750Y-61178369D01*
X99582996Y-61198565D01*
X99583000Y-61198565D01*
X99583004Y-61198565D01*
X99762249Y-61178369D01*
X99762252Y-61178368D01*
X99762255Y-61178368D01*
X99932522Y-61118789D01*
X100049167Y-61045496D01*
X105452909Y-61045496D01*
X105452909Y-61045503D01*
X105471212Y-61207955D01*
X105525210Y-61362274D01*
X105560223Y-61417996D01*
X105612192Y-61500704D01*
X105727796Y-61616308D01*
X105866225Y-61703289D01*
X105978476Y-61742567D01*
X106035250Y-61783287D01*
X106060998Y-61848240D01*
X106060740Y-61873491D01*
X106052909Y-61942996D01*
X106052909Y-61943003D01*
X106071212Y-62105455D01*
X106071213Y-62105460D01*
X106071214Y-62105461D01*
X106074136Y-62113811D01*
X106125210Y-62259774D01*
X106198089Y-62375760D01*
X106212192Y-62398204D01*
X106327796Y-62513808D01*
X106466225Y-62600789D01*
X106620539Y-62654786D01*
X106620542Y-62654786D01*
X106620544Y-62654787D01*
X106782996Y-62673091D01*
X106783000Y-62673091D01*
X106783004Y-62673091D01*
X106945455Y-62654787D01*
X106945456Y-62654786D01*
X106945461Y-62654786D01*
X107099775Y-62600789D01*
X107238204Y-62513808D01*
X107353808Y-62398204D01*
X107440789Y-62259775D01*
X107456809Y-62213991D01*
X107497529Y-62157215D01*
X107562481Y-62131466D01*
X107587734Y-62131724D01*
X107732996Y-62148091D01*
X107733000Y-62148091D01*
X107733004Y-62148091D01*
X107895455Y-62129787D01*
X107895456Y-62129786D01*
X107895461Y-62129786D01*
X108049775Y-62075789D01*
X108188204Y-61988808D01*
X108303808Y-61873204D01*
X108390789Y-61734775D01*
X108444786Y-61580461D01*
X108444787Y-61580455D01*
X108463091Y-61418003D01*
X108463091Y-61417996D01*
X108454641Y-61342996D01*
X109652909Y-61342996D01*
X109652909Y-61343003D01*
X109671212Y-61505455D01*
X109725211Y-61659776D01*
X109736053Y-61677032D01*
X109755051Y-61744269D01*
X109736053Y-61808968D01*
X109725211Y-61826223D01*
X109671212Y-61980544D01*
X109652909Y-62142996D01*
X109652909Y-62143003D01*
X109671212Y-62305455D01*
X109725210Y-62459774D01*
X109805652Y-62587795D01*
X109812192Y-62598204D01*
X109927796Y-62713808D01*
X110066225Y-62800789D01*
X110220539Y-62854786D01*
X110220542Y-62854786D01*
X110220544Y-62854787D01*
X110294563Y-62863126D01*
X110347565Y-62869098D01*
X110411978Y-62896164D01*
X110451533Y-62953758D01*
X110456901Y-62978435D01*
X110471212Y-63105455D01*
X110525210Y-63259774D01*
X110580001Y-63346972D01*
X110612192Y-63398204D01*
X110727796Y-63513808D01*
X110866225Y-63600789D01*
X111020539Y-63654786D01*
X111020542Y-63654786D01*
X111020544Y-63654787D01*
X111182996Y-63673091D01*
X111183000Y-63673091D01*
X111183002Y-63673091D01*
X111228112Y-63668008D01*
X111288578Y-63661195D01*
X111357399Y-63673249D01*
X111408778Y-63720598D01*
X111419502Y-63743460D01*
X111423653Y-63755324D01*
X111425211Y-63759775D01*
X111512192Y-63898204D01*
X111627796Y-64013808D01*
X111766225Y-64100789D01*
X111920539Y-64154786D01*
X111920542Y-64154786D01*
X111920544Y-64154787D01*
X112082996Y-64173091D01*
X112083000Y-64173091D01*
X112083004Y-64173091D01*
X112245455Y-64154787D01*
X112245456Y-64154786D01*
X112245461Y-64154786D01*
X112399775Y-64100789D01*
X112538204Y-64013808D01*
X112607061Y-63944949D01*
X114154211Y-63944949D01*
X114154211Y-63944956D01*
X114172514Y-64107408D01*
X114172515Y-64107413D01*
X114172516Y-64107414D01*
X114174731Y-64113745D01*
X114226512Y-64261727D01*
X114251429Y-64301382D01*
X114313494Y-64400157D01*
X114429098Y-64515761D01*
X114567527Y-64602742D01*
X114721841Y-64656739D01*
X114721844Y-64656739D01*
X114721846Y-64656740D01*
X114884298Y-64675044D01*
X114884302Y-64675044D01*
X114884304Y-64675044D01*
X114921042Y-64670904D01*
X114982069Y-64664028D01*
X115050890Y-64676082D01*
X115061925Y-64682255D01*
X115167833Y-64748802D01*
X115198772Y-64768242D01*
X115353086Y-64822239D01*
X115353089Y-64822239D01*
X115353091Y-64822240D01*
X115515543Y-64840544D01*
X115515547Y-64840544D01*
X115515551Y-64840544D01*
X115678002Y-64822240D01*
X115678003Y-64822239D01*
X115678008Y-64822239D01*
X115832322Y-64768242D01*
X115970751Y-64681261D01*
X116086355Y-64565657D01*
X116173336Y-64427228D01*
X116227333Y-64272914D01*
X116227334Y-64272908D01*
X116245638Y-64110456D01*
X116245638Y-64110449D01*
X116227334Y-63947997D01*
X116227333Y-63947995D01*
X116227333Y-63947992D01*
X116173336Y-63793678D01*
X116086355Y-63655249D01*
X115970751Y-63539645D01*
X115909711Y-63501291D01*
X115832321Y-63452663D01*
X115678002Y-63398665D01*
X115515551Y-63380362D01*
X115515544Y-63380362D01*
X115417778Y-63391377D01*
X115348956Y-63379322D01*
X115337922Y-63373150D01*
X115307671Y-63354142D01*
X115274632Y-63333382D01*
X115201078Y-63287164D01*
X115046757Y-63233165D01*
X114884306Y-63214862D01*
X114884298Y-63214862D01*
X114721846Y-63233165D01*
X114567527Y-63287163D01*
X114429097Y-63374145D01*
X114313494Y-63489748D01*
X114226512Y-63628178D01*
X114172514Y-63782497D01*
X114154211Y-63944949D01*
X112607061Y-63944949D01*
X112607246Y-63944764D01*
X112668568Y-63911279D01*
X112708811Y-63909225D01*
X112742549Y-63913026D01*
X112756584Y-63914608D01*
X112756585Y-63914608D01*
X112756589Y-63914608D01*
X112919040Y-63896304D01*
X112919041Y-63896303D01*
X112919046Y-63896303D01*
X113073360Y-63842306D01*
X113211789Y-63755325D01*
X113327393Y-63639721D01*
X113414374Y-63501292D01*
X113468371Y-63346978D01*
X113472372Y-63311468D01*
X113486676Y-63184520D01*
X113486676Y-63184513D01*
X113468372Y-63022061D01*
X113468371Y-63022059D01*
X113468371Y-63022056D01*
X113414374Y-62867742D01*
X113327393Y-62729313D01*
X113211789Y-62613709D01*
X113170547Y-62587795D01*
X113073359Y-62526727D01*
X112919040Y-62472729D01*
X112756589Y-62454426D01*
X112756581Y-62454426D01*
X112594129Y-62472729D01*
X112439810Y-62526727D01*
X112301380Y-62613709D01*
X112232336Y-62682753D01*
X112171012Y-62716237D01*
X112130772Y-62718291D01*
X112083003Y-62712909D01*
X112082996Y-62712909D01*
X111977422Y-62724804D01*
X111908600Y-62712749D01*
X111857221Y-62665400D01*
X111846497Y-62642538D01*
X111840788Y-62626223D01*
X111805255Y-62569673D01*
X111753808Y-62487796D01*
X111638204Y-62372192D01*
X111595204Y-62345173D01*
X111499774Y-62285210D01*
X111345455Y-62231212D01*
X111218435Y-62216901D01*
X111154021Y-62189835D01*
X111114465Y-62132240D01*
X111109098Y-62107564D01*
X111108860Y-62105455D01*
X111101402Y-62039260D01*
X111094787Y-61980544D01*
X111094786Y-61980542D01*
X111094786Y-61980539D01*
X111040789Y-61826225D01*
X111029948Y-61808972D01*
X111010948Y-61741737D01*
X111029949Y-61677026D01*
X111040789Y-61659775D01*
X111094786Y-61505461D01*
X111095322Y-61500704D01*
X111113091Y-61343003D01*
X111113091Y-61342996D01*
X111094787Y-61180544D01*
X111094786Y-61180542D01*
X111094786Y-61180539D01*
X111040789Y-61026225D01*
X110953808Y-60887796D01*
X110838204Y-60772192D01*
X110769027Y-60728725D01*
X110699774Y-60685210D01*
X110545455Y-60631212D01*
X110383004Y-60612909D01*
X110382996Y-60612909D01*
X110220544Y-60631212D01*
X110066225Y-60685210D01*
X109927795Y-60772192D01*
X109812192Y-60887795D01*
X109725210Y-61026225D01*
X109671212Y-61180544D01*
X109652909Y-61342996D01*
X108454641Y-61342996D01*
X108444787Y-61255544D01*
X108444786Y-61255542D01*
X108444786Y-61255539D01*
X108390789Y-61101225D01*
X108303808Y-60962796D01*
X108188204Y-60847192D01*
X108128000Y-60809363D01*
X108049774Y-60760210D01*
X107895455Y-60706212D01*
X107733004Y-60687909D01*
X107732996Y-60687909D01*
X107570544Y-60706212D01*
X107416225Y-60760210D01*
X107277795Y-60847192D01*
X107162192Y-60962795D01*
X107162190Y-60962798D01*
X107131602Y-61011478D01*
X107079267Y-61057769D01*
X107010213Y-61068416D01*
X106946365Y-61040040D01*
X106907994Y-60981650D01*
X106903389Y-60959388D01*
X106894787Y-60883044D01*
X106894786Y-60883042D01*
X106894786Y-60883039D01*
X106840789Y-60728725D01*
X106840787Y-60728719D01*
X106837769Y-60722452D01*
X106839374Y-60721678D01*
X106822834Y-60663156D01*
X106843199Y-60596320D01*
X106896465Y-60551104D01*
X106932947Y-60541195D01*
X106945461Y-60539786D01*
X107099775Y-60485789D01*
X107238204Y-60398808D01*
X107353808Y-60283204D01*
X107440789Y-60144775D01*
X107494786Y-59990461D01*
X107494787Y-59990455D01*
X107513091Y-59828003D01*
X107513091Y-59827996D01*
X107494787Y-59665544D01*
X107494786Y-59665542D01*
X107494786Y-59665539D01*
X107440789Y-59511225D01*
X107353808Y-59372796D01*
X107238204Y-59257192D01*
X107152146Y-59203118D01*
X107099774Y-59170210D01*
X106945455Y-59116212D01*
X106783004Y-59097909D01*
X106782996Y-59097909D01*
X106620544Y-59116212D01*
X106466225Y-59170210D01*
X106327795Y-59257192D01*
X106212192Y-59372795D01*
X106125210Y-59511225D01*
X106071212Y-59665544D01*
X106052909Y-59827996D01*
X106052909Y-59828003D01*
X106071212Y-59990455D01*
X106125212Y-60144780D01*
X106128231Y-60151048D01*
X106126626Y-60151820D01*
X106143165Y-60210351D01*
X106122796Y-60277185D01*
X106069527Y-60322398D01*
X106033055Y-60332303D01*
X106020544Y-60333712D01*
X105866225Y-60387710D01*
X105727795Y-60474692D01*
X105612192Y-60590295D01*
X105525210Y-60728725D01*
X105471212Y-60883044D01*
X105452909Y-61045496D01*
X100049167Y-61045496D01*
X100085262Y-61022816D01*
X100212816Y-60895262D01*
X100308789Y-60742522D01*
X100368368Y-60572255D01*
X100368369Y-60572249D01*
X100388565Y-60393003D01*
X100388565Y-60392996D01*
X100368369Y-60213750D01*
X100368368Y-60213745D01*
X100356749Y-60180539D01*
X100308789Y-60043478D01*
X100302230Y-60033040D01*
X100263997Y-59972192D01*
X100212816Y-59890738D01*
X100085262Y-59763184D01*
X100076935Y-59757952D01*
X99932523Y-59667211D01*
X99762254Y-59607631D01*
X99762249Y-59607630D01*
X99583004Y-59587435D01*
X99582996Y-59587435D01*
X99403750Y-59607630D01*
X99403745Y-59607631D01*
X99233476Y-59667211D01*
X99080731Y-59763188D01*
X99080387Y-59763463D01*
X99080122Y-59763570D01*
X99074842Y-59766889D01*
X99074260Y-59765963D01*
X99015698Y-59789867D01*
X98947004Y-59777105D01*
X98937110Y-59771504D01*
X98799774Y-59685210D01*
X98645455Y-59631212D01*
X98483004Y-59612909D01*
X98482996Y-59612909D01*
X98320544Y-59631212D01*
X98166225Y-59685210D01*
X98027795Y-59772192D01*
X97912192Y-59887795D01*
X97825211Y-60026224D01*
X97770825Y-60181651D01*
X97730103Y-60238427D01*
X97694739Y-60257737D01*
X97616223Y-60285211D01*
X97616222Y-60285212D01*
X97477795Y-60372192D01*
X97362192Y-60487795D01*
X97275210Y-60626225D01*
X97221212Y-60780544D01*
X97202909Y-60942996D01*
X83085938Y-60942996D01*
X83080846Y-58442996D01*
X86177435Y-58442996D01*
X86177435Y-58443003D01*
X86197630Y-58622249D01*
X86197631Y-58622254D01*
X86257211Y-58792523D01*
X86323127Y-58897427D01*
X86353184Y-58945262D01*
X86480738Y-59072816D01*
X86553092Y-59118279D01*
X86595721Y-59145065D01*
X86633478Y-59168789D01*
X86727938Y-59201842D01*
X86803745Y-59228368D01*
X86803750Y-59228369D01*
X86982996Y-59248565D01*
X86983000Y-59248565D01*
X86983004Y-59248565D01*
X87162249Y-59228369D01*
X87162252Y-59228368D01*
X87162255Y-59228368D01*
X87332522Y-59168789D01*
X87485262Y-59072816D01*
X87612816Y-58945262D01*
X87708789Y-58792522D01*
X87768368Y-58622255D01*
X87775894Y-58555461D01*
X87777298Y-58542996D01*
X91652909Y-58542996D01*
X91652909Y-58543003D01*
X91671212Y-58705456D01*
X91705010Y-58802047D01*
X91708571Y-58871825D01*
X91705010Y-58883953D01*
X91671212Y-58980543D01*
X91652909Y-59142996D01*
X91652909Y-59143003D01*
X91671212Y-59305455D01*
X91671213Y-59305460D01*
X91671214Y-59305461D01*
X91678379Y-59325939D01*
X91725210Y-59459774D01*
X91781683Y-59549650D01*
X91812192Y-59598204D01*
X91927796Y-59713808D01*
X92066225Y-59800789D01*
X92220539Y-59854786D01*
X92220542Y-59854786D01*
X92220544Y-59854787D01*
X92382996Y-59873091D01*
X92383000Y-59873091D01*
X92383004Y-59873091D01*
X92545455Y-59854787D01*
X92545456Y-59854786D01*
X92545461Y-59854786D01*
X92699775Y-59800789D01*
X92838204Y-59713808D01*
X92953808Y-59598204D01*
X93040789Y-59459775D01*
X93094786Y-59305461D01*
X93094787Y-59305455D01*
X93113091Y-59143003D01*
X93113091Y-59142996D01*
X93094787Y-58980542D01*
X93060989Y-58883955D01*
X93057426Y-58814177D01*
X93060989Y-58802045D01*
X93094786Y-58705461D01*
X93094786Y-58705459D01*
X93094787Y-58705457D01*
X93113091Y-58543003D01*
X93113091Y-58542996D01*
X93094787Y-58380544D01*
X93094786Y-58380542D01*
X93094786Y-58380539D01*
X93040789Y-58226225D01*
X92953808Y-58087796D01*
X92838204Y-57972192D01*
X92699774Y-57885210D01*
X92545455Y-57831212D01*
X92383004Y-57812909D01*
X92382996Y-57812909D01*
X92220544Y-57831212D01*
X92066225Y-57885210D01*
X91927795Y-57972192D01*
X91812192Y-58087795D01*
X91725210Y-58226225D01*
X91671212Y-58380544D01*
X91652909Y-58542996D01*
X87777298Y-58542996D01*
X87788565Y-58443003D01*
X87788565Y-58442996D01*
X87768369Y-58263750D01*
X87768368Y-58263745D01*
X87728468Y-58149718D01*
X87708789Y-58093478D01*
X87703968Y-58085806D01*
X87655545Y-58008741D01*
X87612816Y-57940738D01*
X87485262Y-57813184D01*
X87484824Y-57812909D01*
X87373559Y-57742996D01*
X96552909Y-57742996D01*
X96552909Y-57743003D01*
X96571212Y-57905455D01*
X96625210Y-58059774D01*
X96631069Y-58069098D01*
X96712192Y-58198204D01*
X96827796Y-58313808D01*
X96966225Y-58400789D01*
X97120539Y-58454786D01*
X97120542Y-58454786D01*
X97120544Y-58454787D01*
X97282996Y-58473091D01*
X97283000Y-58473091D01*
X97283004Y-58473091D01*
X97445455Y-58454787D01*
X97445456Y-58454786D01*
X97445461Y-58454786D01*
X97599775Y-58400789D01*
X97738204Y-58313808D01*
X97853808Y-58198204D01*
X97940789Y-58059775D01*
X97994786Y-57905461D01*
X98003714Y-57826225D01*
X98013091Y-57743003D01*
X98013091Y-57742996D01*
X97994787Y-57580544D01*
X97994786Y-57580542D01*
X97994786Y-57580539D01*
X97940789Y-57426225D01*
X97853808Y-57287796D01*
X97738204Y-57172192D01*
X97715546Y-57157955D01*
X97599774Y-57085210D01*
X97445455Y-57031212D01*
X97283004Y-57012909D01*
X97282996Y-57012909D01*
X97120544Y-57031212D01*
X96966225Y-57085210D01*
X96827795Y-57172192D01*
X96712192Y-57287795D01*
X96625210Y-57426225D01*
X96571212Y-57580544D01*
X96552909Y-57742996D01*
X87373559Y-57742996D01*
X87332523Y-57717211D01*
X87162254Y-57657631D01*
X87162249Y-57657630D01*
X86983004Y-57637435D01*
X86982996Y-57637435D01*
X86803750Y-57657630D01*
X86803745Y-57657631D01*
X86633476Y-57717211D01*
X86480737Y-57813184D01*
X86353184Y-57940737D01*
X86257211Y-58093476D01*
X86197631Y-58263745D01*
X86197630Y-58263750D01*
X86177435Y-58442996D01*
X83080846Y-58442996D01*
X83073718Y-54942996D01*
X87577435Y-54942996D01*
X87577435Y-54943003D01*
X87597630Y-55122249D01*
X87597631Y-55122254D01*
X87657211Y-55292523D01*
X87723615Y-55398204D01*
X87753184Y-55445262D01*
X87880738Y-55572816D01*
X87925257Y-55600789D01*
X88010657Y-55654450D01*
X88033478Y-55668789D01*
X88143568Y-55707311D01*
X88203745Y-55728368D01*
X88203750Y-55728369D01*
X88382996Y-55748565D01*
X88383000Y-55748565D01*
X88383004Y-55748565D01*
X88562249Y-55728369D01*
X88562252Y-55728368D01*
X88562255Y-55728368D01*
X88732522Y-55668789D01*
X88885262Y-55572816D01*
X89012816Y-55445262D01*
X89108789Y-55292522D01*
X89168368Y-55122255D01*
X89169140Y-55115405D01*
X89188565Y-54943003D01*
X89188565Y-54942996D01*
X89168369Y-54763750D01*
X89168368Y-54763745D01*
X89121297Y-54629225D01*
X89108789Y-54593478D01*
X89105802Y-54588725D01*
X89055142Y-54508100D01*
X89012816Y-54440738D01*
X88915074Y-54342996D01*
X91177435Y-54342996D01*
X91177435Y-54343003D01*
X91197630Y-54522249D01*
X91197631Y-54522254D01*
X91257211Y-54692523D01*
X91310856Y-54777898D01*
X91353184Y-54845262D01*
X91480738Y-54972816D01*
X91541885Y-55011237D01*
X91632150Y-55067955D01*
X91633478Y-55068789D01*
X91699507Y-55091893D01*
X91756283Y-55132614D01*
X91775595Y-55167981D01*
X91825210Y-55309774D01*
X91856628Y-55359775D01*
X91912192Y-55448204D01*
X92027796Y-55563808D01*
X92166225Y-55650789D01*
X92320539Y-55704786D01*
X92320542Y-55704786D01*
X92320544Y-55704787D01*
X92482996Y-55723091D01*
X92483000Y-55723091D01*
X92483004Y-55723091D01*
X92645455Y-55704787D01*
X92645456Y-55704786D01*
X92645461Y-55704786D01*
X92799775Y-55650789D01*
X92938204Y-55563808D01*
X92988516Y-55513496D01*
X104992435Y-55513496D01*
X104992435Y-55513503D01*
X105012630Y-55692749D01*
X105012631Y-55692754D01*
X105072211Y-55863023D01*
X105140807Y-55972192D01*
X105168184Y-56015762D01*
X105295738Y-56143316D01*
X105383988Y-56198767D01*
X105403946Y-56211308D01*
X105448478Y-56239289D01*
X105617090Y-56298289D01*
X105618745Y-56298868D01*
X105618750Y-56298869D01*
X105797996Y-56319065D01*
X105798000Y-56319065D01*
X105798004Y-56319065D01*
X105977249Y-56298869D01*
X105977252Y-56298868D01*
X105977255Y-56298868D01*
X106147522Y-56239289D01*
X106300262Y-56143316D01*
X106300267Y-56143310D01*
X106302381Y-56141626D01*
X106304008Y-56140961D01*
X106306158Y-56139611D01*
X106306394Y-56139987D01*
X106367067Y-56115216D01*
X106435762Y-56127970D01*
X106467377Y-56150889D01*
X106527796Y-56211308D01*
X106666225Y-56298289D01*
X106820539Y-56352286D01*
X106820542Y-56352286D01*
X106820544Y-56352287D01*
X106903014Y-56361578D01*
X106960433Y-56368048D01*
X107024847Y-56395114D01*
X107064402Y-56452709D01*
X107066540Y-56522545D01*
X107051544Y-56557240D01*
X106975210Y-56678724D01*
X106921212Y-56833044D01*
X106902909Y-56995496D01*
X106902909Y-56995503D01*
X106921212Y-57157955D01*
X106975210Y-57312274D01*
X107016782Y-57378435D01*
X107062192Y-57450704D01*
X107177796Y-57566308D01*
X107316225Y-57653289D01*
X107470539Y-57707286D01*
X107470542Y-57707286D01*
X107470544Y-57707287D01*
X107632996Y-57725591D01*
X107633000Y-57725591D01*
X107633004Y-57725591D01*
X107795455Y-57707287D01*
X107795456Y-57707286D01*
X107795461Y-57707286D01*
X107949775Y-57653289D01*
X108088204Y-57566308D01*
X108203808Y-57450704D01*
X108290789Y-57312275D01*
X108344786Y-57157961D01*
X108352983Y-57085210D01*
X108363091Y-56995503D01*
X108363091Y-56995496D01*
X108344787Y-56833044D01*
X108344786Y-56833042D01*
X108344786Y-56833039D01*
X108290789Y-56678725D01*
X108205505Y-56542996D01*
X108852909Y-56542996D01*
X108852909Y-56543003D01*
X108871212Y-56705455D01*
X108925211Y-56859776D01*
X108936053Y-56877032D01*
X108955051Y-56944269D01*
X108936053Y-57008968D01*
X108925211Y-57026223D01*
X108871212Y-57180544D01*
X108852909Y-57342996D01*
X108852909Y-57343003D01*
X108871212Y-57505455D01*
X108925210Y-57659774D01*
X108966566Y-57725591D01*
X109012192Y-57798204D01*
X109127796Y-57913808D01*
X109266225Y-58000789D01*
X109420539Y-58054786D01*
X109420542Y-58054786D01*
X109420544Y-58054787D01*
X109494563Y-58063126D01*
X109547565Y-58069098D01*
X109611978Y-58096164D01*
X109651533Y-58153758D01*
X109656901Y-58178435D01*
X109671212Y-58305455D01*
X109725210Y-58459774D01*
X109725211Y-58459775D01*
X109812192Y-58598204D01*
X109927796Y-58713808D01*
X110066225Y-58800789D01*
X110220539Y-58854786D01*
X110220542Y-58854786D01*
X110220544Y-58854787D01*
X110294563Y-58863126D01*
X110347565Y-58869098D01*
X110411978Y-58896164D01*
X110451533Y-58953758D01*
X110456901Y-58978435D01*
X110471212Y-59105455D01*
X110525210Y-59259774D01*
X110556896Y-59310202D01*
X110612192Y-59398204D01*
X110727796Y-59513808D01*
X110866225Y-59600789D01*
X111020539Y-59654786D01*
X111020542Y-59654786D01*
X111020544Y-59654787D01*
X111182996Y-59673091D01*
X111183000Y-59673091D01*
X111183004Y-59673091D01*
X111345455Y-59654787D01*
X111345456Y-59654786D01*
X111345461Y-59654786D01*
X111499775Y-59600789D01*
X111638204Y-59513808D01*
X111753808Y-59398204D01*
X111840789Y-59259775D01*
X111853377Y-59223799D01*
X111894096Y-59167026D01*
X111959048Y-59141277D01*
X112027610Y-59154732D01*
X112078014Y-59203118D01*
X112087459Y-59223799D01*
X112100047Y-59259774D01*
X112123470Y-59297051D01*
X112142470Y-59364288D01*
X112126390Y-59419066D01*
X112128231Y-59419953D01*
X112125212Y-59426220D01*
X112071212Y-59580544D01*
X112056901Y-59707565D01*
X112029835Y-59771978D01*
X111972240Y-59811534D01*
X111947565Y-59816901D01*
X111820544Y-59831212D01*
X111666225Y-59885210D01*
X111527795Y-59972192D01*
X111412192Y-60087795D01*
X111325210Y-60226225D01*
X111271212Y-60380544D01*
X111252909Y-60542996D01*
X111252909Y-60543003D01*
X111271212Y-60705455D01*
X111271213Y-60705460D01*
X111271214Y-60705461D01*
X111275684Y-60718236D01*
X111325210Y-60859774D01*
X111386734Y-60957688D01*
X111412192Y-60998204D01*
X111527796Y-61113808D01*
X111666225Y-61200789D01*
X111820539Y-61254786D01*
X111820542Y-61254786D01*
X111820544Y-61254787D01*
X111982996Y-61273091D01*
X111983000Y-61273091D01*
X111983004Y-61273091D01*
X112145455Y-61254787D01*
X112145456Y-61254786D01*
X112145461Y-61254786D01*
X112299775Y-61200789D01*
X112438204Y-61113808D01*
X112553808Y-60998204D01*
X112640789Y-60859775D01*
X112694786Y-60705461D01*
X112709098Y-60578433D01*
X112736164Y-60514021D01*
X112793758Y-60474466D01*
X112818430Y-60469098D01*
X112890536Y-60460974D01*
X112945455Y-60454787D01*
X112945456Y-60454786D01*
X112945461Y-60454786D01*
X113099775Y-60400789D01*
X113238204Y-60313808D01*
X113353808Y-60198204D01*
X113440789Y-60059775D01*
X113494786Y-59905461D01*
X113496445Y-59890737D01*
X113513091Y-59743003D01*
X113513091Y-59742996D01*
X113494787Y-59580542D01*
X113440789Y-59426225D01*
X113440787Y-59426222D01*
X113417367Y-59388949D01*
X113398367Y-59321713D01*
X113414453Y-59266938D01*
X113412606Y-59266049D01*
X113415623Y-59259783D01*
X113415623Y-59259781D01*
X113415627Y-59259776D01*
X113453379Y-59151887D01*
X113494099Y-59095114D01*
X113559052Y-59069367D01*
X113627614Y-59082823D01*
X113678016Y-59131211D01*
X113687459Y-59151887D01*
X113687460Y-59151890D01*
X113687461Y-59151891D01*
X113725210Y-59259774D01*
X113756896Y-59310202D01*
X113812192Y-59398204D01*
X113927796Y-59513808D01*
X114066225Y-59600789D01*
X114220539Y-59654786D01*
X114220542Y-59654786D01*
X114220544Y-59654787D01*
X114290099Y-59662623D01*
X114382376Y-59673020D01*
X114446789Y-59700086D01*
X114486344Y-59757680D01*
X114491712Y-59782356D01*
X114502101Y-59874566D01*
X114556099Y-60028886D01*
X114561202Y-60037007D01*
X114580200Y-60104244D01*
X114561200Y-60168947D01*
X114525212Y-60226221D01*
X114471213Y-60380543D01*
X114456902Y-60507564D01*
X114429836Y-60571978D01*
X114372241Y-60611534D01*
X114347565Y-60616901D01*
X114220544Y-60631212D01*
X114066225Y-60685210D01*
X113927795Y-60772192D01*
X113812192Y-60887795D01*
X113725210Y-61026225D01*
X113671212Y-61180544D01*
X113652909Y-61342996D01*
X113652909Y-61343003D01*
X113671212Y-61505455D01*
X113725210Y-61659774D01*
X113764788Y-61722761D01*
X113812192Y-61798204D01*
X113927796Y-61913808D01*
X114066225Y-62000789D01*
X114220539Y-62054786D01*
X114220542Y-62054786D01*
X114220544Y-62054787D01*
X114382996Y-62073091D01*
X114383000Y-62073091D01*
X114383004Y-62073091D01*
X114545455Y-62054787D01*
X114545456Y-62054786D01*
X114545461Y-62054786D01*
X114699775Y-62000789D01*
X114838204Y-61913808D01*
X114953808Y-61798204D01*
X115040789Y-61659775D01*
X115094786Y-61505461D01*
X115096777Y-61487795D01*
X115104640Y-61418003D01*
X115109098Y-61378433D01*
X115136164Y-61314020D01*
X115193758Y-61274465D01*
X115218431Y-61269097D01*
X115303297Y-61259535D01*
X115345455Y-61254786D01*
X115345455Y-61254785D01*
X115345462Y-61254785D01*
X115499776Y-61200788D01*
X115638205Y-61113807D01*
X115753809Y-60998203D01*
X115840790Y-60859774D01*
X115894787Y-60705460D01*
X115904215Y-60621786D01*
X115913092Y-60543002D01*
X115913092Y-60542995D01*
X115894788Y-60380541D01*
X115878403Y-60333714D01*
X115840790Y-60226224D01*
X115835686Y-60218101D01*
X115816688Y-60150867D01*
X115835687Y-60086162D01*
X115871678Y-60028886D01*
X115875998Y-60016537D01*
X115916714Y-59959765D01*
X115981665Y-59934015D01*
X116050228Y-59947467D01*
X116100633Y-59995852D01*
X116110080Y-60016537D01*
X116125208Y-60059772D01*
X116201092Y-60180539D01*
X116212192Y-60198204D01*
X116327796Y-60313808D01*
X116466225Y-60400789D01*
X116620539Y-60454786D01*
X116620542Y-60454786D01*
X116620544Y-60454787D01*
X116782996Y-60473091D01*
X116783000Y-60473091D01*
X116783004Y-60473091D01*
X116945455Y-60454787D01*
X116945456Y-60454786D01*
X116945461Y-60454786D01*
X117099775Y-60400789D01*
X117238204Y-60313808D01*
X117353808Y-60198204D01*
X117440789Y-60059775D01*
X117494786Y-59905461D01*
X117496445Y-59890737D01*
X117513091Y-59743003D01*
X117513091Y-59742996D01*
X117494787Y-59580544D01*
X117494786Y-59580542D01*
X117494786Y-59580539D01*
X117440789Y-59426225D01*
X117353808Y-59287796D01*
X117238204Y-59172192D01*
X117191750Y-59143003D01*
X117099774Y-59085210D01*
X116945455Y-59031212D01*
X116783004Y-59012909D01*
X116782996Y-59012909D01*
X116620544Y-59031212D01*
X116466225Y-59085210D01*
X116327795Y-59172192D01*
X116212192Y-59287795D01*
X116125208Y-59426228D01*
X116120888Y-59438575D01*
X116080165Y-59495350D01*
X116015212Y-59521095D01*
X115946650Y-59507637D01*
X115896249Y-59459248D01*
X115886806Y-59438570D01*
X115884872Y-59433043D01*
X115871678Y-59395336D01*
X115784697Y-59256907D01*
X115669093Y-59141303D01*
X115612051Y-59105461D01*
X115530663Y-59054321D01*
X115376344Y-59000323D01*
X115214512Y-58982089D01*
X115150098Y-58955022D01*
X115110543Y-58897427D01*
X115105176Y-58872752D01*
X115094787Y-58780544D01*
X115094786Y-58780540D01*
X115094786Y-58780539D01*
X115040789Y-58626225D01*
X114953808Y-58487796D01*
X114838204Y-58372192D01*
X114745287Y-58313808D01*
X114699774Y-58285210D01*
X114545455Y-58231212D01*
X114383004Y-58212909D01*
X114382996Y-58212909D01*
X114220544Y-58231212D01*
X114066225Y-58285210D01*
X113927795Y-58372192D01*
X113812192Y-58487795D01*
X113725209Y-58626227D01*
X113687459Y-58734110D01*
X113646738Y-58790886D01*
X113581785Y-58816633D01*
X113513223Y-58803177D01*
X113462820Y-58754789D01*
X113453377Y-58734110D01*
X113415628Y-58626228D01*
X113415628Y-58626227D01*
X113328645Y-58487796D01*
X113213042Y-58372193D01*
X113074612Y-58285211D01*
X112920293Y-58231213D01*
X112757842Y-58212910D01*
X112757834Y-58212910D01*
X112595382Y-58231213D01*
X112441063Y-58285211D01*
X112302633Y-58372193D01*
X112187030Y-58487796D01*
X112100047Y-58626228D01*
X112087460Y-58662200D01*
X112046739Y-58718976D01*
X111981786Y-58744723D01*
X111913224Y-58731267D01*
X111862821Y-58682879D01*
X111853377Y-58662199D01*
X111840789Y-58626225D01*
X111788495Y-58543000D01*
X111753808Y-58487796D01*
X111638204Y-58372192D01*
X111545287Y-58313808D01*
X111499774Y-58285210D01*
X111427846Y-58260042D01*
X111371070Y-58219320D01*
X111345322Y-58154368D01*
X111358778Y-58085806D01*
X111407165Y-58035403D01*
X111427846Y-58025958D01*
X111499775Y-58000789D01*
X111638204Y-57913808D01*
X111753808Y-57798204D01*
X111840789Y-57659775D01*
X111894786Y-57505461D01*
X111901510Y-57445787D01*
X111913091Y-57343003D01*
X111913091Y-57342996D01*
X111894787Y-57180544D01*
X111894786Y-57180542D01*
X111894786Y-57180539D01*
X111840789Y-57026225D01*
X111753808Y-56887796D01*
X111638204Y-56772192D01*
X111582999Y-56737504D01*
X111499774Y-56685210D01*
X111345455Y-56631212D01*
X111183004Y-56612909D01*
X111182996Y-56612909D01*
X111020544Y-56631212D01*
X110866223Y-56685211D01*
X110848968Y-56696053D01*
X110781731Y-56715051D01*
X110717032Y-56696053D01*
X110699776Y-56685211D01*
X110615429Y-56655697D01*
X110545461Y-56631214D01*
X110545459Y-56631213D01*
X110545454Y-56631212D01*
X110418435Y-56616901D01*
X110354021Y-56589835D01*
X110314465Y-56532240D01*
X110309098Y-56507564D01*
X110304932Y-56470592D01*
X110297068Y-56400789D01*
X110294787Y-56380544D01*
X110294786Y-56380542D01*
X110294786Y-56380539D01*
X110240789Y-56226225D01*
X110153808Y-56087796D01*
X110038204Y-55972192D01*
X109931993Y-55905455D01*
X109899774Y-55885210D01*
X109745455Y-55831212D01*
X109583004Y-55812909D01*
X109582996Y-55812909D01*
X109420544Y-55831212D01*
X109266225Y-55885210D01*
X109127795Y-55972192D01*
X109012192Y-56087795D01*
X108925210Y-56226225D01*
X108871212Y-56380544D01*
X108852909Y-56542996D01*
X108205505Y-56542996D01*
X108203808Y-56540296D01*
X108088204Y-56424692D01*
X107974233Y-56353079D01*
X107949774Y-56337710D01*
X107795455Y-56283712D01*
X107655566Y-56267951D01*
X107591152Y-56240885D01*
X107551596Y-56183290D01*
X107549459Y-56113453D01*
X107564456Y-56078759D01*
X107640787Y-55957279D01*
X107640787Y-55957277D01*
X107640789Y-55957275D01*
X107687202Y-55824633D01*
X107727924Y-55767858D01*
X107763288Y-55748547D01*
X107899775Y-55700789D01*
X108038204Y-55613808D01*
X108153808Y-55498204D01*
X108240789Y-55359775D01*
X108294786Y-55205461D01*
X108299460Y-55163978D01*
X108313091Y-55043003D01*
X108313091Y-55042996D01*
X108294787Y-54880544D01*
X108294786Y-54880542D01*
X108294786Y-54880539D01*
X108258869Y-54777897D01*
X108255309Y-54708119D01*
X108270917Y-54670974D01*
X108340789Y-54559775D01*
X108394786Y-54405461D01*
X108394787Y-54405455D01*
X108413091Y-54243003D01*
X108413091Y-54242996D01*
X108401824Y-54142996D01*
X109652909Y-54142996D01*
X109652909Y-54143003D01*
X109671212Y-54305455D01*
X109725210Y-54459774D01*
X109764466Y-54522249D01*
X109812192Y-54598204D01*
X109927796Y-54713808D01*
X110066225Y-54800789D01*
X110220539Y-54854786D01*
X110220542Y-54854786D01*
X110220544Y-54854787D01*
X110294563Y-54863126D01*
X110347565Y-54869098D01*
X110411978Y-54896164D01*
X110451533Y-54953758D01*
X110456901Y-54978435D01*
X110471212Y-55105455D01*
X110471213Y-55105460D01*
X110471214Y-55105461D01*
X110478379Y-55125939D01*
X110525210Y-55259774D01*
X110556628Y-55309775D01*
X110612192Y-55398204D01*
X110727796Y-55513808D01*
X110866225Y-55600789D01*
X111020539Y-55654786D01*
X111020542Y-55654786D01*
X111020544Y-55654787D01*
X111094563Y-55663126D01*
X111147565Y-55669098D01*
X111211978Y-55696164D01*
X111251533Y-55753758D01*
X111256901Y-55778435D01*
X111271212Y-55905455D01*
X111325210Y-56059774D01*
X111377702Y-56143314D01*
X111412192Y-56198204D01*
X111527796Y-56313808D01*
X111666225Y-56400789D01*
X111820539Y-56454786D01*
X111820542Y-56454786D01*
X111820544Y-56454787D01*
X111879213Y-56461397D01*
X111947530Y-56469094D01*
X112011943Y-56496160D01*
X112051498Y-56553754D01*
X112056866Y-56578431D01*
X112062727Y-56630455D01*
X112062728Y-56630460D01*
X112062729Y-56630461D01*
X112069894Y-56650939D01*
X112116725Y-56784774D01*
X112163851Y-56859774D01*
X112203707Y-56923204D01*
X112319311Y-57038808D01*
X112457740Y-57125789D01*
X112612054Y-57179786D01*
X112612057Y-57179786D01*
X112612059Y-57179787D01*
X112774511Y-57198091D01*
X112774515Y-57198091D01*
X112774519Y-57198091D01*
X112936970Y-57179787D01*
X112936971Y-57179786D01*
X112936976Y-57179786D01*
X113091290Y-57125789D01*
X113229719Y-57038808D01*
X113345323Y-56923204D01*
X113432304Y-56784775D01*
X113448593Y-56738222D01*
X113489313Y-56681446D01*
X113554265Y-56655697D01*
X113622827Y-56669152D01*
X113673231Y-56717538D01*
X113682676Y-56738219D01*
X113725211Y-56859775D01*
X113812192Y-56998204D01*
X113927796Y-57113808D01*
X114066225Y-57200789D01*
X114220539Y-57254786D01*
X114220542Y-57254786D01*
X114220544Y-57254787D01*
X114382996Y-57273091D01*
X114383000Y-57273091D01*
X114383004Y-57273091D01*
X114545455Y-57254787D01*
X114545456Y-57254786D01*
X114545461Y-57254786D01*
X114699775Y-57200789D01*
X114838204Y-57113808D01*
X114953808Y-56998204D01*
X115040789Y-56859775D01*
X115069262Y-56778401D01*
X115109983Y-56721626D01*
X115174936Y-56695878D01*
X115243497Y-56709334D01*
X115293901Y-56757720D01*
X115303346Y-56778402D01*
X115322210Y-56832314D01*
X115391759Y-56943000D01*
X115409192Y-56970744D01*
X115524796Y-57086348D01*
X115663225Y-57173329D01*
X115775894Y-57212754D01*
X115832668Y-57253473D01*
X115858416Y-57318426D01*
X115844960Y-57386987D01*
X115796574Y-57437391D01*
X115775893Y-57446835D01*
X115666227Y-57485209D01*
X115527795Y-57572192D01*
X115412192Y-57687795D01*
X115325210Y-57826225D01*
X115271212Y-57980544D01*
X115252909Y-58142996D01*
X115252909Y-58143003D01*
X115271212Y-58305455D01*
X115325210Y-58459774D01*
X115325211Y-58459775D01*
X115412192Y-58598204D01*
X115527796Y-58713808D01*
X115666225Y-58800789D01*
X115820539Y-58854786D01*
X115820542Y-58854786D01*
X115820544Y-58854787D01*
X115982996Y-58873091D01*
X115983000Y-58873091D01*
X115983004Y-58873091D01*
X116145455Y-58854787D01*
X116145456Y-58854786D01*
X116145461Y-58854786D01*
X116299775Y-58800789D01*
X116438204Y-58713808D01*
X116553808Y-58598204D01*
X116640789Y-58459775D01*
X116694786Y-58305461D01*
X116699486Y-58263750D01*
X116713091Y-58143003D01*
X116713091Y-58142996D01*
X116694787Y-57980544D01*
X116694786Y-57980542D01*
X116694786Y-57980539D01*
X116640789Y-57826225D01*
X116553808Y-57687796D01*
X116438204Y-57572192D01*
X116331993Y-57505455D01*
X116299774Y-57485210D01*
X116228768Y-57460364D01*
X116187105Y-57445786D01*
X116130331Y-57405065D01*
X116105726Y-57342996D01*
X116852909Y-57342996D01*
X116852909Y-57343003D01*
X116871212Y-57505455D01*
X116925210Y-57659774D01*
X116966566Y-57725591D01*
X117012192Y-57798204D01*
X117127796Y-57913808D01*
X117266225Y-58000789D01*
X117420539Y-58054786D01*
X117420542Y-58054786D01*
X117420544Y-58054787D01*
X117582996Y-58073091D01*
X117583000Y-58073091D01*
X117583004Y-58073091D01*
X117745455Y-58054787D01*
X117745456Y-58054786D01*
X117745461Y-58054786D01*
X117899775Y-58000789D01*
X118038204Y-57913808D01*
X118153808Y-57798204D01*
X118240789Y-57659775D01*
X118294786Y-57505461D01*
X118302395Y-57437928D01*
X119352909Y-57437928D01*
X119352909Y-57437935D01*
X119371212Y-57600387D01*
X119425210Y-57754706D01*
X119512192Y-57893136D01*
X119627797Y-58008741D01*
X119749914Y-58085473D01*
X119796204Y-58137807D01*
X119806852Y-58206861D01*
X119778477Y-58270709D01*
X119749914Y-58295459D01*
X119627797Y-58372190D01*
X119512192Y-58487795D01*
X119425210Y-58626225D01*
X119371212Y-58780544D01*
X119352909Y-58942996D01*
X119352909Y-58943003D01*
X119371212Y-59105455D01*
X119414195Y-59228294D01*
X119417756Y-59298073D01*
X119414195Y-59310202D01*
X119371212Y-59433041D01*
X119352909Y-59595493D01*
X119352909Y-59595500D01*
X119371212Y-59757952D01*
X119371214Y-59757960D01*
X119405010Y-59854544D01*
X119408571Y-59924323D01*
X119405010Y-59936451D01*
X119371213Y-60033039D01*
X119371213Y-60033040D01*
X119352909Y-60195496D01*
X119352909Y-60195503D01*
X119371212Y-60357955D01*
X119425210Y-60512274D01*
X119496811Y-60626225D01*
X119512192Y-60650704D01*
X119627796Y-60766308D01*
X119698939Y-60811010D01*
X119745230Y-60863345D01*
X119755878Y-60932398D01*
X119727503Y-60996247D01*
X119698940Y-61020997D01*
X119645264Y-61054724D01*
X119645261Y-61054726D01*
X119529658Y-61170329D01*
X119442676Y-61308759D01*
X119388678Y-61463078D01*
X119370375Y-61625530D01*
X119370375Y-61625537D01*
X119388678Y-61787989D01*
X119442676Y-61942308D01*
X119513351Y-62054786D01*
X119529658Y-62080738D01*
X119645262Y-62196342D01*
X119688939Y-62223786D01*
X119735229Y-62276119D01*
X119745878Y-62345173D01*
X119717503Y-62409021D01*
X119688939Y-62433772D01*
X119627798Y-62472190D01*
X119627795Y-62472192D01*
X119512192Y-62587795D01*
X119425210Y-62726225D01*
X119371212Y-62880544D01*
X119352909Y-63042996D01*
X119352909Y-63043003D01*
X119371212Y-63205455D01*
X119425210Y-63359774D01*
X119483577Y-63452664D01*
X119512192Y-63498204D01*
X119627796Y-63613808D01*
X119766225Y-63700789D01*
X119920539Y-63754786D01*
X119920542Y-63754786D01*
X119920544Y-63754787D01*
X120082996Y-63773091D01*
X120083000Y-63773091D01*
X120083004Y-63773091D01*
X120245455Y-63754787D01*
X120245456Y-63754786D01*
X120245461Y-63754786D01*
X120399775Y-63700789D01*
X120538204Y-63613808D01*
X120653808Y-63498204D01*
X120670786Y-63471182D01*
X120723119Y-63424892D01*
X120792172Y-63414242D01*
X120856021Y-63442616D01*
X120863461Y-63449473D01*
X120927796Y-63513808D01*
X121066225Y-63600789D01*
X121220539Y-63654786D01*
X121220542Y-63654786D01*
X121220544Y-63654787D01*
X121382996Y-63673091D01*
X121383000Y-63673091D01*
X121383004Y-63673091D01*
X121545455Y-63654787D01*
X121545456Y-63654786D01*
X121545461Y-63654786D01*
X121699775Y-63600789D01*
X121838204Y-63513808D01*
X121953808Y-63398204D01*
X122040789Y-63259775D01*
X122094786Y-63105461D01*
X122097858Y-63078195D01*
X122113091Y-62943003D01*
X122113091Y-62942996D01*
X122094787Y-62780544D01*
X122094786Y-62780542D01*
X122094786Y-62780539D01*
X122040789Y-62626225D01*
X121953808Y-62487796D01*
X121927747Y-62461735D01*
X121894262Y-62400412D01*
X121899246Y-62330720D01*
X121910431Y-62308089D01*
X121940789Y-62259775D01*
X121994786Y-62105461D01*
X121994786Y-62105459D01*
X121994787Y-62105457D01*
X122013091Y-61943003D01*
X122013091Y-61942996D01*
X121994787Y-61780544D01*
X121994786Y-61780542D01*
X121994786Y-61780539D01*
X121940789Y-61626225D01*
X121853808Y-61487796D01*
X121738204Y-61372192D01*
X121691750Y-61343003D01*
X121599774Y-61285210D01*
X121445455Y-61231212D01*
X121350335Y-61220495D01*
X125649935Y-61220495D01*
X125649935Y-61220502D01*
X125670130Y-61399748D01*
X125670131Y-61399753D01*
X125729711Y-61570022D01*
X125816944Y-61708851D01*
X125825684Y-61722761D01*
X125953238Y-61850315D01*
X126043580Y-61907081D01*
X126100738Y-61942996D01*
X126105978Y-61946288D01*
X126227493Y-61988808D01*
X126282818Y-62008167D01*
X126282117Y-62010167D01*
X126334156Y-62039260D01*
X126367027Y-62100915D01*
X126361347Y-62170553D01*
X126318920Y-62226066D01*
X126286559Y-62243103D01*
X126166227Y-62285209D01*
X126027795Y-62372192D01*
X125912192Y-62487795D01*
X125825210Y-62626225D01*
X125771212Y-62780544D01*
X125752909Y-62942996D01*
X125752909Y-62943003D01*
X125771212Y-63105455D01*
X125825210Y-63259774D01*
X125912192Y-63398204D01*
X125976526Y-63462538D01*
X126010011Y-63523861D01*
X126005027Y-63593553D01*
X125963155Y-63649486D01*
X125954819Y-63655212D01*
X125927794Y-63672193D01*
X125812192Y-63787795D01*
X125725210Y-63926225D01*
X125671212Y-64080544D01*
X125652909Y-64242996D01*
X125652909Y-64243003D01*
X125671212Y-64405455D01*
X125725210Y-64559774D01*
X125798292Y-64676082D01*
X125812192Y-64698204D01*
X125927796Y-64813808D01*
X126066225Y-64900789D01*
X126220539Y-64954786D01*
X126220542Y-64954786D01*
X126220544Y-64954787D01*
X126382996Y-64973091D01*
X126383000Y-64973091D01*
X126383004Y-64973091D01*
X126545455Y-64954787D01*
X126545456Y-64954786D01*
X126545461Y-64954786D01*
X126699775Y-64900789D01*
X126838204Y-64813808D01*
X126903215Y-64748797D01*
X128427751Y-64748797D01*
X128427751Y-64748802D01*
X128446685Y-64916856D01*
X128502545Y-65076494D01*
X128502547Y-65076497D01*
X128592518Y-65219684D01*
X128592523Y-65219690D01*
X128712109Y-65339276D01*
X128712115Y-65339281D01*
X128855302Y-65429252D01*
X128855305Y-65429254D01*
X128855309Y-65429255D01*
X128855310Y-65429256D01*
X128875361Y-65436272D01*
X129014943Y-65485114D01*
X129182997Y-65504049D01*
X129183000Y-65504049D01*
X129183003Y-65504049D01*
X129351056Y-65485114D01*
X129388465Y-65472024D01*
X129510690Y-65429256D01*
X129510692Y-65429254D01*
X129510694Y-65429254D01*
X129510697Y-65429252D01*
X129653884Y-65339281D01*
X129653885Y-65339280D01*
X129653890Y-65339277D01*
X129773477Y-65219690D01*
X129821665Y-65143000D01*
X129863452Y-65076497D01*
X129863454Y-65076494D01*
X129863454Y-65076492D01*
X129863456Y-65076490D01*
X129919313Y-64916859D01*
X129919313Y-64916858D01*
X129919314Y-64916856D01*
X129938249Y-64748802D01*
X129938249Y-64748797D01*
X129919314Y-64580743D01*
X129875991Y-64456934D01*
X129863456Y-64421110D01*
X129863455Y-64421109D01*
X129863454Y-64421105D01*
X129863452Y-64421102D01*
X129773481Y-64277915D01*
X129773476Y-64277909D01*
X129653890Y-64158323D01*
X129653884Y-64158318D01*
X129510697Y-64068347D01*
X129510694Y-64068345D01*
X129351056Y-64012485D01*
X129183003Y-63993551D01*
X129182997Y-63993551D01*
X129014943Y-64012485D01*
X128855305Y-64068345D01*
X128855302Y-64068347D01*
X128712115Y-64158318D01*
X128712109Y-64158323D01*
X128592523Y-64277909D01*
X128592518Y-64277915D01*
X128502547Y-64421102D01*
X128502545Y-64421105D01*
X128446685Y-64580743D01*
X128427751Y-64748797D01*
X126903215Y-64748797D01*
X126953808Y-64698204D01*
X127040789Y-64559775D01*
X127094786Y-64405461D01*
X127107457Y-64293003D01*
X127113091Y-64243003D01*
X127113091Y-64242996D01*
X127094787Y-64080544D01*
X127094786Y-64080542D01*
X127094786Y-64080539D01*
X127040789Y-63926225D01*
X126953808Y-63787796D01*
X126889473Y-63723461D01*
X126855988Y-63662138D01*
X126860972Y-63592446D01*
X126902844Y-63536513D01*
X126911169Y-63530794D01*
X126938204Y-63513808D01*
X127053808Y-63398204D01*
X127140789Y-63259775D01*
X127175450Y-63160717D01*
X127216170Y-63103943D01*
X127281122Y-63078195D01*
X127349684Y-63091650D01*
X127384640Y-63118700D01*
X127427128Y-63165887D01*
X127427129Y-63165888D01*
X127580265Y-63277148D01*
X127580270Y-63277151D01*
X127753192Y-63354142D01*
X127753197Y-63354144D01*
X127938354Y-63393500D01*
X127938355Y-63393500D01*
X128127644Y-63393500D01*
X128127646Y-63393500D01*
X128312803Y-63354144D01*
X128485730Y-63277151D01*
X128638871Y-63165888D01*
X128765533Y-63025216D01*
X128860179Y-62861284D01*
X128918674Y-62681256D01*
X128938460Y-62493000D01*
X128918674Y-62304744D01*
X128860179Y-62124716D01*
X128765533Y-61960784D01*
X128638871Y-61820112D01*
X128623533Y-61808968D01*
X128485734Y-61708851D01*
X128485729Y-61708848D01*
X128312807Y-61631857D01*
X128312802Y-61631855D01*
X128167001Y-61600865D01*
X128127646Y-61592500D01*
X127938354Y-61592500D01*
X127905897Y-61599398D01*
X127753197Y-61631855D01*
X127753192Y-61631857D01*
X127580270Y-61708848D01*
X127580265Y-61708851D01*
X127427129Y-61820111D01*
X127300466Y-61960785D01*
X127205821Y-62124715D01*
X127205818Y-62124722D01*
X127147327Y-62304739D01*
X127146328Y-62309442D01*
X127113136Y-62370924D01*
X127051974Y-62404702D01*
X126982259Y-62400051D01*
X126944263Y-62375760D01*
X126943647Y-62376533D01*
X126938204Y-62372192D01*
X126799775Y-62285211D01*
X126712834Y-62254789D01*
X126652590Y-62233708D01*
X126595815Y-62192987D01*
X126570068Y-62128034D01*
X126583524Y-62059472D01*
X126631912Y-62009070D01*
X126652586Y-61999627D01*
X126805022Y-61946288D01*
X126957762Y-61850315D01*
X127085316Y-61722761D01*
X127181289Y-61570021D01*
X127240868Y-61399754D01*
X127243270Y-61378435D01*
X127261065Y-61220502D01*
X127261065Y-61220495D01*
X127240869Y-61041249D01*
X127240868Y-61041244D01*
X127220015Y-60981650D01*
X127181289Y-60870977D01*
X127176493Y-60863345D01*
X127119218Y-60772192D01*
X127085316Y-60718237D01*
X126957762Y-60590683D01*
X126957145Y-60590295D01*
X126805023Y-60494710D01*
X126634754Y-60435130D01*
X126634749Y-60435129D01*
X126455504Y-60414934D01*
X126455496Y-60414934D01*
X126276250Y-60435129D01*
X126276245Y-60435130D01*
X126105976Y-60494710D01*
X125953237Y-60590683D01*
X125825684Y-60718236D01*
X125729711Y-60870975D01*
X125670131Y-61041244D01*
X125670130Y-61041249D01*
X125649935Y-61220495D01*
X121350335Y-61220495D01*
X121283004Y-61212909D01*
X121282996Y-61212909D01*
X121120544Y-61231212D01*
X120966222Y-61285211D01*
X120911507Y-61319591D01*
X120844270Y-61338591D01*
X120777435Y-61318223D01*
X120740542Y-61280569D01*
X120724818Y-61255544D01*
X120671274Y-61170330D01*
X120555670Y-61054726D01*
X120555668Y-61054724D01*
X120484525Y-61010022D01*
X120438235Y-60957688D01*
X120427587Y-60888634D01*
X120455962Y-60824786D01*
X120484524Y-60800037D01*
X120538204Y-60766308D01*
X120653808Y-60650704D01*
X120740789Y-60512275D01*
X120794786Y-60357961D01*
X120797518Y-60333714D01*
X120807740Y-60242996D01*
X121952909Y-60242996D01*
X121952909Y-60243003D01*
X121971212Y-60405455D01*
X122025210Y-60559774D01*
X122044632Y-60590683D01*
X122112192Y-60698204D01*
X122227796Y-60813808D01*
X122366225Y-60900789D01*
X122520539Y-60954786D01*
X122520542Y-60954786D01*
X122520544Y-60954787D01*
X122682996Y-60973091D01*
X122683000Y-60973091D01*
X122683004Y-60973091D01*
X122845457Y-60954787D01*
X122845459Y-60954786D01*
X122845461Y-60954786D01*
X122999775Y-60900789D01*
X123084022Y-60847852D01*
X123151257Y-60828852D01*
X123163877Y-60829626D01*
X123309998Y-60846090D01*
X123310001Y-60846090D01*
X123310005Y-60846090D01*
X123472456Y-60827786D01*
X123472457Y-60827785D01*
X123472462Y-60827785D01*
X123525107Y-60809362D01*
X123594885Y-60805800D01*
X123632034Y-60821410D01*
X123758365Y-60900789D01*
X123763192Y-60903822D01*
X123917506Y-60957819D01*
X123917509Y-60957819D01*
X123917511Y-60957820D01*
X124079963Y-60976124D01*
X124079967Y-60976124D01*
X124079971Y-60976124D01*
X124242422Y-60957820D01*
X124242423Y-60957819D01*
X124242428Y-60957819D01*
X124396742Y-60903822D01*
X124535171Y-60816841D01*
X124650775Y-60701237D01*
X124737756Y-60562808D01*
X124791753Y-60408494D01*
X124792095Y-60405461D01*
X124810058Y-60246036D01*
X124810058Y-60246029D01*
X124791754Y-60083577D01*
X124791753Y-60083575D01*
X124791753Y-60083572D01*
X124737756Y-59929258D01*
X124650775Y-59790829D01*
X124535171Y-59675225D01*
X124427598Y-59607632D01*
X124396741Y-59588243D01*
X124242422Y-59534245D01*
X124079971Y-59515942D01*
X124079963Y-59515942D01*
X123917511Y-59534245D01*
X123917503Y-59534247D01*
X123864857Y-59552669D01*
X123795078Y-59556230D01*
X123757930Y-59540620D01*
X123754255Y-59538311D01*
X123718656Y-59515942D01*
X123626777Y-59458210D01*
X123472456Y-59404211D01*
X123310005Y-59385908D01*
X123309997Y-59385908D01*
X123147545Y-59404211D01*
X122993229Y-59458208D01*
X122908976Y-59511147D01*
X122841739Y-59530146D01*
X122829122Y-59529372D01*
X122683004Y-59512909D01*
X122682996Y-59512909D01*
X122520544Y-59531212D01*
X122366225Y-59585210D01*
X122227795Y-59672192D01*
X122112192Y-59787795D01*
X122025210Y-59926225D01*
X121971212Y-60080544D01*
X121952909Y-60242996D01*
X120807740Y-60242996D01*
X120813091Y-60195503D01*
X120813091Y-60195496D01*
X120794787Y-60033044D01*
X120794786Y-60033040D01*
X120794786Y-60033039D01*
X120760987Y-59936449D01*
X120757425Y-59866675D01*
X120760981Y-59854565D01*
X120794786Y-59757958D01*
X120794787Y-59757952D01*
X120813091Y-59595500D01*
X120813091Y-59595493D01*
X120794787Y-59433043D01*
X120794786Y-59433042D01*
X120794786Y-59433036D01*
X120751803Y-59310200D01*
X120748243Y-59240424D01*
X120751803Y-59228297D01*
X120761061Y-59201838D01*
X120801779Y-59145065D01*
X120864217Y-59119573D01*
X120940911Y-59110932D01*
X120995455Y-59104787D01*
X120995456Y-59104786D01*
X120995461Y-59104786D01*
X121149775Y-59050789D01*
X121288204Y-58963808D01*
X121403808Y-58848204D01*
X121490789Y-58709775D01*
X121544786Y-58555461D01*
X121546190Y-58543000D01*
X121563091Y-58393003D01*
X121563091Y-58392996D01*
X121544787Y-58230544D01*
X121544786Y-58230542D01*
X121544786Y-58230539D01*
X121490789Y-58076225D01*
X121403808Y-57937796D01*
X121288204Y-57822192D01*
X121273430Y-57812909D01*
X121149774Y-57735210D01*
X120995455Y-57681212D01*
X120911529Y-57671756D01*
X120847115Y-57644689D01*
X120807560Y-57587094D01*
X120802193Y-57534652D01*
X120813091Y-57437934D01*
X120813091Y-57437928D01*
X120794787Y-57275476D01*
X120794786Y-57275474D01*
X120794786Y-57275471D01*
X120740789Y-57121157D01*
X120653808Y-56982728D01*
X120538204Y-56867124D01*
X120482806Y-56832315D01*
X120399774Y-56780142D01*
X120245455Y-56726144D01*
X120083004Y-56707841D01*
X120082996Y-56707841D01*
X119920544Y-56726144D01*
X119766225Y-56780142D01*
X119627795Y-56867124D01*
X119512192Y-56982727D01*
X119425210Y-57121157D01*
X119371212Y-57275476D01*
X119352909Y-57437928D01*
X118302395Y-57437928D01*
X118309098Y-57378433D01*
X118336164Y-57314021D01*
X118393758Y-57274466D01*
X118418430Y-57269098D01*
X118490536Y-57260974D01*
X118545455Y-57254787D01*
X118545456Y-57254786D01*
X118545461Y-57254786D01*
X118699775Y-57200789D01*
X118838204Y-57113808D01*
X118953808Y-56998204D01*
X119040789Y-56859775D01*
X119094786Y-56705461D01*
X119097492Y-56681446D01*
X119113091Y-56543003D01*
X119113091Y-56542996D01*
X119094787Y-56380544D01*
X119094786Y-56380542D01*
X119094786Y-56380539D01*
X119040789Y-56226225D01*
X118953808Y-56087796D01*
X118838204Y-55972192D01*
X118731993Y-55905455D01*
X118699774Y-55885210D01*
X118545455Y-55831212D01*
X118383004Y-55812909D01*
X118382996Y-55812909D01*
X118220544Y-55831212D01*
X118066225Y-55885210D01*
X117927795Y-55972192D01*
X117812192Y-56087795D01*
X117725210Y-56226225D01*
X117671212Y-56380544D01*
X117656901Y-56507565D01*
X117629835Y-56571978D01*
X117572240Y-56611534D01*
X117547565Y-56616901D01*
X117420544Y-56631212D01*
X117266225Y-56685210D01*
X117127795Y-56772192D01*
X117012192Y-56887795D01*
X116925210Y-57026225D01*
X116871212Y-57180544D01*
X116852909Y-57342996D01*
X116105726Y-57342996D01*
X116104583Y-57340113D01*
X116118039Y-57271551D01*
X116166426Y-57221148D01*
X116187101Y-57211705D01*
X116296775Y-57173329D01*
X116435204Y-57086348D01*
X116550808Y-56970744D01*
X116637789Y-56832315D01*
X116691786Y-56678001D01*
X116697058Y-56631212D01*
X116710091Y-56515543D01*
X116710091Y-56515536D01*
X116691787Y-56353084D01*
X116691786Y-56353082D01*
X116691786Y-56353079D01*
X116637789Y-56198765D01*
X116550808Y-56060336D01*
X116435204Y-55944732D01*
X116372695Y-55905455D01*
X116296774Y-55857750D01*
X116268371Y-55847812D01*
X116211595Y-55807091D01*
X116185847Y-55742138D01*
X116199303Y-55673576D01*
X116247690Y-55623173D01*
X116268371Y-55613728D01*
X116296775Y-55603789D01*
X116435204Y-55516808D01*
X116550808Y-55401204D01*
X116637789Y-55262775D01*
X116691786Y-55108461D01*
X116694406Y-55085210D01*
X116710091Y-54946003D01*
X116710091Y-54945996D01*
X116705528Y-54905496D01*
X119345409Y-54905496D01*
X119345409Y-54905503D01*
X119363712Y-55067955D01*
X119417710Y-55222274D01*
X119417711Y-55222275D01*
X119504692Y-55360704D01*
X119620296Y-55476308D01*
X119758725Y-55563289D01*
X119913039Y-55617286D01*
X119913042Y-55617286D01*
X119913044Y-55617287D01*
X120075496Y-55635591D01*
X120075500Y-55635591D01*
X120075504Y-55635591D01*
X120237955Y-55617287D01*
X120237956Y-55617286D01*
X120237961Y-55617286D01*
X120392275Y-55563289D01*
X120530704Y-55476308D01*
X120646308Y-55360704D01*
X120733289Y-55222275D01*
X120787286Y-55067961D01*
X120790098Y-55043003D01*
X120805591Y-54905503D01*
X120805591Y-54905496D01*
X120787287Y-54743044D01*
X120787286Y-54743042D01*
X120787286Y-54743039D01*
X120733289Y-54588725D01*
X120646308Y-54450296D01*
X120530704Y-54334692D01*
X120451954Y-54285210D01*
X120392274Y-54247710D01*
X120284504Y-54210000D01*
X127177540Y-54210000D01*
X127197326Y-54398256D01*
X127197327Y-54398259D01*
X127255818Y-54578277D01*
X127255821Y-54578284D01*
X127350467Y-54742216D01*
X127451826Y-54854786D01*
X127477129Y-54882888D01*
X127630265Y-54994148D01*
X127630270Y-54994151D01*
X127803192Y-55071142D01*
X127803197Y-55071144D01*
X127988354Y-55110500D01*
X127988355Y-55110500D01*
X128177644Y-55110500D01*
X128177646Y-55110500D01*
X128362803Y-55071144D01*
X128535730Y-54994151D01*
X128688871Y-54882888D01*
X128815533Y-54742216D01*
X128910179Y-54578284D01*
X128968674Y-54398256D01*
X128988460Y-54210000D01*
X128968674Y-54021744D01*
X128910179Y-53841716D01*
X128815533Y-53677784D01*
X128688871Y-53537112D01*
X128680753Y-53531214D01*
X128535734Y-53425851D01*
X128535729Y-53425848D01*
X128362807Y-53348857D01*
X128362802Y-53348855D01*
X128217001Y-53317865D01*
X128177646Y-53309500D01*
X127988354Y-53309500D01*
X127955897Y-53316398D01*
X127803197Y-53348855D01*
X127803192Y-53348857D01*
X127630270Y-53425848D01*
X127630265Y-53425851D01*
X127477129Y-53537111D01*
X127350466Y-53677785D01*
X127255821Y-53841715D01*
X127255818Y-53841722D01*
X127197327Y-54021740D01*
X127197326Y-54021744D01*
X127177540Y-54210000D01*
X120284504Y-54210000D01*
X120237955Y-54193712D01*
X120075504Y-54175409D01*
X120075496Y-54175409D01*
X119913044Y-54193712D01*
X119758725Y-54247710D01*
X119620295Y-54334692D01*
X119504692Y-54450295D01*
X119417710Y-54588725D01*
X119363712Y-54743044D01*
X119345409Y-54905496D01*
X116705528Y-54905496D01*
X116691787Y-54783544D01*
X116691786Y-54783542D01*
X116691786Y-54783539D01*
X116637789Y-54629225D01*
X116550808Y-54490796D01*
X116435204Y-54375192D01*
X116364566Y-54330807D01*
X116296774Y-54288210D01*
X116142455Y-54234212D01*
X115980004Y-54215909D01*
X115979996Y-54215909D01*
X115817544Y-54234212D01*
X115663225Y-54288210D01*
X115524795Y-54375192D01*
X115409192Y-54490795D01*
X115322210Y-54629225D01*
X115268212Y-54783544D01*
X115249909Y-54945996D01*
X115249909Y-54946003D01*
X115268212Y-55108455D01*
X115268213Y-55108460D01*
X115268214Y-55108461D01*
X115270644Y-55115405D01*
X115322210Y-55262774D01*
X115351743Y-55309775D01*
X115409192Y-55401204D01*
X115524796Y-55516808D01*
X115663225Y-55603789D01*
X115691629Y-55613728D01*
X115748405Y-55654450D01*
X115774152Y-55719403D01*
X115760696Y-55787965D01*
X115712308Y-55838367D01*
X115691629Y-55847812D01*
X115663224Y-55857751D01*
X115524795Y-55944732D01*
X115409192Y-56060335D01*
X115322209Y-56198767D01*
X115293736Y-56280138D01*
X115253015Y-56336914D01*
X115188062Y-56362661D01*
X115119500Y-56349205D01*
X115069097Y-56300817D01*
X115059653Y-56280136D01*
X115040789Y-56226225D01*
X114953808Y-56087796D01*
X114838204Y-55972192D01*
X114731993Y-55905455D01*
X114699774Y-55885210D01*
X114545455Y-55831212D01*
X114416189Y-55816648D01*
X114351775Y-55789582D01*
X114312219Y-55731987D01*
X114306852Y-55707311D01*
X114306117Y-55700789D01*
X114300107Y-55647445D01*
X114292288Y-55578045D01*
X114292287Y-55578043D01*
X114292287Y-55578040D01*
X114238290Y-55423726D01*
X114151309Y-55285297D01*
X114035705Y-55169693D01*
X114026610Y-55163978D01*
X113897275Y-55082711D01*
X113742956Y-55028713D01*
X113580505Y-55010410D01*
X113580497Y-55010410D01*
X113418045Y-55028713D01*
X113263726Y-55082711D01*
X113125296Y-55169693D01*
X113009693Y-55285296D01*
X112922710Y-55423728D01*
X112898354Y-55493334D01*
X112857633Y-55550110D01*
X112792680Y-55575857D01*
X112724118Y-55562401D01*
X112673716Y-55514013D01*
X112664271Y-55493334D01*
X112640789Y-55426225D01*
X112553808Y-55287796D01*
X112438204Y-55172192D01*
X112358730Y-55122255D01*
X112299774Y-55085210D01*
X112150865Y-55033105D01*
X112145461Y-55031214D01*
X112145460Y-55031213D01*
X112145455Y-55031212D01*
X112018435Y-55016901D01*
X111954021Y-54989835D01*
X111914465Y-54932240D01*
X111909098Y-54907564D01*
X111908865Y-54905500D01*
X111894786Y-54780539D01*
X111840789Y-54626225D01*
X111753808Y-54487796D01*
X111638204Y-54372192D01*
X111591750Y-54343003D01*
X111499774Y-54285210D01*
X111345455Y-54231212D01*
X111218435Y-54216901D01*
X111154021Y-54189835D01*
X111114465Y-54132240D01*
X111109098Y-54107564D01*
X111107587Y-54094156D01*
X111094786Y-53980539D01*
X111040789Y-53826225D01*
X110953808Y-53687796D01*
X110838204Y-53572192D01*
X110731993Y-53505455D01*
X110699774Y-53485210D01*
X110545455Y-53431212D01*
X110383004Y-53412909D01*
X110382996Y-53412909D01*
X110220544Y-53431212D01*
X110066225Y-53485210D01*
X109927795Y-53572192D01*
X109812192Y-53687795D01*
X109725210Y-53826225D01*
X109671212Y-53980544D01*
X109652909Y-54142996D01*
X108401824Y-54142996D01*
X108394787Y-54080544D01*
X108394786Y-54080542D01*
X108394786Y-54080539D01*
X108340789Y-53926225D01*
X108253808Y-53787796D01*
X108138204Y-53672192D01*
X108056978Y-53621154D01*
X107999774Y-53585210D01*
X107865939Y-53538379D01*
X107845461Y-53531214D01*
X107845460Y-53531213D01*
X107845455Y-53531212D01*
X107683004Y-53512909D01*
X107682996Y-53512909D01*
X107520544Y-53531212D01*
X107366225Y-53585210D01*
X107227795Y-53672192D01*
X107112192Y-53787795D01*
X107025210Y-53926225D01*
X106971212Y-54080544D01*
X106952909Y-54242996D01*
X106952909Y-54243003D01*
X106971212Y-54405455D01*
X106971213Y-54405460D01*
X106971214Y-54405461D01*
X106983558Y-54440737D01*
X107007129Y-54508100D01*
X107010690Y-54577879D01*
X106995081Y-54615026D01*
X106925209Y-54726227D01*
X106878797Y-54858865D01*
X106838076Y-54915641D01*
X106802711Y-54934951D01*
X106666227Y-54982709D01*
X106586023Y-55033105D01*
X106518786Y-55052105D01*
X106451951Y-55031737D01*
X106432370Y-55015792D01*
X106300262Y-54883684D01*
X106147523Y-54787711D01*
X105977254Y-54728131D01*
X105977249Y-54728130D01*
X105798004Y-54707935D01*
X105797996Y-54707935D01*
X105618750Y-54728130D01*
X105618745Y-54728131D01*
X105448476Y-54787711D01*
X105295737Y-54883684D01*
X105168184Y-55011237D01*
X105072211Y-55163976D01*
X105012631Y-55334245D01*
X105012630Y-55334250D01*
X104992435Y-55513496D01*
X92988516Y-55513496D01*
X93053808Y-55448204D01*
X93140789Y-55309775D01*
X93194786Y-55155461D01*
X93194787Y-55155455D01*
X93213091Y-54993003D01*
X93213091Y-54992996D01*
X93194787Y-54830544D01*
X93194786Y-54830542D01*
X93194786Y-54830539D01*
X93140789Y-54676225D01*
X93053808Y-54537796D01*
X92938204Y-54422192D01*
X92938198Y-54422187D01*
X92837328Y-54358806D01*
X92791037Y-54306472D01*
X92780080Y-54267695D01*
X92777828Y-54247711D01*
X92774357Y-54216901D01*
X92768369Y-54163750D01*
X92768368Y-54163745D01*
X92730242Y-54054787D01*
X92708789Y-53993478D01*
X92612816Y-53840738D01*
X92485262Y-53713184D01*
X92465760Y-53700930D01*
X92332523Y-53617211D01*
X92162254Y-53557631D01*
X92162249Y-53557630D01*
X91983004Y-53537435D01*
X91982996Y-53537435D01*
X91803750Y-53557630D01*
X91803745Y-53557631D01*
X91633476Y-53617211D01*
X91480737Y-53713184D01*
X91353184Y-53840737D01*
X91257211Y-53993476D01*
X91197631Y-54163745D01*
X91197630Y-54163750D01*
X91177435Y-54342996D01*
X88915074Y-54342996D01*
X88885262Y-54313184D01*
X88845516Y-54288210D01*
X88732523Y-54217211D01*
X88562254Y-54157631D01*
X88562249Y-54157630D01*
X88383004Y-54137435D01*
X88382996Y-54137435D01*
X88203750Y-54157630D01*
X88203745Y-54157631D01*
X88033476Y-54217211D01*
X87880737Y-54313184D01*
X87753184Y-54440737D01*
X87657211Y-54593476D01*
X87597631Y-54763745D01*
X87597630Y-54763750D01*
X87577435Y-54942996D01*
X83073718Y-54942996D01*
X83069547Y-52895361D01*
X100065600Y-52895361D01*
X100065600Y-52895368D01*
X100085795Y-53074614D01*
X100085796Y-53074619D01*
X100145376Y-53244888D01*
X100207026Y-53343003D01*
X100241349Y-53397627D01*
X100368903Y-53525181D01*
X100443721Y-53572192D01*
X100515367Y-53617211D01*
X100521643Y-53621154D01*
X100667501Y-53672192D01*
X100691910Y-53680733D01*
X100691915Y-53680734D01*
X100871161Y-53700930D01*
X100871165Y-53700930D01*
X100871169Y-53700930D01*
X101050414Y-53680734D01*
X101050417Y-53680733D01*
X101050420Y-53680733D01*
X101220687Y-53621154D01*
X101373427Y-53525181D01*
X101500981Y-53397627D01*
X101535308Y-53342996D01*
X111270511Y-53342996D01*
X111270511Y-53343003D01*
X111288814Y-53505455D01*
X111342812Y-53659774D01*
X111342813Y-53659775D01*
X111429794Y-53798204D01*
X111545398Y-53913808D01*
X111683827Y-54000789D01*
X111838141Y-54054786D01*
X111838144Y-54054786D01*
X111838146Y-54054787D01*
X111947337Y-54067090D01*
X112011751Y-54094156D01*
X112051307Y-54151751D01*
X112056674Y-54176426D01*
X112071212Y-54305455D01*
X112125210Y-54459774D01*
X112164466Y-54522249D01*
X112212192Y-54598204D01*
X112327796Y-54713808D01*
X112466225Y-54800789D01*
X112620539Y-54854786D01*
X112620542Y-54854786D01*
X112620544Y-54854787D01*
X112782996Y-54873091D01*
X112783000Y-54873091D01*
X112783004Y-54873091D01*
X112945455Y-54854787D01*
X112945456Y-54854786D01*
X112945461Y-54854786D01*
X113099775Y-54800789D01*
X113238204Y-54713808D01*
X113353808Y-54598204D01*
X113440789Y-54459775D01*
X113494786Y-54305461D01*
X113497068Y-54285210D01*
X113513091Y-54143003D01*
X113513091Y-54142996D01*
X113494787Y-53980544D01*
X113494786Y-53980542D01*
X113494786Y-53980539D01*
X113440789Y-53826225D01*
X113353808Y-53687796D01*
X113238204Y-53572192D01*
X113131993Y-53505455D01*
X113099774Y-53485210D01*
X112945455Y-53431212D01*
X112836263Y-53418909D01*
X112771849Y-53391842D01*
X112732294Y-53334247D01*
X112726927Y-53309572D01*
X112712389Y-53180544D01*
X112712388Y-53180542D01*
X112712388Y-53180539D01*
X112658391Y-53026225D01*
X112571410Y-52887796D01*
X112455806Y-52772192D01*
X112428105Y-52754786D01*
X112317376Y-52685210D01*
X112163057Y-52631212D01*
X112000606Y-52612909D01*
X112000598Y-52612909D01*
X111838146Y-52631212D01*
X111683827Y-52685210D01*
X111545397Y-52772192D01*
X111429794Y-52887795D01*
X111342812Y-53026225D01*
X111288814Y-53180544D01*
X111270511Y-53342996D01*
X101535308Y-53342996D01*
X101596954Y-53244887D01*
X101656533Y-53074620D01*
X101676730Y-52895365D01*
X101675877Y-52887796D01*
X101656534Y-52716115D01*
X101656533Y-52716110D01*
X101645721Y-52685210D01*
X101596954Y-52545843D01*
X101500981Y-52393103D01*
X101373427Y-52265549D01*
X101291082Y-52213808D01*
X101220688Y-52169576D01*
X101050419Y-52109996D01*
X101050414Y-52109995D01*
X100871169Y-52089800D01*
X100871161Y-52089800D01*
X100691915Y-52109995D01*
X100691910Y-52109996D01*
X100521641Y-52169576D01*
X100368902Y-52265549D01*
X100241349Y-52393102D01*
X100145376Y-52545841D01*
X100085796Y-52716110D01*
X100085795Y-52716115D01*
X100065600Y-52895361D01*
X83069547Y-52895361D01*
X83067811Y-52042996D01*
X97452909Y-52042996D01*
X97452909Y-52043003D01*
X97471212Y-52205455D01*
X97525210Y-52359774D01*
X97525211Y-52359775D01*
X97612192Y-52498204D01*
X97727796Y-52613808D01*
X97866225Y-52700789D01*
X98020539Y-52754786D01*
X98020542Y-52754786D01*
X98020544Y-52754787D01*
X98182996Y-52773091D01*
X98183000Y-52773091D01*
X98183004Y-52773091D01*
X98345455Y-52754787D01*
X98345456Y-52754786D01*
X98345461Y-52754786D01*
X98499775Y-52700789D01*
X98638204Y-52613808D01*
X98753808Y-52498204D01*
X98840789Y-52359775D01*
X98894786Y-52205461D01*
X98894787Y-52205455D01*
X98913091Y-52043003D01*
X98913091Y-52042996D01*
X98894787Y-51880544D01*
X98894786Y-51880542D01*
X98894786Y-51880539D01*
X98840789Y-51726225D01*
X98753808Y-51587796D01*
X98638204Y-51472192D01*
X98638201Y-51472190D01*
X98637688Y-51471781D01*
X98637440Y-51471428D01*
X98633280Y-51467268D01*
X98634008Y-51466539D01*
X98597548Y-51414592D01*
X98594698Y-51344780D01*
X98630044Y-51284511D01*
X98649025Y-51269842D01*
X98738204Y-51213808D01*
X98853808Y-51098204D01*
X98888498Y-51042996D01*
X106977435Y-51042996D01*
X106977435Y-51043003D01*
X106997630Y-51222249D01*
X106997631Y-51222254D01*
X107057211Y-51392523D01*
X107107271Y-51472192D01*
X107153184Y-51545262D01*
X107280738Y-51672816D01*
X107433478Y-51768789D01*
X107538281Y-51805461D01*
X107603745Y-51828368D01*
X107603750Y-51828369D01*
X107782996Y-51848565D01*
X107783000Y-51848565D01*
X107783004Y-51848565D01*
X107962249Y-51828369D01*
X107962252Y-51828368D01*
X107962255Y-51828368D01*
X108132522Y-51768789D01*
X108285262Y-51672816D01*
X108315082Y-51642996D01*
X114452909Y-51642996D01*
X114452909Y-51643003D01*
X114471212Y-51805455D01*
X114525210Y-51959774D01*
X114525211Y-51959775D01*
X114612192Y-52098204D01*
X114727796Y-52213808D01*
X114866225Y-52300789D01*
X115020539Y-52354786D01*
X115020542Y-52354786D01*
X115020544Y-52354787D01*
X115182996Y-52373091D01*
X115183000Y-52373091D01*
X115183004Y-52373091D01*
X115345455Y-52354787D01*
X115345456Y-52354786D01*
X115345461Y-52354786D01*
X115499775Y-52300789D01*
X115638204Y-52213808D01*
X115753808Y-52098204D01*
X115840789Y-51959775D01*
X115894786Y-51805461D01*
X115894787Y-51805455D01*
X115913091Y-51643003D01*
X115913091Y-51642996D01*
X115894787Y-51480544D01*
X115894786Y-51480542D01*
X115894786Y-51480539D01*
X115840789Y-51326225D01*
X115753808Y-51187796D01*
X115638204Y-51072192D01*
X115591750Y-51043003D01*
X115499774Y-50985210D01*
X115345455Y-50931212D01*
X115183004Y-50912909D01*
X115182996Y-50912909D01*
X115020544Y-50931212D01*
X114866225Y-50985210D01*
X114727795Y-51072192D01*
X114612192Y-51187795D01*
X114525210Y-51326225D01*
X114471212Y-51480544D01*
X114452909Y-51642996D01*
X108315082Y-51642996D01*
X108412816Y-51545262D01*
X108508789Y-51392522D01*
X108568368Y-51222255D01*
X108568765Y-51218732D01*
X108588565Y-51043003D01*
X108588565Y-51042996D01*
X108568369Y-50863750D01*
X108568368Y-50863745D01*
X108549435Y-50809638D01*
X108508789Y-50693478D01*
X108494287Y-50670399D01*
X108492777Y-50667996D01*
X109527909Y-50667996D01*
X109527909Y-50668003D01*
X109546212Y-50830455D01*
X109600210Y-50984774D01*
X109616949Y-51011414D01*
X109687192Y-51123204D01*
X109802796Y-51238808D01*
X109941225Y-51325789D01*
X110095539Y-51379786D01*
X110095542Y-51379786D01*
X110095544Y-51379787D01*
X110257996Y-51398091D01*
X110258000Y-51398091D01*
X110258004Y-51398091D01*
X110420455Y-51379787D01*
X110420456Y-51379786D01*
X110420461Y-51379786D01*
X110574775Y-51325789D01*
X110713204Y-51238808D01*
X110828808Y-51123204D01*
X110915789Y-50984775D01*
X110969786Y-50830461D01*
X110969787Y-50830455D01*
X110979641Y-50742996D01*
X112052909Y-50742996D01*
X112052909Y-50743003D01*
X112071212Y-50905455D01*
X112125210Y-51059774D01*
X112165066Y-51123204D01*
X112212192Y-51198204D01*
X112327796Y-51313808D01*
X112466225Y-51400789D01*
X112620539Y-51454786D01*
X112620542Y-51454786D01*
X112620544Y-51454787D01*
X112782996Y-51473091D01*
X112783000Y-51473091D01*
X112783004Y-51473091D01*
X112945455Y-51454787D01*
X112945456Y-51454786D01*
X112945461Y-51454786D01*
X113099775Y-51400789D01*
X113117027Y-51389948D01*
X113184263Y-51370948D01*
X113248972Y-51389948D01*
X113266225Y-51400789D01*
X113420539Y-51454786D01*
X113420542Y-51454786D01*
X113420544Y-51454787D01*
X113582996Y-51473091D01*
X113583000Y-51473091D01*
X113583004Y-51473091D01*
X113745455Y-51454787D01*
X113745456Y-51454786D01*
X113745461Y-51454786D01*
X113899775Y-51400789D01*
X114038204Y-51313808D01*
X114153808Y-51198204D01*
X114240789Y-51059775D01*
X114294786Y-50905461D01*
X114296190Y-50893000D01*
X114313091Y-50743003D01*
X114313091Y-50742996D01*
X114307457Y-50692996D01*
X115902909Y-50692996D01*
X115902909Y-50693003D01*
X115921212Y-50855455D01*
X115921213Y-50855460D01*
X115921214Y-50855461D01*
X115927346Y-50872984D01*
X115975210Y-51009774D01*
X116006628Y-51059775D01*
X116062192Y-51148204D01*
X116177796Y-51263808D01*
X116316225Y-51350789D01*
X116470539Y-51404786D01*
X116470542Y-51404786D01*
X116470544Y-51404787D01*
X116632996Y-51423091D01*
X116633000Y-51423091D01*
X116633004Y-51423091D01*
X116795455Y-51404787D01*
X116795456Y-51404786D01*
X116795461Y-51404786D01*
X116949775Y-51350789D01*
X116985749Y-51328185D01*
X117538098Y-51328185D01*
X117538098Y-51328192D01*
X117556401Y-51490644D01*
X117610399Y-51644963D01*
X117661460Y-51726225D01*
X117697381Y-51783393D01*
X117812985Y-51898997D01*
X117951414Y-51985978D01*
X118105728Y-52039975D01*
X118105731Y-52039975D01*
X118105733Y-52039976D01*
X118268185Y-52058280D01*
X118268189Y-52058280D01*
X118268193Y-52058280D01*
X118430644Y-52039976D01*
X118430645Y-52039975D01*
X118430650Y-52039975D01*
X118584964Y-51985978D01*
X118723393Y-51898997D01*
X118838997Y-51783393D01*
X118925978Y-51644964D01*
X118979975Y-51490650D01*
X118981114Y-51480544D01*
X118998280Y-51328192D01*
X118998280Y-51328185D01*
X118979976Y-51165733D01*
X118979975Y-51165731D01*
X118979975Y-51165728D01*
X118925978Y-51011414D01*
X118851571Y-50892996D01*
X121702909Y-50892996D01*
X121702909Y-50893003D01*
X121721212Y-51055455D01*
X121775210Y-51209774D01*
X121809162Y-51263808D01*
X121862192Y-51348204D01*
X121977796Y-51463808D01*
X122116225Y-51550789D01*
X122270539Y-51604786D01*
X122270542Y-51604786D01*
X122270544Y-51604787D01*
X122432996Y-51623091D01*
X122433000Y-51623091D01*
X122433004Y-51623091D01*
X122595455Y-51604787D01*
X122595456Y-51604786D01*
X122595461Y-51604786D01*
X122749775Y-51550789D01*
X122888204Y-51463808D01*
X123003808Y-51348204D01*
X123090789Y-51209775D01*
X123144786Y-51055461D01*
X123146190Y-51043000D01*
X123163091Y-50893003D01*
X123163091Y-50892997D01*
X123161453Y-50878460D01*
X123173507Y-50809638D01*
X123220856Y-50758258D01*
X123288467Y-50740634D01*
X123350646Y-50759583D01*
X123416225Y-50800789D01*
X123570539Y-50854786D01*
X123570542Y-50854786D01*
X123570544Y-50854787D01*
X123732996Y-50873091D01*
X123733000Y-50873091D01*
X123733004Y-50873091D01*
X123895455Y-50854787D01*
X123895456Y-50854786D01*
X123895461Y-50854786D01*
X124049775Y-50800789D01*
X124188204Y-50713808D01*
X124303808Y-50598204D01*
X124390789Y-50459775D01*
X124444786Y-50305461D01*
X124445924Y-50295365D01*
X124463091Y-50143003D01*
X124463091Y-50142996D01*
X124444787Y-49980544D01*
X124444786Y-49980542D01*
X124444786Y-49980539D01*
X124390789Y-49826225D01*
X124303808Y-49687796D01*
X124188204Y-49572192D01*
X124108730Y-49522255D01*
X124049774Y-49485210D01*
X123895455Y-49431212D01*
X123733004Y-49412909D01*
X123732996Y-49412909D01*
X123570544Y-49431212D01*
X123416225Y-49485210D01*
X123277795Y-49572192D01*
X123162192Y-49687795D01*
X123075210Y-49826225D01*
X123021212Y-49980544D01*
X123002909Y-50142996D01*
X123002909Y-50143001D01*
X123004547Y-50157544D01*
X122992489Y-50226366D01*
X122945138Y-50277743D01*
X122877527Y-50295365D01*
X122815354Y-50276417D01*
X122749774Y-50235210D01*
X122595455Y-50181212D01*
X122433004Y-50162909D01*
X122432996Y-50162909D01*
X122270544Y-50181212D01*
X122116225Y-50235210D01*
X121977795Y-50322192D01*
X121862192Y-50437795D01*
X121775210Y-50576225D01*
X121721212Y-50730544D01*
X121702909Y-50892996D01*
X118851571Y-50892996D01*
X118838997Y-50872985D01*
X118723393Y-50757381D01*
X118700506Y-50743000D01*
X118584963Y-50670399D01*
X118430644Y-50616401D01*
X118268193Y-50598098D01*
X118268185Y-50598098D01*
X118105733Y-50616401D01*
X117951414Y-50670399D01*
X117812984Y-50757381D01*
X117697381Y-50872984D01*
X117610399Y-51011414D01*
X117556401Y-51165733D01*
X117538098Y-51328185D01*
X116985749Y-51328185D01*
X117088204Y-51263808D01*
X117203808Y-51148204D01*
X117290789Y-51009775D01*
X117344786Y-50855461D01*
X117350420Y-50805461D01*
X117363091Y-50693003D01*
X117363091Y-50692996D01*
X117344787Y-50530544D01*
X117344786Y-50530542D01*
X117344786Y-50530539D01*
X117290789Y-50376225D01*
X117203808Y-50237796D01*
X117088204Y-50122192D01*
X117043526Y-50094119D01*
X116949774Y-50035210D01*
X116795455Y-49981212D01*
X116633004Y-49962909D01*
X116632996Y-49962909D01*
X116470544Y-49981212D01*
X116316225Y-50035210D01*
X116177795Y-50122192D01*
X116062192Y-50237795D01*
X115975210Y-50376225D01*
X115921212Y-50530544D01*
X115902909Y-50692996D01*
X114307457Y-50692996D01*
X114294787Y-50580544D01*
X114294786Y-50580542D01*
X114294786Y-50580539D01*
X114240789Y-50426225D01*
X114153808Y-50287796D01*
X114038204Y-50172192D01*
X113991747Y-50143001D01*
X113899774Y-50085210D01*
X113745455Y-50031212D01*
X113583004Y-50012909D01*
X113582996Y-50012909D01*
X113420544Y-50031212D01*
X113266223Y-50085211D01*
X113248968Y-50096053D01*
X113181731Y-50115051D01*
X113117032Y-50096053D01*
X113099776Y-50085211D01*
X112945455Y-50031212D01*
X112783004Y-50012909D01*
X112782996Y-50012909D01*
X112620544Y-50031212D01*
X112466225Y-50085210D01*
X112327795Y-50172192D01*
X112212192Y-50287795D01*
X112125210Y-50426225D01*
X112071212Y-50580544D01*
X112052909Y-50742996D01*
X110979641Y-50742996D01*
X110988091Y-50668003D01*
X110988091Y-50667996D01*
X110969787Y-50505544D01*
X110969786Y-50505542D01*
X110969786Y-50505539D01*
X110915789Y-50351225D01*
X110828808Y-50212796D01*
X110713204Y-50097192D01*
X110668001Y-50068789D01*
X110574774Y-50010210D01*
X110420455Y-49956212D01*
X110258004Y-49937909D01*
X110257996Y-49937909D01*
X110095544Y-49956212D01*
X109941225Y-50010210D01*
X109802795Y-50097192D01*
X109687192Y-50212795D01*
X109600210Y-50351225D01*
X109546212Y-50505544D01*
X109527909Y-50667996D01*
X108492777Y-50667996D01*
X108469582Y-50631080D01*
X108412816Y-50540738D01*
X108285262Y-50413184D01*
X108132523Y-50317211D01*
X107962254Y-50257631D01*
X107962249Y-50257630D01*
X107783004Y-50237435D01*
X107782996Y-50237435D01*
X107603750Y-50257630D01*
X107603745Y-50257631D01*
X107433476Y-50317211D01*
X107280737Y-50413184D01*
X107153184Y-50540737D01*
X107057211Y-50693476D01*
X106997631Y-50863745D01*
X106997630Y-50863750D01*
X106977435Y-51042996D01*
X98888498Y-51042996D01*
X98940789Y-50959775D01*
X98994786Y-50805461D01*
X98994787Y-50805455D01*
X99013091Y-50643003D01*
X99013091Y-50642996D01*
X98994787Y-50480544D01*
X98994786Y-50480542D01*
X98994786Y-50480539D01*
X98940789Y-50326225D01*
X98909492Y-50276417D01*
X98885225Y-50237796D01*
X98860143Y-50197879D01*
X98841143Y-50130643D01*
X98861510Y-50063808D01*
X98899163Y-50026915D01*
X98985262Y-49972816D01*
X99112816Y-49845262D01*
X99208789Y-49692522D01*
X99215958Y-49672035D01*
X99256680Y-49615258D01*
X99321633Y-49589511D01*
X99390194Y-49602967D01*
X99440597Y-49651354D01*
X99450042Y-49672035D01*
X99457210Y-49692521D01*
X99460781Y-49698204D01*
X99553184Y-49845262D01*
X99680738Y-49972816D01*
X99740250Y-50010210D01*
X99825550Y-50063808D01*
X99833478Y-50068789D01*
X99965687Y-50115051D01*
X100003745Y-50128368D01*
X100003750Y-50128369D01*
X100182996Y-50148565D01*
X100183000Y-50148565D01*
X100183004Y-50148565D01*
X100362249Y-50128369D01*
X100362252Y-50128368D01*
X100362255Y-50128368D01*
X100532522Y-50068789D01*
X100685262Y-49972816D01*
X100812816Y-49845262D01*
X100908789Y-49692522D01*
X100968368Y-49522255D01*
X100972542Y-49485210D01*
X100988565Y-49343003D01*
X100988565Y-49342996D01*
X100968369Y-49163750D01*
X100968368Y-49163745D01*
X100915958Y-49013966D01*
X100908789Y-48993478D01*
X100812816Y-48840738D01*
X100685262Y-48713184D01*
X100614608Y-48668789D01*
X100532523Y-48617211D01*
X100362254Y-48557631D01*
X100362249Y-48557630D01*
X100183004Y-48537435D01*
X100182996Y-48537435D01*
X100003750Y-48557630D01*
X100003745Y-48557631D01*
X99833476Y-48617211D01*
X99680737Y-48713184D01*
X99553184Y-48840737D01*
X99457209Y-48993479D01*
X99450041Y-49013966D01*
X99409319Y-49070741D01*
X99344366Y-49096488D01*
X99275804Y-49083031D01*
X99225402Y-49034643D01*
X99215959Y-49013966D01*
X99208790Y-48993479D01*
X99153480Y-48905455D01*
X99112816Y-48840738D01*
X98985262Y-48713184D01*
X98914608Y-48668789D01*
X98832523Y-48617211D01*
X98662254Y-48557631D01*
X98662249Y-48557630D01*
X98483004Y-48537435D01*
X98482996Y-48537435D01*
X98303750Y-48557630D01*
X98303745Y-48557631D01*
X98133476Y-48617211D01*
X97980737Y-48713184D01*
X97853184Y-48840737D01*
X97757211Y-48993476D01*
X97697631Y-49163745D01*
X97697630Y-49163750D01*
X97677435Y-49342996D01*
X97677435Y-49343003D01*
X97697630Y-49522249D01*
X97697631Y-49522254D01*
X97757211Y-49692523D01*
X97853184Y-49845262D01*
X97872801Y-49864879D01*
X97906286Y-49926202D01*
X97901302Y-49995894D01*
X97859430Y-50051827D01*
X97851093Y-50057553D01*
X97827798Y-50072190D01*
X97827795Y-50072192D01*
X97712192Y-50187795D01*
X97625210Y-50326225D01*
X97571212Y-50480544D01*
X97552909Y-50642996D01*
X97552909Y-50643003D01*
X97571212Y-50805455D01*
X97625210Y-50959774D01*
X97712192Y-51098204D01*
X97827795Y-51213807D01*
X97828309Y-51214217D01*
X97828553Y-51214565D01*
X97832720Y-51218732D01*
X97831990Y-51219461D01*
X97868451Y-51271405D01*
X97871302Y-51341216D01*
X97835957Y-51401487D01*
X97816971Y-51416158D01*
X97727798Y-51472190D01*
X97727795Y-51472192D01*
X97612192Y-51587795D01*
X97525210Y-51726225D01*
X97471212Y-51880544D01*
X97452909Y-52042996D01*
X83067811Y-52042996D01*
X83058544Y-47492996D01*
X89927435Y-47492996D01*
X89927435Y-47493003D01*
X89947630Y-47672249D01*
X89947631Y-47672254D01*
X90007211Y-47842523D01*
X90070347Y-47943003D01*
X90103184Y-47995262D01*
X90230738Y-48122816D01*
X90303302Y-48168411D01*
X90381235Y-48217380D01*
X90383478Y-48218789D01*
X90537878Y-48272816D01*
X90553745Y-48278368D01*
X90553750Y-48278369D01*
X90732996Y-48298565D01*
X90733000Y-48298565D01*
X90733004Y-48298565D01*
X90912249Y-48278369D01*
X90912252Y-48278368D01*
X90912255Y-48278368D01*
X91082522Y-48218789D01*
X91235262Y-48122816D01*
X91362816Y-47995262D01*
X91395657Y-47942996D01*
X100977435Y-47942996D01*
X100977435Y-47943003D01*
X100997630Y-48122249D01*
X100997631Y-48122254D01*
X101057211Y-48292523D01*
X101106519Y-48370995D01*
X101153184Y-48445262D01*
X101280738Y-48572816D01*
X101433478Y-48668789D01*
X101538281Y-48705461D01*
X101603745Y-48728368D01*
X101603750Y-48728369D01*
X101782996Y-48748565D01*
X101783000Y-48748565D01*
X101783004Y-48748565D01*
X101832430Y-48742996D01*
X112905409Y-48742996D01*
X112905409Y-48743003D01*
X112923712Y-48905455D01*
X112977710Y-49059774D01*
X113011662Y-49113808D01*
X113064692Y-49198204D01*
X113180296Y-49313808D01*
X113318725Y-49400789D01*
X113473039Y-49454786D01*
X113473042Y-49454786D01*
X113473044Y-49454787D01*
X113635496Y-49473091D01*
X113635500Y-49473091D01*
X113635504Y-49473091D01*
X113797955Y-49454787D01*
X113797956Y-49454786D01*
X113797961Y-49454786D01*
X113952275Y-49400789D01*
X114090704Y-49313808D01*
X114161516Y-49242996D01*
X114852909Y-49242996D01*
X114852909Y-49243003D01*
X114871212Y-49405455D01*
X114925210Y-49559774D01*
X114925211Y-49559775D01*
X115012192Y-49698204D01*
X115127796Y-49813808D01*
X115266225Y-49900789D01*
X115420539Y-49954786D01*
X115420542Y-49954786D01*
X115420544Y-49954787D01*
X115582996Y-49973091D01*
X115583000Y-49973091D01*
X115583004Y-49973091D01*
X115745455Y-49954787D01*
X115745456Y-49954786D01*
X115745461Y-49954786D01*
X115899775Y-49900789D01*
X116038204Y-49813808D01*
X116153808Y-49698204D01*
X116240789Y-49559775D01*
X116294786Y-49405461D01*
X116294787Y-49405455D01*
X116313091Y-49243003D01*
X116313091Y-49242996D01*
X116294787Y-49080544D01*
X116294786Y-49080542D01*
X116294786Y-49080539D01*
X116240789Y-48926225D01*
X116153808Y-48787796D01*
X116038204Y-48672192D01*
X115950703Y-48617211D01*
X115899774Y-48585210D01*
X115779134Y-48542996D01*
X131552909Y-48542996D01*
X131552909Y-48543003D01*
X131571212Y-48705455D01*
X131625210Y-48859774D01*
X131666964Y-48926225D01*
X131712192Y-48998204D01*
X131827796Y-49113808D01*
X131966225Y-49200789D01*
X132120539Y-49254786D01*
X132120542Y-49254786D01*
X132120544Y-49254787D01*
X132282996Y-49273091D01*
X132283000Y-49273091D01*
X132283004Y-49273091D01*
X132445455Y-49254787D01*
X132445456Y-49254786D01*
X132445461Y-49254786D01*
X132599775Y-49200789D01*
X132738204Y-49113808D01*
X132853808Y-48998204D01*
X132940789Y-48859775D01*
X132994786Y-48705461D01*
X132998918Y-48668788D01*
X133013091Y-48543003D01*
X133013091Y-48542996D01*
X132994787Y-48380544D01*
X132994786Y-48380542D01*
X132994786Y-48380539D01*
X132940789Y-48226225D01*
X132853808Y-48087796D01*
X132738204Y-47972192D01*
X132691750Y-47943003D01*
X132599774Y-47885210D01*
X132445455Y-47831212D01*
X132283004Y-47812909D01*
X132282996Y-47812909D01*
X132120544Y-47831212D01*
X131966225Y-47885210D01*
X131827795Y-47972192D01*
X131712192Y-48087795D01*
X131625210Y-48226225D01*
X131571212Y-48380544D01*
X131552909Y-48542996D01*
X115779134Y-48542996D01*
X115765939Y-48538379D01*
X115745461Y-48531214D01*
X115745460Y-48531213D01*
X115745455Y-48531212D01*
X115583004Y-48512909D01*
X115582996Y-48512909D01*
X115420544Y-48531212D01*
X115266225Y-48585210D01*
X115127795Y-48672192D01*
X115012192Y-48787795D01*
X114925210Y-48926225D01*
X114871212Y-49080544D01*
X114852909Y-49242996D01*
X114161516Y-49242996D01*
X114206308Y-49198204D01*
X114293289Y-49059775D01*
X114347286Y-48905461D01*
X114365591Y-48743000D01*
X114365591Y-48742996D01*
X114347287Y-48580542D01*
X114339270Y-48557630D01*
X114303096Y-48454254D01*
X114299535Y-48384477D01*
X114332457Y-48325619D01*
X114335256Y-48322819D01*
X114335262Y-48322816D01*
X114462816Y-48195262D01*
X114558789Y-48042522D01*
X114568339Y-48015226D01*
X114609058Y-47958452D01*
X114671497Y-47932959D01*
X114712255Y-47928368D01*
X114882522Y-47868789D01*
X115035262Y-47772816D01*
X115162816Y-47645262D01*
X115164240Y-47642996D01*
X117977435Y-47642996D01*
X117977435Y-47643003D01*
X117997630Y-47822249D01*
X117997631Y-47822254D01*
X118057211Y-47992523D01*
X118133419Y-48113807D01*
X118153184Y-48145262D01*
X118280738Y-48272816D01*
X118433478Y-48368789D01*
X118478312Y-48384477D01*
X118603745Y-48428368D01*
X118603750Y-48428369D01*
X118782996Y-48448565D01*
X118783000Y-48448565D01*
X118783004Y-48448565D01*
X118962249Y-48428369D01*
X118962252Y-48428368D01*
X118962255Y-48428368D01*
X119132522Y-48368789D01*
X119285262Y-48272816D01*
X119412816Y-48145262D01*
X119508789Y-47992522D01*
X119568368Y-47822255D01*
X119569421Y-47812909D01*
X119588565Y-47643003D01*
X119588565Y-47642997D01*
X119575250Y-47524823D01*
X119587304Y-47456001D01*
X119634654Y-47404621D01*
X119702264Y-47386997D01*
X119739418Y-47393896D01*
X119770539Y-47404786D01*
X119770543Y-47404786D01*
X119770545Y-47404787D01*
X119932996Y-47423091D01*
X119933000Y-47423091D01*
X119933004Y-47423091D01*
X120095457Y-47404787D01*
X120095459Y-47404786D01*
X120095461Y-47404786D01*
X120249775Y-47350789D01*
X120292030Y-47324237D01*
X120359263Y-47305238D01*
X120423969Y-47324237D01*
X120466225Y-47350789D01*
X120620068Y-47404621D01*
X120620542Y-47404787D01*
X120782996Y-47423091D01*
X120783000Y-47423091D01*
X120783004Y-47423091D01*
X120945455Y-47404787D01*
X120945456Y-47404786D01*
X120945461Y-47404786D01*
X121099775Y-47350789D01*
X121238204Y-47263808D01*
X121353808Y-47148204D01*
X121440789Y-47009775D01*
X121494786Y-46855461D01*
X121497518Y-46831214D01*
X121513091Y-46693003D01*
X121513091Y-46692996D01*
X121494787Y-46530544D01*
X121494786Y-46530542D01*
X121494786Y-46530539D01*
X121440789Y-46376225D01*
X121353808Y-46237796D01*
X121238204Y-46122192D01*
X121172266Y-46080760D01*
X121112172Y-46043000D01*
X132777540Y-46043000D01*
X132797326Y-46231256D01*
X132797327Y-46231259D01*
X132855818Y-46411277D01*
X132855821Y-46411284D01*
X132950467Y-46575216D01*
X133056523Y-46693003D01*
X133077129Y-46715888D01*
X133230265Y-46827148D01*
X133230270Y-46827151D01*
X133403192Y-46904142D01*
X133403197Y-46904144D01*
X133588354Y-46943500D01*
X133588355Y-46943500D01*
X133777644Y-46943500D01*
X133777646Y-46943500D01*
X133962803Y-46904144D01*
X134135730Y-46827151D01*
X134288871Y-46715888D01*
X134415533Y-46575216D01*
X134510179Y-46411284D01*
X134568674Y-46231256D01*
X134588460Y-46043000D01*
X134568674Y-45854744D01*
X134510179Y-45674716D01*
X134415533Y-45510784D01*
X134288871Y-45370112D01*
X134288870Y-45370111D01*
X134135734Y-45258851D01*
X134135729Y-45258848D01*
X133962807Y-45181857D01*
X133962802Y-45181855D01*
X133817001Y-45150865D01*
X133777646Y-45142500D01*
X133588354Y-45142500D01*
X133555897Y-45149398D01*
X133403197Y-45181855D01*
X133403192Y-45181857D01*
X133230270Y-45258848D01*
X133230265Y-45258851D01*
X133077129Y-45370111D01*
X132950466Y-45510785D01*
X132855821Y-45674715D01*
X132855818Y-45674722D01*
X132807882Y-45822255D01*
X132797326Y-45854744D01*
X132777540Y-46043000D01*
X121112172Y-46043000D01*
X121099774Y-46035210D01*
X120945455Y-45981212D01*
X120783004Y-45962909D01*
X120782996Y-45962909D01*
X120620544Y-45981212D01*
X120466225Y-46035210D01*
X120423972Y-46061760D01*
X120356735Y-46080760D01*
X120292028Y-46061760D01*
X120249774Y-46035210D01*
X120095455Y-45981212D01*
X119933004Y-45962909D01*
X119932996Y-45962909D01*
X119770544Y-45981212D01*
X119616225Y-46035210D01*
X119477795Y-46122192D01*
X119362192Y-46237795D01*
X119275210Y-46376225D01*
X119221212Y-46530544D01*
X119202909Y-46692996D01*
X119202909Y-46693003D01*
X119210001Y-46755949D01*
X119197946Y-46824771D01*
X119150597Y-46876150D01*
X119082987Y-46893774D01*
X119045827Y-46886874D01*
X118962257Y-46857632D01*
X118962249Y-46857630D01*
X118783004Y-46837435D01*
X118782996Y-46837435D01*
X118603750Y-46857630D01*
X118603745Y-46857631D01*
X118433476Y-46917211D01*
X118280737Y-47013184D01*
X118153184Y-47140737D01*
X118057211Y-47293476D01*
X117997631Y-47463745D01*
X117997630Y-47463750D01*
X117977435Y-47642996D01*
X115164240Y-47642996D01*
X115258789Y-47492522D01*
X115318368Y-47322255D01*
X115318369Y-47322249D01*
X115338565Y-47143003D01*
X115338565Y-47142996D01*
X115318369Y-46963750D01*
X115318368Y-46963745D01*
X115298733Y-46907632D01*
X115258789Y-46793478D01*
X115258786Y-46793474D01*
X115162815Y-46640737D01*
X115035262Y-46513184D01*
X114882523Y-46417211D01*
X114712254Y-46357631D01*
X114712249Y-46357630D01*
X114533004Y-46337435D01*
X114532996Y-46337435D01*
X114353750Y-46357630D01*
X114353745Y-46357631D01*
X114183476Y-46417211D01*
X114030737Y-46513184D01*
X113903184Y-46640737D01*
X113807212Y-46793474D01*
X113797659Y-46820776D01*
X113756936Y-46877551D01*
X113694502Y-46903039D01*
X113653750Y-46907630D01*
X113483478Y-46967210D01*
X113330737Y-47063184D01*
X113203184Y-47190737D01*
X113107211Y-47343476D01*
X113047631Y-47513745D01*
X113047630Y-47513750D01*
X113027435Y-47692996D01*
X113027435Y-47693003D01*
X113047630Y-47872249D01*
X113047633Y-47872262D01*
X113107209Y-48042518D01*
X113107211Y-48042522D01*
X113132838Y-48083308D01*
X113151838Y-48150545D01*
X113131470Y-48217380D01*
X113115527Y-48236960D01*
X113064691Y-48287797D01*
X112977710Y-48426225D01*
X112923712Y-48580544D01*
X112905409Y-48742996D01*
X101832430Y-48742996D01*
X101962249Y-48728369D01*
X101962252Y-48728368D01*
X101962255Y-48728368D01*
X102132522Y-48668789D01*
X102285262Y-48572816D01*
X102412816Y-48445262D01*
X102508789Y-48292522D01*
X102568368Y-48122255D01*
X102572251Y-48087795D01*
X102588565Y-47943003D01*
X102588565Y-47942996D01*
X102568369Y-47763750D01*
X102568368Y-47763745D01*
X102508789Y-47593478D01*
X102477069Y-47542996D01*
X109527909Y-47542996D01*
X109527909Y-47543003D01*
X109546212Y-47705455D01*
X109600210Y-47859774D01*
X109683622Y-47992522D01*
X109687192Y-47998204D01*
X109802796Y-48113808D01*
X109941225Y-48200789D01*
X110095539Y-48254786D01*
X110095542Y-48254786D01*
X110095544Y-48254787D01*
X110257996Y-48273091D01*
X110258000Y-48273091D01*
X110258004Y-48273091D01*
X110420455Y-48254787D01*
X110420456Y-48254786D01*
X110420461Y-48254786D01*
X110574775Y-48200789D01*
X110713204Y-48113808D01*
X110828808Y-47998204D01*
X110915789Y-47859775D01*
X110969786Y-47705461D01*
X110971190Y-47693000D01*
X110988091Y-47543003D01*
X110988091Y-47542996D01*
X110969787Y-47380544D01*
X110969786Y-47380542D01*
X110969786Y-47380539D01*
X110915789Y-47226225D01*
X110828808Y-47087796D01*
X110713204Y-46972192D01*
X110604907Y-46904144D01*
X110574774Y-46885210D01*
X110440939Y-46838379D01*
X110420461Y-46831214D01*
X110420460Y-46831213D01*
X110420455Y-46831212D01*
X110258004Y-46812909D01*
X110257996Y-46812909D01*
X110095544Y-46831212D01*
X109941225Y-46885210D01*
X109802795Y-46972192D01*
X109687192Y-47087795D01*
X109600210Y-47226225D01*
X109546212Y-47380544D01*
X109527909Y-47542996D01*
X102477069Y-47542996D01*
X102412816Y-47440738D01*
X102285262Y-47313184D01*
X102206681Y-47263808D01*
X102132523Y-47217211D01*
X101962254Y-47157631D01*
X101962249Y-47157630D01*
X101783004Y-47137435D01*
X101782996Y-47137435D01*
X101603750Y-47157630D01*
X101603745Y-47157631D01*
X101433476Y-47217211D01*
X101280737Y-47313184D01*
X101153184Y-47440737D01*
X101057211Y-47593476D01*
X100997631Y-47763745D01*
X100997630Y-47763750D01*
X100977435Y-47942996D01*
X91395657Y-47942996D01*
X91458789Y-47842522D01*
X91518368Y-47672255D01*
X91518369Y-47672249D01*
X91538565Y-47493003D01*
X91538565Y-47492996D01*
X91518369Y-47313750D01*
X91518368Y-47313745D01*
X91475326Y-47190738D01*
X91458789Y-47143478D01*
X91457067Y-47140738D01*
X91408337Y-47063184D01*
X91362816Y-46990738D01*
X91235262Y-46863184D01*
X91226426Y-46857632D01*
X91082523Y-46767211D01*
X90912254Y-46707631D01*
X90912249Y-46707630D01*
X90733004Y-46687435D01*
X90732996Y-46687435D01*
X90553750Y-46707630D01*
X90553745Y-46707631D01*
X90383476Y-46767211D01*
X90230737Y-46863184D01*
X90103184Y-46990737D01*
X90007211Y-47143476D01*
X89947631Y-47313745D01*
X89947630Y-47313750D01*
X89927435Y-47492996D01*
X83058544Y-47492996D01*
X83054471Y-45492996D01*
X89827435Y-45492996D01*
X89827435Y-45493003D01*
X89847630Y-45672249D01*
X89847631Y-45672254D01*
X89907211Y-45842523D01*
X89982855Y-45962909D01*
X90003184Y-45995262D01*
X90130738Y-46122816D01*
X90283478Y-46218789D01*
X90437878Y-46272816D01*
X90453745Y-46278368D01*
X90453750Y-46278369D01*
X90632996Y-46298565D01*
X90633000Y-46298565D01*
X90633004Y-46298565D01*
X90812249Y-46278369D01*
X90812252Y-46278368D01*
X90812255Y-46278368D01*
X90982522Y-46218789D01*
X91135262Y-46122816D01*
X91262816Y-45995262D01*
X91358789Y-45842522D01*
X91418368Y-45672255D01*
X91418369Y-45672249D01*
X91438565Y-45493003D01*
X91438565Y-45492996D01*
X91418369Y-45313750D01*
X91418368Y-45313745D01*
X91399159Y-45258848D01*
X91358789Y-45143478D01*
X91358174Y-45142500D01*
X91292158Y-45037435D01*
X91262816Y-44990738D01*
X91135262Y-44863184D01*
X90982523Y-44767211D01*
X90812254Y-44707631D01*
X90812249Y-44707630D01*
X90633004Y-44687435D01*
X90632996Y-44687435D01*
X90453750Y-44707630D01*
X90453745Y-44707631D01*
X90283476Y-44767211D01*
X90130737Y-44863184D01*
X90003184Y-44990737D01*
X89907211Y-45143476D01*
X89847631Y-45313745D01*
X89847630Y-45313750D01*
X89827435Y-45492996D01*
X83054471Y-45492996D01*
X83052129Y-44342996D01*
X85452909Y-44342996D01*
X85452909Y-44343003D01*
X85471212Y-44505455D01*
X85525210Y-44659774D01*
X85592718Y-44767211D01*
X85612192Y-44798204D01*
X85727796Y-44913808D01*
X85866225Y-45000789D01*
X86020539Y-45054786D01*
X86020542Y-45054786D01*
X86020544Y-45054787D01*
X86182996Y-45073091D01*
X86183000Y-45073091D01*
X86183004Y-45073091D01*
X86345455Y-45054787D01*
X86345456Y-45054786D01*
X86345461Y-45054786D01*
X86499775Y-45000789D01*
X86638204Y-44913808D01*
X86753808Y-44798204D01*
X86840789Y-44659775D01*
X86894786Y-44505461D01*
X86894787Y-44505455D01*
X86901824Y-44442996D01*
X95877435Y-44442996D01*
X95877435Y-44443003D01*
X95897630Y-44622249D01*
X95897631Y-44622254D01*
X95957211Y-44792523D01*
X96053184Y-44945262D01*
X96063241Y-44955319D01*
X96096726Y-45016642D01*
X96091742Y-45086334D01*
X96063241Y-45130681D01*
X96053184Y-45140737D01*
X95957211Y-45293476D01*
X95897631Y-45463745D01*
X95897630Y-45463750D01*
X95877435Y-45642996D01*
X95877435Y-45643003D01*
X95897630Y-45822249D01*
X95897631Y-45822254D01*
X95957211Y-45992523D01*
X96026763Y-46103213D01*
X96053184Y-46145262D01*
X96180738Y-46272816D01*
X96271080Y-46329582D01*
X96315721Y-46357632D01*
X96333478Y-46368789D01*
X96454902Y-46411277D01*
X96503745Y-46428368D01*
X96503750Y-46428369D01*
X96682996Y-46448565D01*
X96683000Y-46448565D01*
X96683004Y-46448565D01*
X96862249Y-46428369D01*
X96862252Y-46428368D01*
X96862255Y-46428368D01*
X97032522Y-46368789D01*
X97185262Y-46272816D01*
X97312816Y-46145262D01*
X97408789Y-45992522D01*
X97461110Y-45842996D01*
X115777435Y-45842996D01*
X115777435Y-45843003D01*
X115797630Y-46022249D01*
X115797631Y-46022254D01*
X115857211Y-46192523D01*
X115911152Y-46278369D01*
X115953184Y-46345262D01*
X116080738Y-46472816D01*
X116233478Y-46568789D01*
X116403745Y-46628368D01*
X116403750Y-46628369D01*
X116582996Y-46648565D01*
X116583000Y-46648565D01*
X116583004Y-46648565D01*
X116762249Y-46628369D01*
X116762252Y-46628368D01*
X116762255Y-46628368D01*
X116932522Y-46568789D01*
X117085262Y-46472816D01*
X117212816Y-46345262D01*
X117308789Y-46192522D01*
X117368368Y-46022255D01*
X117368369Y-46022249D01*
X117388565Y-45843003D01*
X117388565Y-45842996D01*
X117368369Y-45663750D01*
X117368368Y-45663745D01*
X117314845Y-45510785D01*
X117308789Y-45493478D01*
X117290106Y-45463745D01*
X117236461Y-45378369D01*
X117212816Y-45340738D01*
X117085262Y-45213184D01*
X116932523Y-45117211D01*
X116762254Y-45057631D01*
X116762249Y-45057630D01*
X116583004Y-45037435D01*
X116582996Y-45037435D01*
X116403750Y-45057630D01*
X116403745Y-45057631D01*
X116233476Y-45117211D01*
X116080737Y-45213184D01*
X115953184Y-45340737D01*
X115857211Y-45493476D01*
X115797631Y-45663745D01*
X115797630Y-45663750D01*
X115777435Y-45842996D01*
X97461110Y-45842996D01*
X97468368Y-45822255D01*
X97484991Y-45674722D01*
X97488565Y-45643003D01*
X97488565Y-45642996D01*
X97468369Y-45463750D01*
X97468368Y-45463745D01*
X97408789Y-45293478D01*
X97387031Y-45258851D01*
X97338652Y-45181856D01*
X97312816Y-45140738D01*
X97302759Y-45130681D01*
X97269274Y-45069358D01*
X97274258Y-44999666D01*
X97302759Y-44955319D01*
X97312816Y-44945262D01*
X97408789Y-44792522D01*
X97468368Y-44622255D01*
X97471664Y-44593003D01*
X97471665Y-44592996D01*
X99477435Y-44592996D01*
X99477435Y-44593003D01*
X99497630Y-44772249D01*
X99497631Y-44772254D01*
X99557211Y-44942523D01*
X99627751Y-45054786D01*
X99653184Y-45095262D01*
X99780738Y-45222816D01*
X99871080Y-45279582D01*
X99925450Y-45313745D01*
X99933478Y-45318789D01*
X99996202Y-45340737D01*
X100103745Y-45378368D01*
X100103750Y-45378369D01*
X100282996Y-45398565D01*
X100283000Y-45398565D01*
X100283004Y-45398565D01*
X100462249Y-45378369D01*
X100462252Y-45378368D01*
X100462255Y-45378368D01*
X100632522Y-45318789D01*
X100785262Y-45222816D01*
X100912816Y-45095262D01*
X101008789Y-44942522D01*
X101068368Y-44772255D01*
X101068369Y-44772249D01*
X101088565Y-44593003D01*
X101088565Y-44592996D01*
X101068369Y-44413750D01*
X101068368Y-44413745D01*
X101015882Y-44263750D01*
X101008789Y-44243478D01*
X100912816Y-44090738D01*
X100785262Y-43963184D01*
X100632523Y-43867211D01*
X100462254Y-43807631D01*
X100462249Y-43807630D01*
X100283004Y-43787435D01*
X100282996Y-43787435D01*
X100103750Y-43807630D01*
X100103745Y-43807631D01*
X99933476Y-43867211D01*
X99780737Y-43963184D01*
X99653184Y-44090737D01*
X99557211Y-44243476D01*
X99497631Y-44413745D01*
X99497630Y-44413750D01*
X99477435Y-44592996D01*
X97471665Y-44592996D01*
X97488565Y-44443003D01*
X97488565Y-44442996D01*
X97468369Y-44263750D01*
X97468368Y-44263745D01*
X97408788Y-44093476D01*
X97366531Y-44026225D01*
X97312816Y-43940738D01*
X97185262Y-43813184D01*
X97176426Y-43807632D01*
X97032523Y-43717211D01*
X96862254Y-43657631D01*
X96862249Y-43657630D01*
X96683004Y-43637435D01*
X96682996Y-43637435D01*
X96503750Y-43657630D01*
X96503745Y-43657631D01*
X96333476Y-43717211D01*
X96180737Y-43813184D01*
X96053184Y-43940737D01*
X95957211Y-44093476D01*
X95897631Y-44263745D01*
X95897630Y-44263750D01*
X95877435Y-44442996D01*
X86901824Y-44442996D01*
X86913091Y-44343003D01*
X86913091Y-44342996D01*
X86894787Y-44180544D01*
X86894786Y-44180542D01*
X86894786Y-44180539D01*
X86840789Y-44026225D01*
X86753808Y-43887796D01*
X86638204Y-43772192D01*
X86550703Y-43717211D01*
X86499774Y-43685210D01*
X86365939Y-43638379D01*
X86345461Y-43631214D01*
X86345460Y-43631213D01*
X86345455Y-43631212D01*
X86183004Y-43612909D01*
X86182996Y-43612909D01*
X86020544Y-43631212D01*
X85866225Y-43685210D01*
X85727795Y-43772192D01*
X85612192Y-43887795D01*
X85525210Y-44026225D01*
X85471212Y-44180544D01*
X85452909Y-44342996D01*
X83052129Y-44342996D01*
X83049503Y-43053406D01*
X83066465Y-42990555D01*
X83321062Y-42555268D01*
X83322986Y-42552090D01*
X83894204Y-41640525D01*
X83896497Y-41637004D01*
X84499018Y-40746105D01*
X84501439Y-40742658D01*
X85134621Y-39873356D01*
X85137194Y-39869950D01*
X85351747Y-39595996D01*
X87930415Y-39595996D01*
X87930415Y-39596003D01*
X87950738Y-39944927D01*
X87950739Y-39944938D01*
X88011428Y-40289127D01*
X88011430Y-40289134D01*
X88111674Y-40623972D01*
X88250107Y-40944895D01*
X88250113Y-40944908D01*
X88424870Y-41247597D01*
X88633584Y-41527949D01*
X88633589Y-41527955D01*
X88736472Y-41637004D01*
X88873442Y-41782183D01*
X89049903Y-41930251D01*
X89141186Y-42006847D01*
X89141194Y-42006853D01*
X89433203Y-42198911D01*
X89433207Y-42198913D01*
X89745549Y-42355777D01*
X90073989Y-42475319D01*
X90414086Y-42555923D01*
X90761241Y-42596500D01*
X90761248Y-42596500D01*
X91110752Y-42596500D01*
X91110759Y-42596500D01*
X91457914Y-42555923D01*
X91798011Y-42475319D01*
X92126451Y-42355777D01*
X92438793Y-42198913D01*
X92730811Y-42006849D01*
X92998558Y-41782183D01*
X93238412Y-41527953D01*
X93447130Y-41247596D01*
X93621889Y-40944904D01*
X93760326Y-40623971D01*
X93860569Y-40289136D01*
X93868704Y-40243003D01*
X93868705Y-40242996D01*
X99077435Y-40242996D01*
X99077435Y-40243003D01*
X99097630Y-40422249D01*
X99097631Y-40422254D01*
X99157211Y-40592523D01*
X99176972Y-40623972D01*
X99253184Y-40745262D01*
X99380738Y-40872816D01*
X99437005Y-40908171D01*
X99495471Y-40944908D01*
X99533478Y-40968789D01*
X99544984Y-40972815D01*
X99703745Y-41028368D01*
X99703750Y-41028369D01*
X99882996Y-41048565D01*
X99883000Y-41048565D01*
X99883004Y-41048565D01*
X100062249Y-41028369D01*
X100062252Y-41028368D01*
X100062255Y-41028368D01*
X100232522Y-40968789D01*
X100298756Y-40927170D01*
X100365988Y-40908171D01*
X100432823Y-40928538D01*
X100452406Y-40944484D01*
X100480738Y-40972816D01*
X100569148Y-41028368D01*
X100625450Y-41063745D01*
X100633478Y-41068789D01*
X100803745Y-41128368D01*
X100803750Y-41128369D01*
X100982996Y-41148565D01*
X100983000Y-41148565D01*
X100983004Y-41148565D01*
X101162249Y-41128369D01*
X101162252Y-41128368D01*
X101162255Y-41128368D01*
X101332522Y-41068789D01*
X101485262Y-40972816D01*
X101612816Y-40845262D01*
X101708789Y-40692522D01*
X101761110Y-40542996D01*
X115477435Y-40542996D01*
X115477435Y-40543003D01*
X115497630Y-40722249D01*
X115497631Y-40722254D01*
X115557211Y-40892523D01*
X115605133Y-40968790D01*
X115653184Y-41045262D01*
X115780738Y-41172816D01*
X115871080Y-41229582D01*
X115899749Y-41247596D01*
X115933478Y-41268789D01*
X116103745Y-41328368D01*
X116103750Y-41328369D01*
X116282996Y-41348565D01*
X116283000Y-41348565D01*
X116283004Y-41348565D01*
X116462249Y-41328369D01*
X116462252Y-41328368D01*
X116462255Y-41328368D01*
X116632522Y-41268789D01*
X116673571Y-41242996D01*
X122677435Y-41242996D01*
X122677435Y-41243003D01*
X122697630Y-41422249D01*
X122697631Y-41422254D01*
X122757211Y-41592523D01*
X122787373Y-41640525D01*
X122853184Y-41745262D01*
X122980738Y-41872816D01*
X123133478Y-41968789D01*
X123242259Y-42006853D01*
X123303745Y-42028368D01*
X123303750Y-42028369D01*
X123482996Y-42048565D01*
X123483000Y-42048565D01*
X123483004Y-42048565D01*
X123662249Y-42028369D01*
X123662252Y-42028368D01*
X123662255Y-42028368D01*
X123832522Y-41968789D01*
X123985262Y-41872816D01*
X124112816Y-41745262D01*
X124208789Y-41592522D01*
X124268368Y-41422255D01*
X124276671Y-41348565D01*
X124288565Y-41243003D01*
X124288565Y-41242996D01*
X124268369Y-41063750D01*
X124268368Y-41063745D01*
X124263056Y-41048565D01*
X124208789Y-40893478D01*
X124208188Y-40892522D01*
X124116188Y-40746105D01*
X124112816Y-40740738D01*
X123985262Y-40613184D01*
X123873570Y-40543003D01*
X123832523Y-40517211D01*
X123662254Y-40457631D01*
X123662249Y-40457630D01*
X123483004Y-40437435D01*
X123482996Y-40437435D01*
X123303750Y-40457630D01*
X123303745Y-40457631D01*
X123133476Y-40517211D01*
X122980737Y-40613184D01*
X122853184Y-40740737D01*
X122757211Y-40893476D01*
X122697631Y-41063745D01*
X122697630Y-41063750D01*
X122677435Y-41242996D01*
X116673571Y-41242996D01*
X116785262Y-41172816D01*
X116912816Y-41045262D01*
X117008789Y-40892522D01*
X117068368Y-40722255D01*
X117079442Y-40623971D01*
X117088565Y-40543003D01*
X117088565Y-40542996D01*
X117068369Y-40363750D01*
X117068368Y-40363745D01*
X117042258Y-40289127D01*
X117008789Y-40193478D01*
X116990106Y-40163745D01*
X116912815Y-40040737D01*
X116785262Y-39913184D01*
X116632523Y-39817211D01*
X116462254Y-39757631D01*
X116462249Y-39757630D01*
X116283004Y-39737435D01*
X116282996Y-39737435D01*
X116103750Y-39757630D01*
X116103745Y-39757631D01*
X115933476Y-39817211D01*
X115780737Y-39913184D01*
X115653184Y-40040737D01*
X115557211Y-40193476D01*
X115497631Y-40363745D01*
X115497630Y-40363750D01*
X115477435Y-40542996D01*
X101761110Y-40542996D01*
X101768368Y-40522255D01*
X101768369Y-40522249D01*
X101788565Y-40343003D01*
X101788565Y-40342996D01*
X101768369Y-40163750D01*
X101768368Y-40163745D01*
X101725326Y-40040738D01*
X101708789Y-39993478D01*
X101612816Y-39840738D01*
X101485262Y-39713184D01*
X101421017Y-39672816D01*
X101332523Y-39617211D01*
X101271894Y-39595996D01*
X125824415Y-39595996D01*
X125824415Y-39596003D01*
X125844738Y-39944927D01*
X125844739Y-39944938D01*
X125905428Y-40289127D01*
X125905430Y-40289134D01*
X126005674Y-40623972D01*
X126144107Y-40944895D01*
X126144113Y-40944908D01*
X126318870Y-41247597D01*
X126527584Y-41527949D01*
X126527589Y-41527955D01*
X126630472Y-41637004D01*
X126767442Y-41782183D01*
X126943903Y-41930251D01*
X127035186Y-42006847D01*
X127035194Y-42006853D01*
X127327203Y-42198911D01*
X127327207Y-42198913D01*
X127639549Y-42355777D01*
X127967989Y-42475319D01*
X128308086Y-42555923D01*
X128655241Y-42596500D01*
X128655248Y-42596500D01*
X129004752Y-42596500D01*
X129004759Y-42596500D01*
X129351914Y-42555923D01*
X129692011Y-42475319D01*
X130020451Y-42355777D01*
X130332793Y-42198913D01*
X130624811Y-42006849D01*
X130892558Y-41782183D01*
X131132412Y-41527953D01*
X131341130Y-41247596D01*
X131515889Y-40944904D01*
X131654326Y-40623971D01*
X131754569Y-40289136D01*
X131762704Y-40243003D01*
X131815260Y-39944938D01*
X131815259Y-39944938D01*
X131815262Y-39944927D01*
X131832934Y-39641514D01*
X131835585Y-39596003D01*
X131835585Y-39595996D01*
X131826349Y-39437435D01*
X131815262Y-39247073D01*
X131785683Y-39079320D01*
X131754571Y-38902872D01*
X131754569Y-38902865D01*
X131742859Y-38863750D01*
X131654326Y-38568029D01*
X131515889Y-38247096D01*
X131341130Y-37944404D01*
X131341129Y-37944402D01*
X131132415Y-37664050D01*
X131132410Y-37664044D01*
X130980110Y-37502617D01*
X130892558Y-37409817D01*
X130744488Y-37285572D01*
X130624813Y-37185152D01*
X130624805Y-37185146D01*
X130332796Y-36993088D01*
X130020458Y-36836226D01*
X130020452Y-36836223D01*
X129692012Y-36716681D01*
X129692009Y-36716680D01*
X129351915Y-36636077D01*
X129308519Y-36631004D01*
X129004759Y-36595500D01*
X128655241Y-36595500D01*
X128351480Y-36631004D01*
X128308085Y-36636077D01*
X128308083Y-36636077D01*
X127967990Y-36716680D01*
X127967987Y-36716681D01*
X127639547Y-36836223D01*
X127639541Y-36836226D01*
X127327203Y-36993088D01*
X127035194Y-37185146D01*
X127035186Y-37185152D01*
X126767442Y-37409817D01*
X126767440Y-37409819D01*
X126527589Y-37664044D01*
X126527584Y-37664050D01*
X126318870Y-37944402D01*
X126144113Y-38247091D01*
X126144107Y-38247104D01*
X126005674Y-38568027D01*
X125905430Y-38902865D01*
X125905428Y-38902872D01*
X125844739Y-39247061D01*
X125844738Y-39247072D01*
X125824415Y-39595996D01*
X101271894Y-39595996D01*
X101162254Y-39557631D01*
X101162249Y-39557630D01*
X100983004Y-39537435D01*
X100982996Y-39537435D01*
X100803750Y-39557630D01*
X100803737Y-39557633D01*
X100633481Y-39617209D01*
X100633472Y-39617213D01*
X100567244Y-39658827D01*
X100500007Y-39677827D01*
X100433172Y-39657459D01*
X100413592Y-39641514D01*
X100385262Y-39613184D01*
X100232523Y-39517211D01*
X100062254Y-39457631D01*
X100062249Y-39457630D01*
X99883004Y-39437435D01*
X99882996Y-39437435D01*
X99703750Y-39457630D01*
X99703745Y-39457631D01*
X99533476Y-39517211D01*
X99380737Y-39613184D01*
X99253184Y-39740737D01*
X99157211Y-39893476D01*
X99097631Y-40063745D01*
X99097630Y-40063750D01*
X99077435Y-40242996D01*
X93868705Y-40242996D01*
X93921260Y-39944938D01*
X93921259Y-39944938D01*
X93921262Y-39944927D01*
X93938934Y-39641514D01*
X93941585Y-39596003D01*
X93941585Y-39595996D01*
X93932349Y-39437435D01*
X93921262Y-39247073D01*
X93891683Y-39079320D01*
X93885278Y-39042996D01*
X96277435Y-39042996D01*
X96277435Y-39043003D01*
X96297630Y-39222249D01*
X96297631Y-39222254D01*
X96357211Y-39392523D01*
X96398122Y-39457632D01*
X96453184Y-39545262D01*
X96580738Y-39672816D01*
X96644983Y-39713184D01*
X96715721Y-39757632D01*
X96733478Y-39768789D01*
X96871860Y-39817211D01*
X96903745Y-39828368D01*
X96903750Y-39828369D01*
X97082996Y-39848565D01*
X97083000Y-39848565D01*
X97083004Y-39848565D01*
X97262249Y-39828369D01*
X97262252Y-39828368D01*
X97262255Y-39828368D01*
X97432522Y-39768789D01*
X97585262Y-39672816D01*
X97712816Y-39545262D01*
X97808789Y-39392522D01*
X97868368Y-39222255D01*
X97888565Y-39043000D01*
X97886342Y-39023272D01*
X97868369Y-38863750D01*
X97868368Y-38863745D01*
X97808788Y-38693476D01*
X97712815Y-38540737D01*
X97585262Y-38413184D01*
X97432523Y-38317211D01*
X97262254Y-38257631D01*
X97262249Y-38257630D01*
X97083004Y-38237435D01*
X97082996Y-38237435D01*
X96903750Y-38257630D01*
X96903745Y-38257631D01*
X96733476Y-38317211D01*
X96580737Y-38413184D01*
X96453184Y-38540737D01*
X96357211Y-38693476D01*
X96297631Y-38863745D01*
X96297630Y-38863750D01*
X96277435Y-39042996D01*
X93885278Y-39042996D01*
X93860571Y-38902872D01*
X93860569Y-38902865D01*
X93848859Y-38863750D01*
X93760326Y-38568029D01*
X93621889Y-38247096D01*
X93447130Y-37944404D01*
X93447129Y-37944402D01*
X93238415Y-37664050D01*
X93238410Y-37664044D01*
X93086110Y-37502617D01*
X92998558Y-37409817D01*
X92850488Y-37285572D01*
X92730813Y-37185152D01*
X92730805Y-37185146D01*
X92438796Y-36993088D01*
X92126458Y-36836226D01*
X92126452Y-36836223D01*
X91798012Y-36716681D01*
X91798009Y-36716680D01*
X91457915Y-36636077D01*
X91414519Y-36631004D01*
X91110759Y-36595500D01*
X90761241Y-36595500D01*
X90457480Y-36631004D01*
X90414085Y-36636077D01*
X90414083Y-36636077D01*
X90073990Y-36716680D01*
X90073987Y-36716681D01*
X89745547Y-36836223D01*
X89745541Y-36836226D01*
X89433203Y-36993088D01*
X89141194Y-37185146D01*
X89141186Y-37185152D01*
X88873442Y-37409817D01*
X88873440Y-37409819D01*
X88633589Y-37664044D01*
X88633584Y-37664050D01*
X88424870Y-37944402D01*
X88250113Y-38247091D01*
X88250107Y-38247104D01*
X88111674Y-38568027D01*
X88011430Y-38902865D01*
X88011428Y-38902872D01*
X87950739Y-39247061D01*
X87950738Y-39247072D01*
X87930415Y-39595996D01*
X85351747Y-39595996D01*
X85800288Y-39023272D01*
X85802976Y-39019959D01*
X86495229Y-38196867D01*
X86498003Y-38193684D01*
X87218509Y-37395256D01*
X87221406Y-37392156D01*
X87969323Y-36619323D01*
X87972309Y-36616343D01*
X88255954Y-36342999D01*
X94977357Y-36342999D01*
X94977357Y-36343000D01*
X94997884Y-36564535D01*
X94997885Y-36564537D01*
X95058769Y-36778523D01*
X95058775Y-36778538D01*
X95157938Y-36977683D01*
X95157943Y-36977691D01*
X95292020Y-37155238D01*
X95456437Y-37305123D01*
X95456439Y-37305125D01*
X95645595Y-37422245D01*
X95645596Y-37422245D01*
X95645599Y-37422247D01*
X95853060Y-37502618D01*
X96071757Y-37543500D01*
X96071759Y-37543500D01*
X96294241Y-37543500D01*
X96294243Y-37543500D01*
X96512940Y-37502618D01*
X96720401Y-37422247D01*
X96909562Y-37305124D01*
X97073981Y-37155236D01*
X97208058Y-36977689D01*
X97307229Y-36778528D01*
X97368115Y-36564536D01*
X97388643Y-36343000D01*
X97379376Y-36242996D01*
X110277435Y-36242996D01*
X110277435Y-36243003D01*
X110297630Y-36422249D01*
X110297631Y-36422254D01*
X110357211Y-36592523D01*
X110374051Y-36619323D01*
X110453184Y-36745262D01*
X110580738Y-36872816D01*
X110733478Y-36968789D01*
X110802918Y-36993087D01*
X110903745Y-37028368D01*
X110903750Y-37028369D01*
X111082996Y-37048565D01*
X111083000Y-37048565D01*
X111083004Y-37048565D01*
X111262249Y-37028369D01*
X111262252Y-37028368D01*
X111262255Y-37028368D01*
X111432522Y-36968789D01*
X111585262Y-36872816D01*
X111712816Y-36745262D01*
X111808789Y-36592522D01*
X111868368Y-36422255D01*
X111888565Y-36243000D01*
X111874871Y-36121464D01*
X111868369Y-36063750D01*
X111868368Y-36063745D01*
X111813687Y-35907476D01*
X111808789Y-35893478D01*
X111712816Y-35740738D01*
X111585262Y-35613184D01*
X111432523Y-35517211D01*
X111262254Y-35457631D01*
X111262249Y-35457630D01*
X111083004Y-35437435D01*
X111082996Y-35437435D01*
X110903750Y-35457630D01*
X110903745Y-35457631D01*
X110733476Y-35517211D01*
X110580737Y-35613184D01*
X110453184Y-35740737D01*
X110357211Y-35893476D01*
X110297631Y-36063745D01*
X110297630Y-36063750D01*
X110277435Y-36242996D01*
X97379376Y-36242996D01*
X97368115Y-36121464D01*
X97307229Y-35907472D01*
X97288583Y-35870026D01*
X97208061Y-35708316D01*
X97208056Y-35708308D01*
X97073979Y-35530761D01*
X96909562Y-35380876D01*
X96909560Y-35380874D01*
X96720404Y-35263754D01*
X96720398Y-35263751D01*
X96555477Y-35199861D01*
X96525784Y-35188358D01*
X96470385Y-35145786D01*
X96446794Y-35080019D01*
X96462505Y-35011939D01*
X96512529Y-34963160D01*
X96525786Y-34957105D01*
X96720177Y-34881798D01*
X96720178Y-34881797D01*
X96836327Y-34809880D01*
X96229447Y-34203000D01*
X96235661Y-34203000D01*
X96337394Y-34175741D01*
X96428606Y-34123080D01*
X96503080Y-34048606D01*
X96555741Y-33957394D01*
X96583000Y-33855661D01*
X96583000Y-33849446D01*
X97191860Y-34458306D01*
X97191861Y-34458306D01*
X97207631Y-34437425D01*
X97207632Y-34437422D01*
X97306759Y-34238350D01*
X97367621Y-34024439D01*
X97388141Y-33803000D01*
X97388141Y-33802999D01*
X97367621Y-33581560D01*
X97306759Y-33367649D01*
X97207633Y-33168577D01*
X97207631Y-33168574D01*
X97191860Y-33147691D01*
X96583000Y-33756552D01*
X96583000Y-33750339D01*
X96555741Y-33648606D01*
X96503080Y-33557394D01*
X96428606Y-33482920D01*
X96337394Y-33430259D01*
X96235661Y-33403000D01*
X96229447Y-33403000D01*
X96836327Y-32796118D01*
X96836326Y-32796117D01*
X96720181Y-32724203D01*
X96720175Y-32724200D01*
X96512804Y-32643865D01*
X96294193Y-32603000D01*
X96071807Y-32603000D01*
X95853195Y-32643865D01*
X95645824Y-32724200D01*
X95645818Y-32724204D01*
X95529672Y-32796117D01*
X95529671Y-32796118D01*
X96136554Y-33403000D01*
X96130339Y-33403000D01*
X96028606Y-33430259D01*
X95937394Y-33482920D01*
X95862920Y-33557394D01*
X95810259Y-33648606D01*
X95783000Y-33750339D01*
X95783000Y-33756553D01*
X95174138Y-33147691D01*
X95174137Y-33147691D01*
X95158369Y-33168571D01*
X95059240Y-33367649D01*
X94998378Y-33581560D01*
X94977859Y-33802999D01*
X94977859Y-33803000D01*
X94998378Y-34024439D01*
X95059240Y-34238350D01*
X95158364Y-34437419D01*
X95158366Y-34437421D01*
X95174138Y-34458306D01*
X95783000Y-33849445D01*
X95783000Y-33855661D01*
X95810259Y-33957394D01*
X95862920Y-34048606D01*
X95937394Y-34123080D01*
X96028606Y-34175741D01*
X96130339Y-34203000D01*
X96136554Y-34203000D01*
X95529671Y-34809880D01*
X95645823Y-34881798D01*
X95645824Y-34881799D01*
X95840213Y-34957105D01*
X95895614Y-34999678D01*
X95919205Y-35065445D01*
X95903494Y-35133525D01*
X95853470Y-35182304D01*
X95840213Y-35188359D01*
X95645601Y-35263751D01*
X95645595Y-35263754D01*
X95456439Y-35380874D01*
X95456437Y-35380876D01*
X95292020Y-35530761D01*
X95157943Y-35708308D01*
X95157938Y-35708316D01*
X95058775Y-35907461D01*
X95058769Y-35907476D01*
X94997885Y-36121462D01*
X94997884Y-36121464D01*
X94977357Y-36342999D01*
X88255954Y-36342999D01*
X88746752Y-35870026D01*
X88749849Y-35867145D01*
X89549776Y-35148343D01*
X89552983Y-35145560D01*
X90377534Y-34455046D01*
X90380807Y-34452401D01*
X91228947Y-33791045D01*
X91232302Y-33788521D01*
X92102961Y-33157157D01*
X92106434Y-33154729D01*
X92998557Y-32554120D01*
X93002153Y-32551789D01*
X93914868Y-31982530D01*
X93918049Y-31980612D01*
X94354042Y-31726829D01*
X94416581Y-31709997D01*
X125364167Y-31751221D01*
G37*
%TD.AperFunction*%
%TD*%
M02*
