%TF.GenerationSoftware,KiCad,Pcbnew,8.0.7*%
%TF.CreationDate,2026-03-28T05:21:06-04:00*%
%TF.ProjectId,main,6d61696e-2e6b-4696-9361-645f70636258,rev?*%
%TF.SameCoordinates,Original*%
%TF.FileFunction,Soldermask,Top*%
%TF.FilePolarity,Negative*%
%FSLAX46Y46*%
G04 Gerber Fmt 4.6, Leading zero omitted, Abs format (unit mm)*
G04 Created by KiCad (PCBNEW 8.0.7) date 2026-03-28 05:21:06*
%MOMM*%
%LPD*%
G01*
G04 APERTURE LIST*
G04 Aperture macros list*
%AMRoundRect*
0 Rectangle with rounded corners*
0 $1 Rounding radius*
0 $2 $3 $4 $5 $6 $7 $8 $9 X,Y pos of 4 corners*
0 Add a 4 corners polygon primitive as box body*
4,1,4,$2,$3,$4,$5,$6,$7,$8,$9,$2,$3,0*
0 Add four circle primitives for the rounded corners*
1,1,$1+$1,$2,$3*
1,1,$1+$1,$4,$5*
1,1,$1+$1,$6,$7*
1,1,$1+$1,$8,$9*
0 Add four rect primitives between the rounded corners*
20,1,$1+$1,$2,$3,$4,$5,0*
20,1,$1+$1,$4,$5,$6,$7,0*
20,1,$1+$1,$6,$7,$8,$9,0*
20,1,$1+$1,$8,$9,$2,$3,0*%
G04 Aperture macros list end*
%ADD10C,0.150000*%
%ADD11RoundRect,0.237500X-0.287500X-0.237500X0.287500X-0.237500X0.287500X0.237500X-0.287500X0.237500X0*%
%ADD12R,0.750000X0.700000*%
%ADD13C,2.000000*%
%ADD14C,1.400000*%
%ADD15RoundRect,0.237500X0.250000X0.237500X-0.250000X0.237500X-0.250000X-0.237500X0.250000X-0.237500X0*%
%ADD16RoundRect,0.237500X0.237500X-0.250000X0.237500X0.250000X-0.237500X0.250000X-0.237500X-0.250000X0*%
%ADD17RoundRect,0.237500X0.287500X0.237500X-0.287500X0.237500X-0.287500X-0.237500X0.287500X-0.237500X0*%
%ADD18R,1.050000X1.100000*%
%ADD19RoundRect,0.237500X-0.250000X-0.237500X0.250000X-0.237500X0.250000X0.237500X-0.250000X0.237500X0*%
%ADD20R,1.000000X1.050000*%
%ADD21R,1.050000X2.200000*%
%ADD22RoundRect,0.250000X1.150000X-0.250000X1.150000X0.250000X-1.150000X0.250000X-1.150000X-0.250000X0*%
%ADD23RoundRect,0.150000X0.700000X-0.150000X0.700000X0.150000X-0.700000X0.150000X-0.700000X-0.150000X0*%
%ADD24RoundRect,0.250000X-0.275000X-0.350000X0.275000X-0.350000X0.275000X0.350000X-0.275000X0.350000X0*%
%ADD25RoundRect,0.237500X-0.237500X0.250000X-0.237500X-0.250000X0.237500X-0.250000X0.237500X0.250000X0*%
%ADD26RoundRect,0.250000X-0.350000X0.275000X-0.350000X-0.275000X0.350000X-0.275000X0.350000X0.275000X0*%
%ADD27C,1.650000*%
%ADD28R,1.650000X1.650000*%
%ADD29C,1.100000*%
%ADD30C,0.394000*%
%ADD31RoundRect,0.150000X-0.150000X0.587500X-0.150000X-0.587500X0.150000X-0.587500X0.150000X0.587500X0*%
%ADD32R,0.675000X0.250000*%
%ADD33R,0.250000X0.575000*%
%ADD34R,1.100000X1.050000*%
%ADD35R,1.145000X0.550000*%
%ADD36R,0.550000X1.145000*%
%ADD37RoundRect,0.250000X-0.750000X0.840000X-0.750000X-0.840000X0.750000X-0.840000X0.750000X0.840000X0*%
%ADD38RoundRect,0.150000X-0.425000X0.150000X-0.425000X-0.150000X0.425000X-0.150000X0.425000X0.150000X0*%
%ADD39RoundRect,0.075000X-0.500000X0.075000X-0.500000X-0.075000X0.500000X-0.075000X0.500000X0.075000X0*%
%ADD40C,0.650000*%
%ADD41R,0.320000X0.510000*%
%ADD42C,1.600000*%
%ADD43C,0.800000*%
%ADD44C,5.000000*%
G04 APERTURE END LIST*
%TO.C,U-BLOX_ZOE_M8Q-0-1*%
D10*
X135238300Y-65837100D02*
G75*
G02*
X135088300Y-65837100I-75000J0D01*
G01*
X135088300Y-65837100D02*
G75*
G02*
X135238300Y-65837100I75000J0D01*
G01*
X135238300Y-65340800D02*
G75*
G02*
X135088300Y-65340800I-75000J0D01*
G01*
X135088300Y-65340800D02*
G75*
G02*
X135238300Y-65340800I75000J0D01*
G01*
X135238300Y-64840800D02*
G75*
G02*
X135088300Y-64840800I-75000J0D01*
G01*
X135088300Y-64840800D02*
G75*
G02*
X135238300Y-64840800I75000J0D01*
G01*
X135238300Y-64340800D02*
G75*
G02*
X135088300Y-64340800I-75000J0D01*
G01*
X135088300Y-64340800D02*
G75*
G02*
X135238300Y-64340800I75000J0D01*
G01*
X135238300Y-63840800D02*
G75*
G02*
X135088300Y-63840800I-75000J0D01*
G01*
X135088300Y-63840800D02*
G75*
G02*
X135238300Y-63840800I75000J0D01*
G01*
X135238300Y-63340800D02*
G75*
G02*
X135088300Y-63340800I-75000J0D01*
G01*
X135088300Y-63340800D02*
G75*
G02*
X135238300Y-63340800I75000J0D01*
G01*
X135238300Y-62840800D02*
G75*
G02*
X135088300Y-62840800I-75000J0D01*
G01*
X135088300Y-62840800D02*
G75*
G02*
X135238300Y-62840800I75000J0D01*
G01*
X135238300Y-62340800D02*
G75*
G02*
X135088300Y-62340800I-75000J0D01*
G01*
X135088300Y-62340800D02*
G75*
G02*
X135238300Y-62340800I75000J0D01*
G01*
X135238300Y-61837100D02*
G75*
G02*
X135088300Y-61837100I-75000J0D01*
G01*
X135088300Y-61837100D02*
G75*
G02*
X135238300Y-61837100I75000J0D01*
G01*
X134738300Y-65837100D02*
G75*
G02*
X134588300Y-65837100I-75000J0D01*
G01*
X134588300Y-65837100D02*
G75*
G02*
X134738300Y-65837100I75000J0D01*
G01*
X134738300Y-61837100D02*
G75*
G02*
X134588300Y-61837100I-75000J0D01*
G01*
X134588300Y-61837100D02*
G75*
G02*
X134738300Y-61837100I75000J0D01*
G01*
X134240000Y-62839200D02*
G75*
G02*
X134090000Y-62839200I-75000J0D01*
G01*
X134090000Y-62839200D02*
G75*
G02*
X134240000Y-62839200I75000J0D01*
G01*
X134238300Y-65837100D02*
G75*
G02*
X134088300Y-65837100I-75000J0D01*
G01*
X134088300Y-65837100D02*
G75*
G02*
X134238300Y-65837100I75000J0D01*
G01*
X134238300Y-61837100D02*
G75*
G02*
X134088300Y-61837100I-75000J0D01*
G01*
X134088300Y-61837100D02*
G75*
G02*
X134238300Y-61837100I75000J0D01*
G01*
X134238000Y-64841200D02*
G75*
G02*
X134088000Y-64841200I-75000J0D01*
G01*
X134088000Y-64841200D02*
G75*
G02*
X134238000Y-64841200I75000J0D01*
G01*
X134236800Y-64342900D02*
G75*
G02*
X134086800Y-64342900I-75000J0D01*
G01*
X134086800Y-64342900D02*
G75*
G02*
X134236800Y-64342900I75000J0D01*
G01*
X134236600Y-63840100D02*
G75*
G02*
X134086600Y-63840100I-75000J0D01*
G01*
X134086600Y-63840100D02*
G75*
G02*
X134236600Y-63840100I75000J0D01*
G01*
X133740000Y-62839200D02*
G75*
G02*
X133590000Y-62839200I-75000J0D01*
G01*
X133590000Y-62839200D02*
G75*
G02*
X133740000Y-62839200I75000J0D01*
G01*
X133738700Y-64341900D02*
G75*
G02*
X133588700Y-64341900I-75000J0D01*
G01*
X133588700Y-64341900D02*
G75*
G02*
X133738700Y-64341900I75000J0D01*
G01*
X133738300Y-65837100D02*
G75*
G02*
X133588300Y-65837100I-75000J0D01*
G01*
X133588300Y-65837100D02*
G75*
G02*
X133738300Y-65837100I75000J0D01*
G01*
X133738300Y-61837100D02*
G75*
G02*
X133588300Y-61837100I-75000J0D01*
G01*
X133588300Y-61837100D02*
G75*
G02*
X133738300Y-61837100I75000J0D01*
G01*
X133737200Y-64839600D02*
G75*
G02*
X133587200Y-64839600I-75000J0D01*
G01*
X133587200Y-64839600D02*
G75*
G02*
X133737200Y-64839600I75000J0D01*
G01*
X133735800Y-63337900D02*
G75*
G02*
X133585800Y-63337900I-75000J0D01*
G01*
X133585800Y-63337900D02*
G75*
G02*
X133735800Y-63337900I75000J0D01*
G01*
X133240000Y-62839200D02*
G75*
G02*
X133090000Y-62839200I-75000J0D01*
G01*
X133090000Y-62839200D02*
G75*
G02*
X133240000Y-62839200I75000J0D01*
G01*
X133238300Y-65837100D02*
G75*
G02*
X133088300Y-65837100I-75000J0D01*
G01*
X133088300Y-65837100D02*
G75*
G02*
X133238300Y-65837100I75000J0D01*
G01*
X133238300Y-61837100D02*
G75*
G02*
X133088300Y-61837100I-75000J0D01*
G01*
X133088300Y-61837100D02*
G75*
G02*
X133238300Y-61837100I75000J0D01*
G01*
X133237500Y-64840200D02*
G75*
G02*
X133087500Y-64840200I-75000J0D01*
G01*
X133087500Y-64840200D02*
G75*
G02*
X133237500Y-64840200I75000J0D01*
G01*
X132740000Y-62839200D02*
G75*
G02*
X132590000Y-62839200I-75000J0D01*
G01*
X132590000Y-62839200D02*
G75*
G02*
X132740000Y-62839200I75000J0D01*
G01*
X132739700Y-64341900D02*
G75*
G02*
X132589700Y-64341900I-75000J0D01*
G01*
X132589700Y-64341900D02*
G75*
G02*
X132739700Y-64341900I75000J0D01*
G01*
X132738400Y-64840200D02*
G75*
G02*
X132588400Y-64840200I-75000J0D01*
G01*
X132588400Y-64840200D02*
G75*
G02*
X132738400Y-64840200I75000J0D01*
G01*
X132738300Y-65837100D02*
G75*
G02*
X132588300Y-65837100I-75000J0D01*
G01*
X132588300Y-65837100D02*
G75*
G02*
X132738300Y-65837100I75000J0D01*
G01*
X132738300Y-61837100D02*
G75*
G02*
X132588300Y-61837100I-75000J0D01*
G01*
X132588300Y-61837100D02*
G75*
G02*
X132738300Y-61837100I75000J0D01*
G01*
X132735800Y-63339500D02*
G75*
G02*
X132585800Y-63339500I-75000J0D01*
G01*
X132585800Y-63339500D02*
G75*
G02*
X132735800Y-63339500I75000J0D01*
G01*
X132240000Y-62839200D02*
G75*
G02*
X132090000Y-62839200I-75000J0D01*
G01*
X132090000Y-62839200D02*
G75*
G02*
X132240000Y-62839200I75000J0D01*
G01*
X132239600Y-64341000D02*
G75*
G02*
X132089600Y-64341000I-75000J0D01*
G01*
X132089600Y-64341000D02*
G75*
G02*
X132239600Y-64341000I75000J0D01*
G01*
X132238300Y-65837100D02*
G75*
G02*
X132088300Y-65837100I-75000J0D01*
G01*
X132088300Y-65837100D02*
G75*
G02*
X132238300Y-65837100I75000J0D01*
G01*
X132238300Y-61837100D02*
G75*
G02*
X132088300Y-61837100I-75000J0D01*
G01*
X132088300Y-61837100D02*
G75*
G02*
X132238300Y-61837100I75000J0D01*
G01*
X132237500Y-64840300D02*
G75*
G02*
X132087500Y-64840300I-75000J0D01*
G01*
X132087500Y-64840300D02*
G75*
G02*
X132237500Y-64840300I75000J0D01*
G01*
X132237500Y-63337900D02*
G75*
G02*
X132087500Y-63337900I-75000J0D01*
G01*
X132087500Y-63337900D02*
G75*
G02*
X132237500Y-63337900I75000J0D01*
G01*
X132236500Y-63838800D02*
G75*
G02*
X132086500Y-63838800I-75000J0D01*
G01*
X132086500Y-63838800D02*
G75*
G02*
X132236500Y-63838800I75000J0D01*
G01*
X131738300Y-65837100D02*
G75*
G02*
X131588300Y-65837100I-75000J0D01*
G01*
X131588300Y-65837100D02*
G75*
G02*
X131738300Y-65837100I75000J0D01*
G01*
X131738300Y-61837100D02*
G75*
G02*
X131588300Y-61837100I-75000J0D01*
G01*
X131588300Y-61837100D02*
G75*
G02*
X131738300Y-61837100I75000J0D01*
G01*
X131238300Y-65837100D02*
G75*
G02*
X131088300Y-65837100I-75000J0D01*
G01*
X131088300Y-65837100D02*
G75*
G02*
X131238300Y-65837100I75000J0D01*
G01*
X131238300Y-61837100D02*
G75*
G02*
X131088300Y-61837100I-75000J0D01*
G01*
X131088300Y-61837100D02*
G75*
G02*
X131238300Y-61837100I75000J0D01*
G01*
X131236600Y-65339100D02*
G75*
G02*
X131086600Y-65339100I-75000J0D01*
G01*
X131086600Y-65339100D02*
G75*
G02*
X131236600Y-65339100I75000J0D01*
G01*
X131236600Y-64839100D02*
G75*
G02*
X131086600Y-64839100I-75000J0D01*
G01*
X131086600Y-64839100D02*
G75*
G02*
X131236600Y-64839100I75000J0D01*
G01*
X131236600Y-64339100D02*
G75*
G02*
X131086600Y-64339100I-75000J0D01*
G01*
X131086600Y-64339100D02*
G75*
G02*
X131236600Y-64339100I75000J0D01*
G01*
X131236600Y-63839100D02*
G75*
G02*
X131086600Y-63839100I-75000J0D01*
G01*
X131086600Y-63839100D02*
G75*
G02*
X131236600Y-63839100I75000J0D01*
G01*
X131236600Y-63339100D02*
G75*
G02*
X131086600Y-63339100I-75000J0D01*
G01*
X131086600Y-63339100D02*
G75*
G02*
X131236600Y-63339100I75000J0D01*
G01*
X131236600Y-62839100D02*
G75*
G02*
X131086600Y-62839100I-75000J0D01*
G01*
X131086600Y-62839100D02*
G75*
G02*
X131236600Y-62839100I75000J0D01*
G01*
X131236600Y-62339100D02*
G75*
G02*
X131086600Y-62339100I-75000J0D01*
G01*
X131086600Y-62339100D02*
G75*
G02*
X131236600Y-62339100I75000J0D01*
G01*
%TD*%
D11*
%TO.C,D2*%
X126508000Y-43393000D03*
X128258000Y-43393000D03*
%TD*%
D12*
%TO.C,Y5*%
X109283000Y-65743000D03*
X107933000Y-65743000D03*
X107933000Y-66743000D03*
X109283000Y-66743000D03*
%TD*%
D13*
%TO.C,FID5*%
X127383000Y-35793000D03*
%TD*%
D14*
%TO.C,TP1*%
X96183000Y-36343000D03*
X96183000Y-33803000D03*
%TD*%
D15*
%TO.C,C15*%
X104998500Y-49743000D03*
X103173500Y-49743000D03*
%TD*%
D16*
%TO.C,C24*%
X111583000Y-65543000D03*
X111583000Y-67368000D03*
%TD*%
D15*
%TO.C,C4*%
X115870500Y-48043000D03*
X117695500Y-48043000D03*
%TD*%
D17*
%TO.C,D5*%
X128258000Y-47893000D03*
X126508000Y-47893000D03*
%TD*%
D14*
%TO.C,TP2*%
X98783000Y-64493000D03*
X101323000Y-64493000D03*
%TD*%
D15*
%TO.C,C30*%
X100795500Y-37043000D03*
X98970500Y-37043000D03*
%TD*%
D18*
%TO.C,Y1*%
X103107000Y-60043000D03*
X104957000Y-60043000D03*
%TD*%
D19*
%TO.C,C39*%
X129270500Y-68543000D03*
X131095500Y-68543000D03*
%TD*%
D11*
%TO.C,D6*%
X96383000Y-71193000D03*
X98133000Y-71193000D03*
%TD*%
D20*
%TO.C,CONMHF1-SMD-G-T1*%
X132983000Y-54193000D03*
D21*
X134458000Y-52668000D03*
D20*
X132983000Y-51143000D03*
D21*
X131508000Y-52668000D03*
%TD*%
D15*
%TO.C,R25*%
X118720500Y-76043000D03*
X120545500Y-76043000D03*
%TD*%
%TO.C,C9*%
X103173500Y-62593000D03*
X104998500Y-62593000D03*
%TD*%
%TO.C,C20*%
X103173500Y-51840000D03*
X104998500Y-51840000D03*
%TD*%
D13*
%TO.C,FID8*%
X127383000Y-81293000D03*
%TD*%
D15*
%TO.C,C22*%
X113970500Y-66793000D03*
X115795500Y-66793000D03*
%TD*%
D22*
%TO.C,S4B-PH-K-S_LF__SN_2*%
X85833000Y-66293000D03*
X85833000Y-73743000D03*
D23*
X89183000Y-68143000D03*
X89183000Y-69393000D03*
X89183000Y-70643000D03*
X89183000Y-71893000D03*
%TD*%
D15*
%TO.C,C29*%
X100633000Y-39293000D03*
X98808000Y-39293000D03*
%TD*%
D11*
%TO.C,D3*%
X96445500Y-68993000D03*
X98195500Y-68993000D03*
%TD*%
D24*
%TO.C,L2*%
X109533000Y-48743000D03*
X111833000Y-48743000D03*
%TD*%
D19*
%TO.C,R20*%
X115795500Y-69043000D03*
X113970500Y-69043000D03*
%TD*%
D25*
%TO.C,C23*%
X105533000Y-67455500D03*
X105533000Y-65630500D03*
%TD*%
D19*
%TO.C,C38*%
X127251300Y-63823800D03*
X129076300Y-63823800D03*
%TD*%
D26*
%TO.C,L3*%
X127483000Y-65493000D03*
X127483000Y-67793000D03*
%TD*%
D19*
%TO.C,C32*%
X104058000Y-40943000D03*
X105883000Y-40943000D03*
%TD*%
D15*
%TO.C,R11*%
X100658000Y-71243000D03*
X102483000Y-71243000D03*
%TD*%
D16*
%TO.C,C37*%
X118037000Y-46155500D03*
X118037000Y-44330500D03*
%TD*%
D27*
%TO.C,ScrewTerminal2*%
X99223000Y-81043000D03*
D28*
X96683000Y-81043000D03*
D29*
X99223000Y-83583000D03*
X96683000Y-83583000D03*
%TD*%
D25*
%TO.C,C31*%
X95383000Y-41330500D03*
X95383000Y-43155500D03*
%TD*%
D19*
%TO.C,FB1*%
X93758000Y-54843000D03*
X95583000Y-54843000D03*
%TD*%
%TO.C,R24*%
X120545500Y-69043000D03*
X118720500Y-69043000D03*
%TD*%
D22*
%TO.C,S4B-PH-K-S_LF__SN_1*%
X85733000Y-43393000D03*
X85733000Y-50843000D03*
D23*
X89083000Y-45243000D03*
X89083000Y-46493000D03*
X89083000Y-47743000D03*
X89083000Y-48993000D03*
%TD*%
D13*
%TO.C,FID3*%
X92383000Y-81293000D03*
%TD*%
D25*
%TO.C,C36*%
X118037000Y-40280500D03*
X118037000Y-42105500D03*
%TD*%
D30*
%TO.C,MIMXRT1062DVL6B1*%
X118783000Y-52143000D03*
X118783000Y-52943000D03*
X118783000Y-53743000D03*
X118783000Y-54543000D03*
X118783000Y-55343000D03*
X118783000Y-56143000D03*
X118783000Y-56943000D03*
X118783000Y-57743000D03*
X118783000Y-58543000D03*
X118783000Y-59343000D03*
X118783000Y-60143000D03*
X118783000Y-60943000D03*
X118783000Y-61743000D03*
X118783000Y-62543000D03*
X117983000Y-52143000D03*
X117983000Y-52943000D03*
X117983000Y-53743000D03*
X117983000Y-54543000D03*
X117983000Y-55343000D03*
X117983000Y-56143000D03*
X117983000Y-56943000D03*
X117983000Y-57743000D03*
X117983000Y-58543000D03*
X117983000Y-59343000D03*
X117983000Y-60143000D03*
X117983000Y-60943000D03*
X117983000Y-61743000D03*
X117983000Y-62543000D03*
X117183000Y-52143000D03*
X117183000Y-52943000D03*
X117183000Y-53743000D03*
X117183000Y-54543000D03*
X117183000Y-55343000D03*
X117183000Y-56143000D03*
X117183000Y-56943000D03*
X117183000Y-57743000D03*
X117183000Y-58543000D03*
X117183000Y-59343000D03*
X117183000Y-60143000D03*
X117183000Y-60943000D03*
X117183000Y-61743000D03*
X117183000Y-62543000D03*
X116383000Y-52143000D03*
X116383000Y-52943000D03*
X116383000Y-53743000D03*
X116383000Y-54543000D03*
X116383000Y-55343000D03*
X116383000Y-56143000D03*
X116383000Y-56943000D03*
X116383000Y-57743000D03*
X116383000Y-58543000D03*
X116383000Y-59343000D03*
X116383000Y-60143000D03*
X116383000Y-60943000D03*
X116383000Y-61743000D03*
X116383000Y-62543000D03*
X115583000Y-52143000D03*
X115583000Y-52943000D03*
X115583000Y-53743000D03*
X115583000Y-54543000D03*
X115583000Y-55343000D03*
X115583000Y-56143000D03*
X115583000Y-56943000D03*
X115583000Y-57743000D03*
X115583000Y-58543000D03*
X115583000Y-59343000D03*
X115583000Y-60143000D03*
X115583000Y-60943000D03*
X115583000Y-61743000D03*
X115583000Y-62543000D03*
X114783000Y-52143000D03*
X114783000Y-52943000D03*
X114783000Y-53743000D03*
X114783000Y-54543000D03*
X114783000Y-55343000D03*
X114783000Y-56143000D03*
X114783000Y-56943000D03*
X114783000Y-57743000D03*
X114783000Y-58543000D03*
X114783000Y-59343000D03*
X114783000Y-60143000D03*
X114783000Y-60943000D03*
X114783000Y-61743000D03*
X114783000Y-62543000D03*
X113983000Y-52143000D03*
X113983000Y-52943000D03*
X113983000Y-53743000D03*
X113983000Y-54543000D03*
X113983000Y-55343000D03*
X113983000Y-56143000D03*
X113983000Y-56943000D03*
X113983000Y-57743000D03*
X113983000Y-58543000D03*
X113983000Y-59343000D03*
X113983000Y-60143000D03*
X113983000Y-60943000D03*
X113983000Y-61743000D03*
X113983000Y-62543000D03*
X113183000Y-52143000D03*
X113183000Y-52943000D03*
X113183000Y-53743000D03*
X113183000Y-54543000D03*
X113183000Y-55343000D03*
X113183000Y-56143000D03*
X113183000Y-56943000D03*
X113183000Y-57743000D03*
X113183000Y-58543000D03*
X113183000Y-59343000D03*
X113183000Y-60143000D03*
X113183000Y-60943000D03*
X113183000Y-61743000D03*
X113183000Y-62543000D03*
X112383000Y-52143000D03*
X112383000Y-52943000D03*
X112383000Y-53743000D03*
X112383000Y-54543000D03*
X112383000Y-55343000D03*
X112383000Y-56143000D03*
X112383000Y-56943000D03*
X112383000Y-57743000D03*
X112383000Y-58543000D03*
X112383000Y-59343000D03*
X112383000Y-60143000D03*
X112383000Y-60943000D03*
X112383000Y-61743000D03*
X112383000Y-62543000D03*
X111583000Y-52143000D03*
X111583000Y-52943000D03*
X111583000Y-53743000D03*
X111583000Y-54543000D03*
X111583000Y-55343000D03*
X111583000Y-56143000D03*
X111583000Y-56943000D03*
X111583000Y-57743000D03*
X111583000Y-58543000D03*
X111583000Y-59343000D03*
X111583000Y-60143000D03*
X111583000Y-60943000D03*
X111583000Y-61743000D03*
X111583000Y-62543000D03*
X110783000Y-52143000D03*
X110783000Y-52943000D03*
X110783000Y-53743000D03*
X110783000Y-54543000D03*
X110783000Y-55343000D03*
X110783000Y-56143000D03*
X110783000Y-56943000D03*
X110783000Y-57743000D03*
X110783000Y-58543000D03*
X110783000Y-59343000D03*
X110783000Y-60143000D03*
X110783000Y-60943000D03*
X110783000Y-61743000D03*
X110783000Y-62543000D03*
X109983000Y-52143000D03*
X109983000Y-52943000D03*
X109983000Y-53743000D03*
X109983000Y-54543000D03*
X109983000Y-55343000D03*
X109983000Y-56143000D03*
X109983000Y-56943000D03*
X109983000Y-57743000D03*
X109983000Y-58543000D03*
X109983000Y-59343000D03*
X109983000Y-60143000D03*
X109983000Y-60943000D03*
X109983000Y-61743000D03*
X109983000Y-62543000D03*
X109183000Y-52143000D03*
X109183000Y-52943000D03*
X109183000Y-53743000D03*
X109183000Y-54543000D03*
X109183000Y-55343000D03*
X109183000Y-56143000D03*
X109183000Y-56943000D03*
X109183000Y-57743000D03*
X109183000Y-58543000D03*
X109183000Y-59343000D03*
X109183000Y-60143000D03*
X109183000Y-60943000D03*
X109183000Y-61743000D03*
X109183000Y-62543000D03*
X108383000Y-52143000D03*
X108383000Y-52943000D03*
X108383000Y-53743000D03*
X108383000Y-54543000D03*
X108383000Y-55343000D03*
X108383000Y-56143000D03*
X108383000Y-56943000D03*
X108383000Y-57743000D03*
X108383000Y-58543000D03*
X108383000Y-59343000D03*
X108383000Y-60143000D03*
X108383000Y-60943000D03*
X108383000Y-61743000D03*
X108383000Y-62543000D03*
%TD*%
D18*
%TO.C,Y4*%
X135338800Y-68743000D03*
X133488800Y-68743000D03*
%TD*%
D31*
%TO.C,Q3*%
X125333000Y-71668000D03*
X123433000Y-71668000D03*
X124383000Y-73543000D03*
%TD*%
D32*
%TO.C,BNO085*%
X101759000Y-42106000D03*
X101759000Y-42606000D03*
X101759000Y-43106000D03*
X101759000Y-43606000D03*
X101759000Y-44106000D03*
X101759000Y-44606000D03*
X101759000Y-45106000D03*
X101759000Y-45606000D03*
X101759000Y-46106000D03*
D33*
X100946000Y-46169000D03*
X100446000Y-46169000D03*
X99946000Y-46169000D03*
X99446000Y-46169000D03*
D32*
X98633000Y-46106000D03*
X98633000Y-45606000D03*
X98633000Y-45106000D03*
X98633000Y-44606000D03*
X98633000Y-44106000D03*
X98633000Y-43606000D03*
X98633000Y-43106000D03*
X98633000Y-42606000D03*
X98633000Y-42106000D03*
X98633000Y-41606000D03*
D33*
X99446000Y-41543000D03*
X99946000Y-41543000D03*
X100446000Y-41543000D03*
X100946000Y-41543000D03*
D32*
X101759000Y-41606000D03*
%TD*%
D15*
%TO.C,R12*%
X122220500Y-47893000D03*
X124045500Y-47893000D03*
%TD*%
D13*
%TO.C,FID1*%
X92383000Y-35793000D03*
%TD*%
D15*
%TO.C,R29*%
X123383000Y-76043000D03*
X125208000Y-76043000D03*
%TD*%
D14*
%TO.C,TP3*%
X102383000Y-80193000D03*
X102383000Y-82733000D03*
%TD*%
D17*
%TO.C,D4*%
X128258000Y-45643000D03*
X126508000Y-45643000D03*
%TD*%
D34*
%TO.C,Y3*%
X105020500Y-42918000D03*
X105020500Y-44768000D03*
%TD*%
D19*
%TO.C,R7*%
X102483000Y-68993000D03*
X100658000Y-68993000D03*
%TD*%
D15*
%TO.C,R10*%
X109120500Y-69543000D03*
X110945500Y-69543000D03*
%TD*%
D31*
%TO.C,Q1*%
X115833000Y-71668000D03*
X113933000Y-71668000D03*
X114883000Y-73543000D03*
%TD*%
D35*
%TO.C,ADXL375*%
X114283000Y-44543000D03*
X114283000Y-43743000D03*
X114283000Y-42943000D03*
X114283000Y-42143000D03*
X114283000Y-41343000D03*
X114283000Y-40543000D03*
D36*
X113185000Y-40445000D03*
D35*
X112087000Y-40543000D03*
X112087000Y-41343000D03*
X112087000Y-42143000D03*
X112087000Y-42943000D03*
X112087000Y-43743000D03*
X112087000Y-44543000D03*
D36*
X113185000Y-44641000D03*
%TD*%
D19*
%TO.C,R28*%
X125295500Y-69043000D03*
X123470500Y-69043000D03*
%TD*%
D15*
%TO.C,R21*%
X113970500Y-76043000D03*
X115795500Y-76043000D03*
%TD*%
%TO.C,C16*%
X104998500Y-54143000D03*
X103173500Y-54143000D03*
%TD*%
D16*
%TO.C,C10*%
X100883000Y-59893000D03*
X100883000Y-61718000D03*
%TD*%
D19*
%TO.C,R1*%
X95545500Y-57793000D03*
X93720500Y-57793000D03*
%TD*%
%TO.C,R5*%
X124133000Y-43393000D03*
X122308000Y-43393000D03*
%TD*%
D15*
%TO.C,C21*%
X103173500Y-56393000D03*
X104998500Y-56393000D03*
%TD*%
D19*
%TO.C,R2*%
X95545500Y-60043000D03*
X93720500Y-60043000D03*
%TD*%
D37*
%TO.C,USB_C_Receptacle_USB2.0_14P1*%
X85960000Y-63700000D03*
X89890000Y-63700000D03*
X85960000Y-53480000D03*
X89890000Y-53480000D03*
D38*
X90465000Y-55390000D03*
X90465000Y-56190000D03*
D39*
X90465000Y-56840000D03*
X90465000Y-57840000D03*
X90465000Y-59340000D03*
X90465000Y-60340000D03*
D38*
X90465000Y-60990000D03*
X90465000Y-61790000D03*
X90465000Y-61790000D03*
X90465000Y-60990000D03*
D39*
X90465000Y-59840000D03*
X90465000Y-58840000D03*
X90465000Y-58340000D03*
X90465000Y-57340000D03*
D38*
X90465000Y-56190000D03*
X90465000Y-55390000D03*
D40*
X89390000Y-61480000D03*
X89390000Y-55700000D03*
%TD*%
D28*
%TO.C,ScrewTerminal1*%
X105603000Y-81043000D03*
D27*
X108143000Y-81043000D03*
X110683000Y-81043000D03*
X113223000Y-81043000D03*
X115763000Y-81043000D03*
X118303000Y-81043000D03*
X120843000Y-81043000D03*
X123383000Y-81043000D03*
%TD*%
D25*
%TO.C,R19*%
X109683000Y-41755500D03*
X109683000Y-39930500D03*
%TD*%
D15*
%TO.C,R9*%
X122220500Y-45643000D03*
X124045500Y-45643000D03*
%TD*%
D31*
%TO.C,Q2*%
X120583000Y-71668000D03*
X118683000Y-71668000D03*
X119633000Y-73543000D03*
%TD*%
D41*
%TO.C,D7*%
X132683000Y-58643000D03*
X132683000Y-57643000D03*
%TD*%
D15*
%TO.C,C33*%
X105883000Y-46743000D03*
X104058000Y-46743000D03*
%TD*%
D42*
%TO.C,C41*%
X106905475Y-76267615D03*
X107760525Y-73918383D03*
%TD*%
D43*
%TO.C,REF\u002A\u002A*%
X126955000Y-77490000D03*
X127504175Y-76164175D03*
X127504175Y-78815825D03*
X128830000Y-75615000D03*
D44*
X128830000Y-77490000D03*
D43*
X128830000Y-79365000D03*
X130155825Y-76164175D03*
X130155825Y-78815825D03*
X130705000Y-77490000D03*
%TD*%
%TO.C,REF\u002A\u002A*%
X89061000Y-39596000D03*
X89610175Y-38270175D03*
X89610175Y-40921825D03*
X90936000Y-37721000D03*
D44*
X90936000Y-39596000D03*
D43*
X90936000Y-41471000D03*
X92261825Y-38270175D03*
X92261825Y-40921825D03*
X92811000Y-39596000D03*
%TD*%
%TO.C,REF\u002A\u002A*%
X126955000Y-39596000D03*
X127504175Y-38270175D03*
X127504175Y-40921825D03*
X128830000Y-37721000D03*
D44*
X128830000Y-39596000D03*
D43*
X128830000Y-41471000D03*
X130155825Y-38270175D03*
X130155825Y-40921825D03*
X130705000Y-39596000D03*
%TD*%
%TO.C,REF\u002A\u002A*%
X89082175Y-77493000D03*
X89631350Y-76167175D03*
X89631350Y-78818825D03*
X90957175Y-75618000D03*
D44*
X90957175Y-77493000D03*
D43*
X90957175Y-79368000D03*
X92283000Y-76167175D03*
X92283000Y-78818825D03*
X92832175Y-77493000D03*
%TD*%
M02*
