%TF.GenerationSoftware,KiCad,Pcbnew,8.0.7*%
%TF.CreationDate,2026-03-28T05:21:12-04:00*%
%TF.ProjectId,main,6d61696e-2e6b-4696-9361-645f70636258,rev?*%
%TF.SameCoordinates,Original*%
%TF.FileFunction,Paste,Top*%
%TF.FilePolarity,Positive*%
%FSLAX46Y46*%
G04 Gerber Fmt 4.6, Leading zero omitted, Abs format (unit mm)*
G04 Created by KiCad (PCBNEW 8.0.7) date 2026-03-28 05:21:12*
%MOMM*%
%LPD*%
G01*
G04 APERTURE LIST*
G04 Aperture macros list*
%AMRoundRect*
0 Rectangle with rounded corners*
0 $1 Rounding radius*
0 $2 $3 $4 $5 $6 $7 $8 $9 X,Y pos of 4 corners*
0 Add a 4 corners polygon primitive as box body*
4,1,4,$2,$3,$4,$5,$6,$7,$8,$9,$2,$3,0*
0 Add four circle primitives for the rounded corners*
1,1,$1+$1,$2,$3*
1,1,$1+$1,$4,$5*
1,1,$1+$1,$6,$7*
1,1,$1+$1,$8,$9*
0 Add four rect primitives between the rounded corners*
20,1,$1+$1,$2,$3,$4,$5,0*
20,1,$1+$1,$4,$5,$6,$7,0*
20,1,$1+$1,$6,$7,$8,$9,0*
20,1,$1+$1,$8,$9,$2,$3,0*%
G04 Aperture macros list end*
%ADD10RoundRect,0.237500X-0.287500X-0.237500X0.287500X-0.237500X0.287500X0.237500X-0.287500X0.237500X0*%
%ADD11R,0.750000X0.700000*%
%ADD12RoundRect,0.237500X0.250000X0.237500X-0.250000X0.237500X-0.250000X-0.237500X0.250000X-0.237500X0*%
%ADD13RoundRect,0.237500X0.237500X-0.250000X0.237500X0.250000X-0.237500X0.250000X-0.237500X-0.250000X0*%
%ADD14RoundRect,0.237500X0.287500X0.237500X-0.287500X0.237500X-0.287500X-0.237500X0.287500X-0.237500X0*%
%ADD15R,1.050000X1.100000*%
%ADD16RoundRect,0.237500X-0.250000X-0.237500X0.250000X-0.237500X0.250000X0.237500X-0.250000X0.237500X0*%
%ADD17R,1.000000X1.050000*%
%ADD18R,1.050000X2.200000*%
%ADD19RoundRect,0.250000X1.150000X-0.250000X1.150000X0.250000X-1.150000X0.250000X-1.150000X-0.250000X0*%
%ADD20RoundRect,0.150000X0.700000X-0.150000X0.700000X0.150000X-0.700000X0.150000X-0.700000X-0.150000X0*%
%ADD21RoundRect,0.250000X-0.275000X-0.350000X0.275000X-0.350000X0.275000X0.350000X-0.275000X0.350000X0*%
%ADD22RoundRect,0.237500X-0.237500X0.250000X-0.237500X-0.250000X0.237500X-0.250000X0.237500X0.250000X0*%
%ADD23RoundRect,0.250000X-0.350000X0.275000X-0.350000X-0.275000X0.350000X-0.275000X0.350000X0.275000X0*%
%ADD24C,0.394000*%
%ADD25RoundRect,0.150000X-0.150000X0.587500X-0.150000X-0.587500X0.150000X-0.587500X0.150000X0.587500X0*%
%ADD26R,0.675000X0.250000*%
%ADD27R,0.250000X0.575000*%
%ADD28R,1.100000X1.050000*%
%ADD29R,1.145000X0.550000*%
%ADD30R,0.550000X1.145000*%
%ADD31RoundRect,0.125000X-0.000010X-0.000010X0.000010X-0.000010X0.000010X0.000010X-0.000010X0.000010X0*%
%ADD32RoundRect,0.250000X-0.750000X0.840000X-0.750000X-0.840000X0.750000X-0.840000X0.750000X0.840000X0*%
%ADD33RoundRect,0.150000X-0.425000X0.150000X-0.425000X-0.150000X0.425000X-0.150000X0.425000X0.150000X0*%
%ADD34RoundRect,0.075000X-0.500000X0.075000X-0.500000X-0.075000X0.500000X-0.075000X0.500000X0.075000X0*%
%ADD35R,0.320000X0.510000*%
G04 APERTURE END LIST*
D10*
%TO.C,D2*%
X126508000Y-43393000D03*
X128258000Y-43393000D03*
%TD*%
D11*
%TO.C,Y5*%
X109283000Y-65743000D03*
X107933000Y-65743000D03*
X107933000Y-66743000D03*
X109283000Y-66743000D03*
%TD*%
D12*
%TO.C,C15*%
X104998500Y-49743000D03*
X103173500Y-49743000D03*
%TD*%
D13*
%TO.C,C24*%
X111583000Y-65543000D03*
X111583000Y-67368000D03*
%TD*%
D12*
%TO.C,C4*%
X115870500Y-48043000D03*
X117695500Y-48043000D03*
%TD*%
D14*
%TO.C,D5*%
X128258000Y-47893000D03*
X126508000Y-47893000D03*
%TD*%
D12*
%TO.C,C30*%
X100795500Y-37043000D03*
X98970500Y-37043000D03*
%TD*%
D15*
%TO.C,Y1*%
X103107000Y-60043000D03*
X104957000Y-60043000D03*
%TD*%
D16*
%TO.C,C39*%
X129270500Y-68543000D03*
X131095500Y-68543000D03*
%TD*%
D10*
%TO.C,D6*%
X96383000Y-71193000D03*
X98133000Y-71193000D03*
%TD*%
D17*
%TO.C,CONMHF1-SMD-G-T1*%
X132983000Y-54193000D03*
D18*
X134458000Y-52668000D03*
D17*
X132983000Y-51143000D03*
D18*
X131508000Y-52668000D03*
%TD*%
D12*
%TO.C,R25*%
X118720500Y-76043000D03*
X120545500Y-76043000D03*
%TD*%
%TO.C,C9*%
X103173500Y-62593000D03*
X104998500Y-62593000D03*
%TD*%
%TO.C,C20*%
X103173500Y-51840000D03*
X104998500Y-51840000D03*
%TD*%
%TO.C,C22*%
X113970500Y-66793000D03*
X115795500Y-66793000D03*
%TD*%
D19*
%TO.C,S4B-PH-K-S_LF__SN_2*%
X85833000Y-66293000D03*
X85833000Y-73743000D03*
D20*
X89183000Y-68143000D03*
X89183000Y-69393000D03*
X89183000Y-70643000D03*
X89183000Y-71893000D03*
%TD*%
D12*
%TO.C,C29*%
X100633000Y-39293000D03*
X98808000Y-39293000D03*
%TD*%
D10*
%TO.C,D3*%
X96445500Y-68993000D03*
X98195500Y-68993000D03*
%TD*%
D21*
%TO.C,L2*%
X109533000Y-48743000D03*
X111833000Y-48743000D03*
%TD*%
D16*
%TO.C,R20*%
X115795500Y-69043000D03*
X113970500Y-69043000D03*
%TD*%
D22*
%TO.C,C23*%
X105533000Y-67455500D03*
X105533000Y-65630500D03*
%TD*%
D16*
%TO.C,C38*%
X127251300Y-63823800D03*
X129076300Y-63823800D03*
%TD*%
D23*
%TO.C,L3*%
X127483000Y-65493000D03*
X127483000Y-67793000D03*
%TD*%
D16*
%TO.C,C32*%
X104058000Y-40943000D03*
X105883000Y-40943000D03*
%TD*%
D12*
%TO.C,R11*%
X100658000Y-71243000D03*
X102483000Y-71243000D03*
%TD*%
D13*
%TO.C,C37*%
X118037000Y-46155500D03*
X118037000Y-44330500D03*
%TD*%
D22*
%TO.C,C31*%
X95383000Y-41330500D03*
X95383000Y-43155500D03*
%TD*%
D16*
%TO.C,FB1*%
X93758000Y-54843000D03*
X95583000Y-54843000D03*
%TD*%
%TO.C,R24*%
X120545500Y-69043000D03*
X118720500Y-69043000D03*
%TD*%
D19*
%TO.C,S4B-PH-K-S_LF__SN_1*%
X85733000Y-43393000D03*
X85733000Y-50843000D03*
D20*
X89083000Y-45243000D03*
X89083000Y-46493000D03*
X89083000Y-47743000D03*
X89083000Y-48993000D03*
%TD*%
D22*
%TO.C,C36*%
X118037000Y-40280500D03*
X118037000Y-42105500D03*
%TD*%
D24*
%TO.C,MIMXRT1062DVL6B1*%
X118783000Y-52143000D03*
X118783000Y-52943000D03*
X118783000Y-53743000D03*
X118783000Y-54543000D03*
X118783000Y-55343000D03*
X118783000Y-56143000D03*
X118783000Y-56943000D03*
X118783000Y-57743000D03*
X118783000Y-58543000D03*
X118783000Y-59343000D03*
X118783000Y-60143000D03*
X118783000Y-60943000D03*
X118783000Y-61743000D03*
X118783000Y-62543000D03*
X117983000Y-52143000D03*
X117983000Y-52943000D03*
X117983000Y-53743000D03*
X117983000Y-54543000D03*
X117983000Y-55343000D03*
X117983000Y-56143000D03*
X117983000Y-56943000D03*
X117983000Y-57743000D03*
X117983000Y-58543000D03*
X117983000Y-59343000D03*
X117983000Y-60143000D03*
X117983000Y-60943000D03*
X117983000Y-61743000D03*
X117983000Y-62543000D03*
X117183000Y-52143000D03*
X117183000Y-52943000D03*
X117183000Y-53743000D03*
X117183000Y-54543000D03*
X117183000Y-55343000D03*
X117183000Y-56143000D03*
X117183000Y-56943000D03*
X117183000Y-57743000D03*
X117183000Y-58543000D03*
X117183000Y-59343000D03*
X117183000Y-60143000D03*
X117183000Y-60943000D03*
X117183000Y-61743000D03*
X117183000Y-62543000D03*
X116383000Y-52143000D03*
X116383000Y-52943000D03*
X116383000Y-53743000D03*
X116383000Y-54543000D03*
X116383000Y-55343000D03*
X116383000Y-56143000D03*
X116383000Y-56943000D03*
X116383000Y-57743000D03*
X116383000Y-58543000D03*
X116383000Y-59343000D03*
X116383000Y-60143000D03*
X116383000Y-60943000D03*
X116383000Y-61743000D03*
X116383000Y-62543000D03*
X115583000Y-52143000D03*
X115583000Y-52943000D03*
X115583000Y-53743000D03*
X115583000Y-54543000D03*
X115583000Y-55343000D03*
X115583000Y-56143000D03*
X115583000Y-56943000D03*
X115583000Y-57743000D03*
X115583000Y-58543000D03*
X115583000Y-59343000D03*
X115583000Y-60143000D03*
X115583000Y-60943000D03*
X115583000Y-61743000D03*
X115583000Y-62543000D03*
X114783000Y-52143000D03*
X114783000Y-52943000D03*
X114783000Y-53743000D03*
X114783000Y-54543000D03*
X114783000Y-55343000D03*
X114783000Y-56143000D03*
X114783000Y-56943000D03*
X114783000Y-57743000D03*
X114783000Y-58543000D03*
X114783000Y-59343000D03*
X114783000Y-60143000D03*
X114783000Y-60943000D03*
X114783000Y-61743000D03*
X114783000Y-62543000D03*
X113983000Y-52143000D03*
X113983000Y-52943000D03*
X113983000Y-53743000D03*
X113983000Y-54543000D03*
X113983000Y-55343000D03*
X113983000Y-56143000D03*
X113983000Y-56943000D03*
X113983000Y-57743000D03*
X113983000Y-58543000D03*
X113983000Y-59343000D03*
X113983000Y-60143000D03*
X113983000Y-60943000D03*
X113983000Y-61743000D03*
X113983000Y-62543000D03*
X113183000Y-52143000D03*
X113183000Y-52943000D03*
X113183000Y-53743000D03*
X113183000Y-54543000D03*
X113183000Y-55343000D03*
X113183000Y-56143000D03*
X113183000Y-56943000D03*
X113183000Y-57743000D03*
X113183000Y-58543000D03*
X113183000Y-59343000D03*
X113183000Y-60143000D03*
X113183000Y-60943000D03*
X113183000Y-61743000D03*
X113183000Y-62543000D03*
X112383000Y-52143000D03*
X112383000Y-52943000D03*
X112383000Y-53743000D03*
X112383000Y-54543000D03*
X112383000Y-55343000D03*
X112383000Y-56143000D03*
X112383000Y-56943000D03*
X112383000Y-57743000D03*
X112383000Y-58543000D03*
X112383000Y-59343000D03*
X112383000Y-60143000D03*
X112383000Y-60943000D03*
X112383000Y-61743000D03*
X112383000Y-62543000D03*
X111583000Y-52143000D03*
X111583000Y-52943000D03*
X111583000Y-53743000D03*
X111583000Y-54543000D03*
X111583000Y-55343000D03*
X111583000Y-56143000D03*
X111583000Y-56943000D03*
X111583000Y-57743000D03*
X111583000Y-58543000D03*
X111583000Y-59343000D03*
X111583000Y-60143000D03*
X111583000Y-60943000D03*
X111583000Y-61743000D03*
X111583000Y-62543000D03*
X110783000Y-52143000D03*
X110783000Y-52943000D03*
X110783000Y-53743000D03*
X110783000Y-54543000D03*
X110783000Y-55343000D03*
X110783000Y-56143000D03*
X110783000Y-56943000D03*
X110783000Y-57743000D03*
X110783000Y-58543000D03*
X110783000Y-59343000D03*
X110783000Y-60143000D03*
X110783000Y-60943000D03*
X110783000Y-61743000D03*
X110783000Y-62543000D03*
X109983000Y-52143000D03*
X109983000Y-52943000D03*
X109983000Y-53743000D03*
X109983000Y-54543000D03*
X109983000Y-55343000D03*
X109983000Y-56143000D03*
X109983000Y-56943000D03*
X109983000Y-57743000D03*
X109983000Y-58543000D03*
X109983000Y-59343000D03*
X109983000Y-60143000D03*
X109983000Y-60943000D03*
X109983000Y-61743000D03*
X109983000Y-62543000D03*
X109183000Y-52143000D03*
X109183000Y-52943000D03*
X109183000Y-53743000D03*
X109183000Y-54543000D03*
X109183000Y-55343000D03*
X109183000Y-56143000D03*
X109183000Y-56943000D03*
X109183000Y-57743000D03*
X109183000Y-58543000D03*
X109183000Y-59343000D03*
X109183000Y-60143000D03*
X109183000Y-60943000D03*
X109183000Y-61743000D03*
X109183000Y-62543000D03*
X108383000Y-52143000D03*
X108383000Y-52943000D03*
X108383000Y-53743000D03*
X108383000Y-54543000D03*
X108383000Y-55343000D03*
X108383000Y-56143000D03*
X108383000Y-56943000D03*
X108383000Y-57743000D03*
X108383000Y-58543000D03*
X108383000Y-59343000D03*
X108383000Y-60143000D03*
X108383000Y-60943000D03*
X108383000Y-61743000D03*
X108383000Y-62543000D03*
%TD*%
D15*
%TO.C,Y4*%
X135338800Y-68743000D03*
X133488800Y-68743000D03*
%TD*%
D25*
%TO.C,Q3*%
X125333000Y-71668000D03*
X123433000Y-71668000D03*
X124383000Y-73543000D03*
%TD*%
D26*
%TO.C,BNO085*%
X101759000Y-42106000D03*
X101759000Y-42606000D03*
X101759000Y-43106000D03*
X101759000Y-43606000D03*
X101759000Y-44106000D03*
X101759000Y-44606000D03*
X101759000Y-45106000D03*
X101759000Y-45606000D03*
X101759000Y-46106000D03*
D27*
X100946000Y-46169000D03*
X100446000Y-46169000D03*
X99946000Y-46169000D03*
X99446000Y-46169000D03*
D26*
X98633000Y-46106000D03*
X98633000Y-45606000D03*
X98633000Y-45106000D03*
X98633000Y-44606000D03*
X98633000Y-44106000D03*
X98633000Y-43606000D03*
X98633000Y-43106000D03*
X98633000Y-42606000D03*
X98633000Y-42106000D03*
X98633000Y-41606000D03*
D27*
X99446000Y-41543000D03*
X99946000Y-41543000D03*
X100446000Y-41543000D03*
X100946000Y-41543000D03*
D26*
X101759000Y-41606000D03*
%TD*%
D12*
%TO.C,R12*%
X122220500Y-47893000D03*
X124045500Y-47893000D03*
%TD*%
%TO.C,R29*%
X123383000Y-76043000D03*
X125208000Y-76043000D03*
%TD*%
D14*
%TO.C,D4*%
X128258000Y-45643000D03*
X126508000Y-45643000D03*
%TD*%
D28*
%TO.C,Y3*%
X105020500Y-42918000D03*
X105020500Y-44768000D03*
%TD*%
D16*
%TO.C,R7*%
X102483000Y-68993000D03*
X100658000Y-68993000D03*
%TD*%
D12*
%TO.C,R10*%
X109120500Y-69543000D03*
X110945500Y-69543000D03*
%TD*%
D25*
%TO.C,Q1*%
X115833000Y-71668000D03*
X113933000Y-71668000D03*
X114883000Y-73543000D03*
%TD*%
D29*
%TO.C,ADXL375*%
X114283000Y-44543000D03*
X114283000Y-43743000D03*
X114283000Y-42943000D03*
X114283000Y-42143000D03*
X114283000Y-41343000D03*
X114283000Y-40543000D03*
D30*
X113185000Y-40445000D03*
D29*
X112087000Y-40543000D03*
X112087000Y-41343000D03*
X112087000Y-42143000D03*
X112087000Y-42943000D03*
X112087000Y-43743000D03*
X112087000Y-44543000D03*
D30*
X113185000Y-44641000D03*
%TD*%
D16*
%TO.C,R28*%
X125295500Y-69043000D03*
X123470500Y-69043000D03*
%TD*%
D12*
%TO.C,R21*%
X113970500Y-76043000D03*
X115795500Y-76043000D03*
%TD*%
%TO.C,C16*%
X104998500Y-54143000D03*
X103173500Y-54143000D03*
%TD*%
D13*
%TO.C,C10*%
X100883000Y-59893000D03*
X100883000Y-61718000D03*
%TD*%
D16*
%TO.C,R1*%
X95545500Y-57793000D03*
X93720500Y-57793000D03*
%TD*%
%TO.C,R5*%
X124133000Y-43393000D03*
X122308000Y-43393000D03*
%TD*%
D12*
%TO.C,C21*%
X103173500Y-56393000D03*
X104998500Y-56393000D03*
%TD*%
D31*
%TO.C,U-BLOX_ZOE_M8Q-0-1*%
X132663800Y-64339000D03*
X133663800Y-64339000D03*
X133663800Y-63339000D03*
X132663800Y-63339000D03*
X132163800Y-63339000D03*
X132163800Y-63839000D03*
X132163800Y-64339000D03*
X132163800Y-64839000D03*
X132663800Y-64839000D03*
X133163800Y-64839000D03*
X133663800Y-64839000D03*
X134163800Y-64839000D03*
X134163800Y-64339000D03*
X134163800Y-63839000D03*
X134163800Y-62839000D03*
X133663800Y-62839000D03*
X133163800Y-62839000D03*
X132663800Y-62839000D03*
X132163800Y-62839000D03*
X131163800Y-62339000D03*
X131163800Y-62839000D03*
X131163800Y-63339000D03*
X131163800Y-63839000D03*
X131163800Y-64339000D03*
X131163800Y-64839000D03*
X131163800Y-65339000D03*
X131163800Y-65839000D03*
X131663800Y-65839000D03*
X132163800Y-65839000D03*
X132663800Y-65839000D03*
X133163800Y-65839000D03*
X133663800Y-65839000D03*
X134163800Y-65839000D03*
X134663800Y-65839000D03*
X135163800Y-65839000D03*
X135163800Y-65339000D03*
X135163800Y-64839000D03*
X135163800Y-64339000D03*
X135163800Y-63839000D03*
X135163800Y-63339000D03*
X135163800Y-62839000D03*
X135163800Y-62339000D03*
X135163800Y-61839000D03*
X134663800Y-61839000D03*
X134163800Y-61839000D03*
X133663800Y-61839000D03*
X133163800Y-61839000D03*
X132663800Y-61839000D03*
X132163800Y-61839000D03*
X131663800Y-61839000D03*
X131163800Y-61839000D03*
%TD*%
D16*
%TO.C,R2*%
X95545500Y-60043000D03*
X93720500Y-60043000D03*
%TD*%
D32*
%TO.C,USB_C_Receptacle_USB2.0_14P1*%
X85960000Y-63700000D03*
X89890000Y-63700000D03*
X85960000Y-53480000D03*
X89890000Y-53480000D03*
D33*
X90465000Y-55390000D03*
X90465000Y-56190000D03*
D34*
X90465000Y-56840000D03*
X90465000Y-57840000D03*
X90465000Y-59340000D03*
X90465000Y-60340000D03*
D33*
X90465000Y-60990000D03*
X90465000Y-61790000D03*
X90465000Y-61790000D03*
X90465000Y-60990000D03*
D34*
X90465000Y-59840000D03*
X90465000Y-58840000D03*
X90465000Y-58340000D03*
X90465000Y-57340000D03*
D33*
X90465000Y-56190000D03*
X90465000Y-55390000D03*
%TD*%
D22*
%TO.C,R19*%
X109683000Y-41755500D03*
X109683000Y-39930500D03*
%TD*%
D12*
%TO.C,R9*%
X122220500Y-45643000D03*
X124045500Y-45643000D03*
%TD*%
D25*
%TO.C,Q2*%
X120583000Y-71668000D03*
X118683000Y-71668000D03*
X119633000Y-73543000D03*
%TD*%
D35*
%TO.C,D7*%
X132683000Y-58643000D03*
X132683000Y-57643000D03*
%TD*%
D12*
%TO.C,C33*%
X105883000Y-46743000D03*
X104058000Y-46743000D03*
%TD*%
M02*
