M48
INCH
T1C0.0059
T2C0.0079
T3C0.0118
T4C0.0157
T5C0.0197
T6C0.0197
T7C0.0315
T8C0.0433
T9C0.0984
%
G90
G05
T1
X5.0859Y-2.5492
T2
X3.393Y-1.7458
X3.6371Y-2.3048
X3.6371Y-2.3285
X3.6411Y-2.1651
X3.83Y-2.2733
X3.8556Y-2.3993
X3.8556Y-2.423
X3.8655Y-2.0489
X3.8694Y-1.9938
X3.8773Y-2.3757
X4.0072Y-1.6041
X4.1647Y-2.7812
X4.1804Y-2.4034
X4.2041Y-2.3554
X4.2041Y-2.4387
X4.2041Y-2.6434
X4.2119Y-2.1906
X4.2356Y-2.167
X4.2356Y-2.4505
X4.2375Y-2.2439
X4.2395Y-2.1356
X4.2415Y-2.418
X4.2827Y-2.1633
X4.3143Y-2.2261
X4.3143Y-2.2576
X4.3379Y-2.5922
X4.3409Y-1.8718
X4.3409Y-1.9948
X4.3458Y-2.1316
X4.3458Y-2.2576
X4.3458Y-2.2891
X4.3458Y-2.4151
X4.3458Y-2.4466
X4.3773Y-2.1631
X4.3773Y-2.2576
X4.3773Y-2.3206
X4.3773Y-2.4151
X4.3773Y-2.4781
X4.4048Y-2.73
X4.4088Y-2.0686
X4.4088Y-2.1946
X4.4088Y-2.3836
X4.4095Y-2.1001
X4.4127Y-2.4978
X4.4392Y-2.4876
X4.4393Y-2.3206
X4.4399Y-2.2231
X4.4403Y-1.9978
X4.4403Y-2.1316
X4.4403Y-2.2576
X4.4403Y-2.3521
X4.4717Y-2.1945
X4.4718Y-1.9978
X4.4718Y-2.2576
X4.4738Y-1.919
X4.4786Y-2.5834
X4.5033Y-2.2261
X4.5033Y-2.3206
X4.5033Y-2.4151
X4.523Y-2.5175
X4.5348Y-2.0332
X4.5348Y-2.4466
X4.5348Y-2.3836
X4.536Y-2.3509
X4.5479Y-2.524
X4.5505Y-1.9387
X4.5661Y-2.1632
X4.5661Y-2.225
X4.5663Y-2.1001
X4.5663Y-2.2891
X4.5919Y-1.9958
X4.5978Y-2.3521
X4.6293Y-2.2576
X4.6562Y-2.0208
X4.6568Y-2.6395
X4.6607Y-2.2261
X4.6962Y-2.2891
X4.6967Y-2.4782
X4.7001Y-2.1651
X4.7001Y-2.0312
X4.7164Y-2.6665
X4.7218Y-1.8383
X4.7274Y-2.1616
X4.7277Y-2.2613
X4.7277Y-2.3206
X4.7277Y-2.3463
X4.7277Y-2.3699
X4.7277Y-2.482
X4.7284Y-2.4262
X4.7367Y-2.6501
X4.7552Y-1.8383
X4.7572Y-2.2989
X4.7749Y-2.4387
X4.7789Y-2.4781
X4.8084Y-2.61
X4.8202Y-2.0037
X4.8261Y-1.6356
X4.83Y-2.3718
X4.8547Y-2.3668
X4.8615Y-2.5647
X4.8714Y-1.9741
X4.8793Y-2.5962
X4.885Y-2.3719
X4.9009Y-2.5647
X4.9757Y-2.5293
X4.9796Y-2.4781
X5.085Y-2.6434
X5.1293Y-1.9741
X5.1293Y-2.0135
X5.1293Y-2.0489
X5.1293Y-2.1552
X5.1293Y-2.2143
X5.1293Y-2.2497
X5.1293Y-2.3009
X5.1293Y-2.3285
X5.1293Y-2.356
X5.1293Y-2.3836
X5.1293Y-2.4325
X5.1293Y-2.4938
X5.1293Y-2.5214
X5.1293Y-2.5489
X5.1293Y-2.0859
X5.1332Y-2.6198
X5.1607Y-1.9741
X5.1647Y-2.3833
X5.1686Y-2.2064
X5.1883Y-2.6198
X5.1922Y-1.9741
X5.2001Y-2.3833
X5.2041Y-2.2064
X5.208Y-1.9111
X5.2237Y-2.6198
X5.2277Y-1.9741
X5.2434Y-2.2064
X5.2552Y-2.3836
X5.2592Y-1.9741
X5.2592Y-2.6198
X5.2749Y-2.2064
X5.2867Y-2.3836
X5.2946Y-1.9741
X5.3064Y-2.2064
X5.3222Y-2.3836
X5.3222Y-2.6198
X5.33Y-1.9741
X5.334Y-2.2064
X5.3615Y-1.9741
X5.3615Y-2.0489
X5.3615Y-2.0804
X5.3615Y-2.1119
X5.3615Y-2.1434
X5.3615Y-2.1749
X5.3615Y-2.2064
X5.3615Y-2.297
X5.3615Y-2.3836
X5.3615Y-2.4151
X5.3615Y-2.4505
X5.3615Y-2.4859
X5.3615Y-2.5214
X5.3615Y-2.6198
X5.3621Y-2.5476
T3
X3.3064Y-2.1041
X3.3104Y-2.5056
X3.3222Y-2.4151
X3.3478Y-1.9466
X3.4245Y-2.3009
X3.4285Y-2.171
X3.4796Y-2.1631
X3.4806Y-2.2812
X3.5072Y-2.5962
X3.5682Y-1.7911
X3.5702Y-1.9151
X3.5722Y-1.8698
X3.6214Y-2.1395
X3.6903Y-2.7743
X3.6922Y-2.6749
X3.6922Y-2.7261
X3.7474Y-2.6789
X3.7513Y-2.7497
X3.7515Y-2.5625
X3.8064Y-1.7497
X3.8064Y-1.797
X3.8104Y-1.6277
X3.8222Y-1.5371
X3.8261Y-2.3718
X3.8773Y-1.9426
X3.8891Y-1.5844
X3.9127Y-2.6926
X3.9147Y-2.7537
X3.9206Y-2.3777
X3.9276Y-2.101
X3.9324Y-1.5844
X3.9442Y-1.9426
X3.9481Y-1.7556
X3.9713Y-2.0825
X3.9738Y-2.043
X3.9757Y-1.5883
X3.9954Y-2.2202
X4.0072Y-1.8875
X4.0072Y-1.9586
X4.0151Y-1.5371
X4.0593Y-2.42
X4.0623Y-1.73
X4.084Y-2.6198
X4.0978Y-1.8915
X4.1529Y-2.0814
X4.1529Y-2.7096
X4.1653Y-2.1856
X4.1686Y-1.5489
X4.1765Y-2.2574
X4.2434Y-2.0096
X4.2434Y-2.0489
X4.2474Y-1.4072
X4.2848Y-2.5312
X4.3733Y-1.4269
X4.393Y-2.8147
X4.4009Y-2.6985
X4.4285Y-2.7793
X4.4324Y-2.6985
X4.4324Y-2.73
X4.4377Y-2.6502
X4.4816Y-1.8777
X4.5092Y-1.856
X4.5175Y-2.6025
X4.5426Y-2.0056
X4.5604Y-1.8462
X4.5781Y-1.5962
X4.5893Y-2.6024
X4.5899Y-1.734
X4.5899Y-1.8048
X4.5978Y-1.6592
X4.6174Y-2.6316
X4.6214Y-2.0096
X4.6667Y-2.6661
X4.6745Y-2.7678
X4.6765Y-1.8757
X4.706Y-2.7478
X4.7277Y-1.5293
X4.7316Y-1.36
X4.771Y-2.108
X4.8615Y-1.6237
X4.8714Y-3.0371
X4.8812Y-2.1237
X4.9009Y-1.3639
X4.9093Y-2.7596
X4.9127Y-1.4505
X4.9757Y-2.4466
X4.9786Y-2.4103
X4.9895Y-2.7202
X5.1017Y-1.8875
T4
X4.4088Y-3.1434
X4.6096Y-3.1356
X4.7474Y-2.923
X4.7493Y-2.8836
X4.7907Y-2.9111
X4.7926Y-2.8718
X4.8104Y-3.1356
X4.9639Y-2.2773
X4.9796Y-2.167
X5.0407Y-2.4604
X5.0407Y-2.7832
X5.0426Y-2.1343
X5.2526Y-2.8331
X5.2631Y-1.8127
X5.2631Y-1.8688
T5
X3.4147Y-2.7793
T6
X3.5063Y-1.5589
X3.5072Y-3.0509
X3.528Y-1.5067
X3.528Y-1.6111
X3.5288Y-2.9987
X3.5288Y-3.1031
X3.5802Y-1.4851
X3.5802Y-1.6327
X3.581Y-2.9771
X3.581Y-3.1247
X3.6324Y-1.5067
X3.6324Y-1.6111
X3.6332Y-2.9987
X3.6332Y-3.1031
X3.654Y-1.5589
X3.6548Y-3.0509
X4.9982Y-1.5589
X4.9982Y-3.0508
X5.0198Y-1.5067
X5.0198Y-1.6111
X5.0198Y-2.9986
X5.0198Y-3.103
X5.072Y-1.4851
X5.072Y-1.6327
X5.072Y-2.977
X5.072Y-3.1246
X5.1242Y-1.5067
X5.1242Y-1.6111
X5.1242Y-2.9986
X5.1242Y-3.103
X5.1459Y-1.5589
X5.1459Y-3.0508
T7
X3.7867Y-1.3308
X3.7867Y-1.4308
X3.8891Y-2.5391
X3.9891Y-2.5391
X4.0308Y-3.1572
X4.0308Y-3.2572
X4.2089Y-3.0027
X4.2425Y-2.9102
T8
X3.8064Y-3.1907
X3.9064Y-3.1907
X4.1576Y-3.1907
X4.2576Y-3.1907
X4.3576Y-3.1907
X4.4576Y-3.1907
X4.5576Y-3.1907
X4.6576Y-3.1907
X4.7576Y-3.1907
X4.8576Y-3.1907
T9
X3.5802Y-1.5589
X3.581Y-3.0509
X5.072Y-1.5589
X5.072Y-3.0508
M30
