%TF.GenerationSoftware,KiCad,Pcbnew,8.0.7*%
%TF.CreationDate,2026-03-28T05:21:42-04:00*%
%TF.ProjectId,main,6d61696e-2e6b-4696-9361-645f70636258,rev?*%
%TF.SameCoordinates,Original*%
%TF.FileFunction,Copper,L3,Inr*%
%TF.FilePolarity,Positive*%
%FSLAX46Y46*%
G04 Gerber Fmt 4.6, Leading zero omitted, Abs format (unit mm)*
G04 Created by KiCad (PCBNEW 8.0.7) date 2026-03-28 05:21:42*
%MOMM*%
%LPD*%
G01*
G04 APERTURE LIST*
%TA.AperFunction,ComponentPad*%
%ADD10C,1.400000*%
%TD*%
%TA.AperFunction,ComponentPad*%
%ADD11C,1.650000*%
%TD*%
%TA.AperFunction,ComponentPad*%
%ADD12R,1.650000X1.650000*%
%TD*%
%TA.AperFunction,ComponentPad*%
%ADD13C,1.600000*%
%TD*%
%TA.AperFunction,ComponentPad*%
%ADD14C,0.800000*%
%TD*%
%TA.AperFunction,ComponentPad*%
%ADD15C,5.000000*%
%TD*%
%TA.AperFunction,ViaPad*%
%ADD16C,0.600000*%
%TD*%
%TA.AperFunction,ViaPad*%
%ADD17C,0.450000*%
%TD*%
%TA.AperFunction,ViaPad*%
%ADD18C,0.800000*%
%TD*%
%TA.AperFunction,ViaPad*%
%ADD19C,1.000000*%
%TD*%
%TA.AperFunction,ViaPad*%
%ADD20C,0.500000*%
%TD*%
%TA.AperFunction,Conductor*%
%ADD21C,2.000000*%
%TD*%
%TA.AperFunction,Conductor*%
%ADD22C,1.500000*%
%TD*%
%TA.AperFunction,Conductor*%
%ADD23C,0.400000*%
%TD*%
%TA.AperFunction,Conductor*%
%ADD24C,0.155000*%
%TD*%
%TA.AperFunction,Conductor*%
%ADD25C,1.000000*%
%TD*%
G04 APERTURE END LIST*
D10*
%TO.N,+3.3V*%
%TO.C,TP1*%
X96183000Y-36343000D03*
%TO.N,GNDREF*%
X96183000Y-33803000D03*
%TD*%
%TO.N,/Reserve_TX*%
%TO.C,TP2*%
X98783000Y-64493000D03*
%TO.N,/Reserve_RX*%
X101323000Y-64493000D03*
%TD*%
D11*
%TO.N,Net-(ScrewTerminal2-Pin_2)*%
%TO.C,ScrewTerminal2*%
X99223000Y-81043000D03*
D12*
%TO.N,GNDREF*%
X96683000Y-81043000D03*
%TD*%
D10*
%TO.N,+7.5V*%
%TO.C,TP3*%
X102383000Y-80193000D03*
%TO.N,GNDREF*%
X102383000Y-82733000D03*
%TD*%
D12*
%TO.N,+7.5V*%
%TO.C,ScrewTerminal1*%
X105603000Y-81043000D03*
D11*
%TO.N,/HighCurrentComponents/7.5V_AftSwitch*%
X108143000Y-81043000D03*
X110683000Y-81043000D03*
%TO.N,/HighCurrentComponents/Pyro1_HighSide*%
X113223000Y-81043000D03*
%TO.N,/HighCurrentComponents/7.5V_AftSwitch*%
X115763000Y-81043000D03*
%TO.N,/HighCurrentComponents/Pyro2_HighSide*%
X118303000Y-81043000D03*
%TO.N,/HighCurrentComponents/7.5V_AftSwitch*%
X120843000Y-81043000D03*
%TO.N,/HighCurrentComponents/Pyro3_HighSide*%
X123383000Y-81043000D03*
%TD*%
D13*
%TO.N,+7.5V*%
%TO.C,C41*%
X106905475Y-76267615D03*
%TO.N,GNDREF*%
X107760525Y-73918383D03*
%TD*%
D14*
%TO.N,N/C*%
%TO.C,REF\u002A\u002A*%
X126955000Y-77490000D03*
X127504175Y-76164175D03*
X127504175Y-78815825D03*
X128830000Y-75615000D03*
D15*
X128830000Y-77490000D03*
D14*
X128830000Y-79365000D03*
X130155825Y-76164175D03*
X130155825Y-78815825D03*
X130705000Y-77490000D03*
%TD*%
%TO.N,N/C*%
%TO.C,REF\u002A\u002A*%
X89061000Y-39596000D03*
X89610175Y-38270175D03*
X89610175Y-40921825D03*
X90936000Y-37721000D03*
D15*
X90936000Y-39596000D03*
D14*
X90936000Y-41471000D03*
X92261825Y-38270175D03*
X92261825Y-40921825D03*
X92811000Y-39596000D03*
%TD*%
%TO.N,N/C*%
%TO.C,REF\u002A\u002A*%
X126955000Y-39596000D03*
X127504175Y-38270175D03*
X127504175Y-40921825D03*
X128830000Y-37721000D03*
D15*
X128830000Y-39596000D03*
D14*
X128830000Y-41471000D03*
X130155825Y-38270175D03*
X130155825Y-40921825D03*
X130705000Y-39596000D03*
%TD*%
%TO.N,N/C*%
%TO.C,REF\u002A\u002A*%
X89082175Y-77493000D03*
X89631350Y-76167175D03*
X89631350Y-78818825D03*
X90957175Y-75618000D03*
D15*
X90957175Y-77493000D03*
D14*
X90957175Y-79368000D03*
X92283000Y-76167175D03*
X92283000Y-78818825D03*
X92832175Y-77493000D03*
%TD*%
D16*
%TO.N,GNDREF*%
X119533000Y-69793000D03*
D17*
X110183000Y-65843000D03*
D18*
X126483000Y-55043000D03*
D16*
X84083000Y-63643000D03*
D17*
X122583000Y-41543000D03*
D18*
X122183000Y-79643000D03*
D17*
X135383000Y-50143000D03*
X133583000Y-50143000D03*
D16*
X85033000Y-49443000D03*
X115833000Y-46893000D03*
X99433000Y-69943000D03*
D17*
X130285001Y-52980740D03*
X135483000Y-56043000D03*
D16*
X114743499Y-66103634D03*
X105483000Y-68824250D03*
D17*
X108780636Y-54947729D03*
D16*
X97183000Y-60243000D03*
D17*
X136183000Y-62243000D03*
X134483000Y-50143000D03*
D16*
X123983000Y-53943000D03*
D17*
X115183000Y-62143000D03*
D16*
X121183000Y-53543000D03*
D17*
X119283000Y-58143000D03*
X132783000Y-50143000D03*
D16*
X90683000Y-48643000D03*
D19*
X86733000Y-70593000D03*
D17*
X130283000Y-64743000D03*
D16*
X126383000Y-62143000D03*
X89083000Y-65943000D03*
D17*
X111983000Y-52543000D03*
D16*
X104083000Y-48043000D03*
X93783000Y-69243000D03*
X93783000Y-67943000D03*
D17*
X136183000Y-52843000D03*
X107583000Y-62243000D03*
X112783000Y-57343000D03*
D16*
X112483000Y-70593000D03*
X116783000Y-42143000D03*
X124483000Y-34643000D03*
D17*
X131083000Y-50143000D03*
X119295808Y-62945499D03*
X134783000Y-56043000D03*
X131183000Y-60535001D03*
X130283000Y-52043000D03*
X130283000Y-60543000D03*
X130283000Y-58443000D03*
X136183000Y-56043000D03*
D18*
X133416000Y-71960000D03*
X126083000Y-57843000D03*
D17*
X135183000Y-66543000D03*
D16*
X123733000Y-77143000D03*
D17*
X130283000Y-56243000D03*
X136183000Y-53643000D03*
D16*
X124783000Y-36843000D03*
X98783000Y-40243000D03*
X105483000Y-52868500D03*
D17*
X131283000Y-56043000D03*
D18*
X117083000Y-79643000D03*
D17*
X136183000Y-54443000D03*
X136183000Y-66543000D03*
D16*
X87083000Y-55143000D03*
D17*
X136183000Y-64043000D03*
D16*
X124695500Y-70093000D03*
D17*
X111183000Y-61343000D03*
D16*
X101483000Y-56393000D03*
X107783000Y-52043000D03*
X101783000Y-49749000D03*
D17*
X132083000Y-60535000D03*
X131783000Y-66543000D03*
D16*
X106083000Y-57338500D03*
D17*
X130283000Y-59143000D03*
X130283000Y-57143000D03*
X135183000Y-60543000D03*
D16*
X96783000Y-41343000D03*
D17*
X136183000Y-61343000D03*
D16*
X120183000Y-34543000D03*
X117283000Y-66843000D03*
X95283000Y-69843000D03*
X99760001Y-53365999D03*
X105883000Y-39343000D03*
X129583000Y-47943000D03*
D17*
X133583000Y-66543000D03*
X136183000Y-58343000D03*
D16*
X117383000Y-51043000D03*
X88408000Y-57943000D03*
D17*
X130383000Y-66543000D03*
D16*
X83983000Y-53443000D03*
X103183000Y-43943000D03*
D17*
X115983000Y-53343000D03*
X136183000Y-50143000D03*
X130283000Y-51143000D03*
X130283000Y-54743000D03*
X130283000Y-50143000D03*
X119382613Y-54992421D03*
D16*
X84383000Y-61343000D03*
D17*
X130283000Y-63343000D03*
X131883000Y-50143000D03*
X136183000Y-52043000D03*
D16*
X103107000Y-61467000D03*
D17*
X133183000Y-56043000D03*
D16*
X118533000Y-67718000D03*
D17*
X119383000Y-51593000D03*
X136183000Y-63143000D03*
X130283000Y-59843000D03*
D16*
X111583000Y-71493000D03*
D17*
X101783000Y-40743000D03*
D16*
X120083000Y-38843000D03*
X93733000Y-70468000D03*
X112718340Y-67316302D03*
D17*
X132183000Y-56043000D03*
D16*
X115383000Y-50943000D03*
D17*
X134283000Y-60543000D03*
X129158000Y-67143000D03*
X133983000Y-56043000D03*
X133483000Y-60543000D03*
X130283000Y-61785000D03*
D16*
X100934156Y-51891844D03*
D17*
X113583000Y-57343000D03*
X136183000Y-55243000D03*
X136196088Y-64710107D03*
D16*
X101983000Y-39043000D03*
D17*
X136183000Y-60543000D03*
D16*
X116583000Y-44043000D03*
D17*
X130283000Y-64043000D03*
D16*
X118733000Y-70301000D03*
D17*
X132683000Y-66543000D03*
D16*
X107883000Y-35743000D03*
D18*
X133683000Y-47468000D03*
X111983000Y-79843000D03*
D16*
X95183000Y-68043000D03*
D18*
%TO.N,+7.5V*%
X133683000Y-46043000D03*
X128033000Y-62493000D03*
D16*
X112583000Y-69343000D03*
X116567060Y-66101840D03*
D17*
X111883000Y-69343000D03*
D16*
X112583000Y-68543000D03*
X111783000Y-68543000D03*
D18*
X128083000Y-54210000D03*
X128033000Y-70693000D03*
D16*
%TO.N,+3.3V*%
X86983000Y-58443000D03*
X90633000Y-45493000D03*
X98483000Y-49343000D03*
X91983000Y-54343000D03*
X116283000Y-40543000D03*
X100283000Y-44593000D03*
D18*
X120633000Y-73243000D03*
D17*
X112757838Y-58943001D03*
D18*
X121683000Y-73943000D03*
D16*
X88383000Y-54943000D03*
X108833000Y-64293000D03*
X100871165Y-52895365D03*
X99383000Y-68393000D03*
X90733000Y-47493000D03*
D17*
X110383000Y-58143000D03*
D16*
X116583000Y-45843000D03*
D18*
X121733000Y-72943000D03*
D16*
X100983000Y-40343000D03*
D17*
X111183000Y-54943000D03*
D18*
X120583000Y-74243000D03*
D17*
X106783000Y-61943000D03*
X112774515Y-56468000D03*
D16*
X111083000Y-36243000D03*
X126455500Y-61220499D03*
X123483000Y-41243000D03*
X105798000Y-55513500D03*
X126733000Y-69093000D03*
X118783000Y-47643000D03*
D17*
X115980000Y-54946000D03*
%TO.N,/PTA3*%
X113580501Y-55740501D03*
X126483000Y-62943000D03*
X114383000Y-58943000D03*
X123310001Y-60115999D03*
X126383000Y-64243000D03*
X120083000Y-57437932D03*
%TO.N,/PTA5*%
X124483000Y-65143000D03*
%TO.N,/PTA7*%
X123483000Y-65143000D03*
%TO.N,/PTA6*%
X123933000Y-65943000D03*
%TO.N,/PTB5*%
X122683000Y-60243000D03*
%TO.N,/PTA4*%
X115213889Y-59712111D03*
%TO.N,/PTA1*%
X124079967Y-60246033D03*
%TO.N,/PTB4*%
X116783000Y-59743000D03*
%TO.N,/PTB1*%
X109583000Y-56543000D03*
X120100466Y-61625534D03*
X120833000Y-58393000D03*
%TO.N,/PTB0*%
X115183001Y-60542999D03*
%TO.N,/P11*%
X105783000Y-70643000D03*
X106183000Y-61045500D03*
%TO.N,/M1M2*%
X113635500Y-48743000D03*
X114383000Y-56543000D03*
%TO.N,/Reserve_TX*%
X114884302Y-63944953D03*
%TO.N,Net-(MIMXRT1062DVL6B1-VDD_USB_CAP)*%
X111183000Y-57343000D03*
X107733000Y-61418000D03*
%TO.N,/D0*%
X86183000Y-44343000D03*
%TO.N,/CS*%
X110383000Y-54143000D03*
%TO.N,/D2*%
X107583000Y-55043000D03*
%TO.N,/CLK*%
X98283000Y-50643000D03*
%TO.N,/D1*%
X107683000Y-54243000D03*
%TO.N,/D3*%
X98183000Y-52043000D03*
%TO.N,/BMP390_SCL1*%
X111183000Y-58943000D03*
D20*
X129183000Y-64748800D03*
D17*
%TO.N,/BMP390_SDA1*%
X122133000Y-66293000D03*
D16*
X103733000Y-66543000D03*
D17*
X112756585Y-63184517D03*
D16*
X95289250Y-65086750D03*
D17*
%TO.N,/Xbee_TX*%
X92483000Y-54993000D03*
X97283000Y-57743000D03*
X106783000Y-59828000D03*
X98483000Y-60343000D03*
D16*
%TO.N,/Xbee_RX*%
X99583000Y-60393000D03*
D17*
X112783000Y-59743000D03*
%TO.N,/Cam_TX*%
X118383000Y-56543000D03*
X97933000Y-61543003D03*
%TO.N,/Cam_RX*%
X97933000Y-60943000D03*
X115980000Y-56515540D03*
%TO.N,/PyroCH3_4*%
X120313034Y-67312966D03*
X117583000Y-57343000D03*
%TO.N,/ADXL375_SDA2*%
X110383000Y-62143000D03*
D16*
X113833000Y-47693000D03*
D17*
%TO.N,/SD_B0_02*%
X110258000Y-47543000D03*
%TO.N,/PyroCH1_2*%
X115183000Y-51643000D03*
X118283000Y-67043000D03*
%TO.N,/BMO085_SDA*%
X111983000Y-55743000D03*
D16*
X101783000Y-47943000D03*
D17*
%TO.N,/EMC_24*%
X119933000Y-46693000D03*
%TO.N,/EMC_26*%
X123733000Y-50143000D03*
%TO.N,/SD_B0_04*%
X113583000Y-50743000D03*
%TO.N,/SD_B0_03*%
X110258000Y-50668000D03*
%TO.N,/SD_B0_00*%
X112783000Y-54143000D03*
%TO.N,/BMO085_SCL*%
X111983000Y-60543000D03*
D16*
X96683000Y-45643000D03*
X100183000Y-49343000D03*
%TO.N,/ADXL375_SCL2*%
X114533000Y-47143000D03*
D17*
X111183000Y-62943000D03*
%TO.N,/Pyro3_Test_39*%
X114383000Y-61343000D03*
%TO.N,/D+*%
X110383000Y-57343000D03*
X92383000Y-59143000D03*
%TO.N,/EMC_29*%
X115583000Y-49243000D03*
%TO.N,/Pyro1_Test_40*%
X110383000Y-61343000D03*
%TO.N,/Pyro2_Test_41*%
X113756698Y-65619302D03*
%TO.N,/D-*%
X92383000Y-58543000D03*
X109583000Y-57343000D03*
%TO.N,/Reserve_RX*%
X115515547Y-64110453D03*
%TO.N,/Servo1_PWM*%
X120083000Y-63043000D03*
%TO.N,/EMC_28*%
X116633000Y-50693000D03*
%TO.N,/EMC_27*%
X120783000Y-46693000D03*
%TO.N,/Servo4_PWM*%
X120083000Y-58943000D03*
%TO.N,/SD_B0_01*%
X112000602Y-53343000D03*
%TO.N,/PyroCH2_3*%
X119797331Y-67728669D03*
X115983000Y-58143000D03*
%TO.N,/Servo2_PWM*%
X120083000Y-60195500D03*
%TO.N,/Servo3_PWM*%
X120083000Y-59595497D03*
%TO.N,/EMC_25*%
X118268189Y-51328189D03*
%TO.N,/SD_B0_05*%
X112783000Y-50743000D03*
D16*
%TO.N,Net-(BNO1-BOOTN)*%
X99883000Y-40243000D03*
%TO.N,Net-(BNO1-NRST)*%
X96683000Y-44443000D03*
%TO.N,Net-(BNO1-H_SA0{slash}MOSI)*%
X97083000Y-39043000D03*
%TO.N,Net-(MIMXRT1062DVL6B1-DCDC_IN_1)*%
X107783000Y-51043000D03*
D17*
%TO.N,Net-(MIMXRT1062DVL6B1-VDD_HIGH_CAP)*%
X106983000Y-55640500D03*
X107633000Y-56995500D03*
%TO.N,Net-(KMR241GLFS1-COM_1)*%
X121383000Y-62943000D03*
X132283000Y-48543000D03*
%TO.N,Net-(MIMXRT1062DVL6B1-GPIO_B0_03)*%
X122433000Y-50893000D03*
X120075500Y-54905500D03*
%TO.N,Net-(MKL02Z32VFG1-PTB3{slash}IRQ_10)*%
X121283000Y-61943000D03*
%TO.N,Net-(MIMXRT1062DVL6B1-GPIO_AD_B1_15)*%
X106783000Y-67143000D03*
X112083000Y-63443000D03*
%TD*%
D21*
%TO.N,+7.5V*%
X105603000Y-81043000D02*
X105603000Y-78843000D01*
D22*
X124883000Y-75843000D02*
X128033000Y-72693000D01*
D21*
X105603000Y-81043000D02*
X103233000Y-81043000D01*
X105603000Y-77443000D02*
X105603000Y-73263000D01*
D22*
X128083000Y-54210000D02*
X128083000Y-47745943D01*
X110333000Y-68493000D02*
X105583000Y-73243000D01*
X128033000Y-70693000D02*
X128033000Y-62493000D01*
X129785943Y-46043000D02*
X133683000Y-46043000D01*
D21*
X105603000Y-73263000D02*
X105583000Y-73243000D01*
D22*
X112483000Y-69243000D02*
X109583000Y-69243000D01*
X107783000Y-76343000D02*
X106683000Y-77443000D01*
X108283000Y-75843000D02*
X107783000Y-76343000D01*
X128083000Y-47745943D02*
X129785943Y-46043000D01*
X128083000Y-62443000D02*
X128033000Y-62493000D01*
X105603000Y-75843000D02*
X108283000Y-75843000D01*
D23*
X114175900Y-68493000D02*
X116567060Y-66101840D01*
D22*
X109583000Y-69243000D02*
X107933000Y-70893000D01*
X107933000Y-70893000D02*
X105583000Y-73243000D01*
D21*
X103233000Y-81043000D02*
X102383000Y-80193000D01*
X105603000Y-78843000D02*
X105603000Y-77443000D01*
D22*
X128083000Y-54210000D02*
X128083000Y-62443000D01*
D21*
X105603000Y-78843000D02*
X105603000Y-78523000D01*
D23*
X112483000Y-68493000D02*
X114175900Y-68493000D01*
D22*
X106683000Y-77443000D02*
X105603000Y-77443000D01*
D21*
X105603000Y-78523000D02*
X107783000Y-76343000D01*
D22*
X128033000Y-72693000D02*
X128033000Y-70693000D01*
X108283000Y-75843000D02*
X124883000Y-75843000D01*
X112483000Y-68493000D02*
X110333000Y-68493000D01*
D24*
%TO.N,/PTA3*%
X113580501Y-55740501D02*
X114220433Y-55740501D01*
X114835500Y-56730432D02*
X114583000Y-56982932D01*
X114583000Y-58743000D02*
X114383000Y-58943000D01*
X114220433Y-55740501D02*
X114835500Y-56355568D01*
X114835500Y-56355568D02*
X114835500Y-56730432D01*
X114583000Y-56982932D02*
X114583000Y-58743000D01*
%TO.N,/Reserve_TX*%
X108871904Y-62915500D02*
X100560500Y-62915500D01*
X110136903Y-64180500D02*
X108871904Y-62915500D01*
X114884302Y-63944953D02*
X114648755Y-64180500D01*
X100560500Y-62915500D02*
X98783000Y-64693000D01*
X114648755Y-64180500D02*
X110136903Y-64180500D01*
%TO.N,Net-(MIMXRT1062DVL6B1-VDD_USB_CAP)*%
X107733000Y-61418000D02*
X107733000Y-61232932D01*
X110543068Y-58943000D02*
X111183000Y-58303068D01*
X110022932Y-58943000D02*
X110543068Y-58943000D01*
X111183000Y-58303068D02*
X111183000Y-57343000D01*
X107733000Y-61232932D02*
X110022932Y-58943000D01*
%TO.N,/PyroCH3_4*%
X117583000Y-64582932D02*
X117583000Y-57343000D01*
X120313034Y-67312966D02*
X117583000Y-64582932D01*
%TO.N,/ADXL375_SDA2*%
X111033000Y-62143000D02*
X110383000Y-62143000D01*
X113930500Y-57795500D02*
X113930500Y-59245500D01*
X113930500Y-59245500D02*
X111033000Y-62143000D01*
X114183000Y-54276740D02*
X113128001Y-55331739D01*
X113128001Y-55927933D02*
X114035500Y-56835432D01*
X114035500Y-56835432D02*
X114035500Y-57690500D01*
X113833000Y-47693000D02*
X114183000Y-48043000D01*
X114183000Y-48043000D02*
X114183000Y-54276740D01*
X113128001Y-55331739D02*
X113128001Y-55927933D01*
X114035500Y-57690500D02*
X113930500Y-57795500D01*
%TO.N,/PyroCH1_2*%
X115783000Y-59543000D02*
X115783000Y-62843000D01*
X115530500Y-59290500D02*
X115783000Y-59543000D01*
X115530500Y-57955568D02*
X115530500Y-59290500D01*
X115527500Y-54758568D02*
X115527500Y-57847568D01*
X115183000Y-51643000D02*
X115183000Y-54414068D01*
X115583000Y-57903068D02*
X115530500Y-57955568D01*
X116878000Y-65638000D02*
X118283000Y-67043000D01*
X115183000Y-54414068D02*
X115527500Y-54758568D01*
X116878000Y-63938000D02*
X116878000Y-65638000D01*
X115527500Y-57847568D02*
X115583000Y-57903068D01*
X115783000Y-62843000D02*
X116878000Y-63938000D01*
%TO.N,/BMO085_SDA*%
X111940500Y-55256768D02*
X111940500Y-54400500D01*
X111383000Y-53243000D02*
X106783000Y-48643000D01*
X111940500Y-54400500D02*
X111383000Y-53843000D01*
X102483000Y-48643000D02*
X101783000Y-47943000D01*
X111983000Y-55299268D02*
X111940500Y-55256768D01*
X111983000Y-55743000D02*
X111983000Y-55299268D01*
X111383000Y-53843000D02*
X111383000Y-53243000D01*
X106783000Y-48643000D02*
X102483000Y-48643000D01*
%TO.N,/BMO085_SCL*%
X110983000Y-54043000D02*
X110983000Y-53497002D01*
X111583000Y-60143000D02*
X111583000Y-59182932D01*
X110983000Y-53497002D02*
X107828998Y-50343000D01*
X111635500Y-59130432D02*
X111635500Y-57155568D01*
X111530500Y-55488104D02*
X111635500Y-55383104D01*
X111530500Y-55930432D02*
X111530500Y-55488104D01*
X107828998Y-50343000D02*
X101183000Y-50343000D01*
X111583000Y-55982932D02*
X111530500Y-55930432D01*
X111635500Y-55383104D02*
X111635500Y-54695500D01*
X111583000Y-59182932D02*
X111635500Y-59130432D01*
X111583000Y-57103068D02*
X111583000Y-55982932D01*
X111635500Y-54695500D02*
X110983000Y-54043000D01*
X101183000Y-50343000D02*
X100183000Y-49343000D01*
X111983000Y-60543000D02*
X111583000Y-60143000D01*
X111635500Y-57155568D02*
X111583000Y-57103068D01*
%TO.N,/ADXL375_SCL2*%
X114878000Y-54540404D02*
X115183000Y-54845404D01*
X114533000Y-47143000D02*
X114710500Y-47320500D01*
X111783000Y-62943000D02*
X111183000Y-62943000D01*
X114761389Y-59964611D02*
X111783000Y-62943000D01*
X114878000Y-52714336D02*
X114878000Y-54540404D01*
X114710500Y-52546836D02*
X114878000Y-52714336D01*
X115183000Y-59103068D02*
X114761389Y-59524679D01*
X114761389Y-59524679D02*
X114761389Y-59964611D01*
X114710500Y-47320500D02*
X114710500Y-52546836D01*
X115183000Y-54845404D02*
X115183000Y-59103068D01*
%TO.N,/Reserve_RX*%
X110010568Y-64485500D02*
X108968068Y-63443000D01*
X115515547Y-64110453D02*
X115140500Y-64485500D01*
X108968068Y-63443000D02*
X102573000Y-63443000D01*
X102573000Y-63443000D02*
X101323000Y-64693000D01*
X115140500Y-64485500D02*
X110010568Y-64485500D01*
%TO.N,/PyroCH2_3*%
X117183000Y-60782932D02*
X116283000Y-59882932D01*
X116283000Y-59882932D02*
X116283000Y-58443000D01*
X116283000Y-58443000D02*
X115983000Y-58143000D01*
X117183000Y-64822864D02*
X117183000Y-60782932D01*
X119797331Y-67728669D02*
X119797331Y-67437195D01*
X119797331Y-67437195D02*
X117183000Y-64822864D01*
D25*
%TO.N,/HighCurrentComponents/7.5V_AftSwitch*%
X108143000Y-81043000D02*
X110683000Y-81043000D01*
X114288000Y-82518000D02*
X115763000Y-81043000D01*
X117238000Y-82518000D02*
X119368000Y-82518000D01*
X115763000Y-81043000D02*
X117238000Y-82518000D01*
X112158000Y-82518000D02*
X114288000Y-82518000D01*
X110683000Y-81043000D02*
X112158000Y-82518000D01*
X119368000Y-82518000D02*
X120843000Y-81043000D01*
%TD*%
%TA.AperFunction,Conductor*%
%TO.N,+3.3V*%
G36*
X125326039Y-32562685D02*
G01*
X125371794Y-32615489D01*
X125383000Y-32667000D01*
X125383000Y-36515047D01*
X125363315Y-36582086D01*
X125310511Y-36627841D01*
X125241353Y-36637785D01*
X125177797Y-36608760D01*
X125165286Y-36596249D01*
X125081049Y-36499033D01*
X124972069Y-36428996D01*
X124972065Y-36428994D01*
X124972064Y-36428994D01*
X124847774Y-36392500D01*
X124847772Y-36392500D01*
X124718228Y-36392500D01*
X124718226Y-36392500D01*
X124593935Y-36428994D01*
X124593932Y-36428995D01*
X124593931Y-36428996D01*
X124542677Y-36461934D01*
X124484950Y-36499033D01*
X124400118Y-36596937D01*
X124400117Y-36596938D01*
X124346302Y-36714774D01*
X124327867Y-36843000D01*
X124346302Y-36971225D01*
X124367579Y-37017814D01*
X124400118Y-37089063D01*
X124484951Y-37186967D01*
X124593931Y-37257004D01*
X124718225Y-37293499D01*
X124718227Y-37293500D01*
X124718228Y-37293500D01*
X124847773Y-37293500D01*
X124847773Y-37293499D01*
X124972069Y-37257004D01*
X125081049Y-37186967D01*
X125165287Y-37089748D01*
X125224064Y-37051975D01*
X125293933Y-37051974D01*
X125352712Y-37089748D01*
X125381738Y-37153303D01*
X125383000Y-37170952D01*
X125383000Y-49943000D01*
X126859000Y-49943000D01*
X126926039Y-49962685D01*
X126971794Y-50015489D01*
X126983000Y-50067000D01*
X126983000Y-54481326D01*
X126963315Y-54548365D01*
X126910511Y-54594120D01*
X126841353Y-54604064D01*
X126783514Y-54579702D01*
X126760625Y-54562139D01*
X126760623Y-54562138D01*
X126626712Y-54506671D01*
X126626710Y-54506670D01*
X126626709Y-54506670D01*
X126538463Y-54495052D01*
X126483001Y-54487750D01*
X126482999Y-54487750D01*
X126339291Y-54506670D01*
X126339287Y-54506671D01*
X126205377Y-54562137D01*
X126090379Y-54650379D01*
X126002137Y-54765377D01*
X125946671Y-54899287D01*
X125946670Y-54899291D01*
X125927751Y-55042996D01*
X125927750Y-55043000D01*
X125944485Y-55170116D01*
X125946670Y-55186708D01*
X125946671Y-55186712D01*
X126002137Y-55320622D01*
X126002138Y-55320624D01*
X126002139Y-55320625D01*
X126090379Y-55435621D01*
X126205375Y-55523861D01*
X126339291Y-55579330D01*
X126466280Y-55596048D01*
X126482999Y-55598250D01*
X126483000Y-55598250D01*
X126483001Y-55598250D01*
X126497977Y-55596278D01*
X126626709Y-55579330D01*
X126760625Y-55523861D01*
X126783514Y-55506296D01*
X126848681Y-55481103D01*
X126917126Y-55495140D01*
X126967116Y-55543954D01*
X126983000Y-55604673D01*
X126983000Y-61815047D01*
X126963315Y-61882086D01*
X126910511Y-61927841D01*
X126841353Y-61937785D01*
X126777797Y-61908760D01*
X126765286Y-61896249D01*
X126681049Y-61799033D01*
X126661289Y-61786334D01*
X126572069Y-61728996D01*
X126572065Y-61728994D01*
X126572064Y-61728994D01*
X126447774Y-61692500D01*
X126447772Y-61692500D01*
X126318228Y-61692500D01*
X126318226Y-61692500D01*
X126193935Y-61728994D01*
X126193932Y-61728995D01*
X126193931Y-61728996D01*
X126154087Y-61754602D01*
X126084950Y-61799033D01*
X126000118Y-61896937D01*
X126000117Y-61896938D01*
X125946302Y-62014774D01*
X125927867Y-62143000D01*
X125946302Y-62271225D01*
X125987065Y-62360482D01*
X126000118Y-62389063D01*
X126084951Y-62486967D01*
X126112350Y-62504575D01*
X126152161Y-62530160D01*
X126197916Y-62582964D01*
X126207860Y-62652123D01*
X126180802Y-62711371D01*
X126181166Y-62711636D01*
X126179861Y-62713432D01*
X126178835Y-62715679D01*
X126176075Y-62718642D01*
X126175428Y-62719533D01*
X126121424Y-62825521D01*
X126121424Y-62825522D01*
X126102819Y-62942996D01*
X126102819Y-62943003D01*
X126121424Y-63060477D01*
X126121424Y-63060478D01*
X126121425Y-63060481D01*
X126121426Y-63060482D01*
X126172376Y-63160478D01*
X126175428Y-63166466D01*
X126175431Y-63166470D01*
X126259529Y-63250568D01*
X126259533Y-63250571D01*
X126259535Y-63250573D01*
X126365518Y-63304574D01*
X126365520Y-63304574D01*
X126365522Y-63304575D01*
X126482997Y-63323181D01*
X126483000Y-63323181D01*
X126483003Y-63323181D01*
X126600477Y-63304575D01*
X126600478Y-63304575D01*
X126600479Y-63304574D01*
X126600482Y-63304574D01*
X126706465Y-63250573D01*
X126737503Y-63219535D01*
X126771319Y-63185720D01*
X126832642Y-63152235D01*
X126902334Y-63157219D01*
X126958267Y-63199091D01*
X126982684Y-63264555D01*
X126983000Y-63273401D01*
X126983000Y-64076959D01*
X126963315Y-64143998D01*
X126910511Y-64189753D01*
X126841353Y-64199697D01*
X126777797Y-64170672D01*
X126748515Y-64133254D01*
X126744574Y-64125520D01*
X126744574Y-64125518D01*
X126690573Y-64019535D01*
X126690571Y-64019533D01*
X126690568Y-64019529D01*
X126606470Y-63935431D01*
X126606466Y-63935428D01*
X126606465Y-63935427D01*
X126500482Y-63881426D01*
X126500480Y-63881425D01*
X126500477Y-63881424D01*
X126383003Y-63862819D01*
X126382997Y-63862819D01*
X126265522Y-63881424D01*
X126265521Y-63881424D01*
X126159533Y-63935428D01*
X126159529Y-63935431D01*
X126075431Y-64019529D01*
X126075428Y-64019533D01*
X126021424Y-64125521D01*
X126021424Y-64125522D01*
X126002819Y-64242996D01*
X126002819Y-64243003D01*
X126021424Y-64360477D01*
X126021424Y-64360478D01*
X126075428Y-64466466D01*
X126075431Y-64466470D01*
X126159529Y-64550568D01*
X126159533Y-64550571D01*
X126159535Y-64550573D01*
X126265518Y-64604574D01*
X126265520Y-64604574D01*
X126265522Y-64604575D01*
X126382997Y-64623181D01*
X126383000Y-64623181D01*
X126383003Y-64623181D01*
X126500477Y-64604575D01*
X126500478Y-64604575D01*
X126500479Y-64604574D01*
X126500482Y-64604574D01*
X126606465Y-64550573D01*
X126690573Y-64466465D01*
X126744574Y-64360482D01*
X126744575Y-64360478D01*
X126748515Y-64352746D01*
X126796489Y-64301949D01*
X126864310Y-64285154D01*
X126930445Y-64307691D01*
X126973897Y-64362406D01*
X126983000Y-64409040D01*
X126983000Y-72418138D01*
X126963315Y-72485177D01*
X126946681Y-72505819D01*
X124745819Y-74706681D01*
X124684496Y-74740166D01*
X124658138Y-74743000D01*
X108575564Y-74743000D01*
X108508525Y-74723315D01*
X108462770Y-74670511D01*
X108452826Y-74601353D01*
X108479711Y-74540335D01*
X108554660Y-74449009D01*
X108554662Y-74449006D01*
X108642920Y-74283885D01*
X108642921Y-74283884D01*
X108697272Y-74104714D01*
X108715624Y-73918383D01*
X108697272Y-73732052D01*
X108642921Y-73552882D01*
X108598396Y-73469581D01*
X108554662Y-73387759D01*
X108554660Y-73387756D01*
X108435882Y-73243025D01*
X108291151Y-73124247D01*
X108291148Y-73124245D01*
X108126027Y-73035987D01*
X107946858Y-72981636D01*
X107946856Y-72981635D01*
X107760525Y-72963284D01*
X107574195Y-72981635D01*
X107392880Y-73036637D01*
X107323013Y-73037260D01*
X107263900Y-73000012D01*
X107234310Y-72936718D01*
X107243635Y-72867473D01*
X107269201Y-72830298D01*
X108606500Y-71493000D01*
X111127867Y-71493000D01*
X111146302Y-71621225D01*
X111200117Y-71739061D01*
X111200118Y-71739063D01*
X111284951Y-71836967D01*
X111393931Y-71907004D01*
X111518225Y-71943499D01*
X111518227Y-71943500D01*
X111518228Y-71943500D01*
X111647773Y-71943500D01*
X111647773Y-71943499D01*
X111772069Y-71907004D01*
X111881049Y-71836967D01*
X111965882Y-71739063D01*
X112019697Y-71621226D01*
X112038133Y-71493000D01*
X112019697Y-71364774D01*
X111965882Y-71246937D01*
X111881049Y-71149033D01*
X111772069Y-71078996D01*
X111772065Y-71078994D01*
X111772064Y-71078994D01*
X111647774Y-71042500D01*
X111647772Y-71042500D01*
X111518228Y-71042500D01*
X111518226Y-71042500D01*
X111393935Y-71078994D01*
X111393932Y-71078995D01*
X111393931Y-71078996D01*
X111342677Y-71111934D01*
X111284950Y-71149033D01*
X111200118Y-71246937D01*
X111200117Y-71246938D01*
X111146302Y-71364774D01*
X111127867Y-71493000D01*
X108606500Y-71493000D01*
X108632464Y-71467036D01*
X108632464Y-71467035D01*
X109919680Y-70179819D01*
X109981003Y-70146334D01*
X110007361Y-70143500D01*
X112004875Y-70143500D01*
X112071914Y-70163185D01*
X112117669Y-70215989D01*
X112127613Y-70285147D01*
X112103280Y-70338427D01*
X112104913Y-70339476D01*
X112100117Y-70346938D01*
X112046302Y-70464774D01*
X112027867Y-70593000D01*
X112046302Y-70721225D01*
X112100117Y-70839061D01*
X112100118Y-70839063D01*
X112184951Y-70936967D01*
X112293931Y-71007004D01*
X112418225Y-71043499D01*
X112418227Y-71043500D01*
X112418228Y-71043500D01*
X112547773Y-71043500D01*
X112547773Y-71043499D01*
X112672069Y-71007004D01*
X112781049Y-70936967D01*
X112865882Y-70839063D01*
X112919697Y-70721226D01*
X112938133Y-70593000D01*
X112919697Y-70464774D01*
X112865882Y-70346937D01*
X112826078Y-70301000D01*
X118277867Y-70301000D01*
X118296302Y-70429225D01*
X118340280Y-70525521D01*
X118350118Y-70547063D01*
X118399721Y-70604309D01*
X118433246Y-70643000D01*
X118434951Y-70644967D01*
X118543931Y-70715004D01*
X118668225Y-70751499D01*
X118668227Y-70751500D01*
X118668228Y-70751500D01*
X118797773Y-70751500D01*
X118797773Y-70751499D01*
X118922069Y-70715004D01*
X119031049Y-70644967D01*
X119115882Y-70547063D01*
X119169697Y-70429226D01*
X119187045Y-70308563D01*
X119216070Y-70245010D01*
X119274848Y-70207235D01*
X119344717Y-70207235D01*
X119468225Y-70243499D01*
X119468227Y-70243500D01*
X119468228Y-70243500D01*
X119597773Y-70243500D01*
X119597773Y-70243499D01*
X119722069Y-70207004D01*
X119831049Y-70136967D01*
X119869146Y-70093000D01*
X124240367Y-70093000D01*
X124258802Y-70221225D01*
X124312617Y-70339061D01*
X124312618Y-70339063D01*
X124397451Y-70436967D01*
X124506431Y-70507004D01*
X124630725Y-70543499D01*
X124630727Y-70543500D01*
X124630728Y-70543500D01*
X124760273Y-70543500D01*
X124760273Y-70543499D01*
X124884569Y-70507004D01*
X124993549Y-70436967D01*
X125078382Y-70339063D01*
X125132197Y-70221226D01*
X125150633Y-70093000D01*
X125132197Y-69964774D01*
X125078382Y-69846937D01*
X124993549Y-69749033D01*
X124884569Y-69678996D01*
X124884565Y-69678994D01*
X124884564Y-69678994D01*
X124760274Y-69642500D01*
X124760272Y-69642500D01*
X124630728Y-69642500D01*
X124630726Y-69642500D01*
X124506435Y-69678994D01*
X124506432Y-69678995D01*
X124506431Y-69678996D01*
X124478513Y-69696938D01*
X124397450Y-69749033D01*
X124312618Y-69846937D01*
X124312617Y-69846938D01*
X124258802Y-69964774D01*
X124240367Y-70093000D01*
X119869146Y-70093000D01*
X119915882Y-70039063D01*
X119969697Y-69921226D01*
X119988133Y-69793000D01*
X119969697Y-69664774D01*
X119915882Y-69546937D01*
X119831049Y-69449033D01*
X119722069Y-69378996D01*
X119722065Y-69378994D01*
X119722064Y-69378994D01*
X119597774Y-69342500D01*
X119597772Y-69342500D01*
X119468228Y-69342500D01*
X119468226Y-69342500D01*
X119343935Y-69378994D01*
X119343932Y-69378995D01*
X119343931Y-69378996D01*
X119292677Y-69411934D01*
X119234950Y-69449033D01*
X119150118Y-69546937D01*
X119150117Y-69546938D01*
X119096302Y-69664774D01*
X119078954Y-69785435D01*
X119049929Y-69848990D01*
X118991150Y-69886764D01*
X118921282Y-69886764D01*
X118797774Y-69850500D01*
X118797772Y-69850500D01*
X118668228Y-69850500D01*
X118668226Y-69850500D01*
X118543935Y-69886994D01*
X118543932Y-69886995D01*
X118543931Y-69886996D01*
X118492677Y-69919934D01*
X118434950Y-69957033D01*
X118350118Y-70054937D01*
X118350117Y-70054938D01*
X118296302Y-70172774D01*
X118277867Y-70301000D01*
X112826078Y-70301000D01*
X112794953Y-70265079D01*
X112765929Y-70201523D01*
X112775873Y-70132364D01*
X112821629Y-70079561D01*
X112841203Y-70069321D01*
X112909547Y-70041013D01*
X113057035Y-69942464D01*
X113182464Y-69817035D01*
X113281013Y-69669547D01*
X113348894Y-69505666D01*
X113350214Y-69499033D01*
X113383499Y-69331695D01*
X113383500Y-69331693D01*
X113383500Y-69154306D01*
X113383499Y-69154304D01*
X113351154Y-68991691D01*
X113357381Y-68922100D01*
X113400244Y-68866922D01*
X113466134Y-68843678D01*
X113472771Y-68843500D01*
X114222042Y-68843500D01*
X114222044Y-68843500D01*
X114311188Y-68819614D01*
X114316660Y-68816454D01*
X114316664Y-68816453D01*
X114391105Y-68773474D01*
X114391104Y-68773474D01*
X114391112Y-68773470D01*
X116581720Y-66582861D01*
X116634465Y-66551567D01*
X116704662Y-66530956D01*
X116774532Y-66530956D01*
X116833310Y-66568731D01*
X116862334Y-66632287D01*
X116852391Y-66701443D01*
X116846302Y-66714774D01*
X116827867Y-66843000D01*
X116846302Y-66971225D01*
X116879081Y-67043000D01*
X116900118Y-67089063D01*
X116984951Y-67186967D01*
X117093931Y-67257004D01*
X117218225Y-67293499D01*
X117218227Y-67293500D01*
X117218228Y-67293500D01*
X117347773Y-67293500D01*
X117347773Y-67293499D01*
X117472069Y-67257004D01*
X117581049Y-67186967D01*
X117665882Y-67089063D01*
X117676315Y-67066217D01*
X117722068Y-67013414D01*
X117789107Y-66993729D01*
X117856147Y-67013413D01*
X117901903Y-67066216D01*
X117911582Y-67098332D01*
X117921424Y-67160477D01*
X117921424Y-67160478D01*
X117921425Y-67160481D01*
X117921426Y-67160482D01*
X117972376Y-67260478D01*
X117975428Y-67266466D01*
X117975431Y-67266470D01*
X118059529Y-67350568D01*
X118059535Y-67350573D01*
X118072131Y-67356991D01*
X118122926Y-67404963D01*
X118139722Y-67472784D01*
X118128631Y-67518986D01*
X118096302Y-67589776D01*
X118077867Y-67718000D01*
X118096302Y-67846225D01*
X118144672Y-67952139D01*
X118150118Y-67964063D01*
X118234951Y-68061967D01*
X118343931Y-68132004D01*
X118468225Y-68168499D01*
X118468227Y-68168500D01*
X118468228Y-68168500D01*
X118597773Y-68168500D01*
X118597773Y-68168499D01*
X118722069Y-68132004D01*
X118831049Y-68061967D01*
X118915882Y-67964063D01*
X118969697Y-67846226D01*
X118988133Y-67718000D01*
X118969697Y-67589774D01*
X118915882Y-67471937D01*
X118831049Y-67374033D01*
X118722069Y-67303996D01*
X118722068Y-67303995D01*
X118722064Y-67303993D01*
X118714297Y-67300446D01*
X118661496Y-67254688D01*
X118641816Y-67187647D01*
X118643343Y-67168258D01*
X118663181Y-67043003D01*
X118663181Y-67042998D01*
X118648672Y-66951392D01*
X118644574Y-66925518D01*
X118644573Y-66925517D01*
X118644309Y-66923847D01*
X118653263Y-66854554D01*
X118698260Y-66801102D01*
X118765011Y-66780462D01*
X118832325Y-66799187D01*
X118854463Y-66816768D01*
X119443990Y-67406295D01*
X119477475Y-67467618D01*
X119472491Y-67537310D01*
X119466795Y-67550268D01*
X119435757Y-67611186D01*
X119435755Y-67611191D01*
X119417150Y-67728665D01*
X119417150Y-67728672D01*
X119435755Y-67846146D01*
X119435755Y-67846147D01*
X119489759Y-67952135D01*
X119489762Y-67952139D01*
X119573860Y-68036237D01*
X119573864Y-68036240D01*
X119573866Y-68036242D01*
X119679849Y-68090243D01*
X119679851Y-68090243D01*
X119679853Y-68090244D01*
X119797328Y-68108850D01*
X119797331Y-68108850D01*
X119797334Y-68108850D01*
X119914808Y-68090244D01*
X119914809Y-68090244D01*
X119914810Y-68090243D01*
X119914813Y-68090243D01*
X120020796Y-68036242D01*
X120104904Y-67952134D01*
X120158905Y-67846151D01*
X120166919Y-67795548D01*
X120196847Y-67732417D01*
X120256158Y-67695485D01*
X120308791Y-67692475D01*
X120313034Y-67693147D01*
X120313037Y-67693147D01*
X120430511Y-67674541D01*
X120430512Y-67674541D01*
X120430513Y-67674540D01*
X120430516Y-67674540D01*
X120536499Y-67620539D01*
X120620607Y-67536431D01*
X120674608Y-67430448D01*
X120677758Y-67410558D01*
X120693215Y-67312969D01*
X120693215Y-67312962D01*
X120674609Y-67195488D01*
X120674609Y-67195487D01*
X120674608Y-67195485D01*
X120674608Y-67195484D01*
X120620607Y-67089501D01*
X120620605Y-67089499D01*
X120620602Y-67089495D01*
X120536504Y-67005397D01*
X120536500Y-67005394D01*
X120536499Y-67005393D01*
X120430516Y-66951392D01*
X120430514Y-66951391D01*
X120430511Y-66951390D01*
X120313037Y-66932785D01*
X120306656Y-66932785D01*
X120239617Y-66913100D01*
X120218975Y-66896466D01*
X119615505Y-66292996D01*
X121752819Y-66292996D01*
X121752819Y-66293003D01*
X121771424Y-66410477D01*
X121771424Y-66410478D01*
X121825428Y-66516466D01*
X121825431Y-66516470D01*
X121909529Y-66600568D01*
X121909533Y-66600571D01*
X121909535Y-66600573D01*
X122015518Y-66654574D01*
X122015520Y-66654574D01*
X122015522Y-66654575D01*
X122132997Y-66673181D01*
X122133000Y-66673181D01*
X122133003Y-66673181D01*
X122250477Y-66654575D01*
X122250478Y-66654575D01*
X122250479Y-66654574D01*
X122250482Y-66654574D01*
X122356465Y-66600573D01*
X122440573Y-66516465D01*
X122494574Y-66410482D01*
X122503044Y-66357004D01*
X122513181Y-66293003D01*
X122513181Y-66292996D01*
X122494575Y-66175522D01*
X122494575Y-66175521D01*
X122494574Y-66175519D01*
X122494574Y-66175518D01*
X122440573Y-66069535D01*
X122440571Y-66069533D01*
X122440568Y-66069529D01*
X122356470Y-65985431D01*
X122356466Y-65985428D01*
X122356465Y-65985427D01*
X122250482Y-65931426D01*
X122250480Y-65931425D01*
X122250477Y-65931424D01*
X122133003Y-65912819D01*
X122132997Y-65912819D01*
X122015522Y-65931424D01*
X122015521Y-65931424D01*
X121909533Y-65985428D01*
X121909529Y-65985431D01*
X121825431Y-66069529D01*
X121825428Y-66069533D01*
X121771424Y-66175521D01*
X121771424Y-66175522D01*
X121752819Y-66292996D01*
X119615505Y-66292996D01*
X118465505Y-65142996D01*
X123102819Y-65142996D01*
X123102819Y-65143003D01*
X123121424Y-65260477D01*
X123121424Y-65260478D01*
X123121425Y-65260481D01*
X123121426Y-65260482D01*
X123158280Y-65332813D01*
X123175428Y-65366466D01*
X123175431Y-65366470D01*
X123259529Y-65450568D01*
X123259533Y-65450571D01*
X123259535Y-65450573D01*
X123365518Y-65504574D01*
X123365520Y-65504574D01*
X123365522Y-65504575D01*
X123482997Y-65523181D01*
X123483000Y-65523181D01*
X123483001Y-65523181D01*
X123494362Y-65521381D01*
X123509479Y-65518987D01*
X123578773Y-65527941D01*
X123632225Y-65572937D01*
X123652865Y-65639688D01*
X123634141Y-65707002D01*
X123629203Y-65714336D01*
X123625430Y-65719529D01*
X123571424Y-65825521D01*
X123571424Y-65825522D01*
X123552819Y-65942996D01*
X123552819Y-65943003D01*
X123571424Y-66060477D01*
X123571424Y-66060478D01*
X123571425Y-66060481D01*
X123571426Y-66060482D01*
X123617327Y-66150568D01*
X123625428Y-66166466D01*
X123625431Y-66166470D01*
X123709529Y-66250568D01*
X123709533Y-66250571D01*
X123709535Y-66250573D01*
X123815518Y-66304574D01*
X123815520Y-66304574D01*
X123815522Y-66304575D01*
X123932997Y-66323181D01*
X123933000Y-66323181D01*
X123933003Y-66323181D01*
X124050477Y-66304575D01*
X124050478Y-66304575D01*
X124050479Y-66304574D01*
X124050482Y-66304574D01*
X124156465Y-66250573D01*
X124240573Y-66166465D01*
X124294574Y-66060482D01*
X124294575Y-66060477D01*
X124313181Y-65943003D01*
X124313181Y-65942996D01*
X124294575Y-65825522D01*
X124294575Y-65825521D01*
X124294574Y-65825519D01*
X124294574Y-65825518D01*
X124240573Y-65719535D01*
X124240571Y-65719533D01*
X124240568Y-65719529D01*
X124226101Y-65705062D01*
X124192616Y-65643739D01*
X124197600Y-65574047D01*
X124239472Y-65518114D01*
X124304936Y-65493697D01*
X124355467Y-65503936D01*
X124356240Y-65501559D01*
X124365516Y-65504573D01*
X124365518Y-65504574D01*
X124365519Y-65504574D01*
X124365522Y-65504575D01*
X124482997Y-65523181D01*
X124483000Y-65523181D01*
X124483003Y-65523181D01*
X124600477Y-65504575D01*
X124600478Y-65504575D01*
X124600479Y-65504574D01*
X124600482Y-65504574D01*
X124706465Y-65450573D01*
X124790573Y-65366465D01*
X124844574Y-65260482D01*
X124845010Y-65257728D01*
X124863181Y-65143003D01*
X124863181Y-65142996D01*
X124844575Y-65025522D01*
X124844575Y-65025521D01*
X124844574Y-65025519D01*
X124844574Y-65025518D01*
X124790573Y-64919535D01*
X124790571Y-64919533D01*
X124790568Y-64919529D01*
X124706470Y-64835431D01*
X124706466Y-64835428D01*
X124706465Y-64835427D01*
X124600482Y-64781426D01*
X124600480Y-64781425D01*
X124600477Y-64781424D01*
X124483003Y-64762819D01*
X124482997Y-64762819D01*
X124365522Y-64781424D01*
X124365521Y-64781424D01*
X124259533Y-64835428D01*
X124259529Y-64835431D01*
X124175431Y-64919529D01*
X124175428Y-64919533D01*
X124121424Y-65025521D01*
X124105473Y-65126240D01*
X124097676Y-65142686D01*
X124105473Y-65159760D01*
X124121424Y-65260477D01*
X124121424Y-65260478D01*
X124121425Y-65260481D01*
X124121426Y-65260482D01*
X124158280Y-65332813D01*
X124175428Y-65366466D01*
X124175431Y-65366470D01*
X124189898Y-65380937D01*
X124223383Y-65442260D01*
X124218399Y-65511952D01*
X124176527Y-65567885D01*
X124111063Y-65592302D01*
X124060532Y-65582065D01*
X124059760Y-65584441D01*
X124050477Y-65581424D01*
X123933003Y-65562819D01*
X123933000Y-65562819D01*
X123906516Y-65567013D01*
X123837223Y-65558056D01*
X123783772Y-65513059D01*
X123763134Y-65446307D01*
X123781860Y-65378994D01*
X123786803Y-65371654D01*
X123790570Y-65366468D01*
X123790573Y-65366465D01*
X123844574Y-65260482D01*
X123845010Y-65257728D01*
X123860527Y-65159760D01*
X123868323Y-65143312D01*
X123860527Y-65126240D01*
X123844575Y-65025521D01*
X123844574Y-65025519D01*
X123844574Y-65025518D01*
X123790573Y-64919535D01*
X123790571Y-64919533D01*
X123790568Y-64919529D01*
X123706470Y-64835431D01*
X123706466Y-64835428D01*
X123706465Y-64835427D01*
X123600482Y-64781426D01*
X123600480Y-64781425D01*
X123600477Y-64781424D01*
X123483003Y-64762819D01*
X123482997Y-64762819D01*
X123365522Y-64781424D01*
X123365521Y-64781424D01*
X123259533Y-64835428D01*
X123259529Y-64835431D01*
X123175431Y-64919529D01*
X123175428Y-64919533D01*
X123121424Y-65025521D01*
X123121424Y-65025522D01*
X123102819Y-65142996D01*
X118465505Y-65142996D01*
X117847319Y-64524810D01*
X117813834Y-64463487D01*
X117811000Y-64437129D01*
X117811000Y-62945495D01*
X118915627Y-62945495D01*
X118915627Y-62945502D01*
X118934232Y-63062976D01*
X118934232Y-63062977D01*
X118934233Y-63062980D01*
X118934234Y-63062981D01*
X118986964Y-63166470D01*
X118988236Y-63168965D01*
X118988239Y-63168969D01*
X119072337Y-63253067D01*
X119072341Y-63253070D01*
X119072343Y-63253072D01*
X119178326Y-63307073D01*
X119178328Y-63307073D01*
X119178330Y-63307074D01*
X119295805Y-63325680D01*
X119295808Y-63325680D01*
X119295811Y-63325680D01*
X119413285Y-63307074D01*
X119413286Y-63307074D01*
X119413287Y-63307073D01*
X119413290Y-63307073D01*
X119519273Y-63253072D01*
X119563760Y-63208585D01*
X119625083Y-63175099D01*
X119694774Y-63180083D01*
X119750708Y-63221954D01*
X119761926Y-63239968D01*
X119775427Y-63266465D01*
X119775431Y-63266470D01*
X119859529Y-63350568D01*
X119859533Y-63350571D01*
X119859535Y-63350573D01*
X119965518Y-63404574D01*
X119965520Y-63404574D01*
X119965522Y-63404575D01*
X120082997Y-63423181D01*
X120083000Y-63423181D01*
X120083003Y-63423181D01*
X120200477Y-63404575D01*
X120200478Y-63404575D01*
X120200479Y-63404574D01*
X120200482Y-63404574D01*
X120306465Y-63350573D01*
X120390573Y-63266465D01*
X120444574Y-63160482D01*
X120447264Y-63143500D01*
X120463181Y-63043003D01*
X120463181Y-63042996D01*
X120447343Y-62942996D01*
X121002819Y-62942996D01*
X121002819Y-62943003D01*
X121021424Y-63060477D01*
X121021424Y-63060478D01*
X121021425Y-63060481D01*
X121021426Y-63060482D01*
X121072376Y-63160478D01*
X121075428Y-63166466D01*
X121075431Y-63166470D01*
X121159529Y-63250568D01*
X121159533Y-63250571D01*
X121159535Y-63250573D01*
X121265518Y-63304574D01*
X121265520Y-63304574D01*
X121265522Y-63304575D01*
X121382997Y-63323181D01*
X121383000Y-63323181D01*
X121383003Y-63323181D01*
X121500477Y-63304575D01*
X121500478Y-63304575D01*
X121500479Y-63304574D01*
X121500482Y-63304574D01*
X121606465Y-63250573D01*
X121690573Y-63166465D01*
X121744574Y-63060482D01*
X121746763Y-63046664D01*
X121763181Y-62943003D01*
X121763181Y-62942996D01*
X121744575Y-62825522D01*
X121744575Y-62825521D01*
X121744574Y-62825519D01*
X121744574Y-62825518D01*
X121690573Y-62719535D01*
X121690571Y-62719533D01*
X121690568Y-62719529D01*
X121606470Y-62635431D01*
X121606466Y-62635428D01*
X121606465Y-62635427D01*
X121500482Y-62581426D01*
X121500480Y-62581425D01*
X121500477Y-62581424D01*
X121383003Y-62562819D01*
X121382997Y-62562819D01*
X121265522Y-62581424D01*
X121265521Y-62581424D01*
X121159533Y-62635428D01*
X121159529Y-62635431D01*
X121075431Y-62719529D01*
X121075428Y-62719533D01*
X121021424Y-62825521D01*
X121021424Y-62825522D01*
X121002819Y-62942996D01*
X120447343Y-62942996D01*
X120444575Y-62925522D01*
X120444575Y-62925521D01*
X120444574Y-62925519D01*
X120444574Y-62925518D01*
X120390573Y-62819535D01*
X120390571Y-62819533D01*
X120390568Y-62819529D01*
X120306470Y-62735431D01*
X120306466Y-62735428D01*
X120306465Y-62735427D01*
X120200482Y-62681426D01*
X120200480Y-62681425D01*
X120200477Y-62681424D01*
X120083003Y-62662819D01*
X120082997Y-62662819D01*
X119965522Y-62681424D01*
X119965521Y-62681424D01*
X119859533Y-62735428D01*
X119859529Y-62735431D01*
X119815045Y-62779915D01*
X119753722Y-62813399D01*
X119684030Y-62808414D01*
X119628097Y-62766542D01*
X119616881Y-62748529D01*
X119610207Y-62735431D01*
X119603381Y-62722034D01*
X119603378Y-62722031D01*
X119603376Y-62722028D01*
X119519278Y-62637930D01*
X119519274Y-62637927D01*
X119519273Y-62637926D01*
X119413290Y-62583925D01*
X119413288Y-62583924D01*
X119413285Y-62583923D01*
X119295811Y-62565318D01*
X119295805Y-62565318D01*
X119178330Y-62583923D01*
X119178329Y-62583923D01*
X119072341Y-62637927D01*
X119072337Y-62637930D01*
X118988239Y-62722028D01*
X118988236Y-62722032D01*
X118934232Y-62828020D01*
X118934232Y-62828021D01*
X118915627Y-62945495D01*
X117811000Y-62945495D01*
X117811000Y-61625530D01*
X119720285Y-61625530D01*
X119720285Y-61625537D01*
X119738890Y-61743011D01*
X119738890Y-61743012D01*
X119738891Y-61743015D01*
X119738892Y-61743016D01*
X119785978Y-61835428D01*
X119792894Y-61849000D01*
X119792897Y-61849004D01*
X119876995Y-61933102D01*
X119876999Y-61933105D01*
X119877001Y-61933107D01*
X119982984Y-61987108D01*
X119982986Y-61987108D01*
X119982988Y-61987109D01*
X120100463Y-62005715D01*
X120100466Y-62005715D01*
X120100469Y-62005715D01*
X120217943Y-61987109D01*
X120217944Y-61987109D01*
X120217945Y-61987108D01*
X120217948Y-61987108D01*
X120304523Y-61942996D01*
X120902819Y-61942996D01*
X120902819Y-61943003D01*
X120921424Y-62060477D01*
X120921424Y-62060478D01*
X120921425Y-62060481D01*
X120921426Y-62060482D01*
X120954563Y-62125518D01*
X120975428Y-62166466D01*
X120975431Y-62166470D01*
X121059529Y-62250568D01*
X121059533Y-62250571D01*
X121059535Y-62250573D01*
X121165518Y-62304574D01*
X121165520Y-62304574D01*
X121165522Y-62304575D01*
X121282997Y-62323181D01*
X121283000Y-62323181D01*
X121283003Y-62323181D01*
X121400477Y-62304575D01*
X121400478Y-62304575D01*
X121400479Y-62304574D01*
X121400482Y-62304574D01*
X121506465Y-62250573D01*
X121590573Y-62166465D01*
X121644574Y-62060482D01*
X121650112Y-62025518D01*
X121663181Y-61943003D01*
X121663181Y-61942996D01*
X121644575Y-61825521D01*
X121644574Y-61825519D01*
X121644574Y-61825518D01*
X121590573Y-61719535D01*
X121590571Y-61719533D01*
X121590568Y-61719529D01*
X121506470Y-61635431D01*
X121506466Y-61635428D01*
X121506465Y-61635427D01*
X121400482Y-61581426D01*
X121400480Y-61581425D01*
X121400477Y-61581424D01*
X121283003Y-61562819D01*
X121282997Y-61562819D01*
X121165522Y-61581424D01*
X121165521Y-61581424D01*
X121059533Y-61635428D01*
X121059529Y-61635431D01*
X120975431Y-61719529D01*
X120975428Y-61719533D01*
X120975427Y-61719535D01*
X120921426Y-61825518D01*
X120921425Y-61825519D01*
X120921425Y-61825521D01*
X120902819Y-61942996D01*
X120304523Y-61942996D01*
X120323931Y-61933107D01*
X120408039Y-61848999D01*
X120462040Y-61743016D01*
X120464803Y-61725573D01*
X120480647Y-61625537D01*
X120480647Y-61625530D01*
X120462041Y-61508056D01*
X120462041Y-61508055D01*
X120462040Y-61508053D01*
X120462040Y-61508052D01*
X120408039Y-61402069D01*
X120408037Y-61402067D01*
X120408034Y-61402063D01*
X120323936Y-61317965D01*
X120323932Y-61317962D01*
X120323931Y-61317961D01*
X120217948Y-61263960D01*
X120217946Y-61263959D01*
X120217943Y-61263958D01*
X120100469Y-61245353D01*
X120100463Y-61245353D01*
X119982988Y-61263958D01*
X119982987Y-61263958D01*
X119876999Y-61317962D01*
X119876995Y-61317965D01*
X119792897Y-61402063D01*
X119792894Y-61402067D01*
X119738890Y-61508055D01*
X119738890Y-61508056D01*
X119720285Y-61625530D01*
X117811000Y-61625530D01*
X117811000Y-58942996D01*
X119702819Y-58942996D01*
X119702819Y-58943003D01*
X119721424Y-59060477D01*
X119721424Y-59060478D01*
X119721425Y-59060481D01*
X119721426Y-59060482D01*
X119775426Y-59166464D01*
X119775428Y-59166466D01*
X119775431Y-59166470D01*
X119790528Y-59181567D01*
X119824013Y-59242890D01*
X119819029Y-59312582D01*
X119790530Y-59356927D01*
X119775432Y-59372025D01*
X119775428Y-59372030D01*
X119721424Y-59478018D01*
X119721424Y-59478019D01*
X119702819Y-59595493D01*
X119702819Y-59595500D01*
X119721424Y-59712974D01*
X119721424Y-59712975D01*
X119721425Y-59712978D01*
X119721426Y-59712979D01*
X119775426Y-59818961D01*
X119775428Y-59818963D01*
X119778082Y-59822616D01*
X119801559Y-59888424D01*
X119785731Y-59956477D01*
X119778085Y-59968375D01*
X119775430Y-59972028D01*
X119721424Y-60078021D01*
X119721424Y-60078022D01*
X119702819Y-60195496D01*
X119702819Y-60195503D01*
X119721424Y-60312977D01*
X119721424Y-60312978D01*
X119721425Y-60312981D01*
X119721426Y-60312982D01*
X119766516Y-60401477D01*
X119775428Y-60418966D01*
X119775431Y-60418970D01*
X119859529Y-60503068D01*
X119859533Y-60503071D01*
X119859535Y-60503073D01*
X119965518Y-60557074D01*
X119965520Y-60557074D01*
X119965522Y-60557075D01*
X120082997Y-60575681D01*
X120083000Y-60575681D01*
X120083003Y-60575681D01*
X120200477Y-60557075D01*
X120200478Y-60557075D01*
X120200479Y-60557074D01*
X120200482Y-60557074D01*
X120306465Y-60503073D01*
X120390573Y-60418965D01*
X120444574Y-60312982D01*
X120451041Y-60272152D01*
X120455659Y-60242996D01*
X122302819Y-60242996D01*
X122302819Y-60243003D01*
X122321424Y-60360477D01*
X122321424Y-60360478D01*
X122321425Y-60360481D01*
X122321426Y-60360482D01*
X122372376Y-60460478D01*
X122375428Y-60466466D01*
X122375431Y-60466470D01*
X122459529Y-60550568D01*
X122459533Y-60550571D01*
X122459535Y-60550573D01*
X122565518Y-60604574D01*
X122565520Y-60604574D01*
X122565522Y-60604575D01*
X122682997Y-60623181D01*
X122683000Y-60623181D01*
X122683003Y-60623181D01*
X122800477Y-60604575D01*
X122800478Y-60604575D01*
X122800479Y-60604574D01*
X122800482Y-60604574D01*
X122906465Y-60550573D01*
X122987676Y-60469361D01*
X123048997Y-60435877D01*
X123118688Y-60440861D01*
X123131633Y-60446550D01*
X123192519Y-60477573D01*
X123192521Y-60477573D01*
X123192523Y-60477574D01*
X123309998Y-60496180D01*
X123310001Y-60496180D01*
X123310004Y-60496180D01*
X123427478Y-60477574D01*
X123427479Y-60477574D01*
X123427480Y-60477573D01*
X123427483Y-60477573D01*
X123533466Y-60423572D01*
X123555562Y-60401475D01*
X123616883Y-60367991D01*
X123686575Y-60372974D01*
X123742509Y-60414845D01*
X123753725Y-60432859D01*
X123765449Y-60455867D01*
X123772393Y-60469496D01*
X123772398Y-60469503D01*
X123856496Y-60553601D01*
X123856500Y-60553604D01*
X123856502Y-60553606D01*
X123962485Y-60607607D01*
X123962487Y-60607607D01*
X123962489Y-60607608D01*
X124079964Y-60626214D01*
X124079967Y-60626214D01*
X124079970Y-60626214D01*
X124197444Y-60607608D01*
X124197445Y-60607608D01*
X124197446Y-60607607D01*
X124197449Y-60607607D01*
X124303432Y-60553606D01*
X124387540Y-60469498D01*
X124441541Y-60363515D01*
X124441542Y-60363510D01*
X124460148Y-60246036D01*
X124460148Y-60246029D01*
X124441542Y-60128555D01*
X124441542Y-60128554D01*
X124441541Y-60128552D01*
X124441541Y-60128551D01*
X124387540Y-60022568D01*
X124387538Y-60022566D01*
X124387535Y-60022562D01*
X124303437Y-59938464D01*
X124303433Y-59938461D01*
X124303432Y-59938460D01*
X124197449Y-59884459D01*
X124197447Y-59884458D01*
X124197444Y-59884457D01*
X124079970Y-59865852D01*
X124079964Y-59865852D01*
X123962489Y-59884457D01*
X123962488Y-59884457D01*
X123856500Y-59938461D01*
X123834404Y-59960557D01*
X123773080Y-59994041D01*
X123703388Y-59989055D01*
X123647456Y-59947183D01*
X123636245Y-59929179D01*
X123617574Y-59892534D01*
X123617572Y-59892532D01*
X123617569Y-59892528D01*
X123533471Y-59808430D01*
X123533467Y-59808427D01*
X123533466Y-59808426D01*
X123427483Y-59754425D01*
X123427481Y-59754424D01*
X123427478Y-59754423D01*
X123310004Y-59735818D01*
X123309998Y-59735818D01*
X123192523Y-59754423D01*
X123192522Y-59754423D01*
X123086534Y-59808427D01*
X123005324Y-59889637D01*
X122944000Y-59923121D01*
X122874309Y-59918137D01*
X122861365Y-59912447D01*
X122800482Y-59881426D01*
X122800480Y-59881425D01*
X122800477Y-59881424D01*
X122683003Y-59862819D01*
X122682997Y-59862819D01*
X122565522Y-59881424D01*
X122565521Y-59881424D01*
X122459533Y-59935428D01*
X122459529Y-59935431D01*
X122375431Y-60019529D01*
X122375428Y-60019533D01*
X122321424Y-60125521D01*
X122321424Y-60125522D01*
X122302819Y-60242996D01*
X120455659Y-60242996D01*
X120463181Y-60195503D01*
X120463181Y-60195496D01*
X120444575Y-60078022D01*
X120444575Y-60078021D01*
X120444574Y-60078019D01*
X120444574Y-60078018D01*
X120390573Y-59972035D01*
X120390571Y-59972033D01*
X120387918Y-59968381D01*
X120364440Y-59902574D01*
X120380267Y-59834521D01*
X120387921Y-59822611D01*
X120390566Y-59818968D01*
X120390573Y-59818962D01*
X120444574Y-59712979D01*
X120444963Y-59710522D01*
X120463181Y-59595500D01*
X120463181Y-59595493D01*
X120444575Y-59478019D01*
X120444575Y-59478018D01*
X120444574Y-59478016D01*
X120444574Y-59478015D01*
X120390573Y-59372032D01*
X120390571Y-59372030D01*
X120390568Y-59372026D01*
X120375471Y-59356929D01*
X120341986Y-59295606D01*
X120346970Y-59225914D01*
X120375473Y-59181565D01*
X120390569Y-59166469D01*
X120390573Y-59166465D01*
X120444574Y-59060482D01*
X120463181Y-58943000D01*
X120463180Y-58942996D01*
X120446637Y-58838541D01*
X120455592Y-58769247D01*
X120500588Y-58715795D01*
X120567340Y-58695156D01*
X120625400Y-58708657D01*
X120715518Y-58754574D01*
X120715520Y-58754574D01*
X120715522Y-58754575D01*
X120832997Y-58773181D01*
X120833000Y-58773181D01*
X120833003Y-58773181D01*
X120950477Y-58754575D01*
X120950478Y-58754575D01*
X120950479Y-58754574D01*
X120950482Y-58754574D01*
X121056465Y-58700573D01*
X121140573Y-58616465D01*
X121194574Y-58510482D01*
X121196811Y-58496357D01*
X121213181Y-58393003D01*
X121213181Y-58392996D01*
X121194575Y-58275522D01*
X121194575Y-58275521D01*
X121194574Y-58275519D01*
X121194574Y-58275518D01*
X121140573Y-58169535D01*
X121140571Y-58169533D01*
X121140568Y-58169529D01*
X121056470Y-58085431D01*
X121056466Y-58085428D01*
X121056465Y-58085427D01*
X120950482Y-58031426D01*
X120950480Y-58031425D01*
X120950477Y-58031424D01*
X120833003Y-58012819D01*
X120832997Y-58012819D01*
X120715522Y-58031424D01*
X120715521Y-58031424D01*
X120609533Y-58085428D01*
X120609529Y-58085431D01*
X120525431Y-58169529D01*
X120525428Y-58169533D01*
X120471424Y-58275521D01*
X120471424Y-58275522D01*
X120452819Y-58392996D01*
X120452819Y-58392997D01*
X120452819Y-58393000D01*
X120453651Y-58398250D01*
X120469363Y-58497459D01*
X120460407Y-58566753D01*
X120415410Y-58620204D01*
X120348658Y-58640843D01*
X120290596Y-58627341D01*
X120200482Y-58581426D01*
X120200480Y-58581425D01*
X120200477Y-58581424D01*
X120083003Y-58562819D01*
X120082997Y-58562819D01*
X119965522Y-58581424D01*
X119965521Y-58581424D01*
X119859533Y-58635428D01*
X119859529Y-58635431D01*
X119775431Y-58719529D01*
X119775428Y-58719533D01*
X119721424Y-58825521D01*
X119721424Y-58825522D01*
X119702819Y-58942996D01*
X117811000Y-58942996D01*
X117811000Y-58142996D01*
X118902819Y-58142996D01*
X118902819Y-58143003D01*
X118921424Y-58260477D01*
X118921424Y-58260478D01*
X118921425Y-58260481D01*
X118921426Y-58260482D01*
X118970606Y-58357004D01*
X118975428Y-58366466D01*
X118975431Y-58366470D01*
X119059529Y-58450568D01*
X119059533Y-58450571D01*
X119059535Y-58450573D01*
X119165518Y-58504574D01*
X119165520Y-58504574D01*
X119165522Y-58504575D01*
X119282997Y-58523181D01*
X119283000Y-58523181D01*
X119283003Y-58523181D01*
X119400477Y-58504575D01*
X119400478Y-58504575D01*
X119400479Y-58504574D01*
X119400482Y-58504574D01*
X119506465Y-58450573D01*
X119590573Y-58366465D01*
X119644574Y-58260482D01*
X119648542Y-58235428D01*
X119663181Y-58143003D01*
X119663181Y-58142996D01*
X119644575Y-58025522D01*
X119644575Y-58025521D01*
X119644574Y-58025519D01*
X119644574Y-58025518D01*
X119590573Y-57919535D01*
X119590571Y-57919533D01*
X119590568Y-57919529D01*
X119514039Y-57843000D01*
X125527750Y-57843000D01*
X125544005Y-57966470D01*
X125546670Y-57986708D01*
X125546671Y-57986712D01*
X125602137Y-58120622D01*
X125602138Y-58120624D01*
X125602139Y-58120625D01*
X125690379Y-58235621D01*
X125805375Y-58323861D01*
X125939291Y-58379330D01*
X126066280Y-58396048D01*
X126082999Y-58398250D01*
X126083000Y-58398250D01*
X126083001Y-58398250D01*
X126097977Y-58396278D01*
X126226709Y-58379330D01*
X126360625Y-58323861D01*
X126475621Y-58235621D01*
X126563861Y-58120625D01*
X126619330Y-57986709D01*
X126638250Y-57843000D01*
X126619330Y-57699291D01*
X126564313Y-57566466D01*
X126563862Y-57565377D01*
X126563861Y-57565376D01*
X126563861Y-57565375D01*
X126475621Y-57450379D01*
X126360625Y-57362139D01*
X126360624Y-57362138D01*
X126360622Y-57362137D01*
X126226712Y-57306671D01*
X126226710Y-57306670D01*
X126226709Y-57306670D01*
X126154854Y-57297210D01*
X126083001Y-57287750D01*
X126082999Y-57287750D01*
X125939291Y-57306670D01*
X125939287Y-57306671D01*
X125805377Y-57362137D01*
X125690379Y-57450379D01*
X125602137Y-57565377D01*
X125546671Y-57699287D01*
X125546670Y-57699291D01*
X125535857Y-57781426D01*
X125527750Y-57843000D01*
X119514039Y-57843000D01*
X119506470Y-57835431D01*
X119506466Y-57835428D01*
X119506465Y-57835427D01*
X119400482Y-57781426D01*
X119400480Y-57781425D01*
X119400477Y-57781424D01*
X119283003Y-57762819D01*
X119282997Y-57762819D01*
X119165522Y-57781424D01*
X119165521Y-57781424D01*
X119059533Y-57835428D01*
X119059529Y-57835431D01*
X118975431Y-57919529D01*
X118975428Y-57919533D01*
X118921424Y-58025521D01*
X118921424Y-58025522D01*
X118902819Y-58142996D01*
X117811000Y-58142996D01*
X117811000Y-57697400D01*
X117830685Y-57630361D01*
X117847320Y-57609718D01*
X117890569Y-57566469D01*
X117890573Y-57566465D01*
X117944574Y-57460482D01*
X117948146Y-57437928D01*
X119702819Y-57437928D01*
X119702819Y-57437935D01*
X119721424Y-57555409D01*
X119721424Y-57555410D01*
X119721425Y-57555413D01*
X119721426Y-57555414D01*
X119771487Y-57653665D01*
X119775428Y-57661398D01*
X119775431Y-57661402D01*
X119859529Y-57745500D01*
X119859533Y-57745503D01*
X119859535Y-57745505D01*
X119965518Y-57799506D01*
X119965520Y-57799506D01*
X119965522Y-57799507D01*
X120082997Y-57818113D01*
X120083000Y-57818113D01*
X120083003Y-57818113D01*
X120200477Y-57799507D01*
X120200478Y-57799507D01*
X120200479Y-57799506D01*
X120200482Y-57799506D01*
X120306465Y-57745505D01*
X120390573Y-57661397D01*
X120444574Y-57555414D01*
X120444575Y-57555409D01*
X120463181Y-57437935D01*
X120463181Y-57437928D01*
X120444575Y-57320454D01*
X120444575Y-57320453D01*
X120444574Y-57320451D01*
X120444574Y-57320450D01*
X120390573Y-57214467D01*
X120390571Y-57214465D01*
X120390568Y-57214461D01*
X120306470Y-57130363D01*
X120306466Y-57130360D01*
X120306465Y-57130359D01*
X120200482Y-57076358D01*
X120200480Y-57076357D01*
X120200477Y-57076356D01*
X120083003Y-57057751D01*
X120082997Y-57057751D01*
X119965522Y-57076356D01*
X119965521Y-57076356D01*
X119859533Y-57130360D01*
X119859529Y-57130363D01*
X119775431Y-57214461D01*
X119775428Y-57214465D01*
X119721424Y-57320453D01*
X119721424Y-57320454D01*
X119702819Y-57437928D01*
X117948146Y-57437928D01*
X117948542Y-57435428D01*
X117963181Y-57343003D01*
X117963181Y-57342996D01*
X117944575Y-57225522D01*
X117944575Y-57225521D01*
X117944574Y-57225519D01*
X117944574Y-57225518D01*
X117890573Y-57119535D01*
X117890571Y-57119533D01*
X117890568Y-57119529D01*
X117806470Y-57035431D01*
X117806466Y-57035428D01*
X117806465Y-57035427D01*
X117700482Y-56981426D01*
X117700480Y-56981425D01*
X117700477Y-56981424D01*
X117583003Y-56962819D01*
X117582997Y-56962819D01*
X117465522Y-56981424D01*
X117465521Y-56981424D01*
X117359533Y-57035428D01*
X117359529Y-57035431D01*
X117275431Y-57119529D01*
X117275428Y-57119533D01*
X117221424Y-57225521D01*
X117221424Y-57225522D01*
X117202819Y-57342996D01*
X117202819Y-57343003D01*
X117221424Y-57460477D01*
X117221424Y-57460478D01*
X117221425Y-57460481D01*
X117221426Y-57460482D01*
X117273009Y-57561720D01*
X117275428Y-57566466D01*
X117275430Y-57566469D01*
X117318680Y-57609718D01*
X117352166Y-57671041D01*
X117355000Y-57697400D01*
X117355000Y-59522006D01*
X117335315Y-59589045D01*
X117282511Y-59634800D01*
X117213353Y-59644744D01*
X117149797Y-59615719D01*
X117120517Y-59578303D01*
X117090573Y-59519535D01*
X117090571Y-59519533D01*
X117090568Y-59519529D01*
X117006470Y-59435431D01*
X117006466Y-59435428D01*
X117006465Y-59435427D01*
X116900482Y-59381426D01*
X116900480Y-59381425D01*
X116900477Y-59381424D01*
X116783003Y-59362819D01*
X116782997Y-59362819D01*
X116655879Y-59382952D01*
X116655318Y-59379410D01*
X116603438Y-59380876D01*
X116543617Y-59344776D01*
X116512809Y-59282065D01*
X116511000Y-59260960D01*
X116511000Y-58397649D01*
X116510999Y-58397646D01*
X116503412Y-58379329D01*
X116476289Y-58313848D01*
X116412152Y-58249711D01*
X116399500Y-58237059D01*
X116366015Y-58175736D01*
X116363181Y-58149378D01*
X116363181Y-58142996D01*
X116344575Y-58025522D01*
X116344575Y-58025521D01*
X116344574Y-58025519D01*
X116344574Y-58025518D01*
X116290573Y-57919535D01*
X116290571Y-57919533D01*
X116290568Y-57919529D01*
X116206470Y-57835431D01*
X116206466Y-57835428D01*
X116206465Y-57835427D01*
X116100482Y-57781426D01*
X116100480Y-57781425D01*
X116100477Y-57781424D01*
X115983003Y-57762819D01*
X115983001Y-57762819D01*
X115983000Y-57762819D01*
X115963798Y-57765860D01*
X115898896Y-57776139D01*
X115829603Y-57767183D01*
X115776152Y-57722186D01*
X115755513Y-57655434D01*
X115755500Y-57653665D01*
X115755500Y-57005349D01*
X115775185Y-56938310D01*
X115827989Y-56892555D01*
X115897147Y-56882611D01*
X115898898Y-56882876D01*
X115979998Y-56895721D01*
X115980000Y-56895721D01*
X115980003Y-56895721D01*
X116097477Y-56877115D01*
X116097478Y-56877115D01*
X116097479Y-56877114D01*
X116097482Y-56877114D01*
X116203465Y-56823113D01*
X116287573Y-56739005D01*
X116341574Y-56633022D01*
X116344378Y-56615319D01*
X116355833Y-56542996D01*
X118002819Y-56542996D01*
X118002819Y-56543003D01*
X118021424Y-56660477D01*
X118021424Y-56660478D01*
X118021425Y-56660481D01*
X118021426Y-56660482D01*
X118069857Y-56755534D01*
X118075428Y-56766466D01*
X118075431Y-56766470D01*
X118159529Y-56850568D01*
X118159533Y-56850571D01*
X118159535Y-56850573D01*
X118265518Y-56904574D01*
X118265520Y-56904574D01*
X118265522Y-56904575D01*
X118382997Y-56923181D01*
X118383000Y-56923181D01*
X118383003Y-56923181D01*
X118500477Y-56904575D01*
X118500478Y-56904575D01*
X118500479Y-56904574D01*
X118500482Y-56904574D01*
X118606465Y-56850573D01*
X118690573Y-56766465D01*
X118744574Y-56660482D01*
X118744575Y-56660477D01*
X118763181Y-56543003D01*
X118763181Y-56542996D01*
X118744575Y-56425522D01*
X118744575Y-56425521D01*
X118744574Y-56425519D01*
X118744574Y-56425518D01*
X118690573Y-56319535D01*
X118690571Y-56319533D01*
X118690568Y-56319529D01*
X118606470Y-56235431D01*
X118606466Y-56235428D01*
X118606465Y-56235427D01*
X118500482Y-56181426D01*
X118500480Y-56181425D01*
X118500477Y-56181424D01*
X118383003Y-56162819D01*
X118382997Y-56162819D01*
X118265522Y-56181424D01*
X118265521Y-56181424D01*
X118159533Y-56235428D01*
X118159529Y-56235431D01*
X118075431Y-56319529D01*
X118075428Y-56319533D01*
X118021424Y-56425521D01*
X118021424Y-56425522D01*
X118002819Y-56542996D01*
X116355833Y-56542996D01*
X116360181Y-56515543D01*
X116360181Y-56515536D01*
X116341575Y-56398062D01*
X116341575Y-56398061D01*
X116341574Y-56398059D01*
X116341574Y-56398058D01*
X116287573Y-56292075D01*
X116287571Y-56292073D01*
X116287568Y-56292069D01*
X116203470Y-56207971D01*
X116203466Y-56207968D01*
X116203465Y-56207967D01*
X116097482Y-56153966D01*
X116097480Y-56153965D01*
X116097477Y-56153964D01*
X115980003Y-56135359D01*
X115980001Y-56135359D01*
X115980000Y-56135359D01*
X115925489Y-56143992D01*
X115898897Y-56148204D01*
X115829603Y-56139248D01*
X115776152Y-56094251D01*
X115755513Y-56027499D01*
X115755500Y-56025730D01*
X115755500Y-54992417D01*
X119002432Y-54992417D01*
X119002432Y-54992424D01*
X119021037Y-55109898D01*
X119021037Y-55109899D01*
X119021038Y-55109902D01*
X119021039Y-55109903D01*
X119073606Y-55213072D01*
X119075041Y-55215887D01*
X119075044Y-55215891D01*
X119159142Y-55299989D01*
X119159146Y-55299992D01*
X119159148Y-55299994D01*
X119265131Y-55353995D01*
X119265133Y-55353995D01*
X119265135Y-55353996D01*
X119382610Y-55372602D01*
X119382613Y-55372602D01*
X119382616Y-55372602D01*
X119500090Y-55353996D01*
X119500091Y-55353996D01*
X119500092Y-55353995D01*
X119500095Y-55353995D01*
X119606078Y-55299994D01*
X119685037Y-55221034D01*
X119746358Y-55187551D01*
X119816050Y-55192535D01*
X119845603Y-55208399D01*
X119852031Y-55213069D01*
X119852035Y-55213073D01*
X119958018Y-55267074D01*
X119958020Y-55267074D01*
X119958022Y-55267075D01*
X120075497Y-55285681D01*
X120075500Y-55285681D01*
X120075503Y-55285681D01*
X120192977Y-55267075D01*
X120192978Y-55267075D01*
X120192979Y-55267074D01*
X120192982Y-55267074D01*
X120298965Y-55213073D01*
X120383073Y-55128965D01*
X120437074Y-55022982D01*
X120441823Y-54993000D01*
X120455681Y-54905503D01*
X120455681Y-54905496D01*
X120437075Y-54788022D01*
X120437075Y-54788021D01*
X120437074Y-54788019D01*
X120437074Y-54788018D01*
X120383073Y-54682035D01*
X120383071Y-54682033D01*
X120383068Y-54682029D01*
X120298970Y-54597931D01*
X120298966Y-54597928D01*
X120298965Y-54597927D01*
X120192982Y-54543926D01*
X120192980Y-54543925D01*
X120192977Y-54543924D01*
X120075503Y-54525319D01*
X120075497Y-54525319D01*
X119958022Y-54543924D01*
X119958021Y-54543924D01*
X119852033Y-54597928D01*
X119773076Y-54676885D01*
X119711752Y-54710369D01*
X119642061Y-54705385D01*
X119612510Y-54689522D01*
X119606082Y-54684852D01*
X119606078Y-54684848D01*
X119500095Y-54630847D01*
X119500093Y-54630846D01*
X119500090Y-54630845D01*
X119382616Y-54612240D01*
X119382610Y-54612240D01*
X119265135Y-54630845D01*
X119265134Y-54630845D01*
X119159146Y-54684849D01*
X119159142Y-54684852D01*
X119075044Y-54768950D01*
X119075041Y-54768954D01*
X119021037Y-54874942D01*
X119021037Y-54874943D01*
X119002432Y-54992417D01*
X115755500Y-54992417D01*
X115755500Y-54818362D01*
X115755501Y-54818353D01*
X115755501Y-54713219D01*
X115755500Y-54713215D01*
X115729353Y-54650091D01*
X115723677Y-54636389D01*
X115720789Y-54629416D01*
X115656652Y-54565279D01*
X115649587Y-54558214D01*
X115649580Y-54558208D01*
X115447319Y-54355946D01*
X115413834Y-54294623D01*
X115411000Y-54268265D01*
X115411000Y-53563993D01*
X115430685Y-53496954D01*
X115483489Y-53451199D01*
X115552647Y-53441255D01*
X115616203Y-53470280D01*
X115645482Y-53507696D01*
X115656335Y-53528994D01*
X115675426Y-53566464D01*
X115675431Y-53566470D01*
X115759529Y-53650568D01*
X115759533Y-53650571D01*
X115759535Y-53650573D01*
X115865518Y-53704574D01*
X115865520Y-53704574D01*
X115865522Y-53704575D01*
X115982997Y-53723181D01*
X115983000Y-53723181D01*
X115983003Y-53723181D01*
X116100477Y-53704575D01*
X116100478Y-53704575D01*
X116100479Y-53704574D01*
X116100482Y-53704574D01*
X116206465Y-53650573D01*
X116290573Y-53566465D01*
X116302529Y-53543000D01*
X120727867Y-53543000D01*
X120746302Y-53671225D01*
X120800117Y-53789061D01*
X120800118Y-53789063D01*
X120884951Y-53886967D01*
X120993931Y-53957004D01*
X121118225Y-53993499D01*
X121118227Y-53993500D01*
X121118228Y-53993500D01*
X121247773Y-53993500D01*
X121247773Y-53993499D01*
X121372069Y-53957004D01*
X121393860Y-53943000D01*
X123527867Y-53943000D01*
X123546302Y-54071225D01*
X123579081Y-54143000D01*
X123600118Y-54189063D01*
X123684951Y-54286967D01*
X123793931Y-54357004D01*
X123833033Y-54368485D01*
X123918225Y-54393499D01*
X123918227Y-54393500D01*
X123918228Y-54393500D01*
X124047773Y-54393500D01*
X124047773Y-54393499D01*
X124172069Y-54357004D01*
X124281049Y-54286967D01*
X124365882Y-54189063D01*
X124419697Y-54071226D01*
X124438133Y-53943000D01*
X124419697Y-53814774D01*
X124365882Y-53696937D01*
X124281049Y-53599033D01*
X124172069Y-53528996D01*
X124172065Y-53528994D01*
X124172064Y-53528994D01*
X124047774Y-53492500D01*
X124047772Y-53492500D01*
X123918228Y-53492500D01*
X123918226Y-53492500D01*
X123793935Y-53528994D01*
X123793932Y-53528995D01*
X123793931Y-53528996D01*
X123753275Y-53555124D01*
X123684950Y-53599033D01*
X123600118Y-53696937D01*
X123600117Y-53696938D01*
X123546302Y-53814774D01*
X123527867Y-53943000D01*
X121393860Y-53943000D01*
X121481049Y-53886967D01*
X121565882Y-53789063D01*
X121619697Y-53671226D01*
X121638133Y-53543000D01*
X121619697Y-53414774D01*
X121565882Y-53296937D01*
X121481049Y-53199033D01*
X121372069Y-53128996D01*
X121372065Y-53128994D01*
X121372064Y-53128994D01*
X121247774Y-53092500D01*
X121247772Y-53092500D01*
X121118228Y-53092500D01*
X121118226Y-53092500D01*
X120993935Y-53128994D01*
X120993932Y-53128995D01*
X120993931Y-53128996D01*
X120942677Y-53161934D01*
X120884950Y-53199033D01*
X120800118Y-53296937D01*
X120800117Y-53296938D01*
X120746302Y-53414774D01*
X120727867Y-53543000D01*
X116302529Y-53543000D01*
X116344574Y-53460482D01*
X116347619Y-53441255D01*
X116363181Y-53343003D01*
X116363181Y-53342996D01*
X116344575Y-53225522D01*
X116344575Y-53225521D01*
X116344574Y-53225519D01*
X116344574Y-53225518D01*
X116290573Y-53119535D01*
X116290571Y-53119533D01*
X116290568Y-53119529D01*
X116206470Y-53035431D01*
X116206466Y-53035428D01*
X116206465Y-53035427D01*
X116100482Y-52981426D01*
X116100480Y-52981425D01*
X116100477Y-52981424D01*
X115983003Y-52962819D01*
X115982997Y-52962819D01*
X115865522Y-52981424D01*
X115865521Y-52981424D01*
X115759533Y-53035428D01*
X115759529Y-53035431D01*
X115675431Y-53119529D01*
X115675428Y-53119533D01*
X115675427Y-53119535D01*
X115645483Y-53178302D01*
X115597511Y-53229097D01*
X115529690Y-53245892D01*
X115463555Y-53223355D01*
X115420103Y-53168640D01*
X115411000Y-53122006D01*
X115411000Y-51997400D01*
X115430685Y-51930361D01*
X115447320Y-51909718D01*
X115490569Y-51866469D01*
X115490573Y-51866465D01*
X115544574Y-51760482D01*
X115548542Y-51735428D01*
X115563181Y-51643003D01*
X115563181Y-51642996D01*
X115544575Y-51525522D01*
X115544574Y-51525519D01*
X115544574Y-51525518D01*
X115537604Y-51511839D01*
X115524708Y-51443173D01*
X115550983Y-51378433D01*
X115581044Y-51351235D01*
X115681049Y-51286967D01*
X115765882Y-51189063D01*
X115819697Y-51071226D01*
X115838133Y-50943000D01*
X115819697Y-50814774D01*
X115765882Y-50696937D01*
X115762467Y-50692996D01*
X116252819Y-50692996D01*
X116252819Y-50693003D01*
X116271424Y-50810477D01*
X116271424Y-50810478D01*
X116271425Y-50810481D01*
X116271426Y-50810482D01*
X116324565Y-50914774D01*
X116325428Y-50916466D01*
X116325431Y-50916470D01*
X116409529Y-51000568D01*
X116409533Y-51000571D01*
X116409535Y-51000573D01*
X116515518Y-51054574D01*
X116515520Y-51054574D01*
X116515522Y-51054575D01*
X116632997Y-51073181D01*
X116633000Y-51073181D01*
X116633003Y-51073181D01*
X116750476Y-51054575D01*
X116750476Y-51054574D01*
X116750482Y-51054574D01*
X116762935Y-51048228D01*
X116831597Y-51035331D01*
X116896339Y-51061605D01*
X116936598Y-51118710D01*
X116941966Y-51141064D01*
X116946303Y-51171226D01*
X116965298Y-51212819D01*
X116995699Y-51279388D01*
X117000118Y-51289063D01*
X117084951Y-51386967D01*
X117193931Y-51457004D01*
X117264887Y-51477838D01*
X117318225Y-51493499D01*
X117318227Y-51493500D01*
X117318228Y-51493500D01*
X117447773Y-51493500D01*
X117447773Y-51493499D01*
X117572069Y-51457004D01*
X117681049Y-51386967D01*
X117689393Y-51377337D01*
X117748170Y-51339563D01*
X117818039Y-51339561D01*
X117876818Y-51377334D01*
X117905580Y-51439139D01*
X117906219Y-51443173D01*
X117906615Y-51445671D01*
X117958692Y-51547877D01*
X117960617Y-51551655D01*
X117960620Y-51551659D01*
X118044718Y-51635757D01*
X118044722Y-51635760D01*
X118044724Y-51635762D01*
X118150707Y-51689763D01*
X118150709Y-51689763D01*
X118150711Y-51689764D01*
X118268186Y-51708370D01*
X118268189Y-51708370D01*
X118268192Y-51708370D01*
X118385666Y-51689764D01*
X118385667Y-51689764D01*
X118385668Y-51689763D01*
X118385671Y-51689763D01*
X118491654Y-51635762D01*
X118534420Y-51592996D01*
X119002819Y-51592996D01*
X119002819Y-51593003D01*
X119021424Y-51710477D01*
X119021424Y-51710478D01*
X119021425Y-51710481D01*
X119021426Y-51710482D01*
X119046902Y-51760482D01*
X119075428Y-51816466D01*
X119075431Y-51816470D01*
X119159529Y-51900568D01*
X119159533Y-51900571D01*
X119159535Y-51900573D01*
X119265518Y-51954574D01*
X119265520Y-51954574D01*
X119265522Y-51954575D01*
X119382997Y-51973181D01*
X119383000Y-51973181D01*
X119383003Y-51973181D01*
X119500477Y-51954575D01*
X119500478Y-51954575D01*
X119500479Y-51954574D01*
X119500482Y-51954574D01*
X119606465Y-51900573D01*
X119690573Y-51816465D01*
X119744574Y-51710482D01*
X119744909Y-51708370D01*
X119763181Y-51593003D01*
X119763181Y-51592996D01*
X119744575Y-51475522D01*
X119744575Y-51475521D01*
X119744574Y-51475519D01*
X119744574Y-51475518D01*
X119690573Y-51369535D01*
X119690571Y-51369533D01*
X119690568Y-51369529D01*
X119606470Y-51285431D01*
X119606466Y-51285428D01*
X119606465Y-51285427D01*
X119500482Y-51231426D01*
X119500480Y-51231425D01*
X119500477Y-51231424D01*
X119383003Y-51212819D01*
X119382997Y-51212819D01*
X119265522Y-51231424D01*
X119265521Y-51231424D01*
X119159533Y-51285428D01*
X119159529Y-51285431D01*
X119075431Y-51369529D01*
X119075428Y-51369533D01*
X119021424Y-51475521D01*
X119021424Y-51475522D01*
X119002819Y-51592996D01*
X118534420Y-51592996D01*
X118575762Y-51551654D01*
X118629763Y-51445671D01*
X118630159Y-51443173D01*
X118648370Y-51328192D01*
X118648370Y-51328185D01*
X118629764Y-51210711D01*
X118629764Y-51210710D01*
X118629763Y-51210708D01*
X118629763Y-51210707D01*
X118575762Y-51104724D01*
X118575760Y-51104722D01*
X118575757Y-51104718D01*
X118491659Y-51020620D01*
X118491655Y-51020617D01*
X118491654Y-51020616D01*
X118385671Y-50966615D01*
X118385669Y-50966614D01*
X118385666Y-50966613D01*
X118268192Y-50948008D01*
X118268186Y-50948008D01*
X118150711Y-50966613D01*
X118150710Y-50966613D01*
X118044722Y-51020617D01*
X118044717Y-51020621D01*
X118036450Y-51028888D01*
X117975126Y-51062371D01*
X117905435Y-51057384D01*
X117849502Y-51015511D01*
X117826034Y-50958850D01*
X117819697Y-50914774D01*
X117809751Y-50892996D01*
X122052819Y-50892996D01*
X122052819Y-50893003D01*
X122071424Y-51010477D01*
X122071424Y-51010478D01*
X122071425Y-51010481D01*
X122071426Y-51010482D01*
X122119368Y-51104574D01*
X122125428Y-51116466D01*
X122125431Y-51116470D01*
X122209529Y-51200568D01*
X122209533Y-51200571D01*
X122209535Y-51200573D01*
X122315518Y-51254574D01*
X122315520Y-51254574D01*
X122315522Y-51254575D01*
X122432997Y-51273181D01*
X122433000Y-51273181D01*
X122433003Y-51273181D01*
X122550477Y-51254575D01*
X122550478Y-51254575D01*
X122550479Y-51254574D01*
X122550482Y-51254574D01*
X122656465Y-51200573D01*
X122740573Y-51116465D01*
X122794574Y-51010482D01*
X122795510Y-51004574D01*
X122813181Y-50893003D01*
X122813181Y-50892996D01*
X122794575Y-50775522D01*
X122794575Y-50775521D01*
X122794574Y-50775519D01*
X122794574Y-50775518D01*
X122740573Y-50669535D01*
X122740571Y-50669533D01*
X122740568Y-50669529D01*
X122656470Y-50585431D01*
X122656466Y-50585428D01*
X122656465Y-50585427D01*
X122550482Y-50531426D01*
X122550480Y-50531425D01*
X122550477Y-50531424D01*
X122433003Y-50512819D01*
X122432997Y-50512819D01*
X122315522Y-50531424D01*
X122315521Y-50531424D01*
X122209533Y-50585428D01*
X122209529Y-50585431D01*
X122125431Y-50669529D01*
X122125428Y-50669533D01*
X122071424Y-50775521D01*
X122071424Y-50775522D01*
X122052819Y-50892996D01*
X117809751Y-50892996D01*
X117794902Y-50860482D01*
X117765882Y-50796937D01*
X117681049Y-50699033D01*
X117572069Y-50628996D01*
X117572065Y-50628994D01*
X117572064Y-50628994D01*
X117447774Y-50592500D01*
X117447772Y-50592500D01*
X117318228Y-50592500D01*
X117318226Y-50592500D01*
X117193934Y-50628994D01*
X117178660Y-50638810D01*
X117111620Y-50658492D01*
X117044581Y-50638805D01*
X116998828Y-50586000D01*
X116995311Y-50576967D01*
X116994574Y-50575521D01*
X116994574Y-50575518D01*
X116940573Y-50469535D01*
X116940571Y-50469533D01*
X116940568Y-50469529D01*
X116856470Y-50385431D01*
X116856466Y-50385428D01*
X116856465Y-50385427D01*
X116750482Y-50331426D01*
X116750480Y-50331425D01*
X116750477Y-50331424D01*
X116633003Y-50312819D01*
X116632997Y-50312819D01*
X116515522Y-50331424D01*
X116515521Y-50331424D01*
X116409533Y-50385428D01*
X116409529Y-50385431D01*
X116325431Y-50469529D01*
X116325428Y-50469533D01*
X116271424Y-50575521D01*
X116271424Y-50575522D01*
X116252819Y-50692996D01*
X115762467Y-50692996D01*
X115681049Y-50599033D01*
X115572069Y-50528996D01*
X115572065Y-50528994D01*
X115572064Y-50528994D01*
X115447774Y-50492500D01*
X115447772Y-50492500D01*
X115318228Y-50492500D01*
X115318226Y-50492500D01*
X115193933Y-50528994D01*
X115193932Y-50528994D01*
X115129538Y-50570378D01*
X115062499Y-50590062D01*
X114995459Y-50570377D01*
X114949705Y-50517572D01*
X114938500Y-50466062D01*
X114938500Y-50142996D01*
X123352819Y-50142996D01*
X123352819Y-50143003D01*
X123371424Y-50260477D01*
X123371424Y-50260478D01*
X123371425Y-50260481D01*
X123371426Y-50260482D01*
X123423569Y-50362819D01*
X123425428Y-50366466D01*
X123425431Y-50366470D01*
X123509529Y-50450568D01*
X123509533Y-50450571D01*
X123509535Y-50450573D01*
X123615518Y-50504574D01*
X123615520Y-50504574D01*
X123615522Y-50504575D01*
X123732997Y-50523181D01*
X123733000Y-50523181D01*
X123733003Y-50523181D01*
X123850477Y-50504575D01*
X123850478Y-50504575D01*
X123850479Y-50504574D01*
X123850482Y-50504574D01*
X123956465Y-50450573D01*
X124040573Y-50366465D01*
X124094574Y-50260482D01*
X124094575Y-50260477D01*
X124113181Y-50143003D01*
X124113181Y-50142996D01*
X124094575Y-50025522D01*
X124094575Y-50025521D01*
X124094574Y-50025519D01*
X124094574Y-50025518D01*
X124040573Y-49919535D01*
X124040571Y-49919533D01*
X124040568Y-49919529D01*
X123956470Y-49835431D01*
X123956466Y-49835428D01*
X123956465Y-49835427D01*
X123850482Y-49781426D01*
X123850480Y-49781425D01*
X123850477Y-49781424D01*
X123733003Y-49762819D01*
X123732997Y-49762819D01*
X123615522Y-49781424D01*
X123615521Y-49781424D01*
X123509533Y-49835428D01*
X123509529Y-49835431D01*
X123425431Y-49919529D01*
X123425428Y-49919533D01*
X123371424Y-50025521D01*
X123371424Y-50025522D01*
X123352819Y-50142996D01*
X114938500Y-50142996D01*
X114938500Y-49242996D01*
X115202819Y-49242996D01*
X115202819Y-49243003D01*
X115221424Y-49360477D01*
X115221424Y-49360478D01*
X115275428Y-49466466D01*
X115275431Y-49466470D01*
X115359529Y-49550568D01*
X115359533Y-49550571D01*
X115359535Y-49550573D01*
X115465518Y-49604574D01*
X115465520Y-49604574D01*
X115465522Y-49604575D01*
X115582997Y-49623181D01*
X115583000Y-49623181D01*
X115583003Y-49623181D01*
X115700477Y-49604575D01*
X115700478Y-49604575D01*
X115700479Y-49604574D01*
X115700482Y-49604574D01*
X115806465Y-49550573D01*
X115890573Y-49466465D01*
X115944574Y-49360482D01*
X115948611Y-49334994D01*
X115963181Y-49243003D01*
X115963181Y-49242996D01*
X115944575Y-49125522D01*
X115944575Y-49125521D01*
X115944574Y-49125519D01*
X115944574Y-49125518D01*
X115890573Y-49019535D01*
X115890571Y-49019533D01*
X115890568Y-49019529D01*
X115806470Y-48935431D01*
X115806466Y-48935428D01*
X115806465Y-48935427D01*
X115700482Y-48881426D01*
X115700480Y-48881425D01*
X115700477Y-48881424D01*
X115583003Y-48862819D01*
X115582997Y-48862819D01*
X115465522Y-48881424D01*
X115465521Y-48881424D01*
X115359533Y-48935428D01*
X115359529Y-48935431D01*
X115275431Y-49019529D01*
X115275428Y-49019533D01*
X115221424Y-49125521D01*
X115221424Y-49125522D01*
X115202819Y-49242996D01*
X114938500Y-49242996D01*
X114938500Y-47366511D01*
X114949706Y-47314999D01*
X114953357Y-47307005D01*
X114969697Y-47271226D01*
X114988133Y-47143000D01*
X114969697Y-47014774D01*
X114915882Y-46896937D01*
X114912471Y-46893000D01*
X115377867Y-46893000D01*
X115396302Y-47021225D01*
X115411533Y-47054575D01*
X115450118Y-47139063D01*
X115512551Y-47211116D01*
X115533616Y-47235427D01*
X115534951Y-47236967D01*
X115643931Y-47307004D01*
X115686602Y-47319533D01*
X115768225Y-47343499D01*
X115768227Y-47343500D01*
X115768228Y-47343500D01*
X115897773Y-47343500D01*
X115897773Y-47343499D01*
X116022069Y-47307004D01*
X116131049Y-47236967D01*
X116215882Y-47139063D01*
X116269697Y-47021226D01*
X116288133Y-46893000D01*
X116269697Y-46764774D01*
X116236917Y-46692996D01*
X119552819Y-46692996D01*
X119552819Y-46693003D01*
X119571424Y-46810477D01*
X119571424Y-46810478D01*
X119571425Y-46810481D01*
X119571426Y-46810482D01*
X119592602Y-46852043D01*
X119625428Y-46916466D01*
X119625431Y-46916470D01*
X119709529Y-47000568D01*
X119709533Y-47000571D01*
X119709535Y-47000573D01*
X119815518Y-47054574D01*
X119815520Y-47054574D01*
X119815522Y-47054575D01*
X119932997Y-47073181D01*
X119933000Y-47073181D01*
X119933003Y-47073181D01*
X120050477Y-47054575D01*
X120050478Y-47054575D01*
X120050479Y-47054574D01*
X120050482Y-47054574D01*
X120156465Y-47000573D01*
X120240573Y-46916465D01*
X120247515Y-46902839D01*
X120295489Y-46852043D01*
X120363310Y-46835248D01*
X120429445Y-46857785D01*
X120468485Y-46902840D01*
X120475426Y-46916463D01*
X120475431Y-46916470D01*
X120559529Y-47000568D01*
X120559533Y-47000571D01*
X120559535Y-47000573D01*
X120665518Y-47054574D01*
X120665520Y-47054574D01*
X120665522Y-47054575D01*
X120782997Y-47073181D01*
X120783000Y-47073181D01*
X120783003Y-47073181D01*
X120900477Y-47054575D01*
X120900478Y-47054575D01*
X120900479Y-47054574D01*
X120900482Y-47054574D01*
X121006465Y-47000573D01*
X121090573Y-46916465D01*
X121144574Y-46810482D01*
X121144575Y-46810477D01*
X121163181Y-46693003D01*
X121163181Y-46692996D01*
X121144575Y-46575522D01*
X121144575Y-46575521D01*
X121144574Y-46575519D01*
X121144574Y-46575518D01*
X121090573Y-46469535D01*
X121090571Y-46469533D01*
X121090568Y-46469529D01*
X121006470Y-46385431D01*
X121006466Y-46385428D01*
X121006465Y-46385427D01*
X120900482Y-46331426D01*
X120900480Y-46331425D01*
X120900477Y-46331424D01*
X120783003Y-46312819D01*
X120782997Y-46312819D01*
X120665522Y-46331424D01*
X120665521Y-46331424D01*
X120559533Y-46385428D01*
X120559529Y-46385431D01*
X120475431Y-46469529D01*
X120475426Y-46469536D01*
X120468484Y-46483161D01*
X120420509Y-46533957D01*
X120352688Y-46550751D01*
X120286553Y-46528213D01*
X120247516Y-46483161D01*
X120240579Y-46469547D01*
X120240573Y-46469535D01*
X120240570Y-46469532D01*
X120240568Y-46469529D01*
X120156470Y-46385431D01*
X120156466Y-46385428D01*
X120156465Y-46385427D01*
X120050482Y-46331426D01*
X120050480Y-46331425D01*
X120050477Y-46331424D01*
X119933003Y-46312819D01*
X119932997Y-46312819D01*
X119815522Y-46331424D01*
X119815521Y-46331424D01*
X119709533Y-46385428D01*
X119709529Y-46385431D01*
X119625431Y-46469529D01*
X119625428Y-46469533D01*
X119571424Y-46575521D01*
X119571424Y-46575522D01*
X119552819Y-46692996D01*
X116236917Y-46692996D01*
X116215882Y-46646937D01*
X116131049Y-46549033D01*
X116022069Y-46478996D01*
X116022065Y-46478994D01*
X116022064Y-46478994D01*
X115897774Y-46442500D01*
X115897772Y-46442500D01*
X115768228Y-46442500D01*
X115768226Y-46442500D01*
X115643935Y-46478994D01*
X115643932Y-46478995D01*
X115643931Y-46478996D01*
X115592677Y-46511934D01*
X115534950Y-46549033D01*
X115450118Y-46646937D01*
X115450117Y-46646938D01*
X115396302Y-46764774D01*
X115377867Y-46893000D01*
X114912471Y-46893000D01*
X114831049Y-46799033D01*
X114722069Y-46728996D01*
X114722065Y-46728994D01*
X114722064Y-46728994D01*
X114597774Y-46692500D01*
X114597772Y-46692500D01*
X114468228Y-46692500D01*
X114468226Y-46692500D01*
X114343935Y-46728994D01*
X114343932Y-46728995D01*
X114343931Y-46728996D01*
X114292677Y-46761934D01*
X114234950Y-46799033D01*
X114150118Y-46896937D01*
X114150117Y-46896938D01*
X114096302Y-47014774D01*
X114077211Y-47147560D01*
X114048186Y-47211116D01*
X113989408Y-47248890D01*
X113919541Y-47248891D01*
X113897773Y-47242500D01*
X113897772Y-47242500D01*
X113768228Y-47242500D01*
X113768226Y-47242500D01*
X113643935Y-47278994D01*
X113643932Y-47278995D01*
X113643931Y-47278996D01*
X113600350Y-47307004D01*
X113534950Y-47349033D01*
X113450118Y-47446937D01*
X113450117Y-47446938D01*
X113396302Y-47564774D01*
X113377867Y-47693000D01*
X113396302Y-47821225D01*
X113439025Y-47914774D01*
X113450118Y-47939063D01*
X113534951Y-48036967D01*
X113643931Y-48107004D01*
X113696388Y-48122406D01*
X113755164Y-48160179D01*
X113784191Y-48223734D01*
X113774248Y-48292892D01*
X113728494Y-48345697D01*
X113661455Y-48365383D01*
X113642062Y-48363857D01*
X113635506Y-48362819D01*
X113635497Y-48362819D01*
X113518022Y-48381424D01*
X113518021Y-48381424D01*
X113412033Y-48435428D01*
X113412029Y-48435431D01*
X113327931Y-48519529D01*
X113327928Y-48519533D01*
X113273924Y-48625521D01*
X113273924Y-48625522D01*
X113255319Y-48742996D01*
X113255319Y-48743003D01*
X113273924Y-48860477D01*
X113273924Y-48860478D01*
X113273925Y-48860481D01*
X113273926Y-48860482D01*
X113312114Y-48935431D01*
X113327928Y-48966466D01*
X113327931Y-48966470D01*
X113412029Y-49050568D01*
X113412033Y-49050571D01*
X113412035Y-49050573D01*
X113518018Y-49104574D01*
X113518020Y-49104574D01*
X113518022Y-49104575D01*
X113635497Y-49123181D01*
X113635500Y-49123181D01*
X113635503Y-49123181D01*
X113752977Y-49104575D01*
X113752977Y-49104574D01*
X113752982Y-49104574D01*
X113774707Y-49093504D01*
X113843372Y-49080608D01*
X113908113Y-49106883D01*
X113948371Y-49163989D01*
X113955000Y-49203989D01*
X113955000Y-50308760D01*
X113935315Y-50375799D01*
X113882511Y-50421554D01*
X113813353Y-50431498D01*
X113774706Y-50419245D01*
X113700481Y-50381425D01*
X113700477Y-50381424D01*
X113583003Y-50362819D01*
X113582997Y-50362819D01*
X113465522Y-50381424D01*
X113465521Y-50381424D01*
X113359533Y-50435428D01*
X113359529Y-50435431D01*
X113270681Y-50524280D01*
X113209358Y-50557765D01*
X113139666Y-50552781D01*
X113095319Y-50524280D01*
X113006470Y-50435431D01*
X113006466Y-50435428D01*
X113006465Y-50435427D01*
X112900482Y-50381426D01*
X112900480Y-50381425D01*
X112900477Y-50381424D01*
X112783003Y-50362819D01*
X112782997Y-50362819D01*
X112665522Y-50381424D01*
X112665521Y-50381424D01*
X112559533Y-50435428D01*
X112559529Y-50435431D01*
X112475431Y-50519529D01*
X112475428Y-50519533D01*
X112475427Y-50519535D01*
X112421426Y-50625518D01*
X112421425Y-50625519D01*
X112421425Y-50625521D01*
X112402819Y-50742996D01*
X112402819Y-50743003D01*
X112421424Y-50860477D01*
X112421424Y-50860478D01*
X112421425Y-50860481D01*
X112421426Y-50860482D01*
X112473009Y-50961720D01*
X112475428Y-50966466D01*
X112475431Y-50966470D01*
X112559529Y-51050568D01*
X112559533Y-51050571D01*
X112559535Y-51050573D01*
X112665518Y-51104574D01*
X112665520Y-51104574D01*
X112665522Y-51104575D01*
X112782997Y-51123181D01*
X112783000Y-51123181D01*
X112783003Y-51123181D01*
X112900477Y-51104575D01*
X112900478Y-51104575D01*
X112900479Y-51104574D01*
X112900482Y-51104574D01*
X113006465Y-51050573D01*
X113046561Y-51010477D01*
X113095319Y-50961720D01*
X113156642Y-50928235D01*
X113226334Y-50933219D01*
X113270681Y-50961720D01*
X113359529Y-51050568D01*
X113359533Y-51050571D01*
X113359535Y-51050573D01*
X113465518Y-51104574D01*
X113465520Y-51104574D01*
X113465522Y-51104575D01*
X113582997Y-51123181D01*
X113583000Y-51123181D01*
X113583003Y-51123181D01*
X113700477Y-51104575D01*
X113700478Y-51104574D01*
X113700482Y-51104574D01*
X113774707Y-51066754D01*
X113843374Y-51053858D01*
X113908114Y-51080134D01*
X113948372Y-51137240D01*
X113955000Y-51177239D01*
X113955000Y-54130937D01*
X113935315Y-54197976D01*
X113918681Y-54218618D01*
X112934713Y-55202585D01*
X112934712Y-55202586D01*
X112900001Y-55286385D01*
X112900001Y-55973286D01*
X112934712Y-56057085D01*
X113633161Y-56755534D01*
X113666646Y-56816857D01*
X113661662Y-56886549D01*
X113619790Y-56942482D01*
X113564878Y-56965688D01*
X113465522Y-56981424D01*
X113465521Y-56981424D01*
X113359533Y-57035428D01*
X113359529Y-57035431D01*
X113270681Y-57124280D01*
X113209358Y-57157765D01*
X113139666Y-57152781D01*
X113095319Y-57124280D01*
X113006470Y-57035431D01*
X113006466Y-57035428D01*
X113006465Y-57035427D01*
X112900482Y-56981426D01*
X112900480Y-56981425D01*
X112900477Y-56981424D01*
X112783003Y-56962819D01*
X112782997Y-56962819D01*
X112665522Y-56981424D01*
X112665521Y-56981424D01*
X112559533Y-57035428D01*
X112559529Y-57035431D01*
X112475431Y-57119529D01*
X112475428Y-57119533D01*
X112421424Y-57225521D01*
X112421424Y-57225522D01*
X112402819Y-57342996D01*
X112402819Y-57343003D01*
X112421424Y-57460477D01*
X112421424Y-57460478D01*
X112421425Y-57460481D01*
X112421426Y-57460482D01*
X112473009Y-57561720D01*
X112475428Y-57566466D01*
X112475431Y-57566470D01*
X112559529Y-57650568D01*
X112559533Y-57650571D01*
X112559535Y-57650573D01*
X112665518Y-57704574D01*
X112665520Y-57704574D01*
X112665522Y-57704575D01*
X112782997Y-57723181D01*
X112783000Y-57723181D01*
X112783003Y-57723181D01*
X112900477Y-57704575D01*
X112900478Y-57704575D01*
X112900479Y-57704574D01*
X112900482Y-57704574D01*
X113006465Y-57650573D01*
X113047320Y-57609718D01*
X113095319Y-57561720D01*
X113156642Y-57528235D01*
X113226334Y-57533219D01*
X113270681Y-57561720D01*
X113359529Y-57650568D01*
X113359533Y-57650571D01*
X113359535Y-57650573D01*
X113465518Y-57704574D01*
X113465520Y-57704574D01*
X113465522Y-57704575D01*
X113592638Y-57724708D01*
X113592240Y-57727215D01*
X113645539Y-57742866D01*
X113691294Y-57795670D01*
X113702500Y-57847181D01*
X113702500Y-59099697D01*
X113682815Y-59166736D01*
X113666181Y-59187378D01*
X113293430Y-59560128D01*
X113232107Y-59593613D01*
X113162415Y-59588629D01*
X113106482Y-59546757D01*
X113095265Y-59528744D01*
X113090573Y-59519535D01*
X113090571Y-59519533D01*
X113090568Y-59519529D01*
X113006470Y-59435431D01*
X113006466Y-59435428D01*
X113006465Y-59435427D01*
X112900482Y-59381426D01*
X112900480Y-59381425D01*
X112900477Y-59381424D01*
X112783003Y-59362819D01*
X112782997Y-59362819D01*
X112665522Y-59381424D01*
X112665521Y-59381424D01*
X112559533Y-59435428D01*
X112559529Y-59435431D01*
X112475431Y-59519529D01*
X112475428Y-59519533D01*
X112474972Y-59520428D01*
X112421426Y-59625518D01*
X112421425Y-59625519D01*
X112421425Y-59625521D01*
X112402819Y-59742996D01*
X112402819Y-59743003D01*
X112421424Y-59860477D01*
X112421424Y-59860478D01*
X112421425Y-59860481D01*
X112421426Y-59860482D01*
X112475426Y-59966464D01*
X112475428Y-59966466D01*
X112475431Y-59966470D01*
X112559529Y-60050568D01*
X112559534Y-60050572D01*
X112559535Y-60050573D01*
X112568744Y-60055265D01*
X112619539Y-60103241D01*
X112636333Y-60171062D01*
X112613794Y-60237197D01*
X112600128Y-60253430D01*
X112493430Y-60360128D01*
X112432107Y-60393613D01*
X112362415Y-60388629D01*
X112306482Y-60346757D01*
X112295265Y-60328744D01*
X112290572Y-60319534D01*
X112290568Y-60319529D01*
X112206470Y-60235431D01*
X112206466Y-60235428D01*
X112206465Y-60235427D01*
X112100482Y-60181426D01*
X112100480Y-60181425D01*
X112100477Y-60181424D01*
X111983003Y-60162819D01*
X111976622Y-60162819D01*
X111909583Y-60143134D01*
X111888941Y-60126500D01*
X111847319Y-60084878D01*
X111813834Y-60023555D01*
X111811000Y-59997197D01*
X111811000Y-59323821D01*
X111826285Y-59271765D01*
X111824115Y-59270867D01*
X111832522Y-59250571D01*
X111863500Y-59175784D01*
X111863500Y-59085080D01*
X111863500Y-57110216D01*
X111828789Y-57026416D01*
X111828788Y-57026415D01*
X111824115Y-57015133D01*
X111826586Y-57014109D01*
X111811020Y-56964386D01*
X111811000Y-56962178D01*
X111811000Y-56241124D01*
X111830685Y-56174085D01*
X111883489Y-56128330D01*
X111952647Y-56118386D01*
X111954381Y-56118648D01*
X111966998Y-56120646D01*
X111982999Y-56123181D01*
X111983000Y-56123181D01*
X111983003Y-56123181D01*
X112100477Y-56104575D01*
X112100478Y-56104575D01*
X112100479Y-56104574D01*
X112100482Y-56104574D01*
X112206465Y-56050573D01*
X112290573Y-55966465D01*
X112344574Y-55860482D01*
X112345717Y-55853265D01*
X112363181Y-55743003D01*
X112363181Y-55742996D01*
X112344575Y-55625522D01*
X112344575Y-55625521D01*
X112344574Y-55625519D01*
X112344574Y-55625518D01*
X112290573Y-55519535D01*
X112290571Y-55519533D01*
X112290568Y-55519529D01*
X112247319Y-55476280D01*
X112213834Y-55414957D01*
X112211000Y-55388599D01*
X112211000Y-55253917D01*
X112210999Y-55253914D01*
X112195487Y-55216465D01*
X112177938Y-55174098D01*
X112168500Y-55126647D01*
X112168500Y-54355149D01*
X112168499Y-54355146D01*
X112155654Y-54324136D01*
X112133789Y-54271348D01*
X112069652Y-54207211D01*
X112005437Y-54142996D01*
X112402819Y-54142996D01*
X112402819Y-54143003D01*
X112421424Y-54260477D01*
X112421424Y-54260478D01*
X112421425Y-54260481D01*
X112421426Y-54260482D01*
X112475426Y-54366464D01*
X112475428Y-54366466D01*
X112475431Y-54366470D01*
X112559529Y-54450568D01*
X112559533Y-54450571D01*
X112559535Y-54450573D01*
X112665518Y-54504574D01*
X112665520Y-54504574D01*
X112665522Y-54504575D01*
X112782997Y-54523181D01*
X112783000Y-54523181D01*
X112783003Y-54523181D01*
X112900477Y-54504575D01*
X112900478Y-54504575D01*
X112900479Y-54504574D01*
X112900482Y-54504574D01*
X113006465Y-54450573D01*
X113090573Y-54366465D01*
X113144574Y-54260482D01*
X113147095Y-54244564D01*
X113163181Y-54143003D01*
X113163181Y-54142996D01*
X113144575Y-54025522D01*
X113144575Y-54025521D01*
X113144574Y-54025519D01*
X113144574Y-54025518D01*
X113090573Y-53919535D01*
X113090571Y-53919533D01*
X113090568Y-53919529D01*
X113006470Y-53835431D01*
X113006466Y-53835428D01*
X113006465Y-53835427D01*
X112900482Y-53781426D01*
X112900480Y-53781425D01*
X112900477Y-53781424D01*
X112783003Y-53762819D01*
X112782997Y-53762819D01*
X112665522Y-53781424D01*
X112665521Y-53781424D01*
X112559533Y-53835428D01*
X112559529Y-53835431D01*
X112475431Y-53919529D01*
X112475428Y-53919533D01*
X112421424Y-54025521D01*
X112421424Y-54025522D01*
X112402819Y-54142996D01*
X112005437Y-54142996D01*
X111777381Y-53914940D01*
X111743896Y-53853617D01*
X111748880Y-53783925D01*
X111790752Y-53727992D01*
X111856216Y-53703575D01*
X111884457Y-53704785D01*
X111933498Y-53712552D01*
X112000600Y-53723181D01*
X112000602Y-53723181D01*
X112000605Y-53723181D01*
X112118079Y-53704575D01*
X112118080Y-53704575D01*
X112118081Y-53704574D01*
X112118084Y-53704574D01*
X112224067Y-53650573D01*
X112308175Y-53566465D01*
X112362176Y-53460482D01*
X112365221Y-53441255D01*
X112380783Y-53343003D01*
X112380783Y-53342996D01*
X112362177Y-53225522D01*
X112362177Y-53225521D01*
X112362176Y-53225519D01*
X112362176Y-53225518D01*
X112308175Y-53119535D01*
X112308173Y-53119533D01*
X112308170Y-53119529D01*
X112217167Y-53028526D01*
X112218107Y-53027585D01*
X112181597Y-52980236D01*
X112175619Y-52910622D01*
X112208227Y-52848828D01*
X112209399Y-52847638D01*
X112290573Y-52766465D01*
X112344574Y-52660482D01*
X112344575Y-52660477D01*
X112363181Y-52543003D01*
X112363181Y-52542996D01*
X112344575Y-52425522D01*
X112344575Y-52425521D01*
X112344574Y-52425519D01*
X112344574Y-52425518D01*
X112290573Y-52319535D01*
X112290571Y-52319533D01*
X112290568Y-52319529D01*
X112206470Y-52235431D01*
X112206466Y-52235428D01*
X112206465Y-52235427D01*
X112100482Y-52181426D01*
X112100480Y-52181425D01*
X112100477Y-52181424D01*
X111983003Y-52162819D01*
X111982997Y-52162819D01*
X111865522Y-52181424D01*
X111865521Y-52181424D01*
X111759533Y-52235428D01*
X111759529Y-52235431D01*
X111675431Y-52319529D01*
X111675428Y-52319533D01*
X111621424Y-52425521D01*
X111621424Y-52425522D01*
X111602819Y-52542996D01*
X111602819Y-52543003D01*
X111621424Y-52660477D01*
X111621424Y-52660478D01*
X111675428Y-52766466D01*
X111675431Y-52766470D01*
X111766435Y-52857474D01*
X111765494Y-52858414D01*
X111802003Y-52905761D01*
X111807982Y-52975374D01*
X111775376Y-53037169D01*
X111774134Y-53038428D01*
X111725184Y-53087379D01*
X111663861Y-53120865D01*
X111594170Y-53115881D01*
X111549821Y-53087380D01*
X109130437Y-50667996D01*
X109877819Y-50667996D01*
X109877819Y-50668003D01*
X109896424Y-50785477D01*
X109896424Y-50785478D01*
X109896425Y-50785481D01*
X109896426Y-50785482D01*
X109939003Y-50869045D01*
X109950428Y-50891466D01*
X109950431Y-50891470D01*
X110034529Y-50975568D01*
X110034533Y-50975571D01*
X110034535Y-50975573D01*
X110140518Y-51029574D01*
X110140520Y-51029574D01*
X110140522Y-51029575D01*
X110257997Y-51048181D01*
X110258000Y-51048181D01*
X110258003Y-51048181D01*
X110375477Y-51029575D01*
X110375478Y-51029575D01*
X110375479Y-51029574D01*
X110375482Y-51029574D01*
X110481465Y-50975573D01*
X110565573Y-50891465D01*
X110619574Y-50785482D01*
X110621044Y-50776202D01*
X110638181Y-50668003D01*
X110638181Y-50667996D01*
X110619575Y-50550522D01*
X110619575Y-50550521D01*
X110619574Y-50550519D01*
X110619574Y-50550518D01*
X110565573Y-50444535D01*
X110565571Y-50444533D01*
X110565568Y-50444529D01*
X110481470Y-50360431D01*
X110481466Y-50360428D01*
X110481465Y-50360427D01*
X110375482Y-50306426D01*
X110375480Y-50306425D01*
X110375477Y-50306424D01*
X110258003Y-50287819D01*
X110257997Y-50287819D01*
X110140522Y-50306424D01*
X110140521Y-50306424D01*
X110034533Y-50360428D01*
X110034529Y-50360431D01*
X109950431Y-50444529D01*
X109950428Y-50444533D01*
X109896424Y-50550521D01*
X109896424Y-50550522D01*
X109877819Y-50667996D01*
X109130437Y-50667996D01*
X106912152Y-48449711D01*
X106828353Y-48415000D01*
X106828352Y-48415000D01*
X104601316Y-48415000D01*
X104534277Y-48395315D01*
X104488522Y-48342511D01*
X104478578Y-48273353D01*
X104488522Y-48239488D01*
X104511551Y-48189062D01*
X104519697Y-48171226D01*
X104538133Y-48043000D01*
X104519697Y-47914774D01*
X104465882Y-47796937D01*
X104381049Y-47699033D01*
X104272069Y-47628996D01*
X104272065Y-47628994D01*
X104272064Y-47628994D01*
X104147774Y-47592500D01*
X104147772Y-47592500D01*
X104018228Y-47592500D01*
X104018226Y-47592500D01*
X103893935Y-47628994D01*
X103893932Y-47628995D01*
X103893931Y-47628996D01*
X103844944Y-47660478D01*
X103784950Y-47699033D01*
X103700118Y-47796937D01*
X103700117Y-47796938D01*
X103646302Y-47914774D01*
X103627867Y-48043000D01*
X103646302Y-48171225D01*
X103677478Y-48239488D01*
X103687422Y-48308646D01*
X103658398Y-48372202D01*
X103599620Y-48409977D01*
X103564684Y-48415000D01*
X102628803Y-48415000D01*
X102561764Y-48395315D01*
X102541122Y-48378681D01*
X102265343Y-48102902D01*
X102231858Y-48041579D01*
X102230286Y-47997576D01*
X102238133Y-47943000D01*
X102219697Y-47814774D01*
X102165882Y-47696937D01*
X102081049Y-47599033D01*
X101993853Y-47542996D01*
X109877819Y-47542996D01*
X109877819Y-47543003D01*
X109896424Y-47660477D01*
X109896424Y-47660478D01*
X109950428Y-47766466D01*
X109950431Y-47766470D01*
X110034529Y-47850568D01*
X110034533Y-47850571D01*
X110034535Y-47850573D01*
X110140518Y-47904574D01*
X110140520Y-47904574D01*
X110140522Y-47904575D01*
X110257997Y-47923181D01*
X110258000Y-47923181D01*
X110258003Y-47923181D01*
X110375477Y-47904575D01*
X110375478Y-47904575D01*
X110375479Y-47904574D01*
X110375482Y-47904574D01*
X110481465Y-47850573D01*
X110565573Y-47766465D01*
X110619574Y-47660482D01*
X110624561Y-47628994D01*
X110638181Y-47543003D01*
X110638181Y-47542996D01*
X110619575Y-47425522D01*
X110619575Y-47425521D01*
X110619574Y-47425519D01*
X110619574Y-47425518D01*
X110565573Y-47319535D01*
X110565571Y-47319533D01*
X110565568Y-47319529D01*
X110481470Y-47235431D01*
X110481466Y-47235428D01*
X110481465Y-47235427D01*
X110375482Y-47181426D01*
X110375480Y-47181425D01*
X110375477Y-47181424D01*
X110258003Y-47162819D01*
X110257997Y-47162819D01*
X110140522Y-47181424D01*
X110140521Y-47181424D01*
X110034533Y-47235428D01*
X110034529Y-47235431D01*
X109950431Y-47319529D01*
X109950428Y-47319533D01*
X109896424Y-47425521D01*
X109896424Y-47425522D01*
X109877819Y-47542996D01*
X101993853Y-47542996D01*
X101972069Y-47528996D01*
X101972065Y-47528994D01*
X101972064Y-47528994D01*
X101847774Y-47492500D01*
X101847772Y-47492500D01*
X101718228Y-47492500D01*
X101718226Y-47492500D01*
X101593935Y-47528994D01*
X101593932Y-47528995D01*
X101593931Y-47528996D01*
X101572136Y-47543003D01*
X101484950Y-47599033D01*
X101400118Y-47696937D01*
X101400117Y-47696938D01*
X101346302Y-47814774D01*
X101327867Y-47943000D01*
X101346302Y-48071225D01*
X101391972Y-48171226D01*
X101400118Y-48189063D01*
X101484951Y-48286967D01*
X101593931Y-48357004D01*
X101718225Y-48393499D01*
X101718227Y-48393500D01*
X101856641Y-48393500D01*
X101856641Y-48396537D01*
X101910783Y-48404302D01*
X101946993Y-48429434D01*
X102289711Y-48772152D01*
X102353848Y-48836289D01*
X102437648Y-48871000D01*
X106637197Y-48871000D01*
X106704236Y-48890685D01*
X106724878Y-48907319D01*
X107720878Y-49903319D01*
X107754363Y-49964642D01*
X107749379Y-50034334D01*
X107707507Y-50090267D01*
X107642043Y-50114684D01*
X107633197Y-50115000D01*
X102304057Y-50115000D01*
X102237018Y-50095315D01*
X102191263Y-50042511D01*
X102181319Y-49973353D01*
X102191263Y-49939489D01*
X102212265Y-49893500D01*
X102219697Y-49877226D01*
X102238133Y-49749000D01*
X102219697Y-49620774D01*
X102165882Y-49502937D01*
X102081049Y-49405033D01*
X101972069Y-49334996D01*
X101972065Y-49334994D01*
X101972064Y-49334994D01*
X101847774Y-49298500D01*
X101847772Y-49298500D01*
X101718228Y-49298500D01*
X101718226Y-49298500D01*
X101593935Y-49334994D01*
X101593932Y-49334995D01*
X101593931Y-49334996D01*
X101554282Y-49360477D01*
X101484950Y-49405033D01*
X101400118Y-49502937D01*
X101400117Y-49502938D01*
X101346302Y-49620774D01*
X101327867Y-49749000D01*
X101344773Y-49866585D01*
X101334829Y-49935744D01*
X101289074Y-49988548D01*
X101222035Y-50008232D01*
X101154995Y-49988547D01*
X101134354Y-49971913D01*
X100665343Y-49502902D01*
X100631858Y-49441579D01*
X100630286Y-49397576D01*
X100638133Y-49343000D01*
X100619697Y-49214774D01*
X100565882Y-49096937D01*
X100481049Y-48999033D01*
X100372069Y-48928996D01*
X100372065Y-48928994D01*
X100372064Y-48928994D01*
X100247774Y-48892500D01*
X100247772Y-48892500D01*
X100118228Y-48892500D01*
X100118226Y-48892500D01*
X99993935Y-48928994D01*
X99993932Y-48928995D01*
X99993931Y-48928996D01*
X99942677Y-48961934D01*
X99884950Y-48999033D01*
X99800118Y-49096937D01*
X99800117Y-49096938D01*
X99746302Y-49214774D01*
X99727867Y-49343000D01*
X99746302Y-49471225D01*
X99791972Y-49571226D01*
X99800118Y-49589063D01*
X99884951Y-49686967D01*
X99993931Y-49757004D01*
X100118225Y-49793499D01*
X100118227Y-49793500D01*
X100256641Y-49793500D01*
X100256641Y-49796537D01*
X100310783Y-49804302D01*
X100346993Y-49829434D01*
X100982640Y-50465080D01*
X100982643Y-50465084D01*
X101053848Y-50536289D01*
X101075504Y-50545259D01*
X101075505Y-50545260D01*
X101137646Y-50571000D01*
X101137647Y-50571000D01*
X101137649Y-50571001D01*
X101137650Y-50571001D01*
X101242786Y-50571001D01*
X101242794Y-50571000D01*
X107324371Y-50571000D01*
X107391410Y-50590685D01*
X107437165Y-50643489D01*
X107447109Y-50712647D01*
X107418084Y-50776202D01*
X107400120Y-50796932D01*
X107400117Y-50796938D01*
X107346302Y-50914774D01*
X107327867Y-51043000D01*
X107346302Y-51171225D01*
X107396630Y-51281426D01*
X107400118Y-51289063D01*
X107484951Y-51386967D01*
X107565425Y-51438684D01*
X107611180Y-51491488D01*
X107621124Y-51560647D01*
X107592099Y-51624202D01*
X107565426Y-51647314D01*
X107541301Y-51662819D01*
X107484950Y-51699033D01*
X107400118Y-51796937D01*
X107400117Y-51796938D01*
X107346302Y-51914774D01*
X107327867Y-52043000D01*
X107346302Y-52171225D01*
X107375798Y-52235810D01*
X107400118Y-52289063D01*
X107484951Y-52386967D01*
X107593931Y-52457004D01*
X107718225Y-52493499D01*
X107718227Y-52493500D01*
X107718228Y-52493500D01*
X107847773Y-52493500D01*
X107847773Y-52493499D01*
X107972069Y-52457004D01*
X108081049Y-52386967D01*
X108165882Y-52289063D01*
X108219697Y-52171226D01*
X108238133Y-52043000D01*
X108219697Y-51914774D01*
X108165882Y-51796937D01*
X108081049Y-51699033D01*
X108000572Y-51647313D01*
X107954819Y-51594512D01*
X107944875Y-51525354D01*
X107973899Y-51461798D01*
X108000569Y-51438687D01*
X108081049Y-51386967D01*
X108165882Y-51289063D01*
X108169370Y-51281426D01*
X108181587Y-51254675D01*
X108227342Y-51201871D01*
X108294381Y-51182186D01*
X108361420Y-51201871D01*
X108382062Y-51218505D01*
X110718681Y-53555124D01*
X110752166Y-53616447D01*
X110755000Y-53642805D01*
X110755000Y-53708760D01*
X110735315Y-53775799D01*
X110682511Y-53821554D01*
X110613353Y-53831498D01*
X110574706Y-53819245D01*
X110500481Y-53781425D01*
X110500477Y-53781424D01*
X110383003Y-53762819D01*
X110382997Y-53762819D01*
X110265522Y-53781424D01*
X110265521Y-53781424D01*
X110159533Y-53835428D01*
X110159529Y-53835431D01*
X110075431Y-53919529D01*
X110075428Y-53919533D01*
X110021424Y-54025521D01*
X110021424Y-54025522D01*
X110002819Y-54142996D01*
X110002819Y-54143003D01*
X110021424Y-54260477D01*
X110021424Y-54260478D01*
X110021425Y-54260481D01*
X110021426Y-54260482D01*
X110075426Y-54366464D01*
X110075428Y-54366466D01*
X110075431Y-54366470D01*
X110159529Y-54450568D01*
X110159533Y-54450571D01*
X110159535Y-54450573D01*
X110265518Y-54504574D01*
X110265520Y-54504574D01*
X110265522Y-54504575D01*
X110382997Y-54523181D01*
X110383000Y-54523181D01*
X110383003Y-54523181D01*
X110500477Y-54504575D01*
X110500478Y-54504575D01*
X110500479Y-54504574D01*
X110500482Y-54504574D01*
X110606465Y-54450573D01*
X110690573Y-54366465D01*
X110712142Y-54324132D01*
X110760112Y-54273339D01*
X110827933Y-54256542D01*
X110894068Y-54279078D01*
X110910306Y-54292747D01*
X111371181Y-54753622D01*
X111404666Y-54814945D01*
X111407500Y-54841303D01*
X111407500Y-55237301D01*
X111387815Y-55304340D01*
X111371181Y-55324982D01*
X111337212Y-55358950D01*
X111337211Y-55358951D01*
X111302500Y-55442750D01*
X111302500Y-55975785D01*
X111313390Y-56002075D01*
X111333476Y-56050568D01*
X111341885Y-56070867D01*
X111339412Y-56071891D01*
X111354980Y-56121602D01*
X111355000Y-56123821D01*
X111355000Y-56844875D01*
X111335315Y-56911914D01*
X111282511Y-56957669D01*
X111213353Y-56967613D01*
X111211605Y-56967349D01*
X111183000Y-56962819D01*
X111182997Y-56962819D01*
X111065522Y-56981424D01*
X111065521Y-56981424D01*
X110959533Y-57035428D01*
X110959529Y-57035431D01*
X110870681Y-57124280D01*
X110809358Y-57157765D01*
X110739666Y-57152781D01*
X110695319Y-57124280D01*
X110606470Y-57035431D01*
X110606466Y-57035428D01*
X110606465Y-57035427D01*
X110500482Y-56981426D01*
X110500480Y-56981425D01*
X110500477Y-56981424D01*
X110383003Y-56962819D01*
X110382997Y-56962819D01*
X110265522Y-56981424D01*
X110265521Y-56981424D01*
X110159533Y-57035428D01*
X110159529Y-57035431D01*
X110070681Y-57124280D01*
X110009358Y-57157765D01*
X109939666Y-57152781D01*
X109895319Y-57124280D01*
X109801720Y-57030681D01*
X109768235Y-56969358D01*
X109773219Y-56899666D01*
X109801720Y-56855319D01*
X109890568Y-56766470D01*
X109890573Y-56766465D01*
X109944574Y-56660482D01*
X109944575Y-56660477D01*
X109963181Y-56543003D01*
X109963181Y-56542996D01*
X109944575Y-56425522D01*
X109944575Y-56425521D01*
X109944574Y-56425519D01*
X109944574Y-56425518D01*
X109890573Y-56319535D01*
X109890571Y-56319533D01*
X109890568Y-56319529D01*
X109806470Y-56235431D01*
X109806466Y-56235428D01*
X109806465Y-56235427D01*
X109700482Y-56181426D01*
X109700480Y-56181425D01*
X109700477Y-56181424D01*
X109583003Y-56162819D01*
X109582997Y-56162819D01*
X109465522Y-56181424D01*
X109465521Y-56181424D01*
X109359533Y-56235428D01*
X109359529Y-56235431D01*
X109275431Y-56319529D01*
X109275428Y-56319533D01*
X109221424Y-56425521D01*
X109221424Y-56425522D01*
X109202819Y-56542996D01*
X109202819Y-56543003D01*
X109221424Y-56660477D01*
X109221424Y-56660478D01*
X109221425Y-56660481D01*
X109221426Y-56660482D01*
X109269857Y-56755534D01*
X109275428Y-56766466D01*
X109275431Y-56766470D01*
X109364280Y-56855319D01*
X109397765Y-56916642D01*
X109392781Y-56986334D01*
X109364280Y-57030681D01*
X109275431Y-57119529D01*
X109275428Y-57119533D01*
X109221424Y-57225521D01*
X109221424Y-57225522D01*
X109202819Y-57342996D01*
X109202819Y-57343003D01*
X109221424Y-57460477D01*
X109221424Y-57460478D01*
X109221425Y-57460481D01*
X109221426Y-57460482D01*
X109273009Y-57561720D01*
X109275428Y-57566466D01*
X109275431Y-57566470D01*
X109359529Y-57650568D01*
X109359533Y-57650571D01*
X109359535Y-57650573D01*
X109465518Y-57704574D01*
X109465520Y-57704574D01*
X109465522Y-57704575D01*
X109582997Y-57723181D01*
X109583000Y-57723181D01*
X109583003Y-57723181D01*
X109700477Y-57704575D01*
X109700478Y-57704575D01*
X109700479Y-57704574D01*
X109700482Y-57704574D01*
X109806465Y-57650573D01*
X109847320Y-57609718D01*
X109895319Y-57561720D01*
X109956642Y-57528235D01*
X110026334Y-57533219D01*
X110070681Y-57561720D01*
X110159529Y-57650568D01*
X110159533Y-57650571D01*
X110159535Y-57650573D01*
X110265518Y-57704574D01*
X110265520Y-57704574D01*
X110265522Y-57704575D01*
X110382997Y-57723181D01*
X110383000Y-57723181D01*
X110383003Y-57723181D01*
X110500477Y-57704575D01*
X110500478Y-57704575D01*
X110500479Y-57704574D01*
X110500482Y-57704574D01*
X110606465Y-57650573D01*
X110690573Y-57566465D01*
X110690574Y-57566462D01*
X110695318Y-57561719D01*
X110756641Y-57528234D01*
X110826333Y-57533218D01*
X110870681Y-57561719D01*
X110918681Y-57609719D01*
X110952166Y-57671042D01*
X110955000Y-57697400D01*
X110955000Y-58157265D01*
X110935315Y-58224304D01*
X110918681Y-58244946D01*
X110484946Y-58678681D01*
X110423623Y-58712166D01*
X110397265Y-58715000D01*
X109977578Y-58715000D01*
X109893779Y-58749711D01*
X109893778Y-58749712D01*
X108747993Y-59895498D01*
X107603848Y-61039643D01*
X107571390Y-61072099D01*
X107540009Y-61094899D01*
X107509533Y-61110427D01*
X107425431Y-61194529D01*
X107425428Y-61194533D01*
X107371424Y-61300521D01*
X107371424Y-61300522D01*
X107352819Y-61417996D01*
X107352819Y-61418003D01*
X107371424Y-61535477D01*
X107371424Y-61535478D01*
X107371425Y-61535481D01*
X107371426Y-61535482D01*
X107422350Y-61635427D01*
X107425428Y-61641466D01*
X107425431Y-61641470D01*
X107477240Y-61693279D01*
X107510725Y-61754602D01*
X107505741Y-61824294D01*
X107463869Y-61880227D01*
X107445855Y-61891444D01*
X107359536Y-61935426D01*
X107359529Y-61935431D01*
X107275431Y-62019529D01*
X107275428Y-62019533D01*
X107221424Y-62125521D01*
X107221424Y-62125522D01*
X107202819Y-62242996D01*
X107202819Y-62243003D01*
X107221424Y-62360477D01*
X107221424Y-62360478D01*
X107221425Y-62360481D01*
X107221426Y-62360482D01*
X107269003Y-62453858D01*
X107275428Y-62466466D01*
X107275431Y-62466470D01*
X107284780Y-62475819D01*
X107318265Y-62537142D01*
X107313281Y-62606834D01*
X107271409Y-62662767D01*
X107205945Y-62687184D01*
X107197099Y-62687500D01*
X100515146Y-62687500D01*
X100431347Y-62722211D01*
X100431346Y-62722212D01*
X100367210Y-62786349D01*
X99395861Y-63757697D01*
X99334538Y-63791182D01*
X99264846Y-63786198D01*
X99235296Y-63770335D01*
X99210596Y-63752390D01*
X99210597Y-63752390D01*
X99210593Y-63752388D01*
X99047267Y-63679671D01*
X99047265Y-63679670D01*
X98919594Y-63652533D01*
X98872391Y-63642500D01*
X98693609Y-63642500D01*
X98662954Y-63649015D01*
X98518733Y-63679670D01*
X98518728Y-63679672D01*
X98355408Y-63752387D01*
X98210768Y-63857475D01*
X98091140Y-63990336D01*
X98001750Y-64145164D01*
X98001747Y-64145170D01*
X97946504Y-64315192D01*
X97946503Y-64315194D01*
X97927815Y-64493000D01*
X97946503Y-64670805D01*
X97946504Y-64670807D01*
X98001747Y-64840829D01*
X98001750Y-64840835D01*
X98091141Y-64995665D01*
X98132812Y-65041946D01*
X98210764Y-65128521D01*
X98210767Y-65128523D01*
X98210770Y-65128526D01*
X98355407Y-65233612D01*
X98518733Y-65306329D01*
X98693609Y-65343500D01*
X98693610Y-65343500D01*
X98872389Y-65343500D01*
X98872391Y-65343500D01*
X99047267Y-65306329D01*
X99210593Y-65233612D01*
X99355230Y-65128526D01*
X99357289Y-65126240D01*
X99409453Y-65068305D01*
X99474859Y-64995665D01*
X99564250Y-64840835D01*
X99619497Y-64670803D01*
X99638185Y-64493000D01*
X99619497Y-64315197D01*
X99619495Y-64315193D01*
X99619495Y-64315190D01*
X99609564Y-64284627D01*
X99607567Y-64214786D01*
X99639811Y-64158628D01*
X100618621Y-63179819D01*
X100679944Y-63146334D01*
X100706302Y-63143500D01*
X102250697Y-63143500D01*
X102317736Y-63163185D01*
X102363491Y-63215989D01*
X102373435Y-63285147D01*
X102344410Y-63348703D01*
X102338378Y-63355181D01*
X101935860Y-63757697D01*
X101874537Y-63791182D01*
X101804845Y-63786198D01*
X101775293Y-63770334D01*
X101756891Y-63756964D01*
X101750593Y-63752388D01*
X101587267Y-63679671D01*
X101587265Y-63679670D01*
X101459594Y-63652533D01*
X101412391Y-63642500D01*
X101233609Y-63642500D01*
X101202954Y-63649015D01*
X101058733Y-63679670D01*
X101058728Y-63679672D01*
X100895408Y-63752387D01*
X100750768Y-63857475D01*
X100631140Y-63990336D01*
X100541750Y-64145164D01*
X100541747Y-64145170D01*
X100486504Y-64315192D01*
X100486503Y-64315194D01*
X100467815Y-64493000D01*
X100486503Y-64670805D01*
X100486504Y-64670807D01*
X100541747Y-64840829D01*
X100541750Y-64840835D01*
X100631141Y-64995665D01*
X100672812Y-65041946D01*
X100750764Y-65128521D01*
X100750767Y-65128523D01*
X100750770Y-65128526D01*
X100895407Y-65233612D01*
X101058733Y-65306329D01*
X101233609Y-65343500D01*
X101233610Y-65343500D01*
X101412389Y-65343500D01*
X101412391Y-65343500D01*
X101587267Y-65306329D01*
X101750593Y-65233612D01*
X101895230Y-65128526D01*
X101897289Y-65126240D01*
X101949453Y-65068305D01*
X102014859Y-64995665D01*
X102104250Y-64840835D01*
X102159497Y-64670803D01*
X102178185Y-64493000D01*
X102159497Y-64315197D01*
X102159495Y-64315193D01*
X102159495Y-64315190D01*
X102149564Y-64284627D01*
X102147567Y-64214786D01*
X102179811Y-64158628D01*
X102631122Y-63707319D01*
X102692445Y-63673834D01*
X102718803Y-63671000D01*
X108822265Y-63671000D01*
X108889304Y-63690685D01*
X108909946Y-63707319D01*
X109810208Y-64607580D01*
X109810211Y-64607584D01*
X109817279Y-64614652D01*
X109881416Y-64678789D01*
X109965216Y-64713500D01*
X109965217Y-64713500D01*
X109965218Y-64713500D01*
X115185850Y-64713500D01*
X115185852Y-64713500D01*
X115269652Y-64678789D01*
X115421488Y-64526951D01*
X115482809Y-64493468D01*
X115509168Y-64490634D01*
X115515550Y-64490634D01*
X115633024Y-64472028D01*
X115633025Y-64472028D01*
X115633026Y-64472027D01*
X115633029Y-64472027D01*
X115739012Y-64418026D01*
X115823120Y-64333918D01*
X115877121Y-64227935D01*
X115879588Y-64212358D01*
X115895728Y-64110456D01*
X115895728Y-64110449D01*
X115877122Y-63992975D01*
X115877122Y-63992974D01*
X115877121Y-63992972D01*
X115877121Y-63992971D01*
X115823120Y-63886988D01*
X115823118Y-63886986D01*
X115823115Y-63886982D01*
X115739017Y-63802884D01*
X115739013Y-63802881D01*
X115739012Y-63802880D01*
X115633029Y-63748879D01*
X115633027Y-63748878D01*
X115633024Y-63748877D01*
X115515550Y-63730272D01*
X115515544Y-63730272D01*
X115398069Y-63748877D01*
X115398068Y-63748877D01*
X115394740Y-63750573D01*
X115355934Y-63770345D01*
X115287267Y-63783241D01*
X115222527Y-63756964D01*
X115199090Y-63728302D01*
X115197608Y-63729380D01*
X115191876Y-63721490D01*
X115191875Y-63721488D01*
X115191872Y-63721485D01*
X115191870Y-63721482D01*
X115107772Y-63637384D01*
X115107768Y-63637381D01*
X115107767Y-63637380D01*
X115001784Y-63583379D01*
X115001782Y-63583378D01*
X115001779Y-63583377D01*
X114884305Y-63564772D01*
X114884299Y-63564772D01*
X114766824Y-63583377D01*
X114766823Y-63583377D01*
X114660835Y-63637381D01*
X114660831Y-63637384D01*
X114576733Y-63721482D01*
X114576730Y-63721486D01*
X114576729Y-63721488D01*
X114522728Y-63827471D01*
X114522727Y-63827472D01*
X114522727Y-63827474D01*
X114519492Y-63847899D01*
X114489562Y-63911033D01*
X114430251Y-63947964D01*
X114397019Y-63952500D01*
X112403901Y-63952500D01*
X112336862Y-63932815D01*
X112291107Y-63880011D01*
X112281163Y-63810853D01*
X112310188Y-63747297D01*
X112316220Y-63740819D01*
X112390568Y-63666470D01*
X112390573Y-63666465D01*
X112434196Y-63580849D01*
X112482166Y-63530057D01*
X112549987Y-63513261D01*
X112600969Y-63526661D01*
X112639103Y-63546091D01*
X112639105Y-63546091D01*
X112639107Y-63546092D01*
X112756582Y-63564698D01*
X112756585Y-63564698D01*
X112756588Y-63564698D01*
X112874062Y-63546092D01*
X112874063Y-63546092D01*
X112874064Y-63546091D01*
X112874067Y-63546091D01*
X112980050Y-63492090D01*
X113064158Y-63407982D01*
X113118159Y-63301999D01*
X113120828Y-63285147D01*
X113136766Y-63184520D01*
X113136766Y-63184513D01*
X113118160Y-63067039D01*
X113118160Y-63067038D01*
X113118159Y-63067036D01*
X113118159Y-63067035D01*
X113064158Y-62961052D01*
X113064156Y-62961050D01*
X113064153Y-62961046D01*
X112980055Y-62876948D01*
X112980051Y-62876945D01*
X112980050Y-62876944D01*
X112874067Y-62822943D01*
X112874065Y-62822942D01*
X112874062Y-62822941D01*
X112756588Y-62804336D01*
X112756582Y-62804336D01*
X112639107Y-62822941D01*
X112639106Y-62822941D01*
X112533118Y-62876945D01*
X112533114Y-62876948D01*
X112449016Y-62961046D01*
X112449014Y-62961050D01*
X112449012Y-62961052D01*
X112407256Y-63043003D01*
X112405391Y-63046664D01*
X112357416Y-63097460D01*
X112289595Y-63114255D01*
X112238612Y-63100854D01*
X112200482Y-63081426D01*
X112200481Y-63081425D01*
X112197887Y-63080104D01*
X112147091Y-63032129D01*
X112130296Y-62964308D01*
X112152833Y-62898173D01*
X112166495Y-62881944D01*
X113791139Y-61257301D01*
X113852461Y-61223817D01*
X113922153Y-61228801D01*
X113978086Y-61270673D01*
X114002503Y-61336137D01*
X114002727Y-61342426D01*
X114021424Y-61460477D01*
X114021424Y-61460478D01*
X114021425Y-61460481D01*
X114021426Y-61460482D01*
X114073569Y-61562819D01*
X114075428Y-61566466D01*
X114075431Y-61566470D01*
X114159529Y-61650568D01*
X114159533Y-61650571D01*
X114159535Y-61650573D01*
X114265518Y-61704574D01*
X114265520Y-61704574D01*
X114265522Y-61704575D01*
X114382997Y-61723181D01*
X114383000Y-61723181D01*
X114383003Y-61723181D01*
X114500477Y-61704575D01*
X114500478Y-61704575D01*
X114500479Y-61704574D01*
X114500482Y-61704574D01*
X114606465Y-61650573D01*
X114690573Y-61566465D01*
X114744574Y-61460482D01*
X114751302Y-61418003D01*
X114763181Y-61343003D01*
X114763181Y-61342996D01*
X114744575Y-61225522D01*
X114744575Y-61225521D01*
X114744574Y-61225519D01*
X114744574Y-61225518D01*
X114690573Y-61119535D01*
X114690571Y-61119533D01*
X114690568Y-61119529D01*
X114606470Y-61035431D01*
X114606466Y-61035428D01*
X114606465Y-61035427D01*
X114500482Y-60981426D01*
X114500480Y-60981425D01*
X114500477Y-60981424D01*
X114373362Y-60961292D01*
X114373647Y-60959490D01*
X114317945Y-60943134D01*
X114272190Y-60890330D01*
X114262246Y-60821172D01*
X114291271Y-60757616D01*
X114297303Y-60751138D01*
X114443867Y-60604574D01*
X114591140Y-60457299D01*
X114652462Y-60423816D01*
X114722153Y-60428800D01*
X114778087Y-60470671D01*
X114802504Y-60536136D01*
X114802728Y-60542425D01*
X114821425Y-60660476D01*
X114821425Y-60660477D01*
X114821426Y-60660480D01*
X114821427Y-60660481D01*
X114869206Y-60754253D01*
X114875429Y-60766465D01*
X114875432Y-60766469D01*
X114959530Y-60850567D01*
X114959534Y-60850570D01*
X114959536Y-60850572D01*
X115065519Y-60904573D01*
X115065521Y-60904573D01*
X115065523Y-60904574D01*
X115182998Y-60923180D01*
X115183001Y-60923180D01*
X115183004Y-60923180D01*
X115300478Y-60904574D01*
X115300479Y-60904574D01*
X115300480Y-60904573D01*
X115300483Y-60904573D01*
X115374708Y-60866753D01*
X115443374Y-60853858D01*
X115508115Y-60880134D01*
X115548372Y-60937241D01*
X115555000Y-60977239D01*
X115555000Y-61708760D01*
X115535315Y-61775799D01*
X115482511Y-61821554D01*
X115413353Y-61831498D01*
X115374706Y-61819245D01*
X115300481Y-61781425D01*
X115300477Y-61781424D01*
X115183003Y-61762819D01*
X115182997Y-61762819D01*
X115065522Y-61781424D01*
X115065521Y-61781424D01*
X114959533Y-61835428D01*
X114959529Y-61835431D01*
X114875431Y-61919529D01*
X114875428Y-61919533D01*
X114821424Y-62025521D01*
X114821424Y-62025522D01*
X114802819Y-62142996D01*
X114802819Y-62143003D01*
X114821424Y-62260477D01*
X114821424Y-62260478D01*
X114821425Y-62260481D01*
X114821426Y-62260482D01*
X114872376Y-62360478D01*
X114875428Y-62366466D01*
X114875431Y-62366470D01*
X114959529Y-62450568D01*
X114959533Y-62450571D01*
X114959535Y-62450573D01*
X115065518Y-62504574D01*
X115065520Y-62504574D01*
X115065522Y-62504575D01*
X115182997Y-62523181D01*
X115183000Y-62523181D01*
X115183003Y-62523181D01*
X115300477Y-62504575D01*
X115300478Y-62504574D01*
X115300482Y-62504574D01*
X115374707Y-62466754D01*
X115443374Y-62453858D01*
X115508114Y-62480134D01*
X115548372Y-62537240D01*
X115555000Y-62577239D01*
X115555000Y-62888353D01*
X115589711Y-62972152D01*
X116613681Y-63996122D01*
X116647166Y-64057445D01*
X116650000Y-64083803D01*
X116650000Y-65527340D01*
X116630315Y-65594379D01*
X116577511Y-65640134D01*
X116526000Y-65651340D01*
X116502286Y-65651340D01*
X116377995Y-65687834D01*
X116377992Y-65687835D01*
X116377991Y-65687836D01*
X116351187Y-65705062D01*
X116269010Y-65757873D01*
X116184178Y-65855777D01*
X116184177Y-65855778D01*
X116130363Y-65973612D01*
X116130362Y-65973617D01*
X116124609Y-66013631D01*
X116095583Y-66077186D01*
X116089552Y-66083664D01*
X114067037Y-68106181D01*
X114005714Y-68139666D01*
X113979356Y-68142500D01*
X113395367Y-68142500D01*
X113328328Y-68122815D01*
X113284057Y-68071724D01*
X113283881Y-68071819D01*
X113283464Y-68071040D01*
X113282573Y-68070011D01*
X113281071Y-68066562D01*
X113281011Y-68066449D01*
X113182464Y-67918965D01*
X113182461Y-67918961D01*
X113055024Y-67791524D01*
X113021539Y-67730201D01*
X113026523Y-67660509D01*
X113048988Y-67622646D01*
X113101222Y-67562365D01*
X113155037Y-67444528D01*
X113173473Y-67316302D01*
X113155037Y-67188076D01*
X113101222Y-67070239D01*
X113016389Y-66972335D01*
X112907409Y-66902298D01*
X112907405Y-66902296D01*
X112907404Y-66902296D01*
X112783114Y-66865802D01*
X112783112Y-66865802D01*
X112653568Y-66865802D01*
X112653566Y-66865802D01*
X112529275Y-66902296D01*
X112529272Y-66902297D01*
X112529271Y-66902298D01*
X112512463Y-66913100D01*
X112420290Y-66972335D01*
X112335458Y-67070239D01*
X112335457Y-67070240D01*
X112281642Y-67188076D01*
X112263207Y-67316302D01*
X112282552Y-67450853D01*
X112272608Y-67520012D01*
X112226853Y-67572816D01*
X112159814Y-67592500D01*
X110244306Y-67592500D01*
X110070341Y-67627103D01*
X110070332Y-67627106D01*
X109906457Y-67694984D01*
X109906456Y-67694985D01*
X109781103Y-67778744D01*
X109781102Y-67778744D01*
X109758968Y-67793533D01*
X109758960Y-67793539D01*
X109195497Y-68357004D01*
X109008965Y-68543536D01*
X109008964Y-68543537D01*
X107759500Y-69793000D01*
X107341523Y-70210976D01*
X107341522Y-70210977D01*
X105482382Y-72070116D01*
X105421059Y-72103601D01*
X105414101Y-72104908D01*
X105313593Y-72120828D01*
X105313585Y-72120830D01*
X105141363Y-72176787D01*
X105141360Y-72176788D01*
X104980005Y-72259004D01*
X104896417Y-72319734D01*
X104833499Y-72365448D01*
X104833497Y-72365450D01*
X104833496Y-72365450D01*
X104705450Y-72493496D01*
X104705450Y-72493497D01*
X104705448Y-72493499D01*
X104696497Y-72505819D01*
X104599004Y-72640005D01*
X104516788Y-72801360D01*
X104516787Y-72801363D01*
X104460829Y-72973589D01*
X104445314Y-73071547D01*
X104432499Y-73152454D01*
X104432499Y-73333546D01*
X104435667Y-73353546D01*
X104450973Y-73450183D01*
X104452500Y-73469581D01*
X104452500Y-74619000D01*
X104432815Y-74686039D01*
X104380011Y-74731794D01*
X104328500Y-74743000D01*
X85507000Y-74743000D01*
X85439961Y-74723315D01*
X85394206Y-74670511D01*
X85383000Y-74619000D01*
X85383000Y-70592999D01*
X86077722Y-70592999D01*
X86077722Y-70593000D01*
X86096762Y-70749818D01*
X86141003Y-70866470D01*
X86152780Y-70897523D01*
X86242517Y-71027530D01*
X86360760Y-71132283D01*
X86360762Y-71132284D01*
X86500634Y-71205696D01*
X86654014Y-71243500D01*
X86654015Y-71243500D01*
X86811985Y-71243500D01*
X86965365Y-71205696D01*
X87105240Y-71132283D01*
X87223483Y-71027530D01*
X87313220Y-70897523D01*
X87369237Y-70749818D01*
X87388278Y-70593000D01*
X87377837Y-70507005D01*
X87373101Y-70468000D01*
X93277867Y-70468000D01*
X93296302Y-70596225D01*
X93350117Y-70714061D01*
X93350118Y-70714063D01*
X93434951Y-70811967D01*
X93543931Y-70882004D01*
X93596789Y-70897524D01*
X93668225Y-70918499D01*
X93668227Y-70918500D01*
X93668228Y-70918500D01*
X93797773Y-70918500D01*
X93797773Y-70918499D01*
X93922069Y-70882004D01*
X94031049Y-70811967D01*
X94115882Y-70714063D01*
X94148338Y-70642996D01*
X105402819Y-70642996D01*
X105402819Y-70643003D01*
X105421424Y-70760477D01*
X105421424Y-70760478D01*
X105421425Y-70760481D01*
X105421426Y-70760482D01*
X105461464Y-70839062D01*
X105475428Y-70866466D01*
X105475431Y-70866470D01*
X105559529Y-70950568D01*
X105559533Y-70950571D01*
X105559535Y-70950573D01*
X105665518Y-71004574D01*
X105665520Y-71004574D01*
X105665522Y-71004575D01*
X105782997Y-71023181D01*
X105783000Y-71023181D01*
X105783003Y-71023181D01*
X105900477Y-71004575D01*
X105900478Y-71004575D01*
X105900479Y-71004574D01*
X105900482Y-71004574D01*
X106006465Y-70950573D01*
X106090573Y-70866465D01*
X106144574Y-70760482D01*
X106146263Y-70749818D01*
X106163181Y-70643003D01*
X106163181Y-70642996D01*
X106144575Y-70525522D01*
X106144575Y-70525521D01*
X106144574Y-70525519D01*
X106144574Y-70525518D01*
X106090573Y-70419535D01*
X106090571Y-70419533D01*
X106090568Y-70419529D01*
X106006470Y-70335431D01*
X106006466Y-70335428D01*
X106006465Y-70335427D01*
X105900482Y-70281426D01*
X105900480Y-70281425D01*
X105900477Y-70281424D01*
X105783003Y-70262819D01*
X105782997Y-70262819D01*
X105665522Y-70281424D01*
X105665521Y-70281424D01*
X105559533Y-70335428D01*
X105559529Y-70335431D01*
X105475431Y-70419529D01*
X105475428Y-70419533D01*
X105421424Y-70525521D01*
X105421424Y-70525522D01*
X105402819Y-70642996D01*
X94148338Y-70642996D01*
X94169697Y-70596226D01*
X94188133Y-70468000D01*
X94169697Y-70339774D01*
X94115882Y-70221937D01*
X94031049Y-70124033D01*
X93922069Y-70053996D01*
X93922065Y-70053994D01*
X93922064Y-70053994D01*
X93797774Y-70017500D01*
X93797772Y-70017500D01*
X93668228Y-70017500D01*
X93668226Y-70017500D01*
X93543935Y-70053994D01*
X93543932Y-70053995D01*
X93543931Y-70053996D01*
X93517121Y-70071226D01*
X93434950Y-70124033D01*
X93350118Y-70221937D01*
X93350117Y-70221938D01*
X93296302Y-70339774D01*
X93277867Y-70468000D01*
X87373101Y-70468000D01*
X87369237Y-70436181D01*
X87332561Y-70339476D01*
X87313220Y-70288477D01*
X87223483Y-70158470D01*
X87105240Y-70053717D01*
X87105238Y-70053716D01*
X87105237Y-70053715D01*
X86965365Y-69980303D01*
X86811986Y-69942500D01*
X86811985Y-69942500D01*
X86654015Y-69942500D01*
X86654014Y-69942500D01*
X86500634Y-69980303D01*
X86360762Y-70053715D01*
X86242516Y-70158471D01*
X86152781Y-70288475D01*
X86152780Y-70288476D01*
X86096762Y-70436181D01*
X86077722Y-70592999D01*
X85383000Y-70592999D01*
X85383000Y-69843000D01*
X94827867Y-69843000D01*
X94846302Y-69971225D01*
X94900117Y-70089061D01*
X94900118Y-70089063D01*
X94984951Y-70186967D01*
X95093931Y-70257004D01*
X95201121Y-70288477D01*
X95218225Y-70293499D01*
X95218227Y-70293500D01*
X95218228Y-70293500D01*
X95347773Y-70293500D01*
X95347773Y-70293499D01*
X95472069Y-70257004D01*
X95581049Y-70186967D01*
X95665882Y-70089063D01*
X95719697Y-69971226D01*
X95723755Y-69943000D01*
X98977867Y-69943000D01*
X98996302Y-70071225D01*
X99045896Y-70179819D01*
X99050118Y-70189063D01*
X99134951Y-70286967D01*
X99243931Y-70357004D01*
X99368225Y-70393499D01*
X99368227Y-70393500D01*
X99368228Y-70393500D01*
X99497773Y-70393500D01*
X99497773Y-70393499D01*
X99622069Y-70357004D01*
X99731049Y-70286967D01*
X99815882Y-70189063D01*
X99869697Y-70071226D01*
X99888133Y-69943000D01*
X99869697Y-69814774D01*
X99815882Y-69696937D01*
X99731049Y-69599033D01*
X99622069Y-69528996D01*
X99622065Y-69528994D01*
X99622064Y-69528994D01*
X99497774Y-69492500D01*
X99497772Y-69492500D01*
X99368228Y-69492500D01*
X99368226Y-69492500D01*
X99243935Y-69528994D01*
X99243932Y-69528995D01*
X99243931Y-69528996D01*
X99216013Y-69546938D01*
X99134950Y-69599033D01*
X99050118Y-69696937D01*
X99050117Y-69696938D01*
X98996302Y-69814774D01*
X98977867Y-69943000D01*
X95723755Y-69943000D01*
X95738133Y-69843000D01*
X95719697Y-69714774D01*
X95665882Y-69596937D01*
X95581049Y-69499033D01*
X95472069Y-69428996D01*
X95472065Y-69428994D01*
X95472064Y-69428994D01*
X95347774Y-69392500D01*
X95347772Y-69392500D01*
X95218228Y-69392500D01*
X95218226Y-69392500D01*
X95093935Y-69428994D01*
X95093932Y-69428995D01*
X95093931Y-69428996D01*
X95062753Y-69449033D01*
X94984950Y-69499033D01*
X94900118Y-69596937D01*
X94900117Y-69596938D01*
X94846302Y-69714774D01*
X94827867Y-69843000D01*
X85383000Y-69843000D01*
X85383000Y-69243000D01*
X93327867Y-69243000D01*
X93346302Y-69371225D01*
X93400117Y-69489061D01*
X93400118Y-69489063D01*
X93484951Y-69586967D01*
X93593931Y-69657004D01*
X93668824Y-69678994D01*
X93718225Y-69693499D01*
X93718227Y-69693500D01*
X93718228Y-69693500D01*
X93847773Y-69693500D01*
X93847773Y-69693499D01*
X93972069Y-69657004D01*
X94081049Y-69586967D01*
X94165882Y-69489063D01*
X94219697Y-69371226D01*
X94238133Y-69243000D01*
X94219697Y-69114774D01*
X94165882Y-68996937D01*
X94081049Y-68899033D01*
X93972069Y-68828996D01*
X93972065Y-68828994D01*
X93972064Y-68828994D01*
X93955907Y-68824250D01*
X105027867Y-68824250D01*
X105046302Y-68952475D01*
X105059025Y-68980334D01*
X105100118Y-69070313D01*
X105184951Y-69168217D01*
X105293931Y-69238254D01*
X105310095Y-69243000D01*
X105418225Y-69274749D01*
X105418227Y-69274750D01*
X105418228Y-69274750D01*
X105547773Y-69274750D01*
X105547773Y-69274749D01*
X105672069Y-69238254D01*
X105781049Y-69168217D01*
X105865882Y-69070313D01*
X105919697Y-68952476D01*
X105938133Y-68824250D01*
X105919697Y-68696024D01*
X105865882Y-68578187D01*
X105781049Y-68480283D01*
X105672069Y-68410246D01*
X105672065Y-68410244D01*
X105672064Y-68410244D01*
X105547774Y-68373750D01*
X105547772Y-68373750D01*
X105418228Y-68373750D01*
X105418226Y-68373750D01*
X105293935Y-68410244D01*
X105293932Y-68410245D01*
X105293931Y-68410246D01*
X105242677Y-68443184D01*
X105184950Y-68480283D01*
X105100118Y-68578187D01*
X105100117Y-68578188D01*
X105046302Y-68696024D01*
X105027867Y-68824250D01*
X93955907Y-68824250D01*
X93847774Y-68792500D01*
X93847772Y-68792500D01*
X93718228Y-68792500D01*
X93718226Y-68792500D01*
X93593935Y-68828994D01*
X93593932Y-68828995D01*
X93593931Y-68828996D01*
X93542677Y-68861934D01*
X93484950Y-68899033D01*
X93400118Y-68996937D01*
X93400117Y-68996938D01*
X93346302Y-69114774D01*
X93327867Y-69243000D01*
X85383000Y-69243000D01*
X85383000Y-67943000D01*
X93327867Y-67943000D01*
X93346302Y-68071225D01*
X93391972Y-68171226D01*
X93400118Y-68189063D01*
X93484951Y-68286967D01*
X93593931Y-68357004D01*
X93718225Y-68393499D01*
X93718227Y-68393500D01*
X93718228Y-68393500D01*
X93847773Y-68393500D01*
X93847773Y-68393499D01*
X93972069Y-68357004D01*
X94081049Y-68286967D01*
X94165882Y-68189063D01*
X94219697Y-68071226D01*
X94223755Y-68043000D01*
X94727867Y-68043000D01*
X94746302Y-68171225D01*
X94754449Y-68189063D01*
X94800118Y-68289063D01*
X94884951Y-68386967D01*
X94993931Y-68457004D01*
X95073214Y-68480283D01*
X95118225Y-68493499D01*
X95118227Y-68493500D01*
X95118228Y-68493500D01*
X95247773Y-68493500D01*
X95247773Y-68493499D01*
X95372069Y-68457004D01*
X95481049Y-68386967D01*
X95565882Y-68289063D01*
X95619697Y-68171226D01*
X95638133Y-68043000D01*
X95619697Y-67914774D01*
X95565882Y-67796937D01*
X95481049Y-67699033D01*
X95372069Y-67628996D01*
X95372065Y-67628994D01*
X95372064Y-67628994D01*
X95247774Y-67592500D01*
X95247772Y-67592500D01*
X95118228Y-67592500D01*
X95118226Y-67592500D01*
X94993935Y-67628994D01*
X94993932Y-67628995D01*
X94993931Y-67628996D01*
X94946016Y-67659789D01*
X94884950Y-67699033D01*
X94800118Y-67796937D01*
X94800117Y-67796938D01*
X94746302Y-67914774D01*
X94727867Y-68043000D01*
X94223755Y-68043000D01*
X94238133Y-67943000D01*
X94219697Y-67814774D01*
X94165882Y-67696937D01*
X94081049Y-67599033D01*
X93972069Y-67528996D01*
X93972065Y-67528994D01*
X93972064Y-67528994D01*
X93847774Y-67492500D01*
X93847772Y-67492500D01*
X93718228Y-67492500D01*
X93718226Y-67492500D01*
X93593935Y-67528994D01*
X93593932Y-67528995D01*
X93593931Y-67528996D01*
X93560831Y-67550268D01*
X93484950Y-67599033D01*
X93400118Y-67696937D01*
X93400117Y-67696938D01*
X93346302Y-67814774D01*
X93327867Y-67943000D01*
X85383000Y-67943000D01*
X85383000Y-67142996D01*
X106402819Y-67142996D01*
X106402819Y-67143003D01*
X106421424Y-67260477D01*
X106421424Y-67260478D01*
X106421425Y-67260481D01*
X106421426Y-67260482D01*
X106470599Y-67356990D01*
X106475428Y-67366466D01*
X106475431Y-67366470D01*
X106559529Y-67450568D01*
X106559533Y-67450571D01*
X106559535Y-67450573D01*
X106665518Y-67504574D01*
X106665520Y-67504574D01*
X106665522Y-67504575D01*
X106782997Y-67523181D01*
X106783000Y-67523181D01*
X106783003Y-67523181D01*
X106900477Y-67504575D01*
X106900478Y-67504575D01*
X106900479Y-67504574D01*
X106900482Y-67504574D01*
X107006465Y-67450573D01*
X107090573Y-67366465D01*
X107144574Y-67260482D01*
X107154868Y-67195487D01*
X107163181Y-67143003D01*
X107163181Y-67142996D01*
X107144575Y-67025522D01*
X107144575Y-67025521D01*
X107144574Y-67025519D01*
X107144574Y-67025518D01*
X107090573Y-66919535D01*
X107090571Y-66919533D01*
X107090568Y-66919529D01*
X107006470Y-66835431D01*
X107006466Y-66835428D01*
X107006465Y-66835427D01*
X106900482Y-66781426D01*
X106900480Y-66781425D01*
X106900477Y-66781424D01*
X106783003Y-66762819D01*
X106782997Y-66762819D01*
X106665522Y-66781424D01*
X106665521Y-66781424D01*
X106559533Y-66835428D01*
X106559529Y-66835431D01*
X106475431Y-66919529D01*
X106475428Y-66919533D01*
X106421424Y-67025521D01*
X106421424Y-67025522D01*
X106402819Y-67142996D01*
X85383000Y-67142996D01*
X85383000Y-66543000D01*
X103277867Y-66543000D01*
X103296302Y-66671225D01*
X103346190Y-66780462D01*
X103350118Y-66789063D01*
X103434951Y-66886967D01*
X103543931Y-66957004D01*
X103592368Y-66971226D01*
X103668225Y-66993499D01*
X103668227Y-66993500D01*
X103668228Y-66993500D01*
X103797773Y-66993500D01*
X103797773Y-66993499D01*
X103922069Y-66957004D01*
X104031049Y-66886967D01*
X104115882Y-66789063D01*
X104169697Y-66671226D01*
X104188133Y-66543000D01*
X104169697Y-66414774D01*
X104115882Y-66296937D01*
X104031049Y-66199033D01*
X103922069Y-66128996D01*
X103922065Y-66128994D01*
X103922064Y-66128994D01*
X103797774Y-66092500D01*
X103797772Y-66092500D01*
X103668228Y-66092500D01*
X103668226Y-66092500D01*
X103543935Y-66128994D01*
X103543932Y-66128995D01*
X103543931Y-66128996D01*
X103492677Y-66161934D01*
X103434950Y-66199033D01*
X103350118Y-66296937D01*
X103350117Y-66296938D01*
X103296302Y-66414774D01*
X103277867Y-66543000D01*
X85383000Y-66543000D01*
X85383000Y-65943000D01*
X88627867Y-65943000D01*
X88646302Y-66071225D01*
X88693934Y-66175522D01*
X88700118Y-66189063D01*
X88784951Y-66286967D01*
X88893931Y-66357004D01*
X89018225Y-66393499D01*
X89018227Y-66393500D01*
X89018228Y-66393500D01*
X89147773Y-66393500D01*
X89147773Y-66393499D01*
X89272069Y-66357004D01*
X89381049Y-66286967D01*
X89465882Y-66189063D01*
X89519697Y-66071226D01*
X89538133Y-65943000D01*
X89523755Y-65842996D01*
X109802819Y-65842996D01*
X109802819Y-65843003D01*
X109821424Y-65960477D01*
X109821424Y-65960478D01*
X109821425Y-65960481D01*
X109821426Y-65960482D01*
X109872376Y-66060478D01*
X109875428Y-66066466D01*
X109875431Y-66066470D01*
X109959529Y-66150568D01*
X109959533Y-66150571D01*
X109959535Y-66150573D01*
X110065518Y-66204574D01*
X110065520Y-66204574D01*
X110065522Y-66204575D01*
X110182997Y-66223181D01*
X110183000Y-66223181D01*
X110183003Y-66223181D01*
X110300477Y-66204575D01*
X110300478Y-66204575D01*
X110300479Y-66204574D01*
X110300482Y-66204574D01*
X110406465Y-66150573D01*
X110453404Y-66103634D01*
X114288366Y-66103634D01*
X114306801Y-66231859D01*
X114334722Y-66292996D01*
X114360617Y-66349697D01*
X114413283Y-66410478D01*
X114443895Y-66445807D01*
X114445450Y-66447601D01*
X114554430Y-66517638D01*
X114672617Y-66552340D01*
X114678724Y-66554133D01*
X114678726Y-66554134D01*
X114678727Y-66554134D01*
X114808272Y-66554134D01*
X114808272Y-66554133D01*
X114932568Y-66517638D01*
X115041548Y-66447601D01*
X115126381Y-66349697D01*
X115180196Y-66231860D01*
X115198632Y-66103634D01*
X115180196Y-65975408D01*
X115126381Y-65857571D01*
X115041548Y-65759667D01*
X114932568Y-65689630D01*
X114932564Y-65689628D01*
X114932563Y-65689628D01*
X114808273Y-65653134D01*
X114808271Y-65653134D01*
X114678727Y-65653134D01*
X114678725Y-65653134D01*
X114554434Y-65689628D01*
X114554431Y-65689629D01*
X114554430Y-65689630D01*
X114527399Y-65707002D01*
X114445449Y-65759667D01*
X114360617Y-65857571D01*
X114360616Y-65857572D01*
X114306801Y-65975408D01*
X114288366Y-66103634D01*
X110453404Y-66103634D01*
X110490573Y-66066465D01*
X110544574Y-65960482D01*
X110544575Y-65960477D01*
X110563181Y-65843003D01*
X110563181Y-65842996D01*
X110544575Y-65725522D01*
X110544575Y-65725521D01*
X110544574Y-65725519D01*
X110544574Y-65725518D01*
X110490573Y-65619535D01*
X110490571Y-65619533D01*
X110490568Y-65619529D01*
X110490337Y-65619298D01*
X113376517Y-65619298D01*
X113376517Y-65619305D01*
X113395122Y-65736779D01*
X113395122Y-65736780D01*
X113395123Y-65736783D01*
X113395124Y-65736784D01*
X113440338Y-65825522D01*
X113449126Y-65842768D01*
X113449129Y-65842772D01*
X113533227Y-65926870D01*
X113533231Y-65926873D01*
X113533233Y-65926875D01*
X113639216Y-65980876D01*
X113639218Y-65980876D01*
X113639220Y-65980877D01*
X113756695Y-65999483D01*
X113756698Y-65999483D01*
X113756701Y-65999483D01*
X113874175Y-65980877D01*
X113874176Y-65980877D01*
X113874177Y-65980876D01*
X113874180Y-65980876D01*
X113980163Y-65926875D01*
X114064271Y-65842767D01*
X114118272Y-65736784D01*
X114120056Y-65725521D01*
X114136879Y-65619305D01*
X114136879Y-65619298D01*
X114118273Y-65501824D01*
X114118273Y-65501823D01*
X114118272Y-65501821D01*
X114118272Y-65501820D01*
X114064271Y-65395837D01*
X114064269Y-65395835D01*
X114064266Y-65395831D01*
X113980168Y-65311733D01*
X113980164Y-65311730D01*
X113980163Y-65311729D01*
X113874180Y-65257728D01*
X113874178Y-65257727D01*
X113874175Y-65257726D01*
X113756701Y-65239121D01*
X113756695Y-65239121D01*
X113639220Y-65257726D01*
X113639219Y-65257726D01*
X113533231Y-65311730D01*
X113533227Y-65311733D01*
X113449129Y-65395831D01*
X113449126Y-65395835D01*
X113395122Y-65501823D01*
X113395122Y-65501824D01*
X113376517Y-65619298D01*
X110490337Y-65619298D01*
X110406470Y-65535431D01*
X110406466Y-65535428D01*
X110406465Y-65535427D01*
X110300482Y-65481426D01*
X110300480Y-65481425D01*
X110300477Y-65481424D01*
X110183003Y-65462819D01*
X110182997Y-65462819D01*
X110065522Y-65481424D01*
X110065521Y-65481424D01*
X109959533Y-65535428D01*
X109959529Y-65535431D01*
X109875431Y-65619529D01*
X109875428Y-65619533D01*
X109821424Y-65725521D01*
X109821424Y-65725522D01*
X109802819Y-65842996D01*
X89523755Y-65842996D01*
X89519697Y-65814774D01*
X89465882Y-65696937D01*
X89381049Y-65599033D01*
X89272069Y-65528996D01*
X89272065Y-65528994D01*
X89272064Y-65528994D01*
X89147774Y-65492500D01*
X89147772Y-65492500D01*
X89018228Y-65492500D01*
X89018226Y-65492500D01*
X88893935Y-65528994D01*
X88893932Y-65528995D01*
X88893931Y-65528996D01*
X88848713Y-65558056D01*
X88784950Y-65599033D01*
X88700118Y-65696937D01*
X88700117Y-65696938D01*
X88646302Y-65814774D01*
X88627867Y-65943000D01*
X85383000Y-65943000D01*
X85383000Y-65086750D01*
X94834117Y-65086750D01*
X94852552Y-65214975D01*
X94896741Y-65311733D01*
X94906368Y-65332813D01*
X94991201Y-65430717D01*
X95100181Y-65500754D01*
X95218273Y-65535428D01*
X95224475Y-65537249D01*
X95224477Y-65537250D01*
X95224478Y-65537250D01*
X95354023Y-65537250D01*
X95354023Y-65537249D01*
X95478319Y-65500754D01*
X95587299Y-65430717D01*
X95672132Y-65332813D01*
X95725947Y-65214976D01*
X95744383Y-65086750D01*
X95725947Y-64958524D01*
X95672132Y-64840687D01*
X95587299Y-64742783D01*
X95478319Y-64672746D01*
X95478315Y-64672744D01*
X95478314Y-64672744D01*
X95354024Y-64636250D01*
X95354022Y-64636250D01*
X95224478Y-64636250D01*
X95224476Y-64636250D01*
X95100185Y-64672744D01*
X95100182Y-64672745D01*
X95100181Y-64672746D01*
X95048927Y-64705684D01*
X94991200Y-64742783D01*
X94906368Y-64840687D01*
X94906367Y-64840688D01*
X94852552Y-64958524D01*
X94834117Y-65086750D01*
X85383000Y-65086750D01*
X85383000Y-60243000D01*
X96727867Y-60243000D01*
X96746302Y-60371225D01*
X96794871Y-60477574D01*
X96800118Y-60489063D01*
X96884951Y-60586967D01*
X96993931Y-60657004D01*
X97118225Y-60693499D01*
X97118227Y-60693500D01*
X97118228Y-60693500D01*
X97247773Y-60693500D01*
X97247773Y-60693499D01*
X97372069Y-60657004D01*
X97410523Y-60632291D01*
X97477559Y-60612607D01*
X97544599Y-60632291D01*
X97590354Y-60685095D01*
X97600298Y-60754253D01*
X97588045Y-60792901D01*
X97571425Y-60825518D01*
X97571425Y-60825521D01*
X97552819Y-60942996D01*
X97552819Y-60943003D01*
X97571424Y-61060477D01*
X97571424Y-61060478D01*
X97571425Y-61060481D01*
X97571426Y-61060482D01*
X97625426Y-61166464D01*
X97625428Y-61166466D01*
X97628082Y-61170119D01*
X97651559Y-61235927D01*
X97635731Y-61303980D01*
X97628085Y-61315878D01*
X97625430Y-61319531D01*
X97571424Y-61425524D01*
X97571424Y-61425525D01*
X97552819Y-61542999D01*
X97552819Y-61543006D01*
X97571424Y-61660479D01*
X97571425Y-61660481D01*
X97571426Y-61660485D01*
X97623568Y-61762819D01*
X97625428Y-61766469D01*
X97625431Y-61766473D01*
X97709529Y-61850571D01*
X97709533Y-61850574D01*
X97709535Y-61850576D01*
X97815518Y-61904577D01*
X97815520Y-61904577D01*
X97815522Y-61904578D01*
X97932997Y-61923184D01*
X97933000Y-61923184D01*
X97933003Y-61923184D01*
X98050477Y-61904578D01*
X98050478Y-61904578D01*
X98050479Y-61904577D01*
X98050482Y-61904577D01*
X98156465Y-61850576D01*
X98240573Y-61766468D01*
X98294574Y-61660485D01*
X98294574Y-61660481D01*
X98294576Y-61660479D01*
X98313181Y-61543006D01*
X98313181Y-61542999D01*
X98301144Y-61467000D01*
X102651867Y-61467000D01*
X102670302Y-61595225D01*
X102722153Y-61708760D01*
X102724118Y-61713063D01*
X102808951Y-61810967D01*
X102917931Y-61881004D01*
X102998219Y-61904578D01*
X103042225Y-61917499D01*
X103042227Y-61917500D01*
X103042228Y-61917500D01*
X103171773Y-61917500D01*
X103171773Y-61917499D01*
X103296069Y-61881004D01*
X103405049Y-61810967D01*
X103489882Y-61713063D01*
X103543697Y-61595226D01*
X103562133Y-61467000D01*
X103543697Y-61338774D01*
X103489882Y-61220937D01*
X103405049Y-61123033D01*
X103296069Y-61052996D01*
X103296065Y-61052994D01*
X103296064Y-61052994D01*
X103270528Y-61045496D01*
X105802819Y-61045496D01*
X105802819Y-61045503D01*
X105821424Y-61162977D01*
X105821424Y-61162978D01*
X105821425Y-61162981D01*
X105821426Y-61162982D01*
X105869484Y-61257302D01*
X105875428Y-61268966D01*
X105875431Y-61268970D01*
X105959529Y-61353068D01*
X105959533Y-61353071D01*
X105959535Y-61353073D01*
X106065518Y-61407074D01*
X106065520Y-61407074D01*
X106065522Y-61407075D01*
X106182997Y-61425681D01*
X106183000Y-61425681D01*
X106183003Y-61425681D01*
X106300477Y-61407075D01*
X106300478Y-61407075D01*
X106300479Y-61407074D01*
X106300482Y-61407074D01*
X106406465Y-61353073D01*
X106490573Y-61268965D01*
X106544574Y-61162982D01*
X106550901Y-61123033D01*
X106563181Y-61045503D01*
X106563181Y-61045496D01*
X106544575Y-60928022D01*
X106544575Y-60928021D01*
X106544574Y-60928019D01*
X106544574Y-60928018D01*
X106490573Y-60822035D01*
X106490571Y-60822033D01*
X106490568Y-60822029D01*
X106406470Y-60737931D01*
X106406466Y-60737928D01*
X106406465Y-60737927D01*
X106300482Y-60683926D01*
X106300480Y-60683925D01*
X106300477Y-60683924D01*
X106183003Y-60665319D01*
X106182997Y-60665319D01*
X106065522Y-60683924D01*
X106065521Y-60683924D01*
X105959533Y-60737928D01*
X105959529Y-60737931D01*
X105875431Y-60822029D01*
X105875428Y-60822033D01*
X105821424Y-60928021D01*
X105821424Y-60928022D01*
X105802819Y-61045496D01*
X103270528Y-61045496D01*
X103171774Y-61016500D01*
X103171772Y-61016500D01*
X103042228Y-61016500D01*
X103042226Y-61016500D01*
X102917935Y-61052994D01*
X102917932Y-61052995D01*
X102917931Y-61052996D01*
X102906289Y-61060478D01*
X102808950Y-61123033D01*
X102724118Y-61220937D01*
X102724117Y-61220938D01*
X102670302Y-61338774D01*
X102651867Y-61467000D01*
X98301144Y-61467000D01*
X98294575Y-61425525D01*
X98294575Y-61425524D01*
X98294574Y-61425522D01*
X98294574Y-61425521D01*
X98240573Y-61319538D01*
X98240571Y-61319536D01*
X98237918Y-61315884D01*
X98214440Y-61250077D01*
X98230267Y-61182024D01*
X98237921Y-61170114D01*
X98240566Y-61166471D01*
X98240573Y-61166465D01*
X98294574Y-61060482D01*
X98295760Y-61052994D01*
X98313181Y-60943003D01*
X98313181Y-60942997D01*
X98299799Y-60858506D01*
X98308754Y-60789212D01*
X98353750Y-60735760D01*
X98420502Y-60715121D01*
X98441668Y-60716634D01*
X98459980Y-60719535D01*
X98482999Y-60723181D01*
X98483000Y-60723181D01*
X98483003Y-60723181D01*
X98600477Y-60704575D01*
X98600478Y-60704575D01*
X98600479Y-60704574D01*
X98600482Y-60704574D01*
X98706465Y-60650573D01*
X98790573Y-60566465D01*
X98844574Y-60460482D01*
X98845305Y-60455867D01*
X98855262Y-60393000D01*
X99127867Y-60393000D01*
X99146302Y-60521225D01*
X99185752Y-60607607D01*
X99200118Y-60639063D01*
X99284951Y-60736967D01*
X99393931Y-60807004D01*
X99518225Y-60843499D01*
X99518227Y-60843500D01*
X99518228Y-60843500D01*
X99647773Y-60843500D01*
X99647773Y-60843499D01*
X99772069Y-60807004D01*
X99881049Y-60736967D01*
X99965882Y-60639063D01*
X100019697Y-60521226D01*
X100038133Y-60393000D01*
X100019697Y-60264774D01*
X99965882Y-60146937D01*
X99881049Y-60049033D01*
X99772069Y-59978996D01*
X99772065Y-59978994D01*
X99772064Y-59978994D01*
X99647774Y-59942500D01*
X99647772Y-59942500D01*
X99518228Y-59942500D01*
X99518226Y-59942500D01*
X99393935Y-59978994D01*
X99393932Y-59978995D01*
X99393931Y-59978996D01*
X99366013Y-59996938D01*
X99284950Y-60049033D01*
X99200118Y-60146937D01*
X99200117Y-60146938D01*
X99146302Y-60264774D01*
X99127867Y-60393000D01*
X98855262Y-60393000D01*
X98863181Y-60343003D01*
X98863181Y-60342996D01*
X98844575Y-60225522D01*
X98844575Y-60225521D01*
X98844574Y-60225519D01*
X98844574Y-60225518D01*
X98790573Y-60119535D01*
X98790571Y-60119533D01*
X98790568Y-60119529D01*
X98706470Y-60035431D01*
X98706466Y-60035428D01*
X98706465Y-60035427D01*
X98600482Y-59981426D01*
X98600480Y-59981425D01*
X98600477Y-59981424D01*
X98483003Y-59962819D01*
X98482997Y-59962819D01*
X98365522Y-59981424D01*
X98365521Y-59981424D01*
X98259533Y-60035428D01*
X98259529Y-60035431D01*
X98175431Y-60119529D01*
X98175428Y-60119533D01*
X98121424Y-60225521D01*
X98121424Y-60225522D01*
X98102819Y-60342996D01*
X98102819Y-60342997D01*
X98102819Y-60343000D01*
X98107805Y-60374478D01*
X98116201Y-60427494D01*
X98107245Y-60496788D01*
X98062248Y-60550239D01*
X97995496Y-60570878D01*
X97974330Y-60569365D01*
X97933000Y-60562819D01*
X97932998Y-60562819D01*
X97932997Y-60562819D01*
X97815522Y-60581424D01*
X97815518Y-60581426D01*
X97751987Y-60613796D01*
X97683317Y-60626692D01*
X97618577Y-60600415D01*
X97578321Y-60543308D01*
X97575329Y-60473502D01*
X97582893Y-60451812D01*
X97619697Y-60371226D01*
X97638133Y-60243000D01*
X97619697Y-60114774D01*
X97565882Y-59996937D01*
X97481049Y-59899033D01*
X97372069Y-59828996D01*
X97372065Y-59828994D01*
X97372064Y-59828994D01*
X97368665Y-59827996D01*
X106402819Y-59827996D01*
X106402819Y-59828003D01*
X106421424Y-59945477D01*
X106421424Y-59945478D01*
X106421425Y-59945481D01*
X106421426Y-59945482D01*
X106474970Y-60050569D01*
X106475428Y-60051466D01*
X106475431Y-60051470D01*
X106559529Y-60135568D01*
X106559533Y-60135571D01*
X106559535Y-60135573D01*
X106665518Y-60189574D01*
X106665520Y-60189574D01*
X106665522Y-60189575D01*
X106782997Y-60208181D01*
X106783000Y-60208181D01*
X106783003Y-60208181D01*
X106900477Y-60189575D01*
X106900478Y-60189575D01*
X106900479Y-60189574D01*
X106900482Y-60189574D01*
X107006465Y-60135573D01*
X107090573Y-60051465D01*
X107144574Y-59945482D01*
X107144575Y-59945477D01*
X107163181Y-59828003D01*
X107163181Y-59827996D01*
X107144575Y-59710522D01*
X107144575Y-59710521D01*
X107144574Y-59710519D01*
X107144574Y-59710518D01*
X107090573Y-59604535D01*
X107090571Y-59604533D01*
X107090568Y-59604529D01*
X107006470Y-59520431D01*
X107006466Y-59520428D01*
X107006465Y-59520427D01*
X106900482Y-59466426D01*
X106900480Y-59466425D01*
X106900477Y-59466424D01*
X106783003Y-59447819D01*
X106782997Y-59447819D01*
X106665522Y-59466424D01*
X106665521Y-59466424D01*
X106559533Y-59520428D01*
X106559529Y-59520431D01*
X106475431Y-59604529D01*
X106475428Y-59604533D01*
X106421424Y-59710521D01*
X106421424Y-59710522D01*
X106402819Y-59827996D01*
X97368665Y-59827996D01*
X97247774Y-59792500D01*
X97247772Y-59792500D01*
X97118228Y-59792500D01*
X97118226Y-59792500D01*
X96993935Y-59828994D01*
X96993932Y-59828995D01*
X96993931Y-59828996D01*
X96944944Y-59860478D01*
X96884950Y-59899033D01*
X96800118Y-59996937D01*
X96800117Y-59996938D01*
X96746302Y-60114774D01*
X96727867Y-60243000D01*
X85383000Y-60243000D01*
X85383000Y-58542996D01*
X92002819Y-58542996D01*
X92002819Y-58543003D01*
X92021424Y-58660477D01*
X92021424Y-58660478D01*
X92075429Y-58766469D01*
X92078082Y-58770120D01*
X92101558Y-58835928D01*
X92085729Y-58903981D01*
X92078082Y-58915880D01*
X92075429Y-58919530D01*
X92021424Y-59025521D01*
X92021424Y-59025522D01*
X92002819Y-59142996D01*
X92002819Y-59143003D01*
X92021424Y-59260477D01*
X92021424Y-59260478D01*
X92021425Y-59260481D01*
X92021426Y-59260482D01*
X92074424Y-59364497D01*
X92075428Y-59366466D01*
X92075431Y-59366470D01*
X92159529Y-59450568D01*
X92159533Y-59450571D01*
X92159535Y-59450573D01*
X92265518Y-59504574D01*
X92265520Y-59504574D01*
X92265522Y-59504575D01*
X92382997Y-59523181D01*
X92383000Y-59523181D01*
X92383003Y-59523181D01*
X92500477Y-59504575D01*
X92500478Y-59504575D01*
X92500479Y-59504574D01*
X92500482Y-59504574D01*
X92606465Y-59450573D01*
X92690573Y-59366465D01*
X92744574Y-59260482D01*
X92744716Y-59259584D01*
X92763181Y-59143003D01*
X92763181Y-59142996D01*
X92744575Y-59025522D01*
X92744575Y-59025521D01*
X92744574Y-59025519D01*
X92744574Y-59025518D01*
X92690573Y-58919535D01*
X92690568Y-58919530D01*
X92687921Y-58915886D01*
X92664441Y-58850079D01*
X92680266Y-58782026D01*
X92687921Y-58770114D01*
X92690566Y-58766471D01*
X92690573Y-58766465D01*
X92744574Y-58660482D01*
X92744575Y-58660477D01*
X92763181Y-58543003D01*
X92763181Y-58542996D01*
X92744575Y-58425522D01*
X92744575Y-58425521D01*
X92744574Y-58425519D01*
X92744574Y-58425518D01*
X92690573Y-58319535D01*
X92690571Y-58319533D01*
X92690568Y-58319529D01*
X92606470Y-58235431D01*
X92606466Y-58235428D01*
X92606465Y-58235427D01*
X92500482Y-58181426D01*
X92500480Y-58181425D01*
X92500477Y-58181424D01*
X92383003Y-58162819D01*
X92382997Y-58162819D01*
X92265522Y-58181424D01*
X92265521Y-58181424D01*
X92159533Y-58235428D01*
X92159529Y-58235431D01*
X92075431Y-58319529D01*
X92075428Y-58319533D01*
X92021424Y-58425521D01*
X92021424Y-58425522D01*
X92002819Y-58542996D01*
X85383000Y-58542996D01*
X85383000Y-57943000D01*
X87952867Y-57943000D01*
X87971302Y-58071225D01*
X88016197Y-58169529D01*
X88025118Y-58189063D01*
X88109951Y-58286967D01*
X88218931Y-58357004D01*
X88343225Y-58393499D01*
X88343227Y-58393500D01*
X88343228Y-58393500D01*
X88472773Y-58393500D01*
X88472773Y-58393499D01*
X88597069Y-58357004D01*
X88706049Y-58286967D01*
X88790882Y-58189063D01*
X88844697Y-58071226D01*
X88863133Y-57943000D01*
X88844697Y-57814774D01*
X88811917Y-57742996D01*
X96902819Y-57742996D01*
X96902819Y-57743003D01*
X96921424Y-57860477D01*
X96921424Y-57860478D01*
X96975428Y-57966466D01*
X96975431Y-57966470D01*
X97059529Y-58050568D01*
X97059533Y-58050571D01*
X97059535Y-58050573D01*
X97165518Y-58104574D01*
X97165520Y-58104574D01*
X97165522Y-58104575D01*
X97282997Y-58123181D01*
X97283000Y-58123181D01*
X97283003Y-58123181D01*
X97400477Y-58104575D01*
X97400478Y-58104575D01*
X97400479Y-58104574D01*
X97400482Y-58104574D01*
X97506465Y-58050573D01*
X97590573Y-57966465D01*
X97644574Y-57860482D01*
X97648542Y-57835428D01*
X97663181Y-57743003D01*
X97663181Y-57742996D01*
X97644575Y-57625522D01*
X97644575Y-57625521D01*
X97644574Y-57625519D01*
X97644574Y-57625518D01*
X97590573Y-57519535D01*
X97590571Y-57519533D01*
X97590568Y-57519529D01*
X97506470Y-57435431D01*
X97506466Y-57435428D01*
X97506465Y-57435427D01*
X97400482Y-57381426D01*
X97400480Y-57381425D01*
X97400477Y-57381424D01*
X97283003Y-57362819D01*
X97282997Y-57362819D01*
X97165522Y-57381424D01*
X97165521Y-57381424D01*
X97059533Y-57435428D01*
X97059529Y-57435431D01*
X96975431Y-57519529D01*
X96975428Y-57519533D01*
X96921424Y-57625521D01*
X96921424Y-57625522D01*
X96902819Y-57742996D01*
X88811917Y-57742996D01*
X88790882Y-57696937D01*
X88706049Y-57599033D01*
X88597069Y-57528996D01*
X88597065Y-57528994D01*
X88597064Y-57528994D01*
X88472774Y-57492500D01*
X88472772Y-57492500D01*
X88343228Y-57492500D01*
X88343226Y-57492500D01*
X88218935Y-57528994D01*
X88218932Y-57528995D01*
X88218931Y-57528996D01*
X88177830Y-57555410D01*
X88109950Y-57599033D01*
X88025118Y-57696937D01*
X88025117Y-57696938D01*
X87971302Y-57814774D01*
X87952867Y-57943000D01*
X85383000Y-57943000D01*
X85383000Y-57338500D01*
X105627867Y-57338500D01*
X105646302Y-57466725D01*
X105691855Y-57566470D01*
X105700118Y-57584563D01*
X105784951Y-57682467D01*
X105893931Y-57752504D01*
X105992426Y-57781424D01*
X106018225Y-57788999D01*
X106018227Y-57789000D01*
X106018228Y-57789000D01*
X106147773Y-57789000D01*
X106147773Y-57788999D01*
X106272069Y-57752504D01*
X106381049Y-57682467D01*
X106465882Y-57584563D01*
X106519697Y-57466726D01*
X106538133Y-57338500D01*
X106519697Y-57210274D01*
X106465882Y-57092437D01*
X106381883Y-56995496D01*
X107252819Y-56995496D01*
X107252819Y-56995503D01*
X107271424Y-57112977D01*
X107271424Y-57112978D01*
X107271425Y-57112981D01*
X107271426Y-57112982D01*
X107323135Y-57214467D01*
X107325428Y-57218966D01*
X107325431Y-57218970D01*
X107409529Y-57303068D01*
X107409533Y-57303071D01*
X107409535Y-57303073D01*
X107515518Y-57357074D01*
X107515520Y-57357074D01*
X107515522Y-57357075D01*
X107632997Y-57375681D01*
X107633000Y-57375681D01*
X107633003Y-57375681D01*
X107750477Y-57357075D01*
X107750478Y-57357075D01*
X107750479Y-57357074D01*
X107750482Y-57357074D01*
X107856465Y-57303073D01*
X107940573Y-57218965D01*
X107994574Y-57112982D01*
X107995012Y-57110216D01*
X108013181Y-56995503D01*
X108013181Y-56995496D01*
X107994575Y-56878022D01*
X107994575Y-56878021D01*
X107994574Y-56878019D01*
X107994574Y-56878018D01*
X107940573Y-56772035D01*
X107940571Y-56772033D01*
X107940568Y-56772029D01*
X107856470Y-56687931D01*
X107856466Y-56687928D01*
X107856465Y-56687927D01*
X107750482Y-56633926D01*
X107750480Y-56633925D01*
X107750477Y-56633924D01*
X107633003Y-56615319D01*
X107632997Y-56615319D01*
X107515522Y-56633924D01*
X107515521Y-56633924D01*
X107409533Y-56687928D01*
X107409529Y-56687931D01*
X107325431Y-56772029D01*
X107325428Y-56772033D01*
X107271424Y-56878021D01*
X107271424Y-56878022D01*
X107252819Y-56995496D01*
X106381883Y-56995496D01*
X106381049Y-56994533D01*
X106272069Y-56924496D01*
X106272065Y-56924494D01*
X106272064Y-56924494D01*
X106147774Y-56888000D01*
X106147772Y-56888000D01*
X106018228Y-56888000D01*
X106018226Y-56888000D01*
X105893935Y-56924494D01*
X105893932Y-56924495D01*
X105893931Y-56924496D01*
X105842677Y-56957434D01*
X105784950Y-56994533D01*
X105700118Y-57092437D01*
X105700117Y-57092438D01*
X105646302Y-57210274D01*
X105627867Y-57338500D01*
X85383000Y-57338500D01*
X85383000Y-56393000D01*
X101027867Y-56393000D01*
X101046302Y-56521225D01*
X101056245Y-56542996D01*
X101100118Y-56639063D01*
X101184951Y-56736967D01*
X101293931Y-56807004D01*
X101345270Y-56822078D01*
X101418225Y-56843499D01*
X101418227Y-56843500D01*
X101418228Y-56843500D01*
X101547773Y-56843500D01*
X101547773Y-56843499D01*
X101672069Y-56807004D01*
X101781049Y-56736967D01*
X101865882Y-56639063D01*
X101919697Y-56521226D01*
X101938133Y-56393000D01*
X101919697Y-56264774D01*
X101865882Y-56146937D01*
X101781049Y-56049033D01*
X101672069Y-55978996D01*
X101672065Y-55978994D01*
X101672064Y-55978994D01*
X101547774Y-55942500D01*
X101547772Y-55942500D01*
X101418228Y-55942500D01*
X101418226Y-55942500D01*
X101293935Y-55978994D01*
X101293932Y-55978995D01*
X101293931Y-55978996D01*
X101242677Y-56011934D01*
X101184950Y-56049033D01*
X101100118Y-56146937D01*
X101100117Y-56146938D01*
X101046302Y-56264774D01*
X101027867Y-56393000D01*
X85383000Y-56393000D01*
X85383000Y-55640496D01*
X106602819Y-55640496D01*
X106602819Y-55640503D01*
X106621424Y-55757977D01*
X106621424Y-55757978D01*
X106621425Y-55757981D01*
X106621426Y-55757982D01*
X106673652Y-55860482D01*
X106675428Y-55863966D01*
X106675431Y-55863970D01*
X106759529Y-55948068D01*
X106759533Y-55948071D01*
X106759535Y-55948073D01*
X106865518Y-56002074D01*
X106865520Y-56002074D01*
X106865522Y-56002075D01*
X106982997Y-56020681D01*
X106983000Y-56020681D01*
X106983003Y-56020681D01*
X107100477Y-56002075D01*
X107100478Y-56002075D01*
X107100479Y-56002074D01*
X107100482Y-56002074D01*
X107206465Y-55948073D01*
X107290573Y-55863965D01*
X107344574Y-55757982D01*
X107344575Y-55757977D01*
X107363181Y-55640503D01*
X107363181Y-55640498D01*
X107353493Y-55579330D01*
X107348918Y-55550446D01*
X107357872Y-55481155D01*
X107402868Y-55427703D01*
X107469620Y-55407063D01*
X107490788Y-55408577D01*
X107582997Y-55423181D01*
X107583000Y-55423181D01*
X107583003Y-55423181D01*
X107700477Y-55404575D01*
X107700478Y-55404575D01*
X107700479Y-55404574D01*
X107700482Y-55404574D01*
X107806465Y-55350573D01*
X107890573Y-55266465D01*
X107944574Y-55160482D01*
X107947343Y-55143000D01*
X107963181Y-55043003D01*
X107963181Y-55042996D01*
X107948092Y-54947725D01*
X108400455Y-54947725D01*
X108400455Y-54947732D01*
X108419060Y-55065206D01*
X108419060Y-55065207D01*
X108419061Y-55065210D01*
X108419062Y-55065211D01*
X108470694Y-55166545D01*
X108473064Y-55171195D01*
X108473067Y-55171199D01*
X108557165Y-55255297D01*
X108557169Y-55255300D01*
X108557171Y-55255302D01*
X108663154Y-55309303D01*
X108663156Y-55309303D01*
X108663158Y-55309304D01*
X108780633Y-55327910D01*
X108780636Y-55327910D01*
X108780639Y-55327910D01*
X108898113Y-55309304D01*
X108898114Y-55309304D01*
X108898115Y-55309303D01*
X108898118Y-55309303D01*
X109004101Y-55255302D01*
X109088209Y-55171194D01*
X109142210Y-55065211D01*
X109142211Y-55065206D01*
X109160817Y-54947732D01*
X109160817Y-54947725D01*
X109142211Y-54830251D01*
X109142211Y-54830250D01*
X109142210Y-54830248D01*
X109142210Y-54830247D01*
X109088209Y-54724264D01*
X109088207Y-54724262D01*
X109088204Y-54724258D01*
X109004106Y-54640160D01*
X109004102Y-54640157D01*
X109004101Y-54640156D01*
X108898118Y-54586155D01*
X108898116Y-54586154D01*
X108898113Y-54586153D01*
X108780639Y-54567548D01*
X108780633Y-54567548D01*
X108663158Y-54586153D01*
X108663157Y-54586153D01*
X108557169Y-54640157D01*
X108557165Y-54640160D01*
X108473067Y-54724258D01*
X108473064Y-54724262D01*
X108419060Y-54830250D01*
X108419060Y-54830251D01*
X108400455Y-54947725D01*
X107948092Y-54947725D01*
X107944575Y-54925522D01*
X107944575Y-54925521D01*
X107944574Y-54925519D01*
X107944574Y-54925518D01*
X107890573Y-54819535D01*
X107890571Y-54819533D01*
X107890568Y-54819529D01*
X107838443Y-54767404D01*
X107804958Y-54706081D01*
X107809942Y-54636389D01*
X107851814Y-54580456D01*
X107869819Y-54569244D01*
X107906465Y-54550573D01*
X107990573Y-54466465D01*
X108044574Y-54360482D01*
X108045125Y-54357004D01*
X108063181Y-54243003D01*
X108063181Y-54242996D01*
X108044575Y-54125522D01*
X108044575Y-54125521D01*
X108044574Y-54125519D01*
X108044574Y-54125518D01*
X107990573Y-54019535D01*
X107990571Y-54019533D01*
X107990568Y-54019529D01*
X107906470Y-53935431D01*
X107906466Y-53935428D01*
X107906465Y-53935427D01*
X107800482Y-53881426D01*
X107800480Y-53881425D01*
X107800477Y-53881424D01*
X107683003Y-53862819D01*
X107682997Y-53862819D01*
X107565522Y-53881424D01*
X107565521Y-53881424D01*
X107459533Y-53935428D01*
X107459529Y-53935431D01*
X107375431Y-54019529D01*
X107375428Y-54019533D01*
X107321424Y-54125521D01*
X107321424Y-54125522D01*
X107302819Y-54242996D01*
X107302819Y-54243003D01*
X107321424Y-54360477D01*
X107321424Y-54360478D01*
X107321425Y-54360481D01*
X107321426Y-54360482D01*
X107367327Y-54450568D01*
X107375428Y-54466466D01*
X107375431Y-54466470D01*
X107427556Y-54518595D01*
X107461041Y-54579918D01*
X107456057Y-54649610D01*
X107414185Y-54705543D01*
X107396173Y-54716758D01*
X107359535Y-54735427D01*
X107359534Y-54735428D01*
X107359529Y-54735431D01*
X107275431Y-54819529D01*
X107275428Y-54819533D01*
X107221424Y-54925521D01*
X107221424Y-54925522D01*
X107202819Y-55042996D01*
X107202819Y-55043003D01*
X107217081Y-55133052D01*
X107208126Y-55202345D01*
X107163130Y-55255797D01*
X107096378Y-55276436D01*
X107075212Y-55274923D01*
X107000129Y-55263031D01*
X106983000Y-55260319D01*
X106982999Y-55260319D01*
X106982997Y-55260319D01*
X106865522Y-55278924D01*
X106865521Y-55278924D01*
X106759533Y-55332928D01*
X106759529Y-55332931D01*
X106675431Y-55417029D01*
X106675428Y-55417033D01*
X106621424Y-55523021D01*
X106621424Y-55523022D01*
X106602819Y-55640496D01*
X85383000Y-55640496D01*
X85383000Y-55143000D01*
X86627867Y-55143000D01*
X86646302Y-55271225D01*
X86686991Y-55360320D01*
X86700118Y-55389063D01*
X86784951Y-55486967D01*
X86893931Y-55557004D01*
X87018225Y-55593499D01*
X87018227Y-55593500D01*
X87018228Y-55593500D01*
X87147773Y-55593500D01*
X87147773Y-55593499D01*
X87272069Y-55557004D01*
X87381049Y-55486967D01*
X87465882Y-55389063D01*
X87519697Y-55271226D01*
X87538133Y-55143000D01*
X87519697Y-55014774D01*
X87509751Y-54992996D01*
X92102819Y-54992996D01*
X92102819Y-54993003D01*
X92121424Y-55110477D01*
X92121424Y-55110478D01*
X92121425Y-55110481D01*
X92121426Y-55110482D01*
X92175132Y-55215887D01*
X92175428Y-55216466D01*
X92175431Y-55216470D01*
X92259529Y-55300568D01*
X92259533Y-55300571D01*
X92259535Y-55300573D01*
X92365518Y-55354574D01*
X92365520Y-55354574D01*
X92365522Y-55354575D01*
X92482997Y-55373181D01*
X92483000Y-55373181D01*
X92483003Y-55373181D01*
X92600477Y-55354575D01*
X92600478Y-55354575D01*
X92600479Y-55354574D01*
X92600482Y-55354574D01*
X92706465Y-55300573D01*
X92790573Y-55216465D01*
X92844574Y-55110482D01*
X92844666Y-55109903D01*
X92863181Y-54993003D01*
X92863181Y-54992996D01*
X92844575Y-54875522D01*
X92844575Y-54875521D01*
X92844574Y-54875519D01*
X92844574Y-54875518D01*
X92790573Y-54769535D01*
X92790571Y-54769533D01*
X92790568Y-54769529D01*
X92706470Y-54685431D01*
X92706466Y-54685428D01*
X92706465Y-54685427D01*
X92600482Y-54631426D01*
X92600480Y-54631425D01*
X92600477Y-54631424D01*
X92483003Y-54612819D01*
X92482997Y-54612819D01*
X92365522Y-54631424D01*
X92365521Y-54631424D01*
X92259533Y-54685428D01*
X92259529Y-54685431D01*
X92175431Y-54769529D01*
X92175428Y-54769533D01*
X92121424Y-54875521D01*
X92121424Y-54875522D01*
X92102819Y-54992996D01*
X87509751Y-54992996D01*
X87465882Y-54896937D01*
X87381049Y-54799033D01*
X87272069Y-54728996D01*
X87272065Y-54728994D01*
X87272064Y-54728994D01*
X87147774Y-54692500D01*
X87147772Y-54692500D01*
X87018228Y-54692500D01*
X87018226Y-54692500D01*
X86893935Y-54728994D01*
X86893932Y-54728995D01*
X86893931Y-54728996D01*
X86855612Y-54753622D01*
X86784950Y-54799033D01*
X86700118Y-54896937D01*
X86700117Y-54896938D01*
X86646302Y-55014774D01*
X86627867Y-55143000D01*
X85383000Y-55143000D01*
X85383000Y-53365999D01*
X99304868Y-53365999D01*
X99323303Y-53494224D01*
X99371169Y-53599033D01*
X99377119Y-53612062D01*
X99428384Y-53671226D01*
X99457463Y-53704786D01*
X99461952Y-53709966D01*
X99570932Y-53780003D01*
X99689354Y-53814774D01*
X99695226Y-53816498D01*
X99695228Y-53816499D01*
X99695229Y-53816499D01*
X99824774Y-53816499D01*
X99824774Y-53816498D01*
X99949070Y-53780003D01*
X100058050Y-53709966D01*
X100142883Y-53612062D01*
X100196698Y-53494225D01*
X100215134Y-53365999D01*
X100196698Y-53237773D01*
X100142883Y-53119936D01*
X100058050Y-53022032D01*
X99949070Y-52951995D01*
X99949066Y-52951993D01*
X99949065Y-52951993D01*
X99824775Y-52915499D01*
X99824773Y-52915499D01*
X99695229Y-52915499D01*
X99695227Y-52915499D01*
X99570936Y-52951993D01*
X99570933Y-52951994D01*
X99570932Y-52951995D01*
X99525136Y-52981426D01*
X99461951Y-53022032D01*
X99377119Y-53119936D01*
X99377118Y-53119937D01*
X99323303Y-53237773D01*
X99304868Y-53365999D01*
X85383000Y-53365999D01*
X85383000Y-52868500D01*
X105027867Y-52868500D01*
X105046302Y-52996725D01*
X105087703Y-53087379D01*
X105100118Y-53114563D01*
X105184951Y-53212467D01*
X105293931Y-53282504D01*
X105343090Y-53296938D01*
X105418225Y-53318999D01*
X105418227Y-53319000D01*
X105418228Y-53319000D01*
X105547773Y-53319000D01*
X105547773Y-53318999D01*
X105672069Y-53282504D01*
X105781049Y-53212467D01*
X105865882Y-53114563D01*
X105919697Y-52996726D01*
X105938133Y-52868500D01*
X105919697Y-52740274D01*
X105865882Y-52622437D01*
X105781049Y-52524533D01*
X105672069Y-52454496D01*
X105672065Y-52454494D01*
X105672064Y-52454494D01*
X105547774Y-52418000D01*
X105547772Y-52418000D01*
X105418228Y-52418000D01*
X105418226Y-52418000D01*
X105293935Y-52454494D01*
X105293932Y-52454495D01*
X105293931Y-52454496D01*
X105271526Y-52468895D01*
X105184950Y-52524533D01*
X105100118Y-52622437D01*
X105100117Y-52622438D01*
X105046302Y-52740274D01*
X105027867Y-52868500D01*
X85383000Y-52868500D01*
X85383000Y-52042996D01*
X97802819Y-52042996D01*
X97802819Y-52043003D01*
X97821424Y-52160477D01*
X97821424Y-52160478D01*
X97821425Y-52160481D01*
X97821426Y-52160482D01*
X97859614Y-52235431D01*
X97875428Y-52266466D01*
X97875431Y-52266470D01*
X97959529Y-52350568D01*
X97959533Y-52350571D01*
X97959535Y-52350573D01*
X98065518Y-52404574D01*
X98065520Y-52404574D01*
X98065522Y-52404575D01*
X98182997Y-52423181D01*
X98183000Y-52423181D01*
X98183003Y-52423181D01*
X98300477Y-52404575D01*
X98300478Y-52404575D01*
X98300479Y-52404574D01*
X98300482Y-52404574D01*
X98406465Y-52350573D01*
X98490573Y-52266465D01*
X98544574Y-52160482D01*
X98544575Y-52160477D01*
X98563181Y-52043003D01*
X98563181Y-52042996D01*
X98544575Y-51925522D01*
X98544575Y-51925521D01*
X98544574Y-51925519D01*
X98544574Y-51925518D01*
X98527416Y-51891844D01*
X100479023Y-51891844D01*
X100497458Y-52020069D01*
X100507932Y-52043003D01*
X100551274Y-52137907D01*
X100636107Y-52235811D01*
X100745087Y-52305848D01*
X100791695Y-52319533D01*
X100869381Y-52342343D01*
X100869383Y-52342344D01*
X100869384Y-52342344D01*
X100998929Y-52342344D01*
X100998929Y-52342343D01*
X101123225Y-52305848D01*
X101232205Y-52235811D01*
X101317038Y-52137907D01*
X101370853Y-52020070D01*
X101389289Y-51891844D01*
X101370853Y-51763618D01*
X101317038Y-51645781D01*
X101232205Y-51547877D01*
X101123225Y-51477840D01*
X101123221Y-51477838D01*
X101123220Y-51477838D01*
X100998930Y-51441344D01*
X100998928Y-51441344D01*
X100869384Y-51441344D01*
X100869382Y-51441344D01*
X100745091Y-51477838D01*
X100745088Y-51477839D01*
X100745087Y-51477840D01*
X100693833Y-51510778D01*
X100636106Y-51547877D01*
X100551274Y-51645781D01*
X100551273Y-51645782D01*
X100497458Y-51763618D01*
X100479023Y-51891844D01*
X98527416Y-51891844D01*
X98490573Y-51819535D01*
X98490571Y-51819533D01*
X98490568Y-51819529D01*
X98406470Y-51735431D01*
X98406466Y-51735428D01*
X98406465Y-51735427D01*
X98300482Y-51681426D01*
X98300480Y-51681425D01*
X98300477Y-51681424D01*
X98183003Y-51662819D01*
X98182997Y-51662819D01*
X98065522Y-51681424D01*
X98065521Y-51681424D01*
X97959533Y-51735428D01*
X97959529Y-51735431D01*
X97875431Y-51819529D01*
X97875428Y-51819533D01*
X97821424Y-51925521D01*
X97821424Y-51925522D01*
X97802819Y-52042996D01*
X85383000Y-52042996D01*
X85383000Y-50642996D01*
X97902819Y-50642996D01*
X97902819Y-50643003D01*
X97921424Y-50760477D01*
X97921424Y-50760478D01*
X97921425Y-50760481D01*
X97921426Y-50760482D01*
X97972376Y-50860478D01*
X97975428Y-50866466D01*
X97975431Y-50866470D01*
X98059529Y-50950568D01*
X98059533Y-50950571D01*
X98059535Y-50950573D01*
X98165518Y-51004574D01*
X98165520Y-51004574D01*
X98165522Y-51004575D01*
X98282997Y-51023181D01*
X98283000Y-51023181D01*
X98283003Y-51023181D01*
X98400477Y-51004575D01*
X98400478Y-51004575D01*
X98400479Y-51004574D01*
X98400482Y-51004574D01*
X98506465Y-50950573D01*
X98590573Y-50866465D01*
X98644574Y-50760482D01*
X98644575Y-50760477D01*
X98663181Y-50643003D01*
X98663181Y-50642996D01*
X98644575Y-50525522D01*
X98644575Y-50525521D01*
X98644574Y-50525519D01*
X98644574Y-50525518D01*
X98590573Y-50419535D01*
X98590571Y-50419533D01*
X98590568Y-50419529D01*
X98506470Y-50335431D01*
X98506466Y-50335428D01*
X98506465Y-50335427D01*
X98400482Y-50281426D01*
X98400480Y-50281425D01*
X98400477Y-50281424D01*
X98283003Y-50262819D01*
X98282997Y-50262819D01*
X98165522Y-50281424D01*
X98165521Y-50281424D01*
X98059533Y-50335428D01*
X98059529Y-50335431D01*
X97975431Y-50419529D01*
X97975428Y-50419533D01*
X97921424Y-50525521D01*
X97921424Y-50525522D01*
X97902819Y-50642996D01*
X85383000Y-50642996D01*
X85383000Y-49773260D01*
X85402685Y-49706221D01*
X85413289Y-49692055D01*
X85415882Y-49689063D01*
X85469697Y-49571226D01*
X85488133Y-49443000D01*
X85469697Y-49314774D01*
X85415882Y-49196937D01*
X85413283Y-49193938D01*
X85411637Y-49190334D01*
X85411089Y-49189480D01*
X85411211Y-49189401D01*
X85384262Y-49130384D01*
X85383000Y-49112740D01*
X85383000Y-48643000D01*
X90227867Y-48643000D01*
X90246302Y-48771225D01*
X90291868Y-48870999D01*
X90300118Y-48889063D01*
X90384951Y-48986967D01*
X90493931Y-49057004D01*
X90574321Y-49080608D01*
X90618225Y-49093499D01*
X90618227Y-49093500D01*
X90618228Y-49093500D01*
X90747773Y-49093500D01*
X90747773Y-49093499D01*
X90872069Y-49057004D01*
X90981049Y-48986967D01*
X91065882Y-48889063D01*
X91119697Y-48771226D01*
X91138133Y-48643000D01*
X91119697Y-48514774D01*
X91065882Y-48396937D01*
X90981049Y-48299033D01*
X90872069Y-48228996D01*
X90872065Y-48228994D01*
X90872064Y-48228994D01*
X90747774Y-48192500D01*
X90747772Y-48192500D01*
X90618228Y-48192500D01*
X90618226Y-48192500D01*
X90493935Y-48228994D01*
X90493932Y-48228995D01*
X90493931Y-48228996D01*
X90442677Y-48261934D01*
X90384950Y-48299033D01*
X90300118Y-48396937D01*
X90300117Y-48396938D01*
X90246302Y-48514774D01*
X90227867Y-48643000D01*
X85383000Y-48643000D01*
X85383000Y-45643000D01*
X96227867Y-45643000D01*
X96246302Y-45771225D01*
X96300117Y-45889061D01*
X96300118Y-45889063D01*
X96384951Y-45986967D01*
X96493931Y-46057004D01*
X96618225Y-46093499D01*
X96618227Y-46093500D01*
X96618228Y-46093500D01*
X96747773Y-46093500D01*
X96747773Y-46093499D01*
X96872069Y-46057004D01*
X96981049Y-45986967D01*
X97065882Y-45889063D01*
X97119697Y-45771226D01*
X97138133Y-45643000D01*
X97119697Y-45514774D01*
X97065882Y-45396937D01*
X96981049Y-45299033D01*
X96872069Y-45228996D01*
X96872065Y-45228994D01*
X96872064Y-45228994D01*
X96747774Y-45192500D01*
X96747772Y-45192500D01*
X96618228Y-45192500D01*
X96618226Y-45192500D01*
X96493935Y-45228994D01*
X96493932Y-45228995D01*
X96493931Y-45228996D01*
X96469047Y-45244988D01*
X96384950Y-45299033D01*
X96300118Y-45396937D01*
X96300117Y-45396938D01*
X96246302Y-45514774D01*
X96227867Y-45643000D01*
X85383000Y-45643000D01*
X85383000Y-44667706D01*
X85402685Y-44600667D01*
X85455489Y-44554912D01*
X85507701Y-44543708D01*
X85803695Y-44545390D01*
X85870618Y-44565454D01*
X85890663Y-44581701D01*
X85959535Y-44650573D01*
X86065518Y-44704574D01*
X86065520Y-44704574D01*
X86065522Y-44704575D01*
X86182997Y-44723181D01*
X86183000Y-44723181D01*
X86183003Y-44723181D01*
X86300477Y-44704575D01*
X86300478Y-44704575D01*
X86300479Y-44704574D01*
X86300482Y-44704574D01*
X86406465Y-44650573D01*
X86471039Y-44585998D01*
X86532360Y-44552515D01*
X86559412Y-44549684D01*
X96182450Y-44604360D01*
X96249375Y-44624425D01*
X96294537Y-44676844D01*
X96300116Y-44689059D01*
X96300118Y-44689063D01*
X96384951Y-44786967D01*
X96493931Y-44857004D01*
X96618225Y-44893499D01*
X96618227Y-44893500D01*
X96618228Y-44893500D01*
X96747773Y-44893500D01*
X96747773Y-44893499D01*
X96872069Y-44857004D01*
X96981049Y-44786967D01*
X97065882Y-44689063D01*
X97119697Y-44571226D01*
X97138133Y-44443000D01*
X97119697Y-44314774D01*
X97065882Y-44196937D01*
X96981049Y-44099033D01*
X96872069Y-44028996D01*
X96872065Y-44028994D01*
X96872064Y-44028994D01*
X96747774Y-43992500D01*
X96747772Y-43992500D01*
X96618228Y-43992500D01*
X96541933Y-44014901D01*
X96472063Y-44014900D01*
X96413286Y-43977124D01*
X96397703Y-43943000D01*
X102727867Y-43943000D01*
X102746302Y-44071225D01*
X102791972Y-44171226D01*
X102800118Y-44189063D01*
X102884951Y-44286967D01*
X102993931Y-44357004D01*
X103118225Y-44393499D01*
X103118227Y-44393500D01*
X103118228Y-44393500D01*
X103247773Y-44393500D01*
X103247773Y-44393499D01*
X103372069Y-44357004D01*
X103481049Y-44286967D01*
X103565882Y-44189063D01*
X103619697Y-44071226D01*
X103623755Y-44043000D01*
X116127867Y-44043000D01*
X116146302Y-44171225D01*
X116199160Y-44286966D01*
X116200118Y-44289063D01*
X116284951Y-44386967D01*
X116393931Y-44457004D01*
X116518225Y-44493499D01*
X116518227Y-44493500D01*
X116518228Y-44493500D01*
X116647773Y-44493500D01*
X116647773Y-44493499D01*
X116772069Y-44457004D01*
X116881049Y-44386967D01*
X116965882Y-44289063D01*
X117019697Y-44171226D01*
X117038133Y-44043000D01*
X117019697Y-43914774D01*
X116965882Y-43796937D01*
X116881049Y-43699033D01*
X116772069Y-43628996D01*
X116772065Y-43628994D01*
X116772064Y-43628994D01*
X116647774Y-43592500D01*
X116647772Y-43592500D01*
X116518228Y-43592500D01*
X116518226Y-43592500D01*
X116393935Y-43628994D01*
X116393932Y-43628995D01*
X116393931Y-43628996D01*
X116342677Y-43661934D01*
X116284950Y-43699033D01*
X116200118Y-43796937D01*
X116200117Y-43796938D01*
X116146302Y-43914774D01*
X116127867Y-44043000D01*
X103623755Y-44043000D01*
X103638133Y-43943000D01*
X103619697Y-43814774D01*
X103565882Y-43696937D01*
X103481049Y-43599033D01*
X103372069Y-43528996D01*
X103372065Y-43528994D01*
X103372064Y-43528994D01*
X103247774Y-43492500D01*
X103247772Y-43492500D01*
X103118228Y-43492500D01*
X103118226Y-43492500D01*
X102993935Y-43528994D01*
X102993932Y-43528995D01*
X102993931Y-43528996D01*
X102942677Y-43561934D01*
X102884950Y-43599033D01*
X102800118Y-43696937D01*
X102800117Y-43696938D01*
X102746302Y-43814774D01*
X102727867Y-43943000D01*
X96397703Y-43943000D01*
X96384262Y-43913568D01*
X96383000Y-43895923D01*
X96383000Y-42143000D01*
X116327867Y-42143000D01*
X116346302Y-42271225D01*
X116400117Y-42389061D01*
X116400118Y-42389063D01*
X116484951Y-42486967D01*
X116593931Y-42557004D01*
X116718225Y-42593499D01*
X116718227Y-42593500D01*
X116718228Y-42593500D01*
X116847773Y-42593500D01*
X116847773Y-42593499D01*
X116972069Y-42557004D01*
X117081049Y-42486967D01*
X117165882Y-42389063D01*
X117219697Y-42271226D01*
X117238133Y-42143000D01*
X117219697Y-42014774D01*
X117165882Y-41896937D01*
X117081049Y-41799033D01*
X116972069Y-41728996D01*
X116972065Y-41728994D01*
X116972064Y-41728994D01*
X116847774Y-41692500D01*
X116847772Y-41692500D01*
X116718228Y-41692500D01*
X116718226Y-41692500D01*
X116593935Y-41728994D01*
X116593932Y-41728995D01*
X116593931Y-41728996D01*
X116583436Y-41735741D01*
X116484950Y-41799033D01*
X116400118Y-41896937D01*
X116400117Y-41896938D01*
X116346302Y-42014774D01*
X116327867Y-42143000D01*
X96383000Y-42143000D01*
X96383000Y-41848535D01*
X96402685Y-41781496D01*
X96455489Y-41735741D01*
X96524647Y-41725797D01*
X96574036Y-41744218D01*
X96593931Y-41757004D01*
X96593933Y-41757004D01*
X96593934Y-41757005D01*
X96718225Y-41793499D01*
X96718227Y-41793500D01*
X96718228Y-41793500D01*
X96847773Y-41793500D01*
X96847773Y-41793499D01*
X96972069Y-41757004D01*
X97081049Y-41686967D01*
X97165882Y-41589063D01*
X97186920Y-41542996D01*
X122202819Y-41542996D01*
X122202819Y-41543003D01*
X122221424Y-41660477D01*
X122221424Y-41660478D01*
X122221425Y-41660481D01*
X122221426Y-41660482D01*
X122270606Y-41757004D01*
X122275428Y-41766466D01*
X122275431Y-41766470D01*
X122359529Y-41850568D01*
X122359533Y-41850571D01*
X122359535Y-41850573D01*
X122465518Y-41904574D01*
X122465520Y-41904574D01*
X122465522Y-41904575D01*
X122582997Y-41923181D01*
X122583000Y-41923181D01*
X122583003Y-41923181D01*
X122700477Y-41904575D01*
X122700478Y-41904575D01*
X122700479Y-41904574D01*
X122700482Y-41904574D01*
X122806465Y-41850573D01*
X122890573Y-41766465D01*
X122944574Y-41660482D01*
X122944575Y-41660477D01*
X122963181Y-41543003D01*
X122963181Y-41542996D01*
X122944575Y-41425522D01*
X122944575Y-41425521D01*
X122944574Y-41425519D01*
X122944574Y-41425518D01*
X122890573Y-41319535D01*
X122890571Y-41319533D01*
X122890568Y-41319529D01*
X122806470Y-41235431D01*
X122806466Y-41235428D01*
X122806465Y-41235427D01*
X122700482Y-41181426D01*
X122700480Y-41181425D01*
X122700477Y-41181424D01*
X122583003Y-41162819D01*
X122582997Y-41162819D01*
X122465522Y-41181424D01*
X122465521Y-41181424D01*
X122359533Y-41235428D01*
X122359529Y-41235431D01*
X122275431Y-41319529D01*
X122275428Y-41319533D01*
X122221424Y-41425521D01*
X122221424Y-41425522D01*
X122202819Y-41542996D01*
X97186920Y-41542996D01*
X97219697Y-41471226D01*
X97238133Y-41343000D01*
X97219697Y-41214774D01*
X97165882Y-41096937D01*
X97081049Y-40999033D01*
X96972069Y-40928996D01*
X96972065Y-40928994D01*
X96972064Y-40928994D01*
X96847774Y-40892500D01*
X96847772Y-40892500D01*
X96718228Y-40892500D01*
X96718226Y-40892500D01*
X96593936Y-40928993D01*
X96593931Y-40928995D01*
X96593931Y-40928996D01*
X96574036Y-40941781D01*
X96506998Y-40961464D01*
X96439959Y-40941778D01*
X96394205Y-40888973D01*
X96383000Y-40837464D01*
X96383000Y-40742996D01*
X101402819Y-40742996D01*
X101402819Y-40743003D01*
X101421424Y-40860477D01*
X101421424Y-40860478D01*
X101421425Y-40860481D01*
X101421426Y-40860482D01*
X101462848Y-40941778D01*
X101475428Y-40966466D01*
X101475431Y-40966470D01*
X101559529Y-41050568D01*
X101559533Y-41050571D01*
X101559535Y-41050573D01*
X101665518Y-41104574D01*
X101665520Y-41104574D01*
X101665522Y-41104575D01*
X101782997Y-41123181D01*
X101783000Y-41123181D01*
X101783003Y-41123181D01*
X101900477Y-41104575D01*
X101900478Y-41104575D01*
X101900479Y-41104574D01*
X101900482Y-41104574D01*
X102006465Y-41050573D01*
X102090573Y-40966465D01*
X102144574Y-40860482D01*
X102163181Y-40743000D01*
X102163181Y-40742996D01*
X102144575Y-40625522D01*
X102144575Y-40625521D01*
X102144574Y-40625519D01*
X102144574Y-40625518D01*
X102090573Y-40519535D01*
X102090571Y-40519533D01*
X102090568Y-40519529D01*
X102006470Y-40435431D01*
X102006466Y-40435428D01*
X102006465Y-40435427D01*
X101900482Y-40381426D01*
X101900480Y-40381425D01*
X101900477Y-40381424D01*
X101783003Y-40362819D01*
X101782997Y-40362819D01*
X101665522Y-40381424D01*
X101665521Y-40381424D01*
X101559533Y-40435428D01*
X101559529Y-40435431D01*
X101475431Y-40519529D01*
X101475428Y-40519533D01*
X101421424Y-40625521D01*
X101421424Y-40625522D01*
X101402819Y-40742996D01*
X96383000Y-40742996D01*
X96383000Y-40243000D01*
X98327867Y-40243000D01*
X98346302Y-40371225D01*
X98400117Y-40489061D01*
X98400118Y-40489063D01*
X98484951Y-40586967D01*
X98593931Y-40657004D01*
X98718225Y-40693499D01*
X98718227Y-40693500D01*
X98718228Y-40693500D01*
X98847773Y-40693500D01*
X98847773Y-40693499D01*
X98972069Y-40657004D01*
X99081049Y-40586967D01*
X99165882Y-40489063D01*
X99219697Y-40371226D01*
X99219697Y-40371225D01*
X99220206Y-40370111D01*
X99265961Y-40317307D01*
X99333000Y-40297623D01*
X99400040Y-40317308D01*
X99445794Y-40370111D01*
X99446302Y-40371225D01*
X99446303Y-40371226D01*
X99500118Y-40489063D01*
X99584951Y-40586967D01*
X99693931Y-40657004D01*
X99818225Y-40693499D01*
X99818227Y-40693500D01*
X99818228Y-40693500D01*
X99947773Y-40693500D01*
X99947773Y-40693499D01*
X100072069Y-40657004D01*
X100181049Y-40586967D01*
X100265882Y-40489063D01*
X100319697Y-40371226D01*
X100338133Y-40243000D01*
X100319697Y-40114774D01*
X100265882Y-39996937D01*
X100181049Y-39899033D01*
X100072069Y-39828996D01*
X100072065Y-39828994D01*
X100072064Y-39828994D01*
X99947774Y-39792500D01*
X99947772Y-39792500D01*
X99818228Y-39792500D01*
X99818226Y-39792500D01*
X99693935Y-39828994D01*
X99693932Y-39828995D01*
X99693931Y-39828996D01*
X99642677Y-39861934D01*
X99584950Y-39899033D01*
X99500118Y-39996937D01*
X99500117Y-39996938D01*
X99445794Y-40115888D01*
X99400039Y-40168692D01*
X99332999Y-40188376D01*
X99265960Y-40168691D01*
X99220206Y-40115888D01*
X99165882Y-39996938D01*
X99165882Y-39996937D01*
X99081049Y-39899033D01*
X98972069Y-39828996D01*
X98972065Y-39828994D01*
X98972064Y-39828994D01*
X98847774Y-39792500D01*
X98847772Y-39792500D01*
X98718228Y-39792500D01*
X98718226Y-39792500D01*
X98593935Y-39828994D01*
X98593932Y-39828995D01*
X98593931Y-39828996D01*
X98542677Y-39861934D01*
X98484950Y-39899033D01*
X98400118Y-39996937D01*
X98400117Y-39996938D01*
X98346302Y-40114774D01*
X98327867Y-40243000D01*
X96383000Y-40243000D01*
X96383000Y-39073659D01*
X96391299Y-39045395D01*
X96388157Y-39038515D01*
X96625843Y-39038515D01*
X96625977Y-39038724D01*
X96629738Y-39056012D01*
X96646302Y-39171225D01*
X96666191Y-39214774D01*
X96700118Y-39289063D01*
X96784951Y-39386967D01*
X96893931Y-39457004D01*
X96942368Y-39471226D01*
X97018225Y-39493499D01*
X97018227Y-39493500D01*
X97018228Y-39493500D01*
X97147773Y-39493500D01*
X97147773Y-39493499D01*
X97272069Y-39457004D01*
X97381049Y-39386967D01*
X97465882Y-39289063D01*
X97519697Y-39171226D01*
X97538133Y-39043000D01*
X101527867Y-39043000D01*
X101546302Y-39171225D01*
X101566191Y-39214774D01*
X101600118Y-39289063D01*
X101684951Y-39386967D01*
X101793931Y-39457004D01*
X101842368Y-39471226D01*
X101918225Y-39493499D01*
X101918227Y-39493500D01*
X101918228Y-39493500D01*
X102047773Y-39493500D01*
X102047773Y-39493499D01*
X102172069Y-39457004D01*
X102281049Y-39386967D01*
X102319146Y-39343000D01*
X105427867Y-39343000D01*
X105446302Y-39471225D01*
X105456475Y-39493500D01*
X105500118Y-39589063D01*
X105584951Y-39686967D01*
X105693931Y-39757004D01*
X105818225Y-39793499D01*
X105818227Y-39793500D01*
X105818228Y-39793500D01*
X105947773Y-39793500D01*
X105947773Y-39793499D01*
X106072069Y-39757004D01*
X106181049Y-39686967D01*
X106265882Y-39589063D01*
X106319697Y-39471226D01*
X106338133Y-39343000D01*
X106319697Y-39214774D01*
X106265882Y-39096937D01*
X106181049Y-38999033D01*
X106072069Y-38928996D01*
X106072065Y-38928994D01*
X106072064Y-38928994D01*
X105947774Y-38892500D01*
X105947772Y-38892500D01*
X105818228Y-38892500D01*
X105818226Y-38892500D01*
X105693935Y-38928994D01*
X105693932Y-38928995D01*
X105693931Y-38928996D01*
X105644857Y-38960534D01*
X105584950Y-38999033D01*
X105500118Y-39096937D01*
X105500117Y-39096938D01*
X105446302Y-39214774D01*
X105427867Y-39343000D01*
X102319146Y-39343000D01*
X102365882Y-39289063D01*
X102419697Y-39171226D01*
X102438133Y-39043000D01*
X102419697Y-38914774D01*
X102386919Y-38843000D01*
X119627867Y-38843000D01*
X119646302Y-38971225D01*
X119679081Y-39043000D01*
X119700118Y-39089063D01*
X119784951Y-39186967D01*
X119893931Y-39257004D01*
X120003117Y-39289063D01*
X120018225Y-39293499D01*
X120018227Y-39293500D01*
X120018228Y-39293500D01*
X120147773Y-39293500D01*
X120147773Y-39293499D01*
X120272069Y-39257004D01*
X120381049Y-39186967D01*
X120465882Y-39089063D01*
X120519697Y-38971226D01*
X120538133Y-38843000D01*
X120519697Y-38714774D01*
X120465882Y-38596937D01*
X120381049Y-38499033D01*
X120272069Y-38428996D01*
X120272065Y-38428994D01*
X120272064Y-38428994D01*
X120147774Y-38392500D01*
X120147772Y-38392500D01*
X120018228Y-38392500D01*
X120018226Y-38392500D01*
X119893935Y-38428994D01*
X119893932Y-38428995D01*
X119893931Y-38428996D01*
X119842677Y-38461934D01*
X119784950Y-38499033D01*
X119700118Y-38596937D01*
X119700117Y-38596938D01*
X119646302Y-38714774D01*
X119627867Y-38843000D01*
X102386919Y-38843000D01*
X102365882Y-38796937D01*
X102281049Y-38699033D01*
X102172069Y-38628996D01*
X102172065Y-38628994D01*
X102172064Y-38628994D01*
X102047774Y-38592500D01*
X102047772Y-38592500D01*
X101918228Y-38592500D01*
X101918226Y-38592500D01*
X101793935Y-38628994D01*
X101793932Y-38628995D01*
X101793931Y-38628996D01*
X101742677Y-38661934D01*
X101684950Y-38699033D01*
X101600118Y-38796937D01*
X101600117Y-38796938D01*
X101546302Y-38914774D01*
X101527867Y-39043000D01*
X97538133Y-39043000D01*
X97519697Y-38914774D01*
X97465882Y-38796937D01*
X97381049Y-38699033D01*
X97272069Y-38628996D01*
X97272065Y-38628994D01*
X97272064Y-38628994D01*
X97147774Y-38592500D01*
X97147772Y-38592500D01*
X97018228Y-38592500D01*
X97018226Y-38592500D01*
X96893935Y-38628994D01*
X96893932Y-38628995D01*
X96893931Y-38628996D01*
X96842677Y-38661934D01*
X96784950Y-38699033D01*
X96700118Y-38796937D01*
X96700117Y-38796938D01*
X96646302Y-38914774D01*
X96629738Y-39029987D01*
X96625843Y-39038515D01*
X96388157Y-39038515D01*
X96384262Y-39029987D01*
X96383000Y-39012340D01*
X96383000Y-35743000D01*
X107427867Y-35743000D01*
X107446302Y-35871225D01*
X107500117Y-35989061D01*
X107500118Y-35989063D01*
X107584951Y-36086967D01*
X107693931Y-36157004D01*
X107818225Y-36193499D01*
X107818227Y-36193500D01*
X107818228Y-36193500D01*
X107947773Y-36193500D01*
X107947773Y-36193499D01*
X108072069Y-36157004D01*
X108181049Y-36086967D01*
X108265882Y-35989063D01*
X108319697Y-35871226D01*
X108338133Y-35743000D01*
X108319697Y-35614774D01*
X108265882Y-35496937D01*
X108181049Y-35399033D01*
X108072069Y-35328996D01*
X108072065Y-35328994D01*
X108072064Y-35328994D01*
X107947774Y-35292500D01*
X107947772Y-35292500D01*
X107818228Y-35292500D01*
X107818226Y-35292500D01*
X107693935Y-35328994D01*
X107693932Y-35328995D01*
X107693931Y-35328996D01*
X107642677Y-35361934D01*
X107584950Y-35399033D01*
X107500118Y-35496937D01*
X107500117Y-35496938D01*
X107446302Y-35614774D01*
X107427867Y-35743000D01*
X96383000Y-35743000D01*
X96383000Y-34725468D01*
X96402685Y-34658429D01*
X96455489Y-34612674D01*
X96456365Y-34612278D01*
X96610593Y-34543612D01*
X96611435Y-34543000D01*
X119727867Y-34543000D01*
X119746302Y-34671225D01*
X119791972Y-34771226D01*
X119800118Y-34789063D01*
X119884951Y-34886967D01*
X119993931Y-34957004D01*
X120118225Y-34993499D01*
X120118227Y-34993500D01*
X120118228Y-34993500D01*
X120247773Y-34993500D01*
X120247773Y-34993499D01*
X120372069Y-34957004D01*
X120481049Y-34886967D01*
X120565882Y-34789063D01*
X120619697Y-34671226D01*
X120623755Y-34643000D01*
X124027867Y-34643000D01*
X124046302Y-34771225D01*
X124054449Y-34789063D01*
X124100118Y-34889063D01*
X124184951Y-34986967D01*
X124293931Y-35057004D01*
X124418225Y-35093499D01*
X124418227Y-35093500D01*
X124418228Y-35093500D01*
X124547773Y-35093500D01*
X124547773Y-35093499D01*
X124672069Y-35057004D01*
X124781049Y-34986967D01*
X124865882Y-34889063D01*
X124919697Y-34771226D01*
X124938133Y-34643000D01*
X124919697Y-34514774D01*
X124865882Y-34396937D01*
X124781049Y-34299033D01*
X124672069Y-34228996D01*
X124672065Y-34228994D01*
X124672064Y-34228994D01*
X124547774Y-34192500D01*
X124547772Y-34192500D01*
X124418228Y-34192500D01*
X124418226Y-34192500D01*
X124293935Y-34228994D01*
X124293932Y-34228995D01*
X124293931Y-34228996D01*
X124242677Y-34261934D01*
X124184950Y-34299033D01*
X124100118Y-34396937D01*
X124100117Y-34396938D01*
X124046302Y-34514774D01*
X124027867Y-34643000D01*
X120623755Y-34643000D01*
X120638133Y-34543000D01*
X120619697Y-34414774D01*
X120565882Y-34296937D01*
X120481049Y-34199033D01*
X120372069Y-34128996D01*
X120372065Y-34128994D01*
X120372064Y-34128994D01*
X120247774Y-34092500D01*
X120247772Y-34092500D01*
X120118228Y-34092500D01*
X120118226Y-34092500D01*
X119993935Y-34128994D01*
X119993932Y-34128995D01*
X119993931Y-34128996D01*
X119959958Y-34150829D01*
X119884950Y-34199033D01*
X119800118Y-34296937D01*
X119800117Y-34296938D01*
X119746302Y-34414774D01*
X119727867Y-34543000D01*
X96611435Y-34543000D01*
X96755230Y-34438526D01*
X96776617Y-34414774D01*
X96792677Y-34396937D01*
X96874859Y-34305665D01*
X96964250Y-34150835D01*
X97019497Y-33980803D01*
X97038185Y-33803000D01*
X97019497Y-33625197D01*
X96964250Y-33455165D01*
X96874859Y-33300335D01*
X96828003Y-33248296D01*
X96755235Y-33167478D01*
X96755232Y-33167476D01*
X96755231Y-33167475D01*
X96755230Y-33167474D01*
X96610593Y-33062388D01*
X96610592Y-33062387D01*
X96456564Y-32993809D01*
X96403327Y-32948559D01*
X96383006Y-32881710D01*
X96383000Y-32880530D01*
X96383000Y-32667000D01*
X96402685Y-32599961D01*
X96455489Y-32554206D01*
X96507000Y-32543000D01*
X125259000Y-32543000D01*
X125326039Y-32562685D01*
G37*
%TD.AperFunction*%
%TD*%
%TA.AperFunction,Conductor*%
%TO.N,/HighCurrentComponents/7.5V_AftSwitch*%
G36*
X108156939Y-80220745D02*
G01*
X109783562Y-80541141D01*
X109791016Y-80546101D01*
X109793000Y-80552619D01*
X109793000Y-81533380D01*
X109789573Y-81541653D01*
X109783561Y-81544859D01*
X108156943Y-81865253D01*
X108148164Y-81863490D01*
X108143203Y-81856035D01*
X108142982Y-81853795D01*
X108142000Y-81043000D01*
X108142982Y-80232209D01*
X108146419Y-80223942D01*
X108154696Y-80220525D01*
X108156939Y-80220745D01*
G37*
%TD.AperFunction*%
%TD*%
%TA.AperFunction,Conductor*%
%TO.N,/HighCurrentComponents/7.5V_AftSwitch*%
G36*
X110677835Y-80222509D02*
G01*
X110682796Y-80229964D01*
X110683017Y-80232211D01*
X110684000Y-81043000D01*
X110684000Y-81043028D01*
X110683017Y-81853788D01*
X110679580Y-81862057D01*
X110671303Y-81865474D01*
X110669056Y-81865253D01*
X109042439Y-81544859D01*
X109034984Y-81539898D01*
X109033000Y-81533380D01*
X109033000Y-80552619D01*
X109036427Y-80544346D01*
X109042436Y-80541141D01*
X110669057Y-80220746D01*
X110677835Y-80222509D01*
G37*
%TD.AperFunction*%
%TD*%
%TA.AperFunction,Conductor*%
%TO.N,/HighCurrentComponents/7.5V_AftSwitch*%
G36*
X115187922Y-80467955D02*
G01*
X115188609Y-80468587D01*
X115757720Y-81036320D01*
X115763707Y-81042293D01*
X115763727Y-81042313D01*
X116337408Y-81617386D01*
X116340825Y-81625663D01*
X116337388Y-81633932D01*
X116336697Y-81634568D01*
X116030741Y-81894311D01*
X116028907Y-81895588D01*
X115769677Y-82041484D01*
X115768634Y-82042004D01*
X115527034Y-82147861D01*
X115527017Y-82147869D01*
X115266301Y-82294603D01*
X115266300Y-82294604D01*
X114958048Y-82556300D01*
X114949523Y-82559042D01*
X114942203Y-82555654D01*
X114250345Y-81863796D01*
X114246918Y-81855523D01*
X114249698Y-81847953D01*
X114511396Y-81539695D01*
X114658133Y-81278972D01*
X114764000Y-81037343D01*
X114764501Y-81036340D01*
X114910412Y-80777085D01*
X114911683Y-80775260D01*
X115171432Y-80469301D01*
X115179397Y-80465213D01*
X115187922Y-80467955D01*
G37*
%TD.AperFunction*%
%TD*%
%TA.AperFunction,Conductor*%
%TO.N,/HighCurrentComponents/7.5V_AftSwitch*%
G36*
X116353932Y-80468611D02*
G01*
X116354568Y-80469302D01*
X116614311Y-80775256D01*
X116615588Y-80777090D01*
X116761484Y-81036320D01*
X116762004Y-81037363D01*
X116867861Y-81278963D01*
X116867869Y-81278980D01*
X117014603Y-81539697D01*
X117014604Y-81539698D01*
X117276300Y-81847951D01*
X117279042Y-81856476D01*
X117275654Y-81863796D01*
X116583796Y-82555654D01*
X116575523Y-82559081D01*
X116567951Y-82556300D01*
X116259698Y-82294604D01*
X116259697Y-82294603D01*
X115998980Y-82147869D01*
X115998963Y-82147861D01*
X115757363Y-82042004D01*
X115756320Y-82041484D01*
X115497090Y-81895588D01*
X115495256Y-81894311D01*
X115189302Y-81634568D01*
X115185213Y-81626602D01*
X115187955Y-81618077D01*
X115188575Y-81617402D01*
X115762293Y-81042293D01*
X116337388Y-80468590D01*
X116345663Y-80465174D01*
X116353932Y-80468611D01*
G37*
%TD.AperFunction*%
%TD*%
%TA.AperFunction,Conductor*%
%TO.N,/HighCurrentComponents/7.5V_AftSwitch*%
G36*
X111272847Y-80469693D02*
G01*
X111274280Y-80471438D01*
X112197919Y-81848183D01*
X112199682Y-81856962D01*
X112196476Y-81862974D01*
X111502974Y-82556476D01*
X111494701Y-82559903D01*
X111488183Y-82557919D01*
X110111438Y-81634280D01*
X110106477Y-81626825D01*
X110108240Y-81618046D01*
X110109665Y-81616310D01*
X110682293Y-81042293D01*
X111256303Y-80469671D01*
X111264578Y-80466256D01*
X111272847Y-80469693D01*
G37*
%TD.AperFunction*%
%TD*%
%TA.AperFunction,Conductor*%
%TO.N,/HighCurrentComponents/7.5V_AftSwitch*%
G36*
X120267953Y-80468240D02*
G01*
X120269694Y-80469670D01*
X120843707Y-81042293D01*
X121416326Y-81616302D01*
X121419743Y-81624578D01*
X121416306Y-81632847D01*
X121414561Y-81634280D01*
X120037816Y-82557919D01*
X120029037Y-82559682D01*
X120023025Y-82556476D01*
X119329523Y-81862974D01*
X119326096Y-81854701D01*
X119328079Y-81848184D01*
X120251720Y-80471436D01*
X120259174Y-80466477D01*
X120267953Y-80468240D01*
G37*
%TD.AperFunction*%
%TD*%
M02*
