%TF.GenerationSoftware,KiCad,Pcbnew,8.0.7*%
%TF.CreationDate,2026-03-28T05:21:42-04:00*%
%TF.ProjectId,main,6d61696e-2e6b-4696-9361-645f70636258,rev?*%
%TF.SameCoordinates,Original*%
%TF.FileFunction,Soldermask,Bot*%
%TF.FilePolarity,Negative*%
%FSLAX46Y46*%
G04 Gerber Fmt 4.6, Leading zero omitted, Abs format (unit mm)*
G04 Created by KiCad (PCBNEW 8.0.7) date 2026-03-28 05:21:42*
%MOMM*%
%LPD*%
G01*
G04 APERTURE LIST*
G04 Aperture macros list*
%AMRoundRect*
0 Rectangle with rounded corners*
0 $1 Rounding radius*
0 $2 $3 $4 $5 $6 $7 $8 $9 X,Y pos of 4 corners*
0 Add a 4 corners polygon primitive as box body*
4,1,4,$2,$3,$4,$5,$6,$7,$8,$9,$2,$3,0*
0 Add four circle primitives for the rounded corners*
1,1,$1+$1,$2,$3*
1,1,$1+$1,$4,$5*
1,1,$1+$1,$6,$7*
1,1,$1+$1,$8,$9*
0 Add four rect primitives between the rounded corners*
20,1,$1+$1,$2,$3,$4,$5,0*
20,1,$1+$1,$4,$5,$6,$7,0*
20,1,$1+$1,$6,$7,$8,$9,0*
20,1,$1+$1,$8,$9,$2,$3,0*%
G04 Aperture macros list end*
%ADD10R,0.800000X0.350000*%
%ADD11R,0.350000X0.800000*%
%ADD12R,2.800000X2.800000*%
%ADD13C,1.400000*%
%ADD14C,1.650000*%
%ADD15R,1.650000X1.650000*%
%ADD16C,1.100000*%
%ADD17C,0.650000*%
%ADD18R,1.000000X0.900000*%
%ADD19R,0.550000X1.700000*%
%ADD20RoundRect,0.237500X-0.237500X0.250000X-0.237500X-0.250000X0.237500X-0.250000X0.237500X0.250000X0*%
%ADD21C,2.000000*%
%ADD22RoundRect,0.237500X0.250000X0.237500X-0.250000X0.237500X-0.250000X-0.237500X0.250000X-0.237500X0*%
%ADD23R,0.650000X1.500000*%
%ADD24RoundRect,0.050800X-0.137500X0.125000X-0.137500X-0.125000X0.137500X-0.125000X0.137500X0.125000X0*%
%ADD25RoundRect,0.050800X-0.125000X-0.137500X0.125000X-0.137500X0.125000X0.137500X-0.125000X0.137500X0*%
%ADD26RoundRect,0.237500X0.237500X-0.250000X0.237500X0.250000X-0.237500X0.250000X-0.237500X-0.250000X0*%
%ADD27R,0.350000X0.850000*%
%ADD28R,3.100000X2.400000*%
%ADD29RoundRect,0.250001X-0.462499X-0.849999X0.462499X-0.849999X0.462499X0.849999X-0.462499X0.849999X0*%
%ADD30RoundRect,0.237500X-0.250000X-0.237500X0.250000X-0.237500X0.250000X0.237500X-0.250000X0.237500X0*%
%ADD31RoundRect,0.250000X1.150000X-0.250000X1.150000X0.250000X-1.150000X0.250000X-1.150000X-0.250000X0*%
%ADD32RoundRect,0.150000X0.700000X-0.150000X0.700000X0.150000X-0.700000X0.150000X-0.700000X-0.150000X0*%
%ADD33R,0.800000X1.750000*%
%ADD34R,1.500000X1.500000*%
%ADD35R,1.300000X1.500000*%
%ADD36R,0.800000X1.400000*%
%ADD37R,1.000000X1.550000*%
%ADD38R,1.450000X1.000000*%
%ADD39R,0.800000X1.500000*%
%ADD40RoundRect,0.050800X0.495300X-0.152400X0.495300X0.152400X-0.495300X0.152400X-0.495300X-0.152400X0*%
%ADD41RoundRect,0.237500X0.287500X0.237500X-0.287500X0.237500X-0.287500X-0.237500X0.287500X-0.237500X0*%
%ADD42C,1.600000*%
%ADD43R,2.000000X2.000000*%
%ADD44R,0.250000X0.650000*%
%ADD45R,0.650000X0.250000*%
%ADD46RoundRect,0.250000X0.625000X-0.375000X0.625000X0.375000X-0.625000X0.375000X-0.625000X-0.375000X0*%
%ADD47C,0.800000*%
%ADD48C,5.000000*%
G04 APERTURE END LIST*
D10*
%TO.C,TPS62111RSAR1*%
X113533000Y-70318000D03*
X113533000Y-69668000D03*
X113533000Y-69018000D03*
X113533000Y-68368000D03*
D11*
X114558000Y-67343000D03*
X115208000Y-67343000D03*
X115858000Y-67343000D03*
X116508000Y-67343000D03*
D10*
X117533000Y-68368000D03*
X117533000Y-69018000D03*
X117533000Y-69668000D03*
X117533000Y-70318000D03*
D11*
X116508000Y-71343000D03*
X115858000Y-71343000D03*
X115208000Y-71343000D03*
X114558000Y-71343000D03*
D12*
X115533000Y-69343000D03*
%TD*%
D13*
%TO.C,TP1*%
X96183000Y-36343000D03*
X96183000Y-33803000D03*
%TD*%
%TO.C,TP2*%
X98783000Y-64493000D03*
X101323000Y-64493000D03*
%TD*%
D14*
%TO.C,ScrewTerminal2*%
X99223000Y-81043000D03*
D15*
X96683000Y-81043000D03*
D16*
X99223000Y-83583000D03*
X96683000Y-83583000D03*
%TD*%
D13*
%TO.C,TP3*%
X102383000Y-80193000D03*
X102383000Y-82733000D03*
%TD*%
D17*
%TO.C,USB_C_Receptacle_USB2.0_14P1*%
X89390000Y-61480000D03*
X89390000Y-55700000D03*
%TD*%
D15*
%TO.C,ScrewTerminal1*%
X105603000Y-81043000D03*
D14*
X108143000Y-81043000D03*
X110683000Y-81043000D03*
X113223000Y-81043000D03*
X115763000Y-81043000D03*
X118303000Y-81043000D03*
X120843000Y-81043000D03*
X123383000Y-81043000D03*
%TD*%
D18*
%TO.C,KMR241GLFS1*%
X123083000Y-38843000D03*
X121483000Y-38843000D03*
X121483000Y-34743000D03*
X123083000Y-34743000D03*
D19*
X123708000Y-36793000D03*
%TD*%
D20*
%TO.C,C35*%
X88083000Y-59530500D03*
X88083000Y-61355500D03*
%TD*%
D21*
%TO.C,FID2*%
X92383000Y-35793000D03*
%TD*%
D22*
%TO.C,R15*%
X98470500Y-47880000D03*
X100295500Y-47880000D03*
%TD*%
D21*
%TO.C,FID6*%
X92383000Y-81293000D03*
%TD*%
D23*
%TO.C,APS6404L-SQH-SN1*%
X119913000Y-43093000D03*
X121183000Y-43093000D03*
X122453000Y-43093000D03*
X123723000Y-43093000D03*
X123723000Y-48493000D03*
X122453000Y-48493000D03*
X121183000Y-48493000D03*
X119913000Y-48493000D03*
%TD*%
D24*
%TO.C,BMP1*%
X88383000Y-56293000D03*
X88383000Y-56793000D03*
D25*
X88133000Y-57305500D03*
X87633000Y-57305500D03*
X87133000Y-57305500D03*
D24*
X86883000Y-56793000D03*
X86883000Y-56293000D03*
D25*
X87133000Y-55780500D03*
X87633000Y-55780500D03*
X88133000Y-55780500D03*
%TD*%
D20*
%TO.C,C5*%
X92083000Y-47455500D03*
X92083000Y-45630500D03*
%TD*%
D26*
%TO.C,R13*%
X125483000Y-65630500D03*
X125483000Y-67455500D03*
%TD*%
D27*
%TO.C,W25Q64JVXGIM_TR1*%
X88533000Y-49443000D03*
X87733000Y-49443000D03*
X86933000Y-49443000D03*
X86133000Y-49443000D03*
X86133000Y-45543000D03*
X86933000Y-45543000D03*
X87733000Y-45543000D03*
X88533000Y-45543000D03*
D28*
X87333000Y-47493000D03*
%TD*%
D22*
%TO.C,R31*%
X122970500Y-78543000D03*
X124795500Y-78543000D03*
%TD*%
D29*
%TO.C,L1*%
X115433000Y-73693000D03*
X117758000Y-73693000D03*
%TD*%
D22*
%TO.C,R6*%
X110783000Y-64343000D03*
X112608000Y-64343000D03*
%TD*%
D21*
%TO.C,FID7*%
X127383000Y-35793000D03*
%TD*%
D30*
%TO.C,R22*%
X114295500Y-83543000D03*
X112470500Y-83543000D03*
%TD*%
D20*
%TO.C,R8*%
X90583000Y-56155500D03*
X90583000Y-54330500D03*
%TD*%
D22*
%TO.C,R27*%
X117720500Y-78543000D03*
X119545500Y-78543000D03*
%TD*%
D20*
%TO.C,C19*%
X107783000Y-66068000D03*
X107783000Y-64243000D03*
%TD*%
%TO.C,C8*%
X100483000Y-55343000D03*
X100483000Y-57168000D03*
%TD*%
%TO.C,C18*%
X108883000Y-52868000D03*
X108883000Y-51043000D03*
%TD*%
%TO.C,C12*%
X118783000Y-65768000D03*
X118783000Y-63943000D03*
%TD*%
D31*
%TO.C,SERVO3*%
X134860000Y-51110000D03*
X134860000Y-57310000D03*
D32*
X131510000Y-52960000D03*
X131510000Y-54210000D03*
X131510000Y-55460000D03*
%TD*%
D26*
%TO.C,C27*%
X119936000Y-55768000D03*
X119936000Y-53943000D03*
%TD*%
D30*
%TO.C,R30*%
X124795500Y-83543000D03*
X122970500Y-83543000D03*
%TD*%
D33*
%TO.C,DM3D-SF1*%
X113058000Y-34130500D03*
X111958000Y-34130500D03*
X110858000Y-34130500D03*
X109758000Y-34130500D03*
X108658000Y-34130500D03*
X107558000Y-34130500D03*
X106458000Y-34130500D03*
X105358000Y-34130500D03*
D34*
X115508000Y-34255500D03*
D35*
X104158000Y-34255500D03*
D36*
X115858000Y-42505500D03*
D37*
X115408000Y-44930500D03*
D38*
X104233000Y-43355500D03*
D39*
X103908000Y-41855500D03*
%TD*%
D31*
%TO.C,SERVO1*%
X134860000Y-67610000D03*
X134860000Y-73810000D03*
D32*
X131510000Y-69460000D03*
X131510000Y-70710000D03*
X131510000Y-71960000D03*
%TD*%
D20*
%TO.C,C13*%
X102483000Y-57168000D03*
X102483000Y-55343000D03*
%TD*%
D26*
%TO.C,R4*%
X123583000Y-73855500D03*
X123583000Y-72030500D03*
%TD*%
D31*
%TO.C,SERVO2*%
X134860000Y-59360000D03*
X134860000Y-65560000D03*
D32*
X131510000Y-61210000D03*
X131510000Y-62460000D03*
X131510000Y-63710000D03*
%TD*%
D22*
%TO.C,R17*%
X98470500Y-41206000D03*
X100295500Y-41206000D03*
%TD*%
D40*
%TO.C,INA260*%
X91640200Y-72318000D03*
X91640200Y-71668000D03*
X91640200Y-71018000D03*
X91640200Y-70368000D03*
X91640200Y-69718000D03*
X91640200Y-69068000D03*
X91640200Y-68418000D03*
X91640200Y-67768000D03*
X97475800Y-67768000D03*
X97475800Y-68418000D03*
X97475800Y-69068000D03*
X97475800Y-69718000D03*
X97475800Y-70368000D03*
X97475800Y-71018000D03*
X97475800Y-71668000D03*
X97475800Y-72318000D03*
%TD*%
D26*
%TO.C,C28*%
X122483000Y-55768000D03*
X122483000Y-53943000D03*
%TD*%
D22*
%TO.C,R23*%
X112470500Y-78543000D03*
X114295500Y-78543000D03*
%TD*%
D20*
%TO.C,C14*%
X106623000Y-51043500D03*
X106623000Y-52868500D03*
%TD*%
D26*
%TO.C,C7*%
X117083000Y-63368000D03*
X117083000Y-61543000D03*
%TD*%
D41*
%TO.C,D1*%
X123420500Y-68243000D03*
X121670500Y-68243000D03*
%TD*%
D26*
%TO.C,FB2*%
X101933000Y-52918000D03*
X101933000Y-51093000D03*
%TD*%
D42*
%TO.C,C41*%
X106905475Y-76267615D03*
X107760525Y-73918383D03*
%TD*%
D20*
%TO.C,C1*%
X110583000Y-68930500D03*
X110583000Y-70755500D03*
%TD*%
D30*
%TO.C,R26*%
X119545500Y-83543000D03*
X117720500Y-83543000D03*
%TD*%
D20*
%TO.C,C34*%
X85983000Y-59530500D03*
X85983000Y-61355500D03*
%TD*%
D43*
%TO.C,MKL02Z32VFG1*%
X123733000Y-62693000D03*
D44*
X124483000Y-61143000D03*
X123983000Y-61143000D03*
X123483000Y-61143000D03*
X122983000Y-61143000D03*
D45*
X122183000Y-61943000D03*
X122183000Y-62443000D03*
X122183000Y-62943000D03*
X122183000Y-63443000D03*
D44*
X122983000Y-64243000D03*
X123483000Y-64243000D03*
X123983000Y-64243000D03*
X124483000Y-64243000D03*
D45*
X125283000Y-63443000D03*
X125283000Y-62943000D03*
X125283000Y-62443000D03*
X125283000Y-61943000D03*
%TD*%
D31*
%TO.C,SERVO4*%
X134860000Y-42860000D03*
X134860000Y-49060000D03*
D32*
X131510000Y-44710000D03*
X131510000Y-45960000D03*
X131510000Y-47210000D03*
%TD*%
D30*
%TO.C,R3*%
X121545500Y-71743000D03*
X119720500Y-71743000D03*
%TD*%
D26*
%TO.C,C26*%
X117733000Y-53193000D03*
X117733000Y-55018000D03*
%TD*%
%TO.C,C25*%
X114983000Y-54968000D03*
X114983000Y-53143000D03*
%TD*%
D30*
%TO.C,R18*%
X100295500Y-43543000D03*
X98470500Y-43543000D03*
%TD*%
D20*
%TO.C,C11*%
X104353000Y-51130500D03*
X104353000Y-52955500D03*
%TD*%
D22*
%TO.C,R14*%
X98470500Y-45630000D03*
X100295500Y-45630000D03*
%TD*%
D46*
%TO.C,F1*%
X99183000Y-78243000D03*
X99183000Y-75443000D03*
%TD*%
D30*
%TO.C,C3*%
X114670500Y-65143000D03*
X116495500Y-65143000D03*
%TD*%
D20*
%TO.C,C40*%
X100883000Y-67930500D03*
X100883000Y-69755500D03*
%TD*%
%TO.C,C17*%
X104683000Y-57168000D03*
X104683000Y-55343000D03*
%TD*%
D30*
%TO.C,R16*%
X100295500Y-39043000D03*
X98470500Y-39043000D03*
%TD*%
D22*
%TO.C,C2*%
X123458000Y-70093000D03*
X121633000Y-70093000D03*
%TD*%
D20*
%TO.C,C6*%
X98483000Y-55343000D03*
X98483000Y-57168000D03*
%TD*%
D21*
%TO.C,FID4*%
X127383000Y-81293000D03*
%TD*%
D47*
%TO.C,REF\u002A\u002A*%
X126955000Y-77490000D03*
X127504175Y-76164175D03*
X127504175Y-78815825D03*
X128830000Y-75615000D03*
D48*
X128830000Y-77490000D03*
D47*
X128830000Y-79365000D03*
X130155825Y-76164175D03*
X130155825Y-78815825D03*
X130705000Y-77490000D03*
%TD*%
%TO.C,REF\u002A\u002A*%
X89061000Y-39596000D03*
X89610175Y-38270175D03*
X89610175Y-40921825D03*
X90936000Y-37721000D03*
D48*
X90936000Y-39596000D03*
D47*
X90936000Y-41471000D03*
X92261825Y-38270175D03*
X92261825Y-40921825D03*
X92811000Y-39596000D03*
%TD*%
%TO.C,REF\u002A\u002A*%
X126955000Y-39596000D03*
X127504175Y-38270175D03*
X127504175Y-40921825D03*
X128830000Y-37721000D03*
D48*
X128830000Y-39596000D03*
D47*
X128830000Y-41471000D03*
X130155825Y-38270175D03*
X130155825Y-40921825D03*
X130705000Y-39596000D03*
%TD*%
%TO.C,REF\u002A\u002A*%
X89082175Y-77493000D03*
X89631350Y-76167175D03*
X89631350Y-78818825D03*
X90957175Y-75618000D03*
D48*
X90957175Y-77493000D03*
D47*
X90957175Y-79368000D03*
X92283000Y-76167175D03*
X92283000Y-78818825D03*
X92832175Y-77493000D03*
%TD*%
M02*
