%TF.GenerationSoftware,KiCad,Pcbnew,8.0.7*%
%TF.CreationDate,2026-03-28T05:21:42-04:00*%
%TF.ProjectId,main,6d61696e-2e6b-4696-9361-645f70636258,rev?*%
%TF.SameCoordinates,Original*%
%TF.FileFunction,Copper,L1,Top*%
%TF.FilePolarity,Positive*%
%FSLAX46Y46*%
G04 Gerber Fmt 4.6, Leading zero omitted, Abs format (unit mm)*
G04 Created by KiCad (PCBNEW 8.0.7) date 2026-03-28 05:21:42*
%MOMM*%
%LPD*%
G01*
G04 APERTURE LIST*
G04 Aperture macros list*
%AMRoundRect*
0 Rectangle with rounded corners*
0 $1 Rounding radius*
0 $2 $3 $4 $5 $6 $7 $8 $9 X,Y pos of 4 corners*
0 Add a 4 corners polygon primitive as box body*
4,1,4,$2,$3,$4,$5,$6,$7,$8,$9,$2,$3,0*
0 Add four circle primitives for the rounded corners*
1,1,$1+$1,$2,$3*
1,1,$1+$1,$4,$5*
1,1,$1+$1,$6,$7*
1,1,$1+$1,$8,$9*
0 Add four rect primitives between the rounded corners*
20,1,$1+$1,$2,$3,$4,$5,0*
20,1,$1+$1,$4,$5,$6,$7,0*
20,1,$1+$1,$6,$7,$8,$9,0*
20,1,$1+$1,$8,$9,$2,$3,0*%
G04 Aperture macros list end*
%TA.AperFunction,SMDPad,CuDef*%
%ADD10RoundRect,0.237500X-0.287500X-0.237500X0.287500X-0.237500X0.287500X0.237500X-0.287500X0.237500X0*%
%TD*%
%TA.AperFunction,SMDPad,CuDef*%
%ADD11R,0.750000X0.700000*%
%TD*%
%TA.AperFunction,SMDPad,CuDef*%
%ADD12C,1.000000*%
%TD*%
%TA.AperFunction,ComponentPad*%
%ADD13C,1.400000*%
%TD*%
%TA.AperFunction,SMDPad,CuDef*%
%ADD14RoundRect,0.237500X0.250000X0.237500X-0.250000X0.237500X-0.250000X-0.237500X0.250000X-0.237500X0*%
%TD*%
%TA.AperFunction,SMDPad,CuDef*%
%ADD15RoundRect,0.237500X0.237500X-0.250000X0.237500X0.250000X-0.237500X0.250000X-0.237500X-0.250000X0*%
%TD*%
%TA.AperFunction,SMDPad,CuDef*%
%ADD16RoundRect,0.237500X0.287500X0.237500X-0.287500X0.237500X-0.287500X-0.237500X0.287500X-0.237500X0*%
%TD*%
%TA.AperFunction,SMDPad,CuDef*%
%ADD17R,1.050000X1.100000*%
%TD*%
%TA.AperFunction,SMDPad,CuDef*%
%ADD18RoundRect,0.237500X-0.250000X-0.237500X0.250000X-0.237500X0.250000X0.237500X-0.250000X0.237500X0*%
%TD*%
%TA.AperFunction,SMDPad,CuDef*%
%ADD19R,1.000000X1.050000*%
%TD*%
%TA.AperFunction,SMDPad,CuDef*%
%ADD20R,1.050000X2.200000*%
%TD*%
%TA.AperFunction,SMDPad,CuDef*%
%ADD21RoundRect,0.250000X1.150000X-0.250000X1.150000X0.250000X-1.150000X0.250000X-1.150000X-0.250000X0*%
%TD*%
%TA.AperFunction,SMDPad,CuDef*%
%ADD22RoundRect,0.150000X0.700000X-0.150000X0.700000X0.150000X-0.700000X0.150000X-0.700000X-0.150000X0*%
%TD*%
%TA.AperFunction,SMDPad,CuDef*%
%ADD23RoundRect,0.250000X-0.275000X-0.350000X0.275000X-0.350000X0.275000X0.350000X-0.275000X0.350000X0*%
%TD*%
%TA.AperFunction,SMDPad,CuDef*%
%ADD24RoundRect,0.237500X-0.237500X0.250000X-0.237500X-0.250000X0.237500X-0.250000X0.237500X0.250000X0*%
%TD*%
%TA.AperFunction,SMDPad,CuDef*%
%ADD25RoundRect,0.250000X-0.350000X0.275000X-0.350000X-0.275000X0.350000X-0.275000X0.350000X0.275000X0*%
%TD*%
%TA.AperFunction,ComponentPad*%
%ADD26C,1.650000*%
%TD*%
%TA.AperFunction,ComponentPad*%
%ADD27R,1.650000X1.650000*%
%TD*%
%TA.AperFunction,SMDPad,CuDef*%
%ADD28C,0.394000*%
%TD*%
%TA.AperFunction,SMDPad,CuDef*%
%ADD29RoundRect,0.150000X-0.150000X0.587500X-0.150000X-0.587500X0.150000X-0.587500X0.150000X0.587500X0*%
%TD*%
%TA.AperFunction,SMDPad,CuDef*%
%ADD30R,0.675000X0.250000*%
%TD*%
%TA.AperFunction,SMDPad,CuDef*%
%ADD31R,0.250000X0.575000*%
%TD*%
%TA.AperFunction,SMDPad,CuDef*%
%ADD32R,1.100000X1.050000*%
%TD*%
%TA.AperFunction,SMDPad,CuDef*%
%ADD33R,1.145000X0.550000*%
%TD*%
%TA.AperFunction,SMDPad,CuDef*%
%ADD34R,0.550000X1.145000*%
%TD*%
%TA.AperFunction,SMDPad,CuDef*%
%ADD35RoundRect,0.125000X-0.000010X-0.000010X0.000010X-0.000010X0.000010X0.000010X-0.000010X0.000010X0*%
%TD*%
%TA.AperFunction,SMDPad,CuDef*%
%ADD36RoundRect,0.250000X-0.750000X0.840000X-0.750000X-0.840000X0.750000X-0.840000X0.750000X0.840000X0*%
%TD*%
%TA.AperFunction,SMDPad,CuDef*%
%ADD37RoundRect,0.150000X-0.425000X0.150000X-0.425000X-0.150000X0.425000X-0.150000X0.425000X0.150000X0*%
%TD*%
%TA.AperFunction,SMDPad,CuDef*%
%ADD38RoundRect,0.075000X-0.500000X0.075000X-0.500000X-0.075000X0.500000X-0.075000X0.500000X0.075000X0*%
%TD*%
%TA.AperFunction,SMDPad,CuDef*%
%ADD39R,0.320000X0.510000*%
%TD*%
%TA.AperFunction,ComponentPad*%
%ADD40C,1.600000*%
%TD*%
%TA.AperFunction,ComponentPad*%
%ADD41C,0.800000*%
%TD*%
%TA.AperFunction,ComponentPad*%
%ADD42C,5.000000*%
%TD*%
%TA.AperFunction,ViaPad*%
%ADD43C,0.600000*%
%TD*%
%TA.AperFunction,ViaPad*%
%ADD44C,0.450000*%
%TD*%
%TA.AperFunction,ViaPad*%
%ADD45C,0.800000*%
%TD*%
%TA.AperFunction,ViaPad*%
%ADD46C,1.000000*%
%TD*%
%TA.AperFunction,ViaPad*%
%ADD47C,0.500000*%
%TD*%
%TA.AperFunction,Conductor*%
%ADD48C,0.155000*%
%TD*%
%TA.AperFunction,Conductor*%
%ADD49C,0.250000*%
%TD*%
%TA.AperFunction,Conductor*%
%ADD50C,0.300000*%
%TD*%
%TA.AperFunction,Conductor*%
%ADD51C,0.200000*%
%TD*%
%TA.AperFunction,Conductor*%
%ADD52C,0.500000*%
%TD*%
G04 APERTURE END LIST*
D10*
%TO.P,D2,1,K*%
%TO.N,Net-(D2-K)*%
X126508000Y-43393000D03*
%TO.P,D2,2,A*%
%TO.N,+3.3V*%
X128258000Y-43393000D03*
%TD*%
D11*
%TO.P,Y5,1,XTAL_1*%
%TO.N,/P11*%
X109283000Y-65743000D03*
%TO.P,Y5,2,NC_1*%
%TO.N,/N11*%
X107933000Y-65743000D03*
%TO.P,Y5,3,XTAL_2*%
%TO.N,GNDREF*%
X107933000Y-66743000D03*
%TO.P,Y5,4,NC_2*%
X109283000Y-66743000D03*
%TD*%
D12*
%TO.P,FID5,*%
%TO.N,*%
X127383000Y-35793000D03*
%TD*%
D13*
%TO.P,TP1,1,1*%
%TO.N,+3.3V*%
X96183000Y-36343000D03*
%TO.P,TP1,2,2*%
%TO.N,GNDREF*%
X96183000Y-33803000D03*
%TD*%
D14*
%TO.P,C15,1*%
%TO.N,Net-(MIMXRT1062DVL6B1-VDD_HIGH_CAP)*%
X104998500Y-49743000D03*
%TO.P,C15,2*%
%TO.N,GNDREF*%
X103173500Y-49743000D03*
%TD*%
D15*
%TO.P,C24,2*%
%TO.N,/P11*%
X111583000Y-65543000D03*
%TO.P,C24,1*%
%TO.N,GNDREF*%
X111583000Y-67368000D03*
%TD*%
D14*
%TO.P,C4,2*%
%TO.N,GNDREF*%
X115870500Y-48043000D03*
%TO.P,C4,1*%
%TO.N,+3.3V*%
X117695500Y-48043000D03*
%TD*%
D16*
%TO.P,D5,1,K*%
%TO.N,GNDREF*%
X128258000Y-47893000D03*
%TO.P,D5,2,A*%
%TO.N,Net-(D5-A)*%
X126508000Y-47893000D03*
%TD*%
D13*
%TO.P,TP2,1,1*%
%TO.N,/Reserve_TX*%
X98783000Y-64493000D03*
%TO.P,TP2,2,2*%
%TO.N,/Reserve_RX*%
X101323000Y-64493000D03*
%TD*%
D14*
%TO.P,C30,1,1*%
%TO.N,+3.3V*%
X100795500Y-37043000D03*
%TO.P,C30,2,2*%
%TO.N,GNDREF*%
X98970500Y-37043000D03*
%TD*%
D17*
%TO.P,Y1,1,1*%
%TO.N,GNDREF*%
X103107000Y-60043000D03*
%TO.P,Y1,2,2*%
%TO.N,Net-(MIMXRT1062DVL6B1-RTC_XTALI)*%
X104957000Y-60043000D03*
%TD*%
D18*
%TO.P,C39,1,1*%
%TO.N,+3.3V*%
X129270500Y-68543000D03*
%TO.P,C39,2,2*%
%TO.N,GNDREF*%
X131095500Y-68543000D03*
%TD*%
D10*
%TO.P,D6,1,K*%
%TO.N,GNDREF*%
X96383000Y-71193000D03*
%TO.P,D6,2,A*%
%TO.N,Net-(D6-A)*%
X98133000Y-71193000D03*
%TD*%
D19*
%TO.P,CONMHF1-SMD-G-T1,1,SIGNAL*%
%TO.N,Net-(CONMHF1-SMD-G-T1-SIGNAL)*%
X132983000Y-54193000D03*
D20*
%TO.P,CONMHF1-SMD-G-T1,2,GND_1*%
%TO.N,GNDREF*%
X134458000Y-52668000D03*
D19*
%TO.P,CONMHF1-SMD-G-T1,3,GND_2*%
X132983000Y-51143000D03*
D20*
%TO.P,CONMHF1-SMD-G-T1,4,GND_3*%
X131508000Y-52668000D03*
%TD*%
D14*
%TO.P,R25,2*%
%TO.N,Net-(Q2-D)*%
X118720500Y-76043000D03*
%TO.P,R25,1*%
%TO.N,/HighCurrentComponents/Pyro2_HighSide*%
X120545500Y-76043000D03*
%TD*%
%TO.P,C9,2*%
%TO.N,Net-(C10-Pad1)*%
X103173500Y-62593000D03*
%TO.P,C9,1*%
%TO.N,Net-(MIMXRT1062DVL6B1-RTC_XTALI)*%
X104998500Y-62593000D03*
%TD*%
%TO.P,C20,2*%
%TO.N,GNDREF*%
X103173500Y-51840000D03*
%TO.P,C20,1*%
%TO.N,Net-(MIMXRT1062DVL6B1-VDD_HIGH_CAP)*%
X104998500Y-51840000D03*
%TD*%
D12*
%TO.P,FID8,*%
%TO.N,*%
X127383000Y-81293000D03*
%TD*%
D14*
%TO.P,C22,2*%
%TO.N,Net-(MIMXRT1062DVL6B1-VDD_SNVS_CAP)*%
X113970500Y-66793000D03*
%TO.P,C22,1*%
%TO.N,GNDREF*%
X115795500Y-66793000D03*
%TD*%
D21*
%TO.P,S4B-PH-K-S_LF__SN_2,MP*%
%TO.N,N/C*%
X85833000Y-66293000D03*
X85833000Y-73743000D03*
D22*
%TO.P,S4B-PH-K-S_LF__SN_2,4,4*%
%TO.N,/Cam_TX*%
X89183000Y-68143000D03*
%TO.P,S4B-PH-K-S_LF__SN_2,3,3*%
%TO.N,/Cam_RX*%
X89183000Y-69393000D03*
%TO.P,S4B-PH-K-S_LF__SN_2,2,2*%
%TO.N,GNDREF*%
X89183000Y-70643000D03*
%TO.P,S4B-PH-K-S_LF__SN_2,1,1*%
%TO.N,+7.5V*%
X89183000Y-71893000D03*
%TD*%
D14*
%TO.P,C29,1,1*%
%TO.N,+3.3V*%
X100633000Y-39293000D03*
%TO.P,C29,2,2*%
%TO.N,GNDREF*%
X98808000Y-39293000D03*
%TD*%
D10*
%TO.P,D3,1,K*%
%TO.N,GNDREF*%
X96445500Y-68993000D03*
%TO.P,D3,2,A*%
%TO.N,Net-(D3-A)*%
X98195500Y-68993000D03*
%TD*%
D23*
%TO.P,L2,1,1*%
%TO.N,Net-(MIMXRT1062DVL6B1-DCDC_LP_1)*%
X109533000Y-48743000D03*
%TO.P,L2,2,2*%
%TO.N,/M1M2*%
X111833000Y-48743000D03*
%TD*%
D18*
%TO.P,R20,2*%
%TO.N,/PyroCH1_2*%
X115795500Y-69043000D03*
%TO.P,R20,1*%
%TO.N,GNDREF*%
X113970500Y-69043000D03*
%TD*%
D24*
%TO.P,C23,2*%
%TO.N,GNDREF*%
X105533000Y-67455500D03*
%TO.P,C23,1*%
%TO.N,/N11*%
X105533000Y-65630500D03*
%TD*%
D18*
%TO.P,C38,1,1*%
%TO.N,Net-(U-BLOX_ZOE_M8Q-0-1-V_CORE)*%
X127251300Y-63823800D03*
%TO.P,C38,2,2*%
%TO.N,GNDREF*%
X129076300Y-63823800D03*
%TD*%
D25*
%TO.P,L3,1,1*%
%TO.N,Net-(U-BLOX_ZOE_M8Q-0-1-V_CORE)*%
X127483000Y-65493000D03*
%TO.P,L3,2,2*%
%TO.N,Net-(U-BLOX_ZOE_M8Q-0-1-V_DCDC_OUT)*%
X127483000Y-67793000D03*
%TD*%
D18*
%TO.P,C32,1,1*%
%TO.N,Net-(BNO1-XIN32)*%
X104058000Y-40943000D03*
%TO.P,C32,2,2*%
%TO.N,GNDREF*%
X105883000Y-40943000D03*
%TD*%
D14*
%TO.P,R11,2*%
%TO.N,Net-(D6-A)*%
X100658000Y-71243000D03*
%TO.P,R11,1*%
%TO.N,Net-(MIMXRT1062DVL6B1-GPIO_AD_B1_14)*%
X102483000Y-71243000D03*
%TD*%
D15*
%TO.P,C37,1,1*%
%TO.N,+3.3V*%
X118037000Y-46155500D03*
%TO.P,C37,2,2*%
%TO.N,GNDREF*%
X118037000Y-44330500D03*
%TD*%
D26*
%TO.P,ScrewTerminal2,2,Pin_2*%
%TO.N,Net-(ScrewTerminal2-Pin_2)*%
X99223000Y-81043000D03*
D27*
%TO.P,ScrewTerminal2,1,Pin_1*%
%TO.N,GNDREF*%
X96683000Y-81043000D03*
%TD*%
D24*
%TO.P,C31,1,1*%
%TO.N,GNDREF*%
X95383000Y-41330500D03*
%TO.P,C31,2,2*%
%TO.N,/IMU BNO085/CAP*%
X95383000Y-43155500D03*
%TD*%
D18*
%TO.P,FB1,1*%
%TO.N,Net-(FB1-Pad1)*%
X93758000Y-54843000D03*
%TO.P,FB1,2*%
%TO.N,Net-(MIMXRT1062DVL6B1-USB_OTG1_VBUS)*%
X95583000Y-54843000D03*
%TD*%
%TO.P,R24,2*%
%TO.N,/PyroCH2_3*%
X120545500Y-69043000D03*
%TO.P,R24,1*%
%TO.N,GNDREF*%
X118720500Y-69043000D03*
%TD*%
D21*
%TO.P,S4B-PH-K-S_LF__SN_1,MP*%
%TO.N,N/C*%
X85733000Y-43393000D03*
X85733000Y-50843000D03*
D22*
%TO.P,S4B-PH-K-S_LF__SN_1,4,4*%
%TO.N,/Xbee_RX*%
X89083000Y-45243000D03*
%TO.P,S4B-PH-K-S_LF__SN_1,3,3*%
%TO.N,/Xbee_TX*%
X89083000Y-46493000D03*
%TO.P,S4B-PH-K-S_LF__SN_1,2,2*%
%TO.N,GNDREF*%
X89083000Y-47743000D03*
%TO.P,S4B-PH-K-S_LF__SN_1,1,1*%
%TO.N,+3.3V*%
X89083000Y-48993000D03*
%TD*%
D12*
%TO.P,FID3,*%
%TO.N,*%
X92383000Y-81293000D03*
%TD*%
D24*
%TO.P,C36,1,1*%
%TO.N,+3.3V*%
X118037000Y-40280500D03*
%TO.P,C36,2,2*%
%TO.N,GNDREF*%
X118037000Y-42105500D03*
%TD*%
D28*
%TO.P,MIMXRT1062DVL6B1,A1,VSS_1*%
%TO.N,GNDREF*%
X118783000Y-52143000D03*
%TO.P,MIMXRT1062DVL6B1,A2,GPIO_EMC_27*%
%TO.N,/EMC_27*%
X118783000Y-52943000D03*
%TO.P,MIMXRT1062DVL6B1,A3,GPIO_EMC_20*%
%TO.N,unconnected-(MIMXRT1062DVL6B1-GPIO_EMC_20-PadA3)*%
X118783000Y-53743000D03*
%TO.P,MIMXRT1062DVL6B1,A4,GPIO_EMC_17*%
%TO.N,unconnected-(MIMXRT1062DVL6B1-GPIO_EMC_17-PadA4)*%
X118783000Y-54543000D03*
%TO.P,MIMXRT1062DVL6B1,A5,GPIO_EMC_16*%
%TO.N,unconnected-(MIMXRT1062DVL6B1-GPIO_EMC_16-PadA5)*%
X118783000Y-55343000D03*
%TO.P,MIMXRT1062DVL6B1,A6,GPIO_EMC_13*%
%TO.N,unconnected-(MIMXRT1062DVL6B1-GPIO_EMC_13-PadA6)*%
X118783000Y-56143000D03*
%TO.P,MIMXRT1062DVL6B1,A7,GPIO_EMC_40*%
%TO.N,unconnected-(MIMXRT1062DVL6B1-GPIO_EMC_40-PadA7)*%
X118783000Y-56943000D03*
%TO.P,MIMXRT1062DVL6B1,A8,GPIO_B0_06*%
%TO.N,unconnected-(MIMXRT1062DVL6B1-GPIO_B0_06-PadA8)*%
X118783000Y-57743000D03*
%TO.P,MIMXRT1062DVL6B1,A9,GPIO_B0_07*%
%TO.N,unconnected-(MIMXRT1062DVL6B1-GPIO_B0_07-PadA9)*%
X118783000Y-58543000D03*
%TO.P,MIMXRT1062DVL6B1,A10,GPIO_B0_11*%
%TO.N,/Servo4_PWM*%
X118783000Y-59343000D03*
%TO.P,MIMXRT1062DVL6B1,A11,GPIO_B1_00*%
%TO.N,/Servo2_PWM*%
X118783000Y-60143000D03*
%TO.P,MIMXRT1062DVL6B1,A12,GPIO_B1_08*%
%TO.N,unconnected-(MIMXRT1062DVL6B1-GPIO_B1_08-PadA12)*%
X118783000Y-60943000D03*
%TO.P,MIMXRT1062DVL6B1,A13,GPIO_B1_09*%
%TO.N,unconnected-(MIMXRT1062DVL6B1-GPIO_B1_09-PadA13)*%
X118783000Y-61743000D03*
%TO.P,MIMXRT1062DVL6B1,A14,VSS_2*%
%TO.N,GNDREF*%
X118783000Y-62543000D03*
%TO.P,MIMXRT1062DVL6B1,B1,GPIO_EMC_15*%
%TO.N,unconnected-(MIMXRT1062DVL6B1-GPIO_EMC_15-PadB1)*%
X117983000Y-52143000D03*
%TO.P,MIMXRT1062DVL6B1,B2,GPIO_EMC_18*%
%TO.N,unconnected-(MIMXRT1062DVL6B1-GPIO_EMC_18-PadB2)*%
X117983000Y-52943000D03*
%TO.P,MIMXRT1062DVL6B1,B3,GPIO_EMC_26*%
%TO.N,/EMC_26*%
X117983000Y-53743000D03*
%TO.P,MIMXRT1062DVL6B1,B4,GPIO_EMC_19*%
%TO.N,unconnected-(MIMXRT1062DVL6B1-GPIO_EMC_19-PadB4)*%
X117983000Y-54543000D03*
%TO.P,MIMXRT1062DVL6B1,B5,VSS_3*%
%TO.N,GNDREF*%
X117983000Y-55343000D03*
%TO.P,MIMXRT1062DVL6B1,B6,GPIO_EMC_14*%
%TO.N,unconnected-(MIMXRT1062DVL6B1-GPIO_EMC_14-PadB6)*%
X117983000Y-56143000D03*
%TO.P,MIMXRT1062DVL6B1,B7,GPIO_EMC_39*%
%TO.N,unconnected-(MIMXRT1062DVL6B1-GPIO_EMC_39-PadB7)*%
X117983000Y-56943000D03*
%TO.P,MIMXRT1062DVL6B1,B8,GPIO_B0_05*%
%TO.N,unconnected-(MIMXRT1062DVL6B1-GPIO_B0_05-PadB8)*%
X117983000Y-57743000D03*
%TO.P,MIMXRT1062DVL6B1,B9,GPIO_B0_08*%
%TO.N,unconnected-(MIMXRT1062DVL6B1-GPIO_B0_08-PadB9)*%
X117983000Y-58543000D03*
%TO.P,MIMXRT1062DVL6B1,B10,VSS_4*%
%TO.N,GNDREF*%
X117983000Y-59343000D03*
%TO.P,MIMXRT1062DVL6B1,B11,GPIO_B1_01*%
%TO.N,/Servo3_PWM*%
X117983000Y-60143000D03*
%TO.P,MIMXRT1062DVL6B1,B12,GPIO_B1_07*%
%TO.N,unconnected-(MIMXRT1062DVL6B1-GPIO_B1_07-PadB12)*%
X117983000Y-60943000D03*
%TO.P,MIMXRT1062DVL6B1,B13,GPIO_B1_10*%
%TO.N,unconnected-(MIMXRT1062DVL6B1-GPIO_B1_10-PadB13)*%
X117983000Y-61743000D03*
%TO.P,MIMXRT1062DVL6B1,B14,GPIO_B1_15*%
%TO.N,unconnected-(MIMXRT1062DVL6B1-GPIO_B1_15-PadB14)*%
X117983000Y-62543000D03*
%TO.P,MIMXRT1062DVL6B1,C1,GPIO_EMC_21*%
%TO.N,unconnected-(MIMXRT1062DVL6B1-GPIO_EMC_21-PadC1)*%
X117183000Y-52143000D03*
%TO.P,MIMXRT1062DVL6B1,C2,GPIO_EMC_09*%
%TO.N,unconnected-(MIMXRT1062DVL6B1-GPIO_EMC_09-PadC2)*%
X117183000Y-52943000D03*
%TO.P,MIMXRT1062DVL6B1,C3,GPIO_EMC_36*%
%TO.N,unconnected-(MIMXRT1062DVL6B1-GPIO_EMC_36-PadC3)*%
X117183000Y-53743000D03*
%TO.P,MIMXRT1062DVL6B1,C4,GPIO_EMC_33*%
%TO.N,unconnected-(MIMXRT1062DVL6B1-GPIO_EMC_33-PadC4)*%
X117183000Y-54543000D03*
%TO.P,MIMXRT1062DVL6B1,C5,GPIO_EMC_31*%
%TO.N,/Cam_TX*%
X117183000Y-55343000D03*
%TO.P,MIMXRT1062DVL6B1,C6,GPIO_EMC_30*%
%TO.N,unconnected-(MIMXRT1062DVL6B1-GPIO_EMC_30-PadC6)*%
X117183000Y-56143000D03*
%TO.P,MIMXRT1062DVL6B1,C7,GPIO_EMC_41*%
%TO.N,unconnected-(MIMXRT1062DVL6B1-GPIO_EMC_41-PadC7)*%
X117183000Y-56943000D03*
%TO.P,MIMXRT1062DVL6B1,C8,GPIO_B0_04*%
%TO.N,unconnected-(MIMXRT1062DVL6B1-GPIO_B0_04-PadC8)*%
X117183000Y-57743000D03*
%TO.P,MIMXRT1062DVL6B1,C9,GPIO_B0_09*%
%TO.N,unconnected-(MIMXRT1062DVL6B1-GPIO_B0_09-PadC9)*%
X117183000Y-58543000D03*
%TO.P,MIMXRT1062DVL6B1,C10,GPIO_B0_12*%
%TO.N,unconnected-(MIMXRT1062DVL6B1-GPIO_B0_12-PadC10)*%
X117183000Y-59343000D03*
%TO.P,MIMXRT1062DVL6B1,C11,GPIO_B1_02*%
%TO.N,/Servo1_PWM*%
X117183000Y-60143000D03*
%TO.P,MIMXRT1062DVL6B1,C12,GPIO_B1_06*%
%TO.N,unconnected-(MIMXRT1062DVL6B1-GPIO_B1_06-PadC12)*%
X117183000Y-60943000D03*
%TO.P,MIMXRT1062DVL6B1,C13,GPIO_B1_11*%
%TO.N,unconnected-(MIMXRT1062DVL6B1-GPIO_B1_11-PadC13)*%
X117183000Y-61743000D03*
%TO.P,MIMXRT1062DVL6B1,C14,GPIO_B1_14*%
%TO.N,unconnected-(MIMXRT1062DVL6B1-GPIO_B1_14-PadC14)*%
X117183000Y-62543000D03*
%TO.P,MIMXRT1062DVL6B1,D1,GPIO_EMC_28*%
%TO.N,/EMC_28*%
X116383000Y-52143000D03*
%TO.P,MIMXRT1062DVL6B1,D2,GPIO_EMC_25*%
%TO.N,/EMC_25*%
X116383000Y-52943000D03*
%TO.P,MIMXRT1062DVL6B1,D3,GPIO_EMC_24*%
%TO.N,/EMC_24*%
X116383000Y-53743000D03*
%TO.P,MIMXRT1062DVL6B1,D4,GPIO_EMC_34*%
%TO.N,unconnected-(MIMXRT1062DVL6B1-GPIO_EMC_34-PadD4)*%
X116383000Y-54543000D03*
%TO.P,MIMXRT1062DVL6B1,D5,GPIO_EMC_32*%
%TO.N,/Cam_RX*%
X116383000Y-55343000D03*
%TO.P,MIMXRT1062DVL6B1,D6,GPIO_EMC_38*%
%TO.N,unconnected-(MIMXRT1062DVL6B1-GPIO_EMC_38-PadD6)*%
X116383000Y-56143000D03*
%TO.P,MIMXRT1062DVL6B1,D7,GPIO_B0_00*%
%TO.N,unconnected-(MIMXRT1062DVL6B1-GPIO_B0_00-PadD7)*%
X116383000Y-56943000D03*
%TO.P,MIMXRT1062DVL6B1,D8,GPIO_B0_03*%
%TO.N,Net-(MIMXRT1062DVL6B1-GPIO_B0_03)*%
X116383000Y-57743000D03*
%TO.P,MIMXRT1062DVL6B1,D9,GPIO_B0_10*%
%TO.N,unconnected-(MIMXRT1062DVL6B1-GPIO_B0_10-PadD9)*%
X116383000Y-58543000D03*
%TO.P,MIMXRT1062DVL6B1,D10,GPIO_B0_13*%
%TO.N,/PTB4*%
X116383000Y-59343000D03*
%TO.P,MIMXRT1062DVL6B1,D11,GPIO_B1_03*%
%TO.N,unconnected-(MIMXRT1062DVL6B1-GPIO_B1_03-PadD11)*%
X116383000Y-60143000D03*
%TO.P,MIMXRT1062DVL6B1,D12,GPIO_B1_05*%
%TO.N,unconnected-(MIMXRT1062DVL6B1-GPIO_B1_05-PadD12)*%
X116383000Y-60943000D03*
%TO.P,MIMXRT1062DVL6B1,D13,GPIO_B1_12*%
%TO.N,/Reserve_TX*%
X116383000Y-61743000D03*
%TO.P,MIMXRT1062DVL6B1,D14,GPIO_B1_13*%
%TO.N,/Reserve_RX*%
X116383000Y-62543000D03*
%TO.P,MIMXRT1062DVL6B1,E1,GPIO_EMC_29*%
%TO.N,/EMC_29*%
X115583000Y-52143000D03*
%TO.P,MIMXRT1062DVL6B1,E2,VSS_5*%
%TO.N,GNDREF*%
X115583000Y-52943000D03*
%TO.P,MIMXRT1062DVL6B1,E3,GPIO_EMC_00*%
%TO.N,unconnected-(MIMXRT1062DVL6B1-GPIO_EMC_00-PadE3)*%
X115583000Y-53743000D03*
%TO.P,MIMXRT1062DVL6B1,E4,GPIO_EMC_37*%
%TO.N,unconnected-(MIMXRT1062DVL6B1-GPIO_EMC_37-PadE4)*%
X115583000Y-54543000D03*
%TO.P,MIMXRT1062DVL6B1,E5,GPIO_EMC_35*%
%TO.N,unconnected-(MIMXRT1062DVL6B1-GPIO_EMC_35-PadE5)*%
X115583000Y-55343000D03*
%TO.P,MIMXRT1062DVL6B1,E6,NVCC_EMC_1*%
%TO.N,+3.3V*%
X115583000Y-56143000D03*
%TO.P,MIMXRT1062DVL6B1,E7,GPIO_B0_01*%
%TO.N,/PyroCH3_4*%
X115583000Y-56943000D03*
%TO.P,MIMXRT1062DVL6B1,E8,GPIO_B0_02*%
%TO.N,/PyroCH2_3*%
X115583000Y-57743000D03*
%TO.P,MIMXRT1062DVL6B1,E9,NVCC_GPIO_1*%
%TO.N,+3.3V*%
X115583000Y-58543000D03*
%TO.P,MIMXRT1062DVL6B1,E10,GPIO_B0_14*%
%TO.N,unconnected-(MIMXRT1062DVL6B1-GPIO_B0_14-PadE10)*%
X115583000Y-59343000D03*
%TO.P,MIMXRT1062DVL6B1,E11,GPIO_B0_15*%
%TO.N,unconnected-(MIMXRT1062DVL6B1-GPIO_B0_15-PadE11)*%
X115583000Y-60143000D03*
%TO.P,MIMXRT1062DVL6B1,E12,GPIO_B1_04*%
%TO.N,unconnected-(MIMXRT1062DVL6B1-GPIO_B1_04-PadE12)*%
X115583000Y-60943000D03*
%TO.P,MIMXRT1062DVL6B1,E13,VSS_6*%
%TO.N,GNDREF*%
X115583000Y-61743000D03*
%TO.P,MIMXRT1062DVL6B1,E14,GPIO_AD_B0_06*%
%TO.N,/PTA5*%
X115583000Y-62543000D03*
%TO.P,MIMXRT1062DVL6B1,F1,GPIO_EMC_22*%
%TO.N,unconnected-(MIMXRT1062DVL6B1-GPIO_EMC_22-PadF1)*%
X114783000Y-52143000D03*
%TO.P,MIMXRT1062DVL6B1,F2,GPIO_EMC_04*%
%TO.N,/PyroCH1_2*%
X114783000Y-52943000D03*
%TO.P,MIMXRT1062DVL6B1,F3,GPIO_EMC_01*%
%TO.N,/PTA1*%
X114783000Y-53743000D03*
%TO.P,MIMXRT1062DVL6B1,F4,GPIO_EMC_02*%
%TO.N,unconnected-(MIMXRT1062DVL6B1-GPIO_EMC_02-PadF4)*%
X114783000Y-54543000D03*
%TO.P,MIMXRT1062DVL6B1,F5,NVCC_EMC_2*%
%TO.N,+3.3V*%
X114783000Y-55343000D03*
%TO.P,MIMXRT1062DVL6B1,F6,VDD_SOC_IN_1*%
%TO.N,/M1M2*%
X114783000Y-56143000D03*
%TO.P,MIMXRT1062DVL6B1,F7,VDD_SOC_IN_2*%
X114783000Y-56943000D03*
%TO.P,MIMXRT1062DVL6B1,F8,VDD_SOC_IN_3*%
X114783000Y-57743000D03*
%TO.P,MIMXRT1062DVL6B1,F9,VDD_SOC_IN_4*%
X114783000Y-58543000D03*
%TO.P,MIMXRT1062DVL6B1,F10,NVCC_GPIO_2*%
%TO.N,+3.3V*%
X114783000Y-59343000D03*
%TO.P,MIMXRT1062DVL6B1,F11,GPIO_AD_B0_04*%
%TO.N,/PTA4*%
X114783000Y-60143000D03*
%TO.P,MIMXRT1062DVL6B1,F12,GPIO_AD_B0_07*%
%TO.N,/PTB0*%
X114783000Y-60943000D03*
%TO.P,MIMXRT1062DVL6B1,F13,GPIO_AD_B0_08*%
%TO.N,/PTB5*%
X114783000Y-61743000D03*
%TO.P,MIMXRT1062DVL6B1,F14,GPIO_AD_B0_09*%
%TO.N,/PTA7*%
X114783000Y-62543000D03*
%TO.P,MIMXRT1062DVL6B1,G1,GPIO_EMC_10*%
%TO.N,unconnected-(MIMXRT1062DVL6B1-GPIO_EMC_10-PadG1)*%
X113983000Y-52143000D03*
%TO.P,MIMXRT1062DVL6B1,G2,GPIO_EMC_23*%
%TO.N,unconnected-(MIMXRT1062DVL6B1-GPIO_EMC_23-PadG2)*%
X113983000Y-52943000D03*
%TO.P,MIMXRT1062DVL6B1,G3,GPIO_EMC_11*%
%TO.N,unconnected-(MIMXRT1062DVL6B1-GPIO_EMC_11-PadG3)*%
X113983000Y-53743000D03*
%TO.P,MIMXRT1062DVL6B1,G4,GPIO_EMC_03*%
%TO.N,unconnected-(MIMXRT1062DVL6B1-GPIO_EMC_03-PadG4)*%
X113983000Y-54543000D03*
%TO.P,MIMXRT1062DVL6B1,G5,GPIO_EMC_05*%
%TO.N,unconnected-(MIMXRT1062DVL6B1-GPIO_EMC_05-PadG5)*%
X113983000Y-55343000D03*
%TO.P,MIMXRT1062DVL6B1,G6,VDD_SOC_IN_5*%
%TO.N,/M1M2*%
X113983000Y-56143000D03*
%TO.P,MIMXRT1062DVL6B1,G7,VSS_7*%
%TO.N,GNDREF*%
X113983000Y-56943000D03*
%TO.P,MIMXRT1062DVL6B1,G8,VSS_8*%
X113983000Y-57743000D03*
%TO.P,MIMXRT1062DVL6B1,G9,VDD_SOC_IN_6*%
%TO.N,/M1M2*%
X113983000Y-58543000D03*
%TO.P,MIMXRT1062DVL6B1,G10,GPIO_AD_B0_11*%
%TO.N,/PTA3*%
X113983000Y-59343000D03*
%TO.P,MIMXRT1062DVL6B1,G11,GPIO_AD_B0_03*%
%TO.N,/Xbee_RX*%
X113983000Y-60143000D03*
%TO.P,MIMXRT1062DVL6B1,G12,GPIO_AD_B1_14*%
%TO.N,Net-(MIMXRT1062DVL6B1-GPIO_AD_B1_14)*%
X113983000Y-60943000D03*
%TO.P,MIMXRT1062DVL6B1,G13,GPIO_AD_B0_10*%
%TO.N,/PTA6*%
X113983000Y-61743000D03*
%TO.P,MIMXRT1062DVL6B1,G14,GPIO_AD_B0_05*%
%TO.N,unconnected-(MIMXRT1062DVL6B1-GPIO_AD_B0_05-PadG14)*%
X113983000Y-62543000D03*
%TO.P,MIMXRT1062DVL6B1,H1,GPIO_EMC_12*%
%TO.N,unconnected-(MIMXRT1062DVL6B1-GPIO_EMC_12-PadH1)*%
X113183000Y-52143000D03*
%TO.P,MIMXRT1062DVL6B1,H2,GPIO_SD_B0_04*%
%TO.N,/SD_B0_04*%
X113183000Y-52943000D03*
%TO.P,MIMXRT1062DVL6B1,H3,GPIO_EMC_08*%
%TO.N,Net-(MIMXRT1062DVL6B1-GPIO_EMC_08)*%
X113183000Y-53743000D03*
%TO.P,MIMXRT1062DVL6B1,H4,GPIO_EMC_07*%
%TO.N,unconnected-(MIMXRT1062DVL6B1-GPIO_EMC_07-PadH4)*%
X113183000Y-54543000D03*
%TO.P,MIMXRT1062DVL6B1,H5,GPIO_EMC_06*%
%TO.N,unconnected-(MIMXRT1062DVL6B1-GPIO_EMC_06-PadH5)*%
X113183000Y-55343000D03*
%TO.P,MIMXRT1062DVL6B1,H6,VDD_SOC_IN_7*%
%TO.N,/M1M2*%
X113183000Y-56143000D03*
%TO.P,MIMXRT1062DVL6B1,H7,VSS_9*%
%TO.N,GNDREF*%
X113183000Y-56943000D03*
%TO.P,MIMXRT1062DVL6B1,H8,VSS_10*%
X113183000Y-57743000D03*
%TO.P,MIMXRT1062DVL6B1,H9,VDD_SOC_IN_8*%
%TO.N,/M1M2*%
X113183000Y-58543000D03*
%TO.P,MIMXRT1062DVL6B1,H10,GPIO_AD_B0_01*%
%TO.N,unconnected-(MIMXRT1062DVL6B1-GPIO_AD_B0_01-PadH10)*%
X113183000Y-59343000D03*
%TO.P,MIMXRT1062DVL6B1,H11,GPIO_AD_B1_13*%
%TO.N,/Pyro3_Test_39*%
X113183000Y-60143000D03*
%TO.P,MIMXRT1062DVL6B1,H12,GPIO_AD_B1_12*%
%TO.N,unconnected-(MIMXRT1062DVL6B1-GPIO_AD_B1_12-PadH12)*%
X113183000Y-60943000D03*
%TO.P,MIMXRT1062DVL6B1,H13,GPIO_AD_B1_08*%
%TO.N,unconnected-(MIMXRT1062DVL6B1-GPIO_AD_B1_08-PadH13)*%
X113183000Y-61743000D03*
%TO.P,MIMXRT1062DVL6B1,H14,GPIO_AD_B0_14*%
%TO.N,unconnected-(MIMXRT1062DVL6B1-GPIO_AD_B0_14-PadH14)*%
X113183000Y-62543000D03*
%TO.P,MIMXRT1062DVL6B1,J1,GPIO_SD_B0_02*%
%TO.N,/SD_B0_02*%
X112383000Y-52143000D03*
%TO.P,MIMXRT1062DVL6B1,J2,GPIO_SD_B0_05*%
%TO.N,/SD_B0_05*%
X112383000Y-52943000D03*
%TO.P,MIMXRT1062DVL6B1,J3,GPIO_SD_B0_01*%
%TO.N,/SD_B0_01*%
X112383000Y-53743000D03*
%TO.P,MIMXRT1062DVL6B1,J4,GPIO_SD_B0_00*%
%TO.N,/SD_B0_00*%
X112383000Y-54543000D03*
%TO.P,MIMXRT1062DVL6B1,J5,DCDC_SENSE*%
%TO.N,/M1M2*%
X112383000Y-55343000D03*
%TO.P,MIMXRT1062DVL6B1,J6,NVCC_SD0*%
%TO.N,+3.3V*%
X112383000Y-56143000D03*
%TO.P,MIMXRT1062DVL6B1,J7,VSS_11*%
%TO.N,GNDREF*%
X112383000Y-56943000D03*
%TO.P,MIMXRT1062DVL6B1,J8,VSS_12*%
X112383000Y-57743000D03*
%TO.P,MIMXRT1062DVL6B1,J9,VDD_SOC_IN_9*%
%TO.N,/M1M2*%
X112383000Y-58543000D03*
%TO.P,MIMXRT1062DVL6B1,J10,NVCC_GPIO_3*%
%TO.N,+3.3V*%
X112383000Y-59343000D03*
%TO.P,MIMXRT1062DVL6B1,J11,GPIO_AD_B1_00*%
%TO.N,/BMO085_SCL*%
X112383000Y-60143000D03*
%TO.P,MIMXRT1062DVL6B1,J12,GPIO_AD_B1_06*%
%TO.N,/BMP390_SDA1*%
X112383000Y-60943000D03*
%TO.P,MIMXRT1062DVL6B1,J13,GPIO_AD_B1_11*%
%TO.N,unconnected-(MIMXRT1062DVL6B1-GPIO_AD_B1_11-PadJ13)*%
X112383000Y-61743000D03*
%TO.P,MIMXRT1062DVL6B1,J14,GPIO_AD_B1_15*%
%TO.N,Net-(MIMXRT1062DVL6B1-GPIO_AD_B1_15)*%
X112383000Y-62543000D03*
%TO.P,MIMXRT1062DVL6B1,K1,GPIO_SD_B0_03*%
%TO.N,/SD_B0_03*%
X111583000Y-52143000D03*
%TO.P,MIMXRT1062DVL6B1,K2,VSS_13*%
%TO.N,GNDREF*%
X111583000Y-52943000D03*
%TO.P,MIMXRT1062DVL6B1,K3,DCDC_PSWITCH*%
%TO.N,/PTA3*%
X111583000Y-53743000D03*
%TO.P,MIMXRT1062DVL6B1,K4,DCDC_IN_Q*%
%TO.N,+3.3V*%
X111583000Y-54543000D03*
%TO.P,MIMXRT1062DVL6B1,K5,NVCC_SD1*%
X111583000Y-55343000D03*
%TO.P,MIMXRT1062DVL6B1,K6,TEST_MODE*%
%TO.N,unconnected-(MIMXRT1062DVL6B1-TEST_MODE-PadK6)*%
X111583000Y-56143000D03*
%TO.P,MIMXRT1062DVL6B1,K7,PMIC_ON_REQ*%
%TO.N,unconnected-(MIMXRT1062DVL6B1-PMIC_ON_REQ-PadK7)*%
X111583000Y-56943000D03*
%TO.P,MIMXRT1062DVL6B1,K8,VDD_USB_CAP*%
%TO.N,Net-(MIMXRT1062DVL6B1-VDD_USB_CAP)*%
X111583000Y-57743000D03*
%TO.P,MIMXRT1062DVL6B1,K9,NGND_KEL0*%
%TO.N,unconnected-(MIMXRT1062DVL6B1-NGND_KEL0-PadK9)*%
X111583000Y-58543000D03*
%TO.P,MIMXRT1062DVL6B1,K10,GPIO_AD_B1_07*%
%TO.N,/BMP390_SCL1*%
X111583000Y-59343000D03*
%TO.P,MIMXRT1062DVL6B1,K11,GPIO_AD_B1_01*%
%TO.N,/BMO085_SDA*%
X111583000Y-60143000D03*
%TO.P,MIMXRT1062DVL6B1,K12,GPIO_AD_B1_05*%
%TO.N,/Pyro2_Test_41*%
X111583000Y-60943000D03*
%TO.P,MIMXRT1062DVL6B1,K13,VSS_14*%
%TO.N,GNDREF*%
X111583000Y-61743000D03*
%TO.P,MIMXRT1062DVL6B1,K14,GPIO_AD_B0_12*%
%TO.N,/ADXL375_SCL2*%
X111583000Y-62543000D03*
%TO.P,MIMXRT1062DVL6B1,L1,DCDC_IN_1*%
%TO.N,Net-(MIMXRT1062DVL6B1-DCDC_IN_1)*%
X110783000Y-52143000D03*
%TO.P,MIMXRT1062DVL6B1,L2,DCDC_IN_2*%
X110783000Y-52943000D03*
%TO.P,MIMXRT1062DVL6B1,L3,GPIO_SD_B1_06*%
%TO.N,/CS*%
X110783000Y-53743000D03*
%TO.P,MIMXRT1062DVL6B1,L4,GPIO_SD_B1_07*%
%TO.N,/CLK*%
X110783000Y-54543000D03*
%TO.P,MIMXRT1062DVL6B1,L5,GPIO_SD_B1_00*%
%TO.N,unconnected-(MIMXRT1062DVL6B1-GPIO_SD_B1_00-PadL5)*%
X110783000Y-55343000D03*
%TO.P,MIMXRT1062DVL6B1,L6,WAKEUP*%
%TO.N,unconnected-(MIMXRT1062DVL6B1-WAKEUP-PadL6)*%
X110783000Y-56143000D03*
%TO.P,MIMXRT1062DVL6B1,L7,PMIC_STBY_REQ*%
%TO.N,unconnected-(MIMXRT1062DVL6B1-PMIC_STBY_REQ-PadL7)*%
X110783000Y-56943000D03*
%TO.P,MIMXRT1062DVL6B1,L8,USB_OTG1_DP*%
%TO.N,/D+*%
X110783000Y-57743000D03*
%TO.P,MIMXRT1062DVL6B1,L9,VSS_15*%
%TO.N,GNDREF*%
X110783000Y-58543000D03*
%TO.P,MIMXRT1062DVL6B1,L10,GPIO_AD_B0_15*%
%TO.N,unconnected-(MIMXRT1062DVL6B1-GPIO_AD_B0_15-PadL10)*%
X110783000Y-59343000D03*
%TO.P,MIMXRT1062DVL6B1,L11,GPIO_AD_B1_02*%
%TO.N,unconnected-(MIMXRT1062DVL6B1-GPIO_AD_B1_02-PadL11)*%
X110783000Y-60143000D03*
%TO.P,MIMXRT1062DVL6B1,L12,GPIO_AD_B1_04*%
%TO.N,/Pyro1_Test_40*%
X110783000Y-60943000D03*
%TO.P,MIMXRT1062DVL6B1,L13,GPIO_AD_B1_10*%
%TO.N,unconnected-(MIMXRT1062DVL6B1-GPIO_AD_B1_10-PadL13)*%
X110783000Y-61743000D03*
%TO.P,MIMXRT1062DVL6B1,L14,GPIO_AD_B0_13*%
%TO.N,/ADXL375_SDA2*%
X110783000Y-62543000D03*
%TO.P,MIMXRT1062DVL6B1,M1,DCDC_LP_1*%
%TO.N,Net-(MIMXRT1062DVL6B1-DCDC_LP_1)*%
X109983000Y-52143000D03*
%TO.P,MIMXRT1062DVL6B1,M2,DCDC_LP_2*%
X109983000Y-52943000D03*
%TO.P,MIMXRT1062DVL6B1,M3,GPIO_SD_B1_02*%
%TO.N,unconnected-(MIMXRT1062DVL6B1-GPIO_SD_B1_02-PadM3)*%
X109983000Y-53743000D03*
%TO.P,MIMXRT1062DVL6B1,M4,GPIO_SD_B1_03*%
%TO.N,unconnected-(MIMXRT1062DVL6B1-GPIO_SD_B1_03-PadM4)*%
X109983000Y-54543000D03*
%TO.P,MIMXRT1062DVL6B1,M5,GPIO_SD_B1_01*%
%TO.N,unconnected-(MIMXRT1062DVL6B1-GPIO_SD_B1_01-PadM5)*%
X109983000Y-55343000D03*
%TO.P,MIMXRT1062DVL6B1,M6,ONOFF*%
%TO.N,unconnected-(MIMXRT1062DVL6B1-ONOFF-PadM6)*%
X109983000Y-56143000D03*
%TO.P,MIMXRT1062DVL6B1,M7,POR_B*%
%TO.N,/PTB1*%
X109983000Y-56943000D03*
%TO.P,MIMXRT1062DVL6B1,M8,USB_OTG1_DN*%
%TO.N,/D-*%
X109983000Y-57743000D03*
%TO.P,MIMXRT1062DVL6B1,M9,VDD_SNVS_IN*%
%TO.N,+3.3V*%
X109983000Y-58543000D03*
%TO.P,MIMXRT1062DVL6B1,M10,VDD_SNVS_CAP*%
%TO.N,Net-(MIMXRT1062DVL6B1-VDD_SNVS_CAP)*%
X109983000Y-59343000D03*
%TO.P,MIMXRT1062DVL6B1,M11,GPIO_AD_B0_02*%
%TO.N,/Xbee_TX*%
X109983000Y-60143000D03*
%TO.P,MIMXRT1062DVL6B1,M12,GPIO_AD_B1_03*%
%TO.N,unconnected-(MIMXRT1062DVL6B1-GPIO_AD_B1_03-PadM12)*%
X109983000Y-60943000D03*
%TO.P,MIMXRT1062DVL6B1,M13,GPIO_AD_B1_09*%
%TO.N,unconnected-(MIMXRT1062DVL6B1-GPIO_AD_B1_09-PadM13)*%
X109983000Y-61743000D03*
%TO.P,MIMXRT1062DVL6B1,M14,GPIO_AD_B0_00*%
%TO.N,unconnected-(MIMXRT1062DVL6B1-GPIO_AD_B0_00-PadM14)*%
X109983000Y-62543000D03*
%TO.P,MIMXRT1062DVL6B1,N1,DCDC_GND_1*%
%TO.N,GNDREF*%
X109183000Y-52143000D03*
%TO.P,MIMXRT1062DVL6B1,N2,DCDC_GND_2*%
X109183000Y-52943000D03*
%TO.P,MIMXRT1062DVL6B1,N3,GPIO_SD_B1_05*%
%TO.N,unconnected-(MIMXRT1062DVL6B1-GPIO_SD_B1_05-PadN3)*%
X109183000Y-53743000D03*
%TO.P,MIMXRT1062DVL6B1,N4,GPIO_SD_B1_09*%
%TO.N,/D1*%
X109183000Y-54543000D03*
%TO.P,MIMXRT1062DVL6B1,N5,VSS_16*%
%TO.N,GNDREF*%
X109183000Y-55343000D03*
%TO.P,MIMXRT1062DVL6B1,N6,USB_OTG1_VBUS*%
%TO.N,Net-(MIMXRT1062DVL6B1-USB_OTG1_VBUS)*%
X109183000Y-56143000D03*
%TO.P,MIMXRT1062DVL6B1,N7,USB_OTG2_DN*%
%TO.N,unconnected-(MIMXRT1062DVL6B1-USB_OTG2_DN-PadN7)*%
X109183000Y-56943000D03*
%TO.P,MIMXRT1062DVL6B1,N8,VSS_17*%
%TO.N,GNDREF*%
X109183000Y-57743000D03*
%TO.P,MIMXRT1062DVL6B1,N9,RTC_XTALI*%
%TO.N,Net-(MIMXRT1062DVL6B1-RTC_XTALI)*%
X109183000Y-58543000D03*
%TO.P,MIMXRT1062DVL6B1,N10,GPANAIO*%
%TO.N,unconnected-(MIMXRT1062DVL6B1-GPANAIO-PadN10)*%
X109183000Y-59343000D03*
%TO.P,MIMXRT1062DVL6B1,N11,XTALO*%
%TO.N,/N11*%
X109183000Y-60143000D03*
%TO.P,MIMXRT1062DVL6B1,N12,USB_OTG1_CHD_B*%
%TO.N,unconnected-(MIMXRT1062DVL6B1-USB_OTG1_CHD_B-PadN12)*%
X109183000Y-60943000D03*
%TO.P,MIMXRT1062DVL6B1,N13,CCM_CLK1_P*%
%TO.N,unconnected-(MIMXRT1062DVL6B1-CCM_CLK1_P-PadN13)*%
X109183000Y-61743000D03*
%TO.P,MIMXRT1062DVL6B1,N14,VDDA_ADC_3P3*%
%TO.N,+3.3V*%
X109183000Y-62543000D03*
%TO.P,MIMXRT1062DVL6B1,P1,VSS_18*%
%TO.N,GNDREF*%
X108383000Y-52143000D03*
%TO.P,MIMXRT1062DVL6B1,P2,GPIO_SD_B1_04*%
%TO.N,unconnected-(MIMXRT1062DVL6B1-GPIO_SD_B1_04-PadP2)*%
X108383000Y-52943000D03*
%TO.P,MIMXRT1062DVL6B1,P3,GPIO_SD_B1_08*%
%TO.N,/D0*%
X108383000Y-53743000D03*
%TO.P,MIMXRT1062DVL6B1,P4,GPIO_SD_B1_10*%
%TO.N,/D2*%
X108383000Y-54543000D03*
%TO.P,MIMXRT1062DVL6B1,P5,GPIO_SD_B1_11*%
%TO.N,/D3*%
X108383000Y-55343000D03*
%TO.P,MIMXRT1062DVL6B1,P6,USB_OTG2_VBUS*%
%TO.N,unconnected-(MIMXRT1062DVL6B1-USB_OTG2_VBUS-PadP6)*%
X108383000Y-56143000D03*
%TO.P,MIMXRT1062DVL6B1,P7,USB_OTG2_DP*%
%TO.N,unconnected-(MIMXRT1062DVL6B1-USB_OTG2_DP-PadP7)*%
X108383000Y-56943000D03*
%TO.P,MIMXRT1062DVL6B1,P8,VDD_HIGH_CAP*%
%TO.N,Net-(MIMXRT1062DVL6B1-VDD_HIGH_CAP)*%
X108383000Y-57743000D03*
%TO.P,MIMXRT1062DVL6B1,P9,RTC_XTALO*%
%TO.N,GNDREF*%
X108383000Y-58543000D03*
%TO.P,MIMXRT1062DVL6B1,P10,NVCC_PLL*%
%TO.N,Net-(MIMXRT1062DVL6B1-NVCC_PLL)*%
X108383000Y-59343000D03*
%TO.P,MIMXRT1062DVL6B1,P11,XTALI*%
%TO.N,/P11*%
X108383000Y-60143000D03*
%TO.P,MIMXRT1062DVL6B1,P12,VDD_HIGH_IN*%
%TO.N,+3.3V*%
X108383000Y-60943000D03*
%TO.P,MIMXRT1062DVL6B1,P13,CCM_CLK1_N*%
%TO.N,unconnected-(MIMXRT1062DVL6B1-CCM_CLK1_N-PadP13)*%
X108383000Y-61743000D03*
%TO.P,MIMXRT1062DVL6B1,P14,VSS_19*%
%TO.N,GNDREF*%
X108383000Y-62543000D03*
%TD*%
D17*
%TO.P,Y4,2,2*%
%TO.N,Net-(U-BLOX_ZOE_M8Q-0-1-RTC_0)*%
X135338800Y-68743000D03*
%TO.P,Y4,1,1*%
%TO.N,Net-(U-BLOX_ZOE_M8Q-0-1-RTC_1)*%
X133488800Y-68743000D03*
%TD*%
D29*
%TO.P,Q3,1,G*%
%TO.N,/PyroCH3_4*%
X125333000Y-71668000D03*
%TO.P,Q3,2,S*%
%TO.N,GNDREF*%
X123433000Y-71668000D03*
%TO.P,Q3,3,D*%
%TO.N,Net-(Q3-D)*%
X124383000Y-73543000D03*
%TD*%
D30*
%TO.P,BNO085,28,VDDIO*%
%TO.N,+3.3V*%
X101759000Y-42106000D03*
%TO.P,BNO085,27,XIN32*%
%TO.N,Net-(BNO1-XIN32)*%
X101759000Y-42606000D03*
%TO.P,BNO085,26,CLKSEL1/XOUT32*%
%TO.N,Net-(BNO1-CLKSEL1{slash}XOUT32)*%
X101759000Y-43106000D03*
%TO.P,BNO085,25,GNDIO*%
%TO.N,GNDREF*%
X101759000Y-43606000D03*
%TO.P,BNO085,24*%
%TO.N,N/C*%
X101759000Y-44106000D03*
%TO.P,BNO085,23*%
X101759000Y-44606000D03*
%TO.P,BNO085,22*%
X101759000Y-45106000D03*
%TO.P,BNO085,21*%
X101759000Y-45606000D03*
%TO.P,BNO085,20,H_SDA/MISO/TX*%
%TO.N,/BMO085_SDA*%
X101759000Y-46106000D03*
D31*
%TO.P,BNO085,19,H_SCL/SCLK/RX*%
%TO.N,/BMO085_SCL*%
X100946000Y-46169000D03*
%TO.P,BNO085,18,H_CSN*%
%TO.N,unconnected-(BNO1-H_CSN-Pad18)*%
X100446000Y-46169000D03*
%TO.P,BNO085,17,H_SA0/MOSI*%
%TO.N,Net-(BNO1-H_SA0{slash}MOSI)*%
X99946000Y-46169000D03*
%TO.P,BNO085,16,S_SDA*%
%TO.N,unconnected-(BNO1-S_SDA-Pad16)*%
X99446000Y-46169000D03*
D30*
%TO.P,BNO085,15,S_SCL*%
%TO.N,unconnected-(BNO1-S_SCL-Pad15)*%
X98633000Y-46106000D03*
%TO.P,BNO085,14,H_INTN*%
%TO.N,unconnected-(BNO1-H_INTN-Pad14)*%
X98633000Y-45606000D03*
%TO.P,BNO085,13*%
%TO.N,N/C*%
X98633000Y-45106000D03*
%TO.P,BNO085,12*%
X98633000Y-44606000D03*
%TO.P,BNO085,11,NRST*%
%TO.N,Net-(BNO1-NRST)*%
X98633000Y-44106000D03*
%TO.P,BNO085,10,CLKSEL0*%
%TO.N,GNDREF*%
X98633000Y-43606000D03*
%TO.P,BNO085,9,CAP*%
%TO.N,/IMU BNO085/CAP*%
X98633000Y-43106000D03*
%TO.P,BNO085,8*%
%TO.N,N/C*%
X98633000Y-42606000D03*
%TO.P,BNO085,7*%
X98633000Y-42106000D03*
%TO.P,BNO085,6,PS0/WAKE*%
%TO.N,GNDREF*%
X98633000Y-41606000D03*
D31*
%TO.P,BNO085,5,PS1*%
X99446000Y-41543000D03*
%TO.P,BNO085,4,BOOTN*%
%TO.N,Net-(BNO1-BOOTN)*%
X99946000Y-41543000D03*
%TO.P,BNO085,3,VDD*%
%TO.N,+3.3V*%
X100446000Y-41543000D03*
%TO.P,BNO085,2,GND*%
%TO.N,GNDREF*%
X100946000Y-41543000D03*
D30*
%TO.P,BNO085,1*%
%TO.N,N/C*%
X101759000Y-41606000D03*
%TD*%
D14*
%TO.P,R12,2*%
%TO.N,Net-(MIMXRT1062DVL6B1-GPIO_B0_03)*%
X122220500Y-47893000D03*
%TO.P,R12,1*%
%TO.N,Net-(D5-A)*%
X124045500Y-47893000D03*
%TD*%
D12*
%TO.P,FID1,*%
%TO.N,*%
X92383000Y-35793000D03*
%TD*%
D14*
%TO.P,R29,2*%
%TO.N,Net-(Q3-D)*%
X123383000Y-76043000D03*
%TO.P,R29,1*%
%TO.N,/HighCurrentComponents/Pyro3_HighSide*%
X125208000Y-76043000D03*
%TD*%
D13*
%TO.P,TP3,1,1*%
%TO.N,+7.5V*%
X102383000Y-80193000D03*
%TO.P,TP3,2,2*%
%TO.N,GNDREF*%
X102383000Y-82733000D03*
%TD*%
D16*
%TO.P,D4,1,K*%
%TO.N,GNDREF*%
X128258000Y-45643000D03*
%TO.P,D4,2,A*%
%TO.N,Net-(D4-A)*%
X126508000Y-45643000D03*
%TD*%
D32*
%TO.P,Y3,2,2*%
%TO.N,Net-(BNO1-XIN32)*%
X105020500Y-42918000D03*
%TO.P,Y3,1,1*%
%TO.N,Net-(BNO1-CLKSEL1{slash}XOUT32)*%
X105020500Y-44768000D03*
%TD*%
D18*
%TO.P,R7,2*%
%TO.N,Net-(MIMXRT1062DVL6B1-GPIO_AD_B1_15)*%
X102483000Y-68993000D03*
%TO.P,R7,1*%
%TO.N,Net-(D3-A)*%
X100658000Y-68993000D03*
%TD*%
D14*
%TO.P,R10,2*%
%TO.N,/P11*%
X109120500Y-69543000D03*
%TO.P,R10,1*%
%TO.N,GNDREF*%
X110945500Y-69543000D03*
%TD*%
D29*
%TO.P,Q1,1,G*%
%TO.N,/PyroCH1_2*%
X115833000Y-71668000D03*
%TO.P,Q1,2,S*%
%TO.N,GNDREF*%
X113933000Y-71668000D03*
%TO.P,Q1,3,D*%
%TO.N,Net-(Q1-D)*%
X114883000Y-73543000D03*
%TD*%
D33*
%TO.P,ADXL375,1,VDD(I/O)*%
%TO.N,+3.3V*%
X114283000Y-44543000D03*
%TO.P,ADXL375,2,GND@1*%
%TO.N,GNDREF*%
X114283000Y-43743000D03*
%TO.P,ADXL375,3,RSV@1*%
%TO.N,unconnected-(ADXL1-RSV@1-Pad3)*%
X114283000Y-42943000D03*
%TO.P,ADXL375,4,GND@2*%
%TO.N,GNDREF*%
X114283000Y-42143000D03*
%TO.P,ADXL375,5,GND@3*%
X114283000Y-41343000D03*
%TO.P,ADXL375,6,VIN*%
%TO.N,+3.3V*%
X114283000Y-40543000D03*
D34*
%TO.P,ADXL375,7,CS*%
%TO.N,Net-(ADXL1-ADDR{slash}SDO)*%
X113185000Y-40445000D03*
D33*
%TO.P,ADXL375,8,INT1*%
%TO.N,unconnected-(ADXL1-INT1-Pad8)*%
X112087000Y-40543000D03*
%TO.P,ADXL375,9,INT2*%
%TO.N,unconnected-(ADXL1-INT2-Pad9)*%
X112087000Y-41343000D03*
%TO.P,ADXL375,10,NC*%
%TO.N,unconnected-(ADXL1-NC-Pad10)*%
X112087000Y-42143000D03*
%TO.P,ADXL375,11,RSV@2*%
%TO.N,unconnected-(ADXL1-RSV@2-Pad11)*%
X112087000Y-42943000D03*
%TO.P,ADXL375,12,ADDR/SDO*%
%TO.N,Net-(ADXL1-ADDR{slash}SDO)*%
X112087000Y-43743000D03*
%TO.P,ADXL375,13,SDA*%
%TO.N,/ADXL375_SDA2*%
X112087000Y-44543000D03*
D34*
%TO.P,ADXL375,14,SCL*%
%TO.N,/ADXL375_SCL2*%
X113185000Y-44641000D03*
%TD*%
D18*
%TO.P,R28,2*%
%TO.N,/PyroCH3_4*%
X125295500Y-69043000D03*
%TO.P,R28,1*%
%TO.N,GNDREF*%
X123470500Y-69043000D03*
%TD*%
D14*
%TO.P,R21,2*%
%TO.N,Net-(Q1-D)*%
X113970500Y-76043000D03*
%TO.P,R21,1*%
%TO.N,/HighCurrentComponents/Pyro1_HighSide*%
X115795500Y-76043000D03*
%TD*%
%TO.P,C16,1*%
%TO.N,Net-(MIMXRT1062DVL6B1-NVCC_PLL)*%
X104998500Y-54143000D03*
%TO.P,C16,2*%
%TO.N,GNDREF*%
X103173500Y-54143000D03*
%TD*%
D15*
%TO.P,C10,2*%
%TO.N,GNDREF*%
X100883000Y-59893000D03*
%TO.P,C10,1*%
%TO.N,Net-(C10-Pad1)*%
X100883000Y-61718000D03*
%TD*%
D18*
%TO.P,R1,2*%
%TO.N,GNDREF*%
X95545500Y-57793000D03*
%TO.P,R1,1*%
%TO.N,Net-(USB_C_Receptacle_USB2.0_14P1-CC1)*%
X93720500Y-57793000D03*
%TD*%
%TO.P,R5,2*%
%TO.N,Net-(D2-K)*%
X124133000Y-43393000D03*
%TO.P,R5,1*%
%TO.N,Net-(MKL02Z32VFG1-PTB3{slash}IRQ_10)*%
X122308000Y-43393000D03*
%TD*%
D14*
%TO.P,C21,2*%
%TO.N,GNDREF*%
X103173500Y-56393000D03*
%TO.P,C21,1*%
%TO.N,Net-(MIMXRT1062DVL6B1-NVCC_PLL)*%
X104998500Y-56393000D03*
%TD*%
D35*
%TO.P,U-BLOX_ZOE_M8Q-0-1,51,NC*%
%TO.N,unconnected-(U-BLOX_ZOE_M8Q-0-1-NC-Pad51)*%
X132663800Y-64339000D03*
%TO.P,U-BLOX_ZOE_M8Q-0-1,50,P1014*%
%TO.N,unconnected-(U-BLOX_ZOE_M8Q-0-1-P1014-Pad50)*%
X133663800Y-64339000D03*
%TO.P,U-BLOX_ZOE_M8Q-0-1,49,GND*%
%TO.N,GNDREF*%
X133663800Y-63339000D03*
%TO.P,U-BLOX_ZOE_M8Q-0-1,48,D_SEL*%
%TO.N,unconnected-(U-BLOX_ZOE_M8Q-0-1-D_SEL-Pad48)*%
X132663800Y-63339000D03*
%TO.P,U-BLOX_ZOE_M8Q-0-1,47,SQI_G*%
%TO.N,GNDREF*%
X132163800Y-63339000D03*
%TO.P,U-BLOX_ZOE_M8Q-0-1,46,SQI_G*%
X132163800Y-63839000D03*
%TO.P,U-BLOX_ZOE_M8Q-0-1,45,SQI_O*%
%TO.N,unconnected-(U-BLOX_ZOE_M8Q-0-1-SQI_O-Pad45)*%
X132163800Y-64339000D03*
%TO.P,U-BLOX_ZOE_M8Q-0-1,44,GND*%
%TO.N,GNDREF*%
X132163800Y-64839000D03*
%TO.P,U-BLOX_ZOE_M8Q-0-1,43,PI013/~{EXTINT}*%
%TO.N,unconnected-(U-BLOX_ZOE_M8Q-0-1-PI013{slash}~{EXTINT}-Pad43)*%
X132663800Y-64839000D03*
%TO.P,U-BLOX_ZOE_M8Q-0-1,42,NC*%
%TO.N,unconnected-(U-BLOX_ZOE_M8Q-0-1-NC-Pad42)*%
X133163800Y-64839000D03*
%TO.P,U-BLOX_ZOE_M8Q-0-1,41,GND*%
%TO.N,GNDREF*%
X133663800Y-64839000D03*
%TO.P,U-BLOX_ZOE_M8Q-0-1,40,GND*%
X134163800Y-64839000D03*
%TO.P,U-BLOX_ZOE_M8Q-0-1,39,GND*%
X134163800Y-64339000D03*
%TO.P,U-BLOX_ZOE_M8Q-0-1,38,GND*%
X134163800Y-63839000D03*
%TO.P,U-BLOX_ZOE_M8Q-0-1,37,GND*%
X134163800Y-62839000D03*
%TO.P,U-BLOX_ZOE_M8Q-0-1,36,P1015*%
%TO.N,unconnected-(U-BLOX_ZOE_M8Q-0-1-P1015-Pad36)*%
X133663800Y-62839000D03*
%TO.P,U-BLOX_ZOE_M8Q-0-1,35,LNA_EN*%
%TO.N,unconnected-(U-BLOX_ZOE_M8Q-0-1-LNA_EN-Pad35)*%
X133163800Y-62839000D03*
%TO.P,U-BLOX_ZOE_M8Q-0-1,34,~{SAFEBOOT}*%
%TO.N,unconnected-(U-BLOX_ZOE_M8Q-0-1-~{SAFEBOOT}-Pad34)*%
X132663800Y-62839000D03*
%TO.P,U-BLOX_ZOE_M8Q-0-1,33,TIMEPULSE*%
%TO.N,unconnected-(U-BLOX_ZOE_M8Q-0-1-TIMEPULSE-Pad33)*%
X132163800Y-62839000D03*
%TO.P,U-BLOX_ZOE_M8Q-0-1,32,SCL/CLK*%
%TO.N,/BMP390_SCL1*%
X131163800Y-62339000D03*
%TO.P,U-BLOX_ZOE_M8Q-0-1,31,SQI_G*%
%TO.N,GNDREF*%
X131163800Y-62839000D03*
%TO.P,U-BLOX_ZOE_M8Q-0-1,30,SQI_O*%
%TO.N,unconnected-(U-BLOX_ZOE_M8Q-0-1-SQI_O-Pad30)*%
X131163800Y-63339000D03*
%TO.P,U-BLOX_ZOE_M8Q-0-1,29,SQI_G*%
%TO.N,GNDREF*%
X131163800Y-63839000D03*
%TO.P,U-BLOX_ZOE_M8Q-0-1,28,NC*%
%TO.N,unconnected-(U-BLOX_ZOE_M8Q-0-1-NC-Pad28)*%
X131163800Y-64339000D03*
%TO.P,U-BLOX_ZOE_M8Q-0-1,27,V_CORE*%
%TO.N,Net-(U-BLOX_ZOE_M8Q-0-1-V_CORE)*%
X131163800Y-64839000D03*
%TO.P,U-BLOX_ZOE_M8Q-0-1,26,V_DCDC_OUT*%
%TO.N,Net-(U-BLOX_ZOE_M8Q-0-1-V_DCDC_OUT)*%
X131163800Y-65339000D03*
%TO.P,U-BLOX_ZOE_M8Q-0-1,25,VCC*%
%TO.N,+3.3V*%
X131163800Y-65839000D03*
%TO.P,U-BLOX_ZOE_M8Q-0-1,24,VCC*%
X131663800Y-65839000D03*
%TO.P,U-BLOX_ZOE_M8Q-0-1,23,GND*%
%TO.N,GNDREF*%
X132163800Y-65839000D03*
%TO.P,U-BLOX_ZOE_M8Q-0-1,22,RXD/MOSI*%
%TO.N,unconnected-(U-BLOX_ZOE_M8Q-0-1-RXD{slash}MOSI-Pad22)*%
X132663800Y-65839000D03*
%TO.P,U-BLOX_ZOE_M8Q-0-1,21,TXD/MISO*%
%TO.N,unconnected-(U-BLOX_ZOE_M8Q-0-1-TXD{slash}MISO-Pad21)*%
X133163800Y-65839000D03*
%TO.P,U-BLOX_ZOE_M8Q-0-1,20,~{RESET}*%
%TO.N,unconnected-(U-BLOX_ZOE_M8Q-0-1-~{RESET}-Pad20)*%
X133663800Y-65839000D03*
%TO.P,U-BLOX_ZOE_M8Q-0-1,19,RTC_1*%
%TO.N,Net-(U-BLOX_ZOE_M8Q-0-1-RTC_1)*%
X134163800Y-65839000D03*
%TO.P,U-BLOX_ZOE_M8Q-0-1,18,RTC_0*%
%TO.N,Net-(U-BLOX_ZOE_M8Q-0-1-RTC_0)*%
X134663800Y-65839000D03*
%TO.P,U-BLOX_ZOE_M8Q-0-1,17,GND*%
%TO.N,GNDREF*%
X135163800Y-65839000D03*
%TO.P,U-BLOX_ZOE_M8Q-0-1,16,V_BCKP*%
%TO.N,+3.3V*%
X135163800Y-65339000D03*
%TO.P,U-BLOX_ZOE_M8Q-0-1,15,NC*%
%TO.N,unconnected-(U-BLOX_ZOE_M8Q-0-1-NC-Pad15)*%
X135163800Y-64839000D03*
%TO.P,U-BLOX_ZOE_M8Q-0-1,14,NC*%
%TO.N,unconnected-(U-BLOX_ZOE_M8Q-0-1-NC-Pad14)*%
X135163800Y-64339000D03*
%TO.P,U-BLOX_ZOE_M8Q-0-1,13,NC*%
%TO.N,unconnected-(U-BLOX_ZOE_M8Q-0-1-NC-Pad13)*%
X135163800Y-63839000D03*
%TO.P,U-BLOX_ZOE_M8Q-0-1,12,GND*%
%TO.N,GNDREF*%
X135163800Y-63339000D03*
%TO.P,U-BLOX_ZOE_M8Q-0-1,11,GND*%
X135163800Y-62839000D03*
%TO.P,U-BLOX_ZOE_M8Q-0-1,10,GND*%
X135163800Y-62339000D03*
%TO.P,U-BLOX_ZOE_M8Q-0-1,9,GND*%
X135163800Y-61839000D03*
%TO.P,U-BLOX_ZOE_M8Q-0-1,8,GND*%
X134663800Y-61839000D03*
%TO.P,U-BLOX_ZOE_M8Q-0-1,7,GND*%
X134163800Y-61839000D03*
%TO.P,U-BLOX_ZOE_M8Q-0-1,6,NC*%
%TO.N,unconnected-(U-BLOX_ZOE_M8Q-0-1-NC-Pad6)*%
X133663800Y-61839000D03*
%TO.P,U-BLOX_ZOE_M8Q-0-1,5,GND*%
%TO.N,GNDREF*%
X133163800Y-61839000D03*
%TO.P,U-BLOX_ZOE_M8Q-0-1,4,RF_IN*%
%TO.N,/GPS ZOEM8/ANT*%
X132663800Y-61839000D03*
%TO.P,U-BLOX_ZOE_M8Q-0-1,3,GND*%
%TO.N,GNDREF*%
X132163800Y-61839000D03*
%TO.P,U-BLOX_ZOE_M8Q-0-1,2,SDA/CS*%
%TO.N,/BMP390_SDA1*%
X131663800Y-61839000D03*
%TO.P,U-BLOX_ZOE_M8Q-0-1,1,GND*%
%TO.N,GNDREF*%
X131163800Y-61839000D03*
%TD*%
D18*
%TO.P,R2,2*%
%TO.N,GNDREF*%
X95545500Y-60043000D03*
%TO.P,R2,1*%
%TO.N,Net-(USB_C_Receptacle_USB2.0_14P1-CC2)*%
X93720500Y-60043000D03*
%TD*%
D36*
%TO.P,USB_C_Receptacle_USB2.0_14P1,S1,SHIELD*%
%TO.N,GNDREF*%
X85960000Y-63700000D03*
X89890000Y-63700000D03*
X85960000Y-53480000D03*
X89890000Y-53480000D03*
D37*
%TO.P,USB_C_Receptacle_USB2.0_14P1,B12,GND*%
X90465000Y-55390000D03*
%TO.P,USB_C_Receptacle_USB2.0_14P1,B9,VBUS*%
%TO.N,Net-(FB1-Pad1)*%
X90465000Y-56190000D03*
D38*
%TO.P,USB_C_Receptacle_USB2.0_14P1,B8*%
%TO.N,N/C*%
X90465000Y-56840000D03*
%TO.P,USB_C_Receptacle_USB2.0_14P1,B7,D-*%
%TO.N,/D-*%
X90465000Y-57840000D03*
%TO.P,USB_C_Receptacle_USB2.0_14P1,B6,D+*%
%TO.N,/D+*%
X90465000Y-59340000D03*
%TO.P,USB_C_Receptacle_USB2.0_14P1,B5,CC2*%
%TO.N,Net-(USB_C_Receptacle_USB2.0_14P1-CC2)*%
X90465000Y-60340000D03*
D37*
%TO.P,USB_C_Receptacle_USB2.0_14P1,B4,VBUS*%
%TO.N,Net-(FB1-Pad1)*%
X90465000Y-60990000D03*
%TO.P,USB_C_Receptacle_USB2.0_14P1,B1,GND*%
%TO.N,GNDREF*%
X90465000Y-61790000D03*
%TO.P,USB_C_Receptacle_USB2.0_14P1,A12,GND*%
X90465000Y-61790000D03*
%TO.P,USB_C_Receptacle_USB2.0_14P1,A9,VBUS*%
%TO.N,Net-(FB1-Pad1)*%
X90465000Y-60990000D03*
D38*
%TO.P,USB_C_Receptacle_USB2.0_14P1,A8*%
%TO.N,N/C*%
X90465000Y-59840000D03*
%TO.P,USB_C_Receptacle_USB2.0_14P1,A7,D-*%
%TO.N,/D-*%
X90465000Y-58840000D03*
%TO.P,USB_C_Receptacle_USB2.0_14P1,A6,D+*%
%TO.N,/D+*%
X90465000Y-58340000D03*
%TO.P,USB_C_Receptacle_USB2.0_14P1,A5,CC1*%
%TO.N,Net-(USB_C_Receptacle_USB2.0_14P1-CC1)*%
X90465000Y-57340000D03*
D37*
%TO.P,USB_C_Receptacle_USB2.0_14P1,A4,VBUS*%
%TO.N,Net-(FB1-Pad1)*%
X90465000Y-56190000D03*
%TO.P,USB_C_Receptacle_USB2.0_14P1,A1,GND*%
%TO.N,GNDREF*%
X90465000Y-55390000D03*
%TD*%
D27*
%TO.P,ScrewTerminal1,1,1*%
%TO.N,+7.5V*%
X105603000Y-81043000D03*
D26*
%TO.P,ScrewTerminal1,2,2*%
%TO.N,/HighCurrentComponents/7.5V_AftSwitch*%
X108143000Y-81043000D03*
%TO.P,ScrewTerminal1,3,3*%
X110683000Y-81043000D03*
%TO.P,ScrewTerminal1,4,4*%
%TO.N,/HighCurrentComponents/Pyro1_HighSide*%
X113223000Y-81043000D03*
%TO.P,ScrewTerminal1,5,5*%
%TO.N,/HighCurrentComponents/7.5V_AftSwitch*%
X115763000Y-81043000D03*
%TO.P,ScrewTerminal1,6,6*%
%TO.N,/HighCurrentComponents/Pyro2_HighSide*%
X118303000Y-81043000D03*
%TO.P,ScrewTerminal1,7,7*%
%TO.N,/HighCurrentComponents/7.5V_AftSwitch*%
X120843000Y-81043000D03*
%TO.P,ScrewTerminal1,8,8*%
%TO.N,/HighCurrentComponents/Pyro3_HighSide*%
X123383000Y-81043000D03*
%TD*%
D24*
%TO.P,R19,2*%
%TO.N,Net-(ADXL1-ADDR{slash}SDO)*%
X109683000Y-41755500D03*
%TO.P,R19,1*%
%TO.N,+3.3V*%
X109683000Y-39930500D03*
%TD*%
D14*
%TO.P,R9,2*%
%TO.N,Net-(MIMXRT1062DVL6B1-GPIO_EMC_08)*%
X122220500Y-45643000D03*
%TO.P,R9,1*%
%TO.N,Net-(D4-A)*%
X124045500Y-45643000D03*
%TD*%
D29*
%TO.P,Q2,1,G*%
%TO.N,/PyroCH2_3*%
X120583000Y-71668000D03*
%TO.P,Q2,2,S*%
%TO.N,GNDREF*%
X118683000Y-71668000D03*
%TO.P,Q2,3,D*%
%TO.N,Net-(Q2-D)*%
X119633000Y-73543000D03*
%TD*%
D39*
%TO.P,D7,1,K*%
%TO.N,/GPS ZOEM8/ANT*%
X132683000Y-58643000D03*
%TO.P,D7,2,A*%
%TO.N,Net-(CONMHF1-SMD-G-T1-SIGNAL)*%
X132683000Y-57643000D03*
%TD*%
D14*
%TO.P,C33,1,1*%
%TO.N,Net-(BNO1-CLKSEL1{slash}XOUT32)*%
X105883000Y-46743000D03*
%TO.P,C33,2,2*%
%TO.N,GNDREF*%
X104058000Y-46743000D03*
%TD*%
D40*
%TO.P,C41,1*%
%TO.N,+7.5V*%
X106905475Y-76267615D03*
%TO.P,C41,2*%
%TO.N,GNDREF*%
X107760525Y-73918383D03*
%TD*%
D41*
%TO.P,REF\u002A\u002A,1*%
%TO.N,N/C*%
X126955000Y-77490000D03*
X127504175Y-76164175D03*
X127504175Y-78815825D03*
X128830000Y-75615000D03*
D42*
X128830000Y-77490000D03*
D41*
X128830000Y-79365000D03*
X130155825Y-76164175D03*
X130155825Y-78815825D03*
X130705000Y-77490000D03*
%TD*%
%TO.P,REF\u002A\u002A,1*%
%TO.N,N/C*%
X89061000Y-39596000D03*
X89610175Y-38270175D03*
X89610175Y-40921825D03*
X90936000Y-37721000D03*
D42*
X90936000Y-39596000D03*
D41*
X90936000Y-41471000D03*
X92261825Y-38270175D03*
X92261825Y-40921825D03*
X92811000Y-39596000D03*
%TD*%
%TO.P,REF\u002A\u002A,1*%
%TO.N,N/C*%
X126955000Y-39596000D03*
X127504175Y-38270175D03*
X127504175Y-40921825D03*
X128830000Y-37721000D03*
D42*
X128830000Y-39596000D03*
D41*
X128830000Y-41471000D03*
X130155825Y-38270175D03*
X130155825Y-40921825D03*
X130705000Y-39596000D03*
%TD*%
%TO.P,REF\u002A\u002A,1*%
%TO.N,N/C*%
X89082175Y-77493000D03*
X89631350Y-76167175D03*
X89631350Y-78818825D03*
X90957175Y-75618000D03*
D42*
X90957175Y-77493000D03*
D41*
X90957175Y-79368000D03*
X92283000Y-76167175D03*
X92283000Y-78818825D03*
X92832175Y-77493000D03*
%TD*%
D43*
%TO.N,GNDREF*%
X119533000Y-69793000D03*
D44*
X110183000Y-65843000D03*
D45*
X126483000Y-55043000D03*
D43*
X84083000Y-63643000D03*
D44*
X122583000Y-41543000D03*
D45*
X122183000Y-79643000D03*
D44*
X135383000Y-50143000D03*
X133583000Y-50143000D03*
D43*
X85033000Y-49443000D03*
X115833000Y-46893000D03*
X99433000Y-69943000D03*
D44*
X130285001Y-52980740D03*
X135483000Y-56043000D03*
D43*
X114743499Y-66103634D03*
X105483000Y-68824250D03*
D44*
X108780636Y-54947729D03*
D43*
X97183000Y-60243000D03*
D44*
X136183000Y-62243000D03*
X134483000Y-50143000D03*
D43*
X123983000Y-53943000D03*
D44*
X115183000Y-62143000D03*
D43*
X121183000Y-53543000D03*
D44*
X119283000Y-58143000D03*
X132783000Y-50143000D03*
D43*
X90683000Y-48643000D03*
D46*
X86733000Y-70593000D03*
D44*
X130283000Y-64743000D03*
D43*
X126383000Y-62143000D03*
X89083000Y-65943000D03*
D44*
X111983000Y-52543000D03*
D43*
X104083000Y-48043000D03*
X93783000Y-69243000D03*
X93783000Y-67943000D03*
D44*
X136183000Y-52843000D03*
X107583000Y-62243000D03*
X112783000Y-57343000D03*
D43*
X112483000Y-70593000D03*
X116783000Y-42143000D03*
X124483000Y-34643000D03*
D44*
X131083000Y-50143000D03*
X119295808Y-62945499D03*
X134783000Y-56043000D03*
X131183000Y-60535001D03*
X130283000Y-52043000D03*
X130283000Y-60543000D03*
X130283000Y-58443000D03*
X136183000Y-56043000D03*
D45*
X133416000Y-71960000D03*
X126083000Y-57843000D03*
D44*
X135183000Y-66543000D03*
D43*
X123733000Y-77143000D03*
D44*
X130283000Y-56243000D03*
X136183000Y-53643000D03*
D43*
X124783000Y-36843000D03*
X98783000Y-40243000D03*
X105483000Y-52868500D03*
D44*
X131283000Y-56043000D03*
D45*
X117083000Y-79643000D03*
D44*
X136183000Y-54443000D03*
X136183000Y-66543000D03*
D43*
X87083000Y-55143000D03*
D44*
X136183000Y-64043000D03*
D43*
X124695500Y-70093000D03*
D44*
X111183000Y-61343000D03*
D43*
X101483000Y-56393000D03*
X107783000Y-52043000D03*
X101783000Y-49749000D03*
D44*
X132083000Y-60535000D03*
X131783000Y-66543000D03*
D43*
X106083000Y-57338500D03*
D44*
X130283000Y-59143000D03*
X130283000Y-57143000D03*
X135183000Y-60543000D03*
D43*
X96783000Y-41343000D03*
D44*
X136183000Y-61343000D03*
D43*
X120183000Y-34543000D03*
X117283000Y-66843000D03*
X95283000Y-69843000D03*
X99760001Y-53365999D03*
X105883000Y-39343000D03*
X129583000Y-47943000D03*
D44*
X133583000Y-66543000D03*
X136183000Y-58343000D03*
D43*
X117383000Y-51043000D03*
X88408000Y-57943000D03*
D44*
X130383000Y-66543000D03*
D43*
X83983000Y-53443000D03*
X103183000Y-43943000D03*
D44*
X115983000Y-53343000D03*
X136183000Y-50143000D03*
X130283000Y-51143000D03*
X130283000Y-54743000D03*
X130283000Y-50143000D03*
X119382613Y-54992421D03*
D43*
X84383000Y-61343000D03*
D44*
X130283000Y-63343000D03*
X131883000Y-50143000D03*
X136183000Y-52043000D03*
D43*
X103107000Y-61467000D03*
D44*
X133183000Y-56043000D03*
D43*
X118533000Y-67718000D03*
D44*
X119383000Y-51593000D03*
X136183000Y-63143000D03*
X130283000Y-59843000D03*
D43*
X111583000Y-71493000D03*
D44*
X101783000Y-40743000D03*
D43*
X120083000Y-38843000D03*
X93733000Y-70468000D03*
X112718340Y-67316302D03*
D44*
X132183000Y-56043000D03*
D43*
X115383000Y-50943000D03*
D44*
X134283000Y-60543000D03*
X129158000Y-67143000D03*
X133983000Y-56043000D03*
X133483000Y-60543000D03*
X130283000Y-61785000D03*
D43*
X100934156Y-51891844D03*
D44*
X113583000Y-57343000D03*
X136183000Y-55243000D03*
X136196088Y-64710107D03*
D43*
X101983000Y-39043000D03*
D44*
X136183000Y-60543000D03*
D43*
X116583000Y-44043000D03*
D44*
X130283000Y-64043000D03*
D43*
X118733000Y-70301000D03*
D44*
X132683000Y-66543000D03*
D43*
X107883000Y-35743000D03*
D45*
X133683000Y-47468000D03*
X111983000Y-79843000D03*
D43*
X95183000Y-68043000D03*
D45*
%TO.N,+7.5V*%
X133683000Y-46043000D03*
X128033000Y-62493000D03*
D43*
X112583000Y-69343000D03*
X116567060Y-66101840D03*
D44*
X111883000Y-69343000D03*
D43*
X112583000Y-68543000D03*
X111783000Y-68543000D03*
D45*
X128083000Y-54210000D03*
X128033000Y-70693000D03*
D43*
%TO.N,+3.3V*%
X86983000Y-58443000D03*
X90633000Y-45493000D03*
X98483000Y-49343000D03*
X91983000Y-54343000D03*
X116283000Y-40543000D03*
X100283000Y-44593000D03*
D45*
X120633000Y-73243000D03*
D44*
X112757838Y-58943001D03*
D45*
X121683000Y-73943000D03*
D43*
X88383000Y-54943000D03*
X108833000Y-64293000D03*
X100871165Y-52895365D03*
X99383000Y-68393000D03*
X90733000Y-47493000D03*
D44*
X110383000Y-58143000D03*
D43*
X116583000Y-45843000D03*
D45*
X121733000Y-72943000D03*
D43*
X100983000Y-40343000D03*
D44*
X111183000Y-54943000D03*
D45*
X120583000Y-74243000D03*
D44*
X106783000Y-61943000D03*
X112774515Y-56468000D03*
D43*
X111083000Y-36243000D03*
X126455500Y-61220499D03*
X123483000Y-41243000D03*
X105798000Y-55513500D03*
X126733000Y-69093000D03*
X118783000Y-47643000D03*
D44*
X115980000Y-54946000D03*
%TO.N,/PTA3*%
X113580501Y-55740501D03*
X126483000Y-62943000D03*
X114383000Y-58943000D03*
X123310001Y-60115999D03*
X126383000Y-64243000D03*
X120083000Y-57437932D03*
%TO.N,/PTA5*%
X124483000Y-65143000D03*
%TO.N,/PTA7*%
X123483000Y-65143000D03*
%TO.N,/PTA6*%
X123933000Y-65943000D03*
%TO.N,/PTB5*%
X122683000Y-60243000D03*
%TO.N,/PTA4*%
X115213889Y-59712111D03*
%TO.N,/PTA1*%
X124079967Y-60246033D03*
%TO.N,/PTB4*%
X116783000Y-59743000D03*
%TO.N,/PTB1*%
X109583000Y-56543000D03*
X120100466Y-61625534D03*
X120833000Y-58393000D03*
%TO.N,/PTB0*%
X115183001Y-60542999D03*
%TO.N,/P11*%
X105783000Y-70643000D03*
X106183000Y-61045500D03*
%TO.N,/M1M2*%
X113635500Y-48743000D03*
X114383000Y-56543000D03*
%TO.N,/Reserve_TX*%
X114884302Y-63944953D03*
%TO.N,Net-(MIMXRT1062DVL6B1-VDD_USB_CAP)*%
X111183000Y-57343000D03*
X107733000Y-61418000D03*
%TO.N,/D0*%
X86183000Y-44343000D03*
%TO.N,/CS*%
X110383000Y-54143000D03*
%TO.N,/D2*%
X107583000Y-55043000D03*
%TO.N,/CLK*%
X98283000Y-50643000D03*
%TO.N,/D1*%
X107683000Y-54243000D03*
%TO.N,/D3*%
X98183000Y-52043000D03*
%TO.N,/BMP390_SCL1*%
X111183000Y-58943000D03*
D47*
X129183000Y-64748800D03*
D44*
%TO.N,/BMP390_SDA1*%
X122133000Y-66293000D03*
D43*
X103733000Y-66543000D03*
D44*
X112756585Y-63184517D03*
D43*
X95289250Y-65086750D03*
D44*
%TO.N,/Xbee_TX*%
X92483000Y-54993000D03*
X97283000Y-57743000D03*
X106783000Y-59828000D03*
X98483000Y-60343000D03*
D43*
%TO.N,/Xbee_RX*%
X99583000Y-60393000D03*
D44*
X112783000Y-59743000D03*
%TO.N,/Cam_TX*%
X118383000Y-56543000D03*
X97933000Y-61543003D03*
%TO.N,/Cam_RX*%
X97933000Y-60943000D03*
X115980000Y-56515540D03*
%TO.N,/PyroCH3_4*%
X120313034Y-67312966D03*
X117583000Y-57343000D03*
%TO.N,/ADXL375_SDA2*%
X110383000Y-62143000D03*
D43*
X113833000Y-47693000D03*
D44*
%TO.N,/SD_B0_02*%
X110258000Y-47543000D03*
%TO.N,/PyroCH1_2*%
X115183000Y-51643000D03*
X118283000Y-67043000D03*
%TO.N,/BMO085_SDA*%
X111983000Y-55743000D03*
D43*
X101783000Y-47943000D03*
D44*
%TO.N,/EMC_24*%
X119933000Y-46693000D03*
%TO.N,/EMC_26*%
X123733000Y-50143000D03*
%TO.N,/SD_B0_04*%
X113583000Y-50743000D03*
%TO.N,/SD_B0_03*%
X110258000Y-50668000D03*
%TO.N,/SD_B0_00*%
X112783000Y-54143000D03*
%TO.N,/BMO085_SCL*%
X111983000Y-60543000D03*
D43*
X96683000Y-45643000D03*
X100183000Y-49343000D03*
%TO.N,/ADXL375_SCL2*%
X114533000Y-47143000D03*
D44*
X111183000Y-62943000D03*
%TO.N,/Pyro3_Test_39*%
X114383000Y-61343000D03*
%TO.N,/D+*%
X110383000Y-57343000D03*
X92383000Y-59143000D03*
%TO.N,/EMC_29*%
X115583000Y-49243000D03*
%TO.N,/Pyro1_Test_40*%
X110383000Y-61343000D03*
%TO.N,/Pyro2_Test_41*%
X113756698Y-65619302D03*
%TO.N,/D-*%
X92383000Y-58543000D03*
X109583000Y-57343000D03*
%TO.N,/Reserve_RX*%
X115515547Y-64110453D03*
%TO.N,/Servo1_PWM*%
X120083000Y-63043000D03*
%TO.N,/EMC_28*%
X116633000Y-50693000D03*
%TO.N,/EMC_27*%
X120783000Y-46693000D03*
%TO.N,/Servo4_PWM*%
X120083000Y-58943000D03*
%TO.N,/SD_B0_01*%
X112000602Y-53343000D03*
%TO.N,/PyroCH2_3*%
X119797331Y-67728669D03*
X115983000Y-58143000D03*
%TO.N,/Servo2_PWM*%
X120083000Y-60195500D03*
%TO.N,/Servo3_PWM*%
X120083000Y-59595497D03*
%TO.N,/EMC_25*%
X118268189Y-51328189D03*
%TO.N,/SD_B0_05*%
X112783000Y-50743000D03*
D43*
%TO.N,Net-(BNO1-BOOTN)*%
X99883000Y-40243000D03*
%TO.N,Net-(BNO1-NRST)*%
X96683000Y-44443000D03*
%TO.N,Net-(BNO1-H_SA0{slash}MOSI)*%
X97083000Y-39043000D03*
%TO.N,Net-(MIMXRT1062DVL6B1-DCDC_IN_1)*%
X107783000Y-51043000D03*
D44*
%TO.N,Net-(MIMXRT1062DVL6B1-VDD_HIGH_CAP)*%
X106983000Y-55640500D03*
X107633000Y-56995500D03*
%TO.N,Net-(KMR241GLFS1-COM_1)*%
X121383000Y-62943000D03*
X132283000Y-48543000D03*
%TO.N,Net-(MIMXRT1062DVL6B1-GPIO_B0_03)*%
X122433000Y-50893000D03*
X120075500Y-54905500D03*
%TO.N,Net-(MKL02Z32VFG1-PTB3{slash}IRQ_10)*%
X121283000Y-61943000D03*
%TO.N,Net-(MIMXRT1062DVL6B1-GPIO_AD_B1_15)*%
X106783000Y-67143000D03*
X112083000Y-63443000D03*
%TD*%
D48*
%TO.N,Net-(MIMXRT1062DVL6B1-GPIO_AD_B1_14)*%
X112633000Y-72043000D02*
X103283000Y-72043000D01*
X113283000Y-72693000D02*
X112633000Y-72043000D01*
X114283000Y-72693000D02*
X113283000Y-72693000D01*
X103283000Y-72043000D02*
X102483000Y-71243000D01*
X115233000Y-72493000D02*
X114483000Y-72493000D01*
X115433000Y-72693000D02*
X115233000Y-72493000D01*
X116233000Y-72693000D02*
X115433000Y-72693000D01*
X117433000Y-71493000D02*
X116233000Y-72693000D01*
X117433000Y-69127002D02*
X117433000Y-71493000D01*
X114483000Y-72493000D02*
X114283000Y-72693000D01*
X118751498Y-68245500D02*
X118314502Y-68245500D01*
X118470432Y-66590500D02*
X119060500Y-67180568D01*
X119060500Y-67936498D02*
X118751498Y-68245500D01*
X113283000Y-64505672D02*
X114351668Y-65574340D01*
X113283000Y-63103068D02*
X113283000Y-64505672D01*
X116785558Y-65574340D02*
X117801718Y-66590500D01*
X113583000Y-62803068D02*
X113283000Y-63103068D01*
X117801718Y-66590500D02*
X118470432Y-66590500D01*
X119060500Y-67180568D02*
X119060500Y-67936498D01*
X113583000Y-61343000D02*
X113583000Y-62803068D01*
X118314502Y-68245500D02*
X117433000Y-69127002D01*
X113983000Y-60943000D02*
X113583000Y-61343000D01*
X114351668Y-65574340D02*
X116785558Y-65574340D01*
%TO.N,/N11*%
X106133000Y-65030500D02*
X105533000Y-65630500D01*
X106133000Y-61883093D02*
X106133000Y-65030500D01*
X108757500Y-60568500D02*
X107447593Y-60568500D01*
X107447593Y-60568500D02*
X106133000Y-61883093D01*
X109183000Y-60143000D02*
X108757500Y-60568500D01*
D49*
%TO.N,GNDREF*%
X90465000Y-63125000D02*
X89890000Y-63700000D01*
D50*
X111583000Y-67368000D02*
X112666642Y-67368000D01*
D51*
X105533000Y-67611750D02*
X105533000Y-68774250D01*
D48*
X115583000Y-52943000D02*
X115983000Y-53343000D01*
X111583000Y-52943000D02*
X111983000Y-52543000D01*
D51*
X110183000Y-66418000D02*
X110183000Y-65843000D01*
X109586000Y-58146000D02*
X109586000Y-58707443D01*
D50*
X96383000Y-71193000D02*
X96383000Y-69055500D01*
D48*
X109183000Y-52943000D02*
X109183000Y-52143000D01*
X111583000Y-61743000D02*
X111183000Y-61343000D01*
D49*
X98633000Y-43606000D02*
X99220500Y-43606000D01*
D51*
X107178500Y-57338500D02*
X108383000Y-58543000D01*
X123470500Y-69043000D02*
X123645500Y-69043000D01*
D50*
X96383000Y-69055500D02*
X96445500Y-68993000D01*
D48*
X109175907Y-55343000D02*
X109183000Y-55343000D01*
D50*
X110945500Y-69543000D02*
X110945500Y-70855500D01*
D49*
X101759000Y-43606000D02*
X102846000Y-43606000D01*
X113933000Y-71668000D02*
X113558000Y-71668000D01*
X90465000Y-61790000D02*
X90465000Y-63125000D01*
X85960000Y-63700000D02*
X84140000Y-63700000D01*
D51*
X103173500Y-51840000D02*
X100986000Y-51840000D01*
D49*
X89890000Y-53480000D02*
X85960000Y-53480000D01*
D50*
X95545500Y-57793000D02*
X95545500Y-60043000D01*
D51*
X116870500Y-44330500D02*
X116583000Y-44043000D01*
D49*
X118683000Y-70351000D02*
X118733000Y-70301000D01*
D51*
X109858000Y-66743000D02*
X110183000Y-66418000D01*
X123433000Y-71668000D02*
X123433000Y-69080500D01*
X123645500Y-69043000D02*
X124695500Y-70093000D01*
D49*
X118683000Y-71668000D02*
X118683000Y-70351000D01*
D50*
X89083000Y-47743000D02*
X89783000Y-47743000D01*
X103173500Y-49743000D02*
X101789000Y-49743000D01*
D51*
X109586000Y-58707443D02*
X109818557Y-58940000D01*
D49*
X90465000Y-54055000D02*
X89890000Y-53480000D01*
X98633000Y-41606000D02*
X97046000Y-41606000D01*
D52*
X86783000Y-70643000D02*
X86733000Y-70593000D01*
D50*
X93783000Y-69243000D02*
X94033000Y-68993000D01*
D51*
X99760001Y-53365999D02*
X100237002Y-53843000D01*
D49*
X131508000Y-52668000D02*
X131508000Y-52618000D01*
X90465000Y-55390000D02*
X90465000Y-54055000D01*
X118720500Y-69043000D02*
X118720500Y-70288500D01*
X98783000Y-40243000D02*
X99446000Y-40906000D01*
D50*
X95383000Y-41330500D02*
X96770500Y-41330500D01*
X95545500Y-60043000D02*
X96983000Y-60043000D01*
D49*
X85960000Y-53480000D02*
X85960000Y-54020000D01*
D50*
X103107000Y-61467000D02*
X103107000Y-60043000D01*
D48*
X118383000Y-58343000D02*
X118383000Y-58943000D01*
D50*
X94458000Y-71193000D02*
X93733000Y-70468000D01*
D49*
X134458000Y-52668000D02*
X134458000Y-52618000D01*
D50*
X96770500Y-41330500D02*
X96783000Y-41343000D01*
D51*
X113983000Y-57743000D02*
X113583000Y-57343000D01*
D49*
X113558000Y-71668000D02*
X112483000Y-70593000D01*
X115870500Y-48043000D02*
X115870500Y-46930500D01*
D51*
X107058000Y-67618000D02*
X107933000Y-66743000D01*
D49*
X128258000Y-45643000D02*
X128258000Y-47893000D01*
D51*
X114283000Y-43743000D02*
X116283000Y-43743000D01*
D48*
X107883000Y-62543000D02*
X108383000Y-62543000D01*
D52*
X89183000Y-70643000D02*
X86783000Y-70643000D01*
D51*
X105695500Y-67618000D02*
X107058000Y-67618000D01*
X110386000Y-58940000D02*
X110783000Y-58543000D01*
D50*
X105883000Y-40943000D02*
X105883000Y-39343000D01*
D48*
X117983000Y-55343000D02*
X118383000Y-54943000D01*
X119333192Y-54943000D02*
X119382613Y-54992421D01*
D51*
X123433000Y-69080500D02*
X123470500Y-69043000D01*
D49*
X84140000Y-63700000D02*
X84083000Y-63643000D01*
X129858000Y-47243000D02*
X128258000Y-45643000D01*
X131095500Y-68130500D02*
X132683000Y-66543000D01*
X98808000Y-39368000D02*
X98808000Y-39293000D01*
D51*
X114283000Y-42143000D02*
X116783000Y-42143000D01*
X105533000Y-67455500D02*
X105695500Y-67618000D01*
D50*
X94033000Y-68993000D02*
X96445500Y-68993000D01*
D49*
X98783000Y-40243000D02*
X98783000Y-39393000D01*
D48*
X107783000Y-52043000D02*
X107883000Y-52143000D01*
D50*
X96983000Y-60043000D02*
X97183000Y-60243000D01*
D48*
X118583000Y-58143000D02*
X118383000Y-58343000D01*
D51*
X116283000Y-43743000D02*
X116583000Y-44043000D01*
X109283000Y-66743000D02*
X109858000Y-66743000D01*
X102844500Y-59780500D02*
X103107000Y-60043000D01*
D48*
X118833000Y-52143000D02*
X118783000Y-52143000D01*
X118383000Y-58943000D02*
X117983000Y-59343000D01*
X107583000Y-62243000D02*
X107883000Y-62543000D01*
D49*
X115870500Y-46930500D02*
X115833000Y-46893000D01*
X89890000Y-65136000D02*
X89083000Y-65943000D01*
D48*
X107883000Y-52143000D02*
X108383000Y-52143000D01*
D50*
X89783000Y-47743000D02*
X90683000Y-48643000D01*
D49*
X84020000Y-53480000D02*
X83983000Y-53443000D01*
D51*
X114283000Y-41343000D02*
X114283000Y-42143000D01*
D49*
X99446000Y-40906000D02*
X99446000Y-41543000D01*
X99446000Y-43380500D02*
X99446000Y-41543000D01*
D51*
X118037000Y-44330500D02*
X116870500Y-44330500D01*
D49*
X98783000Y-39393000D02*
X98808000Y-39368000D01*
D51*
X113183000Y-57743000D02*
X112383000Y-56943000D01*
D49*
X89890000Y-63700000D02*
X89890000Y-65136000D01*
X133683000Y-47468000D02*
X133458000Y-47243000D01*
X113970500Y-69105500D02*
X112483000Y-70593000D01*
X129557100Y-63343000D02*
X129076300Y-63823800D01*
D50*
X101483000Y-56393000D02*
X103173500Y-56393000D01*
X117233000Y-66793000D02*
X117283000Y-66843000D01*
D49*
X85960000Y-53480000D02*
X84020000Y-53480000D01*
D51*
X115583000Y-61743000D02*
X115183000Y-62143000D01*
X113983000Y-56943000D02*
X113583000Y-57343000D01*
D49*
X98808000Y-39293000D02*
X98808000Y-36893000D01*
D48*
X118783000Y-62543000D02*
X118893309Y-62543000D01*
D49*
X133458000Y-47243000D02*
X129858000Y-47243000D01*
D51*
X100883000Y-59780500D02*
X102844500Y-59780500D01*
D50*
X104058000Y-46743000D02*
X104058000Y-48018000D01*
D48*
X109183000Y-52143000D02*
X108383000Y-52143000D01*
D49*
X113970500Y-69043000D02*
X113970500Y-69105500D01*
D51*
X107178500Y-57338500D02*
X106083000Y-57338500D01*
D49*
X100946000Y-41543000D02*
X101746000Y-40743000D01*
D51*
X109183000Y-57743000D02*
X109586000Y-58146000D01*
X105533000Y-68774250D02*
X105483000Y-68824250D01*
X116820500Y-42105500D02*
X116783000Y-42143000D01*
D50*
X104058000Y-48018000D02*
X104083000Y-48043000D01*
D49*
X102846000Y-43606000D02*
X103183000Y-43943000D01*
D50*
X110945500Y-70855500D02*
X111583000Y-71493000D01*
D49*
X101746000Y-40743000D02*
X101783000Y-40743000D01*
D50*
X96383000Y-71193000D02*
X94458000Y-71193000D01*
X112666642Y-67368000D02*
X112718340Y-67316302D01*
D51*
X109818557Y-58940000D02*
X110386000Y-58940000D01*
X108383000Y-58543000D02*
X109183000Y-57743000D01*
D48*
X118383000Y-54943000D02*
X119333192Y-54943000D01*
D49*
X85960000Y-54020000D02*
X87083000Y-55143000D01*
D51*
X100986000Y-51840000D02*
X100934156Y-51891844D01*
X100237002Y-53843000D02*
X102873500Y-53843000D01*
D49*
X99220500Y-43606000D02*
X99446000Y-43380500D01*
X131095500Y-68543000D02*
X131095500Y-68130500D01*
D51*
X113183000Y-56943000D02*
X113583000Y-57343000D01*
D48*
X119283000Y-58143000D02*
X118583000Y-58143000D01*
D51*
X118037000Y-42105500D02*
X116820500Y-42105500D01*
D48*
X108780636Y-54947729D02*
X109175907Y-55343000D01*
D49*
X130283000Y-63343000D02*
X129557100Y-63343000D01*
X118720500Y-70288500D02*
X118733000Y-70301000D01*
D51*
X112383000Y-57743000D02*
X112783000Y-57343000D01*
D49*
X97046000Y-41606000D02*
X96783000Y-41343000D01*
D51*
X102873500Y-53843000D02*
X103173500Y-54143000D01*
D50*
X115795500Y-66793000D02*
X117233000Y-66793000D01*
D48*
X118893309Y-62543000D02*
X119295808Y-62945499D01*
X119383000Y-51593000D02*
X118833000Y-52143000D01*
D52*
%TO.N,+7.5V*%
X89183000Y-71893000D02*
X94083000Y-71893000D01*
X94083000Y-71893000D02*
X102383000Y-80193000D01*
D51*
%TO.N,+3.3V*%
X106783000Y-61943000D02*
X106783000Y-61696248D01*
D49*
X100446000Y-42005500D02*
X100446000Y-41543000D01*
D51*
X114386000Y-59740000D02*
X113818557Y-59740000D01*
X116545500Y-40280500D02*
X116283000Y-40543000D01*
D49*
X132098115Y-65339000D02*
X135163800Y-65339000D01*
D51*
X118037000Y-40280500D02*
X116545500Y-40280500D01*
D49*
X100546500Y-42106000D02*
X100446000Y-42005500D01*
X101759000Y-42106000D02*
X100546500Y-42106000D01*
D51*
X114783000Y-59343000D02*
X114386000Y-59740000D01*
D50*
X128033000Y-43393000D02*
X125883000Y-41243000D01*
D51*
X116895500Y-46155500D02*
X116583000Y-45843000D01*
D49*
X131663800Y-65839000D02*
X131163800Y-65839000D01*
D51*
X109183000Y-63943000D02*
X108833000Y-64293000D01*
X113438723Y-58943001D02*
X112757838Y-58943001D01*
X115283000Y-44543000D02*
X116583000Y-45843000D01*
X115180000Y-54946000D02*
X115980000Y-54946000D01*
D49*
X129270500Y-68543000D02*
X131163800Y-66649700D01*
D51*
X109983000Y-58543000D02*
X110383000Y-58143000D01*
D50*
X128258000Y-43393000D02*
X128033000Y-43393000D01*
D51*
X112383000Y-59343000D02*
X112757838Y-58968162D01*
D49*
X131663800Y-65773315D02*
X132098115Y-65339000D01*
X100983000Y-40343000D02*
X100633000Y-39993000D01*
D51*
X106783000Y-61696248D02*
X107536248Y-60943000D01*
X111583000Y-55343000D02*
X111183000Y-54943000D01*
X109183000Y-62543000D02*
X109183000Y-63943000D01*
D49*
X131163800Y-66649700D02*
X131163800Y-65839000D01*
D51*
X112708000Y-56468000D02*
X112383000Y-56143000D01*
X116283000Y-40543000D02*
X114283000Y-40543000D01*
X115583000Y-56143000D02*
X114783000Y-55343000D01*
X107536248Y-60943000D02*
X108383000Y-60943000D01*
D49*
X89083000Y-48993000D02*
X89382999Y-49292999D01*
D51*
X111583000Y-54543000D02*
X111183000Y-54943000D01*
D50*
X128720500Y-69093000D02*
X129270500Y-68543000D01*
D49*
X100583000Y-39243000D02*
X100633000Y-39293000D01*
X100983000Y-40343000D02*
X100446000Y-40880000D01*
X118783000Y-47643000D02*
X118383000Y-48043000D01*
D51*
X112757838Y-58968162D02*
X112757838Y-58943001D01*
D49*
X100583000Y-36843000D02*
X100583000Y-39243000D01*
X110291000Y-39322500D02*
X110291000Y-37035000D01*
D51*
X114783000Y-55343000D02*
X115180000Y-54946000D01*
D49*
X110291000Y-37035000D02*
X111083000Y-36243000D01*
X109683000Y-39930500D02*
X110291000Y-39322500D01*
D50*
X125883000Y-41243000D02*
X123483000Y-41243000D01*
D51*
X114283000Y-44543000D02*
X115283000Y-44543000D01*
D49*
X118383000Y-48043000D02*
X117695500Y-48043000D01*
X91258000Y-48881173D02*
X91258000Y-48018000D01*
D50*
X126733000Y-69093000D02*
X128720500Y-69093000D01*
D49*
X100446000Y-40880000D02*
X100446000Y-41543000D01*
D51*
X118037000Y-46155500D02*
X116895500Y-46155500D01*
D49*
X90846174Y-49292999D02*
X91258000Y-48881173D01*
D51*
X114783000Y-59343000D02*
X115583000Y-58543000D01*
X113583000Y-59087278D02*
X113438723Y-58943001D01*
D49*
X91258000Y-48018000D02*
X90733000Y-47493000D01*
D51*
X113583000Y-59504443D02*
X113583000Y-59087278D01*
X112774515Y-56468000D02*
X112708000Y-56468000D01*
D49*
X131663800Y-65839000D02*
X131663800Y-65773315D01*
X100633000Y-39993000D02*
X100633000Y-39293000D01*
X89382999Y-49292999D02*
X90846174Y-49292999D01*
D51*
X113818557Y-59740000D02*
X113583000Y-59504443D01*
%TO.N,/PTA3*%
X126383000Y-64243000D02*
X126383000Y-63043000D01*
D48*
X120631934Y-57437932D02*
X123310001Y-60115999D01*
X112202377Y-54943000D02*
X113433000Y-54943000D01*
X113983000Y-59343000D02*
X114383000Y-58943000D01*
X111583000Y-53743000D02*
X111983000Y-54143000D01*
X113580501Y-55090501D02*
X113580501Y-55740501D01*
X113433000Y-54943000D02*
X113580501Y-55090501D01*
X111983000Y-54143000D02*
X111983000Y-54723623D01*
D51*
X126383000Y-63043000D02*
X126483000Y-62943000D01*
D48*
X120083000Y-57437932D02*
X120631934Y-57437932D01*
X111983000Y-54723623D02*
X112202377Y-54943000D01*
%TO.N,/PTA5*%
X114431802Y-63756870D02*
X115583000Y-62605672D01*
X115583000Y-62605672D02*
X115583000Y-62543000D01*
X114431802Y-64294198D02*
X114431802Y-63756870D01*
X123902953Y-64562953D02*
X114700557Y-64562953D01*
X114700557Y-64562953D02*
X114431802Y-64294198D01*
X124483000Y-65143000D02*
X123902953Y-64562953D01*
%TO.N,/PTA7*%
X114126802Y-64486802D02*
X114126802Y-63630534D01*
X114783000Y-62974336D02*
X114783000Y-62543000D01*
X114604340Y-64964340D02*
X114126802Y-64486802D01*
X114126802Y-63630534D02*
X114783000Y-62974336D01*
X123483000Y-65143000D02*
X117216889Y-65143000D01*
X117216889Y-65143000D02*
X117038229Y-64964340D01*
X117038229Y-64964340D02*
X114604340Y-64964340D01*
%TO.N,/PTA6*%
X114383000Y-62143000D02*
X114383000Y-62943000D01*
X113821802Y-64613138D02*
X114478004Y-65269340D01*
X116911893Y-65269340D02*
X117285553Y-65643000D01*
X117285553Y-65643000D02*
X123343068Y-65643000D01*
X114478004Y-65269340D02*
X116911893Y-65269340D01*
X113983000Y-61743000D02*
X114383000Y-62143000D01*
X123343068Y-65643000D02*
X123643068Y-65943000D01*
X114383000Y-62943000D02*
X113821802Y-63504198D01*
X113821802Y-63504198D02*
X113821802Y-64613138D01*
X123643068Y-65943000D02*
X123933000Y-65943000D01*
%TO.N,/PTB5*%
X120433000Y-63643000D02*
X119353377Y-63643000D01*
X115183000Y-61343000D02*
X114783000Y-61743000D01*
X116783000Y-61072623D02*
X116783000Y-60762377D01*
X122683000Y-60243000D02*
X121983000Y-60243000D01*
X117583000Y-61872623D02*
X117583000Y-61562377D01*
X116227877Y-60517500D02*
X115957500Y-60787877D01*
X115771041Y-61343000D02*
X115183000Y-61343000D01*
X115957500Y-61156541D02*
X115771041Y-61343000D01*
X115957500Y-60787877D02*
X115957500Y-61156541D01*
X120685500Y-63390500D02*
X120433000Y-63643000D01*
X120685500Y-61540500D02*
X120685500Y-63390500D01*
X121983000Y-60243000D02*
X120685500Y-61540500D01*
X117027877Y-61317500D02*
X116783000Y-61072623D01*
X118383000Y-62362377D02*
X118138123Y-62117500D01*
X116538123Y-60517500D02*
X116227877Y-60517500D01*
X118138123Y-62117500D02*
X117827877Y-62117500D01*
X116783000Y-60762377D02*
X116538123Y-60517500D01*
X117583000Y-61562377D02*
X117338123Y-61317500D01*
X118383000Y-62672623D02*
X118383000Y-62362377D01*
X119353377Y-63643000D02*
X118383000Y-62672623D01*
X117338123Y-61317500D02*
X117027877Y-61317500D01*
X117827877Y-62117500D02*
X117583000Y-61872623D01*
%TO.N,/PTA4*%
X114783000Y-60143000D02*
X115213889Y-59712111D01*
%TO.N,/PTA1*%
X120528000Y-54288000D02*
X120383000Y-54143000D01*
X115183000Y-54143000D02*
X114783000Y-53743000D01*
X124079967Y-60094967D02*
X120528000Y-56543000D01*
X120383000Y-54143000D02*
X115183000Y-54143000D01*
X120528000Y-56543000D02*
X120528000Y-54288000D01*
X124079967Y-60246033D02*
X124079967Y-60094967D01*
%TO.N,/PTB4*%
X116383000Y-59343000D02*
X116783000Y-59743000D01*
%TO.N,/PTB1*%
X120830500Y-60895500D02*
X120830500Y-58395500D01*
X120100466Y-61625534D02*
X120830500Y-60895500D01*
X109983000Y-56943000D02*
X109583000Y-56543000D01*
X120830500Y-58395500D02*
X120833000Y-58393000D01*
%TO.N,/PTB0*%
X115183001Y-60542999D02*
X114783000Y-60943000D01*
%TO.N,/P11*%
X106183000Y-60543000D02*
X106183000Y-61045500D01*
X108383000Y-60143000D02*
X107396711Y-60143000D01*
D51*
X109283000Y-65743000D02*
X109658000Y-65368000D01*
D48*
X107396711Y-60143000D02*
X107096711Y-60443000D01*
D49*
X109120500Y-68543000D02*
X109120500Y-69543000D01*
D50*
X109120500Y-68493000D02*
X109120500Y-69543000D01*
D51*
X108333000Y-68543000D02*
X106233000Y-70643000D01*
D48*
X107096711Y-60443000D02*
X106283000Y-60443000D01*
D51*
X109658000Y-65368000D02*
X111620500Y-65368000D01*
D50*
X111583000Y-66030500D02*
X109120500Y-68493000D01*
D48*
X106283000Y-60443000D02*
X106183000Y-60543000D01*
D50*
X111583000Y-65543000D02*
X111583000Y-66030500D01*
D51*
X106233000Y-70643000D02*
X105783000Y-70643000D01*
X109120500Y-68543000D02*
X108333000Y-68543000D01*
D48*
%TO.N,/M1M2*%
X113483000Y-56443000D02*
X113683000Y-56443000D01*
X113183000Y-58543000D02*
X113283000Y-58443000D01*
X114035500Y-58490500D02*
X113983000Y-58543000D01*
X114783000Y-57743000D02*
X114783000Y-58543000D01*
X114783000Y-56143000D02*
X114383000Y-56543000D01*
X114783000Y-58543000D02*
X114730500Y-58490500D01*
X114730500Y-58490500D02*
X114035500Y-58490500D01*
X113183000Y-56143000D02*
X113483000Y-56443000D01*
X113883000Y-58443000D02*
X113983000Y-58543000D01*
X114783000Y-56943000D02*
X114783000Y-57743000D01*
X113635500Y-48743000D02*
X111595500Y-48743000D01*
X113283000Y-58443000D02*
X113883000Y-58443000D01*
X112383000Y-55343000D02*
X113183000Y-56143000D01*
X114783000Y-56943000D02*
X114383000Y-56543000D01*
X112483000Y-58443000D02*
X112383000Y-58543000D01*
X113683000Y-56443000D02*
X113983000Y-56143000D01*
X112897769Y-58443000D02*
X112483000Y-58443000D01*
X113183000Y-58543000D02*
X112997769Y-58543000D01*
X112997769Y-58543000D02*
X112897769Y-58443000D01*
X113983000Y-56143000D02*
X114383000Y-56543000D01*
D49*
%TO.N,/IMU BNO085/CAP*%
X98633000Y-43106000D02*
X95432500Y-43106000D01*
X95432500Y-43106000D02*
X95383000Y-43155500D01*
D48*
%TO.N,Net-(CONMHF1-SMD-G-T1-SIGNAL)*%
X132683000Y-54493000D02*
X132683000Y-57643000D01*
X132983000Y-54193000D02*
X132683000Y-54493000D01*
D50*
%TO.N,Net-(D4-A)*%
X124045500Y-45643000D02*
X126508000Y-45643000D01*
D48*
%TO.N,/Reserve_TX*%
X114981047Y-63944953D02*
X115983000Y-62943000D01*
X115983000Y-62303959D02*
X116383000Y-61903959D01*
X116383000Y-61903959D02*
X116383000Y-61743000D01*
X115983000Y-62943000D02*
X115983000Y-62303959D01*
X114884302Y-63944953D02*
X114981047Y-63944953D01*
D50*
%TO.N,Net-(D6-A)*%
X100658000Y-71243000D02*
X98183000Y-71243000D01*
D48*
%TO.N,Net-(MIMXRT1062DVL6B1-VDD_USB_CAP)*%
X111583000Y-57743000D02*
X111183000Y-57343000D01*
D49*
%TO.N,Net-(FB1-Pad1)*%
X88983000Y-60082999D02*
X88983000Y-57249946D01*
X89890001Y-60990000D02*
X88983000Y-60082999D01*
X90042946Y-56190000D02*
X90465000Y-56190000D01*
X88983000Y-57249946D02*
X90042946Y-56190000D01*
X93783000Y-54905500D02*
X93720500Y-54843000D01*
X90465000Y-60990000D02*
X89890001Y-60990000D01*
X93783000Y-56190000D02*
X93783000Y-54905500D01*
X90465000Y-56190000D02*
X93783000Y-56190000D01*
D51*
%TO.N,/GPS ZOEM8/ANT*%
X132663800Y-61839000D02*
X132663800Y-58662200D01*
X132663800Y-58662200D02*
X132683000Y-58643000D01*
D48*
%TO.N,/D0*%
X103235500Y-51095500D02*
X96981498Y-51095500D01*
X105713500Y-51614379D02*
X105713500Y-49278500D01*
X104283500Y-50047500D02*
X103235500Y-51095500D01*
X105383000Y-48948000D02*
X104641810Y-48948000D01*
X105713500Y-51614379D02*
X107842121Y-53743000D01*
X90228998Y-44343000D02*
X86183000Y-44343000D01*
X104283500Y-49306310D02*
X104283500Y-50047500D01*
X104641810Y-48948000D02*
X104283500Y-49306310D01*
X108383000Y-53743000D02*
X107842121Y-53743000D01*
X105713500Y-49278500D02*
X105383000Y-48948000D01*
X96981498Y-51095500D02*
X90228998Y-44343000D01*
%TO.N,/CS*%
X110783000Y-53743000D02*
X110383000Y-54143000D01*
%TO.N,/D2*%
X108383000Y-54543000D02*
X108083000Y-54543000D01*
X108083000Y-54543000D02*
X107583000Y-55043000D01*
%TO.N,/CLK*%
X110383000Y-54943000D02*
X109802377Y-54943000D01*
X99633000Y-50643000D02*
X98283000Y-50643000D01*
X107255500Y-52430312D02*
X107255500Y-49815500D01*
X108808500Y-53603689D02*
X108547811Y-53343000D01*
X108168188Y-53343000D02*
X107255500Y-52430312D01*
X108808500Y-53898123D02*
X108808500Y-53603689D01*
X108547811Y-53343000D02*
X108168188Y-53343000D01*
X107255500Y-49815500D02*
X106083000Y-48643000D01*
X110783000Y-54543000D02*
X110383000Y-54943000D01*
X109053377Y-54143000D02*
X108808500Y-53898123D01*
X109583000Y-54343000D02*
X109383000Y-54143000D01*
X109802377Y-54943000D02*
X109583000Y-54723623D01*
X101633000Y-48643000D02*
X99633000Y-50643000D01*
X106083000Y-48643000D02*
X101633000Y-48643000D01*
X109583000Y-54723623D02*
X109583000Y-54343000D01*
X109383000Y-54143000D02*
X109053377Y-54143000D01*
%TO.N,/D1*%
X109183000Y-54543000D02*
X108983000Y-54543000D01*
X108983000Y-54543000D02*
X108583000Y-54143000D01*
X107783000Y-54143000D02*
X107683000Y-54243000D01*
X108583000Y-54143000D02*
X107783000Y-54143000D01*
%TO.N,/D3*%
X105983000Y-54952502D02*
X106325500Y-55295002D01*
X98183000Y-52043000D02*
X99183000Y-52043000D01*
X105423189Y-53415999D02*
X105983000Y-53975810D01*
X101096529Y-53415999D02*
X105423189Y-53415999D01*
X105983000Y-53975810D02*
X105983000Y-54952502D01*
X100562865Y-53422865D02*
X101089663Y-53422865D01*
X99183000Y-52043000D02*
X100562865Y-53422865D01*
X106325500Y-55735500D02*
X106683000Y-56093000D01*
X107633000Y-56093000D02*
X108383000Y-55343000D01*
X106683000Y-56093000D02*
X107633000Y-56093000D01*
X101089663Y-53422865D02*
X101096529Y-53415999D01*
X106325500Y-55295002D02*
X106325500Y-55735500D01*
D51*
%TO.N,/BMP390_SCL1*%
X131163800Y-62339000D02*
X129377590Y-62339000D01*
D48*
X111583000Y-59343000D02*
X111183000Y-58943000D01*
D51*
X128817790Y-64748800D02*
X129183000Y-64748800D01*
X128338800Y-64269810D02*
X128817790Y-64748800D01*
X128338800Y-63377790D02*
X128338800Y-64269810D01*
X129377590Y-62339000D02*
X128338800Y-63377790D01*
%TO.N,/BMP390_SDA1*%
X103583000Y-66693000D02*
X96895500Y-66693000D01*
X125683000Y-66406155D02*
X125683000Y-61215182D01*
X103733000Y-66543000D02*
X103583000Y-66693000D01*
D48*
X112783000Y-63158102D02*
X112783000Y-61343000D01*
D51*
X126227683Y-60670499D02*
X126683318Y-60670499D01*
X122483000Y-66643000D02*
X125446155Y-66643000D01*
X130053248Y-61343000D02*
X130086248Y-61310000D01*
X122133000Y-66293000D02*
X122483000Y-66643000D01*
X131134800Y-61310000D02*
X131663800Y-61839000D01*
X127355819Y-61343000D02*
X130053248Y-61343000D01*
X125446155Y-66643000D02*
X125683000Y-66406155D01*
X125683000Y-61215182D02*
X126227683Y-60670499D01*
D48*
X112783000Y-61343000D02*
X112383000Y-60943000D01*
D51*
X126683318Y-60670499D02*
X127355819Y-61343000D01*
X130086248Y-61310000D02*
X131134800Y-61310000D01*
X96895500Y-66693000D02*
X95289250Y-65086750D01*
D48*
X112756585Y-63184517D02*
X112783000Y-63158102D01*
%TO.N,/Xbee_TX*%
X98483000Y-58943000D02*
X98483000Y-60343000D01*
D51*
X87983000Y-50290000D02*
X89004034Y-50290000D01*
X89004034Y-50290000D02*
X92583000Y-53868966D01*
X88233001Y-46493000D02*
X87983000Y-46743001D01*
D48*
X109983000Y-60143000D02*
X109583000Y-59743000D01*
D51*
X87983000Y-46743001D02*
X87983000Y-50290000D01*
D48*
X109583000Y-59743000D02*
X106868000Y-59743000D01*
D51*
X92583000Y-53868966D02*
X92583000Y-54893000D01*
X92583000Y-54893000D02*
X92483000Y-54993000D01*
D48*
X106868000Y-59743000D02*
X106783000Y-59828000D01*
X97283000Y-57743000D02*
X98483000Y-58943000D01*
D51*
X89083000Y-46493000D02*
X88233001Y-46493000D01*
%TO.N,/Xbee_RX*%
X94503000Y-51000818D02*
X94503000Y-55713000D01*
X96204010Y-57268000D02*
X97479752Y-57268000D01*
X89605182Y-45243000D02*
X94933000Y-50570818D01*
D48*
X113983000Y-60143000D02*
X113712623Y-60143000D01*
D51*
X95858000Y-57068000D02*
X96004010Y-57068000D01*
X99583000Y-59371248D02*
X99583000Y-60393000D01*
D48*
X113712623Y-60143000D02*
X113312623Y-59743000D01*
D51*
X89083000Y-45243000D02*
X89605182Y-45243000D01*
X94503000Y-55713000D02*
X95858000Y-57068000D01*
X94933000Y-50570818D02*
X94503000Y-51000818D01*
D48*
X113312623Y-59743000D02*
X112783000Y-59743000D01*
D51*
X97479752Y-57268000D02*
X99583000Y-59371248D01*
X96004010Y-57068000D02*
X96204010Y-57268000D01*
D48*
%TO.N,/Cam_TX*%
X118183000Y-55743000D02*
X117583000Y-55743000D01*
X118357500Y-56517500D02*
X118357500Y-55917500D01*
X118383000Y-56543000D02*
X118357500Y-56517500D01*
X118357500Y-55917500D02*
X118183000Y-55743000D01*
X97933000Y-61543003D02*
X95132997Y-61543003D01*
X117583000Y-55743000D02*
X117183000Y-55343000D01*
X89183000Y-67493000D02*
X89183000Y-68143000D01*
X95132997Y-61543003D02*
X89183000Y-67493000D01*
%TO.N,/Cam_RX*%
X94994978Y-60943000D02*
X88105500Y-67832478D01*
X88105500Y-68865500D02*
X88633000Y-69393000D01*
X115980000Y-56515540D02*
X115980000Y-55746000D01*
X88633000Y-69393000D02*
X89183000Y-69393000D01*
X97933000Y-60943000D02*
X94994978Y-60943000D01*
X115980000Y-55746000D02*
X116383000Y-55343000D01*
X88105500Y-67832478D02*
X88105500Y-68865500D01*
%TO.N,/PyroCH3_4*%
X124183000Y-68343000D02*
X124595500Y-68343000D01*
X115983000Y-57343000D02*
X117583000Y-57343000D01*
X120313034Y-67312966D02*
X121340568Y-68340500D01*
X124595500Y-68343000D02*
X125295500Y-69043000D01*
X124180500Y-68340500D02*
X124183000Y-68343000D01*
X125295500Y-69043000D02*
X125295500Y-71630500D01*
X125295500Y-71630500D02*
X125333000Y-71668000D01*
X115583000Y-56943000D02*
X115983000Y-57343000D01*
X121340568Y-68340500D02*
X124180500Y-68340500D01*
D49*
%TO.N,/ADXL375_SDA2*%
X113833000Y-47693000D02*
X112087000Y-45947000D01*
X112087000Y-45947000D02*
X112087000Y-44543000D01*
D48*
X110383000Y-62143000D02*
X110783000Y-62543000D01*
%TO.N,/SD_B0_02*%
X110485500Y-47770500D02*
X110485500Y-50245500D01*
X110485500Y-50245500D02*
X112383000Y-52143000D01*
X110258000Y-47543000D02*
X110485500Y-47770500D01*
%TO.N,/PyroCH1_2*%
X114783000Y-52943000D02*
X115183000Y-52543000D01*
X116283000Y-69043000D02*
X118283000Y-67043000D01*
X115795500Y-69043000D02*
X116283000Y-69043000D01*
X115183000Y-52543000D02*
X115183000Y-51643000D01*
X115795500Y-69043000D02*
X115795500Y-71630500D01*
X115795500Y-71630500D02*
X115833000Y-71668000D01*
%TO.N,/BMO085_SDA*%
X111983000Y-55743000D02*
X111983000Y-59743000D01*
D49*
X101759000Y-47919000D02*
X101783000Y-47943000D01*
X101759000Y-46106000D02*
X101759000Y-47919000D01*
D48*
X111983000Y-59743000D02*
X111583000Y-60143000D01*
%TO.N,/EMC_24*%
X116783000Y-53343000D02*
X116783000Y-52774336D01*
X119933000Y-46693000D02*
X119933000Y-48352205D01*
X119561000Y-48724205D02*
X119176651Y-48724205D01*
X116383000Y-53743000D02*
X116783000Y-53343000D01*
X117014336Y-52543000D02*
X118163623Y-52543000D01*
X118163623Y-52543000D02*
X118383000Y-52323623D01*
X116783000Y-52774336D02*
X117014336Y-52543000D01*
X119176651Y-49654205D02*
X119561000Y-49654205D01*
X118804651Y-49096205D02*
X118804651Y-49282205D01*
X119933000Y-50343000D02*
X119933000Y-50026205D01*
X118383000Y-52323623D02*
X118383000Y-51893000D01*
X118383000Y-51893000D02*
X119933000Y-50343000D01*
X119561000Y-49654205D02*
G75*
G02*
X119932995Y-50026205I0J-371995D01*
G01*
X119933000Y-48352205D02*
G75*
G02*
X119561000Y-48724200I-372000J5D01*
G01*
X118804651Y-49282205D02*
G75*
G03*
X119176651Y-49654249I372049J5D01*
G01*
X119176651Y-48724205D02*
G75*
G03*
X118804705Y-49096205I49J-371995D01*
G01*
%TO.N,/EMC_26*%
X120739917Y-51888928D02*
X120655064Y-51973780D01*
X122104670Y-51217214D02*
X122835565Y-51948109D01*
X121765259Y-51217214D02*
X121680406Y-51302066D01*
X123259828Y-51863257D02*
X123174977Y-51948109D01*
X123733000Y-50143000D02*
X122975698Y-50900302D01*
X122975698Y-51239714D02*
X123259829Y-51523845D01*
X121079328Y-51888928D02*
X121987012Y-52796612D01*
X120854377Y-53021622D02*
X120507500Y-53368500D01*
X122411275Y-52711760D02*
X122326424Y-52796612D01*
X121957463Y-51918535D02*
X121957464Y-51918536D01*
X120507500Y-53368500D02*
X118357500Y-53368500D01*
X121680406Y-51641478D02*
X121957463Y-51918535D01*
X120655064Y-52313192D02*
X120939229Y-52597357D01*
X120939229Y-52936768D02*
X120854377Y-53021622D01*
X121957464Y-51918536D02*
X122411276Y-52372348D01*
X118357500Y-53368500D02*
X117983000Y-53743000D01*
X122975698Y-50900302D02*
G75*
G03*
X122975706Y-51239706I169702J-169698D01*
G01*
X121680406Y-51302066D02*
G75*
G03*
X121680378Y-51641506I169694J-169734D01*
G01*
X122104670Y-51217214D02*
G75*
G03*
X121765258Y-51217213I-169706J-169703D01*
G01*
X122411276Y-52372348D02*
G75*
G02*
X122411322Y-52711807I-169676J-169752D01*
G01*
X121079328Y-51888928D02*
G75*
G03*
X120739918Y-51888928I-169705J-169703D01*
G01*
X120655064Y-51973780D02*
G75*
G03*
X120655050Y-52313206I169736J-169720D01*
G01*
X123174977Y-51948109D02*
G75*
G02*
X122835565Y-51948109I-169706J169701D01*
G01*
X123259829Y-51523845D02*
G75*
G02*
X123259878Y-51863306I-169729J-169755D01*
G01*
X120939229Y-52597357D02*
G75*
G02*
X120939267Y-52936805I-169729J-169743D01*
G01*
X122326424Y-52796612D02*
G75*
G02*
X121987012Y-52796612I-169706J169701D01*
G01*
%TO.N,/SD_B0_04*%
X113583000Y-52543000D02*
X113583000Y-50743000D01*
X113183000Y-52943000D02*
X113583000Y-52543000D01*
%TO.N,/SD_B0_03*%
X110258000Y-50668000D02*
X111583000Y-51993000D01*
X111583000Y-51993000D02*
X111583000Y-52143000D01*
%TO.N,/SD_B0_00*%
X112383000Y-54543000D02*
X112783000Y-54143000D01*
D49*
%TO.N,/BMO085_SCL*%
X96408000Y-45918000D02*
X96683000Y-45643000D01*
X96408000Y-48581173D02*
X96408000Y-45918000D01*
X97744827Y-49918000D02*
X96408000Y-48581173D01*
D48*
X112383000Y-60143000D02*
X111983000Y-60543000D01*
D49*
X99639366Y-49918000D02*
X97744827Y-49918000D01*
X100946000Y-48611366D02*
X99639366Y-49918000D01*
X100946000Y-46169000D02*
X100946000Y-48611366D01*
%TO.N,/ADXL375_SCL2*%
X114533000Y-47143000D02*
X113185000Y-45795000D01*
D48*
X111583000Y-62543000D02*
X111183000Y-62943000D01*
D49*
X113185000Y-45795000D02*
X113185000Y-44641000D01*
D48*
%TO.N,/Pyro3_Test_39*%
X113183000Y-60143000D02*
X113583000Y-60543000D01*
X113583000Y-60543000D02*
X114383000Y-60543000D01*
X114383000Y-60543000D02*
X114383000Y-61343000D01*
%TO.N,/D+*%
X110383000Y-57343000D02*
X110783000Y-57743000D01*
D49*
X90465000Y-58340000D02*
X91039999Y-58340000D01*
D48*
X92235500Y-58995500D02*
X92195568Y-58995500D01*
X91540068Y-58340000D02*
X90465000Y-58340000D01*
D49*
X91315000Y-58615001D02*
X91315000Y-59062054D01*
X91039999Y-58340000D02*
X91315000Y-58615001D01*
D48*
X92383000Y-59143000D02*
X92235500Y-58995500D01*
X92195568Y-58995500D02*
X91540068Y-58340000D01*
D49*
X91315000Y-59062054D02*
X91037054Y-59340000D01*
X91037054Y-59340000D02*
X90465000Y-59340000D01*
D48*
%TO.N,/EMC_29*%
X115910500Y-50938116D02*
X115910500Y-51815500D01*
X115910500Y-50088116D02*
X115910500Y-49570500D01*
X115688418Y-52037582D02*
X115583000Y-52143000D01*
X116160500Y-50338116D02*
X116160500Y-50688116D01*
X115910500Y-49570500D02*
X115583000Y-49243000D01*
X115910500Y-51815500D02*
X115688418Y-52037582D01*
X115910500Y-50088116D02*
G75*
G03*
X116035500Y-50213100I125000J16D01*
G01*
X116035500Y-50813116D02*
G75*
G03*
X115910516Y-50938116I0J-124984D01*
G01*
X116160500Y-50688116D02*
G75*
G02*
X116035500Y-50813100I-125000J16D01*
G01*
X116035500Y-50213116D02*
G75*
G02*
X116160484Y-50338116I0J-124984D01*
G01*
%TO.N,/Pyro1_Test_40*%
X110783000Y-60943000D02*
X110383000Y-61343000D01*
%TO.N,/Pyro2_Test_41*%
X113756698Y-65466698D02*
X112185500Y-63895500D01*
X111895568Y-63895500D02*
X111583000Y-63582932D01*
X113756698Y-65619302D02*
X113756698Y-65466698D01*
X111583000Y-63262966D02*
X111983000Y-62862966D01*
X111983000Y-62862966D02*
X111983000Y-61343000D01*
X111983000Y-61343000D02*
X111583000Y-60943000D01*
X112185500Y-63895500D02*
X111895568Y-63895500D01*
X111583000Y-63582932D02*
X111583000Y-63262966D01*
%TO.N,/D-*%
X91606088Y-57840000D02*
X90465000Y-57840000D01*
X92383000Y-58543000D02*
X92309088Y-58543000D01*
D49*
X89615000Y-58564999D02*
X89890001Y-58840000D01*
X89890001Y-58840000D02*
X90465000Y-58840000D01*
X89890001Y-57840000D02*
X89615000Y-58115001D01*
D48*
X92309088Y-58543000D02*
X91606088Y-57840000D01*
D49*
X89615000Y-58115001D02*
X89615000Y-58564999D01*
X90465000Y-57840000D02*
X89890001Y-57840000D01*
D48*
X109983000Y-57743000D02*
X109583000Y-57343000D01*
%TO.N,/Reserve_RX*%
X115515547Y-64110453D02*
X116383000Y-63243000D01*
X116383000Y-63243000D02*
X116383000Y-62543000D01*
%TO.N,/Servo1_PWM*%
X119183000Y-60643000D02*
X119108500Y-60568500D01*
X120083000Y-63043000D02*
X119183000Y-62143000D01*
X119108500Y-60568500D02*
X117608500Y-60568500D01*
X119183000Y-62143000D02*
X119183000Y-60643000D01*
X117608500Y-60568500D02*
X117183000Y-60143000D01*
%TO.N,/EMC_28*%
X116633000Y-50693000D02*
X116383000Y-50943000D01*
X116383000Y-50943000D02*
X116383000Y-52143000D01*
%TO.N,/EMC_27*%
X120666420Y-49922984D02*
X120666420Y-51291803D01*
X118883000Y-52943000D02*
X118783000Y-52943000D01*
X120534197Y-51291803D02*
X118883000Y-52943000D01*
X120783000Y-46693000D02*
X120666420Y-46809580D01*
X120666420Y-51291803D02*
X120534197Y-51291803D01*
X121392548Y-49682984D02*
X120906420Y-49682984D01*
X121632548Y-49322984D02*
X121632548Y-49442984D01*
X120906420Y-49082984D02*
X121392548Y-49082984D01*
X120666420Y-46809580D02*
X120666420Y-48842984D01*
X121632548Y-49442984D02*
G75*
G02*
X121392548Y-49683048I-240048J-16D01*
G01*
X120666420Y-48842984D02*
G75*
G03*
X120906420Y-49082980I239980J-16D01*
G01*
X120906420Y-49682984D02*
G75*
G03*
X120666384Y-49922984I-20J-240016D01*
G01*
X121392548Y-49082984D02*
G75*
G02*
X121632516Y-49322984I-48J-240016D01*
G01*
%TO.N,/Servo4_PWM*%
X119183000Y-58943000D02*
X118783000Y-59343000D01*
X120083000Y-58943000D02*
X119183000Y-58943000D01*
%TO.N,/SD_B0_01*%
X112000602Y-53360602D02*
X112383000Y-53743000D01*
X112000602Y-53343000D02*
X112000602Y-53360602D01*
%TO.N,/PyroCH2_3*%
X120545500Y-68476838D02*
X120545500Y-69043000D01*
X115583000Y-57743000D02*
X115983000Y-58143000D01*
X120545500Y-71630500D02*
X120583000Y-71668000D01*
X119797331Y-67728669D02*
X120545500Y-68476838D01*
X120545500Y-69043000D02*
X120545500Y-71630500D01*
%TO.N,/Servo2_PWM*%
X120030500Y-60143000D02*
X118783000Y-60143000D01*
X120083000Y-60195500D02*
X120030500Y-60143000D01*
%TO.N,/Servo3_PWM*%
X119935497Y-59743000D02*
X118383000Y-59743000D01*
X120083000Y-59595497D02*
X119935497Y-59743000D01*
X118383000Y-59743000D02*
X117983000Y-60143000D01*
%TO.N,/EMC_25*%
X116383000Y-52743000D02*
X116783000Y-52343000D01*
X116783000Y-52343000D02*
X116783000Y-51874336D01*
X116998668Y-51658668D02*
X117937710Y-51658668D01*
X116383000Y-52943000D02*
X116383000Y-52743000D01*
X116783000Y-51874336D02*
X116998668Y-51658668D01*
X117937710Y-51658668D02*
X118268189Y-51328189D01*
%TO.N,/SD_B0_05*%
X112783000Y-50743000D02*
X112783000Y-52543000D01*
X112783000Y-52543000D02*
X112383000Y-52943000D01*
%TO.N,Net-(Q2-D)*%
X118720500Y-76043000D02*
X118720500Y-74455500D01*
X118720500Y-74455500D02*
X119633000Y-73543000D01*
%TO.N,Net-(Q3-D)*%
X123383000Y-74543000D02*
X124383000Y-73543000D01*
X123383000Y-76043000D02*
X123383000Y-74543000D01*
D52*
%TO.N,/HighCurrentComponents/Pyro1_HighSide*%
X113223000Y-81043000D02*
X113253000Y-81043000D01*
X115795500Y-78500500D02*
X115795500Y-76043000D01*
X113253000Y-81043000D02*
X115795500Y-78500500D01*
%TO.N,/HighCurrentComponents/Pyro2_HighSide*%
X120533000Y-76055500D02*
X120545500Y-76043000D01*
X118303000Y-81043000D02*
X120533000Y-78813000D01*
X120533000Y-78813000D02*
X120533000Y-76055500D01*
%TO.N,/HighCurrentComponents/Pyro3_HighSide*%
X125208000Y-79218000D02*
X125208000Y-76043000D01*
X123383000Y-81043000D02*
X125208000Y-79218000D01*
D51*
%TO.N,Net-(ADXL1-ADDR{slash}SDO)*%
X111670500Y-43743000D02*
X112087000Y-43743000D01*
X112710000Y-39672500D02*
X113185000Y-40147500D01*
X109683000Y-41755500D02*
X111670500Y-43743000D01*
X113185000Y-40147500D02*
X113185000Y-40445000D01*
X109683000Y-41755500D02*
X109683000Y-41268000D01*
X111278500Y-39672500D02*
X112710000Y-39672500D01*
X109683000Y-41268000D02*
X111278500Y-39672500D01*
D49*
%TO.N,Net-(BNO1-BOOTN)*%
X99883000Y-41480000D02*
X99946000Y-41543000D01*
X99883000Y-40243000D02*
X99883000Y-41480000D01*
%TO.N,Net-(BNO1-NRST)*%
X97020000Y-44106000D02*
X96683000Y-44443000D01*
X98633000Y-44106000D02*
X97020000Y-44106000D01*
%TO.N,Net-(BNO1-H_SA0{slash}MOSI)*%
X95108000Y-45068000D02*
X96921173Y-45068000D01*
X94283000Y-44243000D02*
X95108000Y-45068000D01*
X97383000Y-46743000D02*
X99834500Y-46743000D01*
X96921173Y-45068000D02*
X97383000Y-45529827D01*
X99834500Y-46743000D02*
X99946000Y-46631500D01*
X94283000Y-40243000D02*
X94283000Y-44243000D01*
X97383000Y-45529827D02*
X97383000Y-46743000D01*
X99946000Y-46631500D02*
X99946000Y-46169000D01*
X95483000Y-39043000D02*
X94283000Y-40243000D01*
X97083000Y-39043000D02*
X95483000Y-39043000D01*
D50*
%TO.N,Net-(BNO1-CLKSEL1{slash}XOUT32)*%
X105883000Y-45630500D02*
X105020500Y-44768000D01*
X105883000Y-46743000D02*
X105883000Y-45630500D01*
D49*
X103358500Y-43106000D02*
X105020500Y-44768000D01*
X101759000Y-43106000D02*
X103358500Y-43106000D01*
D50*
%TO.N,Net-(BNO1-XIN32)*%
X105020500Y-42918000D02*
X105020500Y-41905500D01*
D49*
X104708500Y-42606000D02*
X105020500Y-42918000D01*
X101759000Y-42606000D02*
X104708500Y-42606000D01*
D50*
X105020500Y-41905500D02*
X104058000Y-40943000D01*
D51*
%TO.N,Net-(C10-Pad1)*%
X102186000Y-61605500D02*
X103173500Y-62593000D01*
X100883000Y-61605500D02*
X102186000Y-61605500D01*
D48*
%TO.N,Net-(MIMXRT1062DVL6B1-RTC_XTALI)*%
X108783000Y-58943000D02*
X105183000Y-58943000D01*
X109183000Y-58543000D02*
X108783000Y-58943000D01*
D50*
X104998500Y-62593000D02*
X104998500Y-60084500D01*
X104998500Y-60084500D02*
X104957000Y-60043000D01*
D48*
X105183000Y-58943000D02*
X104957000Y-59169000D01*
X104957000Y-59169000D02*
X104957000Y-60043000D01*
D51*
%TO.N,Net-(MIMXRT1062DVL6B1-DCDC_IN_1)*%
X107883000Y-51043000D02*
X107783000Y-51043000D01*
X110783000Y-52943000D02*
X110386000Y-53340000D01*
X109580000Y-53239999D02*
X109580000Y-51978557D01*
X109680001Y-53340000D02*
X109580000Y-53239999D01*
X109347443Y-51746000D02*
X108586000Y-51746000D01*
X109580000Y-51978557D02*
X109347443Y-51746000D01*
X108586000Y-51746000D02*
X107883000Y-51043000D01*
X110386000Y-53340000D02*
X109680001Y-53340000D01*
X110783000Y-52143000D02*
X110783000Y-52943000D01*
D50*
%TO.N,Net-(MIMXRT1062DVL6B1-VDD_HIGH_CAP)*%
X105303029Y-51840000D02*
X104998500Y-51840000D01*
X106983000Y-55640500D02*
X106983000Y-55418636D01*
D51*
X108383000Y-57743000D02*
X107635500Y-56995500D01*
D50*
X104998500Y-51840000D02*
X104998500Y-49743000D01*
X106483000Y-54918636D02*
X106483000Y-53019971D01*
D48*
X107635500Y-56995500D02*
X107633000Y-56995500D01*
D50*
X106983000Y-55418636D02*
X106483000Y-54918636D01*
X106483000Y-53019971D02*
X105303029Y-51840000D01*
D48*
%TO.N,Net-(MIMXRT1062DVL6B1-NVCC_PLL)*%
X95388000Y-55948000D02*
X94830500Y-55390500D01*
X97433000Y-54843000D02*
X102721810Y-54843000D01*
X104204500Y-59043000D02*
X102955666Y-59043000D01*
X104549310Y-63295500D02*
X104204500Y-62950690D01*
X104204500Y-62950690D02*
X104204500Y-59043000D01*
X103451000Y-54845500D02*
X104998500Y-56393000D01*
X95343810Y-53893000D02*
X96483000Y-53893000D01*
X102955666Y-59043000D02*
X99860666Y-55948000D01*
X102721810Y-54843000D02*
X102724310Y-54845500D01*
X94830500Y-55390500D02*
X94830500Y-54406310D01*
X99860666Y-55948000D02*
X95388000Y-55948000D01*
X105713500Y-63029690D02*
X105447690Y-63295500D01*
X105447690Y-63295500D02*
X104549310Y-63295500D01*
D51*
X104998500Y-54143000D02*
X104998500Y-56393000D01*
D48*
X96483000Y-53893000D02*
X97433000Y-54843000D01*
X102724310Y-54845500D02*
X103451000Y-54845500D01*
X105983000Y-59343000D02*
X105713500Y-59612500D01*
X105713500Y-59612500D02*
X105713500Y-63029690D01*
X94830500Y-54406310D02*
X95343810Y-53893000D01*
X108383000Y-59343000D02*
X105983000Y-59343000D01*
%TO.N,Net-(MIMXRT1062DVL6B1-VDD_SNVS_CAP)*%
X109583000Y-60743000D02*
X109783000Y-60543000D01*
X113811802Y-66071802D02*
X113569266Y-66071802D01*
X113569266Y-66071802D02*
X113304198Y-65806734D01*
X108305500Y-64565500D02*
X108305500Y-64074502D01*
X109199165Y-64820500D02*
X108560500Y-64820500D01*
X108305500Y-64074502D02*
X108614502Y-63765500D01*
X108783000Y-61543000D02*
X108983000Y-61343000D01*
X110283000Y-60543000D02*
X110383000Y-60443000D01*
X109347811Y-61343000D02*
X109583000Y-61107811D01*
X113304198Y-65806734D02*
X113304198Y-65564198D01*
X109526665Y-64493000D02*
X109199165Y-64820500D01*
X113970500Y-66230500D02*
X113811802Y-66071802D01*
X113970500Y-66793000D02*
X113970500Y-66230500D01*
X110383000Y-59743000D02*
X109983000Y-59343000D01*
X110383000Y-60443000D02*
X110383000Y-59743000D01*
X108614502Y-63765500D02*
X108783000Y-63765500D01*
X109783000Y-60543000D02*
X110283000Y-60543000D01*
X108983000Y-61343000D02*
X109347811Y-61343000D01*
X108783000Y-63765500D02*
X108783000Y-61543000D01*
X108560500Y-64820500D02*
X108305500Y-64565500D01*
X112233000Y-64493000D02*
X109526665Y-64493000D01*
X109583000Y-61107811D02*
X109583000Y-60743000D01*
X113304198Y-65564198D02*
X112233000Y-64493000D01*
%TO.N,Net-(MIMXRT1062DVL6B1-DCDC_LP_1)*%
X109983000Y-51032932D02*
X109983000Y-52143000D01*
X109983000Y-52143000D02*
X109983000Y-52943000D01*
X109733836Y-48779664D02*
X109733836Y-50783768D01*
X109733836Y-50783768D02*
X109983000Y-51032932D01*
%TO.N,Net-(MIMXRT1062DVL6B1-GPIO_B0_03)*%
X122220500Y-50680500D02*
X122220500Y-47893000D01*
X118602377Y-57343000D02*
X118912623Y-57343000D01*
X120083000Y-56172623D02*
X120083000Y-54913000D01*
X116383000Y-57743000D02*
X116783000Y-58143000D01*
X120083000Y-54913000D02*
X120075500Y-54905500D01*
X116783000Y-58143000D02*
X118112623Y-58143000D01*
X118383000Y-57562377D02*
X118602377Y-57343000D01*
X122433000Y-50893000D02*
X122220500Y-50680500D01*
X118112623Y-58143000D02*
X118383000Y-57872623D01*
X118383000Y-57872623D02*
X118383000Y-57562377D01*
X118912623Y-57343000D02*
X120083000Y-56172623D01*
D49*
%TO.N,Net-(U-BLOX_ZOE_M8Q-0-1-V_CORE)*%
X127483000Y-64055500D02*
X127251300Y-63823800D01*
X130390107Y-65343000D02*
X127483000Y-65343000D01*
X131163800Y-64839000D02*
X130887000Y-64839000D01*
X127483000Y-65343000D02*
X127483000Y-64055500D01*
X130783000Y-64943000D02*
X130783000Y-64950107D01*
X130783000Y-64950107D02*
X130390107Y-65343000D01*
X130887000Y-64839000D02*
X130783000Y-64943000D01*
D50*
%TO.N,Net-(D2-K)*%
X124133000Y-43393000D02*
X126508000Y-43393000D01*
%TO.N,Net-(D5-A)*%
X124045500Y-47893000D02*
X126508000Y-47893000D01*
D49*
%TO.N,Net-(USB_C_Receptacle_USB2.0_14P1-CC1)*%
X93267500Y-57340000D02*
X93720500Y-57793000D01*
X90465000Y-57340000D02*
X93267500Y-57340000D01*
%TO.N,Net-(USB_C_Receptacle_USB2.0_14P1-CC2)*%
X93423500Y-60340000D02*
X93720500Y-60043000D01*
X90465000Y-60340000D02*
X93423500Y-60340000D01*
%TO.N,Net-(U-BLOX_ZOE_M8Q-0-1-V_DCDC_OUT)*%
X130959793Y-65339000D02*
X130555793Y-65743000D01*
X129283000Y-65743000D02*
X127483000Y-67543000D01*
X131163800Y-65339000D02*
X130959793Y-65339000D01*
X127483000Y-67543000D02*
X127483000Y-67793000D01*
X130555793Y-65743000D02*
X129283000Y-65743000D01*
D51*
%TO.N,Net-(MKL02Z32VFG1-PTB3{slash}IRQ_10)*%
X123358000Y-44443000D02*
X122308000Y-43393000D01*
X121283000Y-61943000D02*
X121283000Y-61643000D01*
X127383000Y-52243000D02*
X127383000Y-44989010D01*
X121283000Y-61643000D02*
X122183000Y-60743000D01*
X124583000Y-55043000D02*
X127383000Y-52243000D01*
X124254752Y-60743000D02*
X124583000Y-60414752D01*
X127383000Y-44989010D02*
X126836990Y-44443000D01*
X124583000Y-60414752D02*
X124583000Y-55043000D01*
X122183000Y-60743000D02*
X124254752Y-60743000D01*
X126836990Y-44443000D02*
X123358000Y-44443000D01*
D48*
%TO.N,Net-(Q1-D)*%
X113970500Y-76043000D02*
X113970500Y-74455500D01*
X113970500Y-74455500D02*
X114883000Y-73543000D01*
D49*
%TO.N,Net-(U-BLOX_ZOE_M8Q-0-1-RTC_1)*%
X134163800Y-65839000D02*
X134263800Y-65939000D01*
X134263800Y-67968000D02*
X133488800Y-68743000D01*
X134263800Y-65939000D02*
X134263800Y-67968000D01*
%TO.N,Net-(U-BLOX_ZOE_M8Q-0-1-RTC_0)*%
X134663800Y-65839000D02*
X134663800Y-68068000D01*
X134663800Y-68068000D02*
X135338800Y-68743000D01*
D48*
%TO.N,Net-(MIMXRT1062DVL6B1-USB_OTG1_VBUS)*%
X108783000Y-56543000D02*
X106083000Y-56543000D01*
X95645500Y-55643000D02*
X95545500Y-55543000D01*
X106083000Y-56543000D02*
X105530500Y-57095500D01*
X109183000Y-56143000D02*
X108783000Y-56543000D01*
X99987002Y-55643000D02*
X95645500Y-55643000D01*
X95545500Y-55543000D02*
X95545500Y-55145500D01*
X105530500Y-57095500D02*
X101439502Y-57095500D01*
X101439502Y-57095500D02*
X99987002Y-55643000D01*
%TO.N,Net-(MIMXRT1062DVL6B1-GPIO_EMC_08)*%
X115610500Y-46365500D02*
X115060500Y-46915500D01*
X114357500Y-51218500D02*
X114357500Y-53118500D01*
X114107500Y-53368500D02*
X113557500Y-53368500D01*
X119701190Y-45643000D02*
X118473690Y-46870500D01*
X114357500Y-53118500D02*
X114107500Y-53368500D01*
X122220500Y-45643000D02*
X119701190Y-45643000D01*
X115060500Y-50515500D02*
X114357500Y-51218500D01*
X113557500Y-53368500D02*
X113183000Y-53743000D01*
X116051498Y-46365500D02*
X115610500Y-46365500D01*
X115060500Y-46915500D02*
X115060500Y-50515500D01*
X118473690Y-46870500D02*
X116556498Y-46870500D01*
X116556498Y-46870500D02*
X116051498Y-46365500D01*
%TO.N,Net-(MIMXRT1062DVL6B1-GPIO_AD_B1_15)*%
X112083000Y-63218170D02*
X112083000Y-63443000D01*
X112383000Y-62543000D02*
X112383000Y-62918170D01*
X106783000Y-67143000D02*
X106783000Y-66643000D01*
X106783000Y-66643000D02*
X106733000Y-66593000D01*
X104883000Y-66593000D02*
X102483000Y-68993000D01*
X106733000Y-66593000D02*
X104883000Y-66593000D01*
X112383000Y-62918170D02*
X112083000Y-63218170D01*
D50*
%TO.N,Net-(D3-A)*%
X100658000Y-68993000D02*
X98195500Y-68993000D01*
%TO.N,/N11*%
X107820500Y-65630500D02*
X107933000Y-65743000D01*
X105533000Y-65630500D02*
X107820500Y-65630500D01*
D49*
%TO.N,Net-(KMR241GLFS1-COM_1)*%
X125283000Y-60743000D02*
X123083000Y-62943000D01*
X125283000Y-54873330D02*
X125283000Y-60743000D01*
X129683000Y-48543000D02*
X127758000Y-50468000D01*
X132283000Y-48543000D02*
X129683000Y-48543000D01*
X127758000Y-50468000D02*
X127758000Y-52398330D01*
X127758000Y-52398330D02*
X125283000Y-54873330D01*
X123083000Y-62943000D02*
X121383000Y-62943000D01*
%TO.N,GNDREF*%
X129583000Y-47943000D02*
X128308000Y-47943000D01*
X128308000Y-47943000D02*
X128258000Y-47893000D01*
%TD*%
%TA.AperFunction,Conductor*%
%TO.N,GNDREF*%
G36*
X130848795Y-65998292D02*
G01*
X130884448Y-66058381D01*
X130888300Y-66089048D01*
X130888300Y-66484222D01*
X130868615Y-66551261D01*
X130851981Y-66571903D01*
X130431203Y-66992681D01*
X130369880Y-67026166D01*
X130343522Y-67029000D01*
X130005602Y-67029000D01*
X129938563Y-67009315D01*
X129892808Y-66956511D01*
X129881610Y-66906406D01*
X129873275Y-66171461D01*
X129872962Y-66143903D01*
X129891885Y-66076648D01*
X129944167Y-66030297D01*
X129996954Y-66018500D01*
X130610592Y-66018500D01*
X130610593Y-66018500D01*
X130711851Y-65976557D01*
X130711852Y-65976555D01*
X130716846Y-65974487D01*
X130786315Y-65967018D01*
X130848795Y-65998292D01*
G37*
%TD.AperFunction*%
%TA.AperFunction,Conductor*%
G36*
X132394482Y-65634185D02*
G01*
X132440237Y-65686989D01*
X132450181Y-65756147D01*
X132449063Y-65762674D01*
X132447165Y-65772220D01*
X132438300Y-65816790D01*
X132438300Y-65861207D01*
X132438300Y-65861208D01*
X132438301Y-65861210D01*
X132451383Y-65926986D01*
X132501223Y-66001577D01*
X132544206Y-66030297D01*
X132575812Y-66051416D01*
X132575814Y-66051417D01*
X132641589Y-66064500D01*
X132686010Y-66064499D01*
X132751786Y-66051417D01*
X132826377Y-66001577D01*
X132826377Y-66001576D01*
X132836531Y-65994792D01*
X132837195Y-65995786D01*
X132887442Y-65968350D01*
X132957134Y-65973334D01*
X132990904Y-65995037D01*
X132991069Y-65994792D01*
X133001222Y-66001576D01*
X133001223Y-66001577D01*
X133032191Y-66022269D01*
X133075812Y-66051416D01*
X133075814Y-66051417D01*
X133141589Y-66064500D01*
X133186010Y-66064499D01*
X133251786Y-66051417D01*
X133326377Y-66001577D01*
X133326377Y-66001576D01*
X133336531Y-65994792D01*
X133337195Y-65995786D01*
X133387442Y-65968350D01*
X133457134Y-65973334D01*
X133490904Y-65995037D01*
X133491069Y-65994792D01*
X133501222Y-66001576D01*
X133501223Y-66001577D01*
X133532191Y-66022269D01*
X133575812Y-66051416D01*
X133575814Y-66051417D01*
X133641589Y-66064500D01*
X133686010Y-66064499D01*
X133751786Y-66051417D01*
X133795410Y-66022268D01*
X133862085Y-66001390D01*
X133929465Y-66019874D01*
X133976156Y-66071852D01*
X133988300Y-66125370D01*
X133988300Y-66905000D01*
X133968615Y-66972039D01*
X133915811Y-67017794D01*
X133864300Y-67029000D01*
X131473478Y-67029000D01*
X131406439Y-67009315D01*
X131360684Y-66956511D01*
X131350740Y-66887353D01*
X131379765Y-66823797D01*
X131385797Y-66817319D01*
X131385864Y-66817251D01*
X131397358Y-66805758D01*
X131397358Y-66805756D01*
X131397360Y-66805755D01*
X131418329Y-66755129D01*
X131439300Y-66704500D01*
X131439300Y-66594900D01*
X131439300Y-66238500D01*
X131458985Y-66171461D01*
X131511789Y-66125706D01*
X131563300Y-66114500D01*
X131718599Y-66114500D01*
X131718600Y-66114500D01*
X131819858Y-66072557D01*
X131897357Y-65995058D01*
X131934366Y-65905710D01*
X131961246Y-65865484D01*
X132175912Y-65650819D01*
X132237235Y-65617334D01*
X132263593Y-65614500D01*
X132327443Y-65614500D01*
X132394482Y-65634185D01*
G37*
%TD.AperFunction*%
%TA.AperFunction,Conductor*%
G36*
X136626039Y-49412685D02*
G01*
X136671794Y-49465489D01*
X136683000Y-49517000D01*
X136683000Y-66905000D01*
X136663315Y-66972039D01*
X136610511Y-67017794D01*
X136559000Y-67029000D01*
X135063300Y-67029000D01*
X134996261Y-67009315D01*
X134950506Y-66956511D01*
X134939300Y-66905000D01*
X134939300Y-65784201D01*
X134936917Y-65772220D01*
X134938516Y-65771901D01*
X134932556Y-65716489D01*
X134963828Y-65654009D01*
X135023915Y-65618353D01*
X135054587Y-65614500D01*
X135218599Y-65614500D01*
X135218600Y-65614500D01*
X135319858Y-65572557D01*
X135397357Y-65495058D01*
X135439300Y-65393800D01*
X135439300Y-65284200D01*
X135397357Y-65182942D01*
X135354121Y-65139706D01*
X135320636Y-65078383D01*
X135325620Y-65008691D01*
X135338697Y-64983138D01*
X135376217Y-64926986D01*
X135389300Y-64861211D01*
X135389299Y-64816790D01*
X135376217Y-64751014D01*
X135326377Y-64676423D01*
X135326376Y-64676422D01*
X135319592Y-64666269D01*
X135320586Y-64665604D01*
X135293150Y-64615358D01*
X135298134Y-64545666D01*
X135319837Y-64511895D01*
X135319592Y-64511731D01*
X135326377Y-64501577D01*
X135376217Y-64426986D01*
X135389300Y-64361211D01*
X135389299Y-64316790D01*
X135376217Y-64251014D01*
X135326377Y-64176423D01*
X135326376Y-64176422D01*
X135319592Y-64166269D01*
X135320586Y-64165604D01*
X135293150Y-64115358D01*
X135298134Y-64045666D01*
X135319837Y-64011895D01*
X135319592Y-64011731D01*
X135326377Y-64001577D01*
X135376217Y-63926986D01*
X135389300Y-63861211D01*
X135389299Y-63816790D01*
X135376217Y-63751014D01*
X135326377Y-63676423D01*
X135289081Y-63651503D01*
X135251787Y-63626583D01*
X135229861Y-63622222D01*
X135186011Y-63613500D01*
X135186009Y-63613500D01*
X135141592Y-63613500D01*
X135141590Y-63613501D01*
X135075814Y-63626583D01*
X135075811Y-63626584D01*
X135001223Y-63676423D01*
X134951383Y-63751012D01*
X134938300Y-63816790D01*
X134938300Y-63861207D01*
X134938301Y-63861209D01*
X134951383Y-63926985D01*
X134951384Y-63926988D01*
X135008008Y-64011731D01*
X135007013Y-64012395D01*
X135034450Y-64062642D01*
X135029466Y-64132334D01*
X135007762Y-64166104D01*
X135008008Y-64166269D01*
X134951383Y-64251012D01*
X134938300Y-64316790D01*
X134938300Y-64361207D01*
X134938300Y-64361208D01*
X134938301Y-64361210D01*
X134951383Y-64426986D01*
X135001222Y-64501576D01*
X135008008Y-64511731D01*
X135007013Y-64512395D01*
X135034450Y-64562642D01*
X135029466Y-64632334D01*
X135007762Y-64666104D01*
X135008008Y-64666269D01*
X134951383Y-64751012D01*
X134938300Y-64816790D01*
X134938300Y-64861207D01*
X134938301Y-64861210D01*
X134949061Y-64915314D01*
X134942833Y-64984902D01*
X134899970Y-65040078D01*
X134834080Y-65063322D01*
X134827444Y-65063500D01*
X133500157Y-65063500D01*
X133433118Y-65043815D01*
X133387363Y-64991011D01*
X133377419Y-64921853D01*
X133378539Y-64915310D01*
X133389300Y-64861211D01*
X133389299Y-64816790D01*
X133376217Y-64751014D01*
X133326377Y-64676423D01*
X133313508Y-64667824D01*
X133251787Y-64626583D01*
X133229861Y-64622222D01*
X133186011Y-64613500D01*
X133186009Y-64613500D01*
X133141592Y-64613500D01*
X133141590Y-64613501D01*
X133075814Y-64626583D01*
X133075812Y-64626584D01*
X132992623Y-64682169D01*
X132925946Y-64703046D01*
X132858566Y-64684561D01*
X132811876Y-64632582D01*
X132800700Y-64563612D01*
X132820632Y-64510174D01*
X132826375Y-64501577D01*
X132826377Y-64501577D01*
X132876217Y-64426986D01*
X132889300Y-64361211D01*
X132889299Y-64316790D01*
X133438300Y-64316790D01*
X133438300Y-64361207D01*
X133438301Y-64361209D01*
X133451383Y-64426985D01*
X133451384Y-64426988D01*
X133499033Y-64498300D01*
X133501223Y-64501577D01*
X133538264Y-64526327D01*
X133575812Y-64551416D01*
X133575814Y-64551417D01*
X133641589Y-64564500D01*
X133686010Y-64564499D01*
X133751786Y-64551417D01*
X133826377Y-64501577D01*
X133876217Y-64426986D01*
X133889300Y-64361211D01*
X133889299Y-64316790D01*
X133876217Y-64251014D01*
X133826377Y-64176423D01*
X133789081Y-64151503D01*
X133751787Y-64126583D01*
X133729861Y-64122222D01*
X133686011Y-64113500D01*
X133686009Y-64113500D01*
X133641592Y-64113500D01*
X133641590Y-64113501D01*
X133575814Y-64126583D01*
X133575811Y-64126584D01*
X133501223Y-64176423D01*
X133451383Y-64251012D01*
X133438300Y-64316790D01*
X132889299Y-64316790D01*
X132876217Y-64251014D01*
X132826377Y-64176423D01*
X132789081Y-64151503D01*
X132751787Y-64126583D01*
X132729861Y-64122222D01*
X132686011Y-64113500D01*
X132686009Y-64113500D01*
X132641592Y-64113500D01*
X132641590Y-64113501D01*
X132575814Y-64126583D01*
X132575811Y-64126584D01*
X132491069Y-64183208D01*
X132490404Y-64182213D01*
X132440158Y-64209650D01*
X132370466Y-64204666D01*
X132336695Y-64182962D01*
X132336531Y-64183208D01*
X132251787Y-64126583D01*
X132229861Y-64122222D01*
X132186011Y-64113500D01*
X132186009Y-64113500D01*
X132141592Y-64113500D01*
X132141590Y-64113501D01*
X132075814Y-64126583D01*
X132075811Y-64126584D01*
X132001223Y-64176423D01*
X131951383Y-64251012D01*
X131938300Y-64316790D01*
X131938300Y-64361207D01*
X131938300Y-64361208D01*
X131938301Y-64361210D01*
X131951383Y-64426986D01*
X132001223Y-64501577D01*
X132053393Y-64536436D01*
X132075812Y-64551416D01*
X132075814Y-64551417D01*
X132141589Y-64564500D01*
X132186010Y-64564499D01*
X132251786Y-64551417D01*
X132326377Y-64501577D01*
X132326378Y-64501575D01*
X132334975Y-64495831D01*
X132401652Y-64474953D01*
X132469032Y-64493437D01*
X132515723Y-64545416D01*
X132526899Y-64614386D01*
X132506968Y-64667824D01*
X132451383Y-64751011D01*
X132438300Y-64816790D01*
X132438300Y-64861207D01*
X132438301Y-64861210D01*
X132449061Y-64915314D01*
X132442833Y-64984902D01*
X132399970Y-65040078D01*
X132334080Y-65063322D01*
X132327444Y-65063500D01*
X132043313Y-65063500D01*
X131971714Y-65093158D01*
X131942054Y-65105443D01*
X131650981Y-65396518D01*
X131589658Y-65430003D01*
X131519967Y-65425019D01*
X131464033Y-65383148D01*
X131439616Y-65317683D01*
X131439300Y-65308837D01*
X131439300Y-65284201D01*
X131439300Y-65284200D01*
X131397357Y-65182942D01*
X131391096Y-65176681D01*
X131357611Y-65115358D01*
X131362595Y-65045666D01*
X131391096Y-65001319D01*
X131393115Y-64999300D01*
X131397357Y-64995058D01*
X131439300Y-64893800D01*
X131439300Y-64784200D01*
X131397357Y-64682942D01*
X131354121Y-64639706D01*
X131320636Y-64578383D01*
X131325620Y-64508691D01*
X131338697Y-64483138D01*
X131376217Y-64426986D01*
X131389300Y-64361211D01*
X131389299Y-64316790D01*
X131376217Y-64251014D01*
X131326377Y-64176423D01*
X131289081Y-64151503D01*
X131251787Y-64126583D01*
X131229861Y-64122222D01*
X131186011Y-64113500D01*
X131186009Y-64113500D01*
X131141592Y-64113500D01*
X131141590Y-64113501D01*
X131075814Y-64126583D01*
X131075811Y-64126584D01*
X131001223Y-64176423D01*
X130951383Y-64251012D01*
X130938300Y-64316790D01*
X130938300Y-64361207D01*
X130940996Y-64374765D01*
X130949061Y-64415314D01*
X130942833Y-64484902D01*
X130899970Y-64540078D01*
X130843924Y-64559849D01*
X130844177Y-64561118D01*
X130835352Y-64562873D01*
X130834080Y-64563322D01*
X130832942Y-64563352D01*
X130832197Y-64563500D01*
X130777342Y-64586223D01*
X130777341Y-64586223D01*
X130730945Y-64605440D01*
X130730940Y-64605443D01*
X130626942Y-64709443D01*
X130626941Y-64709443D01*
X130549444Y-64786939D01*
X130542658Y-64797096D01*
X130540799Y-64795854D01*
X130526976Y-64816514D01*
X130312309Y-65031182D01*
X130250989Y-65064666D01*
X130224630Y-65067500D01*
X129983358Y-65067500D01*
X129916319Y-65047815D01*
X129870564Y-64995011D01*
X129859366Y-64944906D01*
X129840902Y-63316790D01*
X130938300Y-63316790D01*
X130938300Y-63361207D01*
X130938300Y-63361208D01*
X130938301Y-63361210D01*
X130951383Y-63426986D01*
X131001223Y-63501577D01*
X131028327Y-63519687D01*
X131075812Y-63551416D01*
X131075814Y-63551417D01*
X131141589Y-63564500D01*
X131186010Y-63564499D01*
X131251786Y-63551417D01*
X131326377Y-63501577D01*
X131376217Y-63426986D01*
X131389300Y-63361211D01*
X131389299Y-63316790D01*
X131376217Y-63251014D01*
X131326377Y-63176423D01*
X131289081Y-63151503D01*
X131251787Y-63126583D01*
X131229861Y-63122222D01*
X131186011Y-63113500D01*
X131186009Y-63113500D01*
X131141592Y-63113500D01*
X131141590Y-63113501D01*
X131075814Y-63126583D01*
X131075811Y-63126584D01*
X131001223Y-63176423D01*
X130951383Y-63251012D01*
X130938300Y-63316790D01*
X129840902Y-63316790D01*
X129839310Y-63176423D01*
X129835231Y-62816790D01*
X131938300Y-62816790D01*
X131938300Y-62861207D01*
X131938300Y-62861208D01*
X131938301Y-62861210D01*
X131951383Y-62926986D01*
X132001223Y-63001577D01*
X132057038Y-63038871D01*
X132075812Y-63051416D01*
X132075814Y-63051417D01*
X132141589Y-63064500D01*
X132186010Y-63064499D01*
X132251786Y-63051417D01*
X132326377Y-63001577D01*
X132326378Y-63001575D01*
X132334975Y-62995831D01*
X132401652Y-62974953D01*
X132469032Y-62993437D01*
X132515723Y-63045416D01*
X132526899Y-63114386D01*
X132506968Y-63167824D01*
X132451383Y-63251011D01*
X132438300Y-63316790D01*
X132438300Y-63361207D01*
X132438300Y-63361208D01*
X132438301Y-63361210D01*
X132451383Y-63426986D01*
X132501223Y-63501577D01*
X132528327Y-63519687D01*
X132575812Y-63551416D01*
X132575814Y-63551417D01*
X132641589Y-63564500D01*
X132686010Y-63564499D01*
X132751786Y-63551417D01*
X132826377Y-63501577D01*
X132876217Y-63426986D01*
X132889300Y-63361211D01*
X132889299Y-63316790D01*
X132876217Y-63251014D01*
X132826377Y-63176423D01*
X132826376Y-63176422D01*
X132820631Y-63167824D01*
X132799753Y-63101146D01*
X132818237Y-63033766D01*
X132870216Y-62987076D01*
X132939186Y-62975900D01*
X132992624Y-62995831D01*
X133075812Y-63051416D01*
X133075814Y-63051417D01*
X133141589Y-63064500D01*
X133186010Y-63064499D01*
X133251786Y-63051417D01*
X133326377Y-63001577D01*
X133326377Y-63001576D01*
X133336531Y-62994792D01*
X133337195Y-62995786D01*
X133387442Y-62968350D01*
X133457134Y-62973334D01*
X133490904Y-62995037D01*
X133491069Y-62994792D01*
X133575812Y-63051416D01*
X133575814Y-63051417D01*
X133641589Y-63064500D01*
X133686010Y-63064499D01*
X133751786Y-63051417D01*
X133826377Y-63001577D01*
X133876217Y-62926986D01*
X133889300Y-62861211D01*
X133889299Y-62816790D01*
X133876217Y-62751014D01*
X133826377Y-62676423D01*
X133783312Y-62647648D01*
X133751787Y-62626583D01*
X133729861Y-62622222D01*
X133686011Y-62613500D01*
X133686009Y-62613500D01*
X133641592Y-62613500D01*
X133641590Y-62613501D01*
X133575814Y-62626583D01*
X133575811Y-62626584D01*
X133491069Y-62683208D01*
X133490404Y-62682213D01*
X133440158Y-62709650D01*
X133370466Y-62704666D01*
X133336695Y-62682962D01*
X133336531Y-62683208D01*
X133251787Y-62626583D01*
X133229861Y-62622222D01*
X133186011Y-62613500D01*
X133186009Y-62613500D01*
X133141592Y-62613500D01*
X133141590Y-62613501D01*
X133075814Y-62626583D01*
X133075811Y-62626584D01*
X132991069Y-62683208D01*
X132990404Y-62682213D01*
X132940158Y-62709650D01*
X132870466Y-62704666D01*
X132836695Y-62682962D01*
X132836531Y-62683208D01*
X132751787Y-62626583D01*
X132729861Y-62622222D01*
X132686011Y-62613500D01*
X132686009Y-62613500D01*
X132641592Y-62613500D01*
X132641590Y-62613501D01*
X132575814Y-62626583D01*
X132575811Y-62626584D01*
X132491069Y-62683208D01*
X132490404Y-62682213D01*
X132440158Y-62709650D01*
X132370466Y-62704666D01*
X132336695Y-62682962D01*
X132336531Y-62683208D01*
X132251787Y-62626583D01*
X132229861Y-62622222D01*
X132186011Y-62613500D01*
X132186009Y-62613500D01*
X132141592Y-62613500D01*
X132141590Y-62613501D01*
X132075814Y-62626583D01*
X132075811Y-62626584D01*
X132001223Y-62676423D01*
X131951383Y-62751012D01*
X131938300Y-62816790D01*
X129835231Y-62816790D01*
X129834076Y-62714905D01*
X129852999Y-62647648D01*
X129905281Y-62601297D01*
X129958068Y-62589500D01*
X131213626Y-62589500D01*
X131213628Y-62589500D01*
X131305697Y-62551364D01*
X131376164Y-62480897D01*
X131414300Y-62388828D01*
X131414300Y-62289172D01*
X131387670Y-62224883D01*
X131380202Y-62155416D01*
X131411477Y-62092937D01*
X131471565Y-62057284D01*
X131541391Y-62059777D01*
X131549670Y-62062865D01*
X131613972Y-62089500D01*
X131613974Y-62089500D01*
X131713626Y-62089500D01*
X131713628Y-62089500D01*
X131805697Y-62051364D01*
X131876164Y-61980897D01*
X131914300Y-61888828D01*
X131914300Y-61789172D01*
X131876164Y-61697103D01*
X131276697Y-61097636D01*
X131253373Y-61087975D01*
X131184629Y-61059500D01*
X131184628Y-61059500D01*
X130136076Y-61059500D01*
X130036420Y-61059500D01*
X130036418Y-61059500D01*
X129985700Y-61080508D01*
X129916231Y-61087975D01*
X129853752Y-61056700D01*
X129818100Y-60996610D01*
X129814258Y-60967362D01*
X129743556Y-54732822D01*
X132332499Y-54732822D01*
X132341231Y-54776717D01*
X132341234Y-54776724D01*
X132374495Y-54826503D01*
X132399891Y-54843472D01*
X132444696Y-54897084D01*
X132455000Y-54946574D01*
X132455000Y-57187629D01*
X132435315Y-57254668D01*
X132418685Y-57275307D01*
X132414494Y-57279497D01*
X132381234Y-57329275D01*
X132381231Y-57329282D01*
X132372500Y-57373177D01*
X132372500Y-57373180D01*
X132372500Y-57912820D01*
X132372500Y-57912822D01*
X132372499Y-57912822D01*
X132381231Y-57956717D01*
X132381234Y-57956724D01*
X132414495Y-58006503D01*
X132464474Y-58039898D01*
X132509279Y-58093510D01*
X132517986Y-58162835D01*
X132487832Y-58225863D01*
X132464474Y-58246102D01*
X132414495Y-58279496D01*
X132381234Y-58329275D01*
X132381231Y-58329282D01*
X132372500Y-58373177D01*
X132372500Y-58373180D01*
X132372500Y-58912820D01*
X132372500Y-58912822D01*
X132372499Y-58912822D01*
X132381231Y-58956717D01*
X132381232Y-58956720D01*
X132381233Y-58956722D01*
X132392402Y-58973437D01*
X132413280Y-59040115D01*
X132413300Y-59042328D01*
X132413300Y-61888829D01*
X132429105Y-61926985D01*
X132451436Y-61980897D01*
X132521903Y-62051364D01*
X132613972Y-62089500D01*
X132613974Y-62089500D01*
X132713626Y-62089500D01*
X132713628Y-62089500D01*
X132805697Y-62051364D01*
X132876164Y-61980897D01*
X132914300Y-61888828D01*
X132914300Y-61816790D01*
X133438300Y-61816790D01*
X133438300Y-61861207D01*
X133438300Y-61861208D01*
X133438301Y-61861210D01*
X133451383Y-61926986D01*
X133501223Y-62001577D01*
X133557038Y-62038871D01*
X133575812Y-62051416D01*
X133575814Y-62051417D01*
X133641589Y-62064500D01*
X133686010Y-62064499D01*
X133751786Y-62051417D01*
X133826377Y-62001577D01*
X133876217Y-61926986D01*
X133889300Y-61861211D01*
X133889299Y-61816790D01*
X133876217Y-61751014D01*
X133826377Y-61676423D01*
X133789081Y-61651503D01*
X133751787Y-61626583D01*
X133729861Y-61622222D01*
X133686011Y-61613500D01*
X133686009Y-61613500D01*
X133641592Y-61613500D01*
X133641590Y-61613501D01*
X133575814Y-61626583D01*
X133575811Y-61626584D01*
X133501223Y-61676423D01*
X133451383Y-61751012D01*
X133438300Y-61816790D01*
X132914300Y-61816790D01*
X132914300Y-59095070D01*
X132933985Y-59028031D01*
X132950623Y-59007384D01*
X132951497Y-59006508D01*
X132951504Y-59006504D01*
X132984767Y-58956722D01*
X132993500Y-58912820D01*
X132993500Y-58373180D01*
X132993500Y-58373177D01*
X132984768Y-58329282D01*
X132984767Y-58329281D01*
X132984767Y-58329278D01*
X132951504Y-58279496D01*
X132901722Y-58246233D01*
X132901719Y-58246232D01*
X132901526Y-58246103D01*
X132856721Y-58192491D01*
X132848013Y-58123166D01*
X132878167Y-58060138D01*
X132901526Y-58039897D01*
X132901719Y-58039767D01*
X132901722Y-58039767D01*
X132951504Y-58006504D01*
X132984767Y-57956722D01*
X132993500Y-57912820D01*
X132993500Y-57373180D01*
X132993500Y-57373177D01*
X132984768Y-57329282D01*
X132984767Y-57329281D01*
X132984767Y-57329278D01*
X132951504Y-57279496D01*
X132947315Y-57275307D01*
X132913833Y-57213982D01*
X132911000Y-57187629D01*
X132911000Y-54992500D01*
X132930685Y-54925461D01*
X132983489Y-54879706D01*
X133035000Y-54868500D01*
X133497822Y-54868500D01*
X133541717Y-54859768D01*
X133541717Y-54859767D01*
X133541722Y-54859767D01*
X133591504Y-54826504D01*
X133624767Y-54776722D01*
X133633500Y-54732820D01*
X133633500Y-53653180D01*
X133633500Y-53653177D01*
X133624768Y-53609282D01*
X133624767Y-53609281D01*
X133624767Y-53609278D01*
X133591504Y-53559496D01*
X133591503Y-53559495D01*
X133541724Y-53526234D01*
X133541717Y-53526231D01*
X133497822Y-53517500D01*
X133497820Y-53517500D01*
X132468180Y-53517500D01*
X132468178Y-53517500D01*
X132424282Y-53526231D01*
X132424275Y-53526234D01*
X132374496Y-53559495D01*
X132374495Y-53559496D01*
X132341234Y-53609275D01*
X132341231Y-53609282D01*
X132332500Y-53653177D01*
X132332500Y-53653180D01*
X132332500Y-54732820D01*
X132332500Y-54732822D01*
X132332499Y-54732822D01*
X129743556Y-54732822D01*
X129684422Y-49518405D01*
X129703345Y-49451148D01*
X129755627Y-49404797D01*
X129808414Y-49393000D01*
X136559000Y-49393000D01*
X136626039Y-49412685D01*
G37*
%TD.AperFunction*%
%TA.AperFunction,Conductor*%
G36*
X131046716Y-61580185D02*
G01*
X131067358Y-61596819D01*
X131362478Y-61891939D01*
X131395963Y-61953262D01*
X131390979Y-62022954D01*
X131349107Y-62078887D01*
X131283643Y-62103304D01*
X131227346Y-62094182D01*
X131213629Y-62088500D01*
X131213628Y-62088500D01*
X129949575Y-62088500D01*
X129882536Y-62068815D01*
X129836781Y-62016011D01*
X129825583Y-61965907D01*
X129822781Y-61718907D01*
X129841704Y-61651648D01*
X129893985Y-61605297D01*
X129946773Y-61593500D01*
X130103074Y-61593500D01*
X130103076Y-61593500D01*
X130159958Y-61569938D01*
X130207410Y-61560500D01*
X130979677Y-61560500D01*
X131046716Y-61580185D01*
G37*
%TD.AperFunction*%
%TD*%
%TA.AperFunction,Conductor*%
%TO.N,/HighCurrentComponents/Pyro1_HighSide*%
G36*
X114230560Y-79723077D02*
G01*
X114572753Y-80065270D01*
X114576180Y-80073543D01*
X114575106Y-80078439D01*
X113989904Y-81348506D01*
X113983330Y-81354586D01*
X113974813Y-81354424D01*
X113226786Y-81045562D01*
X113220447Y-81039237D01*
X113220437Y-81039213D01*
X112911696Y-80291479D01*
X112911706Y-80282525D01*
X112917909Y-80276257D01*
X114217690Y-79720591D01*
X114226642Y-79720491D01*
X114230560Y-79723077D01*
G37*
%TD.AperFunction*%
%TD*%
%TA.AperFunction,Conductor*%
%TO.N,/HighCurrentComponents/Pyro2_HighSide*%
G36*
X119298635Y-79705184D02*
G01*
X119640815Y-80047364D01*
X119644242Y-80055637D01*
X119643231Y-80060396D01*
X119069831Y-81348313D01*
X119063335Y-81354477D01*
X119054677Y-81354368D01*
X118306786Y-81045562D01*
X118300447Y-81039237D01*
X118300437Y-81039213D01*
X117991631Y-80291322D01*
X117991641Y-80282368D01*
X117997684Y-80276169D01*
X119285604Y-79702767D01*
X119294555Y-79702534D01*
X119298635Y-79705184D01*
G37*
%TD.AperFunction*%
%TD*%
%TA.AperFunction,Conductor*%
%TO.N,/HighCurrentComponents/Pyro3_HighSide*%
G36*
X124378635Y-79705184D02*
G01*
X124720815Y-80047364D01*
X124724242Y-80055637D01*
X124723231Y-80060396D01*
X124149831Y-81348313D01*
X124143335Y-81354477D01*
X124134677Y-81354368D01*
X123386786Y-81045562D01*
X123380447Y-81039237D01*
X123380437Y-81039213D01*
X123071631Y-80291322D01*
X123071641Y-80282368D01*
X123077684Y-80276169D01*
X124365604Y-79702767D01*
X124374555Y-79702534D01*
X124378635Y-79705184D01*
G37*
%TD.AperFunction*%
%TD*%
M02*
