%TF.GenerationSoftware,KiCad,Pcbnew,8.0.7*%
%TF.CreationDate,2026-03-28T05:21:42-04:00*%
%TF.ProjectId,main,6d61696e-2e6b-4696-9361-645f70636258,rev?*%
%TF.SameCoordinates,Original*%
%TF.FileFunction,Copper,L4,Bot*%
%TF.FilePolarity,Positive*%
%FSLAX46Y46*%
G04 Gerber Fmt 4.6, Leading zero omitted, Abs format (unit mm)*
G04 Created by KiCad (PCBNEW 8.0.7) date 2026-03-28 05:21:42*
%MOMM*%
%LPD*%
G01*
G04 APERTURE LIST*
G04 Aperture macros list*
%AMRoundRect*
0 Rectangle with rounded corners*
0 $1 Rounding radius*
0 $2 $3 $4 $5 $6 $7 $8 $9 X,Y pos of 4 corners*
0 Add a 4 corners polygon primitive as box body*
4,1,4,$2,$3,$4,$5,$6,$7,$8,$9,$2,$3,0*
0 Add four circle primitives for the rounded corners*
1,1,$1+$1,$2,$3*
1,1,$1+$1,$4,$5*
1,1,$1+$1,$6,$7*
1,1,$1+$1,$8,$9*
0 Add four rect primitives between the rounded corners*
20,1,$1+$1,$2,$3,$4,$5,0*
20,1,$1+$1,$4,$5,$6,$7,0*
20,1,$1+$1,$6,$7,$8,$9,0*
20,1,$1+$1,$8,$9,$2,$3,0*%
G04 Aperture macros list end*
%TA.AperFunction,SMDPad,CuDef*%
%ADD10R,0.800000X0.350000*%
%TD*%
%TA.AperFunction,SMDPad,CuDef*%
%ADD11R,0.350000X0.800000*%
%TD*%
%TA.AperFunction,SMDPad,CuDef*%
%ADD12R,2.800000X2.800000*%
%TD*%
%TA.AperFunction,ComponentPad*%
%ADD13C,1.400000*%
%TD*%
%TA.AperFunction,ComponentPad*%
%ADD14C,1.650000*%
%TD*%
%TA.AperFunction,ComponentPad*%
%ADD15R,1.650000X1.650000*%
%TD*%
%TA.AperFunction,SMDPad,CuDef*%
%ADD16R,1.000000X0.900000*%
%TD*%
%TA.AperFunction,SMDPad,CuDef*%
%ADD17R,0.550000X1.700000*%
%TD*%
%TA.AperFunction,SMDPad,CuDef*%
%ADD18RoundRect,0.237500X-0.237500X0.250000X-0.237500X-0.250000X0.237500X-0.250000X0.237500X0.250000X0*%
%TD*%
%TA.AperFunction,SMDPad,CuDef*%
%ADD19C,1.000000*%
%TD*%
%TA.AperFunction,SMDPad,CuDef*%
%ADD20RoundRect,0.237500X0.250000X0.237500X-0.250000X0.237500X-0.250000X-0.237500X0.250000X-0.237500X0*%
%TD*%
%TA.AperFunction,SMDPad,CuDef*%
%ADD21R,0.650000X1.500000*%
%TD*%
%TA.AperFunction,SMDPad,CuDef*%
%ADD22R,0.275000X0.250000*%
%TD*%
%TA.AperFunction,SMDPad,CuDef*%
%ADD23R,0.250000X0.275000*%
%TD*%
%TA.AperFunction,SMDPad,CuDef*%
%ADD24RoundRect,0.237500X0.237500X-0.250000X0.237500X0.250000X-0.237500X0.250000X-0.237500X-0.250000X0*%
%TD*%
%TA.AperFunction,SMDPad,CuDef*%
%ADD25R,0.350000X0.850000*%
%TD*%
%TA.AperFunction,SMDPad,CuDef*%
%ADD26R,3.100000X2.400000*%
%TD*%
%TA.AperFunction,SMDPad,CuDef*%
%ADD27RoundRect,0.250001X-0.462499X-0.849999X0.462499X-0.849999X0.462499X0.849999X-0.462499X0.849999X0*%
%TD*%
%TA.AperFunction,SMDPad,CuDef*%
%ADD28RoundRect,0.237500X-0.250000X-0.237500X0.250000X-0.237500X0.250000X0.237500X-0.250000X0.237500X0*%
%TD*%
%TA.AperFunction,SMDPad,CuDef*%
%ADD29RoundRect,0.250000X1.150000X-0.250000X1.150000X0.250000X-1.150000X0.250000X-1.150000X-0.250000X0*%
%TD*%
%TA.AperFunction,SMDPad,CuDef*%
%ADD30RoundRect,0.150000X0.700000X-0.150000X0.700000X0.150000X-0.700000X0.150000X-0.700000X-0.150000X0*%
%TD*%
%TA.AperFunction,SMDPad,CuDef*%
%ADD31R,0.800000X1.750000*%
%TD*%
%TA.AperFunction,SMDPad,CuDef*%
%ADD32R,1.500000X1.500000*%
%TD*%
%TA.AperFunction,SMDPad,CuDef*%
%ADD33R,1.300000X1.500000*%
%TD*%
%TA.AperFunction,SMDPad,CuDef*%
%ADD34R,0.800000X1.400000*%
%TD*%
%TA.AperFunction,SMDPad,CuDef*%
%ADD35R,1.000000X1.550000*%
%TD*%
%TA.AperFunction,SMDPad,CuDef*%
%ADD36R,1.450000X1.000000*%
%TD*%
%TA.AperFunction,SMDPad,CuDef*%
%ADD37R,0.800000X1.500000*%
%TD*%
%TA.AperFunction,SMDPad,CuDef*%
%ADD38R,0.990600X0.304800*%
%TD*%
%TA.AperFunction,SMDPad,CuDef*%
%ADD39RoundRect,0.237500X0.287500X0.237500X-0.287500X0.237500X-0.287500X-0.237500X0.287500X-0.237500X0*%
%TD*%
%TA.AperFunction,ComponentPad*%
%ADD40C,1.600000*%
%TD*%
%TA.AperFunction,SMDPad,CuDef*%
%ADD41R,2.000000X2.000000*%
%TD*%
%TA.AperFunction,SMDPad,CuDef*%
%ADD42R,0.250000X0.650000*%
%TD*%
%TA.AperFunction,SMDPad,CuDef*%
%ADD43R,0.650000X0.250000*%
%TD*%
%TA.AperFunction,SMDPad,CuDef*%
%ADD44RoundRect,0.250000X0.625000X-0.375000X0.625000X0.375000X-0.625000X0.375000X-0.625000X-0.375000X0*%
%TD*%
%TA.AperFunction,ComponentPad*%
%ADD45C,0.800000*%
%TD*%
%TA.AperFunction,ComponentPad*%
%ADD46C,5.000000*%
%TD*%
%TA.AperFunction,ViaPad*%
%ADD47C,0.600000*%
%TD*%
%TA.AperFunction,ViaPad*%
%ADD48C,0.450000*%
%TD*%
%TA.AperFunction,ViaPad*%
%ADD49C,0.800000*%
%TD*%
%TA.AperFunction,ViaPad*%
%ADD50C,1.000000*%
%TD*%
%TA.AperFunction,ViaPad*%
%ADD51C,0.500000*%
%TD*%
%TA.AperFunction,Conductor*%
%ADD52C,0.250000*%
%TD*%
%TA.AperFunction,Conductor*%
%ADD53C,0.400000*%
%TD*%
%TA.AperFunction,Conductor*%
%ADD54C,0.200000*%
%TD*%
%TA.AperFunction,Conductor*%
%ADD55C,0.300000*%
%TD*%
%TA.AperFunction,Conductor*%
%ADD56C,0.155000*%
%TD*%
%TA.AperFunction,Conductor*%
%ADD57C,0.600000*%
%TD*%
%TA.AperFunction,Conductor*%
%ADD58C,0.500000*%
%TD*%
%TA.AperFunction,Conductor*%
%ADD59C,2.000000*%
%TD*%
%TA.AperFunction,Conductor*%
%ADD60C,2.500000*%
%TD*%
G04 APERTURE END LIST*
D10*
%TO.P,TPS62111RSAR1,1,PGND_1*%
%TO.N,GNDREF*%
X113533000Y-70318000D03*
%TO.P,TPS62111RSAR1,2,VIN_1*%
%TO.N,+7.5V*%
X113533000Y-69668000D03*
%TO.P,TPS62111RSAR1,3,VIN_2*%
X113533000Y-69018000D03*
%TO.P,TPS62111RSAR1,4,EN*%
X113533000Y-68368000D03*
D11*
%TO.P,TPS62111RSAR1,5,SYNC*%
%TO.N,GNDREF*%
X114558000Y-67343000D03*
%TO.P,TPS62111RSAR1,6,LBO*%
X115208000Y-67343000D03*
%TO.P,TPS62111RSAR1,7,LBI*%
X115858000Y-67343000D03*
%TO.P,TPS62111RSAR1,8,VINA*%
%TO.N,+7.5V*%
X116508000Y-67343000D03*
D10*
%TO.P,TPS62111RSAR1,9,AGND*%
%TO.N,GNDREF*%
X117533000Y-68368000D03*
%TO.P,TPS62111RSAR1,10,FB*%
%TO.N,+3.3V*%
X117533000Y-69018000D03*
%TO.P,TPS62111RSAR1,11,GND_1*%
%TO.N,GNDREF*%
X117533000Y-69668000D03*
%TO.P,TPS62111RSAR1,12,GND_2*%
X117533000Y-70318000D03*
D11*
%TO.P,TPS62111RSAR1,13,PG*%
%TO.N,Net-(TPS62111RSAR1-PG)*%
X116508000Y-71343000D03*
%TO.P,TPS62111RSAR1,14,SW_1*%
%TO.N,Net-(TPS62111RSAR1-SW_1)*%
X115858000Y-71343000D03*
%TO.P,TPS62111RSAR1,15,SW_2*%
X115208000Y-71343000D03*
%TO.P,TPS62111RSAR1,16,PGND_2*%
%TO.N,GNDREF*%
X114558000Y-71343000D03*
D12*
%TO.P,TPS62111RSAR1,17,EP*%
X115533000Y-69343000D03*
%TD*%
D13*
%TO.P,TP1,1,1*%
%TO.N,+3.3V*%
X96183000Y-36343000D03*
%TO.P,TP1,2,2*%
%TO.N,GNDREF*%
X96183000Y-33803000D03*
%TD*%
%TO.P,TP2,1,1*%
%TO.N,/Reserve_TX*%
X98783000Y-64493000D03*
%TO.P,TP2,2,2*%
%TO.N,/Reserve_RX*%
X101323000Y-64493000D03*
%TD*%
D14*
%TO.P,ScrewTerminal2,2,Pin_2*%
%TO.N,Net-(ScrewTerminal2-Pin_2)*%
X99223000Y-81043000D03*
D15*
%TO.P,ScrewTerminal2,1,Pin_1*%
%TO.N,GNDREF*%
X96683000Y-81043000D03*
%TD*%
D13*
%TO.P,TP3,1,1*%
%TO.N,+7.5V*%
X102383000Y-80193000D03*
%TO.P,TP3,2,2*%
%TO.N,GNDREF*%
X102383000Y-82733000D03*
%TD*%
D15*
%TO.P,ScrewTerminal1,1,1*%
%TO.N,+7.5V*%
X105603000Y-81043000D03*
D14*
%TO.P,ScrewTerminal1,2,2*%
%TO.N,/HighCurrentComponents/7.5V_AftSwitch*%
X108143000Y-81043000D03*
%TO.P,ScrewTerminal1,3,3*%
X110683000Y-81043000D03*
%TO.P,ScrewTerminal1,4,4*%
%TO.N,/HighCurrentComponents/Pyro1_HighSide*%
X113223000Y-81043000D03*
%TO.P,ScrewTerminal1,5,5*%
%TO.N,/HighCurrentComponents/7.5V_AftSwitch*%
X115763000Y-81043000D03*
%TO.P,ScrewTerminal1,6,6*%
%TO.N,/HighCurrentComponents/Pyro2_HighSide*%
X118303000Y-81043000D03*
%TO.P,ScrewTerminal1,7,7*%
%TO.N,/HighCurrentComponents/7.5V_AftSwitch*%
X120843000Y-81043000D03*
%TO.P,ScrewTerminal1,8,8*%
%TO.N,/HighCurrentComponents/Pyro3_HighSide*%
X123383000Y-81043000D03*
%TD*%
D16*
%TO.P,KMR241GLFS1,1,COM_1*%
%TO.N,Net-(KMR241GLFS1-COM_1)*%
X123083000Y-38843000D03*
%TO.P,KMR241GLFS1,2,NO_1*%
%TO.N,GNDREF*%
X121483000Y-38843000D03*
%TO.P,KMR241GLFS1,3,NO_2*%
X121483000Y-34743000D03*
%TO.P,KMR241GLFS1,4,COM_2*%
X123083000Y-34743000D03*
D17*
%TO.P,KMR241GLFS1,5,GND*%
X123708000Y-36793000D03*
%TD*%
D18*
%TO.P,C35,1,1*%
%TO.N,+3.3V*%
X88083000Y-59530500D03*
%TO.P,C35,2,2*%
%TO.N,GNDREF*%
X88083000Y-61355500D03*
%TD*%
D19*
%TO.P,FID2,*%
%TO.N,*%
X92383000Y-35793000D03*
%TD*%
D20*
%TO.P,R15,2*%
%TO.N,+3.3V*%
X98470500Y-47880000D03*
%TO.P,R15,1*%
%TO.N,/BMO085_SDA*%
X100295500Y-47880000D03*
%TD*%
D19*
%TO.P,FID6,*%
%TO.N,*%
X92383000Y-81293000D03*
%TD*%
D21*
%TO.P,APS6404L-SQH-SN1,1,~{CE}*%
%TO.N,/EMC_24*%
X119913000Y-43093000D03*
%TO.P,APS6404L-SQH-SN1,2,SO/SIO[1]*%
%TO.N,/EMC_27*%
X121183000Y-43093000D03*
%TO.P,APS6404L-SQH-SN1,3,SIO[2]*%
%TO.N,/EMC_28*%
X122453000Y-43093000D03*
%TO.P,APS6404L-SQH-SN1,4,VSS*%
%TO.N,GNDREF*%
X123723000Y-43093000D03*
%TO.P,APS6404L-SQH-SN1,5,SI/SIO[0]*%
%TO.N,/EMC_26*%
X123723000Y-48493000D03*
%TO.P,APS6404L-SQH-SN1,6,SCLK*%
%TO.N,/EMC_25*%
X122453000Y-48493000D03*
%TO.P,APS6404L-SQH-SN1,7,SIO[3]*%
%TO.N,/EMC_29*%
X121183000Y-48493000D03*
%TO.P,APS6404L-SQH-SN1,8,VDD*%
%TO.N,+3.3V*%
X119913000Y-48493000D03*
%TD*%
D22*
%TO.P,BMP1,1,VDDIO*%
%TO.N,+3.3V*%
X88383000Y-56293000D03*
%TO.P,BMP1,2,SCK*%
%TO.N,/BMP390_SCL1*%
X88383000Y-56793000D03*
D23*
%TO.P,BMP1,3,GND*%
%TO.N,GNDREF*%
X88133000Y-57305500D03*
%TO.P,BMP1,4,SDI*%
%TO.N,/BMP390_SDA1*%
X87633000Y-57305500D03*
%TO.P,BMP1,5,SDO*%
%TO.N,+3.3V*%
X87133000Y-57305500D03*
D22*
%TO.P,BMP1,6,CSB*%
X86883000Y-56793000D03*
%TO.P,BMP1,7,INT*%
%TO.N,unconnected-(BMP1-INT-Pad7)*%
X86883000Y-56293000D03*
D23*
%TO.P,BMP1,8,GND*%
%TO.N,GNDREF*%
X87133000Y-55780500D03*
%TO.P,BMP1,9,GND*%
X87633000Y-55780500D03*
%TO.P,BMP1,10,VDD*%
%TO.N,+3.3V*%
X88133000Y-55780500D03*
%TD*%
D18*
%TO.P,C5,2*%
%TO.N,GNDREF*%
X92083000Y-47455500D03*
%TO.P,C5,1*%
%TO.N,+3.3V*%
X92083000Y-45630500D03*
%TD*%
D24*
%TO.P,R13,2*%
%TO.N,/PTA3*%
X125483000Y-65630500D03*
%TO.P,R13,1*%
%TO.N,GNDREF*%
X125483000Y-67455500D03*
%TD*%
D25*
%TO.P,W25Q64JVXGIM_TR1,1,/CS*%
%TO.N,/CS*%
X88533000Y-49443000D03*
%TO.P,W25Q64JVXGIM_TR1,2,DO_(IO1)*%
%TO.N,/D1*%
X87733000Y-49443000D03*
%TO.P,W25Q64JVXGIM_TR1,3,/WP_(IO2)*%
%TO.N,/D2*%
X86933000Y-49443000D03*
%TO.P,W25Q64JVXGIM_TR1,4,GND*%
%TO.N,GNDREF*%
X86133000Y-49443000D03*
%TO.P,W25Q64JVXGIM_TR1,5,DI_(IO0)*%
%TO.N,/D0*%
X86133000Y-45543000D03*
%TO.P,W25Q64JVXGIM_TR1,6,CLK*%
%TO.N,/CLK*%
X86933000Y-45543000D03*
%TO.P,W25Q64JVXGIM_TR1,7,/HOLD_OR_/RESET_(IO3)*%
%TO.N,/D3*%
X87733000Y-45543000D03*
%TO.P,W25Q64JVXGIM_TR1,8,VCC*%
%TO.N,+3.3V*%
X88533000Y-45543000D03*
D26*
%TO.P,W25Q64JVXGIM_TR1,9,EP*%
%TO.N,unconnected-(W25Q64JVXGIM_TR1-EP-Pad9)*%
X87333000Y-47493000D03*
%TD*%
D20*
%TO.P,R31,2*%
%TO.N,GNDREF*%
X122970500Y-78543000D03*
%TO.P,R31,1*%
%TO.N,/Pyro3_Test_39*%
X124795500Y-78543000D03*
%TD*%
D27*
%TO.P,L1,1,1*%
%TO.N,Net-(TPS62111RSAR1-SW_1)*%
X115433000Y-73693000D03*
%TO.P,L1,2,2*%
%TO.N,+3.3V*%
X117758000Y-73693000D03*
%TD*%
D20*
%TO.P,R6,2*%
%TO.N,+3.3V*%
X110783000Y-64343000D03*
%TO.P,R6,1*%
%TO.N,/BMP390_SDA1*%
X112608000Y-64343000D03*
%TD*%
D19*
%TO.P,FID7,*%
%TO.N,*%
X127383000Y-35793000D03*
%TD*%
D28*
%TO.P,R22,2*%
%TO.N,/Pyro1_Test_40*%
X114295500Y-83543000D03*
%TO.P,R22,1*%
%TO.N,/HighCurrentComponents/Pyro1_HighSide*%
X112470500Y-83543000D03*
%TD*%
D18*
%TO.P,R8,2*%
%TO.N,/BMP390_SCL1*%
X90583000Y-56155500D03*
%TO.P,R8,1*%
%TO.N,+3.3V*%
X90583000Y-54330500D03*
%TD*%
D20*
%TO.P,R27,2*%
%TO.N,GNDREF*%
X117720500Y-78543000D03*
%TO.P,R27,1*%
%TO.N,/Pyro2_Test_41*%
X119545500Y-78543000D03*
%TD*%
D18*
%TO.P,C19,2*%
%TO.N,GNDREF*%
X107783000Y-66068000D03*
%TO.P,C19,1*%
%TO.N,+3.3V*%
X107783000Y-64243000D03*
%TD*%
%TO.P,C8,1*%
%TO.N,+3.3V*%
X100483000Y-55343000D03*
%TO.P,C8,2*%
%TO.N,GNDREF*%
X100483000Y-57168000D03*
%TD*%
%TO.P,C18,2*%
%TO.N,GNDREF*%
X108883000Y-52868000D03*
%TO.P,C18,1*%
%TO.N,Net-(MIMXRT1062DVL6B1-DCDC_IN_1)*%
X108883000Y-51043000D03*
%TD*%
%TO.P,C12,2*%
%TO.N,GNDREF*%
X118783000Y-65768000D03*
%TO.P,C12,1*%
%TO.N,Net-(MIMXRT1062DVL6B1-VDD_USB_CAP)*%
X118783000Y-63943000D03*
%TD*%
D29*
%TO.P,SERVO3,MP*%
%TO.N,N/C*%
X134860000Y-51110000D03*
X134860000Y-57310000D03*
D30*
%TO.P,SERVO3,3,3*%
%TO.N,/Servo3_PWM*%
X131510000Y-52960000D03*
%TO.P,SERVO3,2,2*%
%TO.N,+7.5V*%
X131510000Y-54210000D03*
%TO.P,SERVO3,1,1*%
%TO.N,GNDREF*%
X131510000Y-55460000D03*
%TD*%
D24*
%TO.P,C27,1*%
%TO.N,/M1M2*%
X119936000Y-55768000D03*
%TO.P,C27,2*%
%TO.N,GNDREF*%
X119936000Y-53943000D03*
%TD*%
D28*
%TO.P,R30,2*%
%TO.N,/Pyro3_Test_39*%
X124795500Y-83543000D03*
%TO.P,R30,1*%
%TO.N,/HighCurrentComponents/Pyro3_HighSide*%
X122970500Y-83543000D03*
%TD*%
D31*
%TO.P,DM3D-SF1,1,DAT2*%
%TO.N,/SD_B0_04*%
X113058000Y-34130500D03*
%TO.P,DM3D-SF1,2,CD/DAT3*%
%TO.N,/SD_B0_05*%
X111958000Y-34130500D03*
%TO.P,DM3D-SF1,3,CMD*%
%TO.N,/SD_B0_00*%
X110858000Y-34130500D03*
%TO.P,DM3D-SF1,4,VDD*%
%TO.N,+3.3V*%
X109758000Y-34130500D03*
%TO.P,DM3D-SF1,5,CLK*%
%TO.N,/SD_B0_01*%
X108658000Y-34130500D03*
%TO.P,DM3D-SF1,6,VSS*%
%TO.N,GNDREF*%
X107558000Y-34130500D03*
%TO.P,DM3D-SF1,7,DAT0*%
%TO.N,/SD_B0_02*%
X106458000Y-34130500D03*
%TO.P,DM3D-SF1,8,DAT1*%
%TO.N,/SD_B0_03*%
X105358000Y-34130500D03*
D32*
%TO.P,DM3D-SF1,MP1,MP1*%
%TO.N,GNDREF*%
X115508000Y-34255500D03*
D33*
%TO.P,DM3D-SF1,MP2,MP2*%
X104158000Y-34255500D03*
D34*
%TO.P,DM3D-SF1,MP3,MP3*%
X115858000Y-42505500D03*
D35*
%TO.P,DM3D-SF1,MP4,MP4*%
X115408000Y-44930500D03*
D36*
%TO.P,DM3D-SF1,MP5,MP5*%
X104233000Y-43355500D03*
D37*
%TO.P,DM3D-SF1,MP6,MP6*%
X103908000Y-41855500D03*
%TD*%
D29*
%TO.P,SERVO1,MP*%
%TO.N,N/C*%
X134860000Y-67610000D03*
X134860000Y-73810000D03*
D30*
%TO.P,SERVO1,3,3*%
%TO.N,/Servo1_PWM*%
X131510000Y-69460000D03*
%TO.P,SERVO1,2,2*%
%TO.N,+7.5V*%
X131510000Y-70710000D03*
%TO.P,SERVO1,1,1*%
%TO.N,GNDREF*%
X131510000Y-71960000D03*
%TD*%
D18*
%TO.P,C13,2*%
%TO.N,GNDREF*%
X102483000Y-57168000D03*
%TO.P,C13,1*%
%TO.N,+3.3V*%
X102483000Y-55343000D03*
%TD*%
D24*
%TO.P,R4,1*%
%TO.N,GNDREF*%
X123583000Y-73855500D03*
%TO.P,R4,2*%
%TO.N,/3.3v_led*%
X123583000Y-72030500D03*
%TD*%
D29*
%TO.P,SERVO2,MP*%
%TO.N,N/C*%
X134860000Y-59360000D03*
X134860000Y-65560000D03*
D30*
%TO.P,SERVO2,3,3*%
%TO.N,/Servo2_PWM*%
X131510000Y-61210000D03*
%TO.P,SERVO2,2,2*%
%TO.N,+7.5V*%
X131510000Y-62460000D03*
%TO.P,SERVO2,1,1*%
%TO.N,GNDREF*%
X131510000Y-63710000D03*
%TD*%
D20*
%TO.P,R17,2*%
%TO.N,Net-(BNO1-BOOTN)*%
X98470500Y-41206000D03*
%TO.P,R17,1*%
%TO.N,+3.3V*%
X100295500Y-41206000D03*
%TD*%
D38*
%TO.P,INA260,1,IN+*%
%TO.N,+BATT*%
X91640200Y-72318000D03*
%TO.P,INA260,2,IN+*%
X91640200Y-71668000D03*
%TO.P,INA260,3,IN+*%
X91640200Y-71018000D03*
%TO.P,INA260,4,A1*%
%TO.N,GNDREF*%
X91640200Y-70368000D03*
%TO.P,INA260,5,A0*%
X91640200Y-69718000D03*
%TO.P,INA260,6,GND*%
X91640200Y-69068000D03*
%TO.P,INA260,7,ALERT*%
%TO.N,unconnected-(INA1-ALERT-Pad7)*%
X91640200Y-68418000D03*
%TO.P,INA260,8,SDA*%
%TO.N,/BMP390_SDA1*%
X91640200Y-67768000D03*
%TO.P,INA260,9,SCL*%
%TO.N,/BMP390_SCL1*%
X97475800Y-67768000D03*
%TO.P,INA260,10,VS*%
%TO.N,+3.3V*%
X97475800Y-68418000D03*
%TO.P,INA260,11,GND*%
%TO.N,GNDREF*%
X97475800Y-69068000D03*
%TO.P,INA260,12,VBUS*%
%TO.N,+BATT*%
X97475800Y-69718000D03*
%TO.P,INA260,13,GND*%
%TO.N,GNDREF*%
X97475800Y-70368000D03*
%TO.P,INA260,14,IN-*%
%TO.N,+7.5V*%
X97475800Y-71018000D03*
%TO.P,INA260,15,IN-*%
X97475800Y-71668000D03*
%TO.P,INA260,16,IN-*%
X97475800Y-72318000D03*
%TD*%
D24*
%TO.P,C28,1*%
%TO.N,/M1M2*%
X122483000Y-55768000D03*
%TO.P,C28,2*%
%TO.N,GNDREF*%
X122483000Y-53943000D03*
%TD*%
D20*
%TO.P,R23,2*%
%TO.N,GNDREF*%
X112470500Y-78543000D03*
%TO.P,R23,1*%
%TO.N,/Pyro1_Test_40*%
X114295500Y-78543000D03*
%TD*%
D18*
%TO.P,C14,1*%
%TO.N,Net-(MIMXRT1062DVL6B1-DCDC_IN_1)*%
X106623000Y-51043500D03*
%TO.P,C14,2*%
%TO.N,GNDREF*%
X106623000Y-52868500D03*
%TD*%
D24*
%TO.P,C7,1*%
%TO.N,Net-(MIMXRT1062DVL6B1-VDD_USB_CAP)*%
X117083000Y-63368000D03*
%TO.P,C7,2*%
%TO.N,GNDREF*%
X117083000Y-61543000D03*
%TD*%
D39*
%TO.P,D1,1,K*%
%TO.N,/3.3v_led*%
X123420500Y-68243000D03*
%TO.P,D1,2,A*%
%TO.N,+3.3V*%
X121670500Y-68243000D03*
%TD*%
D24*
%TO.P,FB2,1*%
%TO.N,+3.3V*%
X101933000Y-52918000D03*
%TO.P,FB2,2*%
%TO.N,Net-(MIMXRT1062DVL6B1-DCDC_IN_1)*%
X101933000Y-51093000D03*
%TD*%
D40*
%TO.P,C41,1*%
%TO.N,+7.5V*%
X106905475Y-76267615D03*
%TO.P,C41,2*%
%TO.N,GNDREF*%
X107760525Y-73918383D03*
%TD*%
D18*
%TO.P,C1,1*%
%TO.N,+7.5V*%
X110583000Y-68930500D03*
%TO.P,C1,2*%
%TO.N,GNDREF*%
X110583000Y-70755500D03*
%TD*%
D28*
%TO.P,R26,2*%
%TO.N,/Pyro2_Test_41*%
X119545500Y-83543000D03*
%TO.P,R26,1*%
%TO.N,/HighCurrentComponents/Pyro2_HighSide*%
X117720500Y-83543000D03*
%TD*%
D18*
%TO.P,C34,1,1*%
%TO.N,+3.3V*%
X85983000Y-59530500D03*
%TO.P,C34,2,2*%
%TO.N,GNDREF*%
X85983000Y-61355500D03*
%TD*%
D41*
%TO.P,MKL02Z32VFG1,17,EP*%
%TO.N,GNDREF*%
X123733000Y-62693000D03*
D42*
%TO.P,MKL02Z32VFG1,16,PTA2*%
%TO.N,unconnected-(MKL02Z32VFG1-PTA2-Pad16)*%
X124483000Y-61143000D03*
%TO.P,MKL02Z32VFG1,15,PTA1/IRQ_1/LPTMR0_ALT1*%
%TO.N,/PTA1*%
X123983000Y-61143000D03*
%TO.P,MKL02Z32VFG1,14,PTA0/IRQ_0*%
%TO.N,unconnected-(MKL02Z32VFG1-PTA0{slash}IRQ_0-Pad14)*%
X123483000Y-61143000D03*
%TO.P,MKL02Z32VFG1,13,PTB5/IRQ_12*%
%TO.N,/PTB5*%
X122983000Y-61143000D03*
D43*
%TO.P,MKL02Z32VFG1,12,PTB4/IRQ_11*%
%TO.N,/PTB4*%
X122183000Y-61943000D03*
%TO.P,MKL02Z32VFG1,11,PTB3/IRQ_10*%
%TO.N,Net-(MKL02Z32VFG1-PTB3{slash}IRQ_10)*%
X122183000Y-62443000D03*
%TO.P,MKL02Z32VFG1,10,PTB2/IRQ_7*%
%TO.N,Net-(KMR241GLFS1-COM_1)*%
X122183000Y-62943000D03*
%TO.P,MKL02Z32VFG1,9,PTB1/IRQ_6*%
%TO.N,/PTB1*%
X122183000Y-63443000D03*
D42*
%TO.P,MKL02Z32VFG1,8,PTB0/IRQ_5*%
%TO.N,/PTB0*%
X122983000Y-64243000D03*
%TO.P,MKL02Z32VFG1,7,PTA7/IRQ_4*%
%TO.N,/PTA7*%
X123483000Y-64243000D03*
%TO.P,MKL02Z32VFG1,6,PTA6*%
%TO.N,/PTA6*%
X123983000Y-64243000D03*
%TO.P,MKL02Z32VFG1,5,PTA5*%
%TO.N,/PTA5*%
X124483000Y-64243000D03*
D43*
%TO.P,MKL02Z32VFG1,4,PTA4*%
%TO.N,/PTA4*%
X125283000Y-63443000D03*
%TO.P,MKL02Z32VFG1,3,PTA3*%
%TO.N,/PTA3*%
X125283000Y-62943000D03*
%TO.P,MKL02Z32VFG1,2,VREFL_VSS*%
%TO.N,GNDREF*%
X125283000Y-62443000D03*
%TO.P,MKL02Z32VFG1,1,VDD_VREFH*%
%TO.N,+3.3V*%
X125283000Y-61943000D03*
%TD*%
D29*
%TO.P,SERVO4,MP*%
%TO.N,N/C*%
X134860000Y-42860000D03*
X134860000Y-49060000D03*
D30*
%TO.P,SERVO4,3,3*%
%TO.N,/Servo4_PWM*%
X131510000Y-44710000D03*
%TO.P,SERVO4,2,2*%
%TO.N,+7.5V*%
X131510000Y-45960000D03*
%TO.P,SERVO4,1,1*%
%TO.N,GNDREF*%
X131510000Y-47210000D03*
%TD*%
D28*
%TO.P,R3,2*%
%TO.N,+3.3V*%
X121545500Y-71743000D03*
%TO.P,R3,1*%
%TO.N,Net-(TPS62111RSAR1-PG)*%
X119720500Y-71743000D03*
%TD*%
D24*
%TO.P,C26,2*%
%TO.N,GNDREF*%
X117733000Y-53193000D03*
%TO.P,C26,1*%
%TO.N,/M1M2*%
X117733000Y-55018000D03*
%TD*%
%TO.P,C25,1*%
%TO.N,/M1M2*%
X114983000Y-54968000D03*
%TO.P,C25,2*%
%TO.N,GNDREF*%
X114983000Y-53143000D03*
%TD*%
D28*
%TO.P,R18,2*%
%TO.N,+3.3V*%
X100295500Y-43543000D03*
%TO.P,R18,1*%
%TO.N,Net-(BNO1-NRST)*%
X98470500Y-43543000D03*
%TD*%
D18*
%TO.P,C11,1*%
%TO.N,Net-(MIMXRT1062DVL6B1-DCDC_IN_1)*%
X104353000Y-51130500D03*
%TO.P,C11,2*%
%TO.N,GNDREF*%
X104353000Y-52955500D03*
%TD*%
D20*
%TO.P,R14,2*%
%TO.N,/BMO085_SCL*%
X98470500Y-45630000D03*
%TO.P,R14,1*%
%TO.N,+3.3V*%
X100295500Y-45630000D03*
%TD*%
D44*
%TO.P,F1,1*%
%TO.N,Net-(ScrewTerminal2-Pin_2)*%
X99183000Y-78243000D03*
%TO.P,F1,2*%
%TO.N,+BATT*%
X99183000Y-75443000D03*
%TD*%
D28*
%TO.P,C3,1*%
%TO.N,GNDREF*%
X114670500Y-65143000D03*
%TO.P,C3,2*%
%TO.N,+7.5V*%
X116495500Y-65143000D03*
%TD*%
D18*
%TO.P,C40,1,1*%
%TO.N,+3.3V*%
X100883000Y-67930500D03*
%TO.P,C40,2,2*%
%TO.N,GNDREF*%
X100883000Y-69755500D03*
%TD*%
%TO.P,C17,2*%
%TO.N,GNDREF*%
X104683000Y-57168000D03*
%TO.P,C17,1*%
%TO.N,+3.3V*%
X104683000Y-55343000D03*
%TD*%
D28*
%TO.P,R16,2*%
%TO.N,GNDREF*%
X100295500Y-39043000D03*
%TO.P,R16,1*%
%TO.N,Net-(BNO1-H_SA0{slash}MOSI)*%
X98470500Y-39043000D03*
%TD*%
D20*
%TO.P,C2,1*%
%TO.N,GNDREF*%
X123458000Y-70093000D03*
%TO.P,C2,2*%
%TO.N,+3.3V*%
X121633000Y-70093000D03*
%TD*%
D18*
%TO.P,C6,1*%
%TO.N,+3.3V*%
X98483000Y-55343000D03*
%TO.P,C6,2*%
%TO.N,GNDREF*%
X98483000Y-57168000D03*
%TD*%
D19*
%TO.P,FID4,*%
%TO.N,*%
X127383000Y-81293000D03*
%TD*%
D45*
%TO.P,REF\u002A\u002A,1*%
%TO.N,N/C*%
X126955000Y-77490000D03*
X127504175Y-76164175D03*
X127504175Y-78815825D03*
X128830000Y-75615000D03*
D46*
X128830000Y-77490000D03*
D45*
X128830000Y-79365000D03*
X130155825Y-76164175D03*
X130155825Y-78815825D03*
X130705000Y-77490000D03*
%TD*%
%TO.P,REF\u002A\u002A,1*%
%TO.N,N/C*%
X89061000Y-39596000D03*
X89610175Y-38270175D03*
X89610175Y-40921825D03*
X90936000Y-37721000D03*
D46*
X90936000Y-39596000D03*
D45*
X90936000Y-41471000D03*
X92261825Y-38270175D03*
X92261825Y-40921825D03*
X92811000Y-39596000D03*
%TD*%
%TO.P,REF\u002A\u002A,1*%
%TO.N,N/C*%
X126955000Y-39596000D03*
X127504175Y-38270175D03*
X127504175Y-40921825D03*
X128830000Y-37721000D03*
D46*
X128830000Y-39596000D03*
D45*
X128830000Y-41471000D03*
X130155825Y-38270175D03*
X130155825Y-40921825D03*
X130705000Y-39596000D03*
%TD*%
%TO.P,REF\u002A\u002A,1*%
%TO.N,N/C*%
X89082175Y-77493000D03*
X89631350Y-76167175D03*
X89631350Y-78818825D03*
X90957175Y-75618000D03*
D46*
X90957175Y-77493000D03*
D45*
X90957175Y-79368000D03*
X92283000Y-76167175D03*
X92283000Y-78818825D03*
X92832175Y-77493000D03*
%TD*%
D47*
%TO.N,GNDREF*%
X119533000Y-69793000D03*
D48*
X110183000Y-65843000D03*
D49*
X126483000Y-55043000D03*
D47*
X84083000Y-63643000D03*
D48*
X122583000Y-41543000D03*
D49*
X122183000Y-79643000D03*
D48*
X135383000Y-50143000D03*
X133583000Y-50143000D03*
D47*
X85033000Y-49443000D03*
X115833000Y-46893000D03*
X99433000Y-69943000D03*
D48*
X130285001Y-52980740D03*
X135483000Y-56043000D03*
D47*
X114743499Y-66103634D03*
X105483000Y-68824250D03*
D48*
X108780636Y-54947729D03*
D47*
X97183000Y-60243000D03*
D48*
X136183000Y-62243000D03*
X134483000Y-50143000D03*
D47*
X123983000Y-53943000D03*
D48*
X115183000Y-62143000D03*
D47*
X121183000Y-53543000D03*
D48*
X119283000Y-58143000D03*
X132783000Y-50143000D03*
D47*
X90683000Y-48643000D03*
D50*
X86733000Y-70593000D03*
D48*
X130283000Y-64743000D03*
D47*
X126383000Y-62143000D03*
X89083000Y-65943000D03*
D48*
X111983000Y-52543000D03*
D47*
X104083000Y-48043000D03*
X93783000Y-69243000D03*
X93783000Y-67943000D03*
D48*
X136183000Y-52843000D03*
X107583000Y-62243000D03*
X112783000Y-57343000D03*
D47*
X112483000Y-70593000D03*
X116783000Y-42143000D03*
X124483000Y-34643000D03*
D48*
X131083000Y-50143000D03*
X119295808Y-62945499D03*
X134783000Y-56043000D03*
X131183000Y-60535001D03*
X130283000Y-52043000D03*
X130283000Y-60543000D03*
X130283000Y-58443000D03*
X136183000Y-56043000D03*
D49*
X133416000Y-71960000D03*
X126083000Y-57843000D03*
D48*
X135183000Y-66543000D03*
D47*
X123733000Y-77143000D03*
D48*
X130283000Y-56243000D03*
X136183000Y-53643000D03*
D47*
X124783000Y-36843000D03*
X98783000Y-40243000D03*
X105483000Y-52868500D03*
D48*
X131283000Y-56043000D03*
D49*
X117083000Y-79643000D03*
D48*
X136183000Y-54443000D03*
X136183000Y-66543000D03*
D47*
X87083000Y-55143000D03*
D48*
X136183000Y-64043000D03*
D47*
X124695500Y-70093000D03*
D48*
X111183000Y-61343000D03*
D47*
X101483000Y-56393000D03*
X107783000Y-52043000D03*
X101783000Y-49749000D03*
D48*
X132083000Y-60535000D03*
X131783000Y-66543000D03*
D47*
X106083000Y-57338500D03*
D48*
X130283000Y-59143000D03*
X130283000Y-57143000D03*
X135183000Y-60543000D03*
D47*
X96783000Y-41343000D03*
D48*
X136183000Y-61343000D03*
D47*
X120183000Y-34543000D03*
X117283000Y-66843000D03*
X95283000Y-69843000D03*
X99760001Y-53365999D03*
X105883000Y-39343000D03*
X129583000Y-47943000D03*
D48*
X133583000Y-66543000D03*
X136183000Y-58343000D03*
D47*
X117383000Y-51043000D03*
X88408000Y-57943000D03*
D48*
X130383000Y-66543000D03*
D47*
X83983000Y-53443000D03*
X103183000Y-43943000D03*
D48*
X115983000Y-53343000D03*
X136183000Y-50143000D03*
X130283000Y-51143000D03*
X130283000Y-54743000D03*
X130283000Y-50143000D03*
X119382613Y-54992421D03*
D47*
X84383000Y-61343000D03*
D48*
X130283000Y-63343000D03*
X131883000Y-50143000D03*
X136183000Y-52043000D03*
D47*
X103107000Y-61467000D03*
D48*
X133183000Y-56043000D03*
D47*
X118533000Y-67718000D03*
D48*
X119383000Y-51593000D03*
X136183000Y-63143000D03*
X130283000Y-59843000D03*
D47*
X111583000Y-71493000D03*
D48*
X101783000Y-40743000D03*
D47*
X120083000Y-38843000D03*
X93733000Y-70468000D03*
X112718340Y-67316302D03*
D48*
X132183000Y-56043000D03*
D47*
X115383000Y-50943000D03*
D48*
X134283000Y-60543000D03*
X129158000Y-67143000D03*
X133983000Y-56043000D03*
X133483000Y-60543000D03*
X130283000Y-61785000D03*
D47*
X100934156Y-51891844D03*
D48*
X113583000Y-57343000D03*
X136183000Y-55243000D03*
X136196088Y-64710107D03*
D47*
X101983000Y-39043000D03*
D48*
X136183000Y-60543000D03*
D47*
X116583000Y-44043000D03*
D48*
X130283000Y-64043000D03*
D47*
X118733000Y-70301000D03*
D48*
X132683000Y-66543000D03*
D47*
X107883000Y-35743000D03*
D49*
X133683000Y-47468000D03*
X111983000Y-79843000D03*
D47*
X95183000Y-68043000D03*
D49*
%TO.N,+7.5V*%
X133683000Y-46043000D03*
X128033000Y-62493000D03*
D47*
X112583000Y-69343000D03*
X116567060Y-66101840D03*
D48*
X111883000Y-69343000D03*
D47*
X112583000Y-68543000D03*
X111783000Y-68543000D03*
D49*
X128083000Y-54210000D03*
X128033000Y-70693000D03*
D47*
%TO.N,+3.3V*%
X86983000Y-58443000D03*
X90633000Y-45493000D03*
X98483000Y-49343000D03*
X91983000Y-54343000D03*
X116283000Y-40543000D03*
X100283000Y-44593000D03*
D49*
X120633000Y-73243000D03*
D48*
X112757838Y-58943001D03*
D49*
X121683000Y-73943000D03*
D47*
X88383000Y-54943000D03*
X108833000Y-64293000D03*
X100871165Y-52895365D03*
X99383000Y-68393000D03*
X90733000Y-47493000D03*
D48*
X110383000Y-58143000D03*
D47*
X116583000Y-45843000D03*
D49*
X121733000Y-72943000D03*
D47*
X100983000Y-40343000D03*
D48*
X111183000Y-54943000D03*
D49*
X120583000Y-74243000D03*
D48*
X106783000Y-61943000D03*
X112774515Y-56468000D03*
D47*
X111083000Y-36243000D03*
X126455500Y-61220499D03*
X123483000Y-41243000D03*
X105798000Y-55513500D03*
X126733000Y-69093000D03*
X118783000Y-47643000D03*
D48*
X115980000Y-54946000D03*
%TO.N,/PTA3*%
X113580501Y-55740501D03*
X126483000Y-62943000D03*
X114383000Y-58943000D03*
X123310001Y-60115999D03*
X126383000Y-64243000D03*
X120083000Y-57437932D03*
%TO.N,/PTA5*%
X124483000Y-65143000D03*
%TO.N,/PTA7*%
X123483000Y-65143000D03*
%TO.N,/PTA6*%
X123933000Y-65943000D03*
%TO.N,/PTB5*%
X122683000Y-60243000D03*
%TO.N,/PTA4*%
X115213889Y-59712111D03*
%TO.N,/PTA1*%
X124079967Y-60246033D03*
%TO.N,/PTB4*%
X116783000Y-59743000D03*
%TO.N,/PTB1*%
X109583000Y-56543000D03*
X120100466Y-61625534D03*
X120833000Y-58393000D03*
%TO.N,/PTB0*%
X115183001Y-60542999D03*
%TO.N,/P11*%
X105783000Y-70643000D03*
X106183000Y-61045500D03*
%TO.N,/M1M2*%
X113635500Y-48743000D03*
X114383000Y-56543000D03*
%TO.N,/Reserve_TX*%
X114884302Y-63944953D03*
%TO.N,Net-(MIMXRT1062DVL6B1-VDD_USB_CAP)*%
X111183000Y-57343000D03*
X107733000Y-61418000D03*
%TO.N,/D0*%
X86183000Y-44343000D03*
%TO.N,/CS*%
X110383000Y-54143000D03*
%TO.N,/D2*%
X107583000Y-55043000D03*
%TO.N,/CLK*%
X98283000Y-50643000D03*
%TO.N,/D1*%
X107683000Y-54243000D03*
%TO.N,/D3*%
X98183000Y-52043000D03*
%TO.N,/BMP390_SCL1*%
X111183000Y-58943000D03*
D51*
X129183000Y-64748800D03*
D48*
%TO.N,/BMP390_SDA1*%
X122133000Y-66293000D03*
D47*
X103733000Y-66543000D03*
D48*
X112756585Y-63184517D03*
D47*
X95289250Y-65086750D03*
D48*
%TO.N,/Xbee_TX*%
X92483000Y-54993000D03*
X97283000Y-57743000D03*
X106783000Y-59828000D03*
X98483000Y-60343000D03*
D47*
%TO.N,/Xbee_RX*%
X99583000Y-60393000D03*
D48*
X112783000Y-59743000D03*
%TO.N,/Cam_TX*%
X118383000Y-56543000D03*
X97933000Y-61543003D03*
%TO.N,/Cam_RX*%
X97933000Y-60943000D03*
X115980000Y-56515540D03*
%TO.N,/PyroCH3_4*%
X120313034Y-67312966D03*
X117583000Y-57343000D03*
%TO.N,/ADXL375_SDA2*%
X110383000Y-62143000D03*
D47*
X113833000Y-47693000D03*
D48*
%TO.N,/SD_B0_02*%
X110258000Y-47543000D03*
%TO.N,/PyroCH1_2*%
X115183000Y-51643000D03*
X118283000Y-67043000D03*
%TO.N,/BMO085_SDA*%
X111983000Y-55743000D03*
D47*
X101783000Y-47943000D03*
D48*
%TO.N,/EMC_24*%
X119933000Y-46693000D03*
%TO.N,/EMC_26*%
X123733000Y-50143000D03*
%TO.N,/SD_B0_04*%
X113583000Y-50743000D03*
%TO.N,/SD_B0_03*%
X110258000Y-50668000D03*
%TO.N,/SD_B0_00*%
X112783000Y-54143000D03*
%TO.N,/BMO085_SCL*%
X111983000Y-60543000D03*
D47*
X96683000Y-45643000D03*
X100183000Y-49343000D03*
%TO.N,/ADXL375_SCL2*%
X114533000Y-47143000D03*
D48*
X111183000Y-62943000D03*
%TO.N,/Pyro3_Test_39*%
X114383000Y-61343000D03*
%TO.N,/D+*%
X110383000Y-57343000D03*
X92383000Y-59143000D03*
%TO.N,/EMC_29*%
X115583000Y-49243000D03*
%TO.N,/Pyro1_Test_40*%
X110383000Y-61343000D03*
%TO.N,/Pyro2_Test_41*%
X113756698Y-65619302D03*
%TO.N,/D-*%
X92383000Y-58543000D03*
X109583000Y-57343000D03*
%TO.N,/Reserve_RX*%
X115515547Y-64110453D03*
%TO.N,/Servo1_PWM*%
X120083000Y-63043000D03*
%TO.N,/EMC_28*%
X116633000Y-50693000D03*
%TO.N,/EMC_27*%
X120783000Y-46693000D03*
%TO.N,/Servo4_PWM*%
X120083000Y-58943000D03*
%TO.N,/SD_B0_01*%
X112000602Y-53343000D03*
%TO.N,/PyroCH2_3*%
X119797331Y-67728669D03*
X115983000Y-58143000D03*
%TO.N,/Servo2_PWM*%
X120083000Y-60195500D03*
%TO.N,/Servo3_PWM*%
X120083000Y-59595497D03*
%TO.N,/EMC_25*%
X118268189Y-51328189D03*
%TO.N,/SD_B0_05*%
X112783000Y-50743000D03*
D47*
%TO.N,Net-(BNO1-BOOTN)*%
X99883000Y-40243000D03*
%TO.N,Net-(BNO1-NRST)*%
X96683000Y-44443000D03*
%TO.N,Net-(BNO1-H_SA0{slash}MOSI)*%
X97083000Y-39043000D03*
%TO.N,Net-(MIMXRT1062DVL6B1-DCDC_IN_1)*%
X107783000Y-51043000D03*
D48*
%TO.N,Net-(MIMXRT1062DVL6B1-VDD_HIGH_CAP)*%
X106983000Y-55640500D03*
X107633000Y-56995500D03*
%TO.N,Net-(KMR241GLFS1-COM_1)*%
X121383000Y-62943000D03*
X132283000Y-48543000D03*
%TO.N,Net-(MIMXRT1062DVL6B1-GPIO_B0_03)*%
X122433000Y-50893000D03*
X120075500Y-54905500D03*
%TO.N,Net-(MKL02Z32VFG1-PTB3{slash}IRQ_10)*%
X121283000Y-61943000D03*
%TO.N,Net-(MIMXRT1062DVL6B1-GPIO_AD_B1_15)*%
X106783000Y-67143000D03*
X112083000Y-63443000D03*
%TD*%
D52*
%TO.N,Net-(TPS62111RSAR1-PG)*%
X119320500Y-71343000D02*
X119720500Y-71743000D01*
X116508000Y-71343000D02*
X119320500Y-71343000D01*
D53*
%TO.N,+7.5V*%
X116508000Y-66160900D02*
X116567060Y-66101840D01*
X116508000Y-67343000D02*
X116508000Y-66160900D01*
%TO.N,GNDREF*%
X119408000Y-69668000D02*
X119533000Y-69793000D01*
X117533000Y-69668000D02*
X119408000Y-69668000D01*
%TO.N,+3.3V*%
X120895500Y-69018000D02*
X117533000Y-69018000D01*
X121670500Y-68243000D02*
X120895500Y-69018000D01*
%TO.N,GNDREF*%
X115858000Y-67343000D02*
X115208000Y-67343000D01*
X115208000Y-67343000D02*
X114558000Y-67343000D01*
D54*
X125483000Y-67455500D02*
X128845500Y-67455500D01*
D55*
X106083000Y-57338500D02*
X104683000Y-57338500D01*
X108882500Y-52868500D02*
X108883000Y-52868000D01*
X87133000Y-55193000D02*
X87083000Y-55143000D01*
X105483000Y-52868500D02*
X106623000Y-52868500D01*
X93783000Y-67943000D02*
X93362900Y-67943000D01*
D56*
X123723000Y-42683000D02*
X122583000Y-41543000D01*
D55*
X93733000Y-70468000D02*
X93608000Y-70343000D01*
X110583000Y-70755500D02*
X111520500Y-70755500D01*
D54*
X120350250Y-53543000D02*
X119983000Y-53910250D01*
D53*
X122183000Y-79330500D02*
X122970500Y-78543000D01*
D55*
X123458000Y-70093000D02*
X124695500Y-70093000D01*
D57*
X126083000Y-57843000D02*
X132810000Y-57843000D01*
D55*
X99433000Y-69943000D02*
X100283000Y-69943000D01*
X107783000Y-52868500D02*
X108882500Y-52868500D01*
X106748500Y-52743000D02*
X107657500Y-52743000D01*
X95283000Y-69693000D02*
X95908000Y-69068000D01*
X112383000Y-70493000D02*
X112483000Y-70593000D01*
X115533000Y-69326000D02*
X114558000Y-70301000D01*
D52*
X125283000Y-62443000D02*
X126083000Y-62443000D01*
D55*
X88133000Y-57668000D02*
X88133000Y-57305500D01*
D52*
X123733000Y-74005500D02*
X123583000Y-73855500D01*
D55*
X106623000Y-52868500D02*
X106748500Y-52743000D01*
D52*
X120183000Y-34543000D02*
X118783000Y-34543000D01*
D55*
X111783000Y-70493000D02*
X112383000Y-70493000D01*
X100283000Y-69943000D02*
X100470500Y-69755500D01*
D54*
X128845500Y-67455500D02*
X129158000Y-67143000D01*
X118783000Y-65768000D02*
X118358000Y-65768000D01*
D52*
X103908000Y-41855500D02*
X103908000Y-43030500D01*
X110183000Y-65843000D02*
X109958000Y-66068000D01*
X124733000Y-36793000D02*
X124783000Y-36843000D01*
X107558000Y-35418000D02*
X107883000Y-35743000D01*
D55*
X113533000Y-70301000D02*
X113533000Y-70726000D01*
X115533000Y-69326000D02*
X116508000Y-68351000D01*
D54*
X117893309Y-61543000D02*
X119295808Y-62945499D01*
D52*
X115383000Y-53143000D02*
X114983000Y-53143000D01*
X103770500Y-43355500D02*
X103183000Y-43943000D01*
D55*
X117083000Y-67776000D02*
X117083000Y-67043000D01*
D53*
X117083000Y-79180500D02*
X117720500Y-78543000D01*
D52*
X115683000Y-51243000D02*
X115683000Y-52843000D01*
D53*
X111983000Y-79030500D02*
X112470500Y-78543000D01*
D55*
X107657500Y-52743000D02*
X107783000Y-52868500D01*
D52*
X104233000Y-43355500D02*
X103770500Y-43355500D01*
D55*
X116508000Y-68351000D02*
X117900000Y-68351000D01*
D53*
X116508000Y-70301000D02*
X118733000Y-70301000D01*
X114558000Y-66289133D02*
X114743499Y-66103634D01*
D52*
X123733000Y-77143000D02*
X123733000Y-74005500D01*
D57*
X133416000Y-71960000D02*
X131510000Y-71960000D01*
D52*
X117895500Y-34255500D02*
X118483000Y-34843000D01*
D55*
X100470500Y-69755500D02*
X100883000Y-69755500D01*
D52*
X104158000Y-34255500D02*
X96635500Y-34255500D01*
D57*
X133683000Y-47468000D02*
X133425000Y-47210000D01*
D52*
X121483000Y-34743000D02*
X120383000Y-34743000D01*
D55*
X91665200Y-70343000D02*
X91640200Y-70368000D01*
X114133000Y-71326000D02*
X114558000Y-71326000D01*
D54*
X118358000Y-65768000D02*
X117283000Y-66843000D01*
D53*
X116508000Y-70301000D02*
X115533000Y-69326000D01*
D55*
X88408000Y-57943000D02*
X88133000Y-57668000D01*
X105483000Y-52868500D02*
X104440000Y-52868500D01*
D57*
X132810000Y-57843000D02*
X132810000Y-62862684D01*
D52*
X123983000Y-62443000D02*
X125283000Y-62443000D01*
D57*
X126483000Y-55043000D02*
X126883000Y-55443000D01*
D52*
X88083000Y-61355500D02*
X85983000Y-61355500D01*
D55*
X114670500Y-64993000D02*
X114670500Y-66030635D01*
X95183000Y-68043000D02*
X95183000Y-68343000D01*
X99008000Y-70368000D02*
X97475800Y-70368000D01*
D54*
X121183000Y-53543000D02*
X120350250Y-53543000D01*
D55*
X93362900Y-67943000D02*
X92237900Y-69068000D01*
D54*
X91870500Y-47455500D02*
X90683000Y-48643000D01*
D52*
X121483000Y-38843000D02*
X120083000Y-38843000D01*
X86133000Y-49443000D02*
X85033000Y-49443000D01*
D53*
X117083000Y-79643000D02*
X117083000Y-79180500D01*
D52*
X123733000Y-62693000D02*
X123983000Y-62443000D01*
D55*
X93608000Y-70343000D02*
X91665200Y-70343000D01*
D52*
X103908000Y-43030500D02*
X104233000Y-43355500D01*
X115858000Y-42505500D02*
X116420500Y-42505500D01*
D55*
X95908000Y-69068000D02*
X97475800Y-69068000D01*
D57*
X131493000Y-55443000D02*
X131510000Y-55460000D01*
D52*
X118783000Y-34543000D02*
X118483000Y-34843000D01*
D55*
X98483000Y-57351000D02*
X100458000Y-57351000D01*
D57*
X133425000Y-47210000D02*
X131510000Y-47210000D01*
D55*
X112775000Y-70301000D02*
X112483000Y-70593000D01*
X113533000Y-70726000D02*
X114133000Y-71326000D01*
D52*
X115508000Y-34255500D02*
X117895500Y-34255500D01*
D53*
X122183000Y-79643000D02*
X122183000Y-79330500D01*
D52*
X123708000Y-36793000D02*
X124733000Y-36793000D01*
D55*
X104440000Y-52868500D02*
X104353000Y-52955500D01*
X87633000Y-55780500D02*
X87133000Y-55780500D01*
X93783000Y-69243000D02*
X93308000Y-69718000D01*
X117900000Y-68351000D02*
X118533000Y-67718000D01*
D52*
X126083000Y-62443000D02*
X126383000Y-62143000D01*
D54*
X123983000Y-53943000D02*
X122248500Y-53943000D01*
D52*
X107558000Y-34130500D02*
X107558000Y-35418000D01*
D54*
X117083000Y-61543000D02*
X117893309Y-61543000D01*
D52*
X116420500Y-42505500D02*
X116783000Y-42143000D01*
X84395500Y-61355500D02*
X84383000Y-61343000D01*
X115683000Y-52843000D02*
X115383000Y-53143000D01*
D55*
X93308000Y-69718000D02*
X91640200Y-69718000D01*
D52*
X123083000Y-34743000D02*
X124383000Y-34743000D01*
D55*
X102483000Y-57355500D02*
X104666000Y-57355500D01*
D52*
X117383000Y-52843000D02*
X117733000Y-53193000D01*
X117383000Y-51043000D02*
X117383000Y-52843000D01*
X120383000Y-34743000D02*
X120183000Y-34543000D01*
D57*
X131962684Y-63710000D02*
X131510000Y-63710000D01*
D53*
X114558000Y-66289133D02*
X114558000Y-68351000D01*
D55*
X111520500Y-70755500D02*
X111783000Y-70493000D01*
D52*
X115383000Y-50943000D02*
X115683000Y-51243000D01*
X124383000Y-34743000D02*
X124483000Y-34643000D01*
X85983000Y-61355500D02*
X84395500Y-61355500D01*
D55*
X95183000Y-68343000D02*
X95908000Y-69068000D01*
D52*
X115408000Y-44930500D02*
X115695500Y-44930500D01*
D55*
X117083000Y-67043000D02*
X117283000Y-66843000D01*
X114670500Y-66030635D02*
X114743499Y-66103634D01*
X114558000Y-70301000D02*
X114558000Y-71326000D01*
D52*
X115695500Y-44930500D02*
X116583000Y-44043000D01*
D53*
X114558000Y-68351000D02*
X115533000Y-69326000D01*
D54*
X92083000Y-47455500D02*
X91870500Y-47455500D01*
D53*
X111983000Y-79843000D02*
X111983000Y-79030500D01*
D52*
X109958000Y-66068000D02*
X107783000Y-66068000D01*
D57*
X132810000Y-62862684D02*
X131962684Y-63710000D01*
D55*
X87133000Y-55780500D02*
X87133000Y-55193000D01*
X100483000Y-57326000D02*
X102453500Y-57326000D01*
X92237900Y-69068000D02*
X91640200Y-69068000D01*
X113533000Y-70301000D02*
X112775000Y-70301000D01*
X107783000Y-52043000D02*
X107783000Y-52868500D01*
X95283000Y-69843000D02*
X95283000Y-69693000D01*
X115533000Y-69326000D02*
X117083000Y-67776000D01*
D56*
X123723000Y-43093000D02*
X123723000Y-42683000D01*
D52*
X96635500Y-34255500D02*
X96183000Y-33803000D01*
D57*
X126883000Y-55443000D02*
X131493000Y-55443000D01*
D55*
X99433000Y-69943000D02*
X99008000Y-70368000D01*
D57*
%TO.N,+7.5V*%
X131510000Y-62460000D02*
X128066000Y-62460000D01*
D55*
X116495500Y-64993000D02*
X116495500Y-66030280D01*
D57*
X131510000Y-70710000D02*
X128050000Y-70710000D01*
X133583000Y-45943000D02*
X131527000Y-45943000D01*
X133683000Y-46043000D02*
X133583000Y-45943000D01*
X131270500Y-53970500D02*
X128322500Y-53970500D01*
X131510000Y-54210000D02*
X131270500Y-53970500D01*
D55*
X128050000Y-70710000D02*
X128033000Y-70693000D01*
D57*
X131527000Y-45943000D02*
X131510000Y-45960000D01*
D55*
X128066000Y-62460000D02*
X128033000Y-62493000D01*
X116495500Y-66030280D02*
X116567060Y-66101840D01*
D57*
X128322500Y-53970500D02*
X128083000Y-54210000D01*
D55*
%TO.N,+3.3V*%
X108883000Y-64343000D02*
X110783000Y-64343000D01*
X86983000Y-59530500D02*
X85983000Y-59530500D01*
X102483000Y-55530500D02*
X100512500Y-55530500D01*
X98115512Y-68418000D02*
X97475800Y-68418000D01*
X105798000Y-55513500D02*
X104683000Y-55513500D01*
X126455500Y-61220499D02*
X125732999Y-61943000D01*
X88383000Y-54943000D02*
X88133000Y-55193000D01*
D52*
X90770500Y-45630500D02*
X90633000Y-45493000D01*
D55*
X121545500Y-71943000D02*
X121545500Y-71868000D01*
D52*
X90583000Y-45543000D02*
X90633000Y-45493000D01*
D55*
X87133000Y-58293000D02*
X86983000Y-58443000D01*
D52*
X88533000Y-45543000D02*
X90583000Y-45543000D01*
D55*
X108783000Y-64243000D02*
X107783000Y-64243000D01*
X98140512Y-68393000D02*
X98115512Y-68418000D01*
X102483000Y-55530500D02*
X104666000Y-55530500D01*
D54*
X91970500Y-54330500D02*
X91983000Y-54343000D01*
D55*
X88133000Y-55193000D02*
X88133000Y-55780500D01*
X86983000Y-59530500D02*
X86983000Y-58443000D01*
X108833000Y-64293000D02*
X108883000Y-64343000D01*
D52*
X99383000Y-68393000D02*
X100420500Y-68393000D01*
D55*
X111083000Y-36243000D02*
X109758000Y-34918000D01*
D52*
X100420500Y-68393000D02*
X100883000Y-67930500D01*
D55*
X88133000Y-56043000D02*
X88383000Y-56293000D01*
X121633000Y-68280500D02*
X121670500Y-68243000D01*
X88083000Y-59530500D02*
X86983000Y-59530500D01*
X99383000Y-68393000D02*
X98140512Y-68393000D01*
X87133000Y-57305500D02*
X87133000Y-58293000D01*
X109758000Y-34918000D02*
X109758000Y-34130500D01*
D52*
X98483000Y-49343000D02*
X98470500Y-49330500D01*
D54*
X90583000Y-54330500D02*
X91970500Y-54330500D01*
D55*
X100871165Y-52895365D02*
X100943800Y-52968000D01*
X87133000Y-57305500D02*
X87133000Y-57043000D01*
D52*
X100295500Y-44605500D02*
X100283000Y-44593000D01*
X100295500Y-43543000D02*
X100295500Y-44580500D01*
D55*
X98483000Y-55526000D02*
X100458000Y-55526000D01*
X100943800Y-52968000D02*
X102083000Y-52968000D01*
D52*
X92083000Y-45630500D02*
X90770500Y-45630500D01*
X119633000Y-48493000D02*
X119913000Y-48493000D01*
D55*
X88133000Y-55780500D02*
X88133000Y-56043000D01*
X87133000Y-57043000D02*
X86883000Y-56793000D01*
D52*
X100295500Y-41206000D02*
X100295500Y-43543000D01*
X118783000Y-47643000D02*
X119633000Y-48493000D01*
D55*
X108833000Y-64293000D02*
X108783000Y-64243000D01*
D52*
X98470500Y-49330500D02*
X98470500Y-47880000D01*
D55*
X125732999Y-61943000D02*
X125283000Y-61943000D01*
D52*
X100295500Y-44580500D02*
X100283000Y-44593000D01*
X100295500Y-45630000D02*
X100295500Y-44605500D01*
%TO.N,/PTA3*%
X126483000Y-62943000D02*
X125283000Y-62943000D01*
D54*
X125483000Y-65630500D02*
X126383000Y-64730500D01*
D56*
X119183000Y-58943000D02*
X114383000Y-58943000D01*
X126983000Y-60843000D02*
X125933533Y-59793533D01*
X120083000Y-57437932D02*
X120083000Y-58043000D01*
X126483000Y-62943000D02*
X126791596Y-62943000D01*
X125933533Y-59793533D02*
X123632467Y-59793533D01*
X120083000Y-58043000D02*
X119183000Y-58943000D01*
D54*
X126383000Y-64730500D02*
X126383000Y-64243000D01*
D56*
X123632467Y-59793533D02*
X123310001Y-60115999D01*
X126791596Y-62943000D02*
X126983000Y-62751596D01*
X126983000Y-62751596D02*
X126983000Y-60843000D01*
%TO.N,/PTA5*%
X124483000Y-65143000D02*
X124483000Y-64243000D01*
%TO.N,/PTA7*%
X123483000Y-64243000D02*
X123483000Y-65143000D01*
%TO.N,/PTA6*%
X123933000Y-65943000D02*
X123983000Y-65893000D01*
X123983000Y-65893000D02*
X123983000Y-64243000D01*
%TO.N,/PTB5*%
X122683000Y-60843000D02*
X122983000Y-61143000D01*
X122683000Y-60243000D02*
X122683000Y-60843000D01*
%TO.N,/PTA4*%
X122185672Y-59348000D02*
X126088000Y-59348000D01*
X118759268Y-60648000D02*
X120885672Y-60648000D01*
X117401768Y-59290500D02*
X118759268Y-60648000D01*
X126570432Y-63595500D02*
X125435500Y-63595500D01*
X127405500Y-62752920D02*
X127409256Y-62756676D01*
X115635500Y-59290500D02*
X117401768Y-59290500D01*
X120885672Y-60648000D02*
X122185672Y-59348000D01*
X126088000Y-59348000D02*
X127405500Y-60665500D01*
X125435500Y-63595500D02*
X125283000Y-63443000D01*
X115213889Y-59712111D02*
X115635500Y-59290500D01*
X127409256Y-62756676D02*
X126570432Y-63595500D01*
X127405500Y-60665500D02*
X127405500Y-62752920D01*
%TO.N,/PTA1*%
X123983000Y-60343000D02*
X124079967Y-60246033D01*
X123983000Y-61143000D02*
X123983000Y-60343000D01*
%TO.N,/PTB4*%
X122183000Y-61943000D02*
X122183000Y-61443000D01*
X121683000Y-60943000D02*
X121022008Y-60943000D01*
X121012008Y-60953000D02*
X118632932Y-60953000D01*
X121022008Y-60943000D02*
X121012008Y-60953000D01*
X122183000Y-61443000D02*
X121683000Y-60943000D01*
X118632932Y-60953000D02*
X117422932Y-59743000D01*
X117422932Y-59743000D02*
X116783000Y-59743000D01*
%TO.N,/PTB1*%
X120888000Y-63448000D02*
X121183000Y-63743000D01*
X113215568Y-56015500D02*
X114195568Y-56995500D01*
X120100466Y-61625534D02*
X120888000Y-62413068D01*
X112407083Y-56195500D02*
X112587083Y-56015500D01*
X120228000Y-56943000D02*
X120833000Y-57548000D01*
X120833000Y-57548000D02*
X120833000Y-58393000D01*
X120888000Y-62413068D02*
X120888000Y-63448000D01*
X109583000Y-56543000D02*
X110383000Y-55743000D01*
X111795568Y-56195500D02*
X112407083Y-56195500D01*
X119959310Y-56943000D02*
X120228000Y-56943000D01*
X115792568Y-56063040D02*
X119079350Y-56063040D01*
X111343068Y-55743000D02*
X111795568Y-56195500D01*
X114860108Y-56995500D02*
X115792568Y-56063040D01*
X121183000Y-63743000D02*
X121883000Y-63743000D01*
X121883000Y-63743000D02*
X122183000Y-63443000D01*
X114195568Y-56995500D02*
X114860108Y-56995500D01*
X110383000Y-55743000D02*
X111343068Y-55743000D01*
X112587083Y-56015500D02*
X113215568Y-56015500D01*
X119079350Y-56063040D02*
X119959310Y-56943000D01*
%TO.N,/PTB0*%
X120583000Y-62903068D02*
X120583000Y-63643000D01*
X120988000Y-64048000D02*
X122788000Y-64048000D01*
X120583000Y-63643000D02*
X120988000Y-64048000D01*
X115183001Y-60542999D02*
X115483000Y-60243000D01*
X122788000Y-64048000D02*
X122983000Y-64243000D01*
X120270432Y-62590500D02*
X120583000Y-62903068D01*
X115483000Y-60243000D02*
X117483000Y-60243000D01*
X119895568Y-62590500D02*
X120270432Y-62590500D01*
X119863034Y-62623034D02*
X119895568Y-62590500D01*
X117483000Y-60243000D02*
X119863034Y-62623034D01*
%TO.N,/P11*%
X102733000Y-67593000D02*
X105783000Y-70643000D01*
X103634500Y-61685498D02*
X102733000Y-62586998D01*
X102733000Y-62586998D02*
X102733000Y-67593000D01*
X103634500Y-61591500D02*
X103634500Y-61685498D01*
X104180500Y-61045500D02*
X103634500Y-61591500D01*
X106183000Y-61045500D02*
X104180500Y-61045500D01*
D54*
%TO.N,/M1M2*%
X115310500Y-55768000D02*
X115373000Y-55705500D01*
D56*
X116783000Y-51493000D02*
X116783000Y-55305500D01*
D54*
X119936000Y-55705500D02*
X117733000Y-55705500D01*
D56*
X114033000Y-48743000D02*
X116783000Y-51493000D01*
X116783000Y-55305500D02*
X116383000Y-55705500D01*
D54*
X122186000Y-55705500D02*
X119936000Y-55705500D01*
D56*
X113635500Y-48743000D02*
X114033000Y-48743000D01*
D54*
X115158000Y-55768000D02*
X115310500Y-55768000D01*
X116383000Y-55705500D02*
X117633000Y-55705500D01*
X117733000Y-55705500D02*
X117633000Y-55705500D01*
X115158000Y-55768000D02*
X114383000Y-56543000D01*
X115373000Y-55705500D02*
X115373000Y-55358000D01*
X115373000Y-55358000D02*
X114983000Y-54968000D01*
X117733000Y-55705500D02*
X117733000Y-55018000D01*
X115373000Y-55705500D02*
X116383000Y-55705500D01*
D52*
%TO.N,/3.3v_led*%
X123583000Y-72030500D02*
X122583000Y-71030500D01*
X122583000Y-69080500D02*
X123420500Y-68243000D01*
X122583000Y-71030500D02*
X122583000Y-69080500D01*
D56*
%TO.N,Net-(MIMXRT1062DVL6B1-VDD_USB_CAP)*%
X107733000Y-61418000D02*
X108260500Y-60890500D01*
X114890570Y-60890500D02*
X114995569Y-60995499D01*
X111635500Y-61155568D02*
X112010364Y-61155568D01*
X115035499Y-60995499D02*
X117083000Y-63043000D01*
X108260500Y-60890500D02*
X111370432Y-60890500D01*
X112275432Y-60890500D02*
X114890570Y-60890500D01*
X117083000Y-63043000D02*
X117083000Y-63368000D01*
X118208000Y-63368000D02*
X118783000Y-63943000D01*
X112010364Y-61155568D02*
X112275432Y-60890500D01*
X117083000Y-63368000D02*
X118208000Y-63368000D01*
X111370432Y-60890500D02*
X111635500Y-61155568D01*
X114995569Y-60995499D02*
X115035499Y-60995499D01*
D55*
%TO.N,+BATT*%
X95330500Y-71068000D02*
X96680500Y-69718000D01*
X96680500Y-69718000D02*
X97475800Y-69718000D01*
X91640200Y-71018000D02*
X91690200Y-71068000D01*
X91690200Y-71068000D02*
X95330500Y-71068000D01*
D56*
%TO.N,/D0*%
X86133000Y-45543000D02*
X86133000Y-44393000D01*
X86133000Y-44393000D02*
X86183000Y-44343000D01*
%TO.N,/CS*%
X93378000Y-53938000D02*
X101309798Y-53938000D01*
X110030500Y-53790500D02*
X110383000Y-54143000D01*
X101309798Y-53938000D02*
X101457298Y-53790500D01*
X88883000Y-49443000D02*
X93378000Y-53938000D01*
X101457298Y-53790500D02*
X110030500Y-53790500D01*
X88533000Y-49443000D02*
X88883000Y-49443000D01*
%TO.N,/D2*%
X87683000Y-50448000D02*
X86933000Y-49698000D01*
X107583000Y-55043000D02*
X107583000Y-55003068D01*
X86933000Y-49698000D02*
X86933000Y-49443000D01*
X88835500Y-50448000D02*
X87683000Y-50448000D01*
X92935500Y-54548000D02*
X88835500Y-50448000D01*
X107583000Y-55003068D02*
X107127932Y-54548000D01*
X107127932Y-54548000D02*
X92935500Y-54548000D01*
%TO.N,/CLK*%
X98283000Y-50643000D02*
X94210500Y-46570500D01*
X94210500Y-46570500D02*
X94210500Y-45039165D01*
X94210500Y-45039165D02*
X93114335Y-43943000D01*
X86933000Y-45293000D02*
X86933000Y-45543000D01*
X88283000Y-43943000D02*
X86933000Y-45293000D01*
X93114335Y-43943000D02*
X88283000Y-43943000D01*
%TO.N,/D1*%
X88183000Y-50143000D02*
X87733000Y-49693000D01*
X88961836Y-50143000D02*
X88183000Y-50143000D01*
X107683000Y-54243000D02*
X93061836Y-54243000D01*
X93061836Y-54243000D02*
X88961836Y-50143000D01*
X87733000Y-49693000D02*
X87733000Y-49443000D01*
%TO.N,/D3*%
X87733000Y-45288000D02*
X87733000Y-45543000D01*
X98183000Y-52043000D02*
X97883000Y-52043000D01*
X97883000Y-52043000D02*
X97830500Y-51990500D01*
X88678000Y-44343000D02*
X87733000Y-45288000D01*
X97830500Y-50790500D02*
X93783000Y-46743000D01*
X92883000Y-44343000D02*
X88678000Y-44343000D01*
X93783000Y-46743000D02*
X93783000Y-45243000D01*
X93783000Y-45243000D02*
X92883000Y-44343000D01*
X97830500Y-51990500D02*
X97830500Y-50790500D01*
%TO.N,/BMP390_SCL1*%
X106469233Y-59070500D02*
X106401733Y-59138000D01*
D54*
X92211248Y-59643000D02*
X97133000Y-59643000D01*
X97475800Y-65335800D02*
X96583000Y-64443000D01*
X132610000Y-71029842D02*
X132610000Y-69140158D01*
D56*
X97651664Y-59643000D02*
X97133000Y-59643000D01*
D54*
X130640158Y-68910000D02*
X129633000Y-67902842D01*
X103983000Y-84443000D02*
X126285818Y-84443000D01*
X97133000Y-59643000D02*
X96583000Y-59643000D01*
X130183000Y-71260000D02*
X132379842Y-71260000D01*
X90583000Y-58014752D02*
X92211248Y-59643000D01*
D56*
X109604164Y-58900500D02*
X109434164Y-59070500D01*
D54*
X103983000Y-69306155D02*
X103983000Y-84443000D01*
X132283000Y-76043000D02*
X130183000Y-73943000D01*
X97475800Y-65335800D02*
X98033000Y-65893000D01*
D56*
X110696768Y-58900500D02*
X109604164Y-58900500D01*
D54*
X88383000Y-56793000D02*
X89945500Y-56793000D01*
D56*
X109434164Y-59070500D02*
X106469233Y-59070500D01*
D54*
X132379842Y-68910000D02*
X130640158Y-68910000D01*
D52*
X97475800Y-67768000D02*
X97475800Y-65335800D01*
D54*
X126285818Y-84443000D02*
X132283000Y-78445818D01*
X130183000Y-73943000D02*
X130183000Y-71260000D01*
D56*
X111183000Y-58943000D02*
X111183000Y-58993000D01*
D54*
X132610000Y-69140158D02*
X132379842Y-68910000D01*
X102033000Y-66193000D02*
X102033000Y-67356155D01*
X90583000Y-56155500D02*
X90583000Y-58014752D01*
X101733000Y-65893000D02*
X102033000Y-66193000D01*
X96583000Y-59643000D02*
X96583000Y-64443000D01*
X98033000Y-65893000D02*
X101733000Y-65893000D01*
X132379842Y-71260000D02*
X132610000Y-71029842D01*
X129633000Y-67902842D02*
X129633000Y-65198800D01*
X132283000Y-78445818D02*
X132283000Y-76043000D01*
D56*
X111183000Y-58993000D02*
X110893634Y-58703634D01*
X106401733Y-59138000D02*
X98156664Y-59138000D01*
D54*
X129633000Y-65198800D02*
X129183000Y-64748800D01*
X89945500Y-56793000D02*
X90583000Y-56155500D01*
X102033000Y-67356155D02*
X103983000Y-69306155D01*
D56*
X110893634Y-58703634D02*
X110696768Y-58900500D01*
X98156664Y-59138000D02*
X97651664Y-59643000D01*
D54*
%TO.N,/BMP390_SDA1*%
X112756585Y-63152697D02*
X112756585Y-63184517D01*
D56*
X109683000Y-67643000D02*
X112608000Y-64718000D01*
D54*
X114709302Y-63469302D02*
X113985517Y-62745517D01*
X120825500Y-64985500D02*
X117521510Y-64985500D01*
D56*
X103733000Y-66543000D02*
X104833000Y-67643000D01*
D54*
X88083000Y-58543000D02*
X87633000Y-58093000D01*
X112608000Y-63333102D02*
X112608000Y-64143000D01*
X113985517Y-62745517D02*
X113163765Y-62745517D01*
X116946510Y-64410500D02*
X116487346Y-64410500D01*
X95289250Y-65086750D02*
X95226750Y-65086750D01*
X95289250Y-65086750D02*
X93244550Y-67131450D01*
X87633000Y-58093000D02*
X87633000Y-57305500D01*
X112756585Y-63184517D02*
X112608000Y-63333102D01*
X92276750Y-67131450D02*
X91640200Y-67768000D01*
X113163765Y-62745517D02*
X112756585Y-63152697D01*
X116487346Y-64410500D02*
X115546148Y-63469302D01*
X95226750Y-65086750D02*
X88683000Y-58543000D01*
X122133000Y-66293000D02*
X120825500Y-64985500D01*
D56*
X104833000Y-67643000D02*
X109683000Y-67643000D01*
D54*
X88683000Y-58543000D02*
X88083000Y-58543000D01*
X93244550Y-67131450D02*
X92276750Y-67131450D01*
X115546148Y-63469302D02*
X114709302Y-63469302D01*
X117521510Y-64985500D02*
X116946510Y-64410500D01*
D56*
X112608000Y-64718000D02*
X112608000Y-64343000D01*
%TO.N,/Xbee_TX*%
X95233000Y-57743000D02*
X97283000Y-57743000D01*
X92483000Y-54993000D02*
X95233000Y-57743000D01*
X98998000Y-59828000D02*
X98483000Y-60343000D01*
X106783000Y-59828000D02*
X98998000Y-59828000D01*
%TO.N,/Xbee_RX*%
X110916768Y-60280500D02*
X111454268Y-59743000D01*
X102155666Y-61043000D02*
X102918166Y-60280500D01*
X102918166Y-60280500D02*
X110916768Y-60280500D01*
X99583000Y-60393000D02*
X100233000Y-61043000D01*
X111454268Y-59743000D02*
X112783000Y-59743000D01*
X100233000Y-61043000D02*
X102155666Y-61043000D01*
%TO.N,/Cam_TX*%
X112170432Y-60090500D02*
X112322932Y-60243000D01*
X99178995Y-61543003D02*
X99278998Y-61443000D01*
X113433000Y-60243000D02*
X113930500Y-59745500D01*
X97933000Y-61543003D02*
X99178995Y-61543003D01*
X113930500Y-59745500D02*
X113930500Y-58755568D01*
X103044502Y-60585500D02*
X111300568Y-60585500D01*
X113930500Y-58755568D02*
X114995568Y-57690500D01*
X111795568Y-60090500D02*
X112170432Y-60090500D01*
X116435500Y-57690500D02*
X117583000Y-56543000D01*
X112322932Y-60243000D02*
X113433000Y-60243000D01*
X102187002Y-61443000D02*
X103044502Y-60585500D01*
X111300568Y-60585500D02*
X111795568Y-60090500D01*
X117583000Y-56543000D02*
X118383000Y-56543000D01*
X99278998Y-61443000D02*
X102187002Y-61443000D01*
X114995568Y-57690500D02*
X116435500Y-57690500D01*
%TO.N,/Cam_RX*%
X114869232Y-57385500D02*
X115110040Y-57385500D01*
X115110040Y-57385500D02*
X115980000Y-56515540D01*
X106595568Y-59375500D02*
X109647828Y-59375500D01*
X111370432Y-59395500D02*
X112522932Y-58243000D01*
X109647828Y-59375500D02*
X109667828Y-59395500D01*
X98203000Y-59523000D02*
X99303000Y-59523000D01*
X109667828Y-59395500D02*
X111370432Y-59395500D01*
X99383000Y-59443000D02*
X106528068Y-59443000D01*
X97933000Y-60943000D02*
X97933000Y-59793000D01*
X99303000Y-59523000D02*
X99383000Y-59443000D01*
X114011732Y-58243000D02*
X114869232Y-57385500D01*
X106528068Y-59443000D02*
X106595568Y-59375500D01*
X112522932Y-58243000D02*
X114011732Y-58243000D01*
X97933000Y-59793000D02*
X98203000Y-59523000D01*
%TO.N,/SD_B0_02*%
X110258000Y-47543000D02*
X110258000Y-47418000D01*
X110258000Y-47418000D02*
X109083000Y-46243000D01*
X109083000Y-46243000D02*
X109083000Y-37943000D01*
X106458000Y-35318000D02*
X106458000Y-34130500D01*
X109083000Y-37943000D02*
X106458000Y-35318000D01*
D52*
%TO.N,/BMO085_SDA*%
X100295500Y-47880000D02*
X101720000Y-47880000D01*
X101720000Y-47880000D02*
X101783000Y-47943000D01*
D56*
%TO.N,/EMC_24*%
X119913000Y-43093000D02*
X119913000Y-46673000D01*
X119913000Y-46673000D02*
X119933000Y-46693000D01*
%TO.N,/EMC_26*%
X123723000Y-50133000D02*
X123733000Y-50143000D01*
X123723000Y-48493000D02*
X123723000Y-50133000D01*
%TO.N,/SD_B0_04*%
X113583000Y-50743000D02*
X113183000Y-50343000D01*
X113183000Y-34255500D02*
X113058000Y-34130500D01*
X113183000Y-50343000D02*
X113183000Y-34255500D01*
%TO.N,/SD_B0_03*%
X110258000Y-50668000D02*
X110258000Y-48218000D01*
X108683000Y-38085500D02*
X105358000Y-34760500D01*
X110258000Y-48218000D02*
X108683000Y-46643000D01*
X108683000Y-46643000D02*
X108683000Y-38085500D01*
X105358000Y-34760500D02*
X105358000Y-34130500D01*
%TO.N,/SD_B0_00*%
X112453102Y-51313102D02*
X112183000Y-51043000D01*
X112183000Y-51043000D02*
X112183000Y-36143000D01*
X112783000Y-54143000D02*
X112783000Y-53443000D01*
X112783000Y-53443000D02*
X112453102Y-53113102D01*
X112453102Y-53113102D02*
X112453102Y-51313102D01*
X110858000Y-34818000D02*
X110858000Y-34130500D01*
X112183000Y-36143000D02*
X110858000Y-34818000D01*
D52*
%TO.N,/BMO085_SCL*%
X96696000Y-45630000D02*
X96683000Y-45643000D01*
X98470500Y-45630000D02*
X96696000Y-45630000D01*
D56*
%TO.N,/Pyro3_Test_39*%
X125223000Y-69083000D02*
X125223000Y-70311498D01*
X124633000Y-70901498D02*
X124633000Y-78380500D01*
X115681802Y-63141802D02*
X116623000Y-64083000D01*
X114383000Y-62679846D02*
X114844956Y-63141802D01*
X116623000Y-64083000D02*
X117723000Y-64083000D01*
X124173000Y-67693068D02*
X124173000Y-68033000D01*
X118298000Y-64658000D02*
X121137932Y-64658000D01*
X117723000Y-64083000D02*
X118298000Y-64658000D01*
D58*
X124795500Y-83543000D02*
X124795500Y-78543000D01*
D56*
X125223000Y-70311498D02*
X124633000Y-70901498D01*
X114844956Y-63141802D02*
X115681802Y-63141802D01*
X114383000Y-61343000D02*
X114383000Y-62679846D01*
X121137932Y-64658000D02*
X124173000Y-67693068D01*
X124633000Y-78380500D02*
X124795500Y-78543000D01*
X124173000Y-68033000D02*
X125223000Y-69083000D01*
%TO.N,/D+*%
X92383000Y-59143000D02*
X92497000Y-59029000D01*
X98097828Y-58765500D02*
X108960500Y-58765500D01*
X92497000Y-59029000D02*
X97834328Y-59029000D01*
X108960500Y-58765500D02*
X110383000Y-57343000D01*
X97834328Y-59029000D02*
X98097828Y-58765500D01*
%TO.N,/EMC_29*%
X115810500Y-49470500D02*
X117335410Y-49470500D01*
X115810500Y-49470500D02*
X115583000Y-49243000D01*
%TO.N,/Pyro1_Test_40*%
X110080500Y-63640500D02*
X111232190Y-63640500D01*
X103183000Y-67393000D02*
X114295500Y-78505500D01*
X111498000Y-64824900D02*
X110969900Y-65353000D01*
X114295500Y-78505500D02*
X114295500Y-78543000D01*
X110383000Y-61343000D02*
X109483000Y-62243000D01*
X109483000Y-63043000D02*
X110080500Y-63640500D01*
X103773000Y-65353000D02*
X103183000Y-65943000D01*
X103183000Y-65943000D02*
X103183000Y-67393000D01*
X111498000Y-63906310D02*
X111498000Y-64824900D01*
X109483000Y-62243000D02*
X109483000Y-63043000D01*
X110969900Y-65353000D02*
X103773000Y-65353000D01*
X111232190Y-63640500D02*
X111498000Y-63906310D01*
D58*
X114448000Y-78695500D02*
X114448000Y-83390500D01*
X114448000Y-83390500D02*
X114295500Y-83543000D01*
X114295500Y-78543000D02*
X114448000Y-78695500D01*
D56*
%TO.N,/Pyro2_Test_41*%
X114083000Y-77243000D02*
X118570420Y-77243000D01*
X109809336Y-67948000D02*
X109778000Y-67948000D01*
X118570420Y-77243000D02*
X119545500Y-78218080D01*
X119545500Y-78218080D02*
X119545500Y-78543000D01*
X109778000Y-67948000D02*
X109183000Y-68543000D01*
X109183000Y-72343000D02*
X114083000Y-77243000D01*
D58*
X119545500Y-83543000D02*
X119545500Y-78543000D01*
D56*
X113756698Y-65619302D02*
X112138034Y-65619302D01*
X109183000Y-68543000D02*
X109183000Y-72343000D01*
X112138034Y-65619302D02*
X109809336Y-67948000D01*
%TO.N,/D-*%
X108806392Y-58393520D02*
X109583000Y-57616912D01*
X92497000Y-58657000D02*
X97680268Y-58657000D01*
X97943748Y-58393520D02*
X108806392Y-58393520D01*
X109583000Y-57616912D02*
X109583000Y-57343000D01*
X92497000Y-58657000D02*
X92383000Y-58543000D01*
X97680268Y-58657000D02*
X97943748Y-58393520D01*
%TO.N,/Servo1_PWM*%
X124478000Y-67838000D02*
X126333000Y-69693000D01*
X120693000Y-64353000D02*
X121264268Y-64353000D01*
X120083000Y-63043000D02*
X120083000Y-63743000D01*
X124478000Y-67566732D02*
X124478000Y-67838000D01*
X120083000Y-63743000D02*
X120693000Y-64353000D01*
X126333000Y-69693000D02*
X131277000Y-69693000D01*
X131277000Y-69693000D02*
X131510000Y-69460000D01*
X121264268Y-64353000D02*
X124478000Y-67566732D01*
%TO.N,/EMC_28*%
X116883000Y-50443000D02*
X120383000Y-50443000D01*
X122433000Y-45831849D02*
X122433000Y-46943000D01*
X122453000Y-43093000D02*
X122433000Y-43113000D01*
X121183000Y-49643000D02*
X120383000Y-50443000D01*
X122433000Y-43113000D02*
X122433000Y-44852735D01*
X121833000Y-47543000D02*
X121833000Y-49643000D01*
X116633000Y-50693000D02*
X116883000Y-50443000D01*
X121833000Y-49643000D02*
X121183000Y-49643000D01*
X122433000Y-46943000D02*
X121833000Y-47543000D01*
X122812114Y-45231849D02*
X122812114Y-45452735D01*
X122622557Y-45642292D02*
G75*
G03*
X122433092Y-45831849I43J-189508D01*
G01*
X122622557Y-45042292D02*
G75*
G02*
X122812108Y-45231849I43J-189508D01*
G01*
X122433000Y-44852735D02*
G75*
G03*
X122622557Y-45042300I189600J35D01*
G01*
X122812114Y-45452735D02*
G75*
G02*
X122622557Y-45642214I-189514J35D01*
G01*
%TO.N,/EMC_27*%
X120783000Y-46693000D02*
X121183000Y-46293000D01*
X120759539Y-45003000D02*
X121556454Y-45003000D01*
X121556454Y-44403000D02*
X121423000Y-44403000D01*
X121183000Y-44163000D02*
X121183000Y-43093000D01*
X121796454Y-44763000D02*
X121796454Y-44643000D01*
X120943000Y-45603000D02*
X120759539Y-45603000D01*
X120519539Y-45363000D02*
X120519539Y-45243000D01*
X121183000Y-46293000D02*
X121183000Y-45843000D01*
X121556454Y-45003000D02*
G75*
G03*
X121796500Y-44763000I46J240000D01*
G01*
X120759539Y-45603000D02*
G75*
G02*
X120519500Y-45363000I-39J240000D01*
G01*
X120519539Y-45243000D02*
G75*
G02*
X120759539Y-45003039I239961J0D01*
G01*
X121796454Y-44643000D02*
G75*
G03*
X121556454Y-44403046I-239954J0D01*
G01*
X121423000Y-44403000D02*
G75*
G02*
X121183000Y-44163000I0J240000D01*
G01*
X121183000Y-45843000D02*
G75*
G03*
X120943000Y-45603000I-240000J0D01*
G01*
%TO.N,/Servo4_PWM*%
X129233000Y-50093000D02*
X130432500Y-48893500D01*
X130816000Y-44710000D02*
X131510000Y-44710000D01*
X130432500Y-48893500D02*
X130432500Y-45093500D01*
X121151664Y-58943000D02*
X127101664Y-52993000D01*
X120083000Y-58943000D02*
X121151664Y-58943000D01*
X127101664Y-52993000D02*
X129233000Y-52993000D01*
X130432500Y-45093500D02*
X130816000Y-44710000D01*
X129233000Y-52993000D02*
X129233000Y-50093000D01*
%TO.N,/SD_B0_01*%
X110710500Y-50855432D02*
X110710500Y-47355568D01*
X109483000Y-46128068D02*
X109483000Y-37843000D01*
X108658000Y-37018000D02*
X108658000Y-34130500D01*
X112000602Y-53343000D02*
X109778102Y-51120500D01*
X109778102Y-51120500D02*
X110445432Y-51120500D01*
X109483000Y-37843000D02*
X108658000Y-37018000D01*
X110445432Y-51120500D02*
X110710500Y-50855432D01*
X110710500Y-47355568D02*
X109483000Y-46128068D01*
%TO.N,/Servo2_PWM*%
X122059336Y-59043000D02*
X126214336Y-59043000D01*
X120083000Y-60195500D02*
X120906836Y-60195500D01*
X120906836Y-60195500D02*
X122059336Y-59043000D01*
X131477000Y-61243000D02*
X131510000Y-61210000D01*
X128414336Y-61243000D02*
X131477000Y-61243000D01*
X126214336Y-59043000D02*
X128414336Y-61243000D01*
%TO.N,/Servo3_PWM*%
X131027000Y-53443000D02*
X131510000Y-52960000D01*
X120930503Y-59595497D02*
X127083000Y-53443000D01*
X127083000Y-53443000D02*
X131027000Y-53443000D01*
X120083000Y-59595497D02*
X120930503Y-59595497D01*
%TO.N,/EMC_25*%
X120166724Y-51071042D02*
X120251579Y-50986188D01*
X120590989Y-50986189D02*
X121090401Y-51485601D01*
X120033000Y-52543000D02*
X120496430Y-52079570D01*
X122453000Y-50123000D02*
X122453000Y-48493000D01*
X122193490Y-50382511D02*
X122453000Y-50123000D01*
X121616241Y-50314378D02*
X121769228Y-50467365D01*
X120496431Y-51740158D02*
X120166725Y-51410452D01*
X121191974Y-50738644D02*
X121514665Y-51061335D01*
X121514663Y-51061333D02*
X121514665Y-51061335D01*
X122108638Y-50467366D02*
X122193490Y-50382511D01*
X121090401Y-51485601D02*
X121090401Y-51485599D01*
X121943409Y-51490079D02*
X121514663Y-51061333D01*
X121858557Y-51914344D02*
X121943409Y-51829491D01*
X119483000Y-52543000D02*
X120033000Y-52543000D01*
X118268189Y-51328189D02*
X119483000Y-52543000D01*
X121191975Y-50399232D02*
X121276829Y-50314379D01*
X121090401Y-51485599D02*
X121519146Y-51914344D01*
X121191974Y-50738644D02*
G75*
G02*
X121191936Y-50399194I169726J169744D01*
G01*
X120251579Y-50986188D02*
G75*
G02*
X120591005Y-50986172I169721J-169712D01*
G01*
X121519146Y-51914344D02*
G75*
G03*
X121858557Y-51914345I169706J169707D01*
G01*
X121943409Y-51829491D02*
G75*
G03*
X121943394Y-51490094I-169709J169691D01*
G01*
X120166725Y-51410452D02*
G75*
G02*
X120166677Y-51070995I169675J169752D01*
G01*
X120496430Y-52079570D02*
G75*
G03*
X120496395Y-51740194I-169730J169670D01*
G01*
X121769228Y-50467365D02*
G75*
G03*
X122108604Y-50467333I169672J169665D01*
G01*
X121276829Y-50314379D02*
G75*
G02*
X121616205Y-50314413I169671J-169721D01*
G01*
%TO.N,/SD_B0_05*%
X112683000Y-50643000D02*
X112683000Y-35564250D01*
X111958000Y-34839250D02*
X111958000Y-34130500D01*
X112783000Y-50743000D02*
X112683000Y-50643000D01*
X112683000Y-35564250D02*
X111958000Y-34839250D01*
D58*
%TO.N,/HighCurrentComponents/Pyro1_HighSide*%
X113223000Y-81043000D02*
X113223000Y-82003000D01*
X112470500Y-82755500D02*
X112470500Y-83543000D01*
X113223000Y-82003000D02*
X112470500Y-82755500D01*
%TO.N,/HighCurrentComponents/Pyro2_HighSide*%
X117720500Y-82905500D02*
X117720500Y-83543000D01*
X118303000Y-81043000D02*
X118303000Y-82323000D01*
X118303000Y-82323000D02*
X117720500Y-82905500D01*
%TO.N,/HighCurrentComponents/Pyro3_HighSide*%
X123033000Y-81393000D02*
X123033000Y-83480500D01*
X123033000Y-83480500D02*
X122970500Y-83543000D01*
X123383000Y-81043000D02*
X123033000Y-81393000D01*
D52*
%TO.N,Net-(BNO1-BOOTN)*%
X98470500Y-41206000D02*
X98920000Y-41206000D01*
X98920000Y-41206000D02*
X99883000Y-40243000D01*
%TO.N,Net-(BNO1-NRST)*%
X98470500Y-43543000D02*
X97583000Y-43543000D01*
X97583000Y-43543000D02*
X96683000Y-44443000D01*
%TO.N,Net-(BNO1-H_SA0{slash}MOSI)*%
X98470500Y-39043000D02*
X97083000Y-39043000D01*
D54*
%TO.N,Net-(MIMXRT1062DVL6B1-DCDC_IN_1)*%
X104353000Y-51130500D02*
X102095500Y-51130500D01*
X106623000Y-51043500D02*
X106483500Y-51043500D01*
X107783000Y-51043000D02*
X106623500Y-51043000D01*
X108883000Y-51043000D02*
X107783000Y-51043000D01*
X102095500Y-51130500D02*
X102083000Y-51143000D01*
X106483500Y-51043500D02*
X106396500Y-51130500D01*
X106623500Y-51043000D02*
X106623000Y-51043500D01*
X106396500Y-51130500D02*
X104353000Y-51130500D01*
%TO.N,Net-(MIMXRT1062DVL6B1-VDD_HIGH_CAP)*%
X106983000Y-55640500D02*
X106983000Y-56345500D01*
X106983000Y-56345500D02*
X107633000Y-56995500D01*
D52*
%TO.N,Net-(KMR241GLFS1-COM_1)*%
X123083000Y-38893000D02*
X128033000Y-43843000D01*
X132683000Y-48143000D02*
X132283000Y-48543000D01*
X122183000Y-62943000D02*
X121383000Y-62943000D01*
X133183000Y-43843000D02*
X134983000Y-45643000D01*
X134983000Y-45643000D02*
X134983000Y-48143000D01*
X123083000Y-38843000D02*
X123083000Y-38893000D01*
X128033000Y-43843000D02*
X133183000Y-43843000D01*
X134983000Y-48143000D02*
X132683000Y-48143000D01*
D56*
%TO.N,Net-(MIMXRT1062DVL6B1-GPIO_B0_03)*%
X122683000Y-51143000D02*
X122683000Y-52293000D01*
X121780500Y-53195500D02*
X121780500Y-53997845D01*
X121780500Y-53997845D02*
X120872845Y-54905500D01*
X122433000Y-50893000D02*
X122683000Y-51143000D01*
X120872845Y-54905500D02*
X120075500Y-54905500D01*
X122683000Y-52293000D02*
X121780500Y-53195500D01*
D54*
%TO.N,Net-(MKL02Z32VFG1-PTB3{slash}IRQ_10)*%
X121783000Y-62443000D02*
X121283000Y-61943000D01*
X122183000Y-62443000D02*
X121783000Y-62443000D01*
D56*
%TO.N,Net-(MIMXRT1062DVL6B1-GPIO_AD_B1_15)*%
X111803000Y-64951236D02*
X111803000Y-63723000D01*
X111803000Y-63723000D02*
X112083000Y-63443000D01*
X106783000Y-67143000D02*
X109611236Y-67143000D01*
X109611236Y-67143000D02*
X111803000Y-64951236D01*
D59*
%TO.N,Net-(ScrewTerminal2-Pin_2)*%
X99223000Y-78283000D02*
X99183000Y-78243000D01*
D60*
X99223000Y-81043000D02*
X99223000Y-78283000D01*
D56*
%TO.N,/EMC_29*%
X118607410Y-48880765D02*
G75*
G02*
X118819410Y-48668810I211990J-35D01*
G01*
X118077410Y-49636496D02*
G75*
G03*
X118243406Y-49802490I165990J-4D01*
G01*
X117865410Y-47918754D02*
G75*
G02*
X118077446Y-48130754I-10J-212046D01*
G01*
X117547410Y-48130754D02*
G75*
G02*
X117759410Y-47918810I211990J-46D01*
G01*
X117335410Y-49470500D02*
G75*
G03*
X117547400Y-49258500I-10J212000D01*
G01*
X118441414Y-49802492D02*
G75*
G03*
X118607392Y-49636496I-14J165992D01*
G01*
X118077410Y-49470500D02*
X118077410Y-49636496D01*
X121183000Y-48918000D02*
X121183000Y-48493000D01*
X118077410Y-48130754D02*
X118077410Y-49258500D01*
X120630500Y-49470500D02*
X120920500Y-49180500D01*
X120920500Y-49180500D02*
X121183000Y-48918000D01*
X118607410Y-49258500D02*
X118607410Y-48880765D01*
X119137410Y-48880765D02*
X119137410Y-49258500D01*
X118607410Y-49636496D02*
X118607410Y-49470500D01*
X118607410Y-49470500D02*
X118607410Y-49258500D01*
X118077410Y-49258500D02*
X118077410Y-49470500D01*
X119349410Y-49470500D02*
X119455410Y-49470500D01*
X117759410Y-47918754D02*
X117865410Y-47918754D01*
X117547410Y-49258500D02*
X117547410Y-48130754D01*
X119455410Y-49470500D02*
X120630500Y-49470500D01*
X118243406Y-49802492D02*
X118441414Y-49802492D01*
X118819410Y-48668765D02*
X118925410Y-48668765D01*
X118925410Y-48668765D02*
G75*
G02*
X119137435Y-48880765I-10J-212035D01*
G01*
X119137410Y-49258500D02*
G75*
G03*
X119349410Y-49470490I211990J0D01*
G01*
D52*
%TO.N,GNDREF*%
X101983000Y-39043000D02*
X100295500Y-39043000D01*
%TD*%
%TA.AperFunction,Conductor*%
%TO.N,+7.5V*%
G36*
X103626039Y-70712685D02*
G01*
X103671794Y-70765489D01*
X103683000Y-70817000D01*
X103683000Y-81319000D01*
X103663315Y-81386039D01*
X103610511Y-81431794D01*
X103559000Y-81443000D01*
X101307000Y-81443000D01*
X101239961Y-81423315D01*
X101194206Y-81370511D01*
X101183000Y-81319000D01*
X101183000Y-72843000D01*
X96807000Y-72843000D01*
X96739961Y-72823315D01*
X96694206Y-72770511D01*
X96683000Y-72719000D01*
X96683000Y-70817000D01*
X96702685Y-70749961D01*
X96755489Y-70704206D01*
X96807000Y-70693000D01*
X103559000Y-70693000D01*
X103626039Y-70712685D01*
G37*
%TD.AperFunction*%
%TD*%
%TA.AperFunction,Conductor*%
%TO.N,+3.3V*%
G36*
X122226039Y-67662685D02*
G01*
X122271794Y-67715489D01*
X122283000Y-67767000D01*
X122283000Y-74769000D01*
X122263315Y-74836039D01*
X122210511Y-74881794D01*
X122159000Y-74893000D01*
X116857000Y-74893000D01*
X116789961Y-74873315D01*
X116744206Y-74820511D01*
X116733000Y-74769000D01*
X116733000Y-72667000D01*
X116752685Y-72599961D01*
X116805489Y-72554206D01*
X116857000Y-72543000D01*
X120933000Y-72543000D01*
X120933000Y-67767000D01*
X120952685Y-67699961D01*
X121005489Y-67654206D01*
X121057000Y-67643000D01*
X122159000Y-67643000D01*
X122226039Y-67662685D01*
G37*
%TD.AperFunction*%
%TD*%
%TA.AperFunction,Conductor*%
%TO.N,+7.5V*%
G36*
X113925539Y-68162685D02*
G01*
X113971294Y-68215489D01*
X113982500Y-68267000D01*
X113982500Y-69769000D01*
X113962815Y-69836039D01*
X113910011Y-69881794D01*
X113858500Y-69893000D01*
X113134362Y-69893000D01*
X113067323Y-69873315D01*
X113046681Y-69856681D01*
X113033000Y-69843000D01*
X110057000Y-69843000D01*
X109989961Y-69823315D01*
X109944206Y-69770511D01*
X109933000Y-69719000D01*
X109933000Y-68267000D01*
X109952685Y-68199961D01*
X110005489Y-68154206D01*
X110057000Y-68143000D01*
X113858500Y-68143000D01*
X113925539Y-68162685D01*
G37*
%TD.AperFunction*%
%TD*%
%TA.AperFunction,Conductor*%
%TO.N,+BATT*%
G36*
X92583639Y-70712685D02*
G01*
X92629394Y-70765489D01*
X92640600Y-70817000D01*
X92640600Y-74143000D01*
X100159000Y-74143000D01*
X100226039Y-74162685D01*
X100271794Y-74215489D01*
X100283000Y-74267000D01*
X100283000Y-76069000D01*
X100263315Y-76136039D01*
X100210511Y-76181794D01*
X100159000Y-76193000D01*
X93338404Y-76193000D01*
X93271365Y-76173315D01*
X93232287Y-76133150D01*
X93193507Y-76069000D01*
X93142481Y-75984592D01*
X92944729Y-75732181D01*
X92944726Y-75732177D01*
X92717997Y-75505448D01*
X92465580Y-75307692D01*
X92414419Y-75276764D01*
X92191175Y-75141809D01*
X92191171Y-75141807D01*
X92191170Y-75141806D01*
X91991869Y-75052108D01*
X91898773Y-75010209D01*
X91898770Y-75010208D01*
X91898755Y-75010202D01*
X91592649Y-74914816D01*
X91592645Y-74914815D01*
X91592641Y-74914814D01*
X91277241Y-74857015D01*
X91277240Y-74857014D01*
X91277235Y-74857014D01*
X90984927Y-74839333D01*
X90957175Y-74837655D01*
X90957174Y-74837655D01*
X90714486Y-74852334D01*
X90646381Y-74836733D01*
X90597521Y-74786787D01*
X90583000Y-74728560D01*
X90583000Y-70817000D01*
X90602685Y-70749961D01*
X90655489Y-70704206D01*
X90707000Y-70693000D01*
X92516600Y-70693000D01*
X92583639Y-70712685D01*
G37*
%TD.AperFunction*%
%TD*%
%TA.AperFunction,Conductor*%
%TO.N,Net-(TPS62111RSAR1-SW_1)*%
G36*
X116125539Y-70913185D02*
G01*
X116171294Y-70965989D01*
X116182500Y-71017500D01*
X116182500Y-71758819D01*
X116183000Y-71768987D01*
X116183000Y-74769000D01*
X116163315Y-74836039D01*
X116110511Y-74881794D01*
X116059000Y-74893000D01*
X114757000Y-74893000D01*
X114689961Y-74873315D01*
X114644206Y-74820511D01*
X114633000Y-74769000D01*
X114633000Y-72667000D01*
X114652685Y-72599961D01*
X114705489Y-72554206D01*
X114757000Y-72543000D01*
X114933000Y-72543000D01*
X114933000Y-71017500D01*
X114952685Y-70950461D01*
X115005489Y-70904706D01*
X115057000Y-70893500D01*
X116058500Y-70893500D01*
X116125539Y-70913185D01*
G37*
%TD.AperFunction*%
%TD*%
%TA.AperFunction,Conductor*%
%TO.N,GNDREF*%
G36*
X110996598Y-70343249D02*
G01*
X111422421Y-70640002D01*
X111424005Y-70641328D01*
X111624059Y-70841382D01*
X111627486Y-70849655D01*
X111624059Y-70857928D01*
X111621135Y-70860061D01*
X110920452Y-71220260D01*
X110911528Y-71220994D01*
X110905529Y-71216577D01*
X110587854Y-70764128D01*
X110585905Y-70755389D01*
X110589030Y-70749262D01*
X110981512Y-70344700D01*
X110989732Y-70341149D01*
X110996598Y-70343249D01*
G37*
%TD.AperFunction*%
%TD*%
%TA.AperFunction,Conductor*%
%TO.N,/BMP390_SDA1*%
G36*
X91836624Y-67444099D02*
G01*
X91995757Y-67603232D01*
X91999184Y-67611505D01*
X91995757Y-67619778D01*
X91991972Y-67622310D01*
X91650369Y-67764189D01*
X91641414Y-67764198D01*
X91635076Y-67757872D01*
X91635047Y-67757801D01*
X91580583Y-67624207D01*
X91580633Y-67615252D01*
X91584662Y-67610237D01*
X91821599Y-67442816D01*
X91830333Y-67440841D01*
X91836624Y-67444099D01*
G37*
%TD.AperFunction*%
%TD*%
%TA.AperFunction,Conductor*%
%TO.N,/Pyro3_Test_39*%
G36*
X125045495Y-82596427D02*
G01*
X125048255Y-82600806D01*
X125261966Y-83206241D01*
X125261488Y-83215183D01*
X125257653Y-83219712D01*
X124802220Y-83539284D01*
X124793480Y-83541231D01*
X124788780Y-83539284D01*
X124333346Y-83219712D01*
X124328542Y-83212155D01*
X124329032Y-83206245D01*
X124542745Y-82600806D01*
X124548730Y-82594145D01*
X124553778Y-82593000D01*
X125037222Y-82593000D01*
X125045495Y-82596427D01*
G37*
%TD.AperFunction*%
%TD*%
%TA.AperFunction,Conductor*%
%TO.N,/Pyro1_Test_40*%
G36*
X114695885Y-82596427D02*
G01*
X114699230Y-82603314D01*
X114782016Y-83297253D01*
X114779593Y-83305874D01*
X114775540Y-83309149D01*
X114302932Y-83540363D01*
X114293994Y-83540920D01*
X114289594Y-83538203D01*
X114177047Y-83427736D01*
X113886362Y-83142421D01*
X113882860Y-83134181D01*
X113884463Y-83128159D01*
X114194610Y-82598785D01*
X114201749Y-82593380D01*
X114204705Y-82593000D01*
X114687612Y-82593000D01*
X114695885Y-82596427D01*
G37*
%TD.AperFunction*%
%TD*%
%TA.AperFunction,Conductor*%
%TO.N,/Pyro2_Test_41*%
G36*
X119795495Y-82596427D02*
G01*
X119798255Y-82600806D01*
X120011966Y-83206241D01*
X120011488Y-83215183D01*
X120007653Y-83219712D01*
X119552220Y-83539284D01*
X119543480Y-83541231D01*
X119538780Y-83539284D01*
X119083346Y-83219712D01*
X119078542Y-83212155D01*
X119079032Y-83206245D01*
X119292745Y-82600806D01*
X119298730Y-82594145D01*
X119303778Y-82593000D01*
X119787222Y-82593000D01*
X119795495Y-82596427D01*
G37*
%TD.AperFunction*%
%TD*%
%TA.AperFunction,Conductor*%
%TO.N,/HighCurrentComponents/Pyro1_HighSide*%
G36*
X113227122Y-81045717D02*
G01*
X113227139Y-81045734D01*
X113798712Y-81618693D01*
X113802129Y-81626970D01*
X113799304Y-81634580D01*
X112920097Y-82658106D01*
X112912107Y-82662148D01*
X112903598Y-82659357D01*
X112902949Y-82658755D01*
X112561153Y-82316959D01*
X112557818Y-82310151D01*
X112399658Y-81056150D01*
X112402023Y-81047515D01*
X112409802Y-81043080D01*
X112411245Y-81042988D01*
X113218846Y-81042297D01*
X113227122Y-81045717D01*
G37*
%TD.AperFunction*%
%TD*%
%TA.AperFunction,Conductor*%
%TO.N,/HighCurrentComponents/Pyro1_HighSide*%
G36*
X112417029Y-82472940D02*
G01*
X112419806Y-82474996D01*
X112760654Y-82815844D01*
X112763061Y-82819339D01*
X112878890Y-83078212D01*
X112913441Y-83155432D01*
X112935974Y-83205791D01*
X112936225Y-83214742D01*
X112932004Y-83220154D01*
X112477434Y-83538357D01*
X112468691Y-83540294D01*
X112462875Y-83537448D01*
X112047385Y-83161551D01*
X112043549Y-83153460D01*
X112044904Y-83147382D01*
X112401204Y-82477772D01*
X112408116Y-82472079D01*
X112417029Y-82472940D01*
G37*
%TD.AperFunction*%
%TD*%
%TA.AperFunction,Conductor*%
%TO.N,/HighCurrentComponents/Pyro2_HighSide*%
G36*
X117772990Y-82516298D02*
G01*
X117774543Y-82517602D01*
X118115754Y-82858813D01*
X118118947Y-82864760D01*
X118188396Y-83207098D01*
X118186683Y-83215887D01*
X118183640Y-83219009D01*
X117728376Y-83537698D01*
X117719633Y-83539635D01*
X117712877Y-83535836D01*
X117346654Y-83119069D01*
X117343767Y-83110592D01*
X117345866Y-83104626D01*
X117516605Y-82861306D01*
X117756693Y-82519154D01*
X117764250Y-82514351D01*
X117772990Y-82516298D01*
G37*
%TD.AperFunction*%
%TD*%
%TA.AperFunction,Conductor*%
%TO.N,/HighCurrentComponents/Pyro2_HighSide*%
G36*
X119052649Y-81353498D02*
G01*
X119058973Y-81359837D01*
X119058963Y-81368792D01*
X119058174Y-81370350D01*
X118225871Y-82748616D01*
X118218661Y-82753927D01*
X118209808Y-82752583D01*
X118207583Y-82750841D01*
X117866645Y-82409903D01*
X117863738Y-82405080D01*
X117544390Y-81370350D01*
X117543939Y-81368888D01*
X117544774Y-81359975D01*
X117550635Y-81354634D01*
X118299222Y-81044152D01*
X118308174Y-81044149D01*
X119052649Y-81353498D01*
G37*
%TD.AperFunction*%
%TD*%
%TA.AperFunction,Conductor*%
%TO.N,/HighCurrentComponents/Pyro3_HighSide*%
G36*
X123282160Y-82596427D02*
G01*
X123285231Y-82601836D01*
X123437948Y-83206800D01*
X123436650Y-83215661D01*
X123433324Y-83219241D01*
X122977600Y-83539017D01*
X122968860Y-83540964D01*
X122963669Y-83538653D01*
X122524951Y-83195266D01*
X122520548Y-83187469D01*
X122521470Y-83181303D01*
X122779912Y-82599947D01*
X122786404Y-82593779D01*
X122790603Y-82593000D01*
X123273887Y-82593000D01*
X123282160Y-82596427D01*
G37*
%TD.AperFunction*%
%TD*%
%TA.AperFunction,Conductor*%
%TO.N,/HighCurrentComponents/Pyro3_HighSide*%
G36*
X123386415Y-81045421D02*
G01*
X123959449Y-81619437D01*
X123962869Y-81627713D01*
X123960769Y-81634391D01*
X123443685Y-82376637D01*
X123289991Y-82597258D01*
X123286492Y-82602280D01*
X123278951Y-82607109D01*
X123276892Y-82607292D01*
X122793138Y-82607292D01*
X122784865Y-82603865D01*
X122781557Y-82597258D01*
X122559920Y-81056349D01*
X122562134Y-81047672D01*
X122569835Y-81043102D01*
X122571477Y-81042983D01*
X123378142Y-81042005D01*
X123386415Y-81045421D01*
G37*
%TD.AperFunction*%
%TD*%
M02*
